<?xml version="1.0" encoding="UTF-8"?>
<svg width="100px" height="31px" viewBox="0 0 100 31" version="1.1" xmlns="http://www.w3.org/2000/svg" xmlns:xlink="http://www.w3.org/1999/xlink">
    <title>E3B435A3-AED2-4961-AE4E-A5CAF0C0DD6D</title>
    <g id="SitoCWS" stroke="none" stroke-width="1" fill="none" fill-rule="evenodd">
        <g id="Home" transform="translate(-176.000000, -9834.000000)">
            <g id="footer" transform="translate(0.000000, 9618.000000)">
                <g id="Group-18" transform="translate(176.000000, 216.000000)">
                    <g id="Logo_CWS_2019">
                        <path d="M24.5325103,27.3535562 C23.7281234,27.9982538 22.8482869,28.5507732 21.8920493,29.0130376 C20.9359477,29.4757142 19.8890348,29.8261561 18.75267,30.0638136 C17.6157614,30.3013337 16.3411405,30.420712 14.9274478,30.420712 C12.7922946,30.420712 10.8107593,30.0279589 8.9813466,29.2441012 C7.15166198,28.4603809 5.57170845,27.3888614 4.24121411,26.0298176 C2.91058382,24.6717354 1.87101192,23.0676158 1.12263434,21.21897 C0.374256761,19.3700494 0,17.3951567 0,15.2942917 L0,15.210356 C0,13.109491 0.374256761,11.1418791 1.12263434,9.30669593 C1.87101192,7.4726118 2.91058382,5.86148615 4.24121411,4.47483008 C5.57170845,3.08831138 7.16539244,1.99591104 9.02280985,1.19762905 C10.8796835,0.399209683 12.9315023,0 15.176771,0 C16.5347262,0 17.7756328,0.112234794 18.8982671,0.336154884 C20.0209015,0.560624472 21.0395378,0.868617627 21.9544481,1.2604091 C22.8692225,1.65302482 23.7145289,2.1291641 24.4909111,2.6891017 C25.2667496,3.24986355 25.9878022,3.86557511 26.6529814,4.53788488 L22.5781641,9.28567767 C21.4411196,8.24973816 20.2842271,7.43703186 19.1062631,6.84893253 C17.9276194,6.26069583 16.6041942,5.9664401 15.1354437,5.9664401 C13.9150649,5.9664401 12.7860411,6.20492187 11.7464692,6.68078641 C10.7068973,7.15733781 9.8130585,7.81536066 9.06440904,8.65567918 C8.31603146,9.49586033 7.73405064,10.4695693 7.31833063,11.5759818 C6.90233874,12.6826691 6.69447873,13.8657364 6.69447873,15.1264203 L6.69447873,15.210356 C6.69447873,16.4710398 6.90233874,17.6618002 7.31833063,18.781538 C7.73405064,19.9025122 8.30882637,20.8826777 9.04388133,21.723271 C9.77784873,22.5631774 10.6652981,23.229168 11.70487,23.7187699 C12.744306,24.2094709 13.8878759,24.4542719 15.1354437,24.4542719 C16.7984597,24.4542719 18.2052192,24.1462787 19.3557223,23.5296055 C20.5055456,22.913894 21.6491155,22.0739876 22.7860241,21.00865 L26.8608414,25.1683434 C26.1124638,25.9813245 25.3360816,26.7095456 24.5325103,27.3535562" id="Fill-1" fill="#373A36"></path>
                        <path d="M99.2157629,25.2164971 C98.6924853,26.3451089 97.9631298,27.293181 97.0279682,28.0589368 C96.091448,28.8255126 94.975204,29.4111388 93.6777419,29.8147221 C92.3800081,30.2183053 90.9422174,30.420712 89.3632831,30.420712 C87.1466891,30.420712 84.9724789,30.0376291 82.8398375,29.2714632 C80.7066528,28.5051607 78.7679991,27.3276215 77.0226537,25.739119 L80.8039183,21.1828514 C82.1335758,22.2696424 83.4974665,23.1339365 84.896677,23.7745036 C86.2949366,24.4157541 87.8259175,24.7359693 89.4878535,24.7359693 C90.8173752,24.7359693 91.8489874,24.4924253 92.5832333,24.0043807 C93.3170716,23.5168827 93.6843984,22.8409184 93.6843984,21.9768976 L93.6843984,21.8932563 C93.6843984,21.4754595 93.6077814,21.1064534 93.4550909,20.7858282 C93.3019928,20.4657497 93.0106038,20.1658981 92.5801088,19.8866836 C92.1497497,19.608699 91.5525721,19.3294845 90.7888477,19.0509533 C90.0247157,18.7725587 89.0319554,18.479814 87.8102952,18.1729923 C86.3378639,17.811093 85.004946,17.4068265 83.8104549,16.9606025 C82.6160997,16.5153353 81.6024192,15.9646963 80.7695493,15.3093689 C79.9360002,14.6549983 79.2904615,13.8400416 78.8322541,12.8640891 C78.373639,11.8889565 78.1448749,10.6768401 78.1448749,9.22732976 L78.1448749,9.14382507 C78.1448749,7.80597326 78.3919782,6.60110028 78.8874074,5.52797612 C79.3825649,4.45539863 80.0774156,3.52864685 80.9720952,2.74813079 C81.8665032,1.96816141 82.9346578,1.36873164 84.1764232,0.950661486 C85.4177811,0.532454667 86.7869697,0.323624595 88.2827665,0.323624595 C90.415272,0.323624595 92.3756611,0.644386492 94.1623035,1.28509027 C95.9488101,1.92620406 97.5898259,2.84612239 99.0860302,4.04375192 L95.7617506,8.89303765 C94.4592621,8.00140978 93.1857089,7.29783831 91.9391889,6.7820499 C90.6926689,6.26667149 89.4460131,6.00850395 88.1996289,6.00850395 C86.9532448,6.00850395 86.0184907,6.2530046 85.3950948,6.74022921 C84.7718348,7.22813717 84.4602048,7.83412705 84.4602048,8.55847219 L84.4602048,8.64211356 C84.4602048,9.11635462 84.5506781,9.52704465 84.7309453,9.87541366 C84.9113484,10.224056 85.2375138,10.5375745 85.7098493,10.8158323 C86.1823206,11.0947735 86.8279951,11.3592279 87.6472804,11.6101519 C88.4665657,11.8608027 89.5007589,12.1534108 90.7512184,12.4878396 C92.2229705,12.878576 93.535104,13.3174198 94.6880263,13.8046444 C95.8404052,14.2925523 96.8122452,14.8777686 97.6043614,15.560293 C98.3959342,16.2433642 98.9931118,17.0443805 99.3953509,17.9641622 C99.7981333,18.8835339 100,19.9850852 100,21.2664927 L100,21.3498607 C100,22.7992344 99.7383612,24.0878854 99.2157629,25.2164971" id="Fill-4" fill="#373A36"></path>
                        <polyline id="Fill-5" fill="#373A36" points="61.1650485 15.0146054 56.0530838 0.323624595 49.2818991 0.323624595 42.2651993 20.4884362 35.2483621 0.323624595 28.4789644 0.323624595 38.5277616 29.7734628 46.0024996 29.7734628 52.6674227 10.2405727 57.69732 24.980583 61.1650485 15.0146054"></polyline>
                        <polyline id="Fill-6" fill="#00BFB2" points="69.6810437 0.323624595 76.3754045 0.323624595 66.4379954 29.7734628 59.5469256 29.7734628 69.6810437 0.323624595"></polyline>
                    </g>
                </g>
            </g>
        </g>
    </g>
</svg>