<?xml version="1.0" encoding="UTF-8"?>
<svg width="100px" height="31px" viewBox="0 0 100 31" version="1.1" xmlns="http://www.w3.org/2000/svg" xmlns:xlink="http://www.w3.org/1999/xlink">
    <title>DCE80302-C6E8-4A78-9A84-C62AE2903967</title>
    <g id="SitoCWS" stroke="none" stroke-width="1" fill="none" fill-rule="evenodd">
        <g id="Home" transform="translate(-176.000000, -50.000000)">
            <g id="header" transform="translate(176.000000, 30.000000)">
                <g id="Logo_CWS_2019" transform="translate(0.000000, 20.000000)">
                    <path d="M24.6486026,27.3002655 C23.8404092,27.9437071 22.9564092,28.49515 21.9956465,28.9565139 C21.0350204,29.4182891 19.9831533,29.7680482 18.841411,30.0052427 C17.6991224,30.2423001 16.4184697,30.3614458 14.9980872,30.3614458 C12.85283,30.3614458 10.8619178,29.9694579 9.02384797,29.1871273 C7.18550495,28.4049338 5.59807479,27.3355019 4.2612843,25.9791058 C2.92435723,24.6236694 1.87986588,23.022675 1.12794685,21.1776308 C0.376027812,19.3323124 0,17.3612671 0,15.2644951 L0,15.1807229 C0,13.0839508 0.376027812,11.1201722 1.12794685,9.28856446 C1.87986588,7.45805353 2.92435723,5.85006669 4.2612843,4.46611213 C5.59807479,3.08229468 7.19930037,1.99202257 9.06550742,1.19529581 C10.9311681,0.398431935 12.9926965,0 15.2485902,0 C16.6129716,0 17.8597503,0.112016136 18.9876972,0.335499981 C20.115644,0.559532253 21.1391008,0.86692537 22.0583406,1.25795355 C22.9774438,1.64980436 23.8267503,2.12501602 24.6068066,2.68386274 C25.3863165,3.2435321 26.1107812,3.85804412 26.7791082,4.52904409 L22.685008,9.26758714 C21.5425828,8.23366586 20.3802157,7.4225429 19.1966774,6.83558932 C18.0124561,6.24849863 16.6827682,5.95481618 15.2070674,5.95481618 C13.9809135,5.95481618 12.846547,6.19283333 11.8020556,6.66777077 C10.7575643,7.14339376 9.85949568,7.80013463 9.10730347,8.63881603 C8.35538443,9.47736032 7.77064957,10.4491723 7.3529623,11.5534293 C6.93500186,12.6579605 6.72615822,13.838723 6.72615822,15.0969507 L6.72615822,15.1807229 C6.72615822,16.4389507 6.93500186,17.6273911 7.3529623,18.7449475 C7.77064957,19.8637377 8.34814525,20.8419937 9.08667862,21.6809493 C9.82411929,22.5192194 10.7157682,23.1839125 11.7602596,23.6725606 C12.8046143,24.1623056 13.9535958,24.4066296 15.2070674,24.4066296 C16.877953,24.4066296 18.2913696,24.0992365 19.4473171,23.4837647 C20.6025816,22.8692527 21.7515631,22.0309826 22.8938517,20.9677205 L26.9879518,25.11931 C26.2360328,25.9307072 25.4559765,26.6575095 24.6486026,27.3002655" id="Fill-1" fill="#FFFFFF"></path>
                    <path d="M99.2104663,25.1531857 C98.6836546,26.2826747 97.9493733,27.2314838 97.0078957,27.9978348 C96.0650505,28.7650065 94.9412677,29.3510879 93.6350428,29.7549849 C92.3285444,30.1588818 90.8810432,30.3614458 89.2914451,30.3614458 C87.0598807,30.3614458 84.8709864,29.9780651 82.7239417,29.2113037 C80.5763498,28.4444056 78.6246029,27.2659511 76.8674699,25.6762138 L80.6742723,21.1164046 C82.01291,22.2040404 83.3860121,23.0690063 84.7946726,23.7100713 C86.2023757,24.3518202 87.7436964,24.6722843 89.4168569,24.6722843 C90.7553579,24.6722843 91.7939372,24.4285511 92.5331421,23.9401271 C93.2719366,23.4522502 93.6417442,22.7757604 93.6417442,21.911068 L93.6417442,21.8273617 C93.6417442,21.4092401 93.5646098,21.0399473 93.410888,20.7190728 C93.2567559,20.3987455 92.963399,20.0986608 92.5299965,19.8192292 C92.0967309,19.5410286 91.49552,19.261597 90.7266376,18.9828493 C89.9573449,18.7042384 88.9578797,18.4112661 87.7279687,18.1042059 C86.2455929,17.7420254 84.9036728,17.3374445 83.7011144,16.8908737 C82.4986927,16.4452604 81.4781661,15.8941934 80.6396712,15.2383566 C79.8004925,14.5834773 79.150594,13.7678872 78.6892919,12.7911761 C78.2275794,11.8152855 77.9972703,10.6022269 77.9972703,9.1515899 L77.9972703,9.0680203 C77.9972703,7.72912857 78.2460425,6.52331904 78.7448177,5.44936073 C79.2433194,4.37594953 79.9428629,3.44847738 80.843585,2.66735463 C81.7440337,1.88677897 82.8194023,1.28688326 84.0695543,0.868488143 C85.319296,0.449956251 86.6977318,0.240963855 88.2036309,0.240963855 C90.3505389,0.240963855 92.324168,0.561975081 94.122877,1.20317688 C95.9214492,1.84478901 97.5735481,2.76542239 99.0798575,3.96398284 L95.7331264,8.81703794 C94.4218412,7.924717 93.1396867,7.22059864 91.884748,6.70440931 C90.6298093,6.1886303 89.3747338,5.93026208 88.1199319,5.93026208 C86.8651299,5.93026208 85.9240627,6.17495279 85.2964566,6.66255612 C84.6689872,7.15084333 84.3552525,7.75730424 84.3552525,8.48221242 L84.3552525,8.5659188 C84.3552525,9.04052849 84.4463368,9.45153775 84.6278215,9.80017756 C84.809443,10.1490909 85.1378113,10.4628531 85.6133368,10.7413272 C86.088999,11.0204852 86.7390343,11.2851451 87.5638529,11.5362643 C88.3886715,11.7871098 89.4298494,12.0799454 90.6887542,12.4146341 C92.1704462,12.8056742 93.4914415,13.2448592 94.6521504,13.7324625 C95.8123122,14.2207497 96.7907158,14.8064208 97.5881818,15.4894758 C98.3851007,16.1730779 98.9863115,16.9747169 99.3912672,17.8952135 C99.79677,18.8152998 100,19.9177073 100,21.2001109 L100,21.2835438 C100,22.734044 99.7365942,24.0236967 99.2104663,25.1531857" id="Fill-4" fill="#FFFFFF"></path>
                    <polyline id="Fill-5" fill="#FFFFFF" points="60.9638554 15.1468448 55.8762828 0.481927711 49.1374072 0.481927711 42.154188 20.6109644 35.170832 0.481927711 28.4337349 0.481927711 38.4345837 29.8795181 45.8736555 29.8795181 52.5067766 10.3812818 57.5126733 25.0951415 60.9638554 15.1468448"></polyline>
                    <polyline id="Fill-6" fill="#00BFB2" points="69.6756708 0.481927711 76.3855422 0.481927711 66.4251085 29.8795181 59.5180723 29.8795181 69.6756708 0.481927711"></polyline>
                </g>
            </g>
        </g>
    </g>
</svg>