<?xml version="1.0" encoding="UTF-8"?>
<svg width="79px" height="28px" viewBox="0 0 79 28" version="1.1" xmlns="http://www.w3.org/2000/svg" xmlns:xlink="http://www.w3.org/1999/xlink">
    <title>AA174CE4-A7DB-4E9A-901E-7A96FA8F111B</title>
    <g id="SitoCWS" stroke="none" stroke-width="1" fill="none" fill-rule="evenodd">
        <g id="Home" transform="translate(-348.000000, -4453.000000)" fill="#FFFFFF">
            <g id="case-history" transform="translate(0.000000, 3785.000000)">
                <g id="Group-20" transform="translate(172.000000, 165.000000)">
                    <g id="Group-3" transform="translate(6.000000, 503.000000)">
                        <g id="arrow_right-slider" transform="translate(209.500000, 14.000000) rotate(90.000000) translate(-209.500000, -14.000000) translate(195.500000, -25.500000)">
                            <path d="M13.0340011,4.25456437 L13.0340011,77.1293238 C13.0340011,77.7473809 13.5309824,78.2489925 14.1433344,78.2489925 C14.7556864,78.2489925 15.2526677,77.7473809 15.2526677,77.1293238 L15.2526677,4.25456437 L25.9111424,15.0101023 C26.3437824,15.4467731 27.0448811,15.4467731 27.4797397,15.0101023 C27.9123797,14.5734315 27.9123797,13.8635615 27.4797397,13.4268907 L14.9287424,0.758958576 C14.4961024,0.322287768 13.7927851,0.322287768 13.3601451,0.758958576 L0.809147733,13.4268907 C0.376507733,13.8635615 0.376507733,14.5734315 0.809147733,15.0101023 C1.24178773,15.4467731 1.94510507,15.4467731 2.37774507,15.0101023 L13.0340011,4.25456437 Z" id="Outline"></path>
                        </g>
                    </g>
                </g>
            </g>
        </g>
    </g>
</svg>