<svg xmlns="http://www.w3.org/2000/svg" width="79.468" height="101.839" viewBox="0 0 79.468 101.839"><defs><style>.a{fill:#fff;}</style></defs><path class="a" d="M79.468,101.839H73.791V31.117H5.676V90.523h59.6v5.658H5.676v5.657H0V8.486A8.5,8.5,0,0,1,8.514,0H70.953a8.5,8.5,0,0,1,8.515,8.486v93.352ZM8.514,5.658A2.836,2.836,0,0,0,5.676,8.486V25.46H73.791V8.486a2.837,2.837,0,0,0-2.839-2.828Z" transform="translate(0 0)"/><rect class="a" width="22.705" height="5.658" transform="translate(17.029 14.145)"/><rect class="a" width="5.676" height="5.658" transform="translate(45.41 14.145)"/><rect class="a" width="5.676" height="5.658" transform="translate(56.763 14.145)"/><path class="a" d="M34.058,19.8h5.676A19.867,19.867,0,0,0,0,19.8H5.676a14.191,14.191,0,0,1,28.381,0Z" transform="translate(19.867 45.262)"/><path class="a" d="M17.029,8.486A8.514,8.514,0,0,0,0,8.486H5.676a2.838,2.838,0,0,1,5.676,0Z" transform="translate(31.219 56.577)"/><rect class="a" width="5.676" height="5.658" transform="translate(36.896 70.721)"/></svg>