<svg xmlns="http://www.w3.org/2000/svg" viewBox="0 0 44 44"><defs><style>.cls-1{fill:#fff;}</style></defs><g id="cell"><path class="cls-1" d="M30.42,5.86a1,1,0,0,0-1.32.48,1,1,0,0,0,.48,1.33,18,18,0,1,1-12.28-1,5,5,0,1,0-.26-2A20,20,0,1,0,30.42,5.86ZM22,2a3,3,0,1,1-3,3A3,3,0,0,1,22,2Z"/><path class="cls-1" d="M14,24a8,8,0,1,0,8-8A8,8,0,0,0,14,24Zm14,0a6,6,0,1,1-6-6A6,6,0,0,1,28,24Z"/><path class="cls-1" d="M21,22v1H20a1,1,0,0,0,0,2h1v1a1,1,0,0,0,2,0V25h1a1,1,0,0,0,0-2H23V22a1,1,0,0,0-2,0Z"/></g></svg>