<svg xmlns="http://www.w3.org/2000/svg" viewBox="0 0 64 56"><defs><style>.cls-1{fill:#fff;}</style></defs><g id="sleeveless"><path class="cls-1" d="M47.46,24.11a5.93,5.93,0,0,1-3-5.11V10a3,3,0,0,0-3-3h-2a3,3,0,0,0-3,3c0,2.12-.49,3-3.49,3-2.81,0-3.26-.71-3.26-3a3,3,0,0,0-3-3h-2a3,3,0,0,0-3,3v9a5.93,5.93,0,0,1-3.18,5.1A1,1,0,0,0,18,25V42a1,1,0,0,0,2,0V25.58A7.82,7.82,0,0,0,23.74,19V10a1,1,0,0,1,1-1h2a1,1,0,0,1,1,1v7c0,3.55,1.52,5,5.26,5s5.49-1.54,5.49-5V10a1,1,0,0,1,1-1h2a1,1,0,0,1,1,1v9A7.89,7.89,0,0,0,46,25.56V48a1,1,0,0,1-1,1H21a1,1,0,0,1-1-1V47H43a1,1,0,0,0,0-2H19a1,1,0,0,0-1,1v2a3,3,0,0,0,3,3H45a3,3,0,0,0,3-3V25A1,1,0,0,0,47.46,24.11ZM33,20c-2.81,0-3.26-.71-3.26-3V14.37A7,7,0,0,0,33,15a7.08,7.08,0,0,0,3.49-.73V17C36.49,19.12,36,20,33,20Z"/><path class="cls-1" d="M31,36a1,1,0,0,0,0,2h4a1,1,0,0,0,0-2H34V29a1,1,0,0,0-1-1H31a1,1,0,0,0,0,2h1v6Z"/></g></svg>