<svg xmlns="http://www.w3.org/2000/svg" viewBox="0 0 44 44"><defs><style>.cls-1{fill:#fff;}</style></defs><title>cws-icon-server-lock</title><g id="server_lock"><circle class="cls-1" cx="6" cy="6" r="1"/><circle class="cls-1" cx="10" cy="6" r="1"/><path class="cls-1" d="M25,40h-.18A3,3,0,0,0,22,38H20V35a1,1,0,0,0-2,0v3H16a3,3,0,0,0-2.82,2H7a1,1,0,0,0,0,2h6.18A3,3,0,0,0,16,44h6a3,3,0,0,0,2.82-2H25a1,1,0,0,0,0-2Zm-3,2H16a1,1,0,0,1,0-2h6a1,1,0,0,1,0,2Z"/><path class="cls-1" d="M18,5a1,1,0,0,0,0,2H32a1,1,0,0,0,0-2Z"/><circle class="cls-1" cx="6" cy="26" r="1"/><circle class="cls-1" cx="10" cy="26" r="1"/><path class="cls-1" d="M18,25a1,1,0,0,0,0,2H28a1,1,0,0,0,0-2Z"/><circle class="cls-1" cx="6" cy="16" r="1"/><circle class="cls-1" cx="10" cy="16" r="1"/><path class="cls-1" d="M32,17a1,1,0,0,0,0-2H18a1,1,0,0,0,0,2Z"/><path class="cls-1" d="M25,30H3a1,1,0,0,1-1-1V22H37a1,1,0,0,0,1-1V11a1,1,0,0,0-1-1H2V3A1,1,0,0,1,3,2H35a1,1,0,0,1,1,1V7a1,1,0,0,0,2,0V3a3,3,0,0,0-3-3H3A3,3,0,0,0,0,3v8H0v6a1,1,0,0,0,2,0V12H36v8H1a1,1,0,0,0-1,1v8a3,3,0,0,0,3,3H25a1,1,0,0,0,0-2Z"/><path class="cls-1" d="M41,30V29h0a5,5,0,0,0-10,0h0v1a3,3,0,0,0-3,3v8a3,3,0,0,0,3,3H41a3,3,0,0,0,3-3V33A3,3,0,0,0,41,30Zm-8-1h0a3,3,0,0,1,6,0h0v1H33V29Zm9,12a1,1,0,0,1-1,1H31a1,1,0,0,1-1-1V33a1,1,0,0,1,1-1H41a1,1,0,0,1,1,1Z"/><path class="cls-1" d="M36,35a1,1,0,0,0-1,1v2a1,1,0,0,0,2,0V36A1,1,0,0,0,36,35Z"/></g></svg>