<svg xmlns="http://www.w3.org/2000/svg" viewBox="0 0 44 44"><defs><style>.cls-1{fill:#fff;}</style></defs><g id="scientist"><path class="cls-1" d="M9.65,17.53a1,1,0,0,0,1.38.32,1,1,0,0,0,.32-1.38L9.56,13.6A3.59,3.59,0,0,1,9,11.66a3.66,3.66,0,0,1,3-3.59V11a67.25,67.25,0,0,0,.77,6.84,8.77,8.77,0,0,0,1.94,4.58l.22.26a9.19,9.19,0,0,0,14.14,0l.22-.26a8.69,8.69,0,0,0,1.93-4.53A66.82,66.82,0,0,0,32,11a1,1,0,0,0-2,0H28.82a3,3,0,0,0-5.64,0H20.82a3,3,0,0,0-5.64,0H14V8a6,6,0,0,1,6-6h4a6,6,0,0,1,5.94,5.14A1.08,1.08,0,0,0,31,8h.34A3.66,3.66,0,0,1,35,11.66a3.59,3.59,0,0,1-.56,1.94l-1.79,2.87A1,1,0,0,0,33,17.85a1,1,0,0,0,1.38-.32l1.79-2.87A5.66,5.66,0,0,0,31.75,6,8,8,0,0,0,24,0H20a8,8,0,0,0-7.74,6,5.66,5.66,0,0,0-4.4,8.64ZM26,11a1,1,0,1,1-1,1A1,1,0,0,1,26,11Zm-8,0a1,1,0,1,1-1,1A1,1,0,0,1,18,11Zm-2.82,2a3,3,0,0,0,5.64,0h2.36a3,3,0,0,0,5.64,0h1c-.21,2.06-.61,4.55-.62,4.62a6.76,6.76,0,0,1-1.5,3.53l-.21.26a7.2,7.2,0,0,1-11.06,0l-.21-.26a6.84,6.84,0,0,1-1.51-3.58s-.4-2.51-.61-4.57Z"/><path class="cls-1" d="M35.89,29.42,28.18,28a1,1,0,0,0-.82.21l-4.08,3.4a2,2,0,0,1-2.56,0,1,1,0,0,0-1.28,1.54A3.93,3.93,0,0,0,21,34s0,0,0,0v5a1,1,0,0,0,2,0V34s0,0,0,0a3.93,3.93,0,0,0,1.57-.78l3.72-3.1,7.26,1.32a3,3,0,0,1,2.46,3V41a1,1,0,0,1-1,1H7a1,1,0,0,1-1-1V34.34a3,3,0,0,1,2.46-3L16.09,30H23a1,1,0,0,0,0-2H16l-.18,0L8.1,29.42A5,5,0,0,0,4,34.34V41a3,3,0,0,0,3,3H37a3,3,0,0,0,3-3V34.34A5,5,0,0,0,35.89,29.42Z"/><path class="cls-1" d="M19,21a1,1,0,0,0,.71-.29l.7-.71h3.18l.7.71a1,1,0,0,0,1.42,0,1,1,0,0,0,0-1.42l-1-1a1,1,0,0,0-.33-.21A1,1,0,0,0,24,18H20a1,1,0,0,0-.38.08,1,1,0,0,0-.33.21l-1,1a1,1,0,0,0,0,1.42A1,1,0,0,0,19,21Z"/></g></svg>