<svg xmlns="http://www.w3.org/2000/svg" viewBox="0 0 44 44"><defs><style>.cls-1{fill:#fff;}</style></defs><title>cws-icon-ferris</title><g id="ferris_wheel"><path class="cls-1" d="M43,18H40.76a18.88,18.88,0,0,0-2.28-6.41A3,3,0,0,0,40,9V7a1,1,0,0,0-1-1H33.6A18.85,18.85,0,0,0,26,2.46V1a1,1,0,0,0-1-1H19a1,1,0,0,0-1,1V2.46A18.85,18.85,0,0,0,10.4,6H5A1,1,0,0,0,4,7V9a3,3,0,0,0,1.52,2.59A18.88,18.88,0,0,0,3.24,18H1a1,1,0,0,0-1,1v2a3,3,0,0,0,3,3h.26a19.16,19.16,0,0,0,1.55,5A1,1,0,0,0,4,30v2a3,3,0,0,0,3,3H9l.18,0A19,19,0,0,0,14,38.17l-.84,2A3,3,0,0,1,10.34,42H9a1,1,0,0,0,0,2h1.34A5,5,0,0,0,15,40.94l.85-2a18.82,18.82,0,0,0,2.26.62A3,3,0,0,0,21,42h2a3,3,0,0,0,2.94-2.43A18.07,18.07,0,0,0,28.1,39a.6.6,0,0,0,.11-.06l.84,2A5,5,0,0,0,33.66,44H35a1,1,0,0,0,0-2H33.66a3,3,0,0,1-2.77-1.84L24.22,24.32a4,4,0,1,0-4.44,0l-5.06,12a16.88,16.88,0,0,1-3.55-2.27A3,3,0,0,0,12,32.41s.1,0,.14-.1l5.66-5.65a1,1,0,0,0-1.42-1.42l-4.41,4.42A1,1,0,0,0,11,29H7.05A16.69,16.69,0,0,1,5.3,24a3,3,0,0,0,2.52-2H15a1,1,0,0,0,0-2H8V19a1,1,0,0,0-1-1H5.28a16.92,16.92,0,0,1,2.33-6H9a3,3,0,0,0,1.89-.69l5.45,5.45a1,1,0,0,0,1.42,0,1,1,0,0,0,0-1.42L12.1,9.69a1.53,1.53,0,0,0-.16-.11A2.78,2.78,0,0,0,12,9V7.28a16.82,16.82,0,0,1,6.37-2.86A3,3,0,0,0,21,6v8a1,1,0,0,0,2,0V6a3,3,0,0,0,2.63-1.58A16.82,16.82,0,0,1,32,7.28V9a2.78,2.78,0,0,0,.06.58,1.53,1.53,0,0,0-.16.11l-5.66,5.65a1,1,0,0,0,0,1.42,1,1,0,0,0,1.42,0l5.45-5.45A3,3,0,0,0,35,12h1.39a16.92,16.92,0,0,1,2.33,6H37a1,1,0,0,0-1,1v1H29a1,1,0,0,0,0,2h7.18a3,3,0,0,0,2.53,2A16.78,16.78,0,0,1,37,29H33a1,1,0,0,0-.93.66l-4.41-4.42a1,1,0,0,0-1.42,1.42l5.66,5.65s.09.06.14.1a3,3,0,0,0,.8,1.66c-.15.13-.29.27-.45.39-.31.24-.62.46-.95.68a1,1,0,0,0,1.12,1.66c.36-.24.71-.5,1-.76s.85-.69,1.24-1H37a3,3,0,0,0,3-3V30a1,1,0,0,0-.8-1,19,19,0,0,0,1.54-5H41a3,3,0,0,0,3-3V19A1,1,0,0,0,43,18ZM24,39a1,1,0,0,1-1,1H21a1,1,0,0,1-1-1V38h4ZM22,19a2,2,0,1,1-2,2A2,2,0,0,1,22,19Zm-.32,6c.11,0,.21,0,.32,0s.21,0,.32,0l5.12,12.14c-.48.16-1,.29-1.44.4V37a1,1,0,0,0-1-1H23V28a1,1,0,0,0-2,0v8H19a1,1,0,0,0-1,1v.5c-.48-.12-1-.25-1.43-.41ZM10,32a1,1,0,0,1-1,1H7a1,1,0,0,1-1-1V31h4ZM6,21a1,1,0,0,1-1,1H3a1,1,0,0,1-1-1V20H6ZM10,9a1,1,0,0,1-1,1H7A1,1,0,0,1,6,9V8h4ZM24,3a1,1,0,0,1-1,1H21a1,1,0,0,1-1-1V2h4ZM34,9V8h4V9a1,1,0,0,1-1,1H35A1,1,0,0,1,34,9Zm4,23a1,1,0,0,1-1,1H35a1,1,0,0,1-1-1V31h4Zm4-11a1,1,0,0,1-1,1H39a1,1,0,0,1-1-1V20h4Z"/></g></svg>