<svg xmlns="http://www.w3.org/2000/svg" viewBox="0 0 44 44"><defs><style>.cls-1{fill:#fff;}</style></defs><g id="deer"><circle class="cls-1" cx="19" cy="28" r="1"/><circle class="cls-1" cx="25" cy="28" r="1"/><path class="cls-1" d="M39,0a1,1,0,0,0-1,1V12a1,1,0,0,1-1,1H34.82A3,3,0,0,0,35,12V3a1,1,0,0,0-2,0v9a1,1,0,0,1-1,1H30V5a1,1,0,0,0-2,0v8a3,3,0,0,0-3,3v4H19V16a3,3,0,0,0-3-3V5a1,1,0,0,0-2,0v8H12a1,1,0,0,1-1-1V3A1,1,0,0,0,9,3v9a3,3,0,0,0,.18,1H7a1,1,0,0,1-1-1V1A1,1,0,0,0,4,1V12a3,3,0,0,0,3,3h9a1,1,0,0,1,1,1v4H16a2.91,2.91,0,0,0-1.31.32A5,5,0,0,0,10,17H6a1,1,0,0,0-1,1,5,5,0,0,0,5,5h3v7.24A11,11,0,0,0,13.66,34l2.92,8a3,3,0,0,0,2.82,2h5.2a3,3,0,0,0,2.82-2l2.92-8A11,11,0,0,0,31,30.24V23h3a5,5,0,0,0,5-5,1,1,0,0,0-1-1H34a5,5,0,0,0-4.69,3.32A2.91,2.91,0,0,0,28,20H27V16a1,1,0,0,1,1-1h9a3,3,0,0,0,3-3V1A1,1,0,0,0,39,0ZM10,21a3,3,0,0,1-2.83-2H10a3,3,0,0,1,2.83,2Zm24-2h2.83A3,3,0,0,1,34,21H31.17A3,3,0,0,1,34,19Zm-5,4v7.24a8.94,8.94,0,0,1-.54,3.07l-2.92,8a1,1,0,0,1-.94.66H23V40a1,1,0,0,1,1-1h0a1.1,1.1,0,0,0,.36-.07.57.57,0,0,0,.13-.08,1.29,1.29,0,0,0,.16-.09l0,0a1.09,1.09,0,0,0,.13-.17.61.61,0,0,0,.1-.14.84.84,0,0,0,.05-.17A.78.78,0,0,0,25,38v0a.7.7,0,0,0,0-.14.71.71,0,0,0,0-.2.69.69,0,0,0-.1-.19s0-.08-.07-.12l0,0,0,0A3.69,3.69,0,0,0,22.47,36a3.55,3.55,0,0,0-3.17,1.26h0l-.05.06a.67.67,0,0,0-.07.11.69.69,0,0,0-.1.19.71.71,0,0,0,0,.2A.7.7,0,0,0,19,38s0,0,0,0a.78.78,0,0,0,0,.21.84.84,0,0,0,.05.17.45.45,0,0,0,.1.14,1.09,1.09,0,0,0,.13.17s0,0,0,0a.67.67,0,0,0,.11.07.69.69,0,0,0,.19.1l.2,0A.7.7,0,0,0,20,39a1,1,0,0,1,1,1v2H19.4a1,1,0,0,1-.94-.66l-2.92-8A8.94,8.94,0,0,1,15,30.24V23a1,1,0,0,1,1-1H28A1,1,0,0,1,29,23Z"/></g></svg>