<svg xmlns="http://www.w3.org/2000/svg" viewBox="0 0 44 44"><defs><style>.cls-1{fill:#fff;}</style></defs><g id="atom"><path class="cls-1" d="M21.67,26a4,4,0,1,0-4-4A4,4,0,0,0,21.67,26Zm0-6a2,2,0,1,1-2,2A2,2,0,0,1,21.67,20Z"/><path class="cls-1" d="M37.08,22c.38-.37.75-.74,1.1-1.12A2.76,2.76,0,0,0,39,21a3,3,0,1,0-2.47-1.3c-.29.32-.61.63-.93.94A47.25,47.25,0,0,0,30.78,17,45.38,45.38,0,0,0,30,11.71c5-1.18,8.67-.83,9.68.8a1,1,0,1,0,1.7-1C40,9.16,35.72,8.28,29.55,9.72,28,3.78,25.24,0,22,0s-6,3.79-7.56,9.76L14,9.65a3,3,0,1,0-.44,1.95l.46.1A45.5,45.5,0,0,0,13.22,17a46,46,0,0,0-4.83,3.62c-2.25-2.15-3.77-4.25-4.25-6a2.65,2.65,0,0,1,.16-2.11,2.49,2.49,0,0,1,1.13-.93,1,1,0,0,0-.85-1.81,4.54,4.54,0,0,0-2,1.69,4.52,4.52,0,0,0-.39,3.68c.56,2.09,2.23,4.47,4.71,6.86-2.48,2.39-4.15,4.77-4.71,6.86a4.52,4.52,0,0,0,.39,3.68C3.55,34.08,5.77,35,9,35a24.38,24.38,0,0,0,5.49-.71c.15.54.3,1,.46,1.55A3,3,0,1,0,17,35l-.22,0c-.13-.41-.25-.82-.36-1.25A48.73,48.73,0,0,0,22,31.71a48.73,48.73,0,0,0,5.58,2.06C26.21,38.89,24,42,22,42a2.37,2.37,0,0,1-.69-.11,1,1,0,0,0-1.26.63,1,1,0,0,0,.63,1.27A4.33,4.33,0,0,0,22,44c3.24,0,6-3.78,7.55-9.71A24.66,24.66,0,0,0,35,35c3.22,0,5.44-.91,6.39-2.45a4.52,4.52,0,0,0,.39-3.68C41.23,26.77,39.55,24.39,37.08,22ZM39,17a1,1,0,1,1-1,1A1,1,0,0,1,39,17ZM11,11a1,1,0,1,1,1-1A1,1,0,0,1,11,11Zm7,27a1,1,0,1,1-1-1A1,1,0,0,1,18,38ZM34.11,22c-1,.83-2,1.65-3.16,2.45,0-.8.05-1.61.05-2.44s0-1.64-.05-2.44C32.09,20.36,33.14,21.18,34.11,22ZM15,22c0-1.32.05-2.59.14-3.82,1-.66,2.12-1.3,3.25-1.91S20.82,15,22,14.49c1.2.55,2.41,1.14,3.61,1.78s2.21,1.25,3.25,1.91C29,19.41,29,20.68,29,22s-.05,2.6-.14,3.82c-1,.66-2.13,1.3-3.25,1.91S23.18,29,22,29.51c-1.18-.53-2.38-1.12-3.61-1.78s-2.21-1.25-3.25-1.91C15.05,24.57,15,23.29,15,22Zm13.62-6.31c-.67-.4-1.36-.8-2.07-1.18s-1.38-.72-2.07-1.06c1.24-.48,2.43-.89,3.58-1.23C28.28,13.31,28.47,14.47,28.62,15.69ZM22,2c2,0,4.21,3.11,5.58,8.24A45,45,0,0,0,22,12.3a50.32,50.32,0,0,0-5.56-2C17.78,5.12,20,2,22,2ZM15.94,12.22c1.16.34,2.36.76,3.57,1.23-.68.34-1.36.68-2.06,1.06s-1.4.78-2.07,1.18C15.53,14.47,15.72,13.31,15.94,12.22Zm-2.89,7.34c0,.8-.05,1.61-.05,2.44s0,1.64.06,2.44c-1.15-.8-2.21-1.62-3.18-2.44C10.85,21.18,11.91,20.36,13.05,19.56ZM4.3,31.49a2.65,2.65,0,0,1-.16-2.11c.48-1.78,2-3.88,4.25-6A47.66,47.66,0,0,0,13.23,27,47.37,47.37,0,0,0,14,32.29C9,33.47,5.31,33.13,4.3,31.49ZM16,31.77c-.23-1.1-.42-2.26-.56-3.45.67.39,1.35.79,2.06,1.17s1.39.72,2.07,1.06C18.28,31,17.09,31.44,16,31.77Zm8.53-1.22c.68-.34,1.37-.68,2.07-1.06s1.4-.78,2.07-1.18c-.15,1.22-.34,2.38-.56,3.47C26.91,31.44,25.72,31,24.48,30.55Zm15.22.94c-1,1.64-4.68,2-9.68.8A45.56,45.56,0,0,0,30.78,27a45.19,45.19,0,0,0,4.82-3.62c2.26,2.15,3.78,4.26,4.26,6A2.65,2.65,0,0,1,39.7,31.49Z"/></g></svg>