<svg xmlns="http://www.w3.org/2000/svg" viewBox="0 0 44 44"><defs><style>.cls-1{fill:#fff;}</style></defs><g id="lock"><path class="cls-1" d="M22.82,25.78h0a4.65,4.65,0,0,0-.82.71A4.6,4.6,0,0,0,15.7,26a4.57,4.57,0,0,0-.37,6.77l5.41,5.67A1.74,1.74,0,0,0,22,39a1.77,1.77,0,0,0,1.26-.54l5.39-5.65A4.57,4.57,0,0,0,28.3,26,4.64,4.64,0,0,0,22.82,25.78Zm4.4,5.63L22,36.89l-5.24-5.5a2.55,2.55,0,0,1,.2-3.82A2.68,2.68,0,0,1,18.61,27a2.6,2.6,0,0,1,2.45,1.72,1,1,0,0,0,1.88,0,2.58,2.58,0,0,1,1-1.28,2.66,2.66,0,0,1,3.1.13,2.56,2.56,0,0,1,.18,3.84Z"/><path class="cls-1" d="M34,20V12a12,12,0,0,0-24,0v8a3,3,0,0,0-3,3V41a3,3,0,0,0,3,3H34a3,3,0,0,0,3-3V23A3,3,0,0,0,34,20Zm0,22H10a1,1,0,0,1-1-1V40h2a1,1,0,0,0,0-2H9V26h2a1,1,0,0,0,0-2H9V23a1,1,0,0,1,1-1H29a1,1,0,0,0,1-1V12a8,8,0,0,0-16,0v5a1,1,0,0,0,2,0V12a6,6,0,0,1,12,0v8H12V12a10,10,0,0,1,20,0v9a1,1,0,0,0,1,1h1a1,1,0,0,1,1,1v1H33a1,1,0,0,0,0,2h2V38H33a1,1,0,0,0,0,2h2v1A1,1,0,0,1,34,42Z"/></g></svg>