<svg xmlns="http://www.w3.org/2000/svg" viewBox="0 0 44 44"><defs><style>.cls-1{fill:#fff;}</style></defs><title>cws-icon-mortgage</title><g id="mortgage"><circle class="cls-1" cx="26" cy="8" r="1"/><path class="cls-1" d="M43.71,28.29a6.64,6.64,0,0,0-7.84-1.14l-4.2,2A9.53,9.53,0,0,1,28,30a4.91,4.91,0,0,0,1-3,2,2,0,0,0-2-2H16.63a9,9,0,0,0-6.77,3.07l-3.54,4A3,3,0,0,0,4,31H1a1,1,0,0,0,0,2H4a1,1,0,0,1,1,1v6a1,1,0,0,1-1,1H1a1,1,0,0,0,0,2H4a3,3,0,0,0,3-3V34.38l4.36-5A7,7,0,0,1,16.63,27H27a3,3,0,0,1-3,3H18a1,1,0,0,0,0,2h9.69a11.5,11.5,0,0,0,4.83-1.07l4.26-2a4.65,4.65,0,0,1,4.57.05L33,35.23a11,11,0,0,1-5.39,2.14L13.55,38.93a9.82,9.82,0,0,1-1.21.07H10a1,1,0,0,0,0,2h2.34a13.71,13.71,0,0,0,1.43-.08l14.09-1.56a13,13,0,0,0,6.36-2.53l9.38-7a1,1,0,0,0,.4-.73A1,1,0,0,0,43.71,28.29Z"/><path class="cls-1" d="M12,13h2v9a1,1,0,0,0,2,0V12a1,1,0,0,0-1-1H13a1,1,0,0,1,.47-.73L24.67,3.38a2.55,2.55,0,0,1,2.66,0l11.19,6.89A1,1,0,0,1,39,11H37a1,1,0,0,0-1,1V24a1,1,0,0,0,2,0V13h2a1,1,0,0,0,1-1v-.88a3,3,0,0,0-1.43-2.56L38,7.59V2a1,1,0,0,0-1-1H33a1,1,0,0,0-1,1V3.9L28.38,1.67a4.62,4.62,0,0,0-4.76,0L12.43,8.56A3,3,0,0,0,11,11.12V12A1,1,0,0,0,12,13ZM34,5V3h2V6.36L34,5.12S34,5,34,5Z"/><path class="cls-1" d="M25,23a1,1,0,0,0,1-1V14a1,1,0,0,0-1-1H19a1,1,0,0,0-1,1v8a1,1,0,0,0,2,0V15h4v4a1,1,0,0,0,0,2v1A1,1,0,0,0,25,23Z"/><path class="cls-1" d="M28,21h5a1,1,0,0,0,1-1V14a1,1,0,0,0-1-1H28a1,1,0,0,0-1,1v6A1,1,0,0,0,28,21Zm1-6h3v4H29Z"/></g></svg>