<svg xmlns="http://www.w3.org/2000/svg" viewBox="0 0 44 44"><defs><style>.cls-1{fill:#fff;}</style></defs><g id="vane"><circle class="cls-1" cx="30" cy="8" r="1"/><path class="cls-1" d="M43.37,34.07l-5-2A1,1,0,0,0,37,33v1H23V29A13,13,0,0,0,35,16V14a2,2,0,0,1,1.26-1.86l3.11-1.24a1,1,0,0,0,0-1.86L35,7.32V7A6,6,0,0,0,23,7v5a3,3,0,0,1-3,3,1,1,0,0,0,0,2,5,5,0,0,0,5-5V7a4,4,0,0,1,8,0V8a1,1,0,0,0,.63.93L36.31,10l-.8.32A4,4,0,0,0,33,14v2a11,11,0,0,1-22,0,3,3,0,0,0-3-3H6a1,1,0,0,0,0,2H8a1,1,0,0,1,1,1A13,13,0,0,0,21,29V34H10.3L7.55,32.17A1,1,0,0,0,7,32H1a1,1,0,0,0-.55,1.83L2.2,35,.45,36.17A1,1,0,0,0,1,38H7a1,1,0,0,0,.55-.17L10.3,36H21v6a1,1,0,0,0,2,0V36H37v1a1,1,0,0,0,1,1,.94.94,0,0,0,.37-.07l5-2a1,1,0,0,0,0-1.86ZM6.7,36H4.3l.25-.17a1,1,0,0,0,0-1.66L4.3,34H6.7l1.5,1ZM39,35.52v-1l1.31.52Z"/><path class="cls-1" d="M6,12H8a4,4,0,0,1,4,4,1,1,0,0,0,2,0,6,6,0,0,0-6-6H6a1,1,0,0,0,0,2Z"/><path class="cls-1" d="M6,9H8a7,7,0,0,1,7,7,1,1,0,0,0,2,0A9,9,0,0,0,8,7H6A1,1,0,0,0,6,9Z"/><path class="cls-1" d="M19,22h4a6,6,0,0,0,6-6,1,1,0,0,0-2,0,4,4,0,0,1-4,4H19a1,1,0,0,0,0,2Z"/></g></svg>