<svg id="Layer_1" data-name="Layer 1" xmlns="http://www.w3.org/2000/svg" viewBox="0 0 44 44"><defs><style>.cls-1{fill:#fff;}</style></defs><title>cws-icon-spanner</title><circle class="cls-1" cx="5" cy="39" r="1"/><path class="cls-1" d="M43.6,13a1,1,0,0,0-1-.14L37.09,15a1,1,0,1,0,.71,1.87l4-1.49a11.07,11.07,0,0,1-6.88,7.94,10.92,10.92,0,0,1-6.87.3,4,4,0,0,0-4,1L7.54,41.05A3.25,3.25,0,0,1,3,36.46L19.46,20a4,4,0,0,0,1-4,10.57,10.57,0,0,1-.3-1.12A11,11,0,0,1,37.49,4.13L29.81,7a1,1,0,0,0-.55.52,1,1,0,0,0,0,.77l3.54,9.35,1.06,2.81a1,1,0,0,0,1.29.58,1,1,0,0,0,.58-1.29L34.64,17l-.06,0c-.19-.67-.67-2-1.71-4.7L31.46,8.55,39.78,5.4a1,1,0,0,0,.35-1.65,13,13,0,0,0-22,11.41,12,12,0,0,0,.36,1.39,2,2,0,0,1-.5,2L1.54,35.05A5.24,5.24,0,1,0,9,42.46L25.42,26a2.06,2.06,0,0,1,2.06-.48,12.9,12.9,0,0,0,8.12-.35A13.07,13.07,0,0,0,44,13.89,1,1,0,0,0,43.6,13Z"/><path class="cls-1" d="M27.26,15.41a1,1,0,0,0,.35-.06l1.87-.71a1,1,0,0,0,.58-1.29,1,1,0,0,0-1.28-.58l-1.88.71a1,1,0,0,0,.36,1.93Z"/><path class="cls-1" d="M29,10.54A1,1,0,0,0,27.72,10l-1.88.71A1,1,0,0,0,25.26,12a1,1,0,0,0,.94.64,1.07,1.07,0,0,0,.35-.06l1.87-.71A1,1,0,0,0,29,10.54Z"/><path class="cls-1" d="M28.32,18.22a.84.84,0,0,0,.35-.07l1.87-.7a1,1,0,0,0-.7-1.88L28,16.28a1,1,0,0,0,.35,1.94Z"/></svg>