<svg xmlns="http://www.w3.org/2000/svg" viewBox="0 0 44 44"><defs><style>.cls-1{fill:#fff;}</style></defs><title>cws-icon-mobile-shop</title><g id="mobile_shop"><circle class="cls-1" cx="19" cy="32" r="1"/><circle class="cls-1" cx="25" cy="32" r="1"/><circle class="cls-1" cx="22" cy="39" r="1"/><circle class="cls-1" cx="27" cy="39" r="1"/><circle class="cls-1" cx="17" cy="39" r="1"/><path class="cls-1" d="M20,6h4a1,1,0,0,0,0-2H20a1,1,0,0,0,0,2Z"/><path class="cls-1" d="M34,20a1,1,0,0,0-1,1V35H14a1,1,0,0,0,0,2H33v2a3,3,0,0,1-3,3H14a3,3,0,0,1-3-3V21a1,1,0,0,0-2,0V39a5,5,0,0,0,5,5H30a5,5,0,0,0,5-5V21A1,1,0,0,0,34,20Z"/><path class="cls-1" d="M37,15.73l-1.58-5.55a3.14,3.14,0,0,0-.44-.9A.88.88,0,0,0,35,9V5a5,5,0,0,0-5-5H14A5,5,0,0,0,9,5V9a.88.88,0,0,0,.06.28,3.14,3.14,0,0,0-.44.9L7,15.73a1,1,0,0,0,.39,1.09,7.66,7.66,0,0,0,7.57.33,7.63,7.63,0,0,0,7,0,7.63,7.63,0,0,0,7,0,7.42,7.42,0,0,0,3.5.85,7.22,7.22,0,0,0,4.07-1.18A1,1,0,0,0,37,15.73ZM14,2H30a3,3,0,0,1,3,3V8a4.38,4.38,0,0,0-.51,0h-21A4.38,4.38,0,0,0,11,8V5A3,3,0,0,1,14,2ZM9.18,15.52l1.37-4.79a1,1,0,0,1,1-.73h3.34l-.77,5.38A5.79,5.79,0,0,1,9.18,15.52Zm6.91,0L16.87,10H21v5.42A5.81,5.81,0,0,1,16.09,15.47ZM23,15.42V10h4.13l.78,5.47A5.81,5.81,0,0,1,23,15.42Zm6.92,0L29.15,10h3.34a1,1,0,0,1,1,.73l1.37,4.79A5.79,5.79,0,0,1,29.92,15.38Z"/><path class="cls-1" d="M27,29.24l1-4a1,1,0,0,0-.18-.86A1,1,0,0,0,27,24H20a3,3,0,0,0-3-3,1,1,0,0,0,0,2,1,1,0,0,1,1,1v5a1,1,0,0,0,1,1h7A1,1,0,0,0,27,29.24ZM25.22,28H20V26h5.72Z"/></g></svg>