<svg xmlns="http://www.w3.org/2000/svg" viewBox="0 0 44 44"><defs><style>.cls-1{fill:#fff;}</style></defs><title>cws-icon-student-female</title><g id="student_female"><circle class="cls-1" cx="19" cy="15" r="1"/><circle class="cls-1" cx="25" cy="15" r="1"/><path class="cls-1" d="M35,29.38l-2.78-.56a1,1,0,1,0-.4,2l2.79.56A3,3,0,0,1,37,34.28V41a1,1,0,0,1-1,1H8a1,1,0,0,1-1-1V34.28a3,3,0,0,1,2.41-2.94L15.1,30.2A7,7,0,0,0,21,35.92V39a1,1,0,0,0,2,0V35.92A7,7,0,0,0,29,29a1,1,0,0,0-2,0,5,5,0,0,1-10,0,1,1,0,0,0-.37-.77A1,1,0,0,0,15.8,28L9,29.38a5,5,0,0,0-4,4.9V41a3,3,0,0,0,3,3H36a3,3,0,0,0,3-3V34.28A5,5,0,0,0,35,29.38Z"/><path class="cls-1" d="M21,21h2a1,1,0,0,0,0-2H21a1,1,0,0,0,0,2Z"/><path class="cls-1" d="M13,25a1,1,0,0,0,0-2,6.71,6.71,0,0,1-3.22-1,10.51,10.51,0,0,0,3-4.09,8.77,8.77,0,0,0,1.92,4.49l.22.26a9.19,9.19,0,0,0,14.14,0l.22-.26A8.81,8.81,0,0,0,31.21,18a10.3,10.3,0,0,0,3,4A6.71,6.71,0,0,1,31,23a1,1,0,0,0,0,2,9.31,9.31,0,0,0,5.63-2.22,1,1,0,0,0-.15-1.66c-3.15-1.72-4.08-5.29-4.35-7.26a1,1,0,0,0-1-.86h-.39a1,1,0,0,0-1,.88c-.22,1.83-.51,3.68-.52,3.74a6.76,6.76,0,0,1-1.5,3.53l-.21.26a7.2,7.2,0,0,1-11.06,0l-.21-.26a6.84,6.84,0,0,1-1.51-3.58S14,12.84,14,11V4.78L21.85,6h.3L30,4.78V9.2a41.14,41.14,0,0,1-13.86.39,1,1,0,0,0-1.13.84,1,1,0,0,0,.85,1.14A43.76,43.76,0,0,0,22,12a40,40,0,0,0,9.26-1A1,1,0,0,0,32,10V4.47l2-.3V9.28A2,2,0,0,0,33,11a2,2,0,0,0,4,0,2,2,0,0,0-1-1.72V3a1,1,0,0,0-.85-1l-13-2h-.3l-13,2a1,1,0,0,0,0,2L12,4.47V12c0,1.11-.22,6.79-4.48,9.12a1,1,0,0,0-.15,1.66A9.31,9.31,0,0,0,13,25ZM22,2l6.42,1L22,4,15.58,3Z"/></g></svg>