<svg xmlns="http://www.w3.org/2000/svg" viewBox="0 0 44 44"><defs><style>.cls-1{fill:#fff;}</style></defs><title>cws-icon-wallet-square</title><g id="wallet_2"><circle class="cls-1" cx="35" cy="27" r="1"/><path class="cls-1" d="M43,22H42V15a3,3,0,0,0-3-3H37V5a3,3,0,0,0-3-3,1,1,0,0,0,0,2,1,1,0,0,1,1,1v7H32V5a3,3,0,0,0-3-3H9A3,3,0,0,0,6,5v7H3a3,3,0,0,0-3,3V39a3,3,0,0,0,3,3H39a3,3,0,0,0,3-3V35a1,1,0,0,0-2,0v4a1,1,0,0,1-1,1H3a1,1,0,0,1-1-1V15a1,1,0,0,1,1-1H39a1,1,0,0,1,1,1v7H33a3,3,0,0,0-3,3v4a3,3,0,0,0,3,3H43a1,1,0,0,0,1-1V23A1,1,0,0,0,43,22ZM8,5A1,1,0,0,1,9,4H29a1,1,0,0,1,1,1v7H28V9a1,1,0,0,0-1-1,1,1,0,0,1-1-1,1,1,0,0,0-1-1H13a1,1,0,0,0-1,1,1,1,0,0,1-1,1,1,1,0,0,0-1,1v3H8Zm4,4.82A3,3,0,0,0,13.82,8H24.18A3,3,0,0,0,26,9.82V12H12ZM42,30H33a1,1,0,0,1-1-1V25a1,1,0,0,1,1-1h9Z"/><path class="cls-1" d="M5,18H35a1,1,0,0,1,1,1,1,1,0,0,0,2,0,3,3,0,0,0-3-3H5a1,1,0,0,0,0,2Z"/><path class="cls-1" d="M5,38H35a3,3,0,0,0,3-3,1,1,0,0,0-2,0,1,1,0,0,1-1,1H5a1,1,0,0,0,0,2Z"/></g></svg>