<svg xmlns="http://www.w3.org/2000/svg" viewBox="0 0 26 44"><defs><style>.cls-1{fill:#fff;}</style></defs><title>cws-icon-flash</title><g id="Livello_2" data-name="Livello 2"><g id="flash"><circle class="cls-1" cx="7" cy="32" r="1"/><circle class="cls-1" cx="11" cy="32" r="1"/><circle class="cls-1" cx="15" cy="32" r="1"/><circle class="cls-1" cx="19" cy="32" r="1"/><path class="cls-1" d="M13,8a1,1,0,0,0-1,1v4a1,1,0,0,0,2,0V9A1,1,0,0,0,13,8Z"/><path class="cls-1" d="M17,8a1,1,0,0,0-1,1v4a1,1,0,0,0,2,0V9A1,1,0,0,0,17,8Z"/><path class="cls-1" d="M9,8A1,1,0,0,0,8,9v4a1,1,0,0,0,2,0V9A1,1,0,0,0,9,8Z"/><path class="cls-1" d="M21,18a1,1,0,0,0,1-1V5a1,1,0,0,0-1-1H5A1,1,0,0,0,4,5V17a1,1,0,0,0,1,1ZM6,6H20V16H6Z"/><path class="cls-1" d="M23,0H3A3,3,0,0,0,0,3V17a1,1,0,0,0,2,0V3A1,1,0,0,1,3,2H23a1,1,0,0,1,1,1V25.91l-1.68,9.27a1,1,0,0,1-1,.82H4.67a1,1,0,0,1-1-.82L2,25.91V22H21a1,1,0,0,0,0-2H1a1,1,0,0,0-1,1v5a1.1,1.1,0,0,0,0,.18l1.7,9.36a3,3,0,0,0,3,2.46H9v5a1,1,0,0,0,1,1h6a1,1,0,0,0,1-1V40a1,1,0,0,0-2,0v2H11V38H21.33a3,3,0,0,0,3-2.46L26,26.18A1.1,1.1,0,0,0,26,26V3A3,3,0,0,0,23,0Z"/><path class="cls-1" d="M20,25a1,1,0,0,0-1-1H6a1,1,0,0,0-1,1v4a1,1,0,0,0,1,1H19a1,1,0,0,0,1-1Zm-2,3H7V26H18Z"/></g></g></svg>