<svg xmlns="http://www.w3.org/2000/svg" viewBox="0 0 44 44"><defs><style>.cls-1{fill:#fff;}</style></defs><title>cws-icon-barrier</title><g id="barrier"><path class="cls-1" d="M11.45,39.66A3,3,0,0,0,8.76,38H7V34a1,1,0,0,0-2,0v4H3.24A3,3,0,0,0,.55,39.66l-.44.89a1,1,0,0,0,1.78.9l.45-.9a1,1,0,0,1,.9-.55H8.76a1,1,0,0,1,.9.55l.45.9A1,1,0,0,0,11,42a.93.93,0,0,0,.45-.11,1,1,0,0,0,.44-1.34Z"/><path class="cls-1" d="M38,23a1,1,0,0,0,1-1V19h4a1,1,0,0,0,1-1V10a1,1,0,0,0-1-1H39V7.82a3,3,0,1,0-2,0V9H7V7.82a3,3,0,1,0-2,0V9H1a1,1,0,0,0-1,1v8a1,1,0,0,0,1,1H2a1,1,0,0,0,.71-.29L10.41,11h5.18l-6,6H6a1,1,0,0,0-1,1v3H1a1,1,0,0,0-1,1v8a1,1,0,0,0,1,1H34a1,1,0,0,0,.71-.29L42,23.41V29H38a1,1,0,0,0-1,1v8H35.24a3,3,0,0,0-2.69,1.66l-.44.89a1,1,0,0,0,1.78.9l.45-.9a1,1,0,0,1,.9-.55h5.52a1,1,0,0,1,.9.55l.45.9A1,1,0,0,0,43,42a.93.93,0,0,0,.45-.11,1,1,0,0,0,.44-1.34l-.44-.89A3,3,0,0,0,40.76,38H39V31h4a1,1,0,0,0,1-1V22a1,1,0,0,0-1-1H42a1,1,0,0,0-.71.29L33.59,29H28.41l6-6ZM38,4a1,1,0,1,1-1,1A1,1,0,0,1,38,4ZM6,4A1,1,0,1,1,5,5,1,1,0,0,1,6,4ZM2,16.59V11H7.59ZM20.41,17l6-6h5.18l-6,6Zm14-6h5.18l-6,6H28.41Zm-16,0h5.18l-6,6H12.41ZM7,19H34a1,1,0,0,0,.71-.29L42,11.41V17H38a1,1,0,0,0-1,1v3H7Zm5.41,10,6-6h5.18l-6,6Zm-8,0,6-6h5.18l-6,6Zm3.18-6L2,28.59V23Zm18,6H20.41l6-6h5.18Z"/></g></svg>