<svg xmlns="http://www.w3.org/2000/svg" viewBox="0 0 44 44"><defs><style>.cls-1{fill:#fff;}</style></defs><g id="mountain"><path class="cls-1" d="M43.58,35,32.77,15.37A4.2,4.2,0,0,0,29,13a4.13,4.13,0,0,0-1.31.21,1,1,0,1,0,.62,1.9A2.23,2.23,0,0,1,31,16.29l1.77,3.21-.36.18a3,3,0,0,1-1.34.32H30a1,1,0,0,0,0,2h1.06a5,5,0,0,0,2.23-.53l.44-.22L41.83,36a1.39,1.39,0,0,1-1.22,2H3.41A1.41,1.41,0,0,1,2,36.59a1.45,1.45,0,0,1,.16-.65l8.17-15.69,1.36,1a3.77,3.77,0,0,0,4.8-.35l1.58-1.57a1.23,1.23,0,0,1,1.79.13L21.3,21.4A4,4,0,0,0,24.5,23h1.9l5.82,12.42A1,1,0,1,0,34,34.57L21.75,8.39a4.14,4.14,0,0,0-7.49,0L.39,35A3.36,3.36,0,0,0,0,36.59,3.41,3.41,0,0,0,3.41,40h37.2A3.39,3.39,0,0,0,44,36.61,3.44,3.44,0,0,0,43.58,35ZM16.06,9.24a2.14,2.14,0,0,1,3.88,0L25.46,21h-1a2,2,0,0,1-1.6-.8l-1.44-1.93A3.24,3.24,0,0,0,18.91,17a3.17,3.17,0,0,0-2.26.93l-1.57,1.58a1.72,1.72,0,0,1-2.19.16l-1.63-1.22Z"/><path class="cls-1" d="M25.92,11.6a1,1,0,0,0,1.18-.79,6,6,0,1,1,9.51,6,1,1,0,0,0-.2,1.4,1,1,0,0,0,.8.4,1,1,0,0,0,.6-.2,8,8,0,1,0-12.67-8A1,1,0,0,0,25.92,11.6Z"/></g></svg>