<svg xmlns="http://www.w3.org/2000/svg" viewBox="0 0 64 56"><defs><style>.cls-1{fill:#fff;}</style></defs><g id="belt"><circle class="cls-1" cx="20.84" cy="33.21" r="1"/><circle class="cls-1" cx="41.84" cy="33.21" r="1"/><circle class="cls-1" cx="12.84" cy="33.21" r="1"/><circle class="cls-1" cx="16.84" cy="33.21" r="1"/><path class="cls-1" d="M35.84,21.21h-15a3,3,0,0,0-3,3v1h-8a1,1,0,1,0,0,2h23v5h-8a1,1,0,1,0,0,2h8v5h-23a1,1,0,1,0,0,2h8v1a3,3,0,0,0,3,3h15a3,3,0,0,0,3-3v-18A3,3,0,0,0,35.84,21.21Zm1,21a1,1,0,0,1-1,1h-15a1,1,0,0,1-1-1v-1h14a1,1,0,0,0,1-1v-6a1,1,0,0,0,0-2v-6a1,1,0,0,0-1-1h-14v-1a1,1,0,0,1,1-1h15a1,1,0,0,1,1,1Z"/><path class="cls-1" d="M52.12,30.83,49.57,27a4,4,0,0,0-3.33-1.78h-4.4a1,1,0,0,0,0,2h4.4a2,2,0,0,1,1.66.89l2.56,3.83a2.36,2.36,0,0,1,.38,1.28,2.31,2.31,0,0,1-.38,1.28L47.9,38.32a2,2,0,0,1-1.66.89h-4.4a1,1,0,0,0,0,2h4.4a4,4,0,0,0,3.33-1.78l2.55-3.83a4.31,4.31,0,0,0,0-4.77Z"/></g></svg>