<svg xmlns="http://www.w3.org/2000/svg" viewBox="0 0 44 44"><defs><style>.cls-1{fill:#fff;}</style></defs><title>cws-icon-night-stand</title><g id="nightstand"><circle class="cls-1" cx="12" cy="33" r="1"/><circle class="cls-1" cx="33" cy="33" r="1"/><path class="cls-1" d="M43,26a1,1,0,0,0,1-1V19a3,3,0,0,0-3-3H17a4.15,4.15,0,0,0,1-2.69,4.11,4.11,0,0,0-1.22-2.94L15.63,9.22A2.14,2.14,0,0,1,15,7.69V2a1,1,0,0,0-1-1H10.07a1,1,0,0,0-1,1V7.69a2.14,2.14,0,0,1-.63,1.53L7.29,10.37A4.14,4.14,0,0,0,7.07,16H3a3,3,0,0,0-3,3V39a3,3,0,0,0,3,3H7a1,1,0,0,0,1,1h4a1,1,0,0,0,1-1H32a1,1,0,0,0,1,1h4a1,1,0,0,0,1-1h3a3,3,0,0,0,3-3V29a1,1,0,0,0-1-1H19a.92.92,0,0,0-.1-.45l-2-4a1,1,0,0,0-1.78.9L16.88,28H14V23a1,1,0,0,0-2,0v5H11V20a1,1,0,0,0-2,0v8H8V22a1,1,0,0,0-2,0v6H5V21a1,1,0,0,0-2,0v7H2V19a1,1,0,0,1,1-1H41a1,1,0,0,1,1,1v6A1,1,0,0,0,43,26Zm-1,4v9a1,1,0,0,1-1,1H23V30ZM21,30V40H3a1,1,0,0,1-1-1V30ZM10.38,16,9,15.11a2.15,2.15,0,0,1-.33-3.33l1.15-1.15a4.14,4.14,0,0,0,1.21-2.94V3H13V7.69a4.11,4.11,0,0,0,1.22,2.94l1.15,1.15A2.14,2.14,0,0,1,16,13.31a2.18,2.18,0,0,1-1,1.8L13.7,16Z"/></g></svg>