<svg xmlns="http://www.w3.org/2000/svg" viewBox="0 0 42 44"><defs><style>.cls-1{fill:#fff;}</style></defs><title>cws-icon-videotape</title><g id="Livello_2" data-name="Livello 2"><g id="videotape"><circle class="cls-1" cx="17" cy="17" r="1"/><path class="cls-1" d="M22,9a5,5,0,1,0-5,5A5,5,0,0,0,22,9Zm-5,3a3,3,0,1,1,3-3A3,3,0,0,1,17,12Z"/><path class="cls-1" d="M17,30a5,5,0,1,0-5-5A5,5,0,0,0,17,30Zm0-8a3,3,0,1,1-3,3A3,3,0,0,1,17,22Z"/><path class="cls-1" d="M30,17a5,5,0,1,0-5,5A5,5,0,0,0,30,17Zm-8,0a3,3,0,1,1,3,3A3,3,0,0,1,22,17Z"/><path class="cls-1" d="M4,17a5,5,0,1,0,5-5A5,5,0,0,0,4,17Zm8,0a3,3,0,1,1-3-3A3,3,0,0,1,12,17Z"/><path class="cls-1" d="M38,32H17a15,15,0,1,1,9.92-3.75,1,1,0,0,0-.09,1.41,1,1,0,0,0,1.41.09A17,17,0,1,0,17,34H38a2,2,0,0,1,0,4H24a5,5,0,0,0-5,5,1,1,0,0,0,2,0,3,3,0,0,1,3-3H38a4,4,0,0,0,0-8Z"/></g></g></svg>