<svg xmlns="http://www.w3.org/2000/svg" viewBox="0 0 44 44"><defs><style>.cls-1{fill:#fff;}</style></defs><g id="evolution"><path class="cls-1" d="M9,18a3,3,0,1,0,3,3A3,3,0,0,0,9,18Zm0,4a1,1,0,1,1,1-1A1,1,0,0,1,9,22Z"/><path class="cls-1" d="M15.9,15.56a1,1,0,0,0-1.8.87,12.12,12.12,0,0,1,0,9.13A1,1,0,0,0,15,27a1,1,0,0,0,.9-.57A14,14,0,0,0,15.9,15.56Z"/><path class="cls-1" d="M14.22,29.48a19.54,19.54,0,0,1-12-7.92,1,1,0,0,1,0-1.14A18.56,18.56,0,0,1,9.83,14a3,3,0,0,0,1.65-3.34l-.12-.55a1,1,0,0,1,.71-1.18,26.2,26.2,0,0,1,15.6.55,1,1,0,1,0,.67-1.89A28.33,28.33,0,0,0,11.54,7,3,3,0,0,0,9.4,10.53l.12.55A1,1,0,0,1,9,12.18,20.68,20.68,0,0,0,.52,19.31a3,3,0,0,0,0,3.37A21.51,21.51,0,0,0,13,31.25V35a1,1,0,0,1-1,1H10a1,1,0,0,0,0,2h2a3,3,0,0,0,3-3V30.46A1,1,0,0,0,14.22,29.48Z"/><path class="cls-1" d="M44,18V13a1,1,0,0,0-1-1c-3,0-5.58,2.47-6.57,5.91A22.56,22.56,0,0,0,19,10a24.07,24.07,0,0,0-4.25.37,1,1,0,0,0,.35,2A22,22,0,0,1,19,12c6.89,0,13.34,3.23,16.83,8.43a1,1,0,0,1,0,1.13C32.34,26.77,25.89,30,19,30l-1,0A1,1,0,1,0,18,32l1,0a23.71,23.71,0,0,0,5-.54V35a1,1,0,0,1-1,1H21a1,1,0,0,0,0,2h2a3,3,0,0,0,3-3V31a21.67,21.67,0,0,0,10.43-6.87C37.42,27.53,40,30,43,30a1,1,0,0,0,1-1V24a4,4,0,0,0-1.38-3A4,4,0,0,0,44,18Zm-2,6v3.86c-2-.59-3.64-2.94-3.94-5.86H40A2,2,0,0,1,42,24Zm-3.94-4c.3-2.93,1.89-5.28,3.94-5.86V18a2,2,0,0,1-2,2Z"/></g></svg>