<svg id="drops" xmlns="http://www.w3.org/2000/svg" viewBox="0 0 44 44"><defs><style>.cls-1{fill:#fffafc;}</style></defs><circle class="cls-1" cx="18" cy="17" r="1"/><path class="cls-1" d="M20.26,14.49c.86-1.5,1.85-3,2.51-3.92a1,1,0,0,0-1.64-1.14c-.69,1-1.71,2.5-2.61,4.07a1,1,0,0,0,.38,1.37,1,1,0,0,0,.49.13A1,1,0,0,0,20.26,14.49Z"/><path class="cls-1" d="M5.46,33.27a.89.89,0,0,0,0,1.77.89.89,0,1,0,0-1.77Z"/><path class="cls-1" d="M10.43,24.73a1,1,0,0,0-.25,1.39C12,28.71,15,33,15,36.25A5.89,5.89,0,0,1,9,42a5.89,5.89,0,0,1-6-5.75C3,33,6,28.7,8,25.83L8.61,25A7.71,7.71,0,0,0,10,21a1,1,0,0,0-2,0,5.78,5.78,0,0,1-1,2.86l-.58.82C4.24,27.76,1,32.41,1,36.25A7.89,7.89,0,0,0,9,44a7.89,7.89,0,0,0,8-7.75c0-3.54-2.67-7.67-5.18-11.27A1,1,0,0,0,10.43,24.73Z"/><path class="cls-1" d="M7.56,32c.75-1.31,1.58-2.54,2.22-3.47a1,1,0,0,0-.25-1.39,1,1,0,0,0-1.39.25c-.67,1-1.53,2.24-2.31,3.61a1,1,0,1,0,1.73,1Z"/><path class="cls-1" d="M31.46,33.27a.89.89,0,0,0,0,1.77.89.89,0,1,0,0-1.77Z"/><path class="cls-1" d="M37.82,25a1,1,0,1,0-1.64,1.14C38,28.71,41,33,41,36.25a6,6,0,0,1-12,0c0-3.21,3-7.55,5-10.42l.59-.84A7.71,7.71,0,0,0,36,21a1,1,0,0,0-2,0,5.78,5.78,0,0,1-1,2.86l-.58.82C30.24,27.76,27,32.41,27,36.25a8,8,0,0,0,16,0C43,32.71,40.33,28.58,37.82,25Z"/><path class="cls-1" d="M31,19c0-4.12-3-9-5.88-13.2a1,1,0,0,0-1.66,1.12C25.53,10,29,15.17,29,19a7,7,0,0,1-14,0c0-3.86,3.48-9,5.78-12.43l.66-1A9.07,9.07,0,0,0,23,1a1,1,0,0,0-2,0,7.11,7.11,0,0,1-1.22,3.49l-.66,1C16.68,9.09,13,14.55,13,19a9,9,0,0,0,18,0Z"/><path class="cls-1" d="M33.56,32c.75-1.31,1.58-2.54,2.22-3.47a1,1,0,0,0-.25-1.39,1,1,0,0,0-1.39.25c-.67,1-1.53,2.24-2.31,3.61a1,1,0,1,0,1.73,1Z"/></svg>