<svg xmlns="http://www.w3.org/2000/svg" viewBox="0 0 44 44"><defs><style>.cls-1{fill:#fff;}</style></defs><title>cws-icon-router</title><g id="router"><circle class="cls-1" cx="6" cy="34" r="1"/><circle class="cls-1" cx="10" cy="34" r="1"/><circle class="cls-1" cx="14" cy="34" r="1"/><path class="cls-1" d="M41,27H28a1,1,0,0,0,0,2H41a1,1,0,0,1,1,1v8a1,1,0,0,1-1,1H10a1,1,0,0,0,0,2H37v1H7V40a1,1,0,0,0-1-1H3a1,1,0,0,1-1-1V30a1,1,0,0,1,1-1H24a1,1,0,0,0,1-1V22a3,3,0,0,0-2-2.82V8a1,1,0,0,0-2,0V19.18A3,3,0,0,0,19,22v2a1,1,0,0,0,2,0V22a1,1,0,0,1,2,0v5H3a3,3,0,0,0-3,3v8a3,3,0,0,0,3,3H5v2a1,1,0,0,0,1,1H38a1,1,0,0,0,1-1V41h2a3,3,0,0,0,3-3V30A3,3,0,0,0,41,27Z"/><path class="cls-1" d="M35,36V32a1,1,0,0,0-2,0v4a1,1,0,0,0,2,0Z"/><path class="cls-1" d="M39,36V32a1,1,0,0,0-2,0v4a1,1,0,0,0,2,0Z"/><path class="cls-1" d="M31,36V32a1,1,0,0,0-2,0v4a1,1,0,0,0,2,0Z"/><path class="cls-1" d="M29.22,13.37A1,1,0,0,0,30,15a1,1,0,0,0,.78-.37,11.07,11.07,0,0,0,0-13.26,1,1,0,0,0-1.56,1.26A9,9,0,0,1,29.22,13.37Z"/><path class="cls-1" d="M26.37,11.78A1,1,0,0,0,27,12a1,1,0,0,0,.78-.37,6,6,0,0,0,0-7.26,1,1,0,0,0-1.56,1.26,4,4,0,0,1,0,4.74A1,1,0,0,0,26.37,11.78Z"/><path class="cls-1" d="M14,15a1,1,0,0,0,.78-1.63,9,9,0,0,1,0-10.74,1,1,0,1,0-1.56-1.26,11.07,11.07,0,0,0,0,13.26A1,1,0,0,0,14,15Z"/><path class="cls-1" d="M16.22,11.63A1,1,0,0,0,17,12a1,1,0,0,0,.78-1.63,4,4,0,0,1,0-4.74,1,1,0,0,0-1.56-1.26A6,6,0,0,0,16.22,11.63Z"/></g></svg>