<svg xmlns="http://www.w3.org/2000/svg" viewBox="0 0 44 44"><defs><style>.cls-1{fill:#fff;}</style></defs><g id="barn"><path class="cls-1" d="M43.76,15.35,38.45,9.16A5.06,5.06,0,0,0,36.34,7.7L24.28,3.39a6.86,6.86,0,0,0-4.56,0L7.66,7.7A5,5,0,0,0,5.55,9.16L.24,15.35a1,1,0,0,0,1.52,1.3l5.31-6.19a3,3,0,0,1,1.27-.88l12.05-4.3a4.81,4.81,0,0,1,3.22,0l12,4.31a2.93,2.93,0,0,1,1.27.87l5.31,6.19a1,1,0,1,0,1.52-1.3Z"/><path class="cls-1" d="M26,19a1,1,0,0,0,1-1V12a1,1,0,0,0-1-1H18a1,1,0,0,0-1,1v6a1,1,0,0,0,1,1Zm-7-6h6v4H19Z"/><path class="cls-1" d="M42,39H40V17a1,1,0,0,0-2,0V39H34V25h1a1,1,0,0,0,0-2H9a1,1,0,0,0,0,2h1V39H6V17a1,1,0,0,0-2,0V39H2a1,1,0,0,0,0,2H42a1,1,0,0,0,0-2ZM17.38,25,15,29.76,12.62,25ZM12,28.24,13.88,32,12,35.76ZM12.62,39,15,34.24,17.38,39ZM18,35.76,16.12,32,18,28.24ZM24,39H20V25h4Zm7.38-14L29,29.76,26.62,25ZM26,28.24,27.88,32,26,35.76ZM26.62,39,29,34.24,31.38,39ZM32,35.76,30.12,32,32,28.24Z"/></g></svg>