<svg xmlns="http://www.w3.org/2000/svg" viewBox="0 0 44 44"><defs><style>.cls-1{fill:#fff;}</style></defs><title>cws-icon-gasoline</title><g id="gasoline_station"><circle class="cls-1" cx="16" cy="10" r="1"/><circle class="cls-1" cx="12" cy="10" r="1"/><circle class="cls-1" cx="20" cy="10" r="1"/><path class="cls-1" d="M15.17,22.45c-.33.49-3.17,4.87-3.17,7.37A4.1,4.1,0,0,0,16,34a4.1,4.1,0,0,0,4-4.18c0-2.5-2.84-6.88-3.17-7.37A1,1,0,0,0,15.17,22.45ZM18,29.82A2.1,2.1,0,0,1,16,32a2.1,2.1,0,0,1-2-2.18c0-1.11,1-3.23,2-4.91C17,26.59,18,28.71,18,29.82Z"/><path class="cls-1" d="M43.71,12.29l-5-5a1,1,0,1,0-1.42,1.42l2.54,2.53A3,3,0,0,0,42,16.82V35a3,3,0,0,1-6,0V19a5,5,0,0,0-5-5H29V5a5,5,0,0,0-5-5H8A5,5,0,0,0,3,5V38a3,3,0,0,0,0,6H29a3,3,0,0,0,0-6H8a1,1,0,0,0,0,2H29a1,1,0,0,1,0,2H3a1,1,0,0,1,0-2H4a1,1,0,0,0,1-1V5A3,3,0,0,1,8,2H24a3,3,0,0,1,3,3V35a1,1,0,0,0,2,0V16h2a3,3,0,0,1,3,3V35a5,5,0,0,0,10,0V13A1,1,0,0,0,43.71,12.29ZM41,15a1,1,0,1,1,1-1A1,1,0,0,1,41,15Z"/><path class="cls-1" d="M25,15V5a1,1,0,0,0-1-1H8A1,1,0,0,0,7,5V15a1,1,0,0,0,1,1H24A1,1,0,0,0,25,15Zm-2-1H9V6H23Z"/></g></svg>