<svg xmlns="http://www.w3.org/2000/svg" viewBox="0 0 44 44"><defs><style>.cls-1{fill:#fff;}</style></defs><title>cws-icon-creane</title><g id="crane"><path class="cls-1" d="M20,42H6a1,1,0,0,0,0,2H20a1,1,0,0,0,0-2Z"/><path class="cls-1" d="M43,27a1,1,0,0,0-1,1,2,2,0,1,1-2-2,1,1,0,0,0,1-1V19a1,1,0,0,0,1-1h1a1,1,0,0,0,.75-1.66l-7-8A1,1,0,0,0,36,8H17.41L9.71.29A1,1,0,0,0,8.62.08,1,1,0,0,0,8,1V8H1A1,1,0,0,0,0,9v8a1,1,0,0,0,.08.38,1,1,0,0,0,.54.54A1,1,0,0,0,1,18H8V40a1,1,0,0,0,1,1h1a1,1,0,0,0,.71-.29L16,35.41V40a1,1,0,0,0,2,0V18H38a1,1,0,0,0,1,1v5.13A4,4,0,1,0,44,28,1,1,0,0,0,43,27ZM37,11.66a.92.92,0,0,0-.21.13L34,14.59V10h1.55ZM16,32H11.41L16,27.41Zm2-22h4.59L18,14.59Zm-2,6H11.41L16,11.42Zm-6-1.41V10h4.59ZM8,16H3.41L8,11.42Zm6.59,2L10,22.59V18ZM10,26h4.59L10,30.59Zm6-2H11.41L16,19.41Zm8-12.58V16H19.41ZM26,10h4.59L26,14.59Zm6,1.42V16H27.41ZM14.59,8H10V3.42Zm-8,2L2,14.59V10ZM10,38.59V34h4.59ZM35.41,16l2.8-2.79.06-.1L40.8,16Z"/><path class="cls-1" d="M1,22H5a1,1,0,0,0,0-2H1a1,1,0,0,0,0,2Z"/><path class="cls-1" d="M6,25a1,1,0,0,0-1-1H1a1,1,0,0,0,0,2H5A1,1,0,0,0,6,25Z"/></g></svg>