<svg xmlns="http://www.w3.org/2000/svg" viewBox="0 0 44 44"><defs><style>.cls-1{fill:#fff;}</style></defs><g id="keyboard"><circle class="cls-1" cx="18" cy="22" r="1"/><circle class="cls-1" cx="14" cy="22" r="1"/><circle class="cls-1" cx="18" cy="27" r="1"/><circle class="cls-1" cx="14" cy="27" r="1"/><circle class="cls-1" cx="10" cy="22" r="1"/><circle class="cls-1" cx="6" cy="22" r="1"/><circle class="cls-1" cx="10" cy="27" r="1"/><circle class="cls-1" cx="30" cy="22" r="1"/><circle class="cls-1" cx="26" cy="22" r="1"/><circle class="cls-1" cx="30" cy="27" r="1"/><circle class="cls-1" cx="26" cy="27" r="1"/><circle class="cls-1" cx="38" cy="22" r="1"/><circle class="cls-1" cx="34" cy="22" r="1"/><circle class="cls-1" cx="38" cy="27" r="1"/><circle class="cls-1" cx="34" cy="27" r="1"/><circle class="cls-1" cx="22" cy="22" r="1"/><circle class="cls-1" cx="22" cy="27" r="1"/><circle class="cls-1" cx="6" cy="27" r="1"/><circle class="cls-1" cx="10" cy="32" r="1"/><circle class="cls-1" cx="38" cy="32" r="1"/><circle class="cls-1" cx="34" cy="32" r="1"/><circle class="cls-1" cx="6" cy="32" r="1"/><path class="cls-1" d="M13,32a1,1,0,0,0,1,1H30a1,1,0,0,0,0-2H14A1,1,0,0,0,13,32Z"/><path class="cls-1" d="M41,16H26a1,1,0,0,0,0,2H41a1,1,0,0,1,1,1V35a1,1,0,0,1-1,1H3a1,1,0,0,1-1-1V19a1,1,0,0,1,1-1H22a1,1,0,0,0,1-1V13a1,1,0,0,1,1-1h7a3,3,0,0,0,0-6H15a1,1,0,0,0,0,2H31a1,1,0,0,1,0,2H24a3,3,0,0,0-3,3v3H3a3,3,0,0,0-3,3V35a3,3,0,0,0,3,3H41a3,3,0,0,0,3-3V19A3,3,0,0,0,41,16Z"/></g></svg>