<svg xmlns="http://www.w3.org/2000/svg" viewBox="0 0 64 56"><defs><style>.cls-1{fill:#fff;}</style></defs><g id="jeans"><path class="cls-1" d="M33.84,49.21H21.66L17.11,27.4a13.52,13.52,0,0,1-.27-2.61,12.79,12.79,0,0,1,1.62-6.22l3.26-5.87a1,1,0,0,0,.12-.49v-3h3v2h-1a1,1,0,1,0,0,2h12a1,1,0,0,0,1-1v-4a1,1,0,0,0-1-1h-15a1,1,0,0,0-1,1V12L16.71,17.6a14.82,14.82,0,0,0-1.87,7.19,14.61,14.61,0,0,0,.32,3l4.71,22.61a1,1,0,0,0,1,.79h13a1,1,0,0,0,0-2Zm1-40v2h-3v-2Zm-5,0v2h-3v-2Z"/><path class="cls-1" d="M54.55,31.51l-8-8a1,1,0,0,0-1.41,0l-2,2-4,3.5a1,1,0,0,0-.09,1.41,1,1,0,0,0,1.42.09l3.29-2.91,4.34,4.34a1,1,0,1,0,1.41-1.41l-4.29-4.3.58-.58,6.59,6.58L38.55,46.09a1,1,0,0,1-1.71-.71V16.21a1,1,0,0,0-2,0V45.38a3,3,0,0,0,1.86,2.78,3.15,3.15,0,0,0,1.16.23A3,3,0,0,0,40,47.51L54.55,32.92A1,1,0,0,0,54.55,31.51Z"/><path class="cls-1" d="M21.84,17.21a1,1,0,0,0-1,1v7a1,1,0,0,0,.56.9l4,2a1,1,0,0,0,.44.1,1,1,0,0,0,.45-.1l4-2a1,1,0,0,0,.55-.9v-7a1,1,0,0,0-1-1Zm7,7.38-3,1.5-3-1.5V19.21h6v1h-3a1,1,0,1,0,0,2h3Z"/></g></svg>