<svg xmlns="http://www.w3.org/2000/svg" viewBox="0 0 44 44"><defs><style>.cls-1{fill:#fff;}</style></defs><title>cws-icon-idea</title><g id="idea"><path class="cls-1" d="M33,21a11,11,0,1,0-18,8.47,5.4,5.4,0,0,1,2,4.16V40a3,3,0,0,0,3,3,1,1,0,0,0,1,1h2a1,1,0,0,0,1-1,3,3,0,0,0,3-3V34a1,1,0,0,0-1-1H22a1,1,0,0,0,0,2h3v5a1,1,0,0,1-1,1H20a1,1,0,0,1-1-1V33.63a7.4,7.4,0,0,0-2.74-5.7,9,9,0,1,1,11.52,0,7.9,7.9,0,0,0-1.62,1.85,1,1,0,0,0,.3,1.38,1,1,0,0,0,1.38-.31,6.2,6.2,0,0,1,1.23-1.39A10.94,10.94,0,0,0,33,21Z"/><path class="cls-1" d="M15,21a1,1,0,0,0,2,0,5,5,0,0,1,5-5,1,1,0,0,0,0-2A7,7,0,0,0,15,21Z"/><path class="cls-1" d="M40.42,17a1.57,1.57,0,0,1-1.49-1.08,16.51,16.51,0,0,0-.66-1.58,1.59,1.59,0,0,1,.29-1.83,3.57,3.57,0,0,0,0-5.06l-2-2a3.58,3.58,0,0,0-5.06,0,1.59,1.59,0,0,1-1.83.29c-.51-.24-1-.46-1.58-.66A1.57,1.57,0,0,1,27,3.58,3.59,3.59,0,0,0,23.42,0H20.58A3.59,3.59,0,0,0,17,3.58a1.57,1.57,0,0,1-1.08,1.49c-.54.2-1.07.42-1.58.66a1.59,1.59,0,0,1-1.83-.29,3.57,3.57,0,0,0-5.06,0l-2,2a3.57,3.57,0,0,0,0,5.06,1.59,1.59,0,0,1,.29,1.83,16.51,16.51,0,0,0-.66,1.58A1.57,1.57,0,0,1,3.58,17,3.59,3.59,0,0,0,0,20.58v2.84A3.59,3.59,0,0,0,3.58,27a1.57,1.57,0,0,1,1.49,1.08,16.51,16.51,0,0,0,.66,1.58,1.59,1.59,0,0,1-.29,1.83,3.57,3.57,0,0,0,0,5.06l2,2a3.57,3.57,0,0,0,5.06,0,1.59,1.59,0,0,1,1.35-.44,1,1,0,1,0,.28-2,3.5,3.5,0,0,0-3,1,1.6,1.6,0,0,1-2.24,0l-2-2a1.6,1.6,0,0,1,0-2.24,3.61,3.61,0,0,0,.69-4.09c-.22-.46-.41-.93-.58-1.4A3.62,3.62,0,0,0,3.58,25,1.58,1.58,0,0,1,2,23.42V20.58A1.58,1.58,0,0,1,3.58,19,3.62,3.62,0,0,0,7,16.59c.17-.47.36-.94.58-1.4a3.61,3.61,0,0,0-.69-4.09,1.6,1.6,0,0,1,0-2.24l2-2a1.6,1.6,0,0,1,2.24,0,3.6,3.6,0,0,0,4.09.69A14.23,14.23,0,0,1,16.59,7,3.62,3.62,0,0,0,19,3.58,1.58,1.58,0,0,1,20.58,2h2.84A1.58,1.58,0,0,1,25,3.58,3.62,3.62,0,0,0,27.41,7a14.23,14.23,0,0,1,1.4.58,3.6,3.6,0,0,0,4.09-.69,1.6,1.6,0,0,1,2.24,0l2,2a1.6,1.6,0,0,1,0,2.24,3.61,3.61,0,0,0-.69,4.09c.22.46.41.93.58,1.4A3.62,3.62,0,0,0,40.42,19,1.58,1.58,0,0,1,42,20.58v2.84A1.58,1.58,0,0,1,40.42,25,3.62,3.62,0,0,0,37,27.41c-.17.47-.36.94-.58,1.4a3.61,3.61,0,0,0,.69,4.09,1.6,1.6,0,0,1,0,2.24l-2,2a1.6,1.6,0,0,1-2.24,0,3.5,3.5,0,0,0-3-1,1,1,0,1,0,.28,2,1.58,1.58,0,0,1,1.35.44,3.57,3.57,0,0,0,5.06,0l2-2a3.57,3.57,0,0,0,0-5.06,1.59,1.59,0,0,1-.29-1.83,16.51,16.51,0,0,0,.66-1.58A1.57,1.57,0,0,1,40.42,27,3.59,3.59,0,0,0,44,23.42V20.58A3.59,3.59,0,0,0,40.42,17Z"/></g></svg>