<svg xmlns="http://www.w3.org/2000/svg" viewBox="0 0 44 44"><defs><style>.cls-1{fill:#fff;}</style></defs><g id="player"><circle class="cls-1" cx="33" cy="28" r="1"/><circle class="cls-1" cx="38" cy="14" r="1"/><circle class="cls-1" cx="5" cy="14" r="1"/><circle class="cls-1" cx="11" cy="28" r="1"/><path class="cls-1" d="M4,28a7,7,0,1,0,7-7A7,7,0,0,0,4,28Zm12,0a5,5,0,1,1-5-5A5,5,0,0,1,16,28Z"/><path class="cls-1" d="M33,21a7,7,0,1,0,7,7A7,7,0,0,0,33,21Zm0,12a5,5,0,1,1,5-5A5,5,0,0,1,33,33Z"/><path class="cls-1" d="M19,16H5a1,1,0,0,0,0,2H39a1,1,0,0,0,0-2H19Z"/><path class="cls-1" d="M41,10H36a1,1,0,0,0,0,2h5a1,1,0,0,1,1,1V37a1,1,0,0,1-1,1H3a1,1,0,0,1-1-1V13a1,1,0,0,1,1-1H13v2a1,1,0,0,0,2,0V12H29v2a1,1,0,0,0,2,0V12h1a1,1,0,0,0,1-1V7a3,3,0,0,0-3-3H14a3,3,0,0,0-3,3,1,1,0,0,0,2,0,1,1,0,0,1,1-1H30a1,1,0,0,1,1,1v3H3a3,3,0,0,0-3,3V37a3,3,0,0,0,3,3H41a3,3,0,0,0,3-3V13A3,3,0,0,0,41,10Z"/><path class="cls-1" d="M23,27H21a1,1,0,0,0,0,2h2a1,1,0,0,0,0-2Z"/><path class="cls-1" d="M23,24H21a1,1,0,0,0,0,2h2a1,1,0,0,0,0-2Z"/><path class="cls-1" d="M23,30H21a1,1,0,0,0,0,2h2a1,1,0,0,0,0-2Z"/></g></svg>