<svg xmlns="http://www.w3.org/2000/svg" viewBox="0 0 64 56"><defs><style>.cls-1{fill:#fff;}</style></defs><g id="socks"><path class="cls-1" d="M16.76,37.54a1,1,0,0,0,.71-.29l3.83-3.83a5,5,0,0,0,1.46-3.53V16.54h3a1,1,0,0,0,0-2H23.11a20,20,0,0,0,.63-4h2v2a1,1,0,0,0,2,0v-3a1,1,0,0,0-1-1h-4a1,1,0,0,0-1,1,17.27,17.27,0,0,1-.9,5.53l-.05.16a1.12,1.12,0,0,0,0,.31V29.89A3,3,0,0,1,19.88,32l-3.83,3.82a1,1,0,0,0,0,1.42A1,1,0,0,0,16.76,37.54Z"/><path class="cls-1" d="M44.71,15.22l-.05-.15a17.32,17.32,0,0,1-.9-5.53,1,1,0,0,0-1-1h-12a1,1,0,0,0-1,1,17.32,17.32,0,0,1-.9,5.53l-.05.15a1.19,1.19,0,0,0,0,.32V29.89A3,3,0,0,1,27.88,32l-3.83,3.82a1,1,0,1,0,1.42,1.42l3.83-3.83a5,5,0,0,0,1.46-3.53V16.54h12V30.88L40,32.05a5,5,0,0,0-2.62,6.56l1.16,2.7-7.45,7.45A6.07,6.07,0,0,1,21.88,41l6.17,6.29a1,1,0,0,0,1.41,0,1,1,0,0,0,0-1.42l-6.93-7.07a1,1,0,0,0-.71-.3h0a1,1,0,0,0-.7.29A8.07,8.07,0,0,0,32.54,50.18L42.71,40a7,7,0,0,0,2-4.95V15.54A1.19,1.19,0,0,0,44.71,15.22Zm-13.6-.68a20.08,20.08,0,0,0,.63-4h2v4Zm4.65,0v-4h2v4Zm4-4h2a19.38,19.38,0,0,0,.63,4H39.76ZM41.3,38.59l-1.2,1.2-.84-2a3,3,0,0,1,1.57-3.93l1.93-.83v2A5,5,0,0,1,41.3,38.59Z"/><path class="cls-1" d="M18.83,50.54a6.08,6.08,0,0,1-5-9.58L16,43.23a1,1,0,1,0,1.44-1.38l-2.92-3.07a1,1,0,0,0-.72-.31.94.94,0,0,0-.71.29,8.07,8.07,0,0,0,5.7,13.78,1,1,0,1,0,0-2Z"/></g></svg>