<svg xmlns="http://www.w3.org/2000/svg" viewBox="0 0 64 56"><defs><style>.cls-1{fill:#fff;}</style></defs><g id="mannequin"><path class="cls-1" d="M38.71,13.86a1.13,1.13,0,0,0,0-.32v-2a1,1,0,0,0-.63-.93L35.21,9.44a4.8,4.8,0,0,1-2.55-2.35,1,1,0,0,0-.9-.55h-4a1,1,0,0,0-.89.55,4.86,4.86,0,0,1-2.56,2.35l-2.92,1.17a1,1,0,0,0-.63.93v2a1.12,1.12,0,0,0,0,.31l2.57,7.69a2,2,0,0,1-.19,1.66l-.88,1.48a10.84,10.84,0,0,0-1.55,5.58v3.27a1,1,0,0,0,1,1h7v10a5,5,0,0,0-4,2.74,2.22,2.22,0,0,1-2,1.23,1,1,0,1,0,0,2,4.21,4.21,0,0,0,3.79-2.34,3,3,0,0,1,2.21-1.62v3a1,1,0,0,0,2,0v-3A3,3,0,0,1,33,48.2a4.22,4.22,0,0,0,3.79,2.34,1,1,0,0,0,0-2,2.22,2.22,0,0,1-2-1.23,5,5,0,0,0-4-2.74v-11a1,1,0,0,0-1-1h-7V30.27A9,9,0,0,1,24,25.71l.89-1.47a4,4,0,0,0,.36-3.32l-2.51-7.54V12.22l2.3-.92a6.89,6.89,0,0,0,3.29-2.76h2.83a6.84,6.84,0,0,0,3.29,2.76l2.29.92v1.16l-2.51,7.54a4,4,0,0,0,.36,3.32l.89,1.47a9,9,0,0,1,1.26,4.56v2.27h-3a1,1,0,0,0,0,2h4a1,1,0,0,0,1-1V30.27a10.74,10.74,0,0,0-1.55-5.58l-.88-1.48a2,2,0,0,1-.18-1.66Z"/></g></svg>