<svg xmlns="http://www.w3.org/2000/svg" viewBox="0 0 44 44"><defs><style>.cls-1{fill:#fff;}</style></defs><title>cws-icon-picture</title><g id="Livello_2" data-name="Livello 2"><g id="picture"><path class="cls-1" d="M41,10H36.29L24,2.09S24,2,24,2a2,2,0,0,0-4,0s0,.06,0,.09L7.71,10H3a3,3,0,0,0-3,3V41a3,3,0,0,0,3,3H41a3,3,0,0,0,3-3V13A3,3,0,0,0,41,10ZM21.09,3.77a1.92,1.92,0,0,0,1.82,0L32.59,10H11.41ZM42,41a1,1,0,0,1-1,1H3a1,1,0,0,1-1-1V13a1,1,0,0,1,1-1H41a1,1,0,0,1,1,1Z"/><path class="cls-1" d="M8,21a1,1,0,0,0,0,2h.14a4.17,4.17,0,0,0,.43,1l-.11.1a1,1,0,0,0,0,1.42,1,1,0,0,0,.71.29,1,1,0,0,0,.71-.29l.1-.11a4.17,4.17,0,0,0,1,.43V26a1,1,0,0,0,2,0v-.14a4.17,4.17,0,0,0,1-.43l.1.11a1,1,0,0,0,.71.29,1,1,0,0,0,.71-.29,1,1,0,0,0,0-1.42l-.11-.1a4.17,4.17,0,0,0,.43-1H16a1,1,0,0,0,0-2h-.14a4.17,4.17,0,0,0-.43-1l.11-.1a1,1,0,0,0-1.42-1.42l-.1.11a4.17,4.17,0,0,0-1-.43V18a1,1,0,0,0-2,0v.14a4.17,4.17,0,0,0-1,.43l-.1-.11a1,1,0,0,0-1.42,1.42l.11.1a4.17,4.17,0,0,0-.43,1Zm4-1a2,2,0,1,1-2,2A2,2,0,0,1,12,20Z"/><path class="cls-1" d="M40,13H4a1,1,0,0,0-1,1V30a1,1,0,0,0,2,0V15H39V26.18A11.91,11.91,0,0,0,34,25c-6.39,0-10.76,3.46-15.22,8.7A14.69,14.69,0,0,0,11.05,31a14.26,14.26,0,0,0-7.53,2.1A1,1,0,0,0,3,34v6a1,1,0,0,0,1,1H40a1,1,0,0,0,1-1V32a1,1,0,0,0-2,0v7H5V34.6A11.84,11.84,0,0,1,11,33a13.24,13.24,0,0,1,9.3,4.65,1,1,0,0,0,1.5-1.32A15.3,15.3,0,0,0,20.35,35c4.19-4.93,8-8,13.65-8a9.39,9.39,0,0,1,5.37,1.77A1,1,0,0,0,41,28V14A1,1,0,0,0,40,13Z"/></g></g></svg>