<svg xmlns="http://www.w3.org/2000/svg" viewBox="0 0 44 44"><defs><style>.cls-1{fill:#fff;}</style></defs><g id="petri_dish"><circle class="cls-1" cx="28" cy="21" r="1"/><circle class="cls-1" cx="14" cy="22" r="1"/><circle class="cls-1" cx="21" cy="23" r="1"/><path class="cls-1" d="M22,8C9.66,8,0,12.39,0,18v8c0,5.61,9.66,10,22,10s22-4.39,22-10V18C44,12.39,34.34,8,22,8Zm0,2c12,0,20,4.14,20,8s-8,8-20,8S2,21.86,2,18,10,10,22,10Zm0,24C10,34,2,29.86,2,26a4,4,0,0,1,1.27-2.7C7.11,26.14,14,28,22,28s14.89-1.86,18.73-4.7A4,4,0,0,1,42,26C42,29.86,34,34,22,34Z"/><path class="cls-1" d="M7.4,20.62A37.54,37.54,0,0,1,22,18a37.58,37.58,0,0,1,14.6,2.62,1.1,1.1,0,0,0,.4.08,1,1,0,0,0,.92-.6,1,1,0,0,0-.52-1.31A39.55,39.55,0,0,0,22,16,39.55,39.55,0,0,0,6.6,18.79a1,1,0,0,0-.52,1.31A1,1,0,0,0,7.4,20.62Z"/></g></svg>