<svg xmlns="http://www.w3.org/2000/svg" viewBox="0 0 44 44"><defs><style>.cls-1{fill:#fffafc;}</style></defs><g id="sun"><circle class="cls-1" cx="1" cy="22" r="1"/><circle class="cls-1" cx="43" cy="22" r="1"/><path class="cls-1" d="M22,13a9,9,0,1,0,9,9A9,9,0,0,0,22,13Zm0,16a7,7,0,1,1,7-7A7,7,0,0,1,22,29Z"/><path class="cls-1" d="M22,17a5,5,0,0,0-5,5,1,1,0,0,0,2,0,3,3,0,0,1,3-3,1,1,0,0,0,0-2Z"/><path class="cls-1" d="M40,21H34a1,1,0,0,0,0,2h6a1,1,0,0,0,0-2Z"/><path class="cls-1" d="M11,22a1,1,0,0,0-1-1H4a1,1,0,0,0,0,2h6A1,1,0,0,0,11,22Z"/><circle class="cls-1" cx="22" cy="1" r="1"/><circle class="cls-1" cx="22" cy="43" r="1"/><path class="cls-1" d="M22,33a1,1,0,0,0-1,1v6a1,1,0,0,0,2,0V34A1,1,0,0,0,22,33Z"/><path class="cls-1" d="M22,11a1,1,0,0,0,1-1V4a1,1,0,0,0-2,0v6A1,1,0,0,0,22,11Z"/><path class="cls-1" d="M27.52,32.7a1,1,0,0,0-1.85.77l1.15,2.77a1,1,0,0,0,1.84-.76Z"/><path class="cls-1" d="M16.48,11.3a1,1,0,0,0,.93.61,1,1,0,0,0,.38-.07,1,1,0,0,0,.54-1.31L17.18,7.76a1,1,0,0,0-1.3-.54,1,1,0,0,0-.54,1.3Z"/><path class="cls-1" d="M36.24,26.82l-2.77-1.15a1,1,0,0,0-.77,1.85l2.78,1.14a.84.84,0,0,0,.38.08,1,1,0,0,0,.38-1.92Z"/><path class="cls-1" d="M7.76,17.18l2.77,1.15a1.08,1.08,0,0,0,.38.08,1,1,0,0,0,.39-1.93L8.52,15.34a1,1,0,1,0-.76,1.84Z"/><path class="cls-1" d="M17.79,32.16a1,1,0,0,0-1.31.54l-1.14,2.78a1,1,0,0,0,.54,1.3,1,1,0,0,0,1.3-.54l1.15-2.77A1,1,0,0,0,17.79,32.16Z"/><path class="cls-1" d="M26.21,11.84a1,1,0,0,0,.38.07,1,1,0,0,0,.93-.61l1.14-2.78a1,1,0,0,0-.54-1.3,1,1,0,0,0-1.3.54l-1.15,2.77A1,1,0,0,0,26.21,11.84Z"/><path class="cls-1" d="M11.3,27.52a1,1,0,0,0-.77-1.85L7.76,26.82a1,1,0,0,0,.38,1.92.84.84,0,0,0,.38-.08Z"/><path class="cls-1" d="M32.7,16.48a1,1,0,0,0,.39,1.93,1.08,1.08,0,0,0,.38-.08l2.77-1.15a1,1,0,1,0-.76-1.84Z"/><path class="cls-1" d="M31.19,29.78a1,1,0,1,0-1.41,1.41L34,35.44a1,1,0,0,0,.71.29,1,1,0,0,0,.7-.29,1,1,0,0,0,0-1.42Z"/><path class="cls-1" d="M12.81,14.22a1,1,0,0,0,1.41,0,1,1,0,0,0,0-1.41L10,8.56A1,1,0,1,0,8.57,10Z"/><path class="cls-1" d="M12.81,29.78,8.57,34a1,1,0,0,0,0,1.42,1,1,0,0,0,.7.29,1,1,0,0,0,.71-.29l4.24-4.25a1,1,0,1,0-1.41-1.41Z"/><path class="cls-1" d="M30.49,14.51a1,1,0,0,0,.7-.29L35.43,10A1,1,0,1,0,34,8.56l-4.24,4.25a1,1,0,0,0,0,1.41A1,1,0,0,0,30.49,14.51Z"/></g></svg>