<svg xmlns="http://www.w3.org/2000/svg" viewBox="0 0 44 44"><defs><style>.cls-1{fill:#fff;}</style></defs><title>cws-icon-documents</title><g id="documents"><path class="cls-1" d="M35,38H11a1,1,0,0,1-1-1V5A1,1,0,0,0,8,5V37a3,3,0,0,0,3,3H35a1,1,0,0,0,0-2Z"/><path class="cls-1" d="M31,42H7a1,1,0,0,1-1-1V9A1,1,0,0,0,4,9V41a3,3,0,0,0,3,3H31a1,1,0,0,0,0-2Z"/><path class="cls-1" d="M39,9H33a1,1,0,0,1-1-1V5a1,1,0,0,0-2,0V8a3,3,0,0,0,3,3h5V33a1,1,0,0,1-1,1H15a1,1,0,0,1-1-1V3a1,1,0,0,1,1-1H31.63l6.72,5.76a1,1,0,0,0,1.3-1.52l-7-6A1,1,0,0,0,32,0H15a3,3,0,0,0-3,3V33a3,3,0,0,0,3,3H37a3,3,0,0,0,3-3V10A1,1,0,0,0,39,9Z"/><path class="cls-1" d="M18,16h8a1,1,0,0,0,0-2H18a1,1,0,0,0,0,2Z"/><path class="cls-1" d="M32,19a1,1,0,0,0-1-1H24a1,1,0,0,0,0,2h7A1,1,0,0,0,32,19Z"/><path class="cls-1" d="M25,26H18a1,1,0,0,0,0,2h7a1,1,0,0,0,0-2Z"/><path class="cls-1" d="M34,14H30a1,1,0,0,0,0,2h4a1,1,0,0,0,0-2Z"/><path class="cls-1" d="M25,22H18a1,1,0,0,0,0,2h7a1,1,0,0,0,0-2Z"/><path class="cls-1" d="M18,20h2a1,1,0,0,0,0-2H18a1,1,0,0,0,0,2Z"/><path class="cls-1" d="M29,24h5a1,1,0,0,0,0-2H29a1,1,0,0,0,0,2Z"/></g></svg>