<svg xmlns="http://www.w3.org/2000/svg" viewBox="0 0 44 44"><defs><style>.cls-1{fill:#fff;}</style></defs><g id="owl"><path class="cls-1" d="M17.3,18a1,1,0,1,0-1.25-.65A1,1,0,0,0,17.3,18Z"/><path class="cls-1" d="M26.7,16.05A1,1,0,1,0,28,16.7,1,1,0,0,0,26.7,16.05Z"/><circle class="cls-1" cx="19" cy="33" r="1"/><circle class="cls-1" cx="22" cy="37" r="1"/><circle class="cls-1" cx="25" cy="33" r="1"/><path class="cls-1" d="M25.71,41.46a13,13,0,0,1-7.43,0,1,1,0,0,0-1.24.67,1,1,0,0,0,.67,1.25,15.15,15.15,0,0,0,8.58,0,1,1,0,1,0-.58-1.92Z"/><path class="cls-1" d="M8,23a1,1,0,0,0,1-1V5.09a13.1,13.1,0,0,0,3.14,2.16,3.94,3.94,0,0,0,3.45,0,16.48,16.48,0,0,1,12.82,0,3.94,3.94,0,0,0,3.45,0A12.9,12.9,0,0,0,35,5.09V22a1,1,0,0,0,2,0V1a1,1,0,0,0-2,0c0,1.55-1.44,3.14-4,4.46a2,2,0,0,1-1.72,0,18.65,18.65,0,0,0-14.48,0,2,2,0,0,1-1.71,0C10.44,4.14,9,2.55,9,1A1,1,0,0,0,7,1V22A1,1,0,0,0,8,23Z"/><path class="cls-1" d="M33,17a5.92,5.92,0,0,0-.5-2.39,1,1,0,1,0-1.83.79A4,4,0,1,1,27,13a10.6,10.6,0,0,0,6.63-2.22,1,1,0,1,0-1.26-1.56A8.53,8.53,0,0,1,27,11a6,6,0,0,0-5,2.69A6,6,0,0,0,17,11a8.53,8.53,0,0,1-5.37-1.78,1,1,0,0,0-1.26,1.56A10.6,10.6,0,0,0,17,13a4,4,0,1,1-3.67,2.4,1,1,0,1,0-1.83-.8A6,6,0,0,0,17,23a5.92,5.92,0,0,0,1.41-.17l2.88,2.88a1,1,0,0,0,1.42,0l2.88-2.88A5.92,5.92,0,0,0,27,23,6,6,0,0,0,33,17ZM22,23.59,20.37,22A6,6,0,0,0,22,20.31,6,6,0,0,0,23.63,22Z"/><path class="cls-1" d="M35.71,25.25c-2.37-.78-5.38.23-6.72,4.23l0,.14h0a18.61,18.61,0,0,0,.85,13.83,1,1,0,0,0,.9.55A.82.82,0,0,0,31,44c3.82-1.05,7-4.47,8.54-9.13l0-.14C41,30.05,38.75,26.24,35.71,25.25Zm1.92,8.83,0,.13c-1.21,3.68-3.55,6.44-6.37,7.56a16.68,16.68,0,0,1-.38-11.52h0l0-.12c.67-2,1.89-3.12,3.3-3.12a2.94,2.94,0,0,1,.91.15C37.2,27.84,38.73,30.62,37.63,34.08Z"/><path class="cls-1" d="M15.06,29.62h0L15,29.48c-1.34-4-4.35-5-6.72-4.23-3,1-5.3,4.8-3.83,9.43l0,.15C6,39.49,9.23,42.91,13.05,44a.82.82,0,0,0,.26,0,1,1,0,0,0,.9-.55,18.61,18.61,0,0,0,.85-13.83ZM12.78,41.77C10,40.65,7.62,37.89,6.41,34.21l0-.13c-1.1-3.46.43-6.24,2.54-6.93A2.94,2.94,0,0,1,9.82,27c1.41,0,2.63,1.12,3.3,3.12l0,.12h0A16.68,16.68,0,0,1,12.78,41.77Z"/></g></svg>