<svg xmlns="http://www.w3.org/2000/svg" viewBox="0 0 44 44"><defs><style>.cls-1{fill:#fff;}</style></defs><title>cws-icon-telescope</title><g id="telescope"><path class="cls-1" d="M43,12H34a1,1,0,0,0-1,1H13a1,1,0,0,0-1,1H2V13a1,1,0,0,0-2,0V23a1,1,0,0,0,2,0V22H12a1,1,0,0,0,1,1h5a4,4,0,0,0,1.38,3L11.66,41.45a1,1,0,0,1-.9.55H10a1,1,0,0,0,0,2h.76a3,3,0,0,0,2.69-1.66L16.62,36H24a1,1,0,0,0,0-2H17.62l3.54-7.09A3.86,3.86,0,0,0,22,27a3.71,3.71,0,0,0,.67-.07l6.89,15.3A3,3,0,0,0,32.29,44H33a1,1,0,0,0,0-2h-.71a1,1,0,0,1-.91-.59L24.49,26.1A4,4,0,1,0,18.56,21H14V18a1,1,0,0,0-2,0v2H2V16H13a1,1,0,0,0,1-1H33v4a1,1,0,0,0,2,0V14h7v8H35a1,1,0,0,0-1-1H29a1,1,0,0,0,0,2h4a1,1,0,0,0,1,1h9a1,1,0,0,0,1-1V13A1,1,0,0,0,43,12ZM22,21a2,2,0,1,1-2,2A2,2,0,0,1,22,21Z"/><path class="cls-1" d="M34,5a2,2,0,0,1,2,2,1,1,0,0,0,2,0,2,2,0,0,1,2-2,1,1,0,0,0,0-2,2,2,0,0,1-2-2,1,1,0,0,0-2,0,2,2,0,0,1-2,2,1,1,0,0,0,0,2Zm3-1.38c.12.13.25.26.38.38-.13.12-.26.25-.38.38-.12-.13-.25-.26-.38-.38C36.75,3.88,36.88,3.75,37,3.62Z"/><path class="cls-1" d="M26,9a1,1,0,0,1,1,1,1,1,0,0,0,2,0,1,1,0,0,1,1-1,1,1,0,0,0,0-2,1,1,0,0,1-1-1,1,1,0,0,0-2,0,1,1,0,0,1-1,1,1,1,0,0,0,0,2Z"/></g></svg>