<svg xmlns="http://www.w3.org/2000/svg" viewBox="0 0 44 44"><defs><style>.cls-1{fill:#fff;}</style></defs><title>cws-icon-pc-chart</title><g id="pc_chart"><path class="cls-1" d="M9,18a3,3,0,0,0-2.82,2H5a1,1,0,0,0,0,2H6.18A3,3,0,0,0,12,21a3,3,0,0,0-.3-1.29l4-4a2.93,2.93,0,0,0,3.19-.4l5.16,3.1A3.05,3.05,0,0,0,24,19a3,3,0,0,0,6,0,2.94,2.94,0,0,0-.37-1.42l5.22-5.81A3,3,0,0,0,36,12a3,3,0,0,0,2.82-2H40a1,1,0,0,0,0-2H38.82A3,3,0,0,0,33,9a2.94,2.94,0,0,0,.37,1.42l-5.22,5.81a3,3,0,0,0-3,.47l-5.16-3.1A3.05,3.05,0,0,0,20,13a3,3,0,1,0-5.7,1.29l-4,4A3,3,0,0,0,9,18Zm0,4a1,1,0,1,1,1-1A1,1,0,0,1,9,22ZM36,8a1,1,0,1,1-1,1A1,1,0,0,1,36,8ZM27,18a1,1,0,1,1-1,1A1,1,0,0,1,27,18ZM17,12a1,1,0,1,1-1,1A1,1,0,0,1,17,12Z"/><circle class="cls-1" cx="22" cy="31" r="1"/><path class="cls-1" d="M5,28H39a1,1,0,0,0,0-2H5a1,1,0,0,0,0,2Z"/><path class="cls-1" d="M41,2H3A3,3,0,0,0,0,5V33a3,3,0,0,0,3,3H14a1,1,0,0,0,0-2H3a1,1,0,0,1-1-1V5A1,1,0,0,1,3,4H41a1,1,0,0,1,1,1V33a1,1,0,0,1-1,1H18a1,1,0,0,0-1,1v4a1,1,0,0,1-1,1H15a1,1,0,0,0,0,2H29a1,1,0,0,0,0-2H28a1,1,0,0,1-1-1V36H41a3,3,0,0,0,3-3V5A3,3,0,0,0,41,2ZM25.18,40H18.82A3,3,0,0,0,19,39V36h6v3A3,3,0,0,0,25.18,40Z"/></g></svg>