<svg xmlns="http://www.w3.org/2000/svg" viewBox="0 0 44 44"><defs><style>.cls-1{fill:#fff;}</style></defs><g id="piano"><path class="cls-1" d="M39,18H36.62L30.89,6.55a1,1,0,0,0-1.78.9L34.38,18H29V17a1,1,0,0,0-1-1H16a1,1,0,0,0-1,1v1H11a1,1,0,0,0,0,2h4v5H7a1,1,0,0,0,0,2H37a1,1,0,0,0,0-2H29V20H39a1,1,0,0,1,1,1v8a1,1,0,0,1-1,1H5a1,1,0,0,1-1-1V21a1,1,0,0,1,1-1,1,1,0,0,0,.54-.16l28-18A1,1,0,1,0,32.46.16L4.68,18A3,3,0,0,0,2,21v8a3,3,0,0,0,3,3V43a1,1,0,0,0,2,0V32H21v7H20a1,1,0,0,0,0,2h4a1,1,0,0,0,0-2H23V32H37V43a1,1,0,0,0,2,0V32a3,3,0,0,0,3-3V21A3,3,0,0,0,39,18ZM17,25V18h4v5a1,1,0,0,0,2,0V18h4v7Z"/></g></svg>