<svg xmlns="http://www.w3.org/2000/svg" viewBox="0 0 44 44"><defs><style>.cls-1{fill:#fff;}</style></defs><g id="hen"><circle class="cls-1" cx="36" cy="8" r="1"/><path class="cls-1" d="M41.86,9.49,40.44,7.13a6.25,6.25,0,0,0-1.38-1.6,2.33,2.33,0,0,0-1.24-4.19,3.64,3.64,0,0,0-5.64,0,2.32,2.32,0,0,0-1.32,4.12A6.44,6.44,0,0,0,28.81,8.4l-1.95,5.87a5.18,5.18,0,0,1-2.59,3l-.42.21a5.25,5.25,0,0,1-2.3.54h-1.1a5.25,5.25,0,0,1-2.3-.54l-1.4-.71a7.26,7.26,0,0,0-3.2-.75,5.11,5.11,0,0,1-3.64-1.51l-3.2-3.2a1,1,0,0,0-1.42,1.42l3.2,3.2A7.11,7.11,0,0,0,13.55,18a5.25,5.25,0,0,1,2.3.54l1.4.71a7.26,7.26,0,0,0,3.2.75h1.1a7.26,7.26,0,0,0,3.2-.75l.42-.22a7.06,7.06,0,0,0,3.58-4.13l2-5.86a4.43,4.43,0,0,1,4.21-3,4.47,4.47,0,0,1,3.81,2.16l.5.84h-.35A3.88,3.88,0,0,0,35,12.88a10,10,0,0,0,1,4.46l.11.21A8,8,0,0,1,37,21.12v1.72a10.85,10.85,0,0,1-2.38,6.78,6.56,6.56,0,0,1-3.07,2.14l-1.71.57a8.24,8.24,0,0,0-4,2.89A4.5,4.5,0,0,1,22.27,37h-2a11.18,11.18,0,0,1-5.56-1.48L11.9,33.93a1.77,1.77,0,0,1-.9-1.54,3.78,3.78,0,0,0-1.51-3L7.71,28A1.79,1.79,0,0,1,7,26.61V25.15a3.78,3.78,0,0,0-1.11-2.67L4.52,21.11A1.8,1.8,0,0,1,4,19.85V18a1,1,0,0,0-2,0v1.85a3.78,3.78,0,0,0,1.11,2.67l1.37,1.37A1.8,1.8,0,0,1,5,25.15v1.46a3.78,3.78,0,0,0,1.51,3L8.29,31A1.79,1.79,0,0,1,9,32.39a3.79,3.79,0,0,0,1.9,3.28l2.79,1.59A13.18,13.18,0,0,0,20,39v3a1,1,0,0,0,0,2h5a1,1,0,0,0,0-2H23a1,1,0,0,1-1-1V39h.27a6.5,6.5,0,0,0,5.17-2.58,6.27,6.27,0,0,1,3-2.19l1.71-.57a8.61,8.61,0,0,0,4-2.79,12.88,12.88,0,0,0,2.82-8V21.12a10,10,0,0,0-1-4.46l-.11-.21A8,8,0,0,1,37,12.88,1.88,1.88,0,0,1,38.88,11H41a1,1,0,0,0,.86-1.51ZM33,4.29A1,1,0,0,0,32.33,4a.34.34,0,0,1-.07-.67l.15,0a1,1,0,0,0,1.13-.49,1.65,1.65,0,0,1,2.92,0,1.08,1.08,0,0,0,1.21.45.34.34,0,0,1,0,.67,1,1,0,0,0-.74.34,6.17,6.17,0,0,0-3.89,0Z"/><path class="cls-1" d="M6.29,18.71a1,1,0,0,0,1.42,0,1,1,0,0,0,0-1.42l-4-4a1,1,0,0,0-1.42,1.42Z"/><path class="cls-1" d="M23,28a8,8,0,0,0,8-8,1,1,0,0,0-2,0,6,6,0,0,1-6,6H17a1,1,0,0,0,0,2Z"/></g></svg>