<svg xmlns="http://www.w3.org/2000/svg" viewBox="0 0 44 44"><defs><style>.cls-1{fill:#fff;}</style></defs><title>cws-icon-pawn</title><g id="pawn"><path class="cls-1" d="M31.44,38.37l.13-.27A4.17,4.17,0,0,0,32,36.27a4.1,4.1,0,0,0-1.19-2.88l-.61-.61a8.27,8.27,0,0,1-2.42-5.36l-.66-10.49a.88.88,0,0,1,.24-.65A.86.86,0,0,1,28,16a1,1,0,0,0,0-2H26.46a6,6,0,1,0-8.92,0H16a1,1,0,0,0,0,2,.86.86,0,0,1,.64.28.88.88,0,0,1,.24.65l-.66,10.49a8.27,8.27,0,0,1-2.42,5.36l-.61.61A4.1,4.1,0,0,0,12,36.27a4.17,4.17,0,0,0,.43,1.83l.13.27A3,3,0,0,0,11,41v2a1,1,0,0,0,1,1H32a1,1,0,0,0,1-1V41A3,3,0,0,0,31.44,38.37ZM18,10a4,4,0,1,1,4,4A4,4,0,0,1,18,10ZM31,42H13V41a1,1,0,0,1,1-1H26a1,1,0,0,0,0-2H14.62l-.4-.8a2.12,2.12,0,0,1-.22-.93,2.06,2.06,0,0,1,.61-1.46l.61-.61a10.32,10.32,0,0,0,3-6.65l.65-10.49A2.72,2.72,0,0,0,18.74,16h6.52a2.72,2.72,0,0,0-.13,1.06l.65,10.49a10.32,10.32,0,0,0,3,6.65l.61.61A2.06,2.06,0,0,1,30,36.27a2.12,2.12,0,0,1-.22.93l-.67,1.35A1,1,0,0,0,30,40a1,1,0,0,1,1,1Z"/></g></svg>