<svg xmlns="http://www.w3.org/2000/svg" viewBox="0 0 44 44"><defs><style>.cls-1{fill:#fff;}</style></defs><g id="dj_set"><circle class="cls-1" cx="37" cy="24" r="1"/><circle class="cls-1" cx="18" cy="14" r="1"/><circle class="cls-1" cx="18" cy="30" r="1"/><path class="cls-1" d="M41,4H3A3,3,0,0,0,0,7V37a3,3,0,0,0,3,3H41a3,3,0,0,0,3-3V7A3,3,0,0,0,41,4Zm1,33a1,1,0,0,1-1,1H3a1,1,0,0,1-1-1V7A1,1,0,0,1,3,6H41a1,1,0,0,1,1,1Z"/><path class="cls-1" d="M22,22a4,4,0,1,0-4,4A4,4,0,0,0,22,22Zm-4,2a2,2,0,1,1,2-2A2,2,0,0,1,18,24Z"/><path class="cls-1" d="M11.93,25.49a1,1,0,0,0-1.36-.36,1,1,0,0,0-.37,1.36,9,9,0,0,0,4.42,3.85,1,1,0,0,0,.38.08,1,1,0,0,0,.93-.63,1,1,0,0,0-.56-1.3A7,7,0,0,1,11.93,25.49Z"/><path class="cls-1" d="M24.06,18.5a1,1,0,0,0,.87.5,1,1,0,0,0,.5-.14,1,1,0,0,0,.36-1.36,9,9,0,0,0-4.41-3.84,1,1,0,1,0-.75,1.85A7,7,0,0,1,24.06,18.5Z"/><path class="cls-1" d="M37,8a3,3,0,0,0-2.1,5.14l-3.1,6.63A14,14,0,1,0,29,30.62a1,1,0,0,0-1.58-1.24A12,12,0,1,1,30,22c0,.31,0,.62,0,.92s-.05.62-.1.93a1,1,0,0,1-.07.24l-.16.33a1,1,0,0,1-.9.58H27a1,1,0,0,0-1-1H23a1,1,0,0,0-1,1v2a1,1,0,0,0,1,1h3a1,1,0,0,0,1-1h1.73a3,3,0,0,0,2.71-1.73L36.72,14A2.4,2.4,0,0,0,37,14a3,3,0,0,0,0-6Zm0,4a1,1,0,1,1,1-1A1,1,0,0,1,37,12Z"/><path class="cls-1" d="M38,31V27a1,1,0,0,0-2,0v4a1,1,0,0,0,0,2v1a1,1,0,0,0,2,0V33a1,1,0,0,0,0-2Z"/></g></svg>