<svg xmlns="http://www.w3.org/2000/svg" viewBox="0 0 44 44"><defs><style>.cls-1{fill:#fffafc;}</style></defs><g id="cloud"><path class="cls-1" d="M10.62,16.74A1,1,0,0,0,11.33,18a1.09,1.09,0,0,0,.26,0,1,1,0,0,0,1-.74,4.26,4.26,0,0,1,4-3.26,1,1,0,0,0,0-2A6.27,6.27,0,0,0,10.62,16.74Z"/><path class="cls-1" d="M31.86,16.06a6,6,0,0,1,1.71,11.36,1,1,0,0,0-.48,1.34,1,1,0,0,0,.91.57,1,1,0,0,0,.43-.1,8,8,0,0,0-2.29-15.15,1,1,0,1,0-.28,2Z"/><path class="cls-1" d="M41.6,25.2a1,1,0,1,0-1.2,1.6A4,4,0,0,1,42,30a4,4,0,0,1-4,4H8a6,6,0,1,1,4.93-9.43,1,1,0,1,0,1.63-1.14A8,8,0,1,0,8,36H38a6,6,0,0,0,6-6A5.94,5.94,0,0,0,41.6,25.2Z"/><path class="cls-1" d="M7.14,18a1,1,0,0,0,1.24-.69A10,10,0,0,1,28,20a1,1,0,0,0,2,0A12,12,0,0,0,6.45,16.73,1,1,0,0,0,7.14,18Z"/></g></svg>