<svg xmlns="http://www.w3.org/2000/svg" viewBox="0 0 44 44"><defs><style>.cls-1{fill:#fff;}</style></defs><title>cws-icon-money-bag</title><g id="money_bag"><path class="cls-1" d="M22,36a1,1,0,0,0,1-1V34a3,3,0,0,0,0-6H21a1,1,0,0,1,0-2h3a1,1,0,0,0,0-2H23V23a1,1,0,0,0-2,0v1a3,3,0,0,0,0,6h2a1,1,0,0,1,0,2H20a1,1,0,0,0,0,2h1v1A1,1,0,0,0,22,36Z"/><path class="cls-1" d="M36.53,21.74l-6.79-7.42a1,1,0,0,0-1.48,1.36l6.8,7.41A15,15,0,0,1,39,33.22V39a3,3,0,0,1-3,3H8a3,3,0,0,1-3-3V33.22A15,15,0,0,1,8.94,23.09L15.44,16H25a1,1,0,0,0,0-2H15a1,1,0,0,0-.74.32L7.47,21.74A17,17,0,0,0,3,33.22V39a5,5,0,0,0,5,5H36a5,5,0,0,0,5-5V33.22A17,17,0,0,0,36.53,21.74Z"/><path class="cls-1" d="M14.05,7.32A1,1,0,0,0,15,8a1.25,1.25,0,0,0,.32,0A1,1,0,0,0,16,6.68L14.39,2H29.61L28.28,6H19a1,1,0,0,0,0,2H29A1,1,0,0,0,30,7.32l2-6a1,1,0,0,0-.14-.9A1,1,0,0,0,31,0H13a1,1,0,0,0-.81.42,1,1,0,0,0-.14.9Z"/><path class="cls-1" d="M29,10H15a1,1,0,0,0,0,2H29a1,1,0,0,0,0-2Z"/></g></svg>