<svg xmlns="http://www.w3.org/2000/svg" viewBox="0 0 64 56"><defs><style>.cls-1{fill:#fff;}</style></defs><g id="bathrobe"><path class="cls-1" d="M53.86,25.05,43.78,10.38a5.05,5.05,0,0,0-3.14-2.07L38,7.79V7.61a1,1,0,0,0-1-1H29a1,1,0,0,0-1,1v.18l-2.6.52a5,5,0,0,0-3.14,2.07L12.21,25.05a1,1,0,0,0,.11,1.27l3,3a1,1,0,0,0,1.42,0L24,22v5.49l-4,21.91a1,1,0,0,0,.21.82,1,1,0,0,0,.77.36H28.2a3,3,0,0,0,2.12-.88l4.83-4.82A3,3,0,0,0,36,42.78V30.61a1,1,0,0,0-2,0v11a1,1,0,0,1-1,1H29a1,1,0,0,0-1,1v4a1,1,0,0,1-1,1h-4.8L26,27.79a1.09,1.09,0,0,0,0-.18h5a2,2,0,0,1-2,2,1,1,0,0,0,0,2,4,4,0,0,0,2-.55v1.55a1,1,0,0,0,2,0v-5h7a1.1,1.1,0,0,0,0,.18l3.78,20.82H34a1,1,0,0,0,0,2H45a1,1,0,0,0,1-1.18L42,27.52V22l7.29,7.29a1,1,0,0,0,1.42,0l3-3A1,1,0,0,0,53.86,25.05ZM32.62,44.61,30,47.2V44.61Zm-.59-20a1,1,0,0,0-1,1H26v-6a1,1,0,0,0-1.71-.7L16,27.2l-1.7-1.71,9.61-14a2.93,2.93,0,0,1,1.88-1.24l2.66-.54,5,10A5,5,0,0,1,34,22v3.58H33A1,1,0,0,0,32,24.61ZM50,27.2l-8.29-8.29a1,1,0,0,0-1.71.7v6H36V22a7,7,0,0,0-.74-3.13L30.15,8.61H36L34.1,13.24a1,1,0,0,0,.56,1.3,1,1,0,0,0,.37.07A1,1,0,0,0,36,14l1.69-4.22,2.59.52a3,3,0,0,1,1.89,1.24l9.61,14Z"/></g></svg>