<svg xmlns="http://www.w3.org/2000/svg" viewBox="0 0 44 34"><defs><style>.cls-1{fill:#fff;}</style></defs><title>cws-icon-video-camera</title><g id="Livello_2" data-name="Livello 2"><g id="video_camera"><circle class="cls-1" cx="27" cy="19" r="1"/><circle class="cls-1" cx="23" cy="19" r="1"/><circle class="cls-1" cx="13" cy="7" r="1"/><circle class="cls-1" cx="24" cy="8" r="1"/><circle class="cls-1" cx="27" cy="23" r="1"/><path class="cls-1" d="M41.45,13a2.53,2.53,0,0,0-1.36.39L34.47,16.9a1,1,0,0,0,1.06,1.7l5.62-3.52a.58.58,0,0,1,.85.47v14.9a.58.58,0,0,1-.85.47l-7.62-4.77A1,1,0,0,0,33,26H32V15a3,3,0,0,0-3-3h-.54a6,6,0,1,0-9.07-7.84A7,7,0,1,0,8.11,12H7a3,3,0,0,0-3,3H1a1,1,0,0,0-1,1v3a1,1,0,0,0,.29.71l.71.7V22a1,1,0,0,0,1,1H4v8a3,3,0,0,0,3,3H29a3,3,0,0,0,3-3,1,1,0,0,0-2,0,1,1,0,0,1-1,1H7a1,1,0,0,1-1-1V15a1,1,0,0,1,1-1H29a1,1,0,0,1,1,1v4h0v8a1,1,0,0,0,1,1h1.71l7.38,4.61a2.53,2.53,0,0,0,1.36.39A2.56,2.56,0,0,0,44,30.45V15.55A2.56,2.56,0,0,0,41.45,13ZM3,21V20a1,1,0,0,0-.29-.71L2,18.59V17H4v4ZM24,4a4,4,0,1,1-4,4A4,4,0,0,1,24,4ZM8,7a5,5,0,1,1,5,5A5,5,0,0,1,8,7Zm10.78,3.94A5.69,5.69,0,0,0,19.54,12H17.89A6.49,6.49,0,0,0,18.78,10.94Z"/><path class="cls-1" d="M9,18a1,1,0,0,0,0,2H19a1,1,0,0,0,0-2Z"/></g></g></svg>