<svg xmlns="http://www.w3.org/2000/svg" viewBox="0 0 44 44"><defs><style>.cls-1{fill:#fff;}</style></defs><title>cws-icon-document</title><g id="document"><path class="cls-1" d="M38,10H31a1,1,0,0,1-1-1V5a1,1,0,0,0-2,0V9a3,3,0,0,0,3,3h6V41a1,1,0,0,1-1,1H8a1,1,0,0,1-1-1V3A1,1,0,0,1,8,2H29.62l7.72,6.75a1,1,0,1,0,1.32-1.5l-8-7A1,1,0,0,0,30,0H8A3,3,0,0,0,5,3V41a3,3,0,0,0,3,3H36a3,3,0,0,0,3-3V11A1,1,0,0,0,38,10Z"/><path class="cls-1" d="M32,32a1,1,0,0,0-1-1H12a1,1,0,0,0,0,2H31A1,1,0,0,0,32,32Z"/><path class="cls-1" d="M12,17H22a1,1,0,0,0,0-2H12a1,1,0,0,0,0,2Z"/><path class="cls-1" d="M32,19H20a1,1,0,0,0,0,2H32a1,1,0,0,0,0-2Z"/><path class="cls-1" d="M32,15H26a1,1,0,0,0,0,2h6a1,1,0,0,0,0-2Z"/><path class="cls-1" d="M12,25h9a1,1,0,0,0,0-2H12a1,1,0,0,0,0,2Z"/><path class="cls-1" d="M12,29h4a1,1,0,0,0,0-2H12a1,1,0,0,0,0,2Z"/><path class="cls-1" d="M12,21h4a1,1,0,0,0,0-2H12a1,1,0,0,0,0,2Z"/><path class="cls-1" d="M33,24a1,1,0,0,0-1-1H25a1,1,0,0,0,0,2h7A1,1,0,0,0,33,24Z"/><path class="cls-1" d="M19,28a1,1,0,0,0,1,1h8a1,1,0,0,0,0-2H20A1,1,0,0,0,19,28Z"/><path class="cls-1" d="M12,35a1,1,0,0,0,0,2H22a1,1,0,0,0,0-2Z"/></g></svg>