<svg xmlns="http://www.w3.org/2000/svg" viewBox="0 0 44 44"><defs><style>.cls-1{fill:#fffafc;}</style></defs><g id="rain_sun"><path class="cls-1" d="M25.39,35.08a1,1,0,0,0-1.31.53l-3,7a1,1,0,0,0,.53,1.31A1,1,0,0,0,22,44a1,1,0,0,0,.92-.61l3-7A1,1,0,0,0,25.39,35.08Z"/><path class="cls-1" d="M21.39,35.08a1,1,0,0,0-1.31.53l-3,7a1,1,0,0,0,.53,1.31A1,1,0,0,0,18,44a1,1,0,0,0,.92-.61l3-7A1,1,0,0,0,21.39,35.08Z"/><path class="cls-1" d="M17.39,35.08a1,1,0,0,0-1.31.53l-3,7a1,1,0,0,0,.53,1.31A1,1,0,0,0,14,44a1,1,0,0,0,.92-.61l3-7A1,1,0,0,0,17.39,35.08Z"/><path class="cls-1" d="M32.33,32.73a1,1,0,0,0-.08,1.41,1,1,0,0,0,.75.33,1,1,0,0,0,.67-.25A7,7,0,0,0,31.34,22.4a1,1,0,0,0-.67,1.89,5,5,0,0,1,1.66,8.44Z"/><path class="cls-1" d="M37.34,31.61A1,1,0,0,0,37.25,33,3,3,0,0,1,35,38H28a1,1,0,0,0,0,2h7a5,5,0,0,0,3.75-8.31A1,1,0,0,0,37.34,31.61Z"/><path class="cls-1" d="M7,26A7,7,0,0,0,7,40h4a1,1,0,0,0,0-2H7a5,5,0,1,1,4.17-7.76,1,1,0,1,0,1.66-1.11A7,7,0,0,0,7,26Z"/><path class="cls-1" d="M8.43,23.92a1,1,0,0,0,1.32-.52A9,9,0,0,1,27,27a1,1,0,0,0,2,0A11,11,0,0,0,7.92,22.6,1,1,0,0,0,8.43,23.92Z"/><path class="cls-1" d="M11.08,24.57a1,1,0,0,0,.53,1.31A.88.88,0,0,0,12,26a1,1,0,0,0,.92-.6A5.55,5.55,0,0,1,18,22a1,1,0,0,0,0-2A7.55,7.55,0,0,0,11.08,24.57Z"/><path class="cls-1" d="M27,6a1,1,0,0,0,1-1V1a1,1,0,0,0-2,0V5A1,1,0,0,0,27,6Z"/><path class="cls-1" d="M17.81,9.22a1,1,0,0,0,1.41,0,1,1,0,0,0,0-1.41L16.39,5A1,1,0,0,0,15,6.39Z"/><path class="cls-1" d="M43,16H39a1,1,0,0,0,0,2h4a1,1,0,0,0,0-2Z"/><path class="cls-1" d="M31.21,6.84a1,1,0,0,0,.38.07,1,1,0,0,0,.93-.61l.76-1.85a1,1,0,1,0-1.85-.77l-.76,1.85A1,1,0,0,0,31.21,6.84Z"/><path class="cls-1" d="M37.16,12.79a1,1,0,0,0,.93.62,1.08,1.08,0,0,0,.38-.08l1.85-.76a1,1,0,0,0-.77-1.85l-1.85.76A1,1,0,0,0,37.16,12.79Z"/><path class="cls-1" d="M21.48,6.3a1,1,0,0,0,.93.61,1,1,0,0,0,.38-.07,1,1,0,0,0,.54-1.31l-.76-1.85a1,1,0,1,0-1.85.77Z"/><path class="cls-1" d="M35.49,9.51a1,1,0,0,0,.7-.29L39,6.39A1,1,0,0,0,37.61,5L34.78,7.81a1,1,0,0,0,0,1.41A1,1,0,0,0,35.49,9.51Z"/><path class="cls-1" d="M13.68,12.57l1.85.76a1.08,1.08,0,0,0,.38.08,1,1,0,0,0,.93-.62,1,1,0,0,0-.54-1.31l-1.85-.76a1,1,0,0,0-.77,1.85Z"/><path class="cls-1" d="M19.51,14a1,1,0,0,0,1.36-.39,7,7,0,0,1,12.26,6.78,1,1,0,0,0,.39,1.36.94.94,0,0,0,.48.13,1,1,0,0,0,.88-.52,9,9,0,0,0-15.76-8.72A1,1,0,0,0,19.51,14Z"/><path class="cls-1" d="M40.32,21.43l-1.85-.76a1,1,0,0,0-1.31.54,1,1,0,0,0-.07.38,1,1,0,0,0,.61.93l1.85.76a1.08,1.08,0,0,0,.38.08,1,1,0,0,0,.93-.62,1.06,1.06,0,0,0,.07-.38A1,1,0,0,0,40.32,21.43Z"/></g></svg>