<svg xmlns="http://www.w3.org/2000/svg" viewBox="0 0 44 44"><defs><style>.cls-1{fill:#fff;}</style></defs><g id="dog"><circle class="cls-1" cx="36" cy="12" r="1"/><path class="cls-1" d="M43.55,12.17,39.8,9.67a9.28,9.28,0,0,1-3.11-3.53l-.8-1.59A1,1,0,0,0,35.13,4a1,1,0,0,0-.88.33L30.88,8.2a12,12,0,0,1-8.43,4.06L7,13a6.17,6.17,0,0,1-4.41-1.83l-.88-.88a1,1,0,0,0-1.17-.18A1,1,0,0,0,0,11.17L.34,13.1A7.26,7.26,0,0,0,5.76,19,1,1,0,0,0,6.24,17,5.27,5.27,0,0,1,2.55,13.7,8.24,8.24,0,0,0,7,15h0l15.49-.74a14,14,0,0,0,9.84-4.75l2.39-2.73L34.9,7a11.23,11.23,0,0,0,3.79,4.3l3,2-1,1.92a1,1,0,0,1-1,.55l-4-.57a3,3,0,0,0-3.08,1.59l-.21-.07a4.38,4.38,0,0,1-2.55-2.21,1,1,0,0,0-1.78.9,6.33,6.33,0,0,0,3.69,3.21l.16.05a39,39,0,0,0-2,12.23v6.48a.6.6,0,0,1-1.18.1L28,28.91A1,1,0,0,0,26.9,28,1,1,0,0,0,26,29.1l.83,8.64A2.6,2.6,0,0,0,32,37.42V30.94a37.15,37.15,0,0,1,2.37-13.08,1,1,0,0,1,1.08-.64l4,.57a3,3,0,0,0,3.11-1.63l1.35-2.71A1,1,0,0,0,43.55,12.17Z"/><path class="cls-1" d="M24.63,25.07a17.64,17.64,0,0,1-11.26,0,1,1,0,0,0-1.32.61l-.61,1.84a3.38,3.38,0,0,1-1,1.52,5.43,5.43,0,0,0-1.88,3.72l-.37,4.72a.58.58,0,0,1-.58.52C7.3,38,7,37.19,7,35.42V22a1,1,0,0,0-2,0V35.42C5,36.55,5,40,7.58,40a2.59,2.59,0,0,0,2.57-2.33l.37-4.76a3.47,3.47,0,0,1,1.19-2.35,5.4,5.4,0,0,0,1.63-2.41l.29-.87a19.62,19.62,0,0,0,11.74-.35,1,1,0,0,0-.74-1.86Z"/></g></svg>