<svg xmlns="http://www.w3.org/2000/svg" viewBox="0 0 44 44"><defs><style>.cls-1{fill:#fff;}</style></defs><title>cws-icon-bank</title><g id="bank"><path class="cls-1" d="M43,38H7a1,1,0,0,0,0,2H42v2H2V40H3a1,1,0,0,0,1-1V36H41a1,1,0,0,0,0-2H40V19h1a1,1,0,0,0,1-1V12a1,1,0,0,0-.65-.94L34.14,8.41a13,13,0,0,0-24.28,0L2.65,11.06A1,1,0,0,0,2,12v2a1,1,0,0,0,1,1H37a1,1,0,0,0,0-2H4v-.3L22,6.07,40,12.7V17H3a1,1,0,0,0,0,2H4V34H3a1,1,0,0,0-1,1v3H1a1,1,0,0,0-1,1v4a1,1,0,0,0,1,1H43a1,1,0,0,0,1-1V39A1,1,0,0,0,43,38ZM21.65,4.06,12.53,7.42a11,11,0,0,1,18.94,0L22.35,4.06A1.05,1.05,0,0,0,21.65,4.06ZM10,34V19h4V34Zm10,0V19h4V34Zm10,0V19h4V34Zm8-15V34H36V19ZM28,19V34H26V19ZM18,19V34H16V19ZM6,19H8V34H6Z"/><circle class="cls-1" cx="22" cy="10" r="2"/></g></svg>