<svg xmlns="http://www.w3.org/2000/svg" viewBox="0 0 44 44"><defs><style>.cls-1{fill:#fff;}</style></defs><title>cws-icon-diode</title><g id="diode"><path class="cls-1" d="M34,26H29V21a1,1,0,0,0-1-1H26l1.8-2.4a1,1,0,1,0-1.6-1.2l-3,4a1,1,0,0,0-.09,1.05A1,1,0,0,0,24,22h3v4H17V18h4l-1.8,2.4a1,1,0,1,0,1.6,1.2l3-4a1,1,0,0,0,.09-1.05A1,1,0,0,0,23,16H16a1,1,0,0,0-1,1v9h0a1,1,0,0,0,0,2H34a1,1,0,0,1,0,2H10a1,1,0,0,1,0-2h1c1,0,1-.91,1-1.64V12a10,10,0,0,1,20,0V23a1,1,0,0,0,2,0V12a12,12,0,0,0-24,0V26a3,3,0,0,0,0,6H34a3,3,0,0,0,0-6Z"/><path class="cls-1" d="M16,34a1,1,0,0,0-1,1v8a1,1,0,0,0,2,0V35A1,1,0,0,0,16,34Z"/><path class="cls-1" d="M28,34a1,1,0,0,0-1,1v8a1,1,0,0,0,2,0V35A1,1,0,0,0,28,34Z"/></g></svg>