<svg xmlns="http://www.w3.org/2000/svg" viewBox="0 0 44 44"><defs><style>.cls-1{fill:#fff;}</style></defs><title>cws-icon-hat</title><g id="hat"><path class="cls-1" d="M41.79,11.89,24.35,5.51a8.38,8.38,0,0,0-5.86,0L2.18,11.8a3.36,3.36,0,0,0,0,6.31l17.44,6.38a8.38,8.38,0,0,0,2.86.51,7.26,7.26,0,0,0,2.84-.55l4-1.53a1,1,0,0,0,.57-1.29,1,1,0,0,0-1.29-.58l-4,1.54a6,6,0,0,1-4.27,0L2.92,16.24a1.36,1.36,0,0,1,0-2.57L19.2,7.42a6.37,6.37,0,0,1,4.47,0L41.1,13.76A1.3,1.3,0,0,1,42,15a1.41,1.41,0,0,1-1,1.32L34,19l-10.62-4.3A2.35,2.35,0,0,0,21.5,14h0c-1.09,0-2,.45-2,1s.78.93,1.78,1L33,20.74V33.18a3,3,0,1,0,2.43.2,16,16,0,0,0,2.24-1.63A1,1,0,0,0,38,31V23a1,1,0,0,0-2,0v7.54c-.3.25-.65.49-1,.73V20.76l6.65-2.55A3.43,3.43,0,0,0,44,15,3.29,3.29,0,0,0,41.79,11.89ZM34,37a1,1,0,1,1,1-1A1,1,0,0,1,34,37Z"/><path class="cls-1" d="M27.77,34.27A25.12,25.12,0,0,1,22,35c-5,0-10.88-1.9-14-4.46V23a1,1,0,0,0-2,0v8a1,1,0,0,0,.33.75C10.19,35.2,17.13,37,22,37a27.37,27.37,0,0,0,6.23-.78,1,1,0,0,0-.46-1.95Z"/></g></svg>