<svg xmlns="http://www.w3.org/2000/svg" viewBox="0 0 44 44"><defs><style>.cls-1{fill:#fff;}</style></defs><title>cws-icon-bicycle</title><g id="bicycle"><path class="cls-1" d="M36,20a8.35,8.35,0,0,0-1.8.21L30.43,10H31a1,1,0,0,1,1,1,1,1,0,0,0,2,0,3,3,0,0,0-3-3H29a1,1,0,0,0-.94,1.35L30.51,16H15.15l-1.58-2.16a.52.52,0,0,1,0-.55A.51.51,0,0,1,14,13a1,1,0,0,0,0-2H10a1,1,0,0,0,0,2h1.53A2.5,2.5,0,0,0,12,15l1.13,1.56-2.93,4.6-.06.08v0L6.16,27.46A1,1,0,0,0,7,29a1,1,0,0,0,.84-.46L11.35,23a6,6,0,0,1,2.56,4H11a1,1,0,0,0,0,2h9.18A3,3,0,0,0,22,30.82V32a1,1,0,0,0,2,0V30.82a3,3,0,0,0,0-5.64V24a1,1,0,0,0-2,0v1.18A3,3,0,0,0,20.18,27H15.93a8.07,8.07,0,0,0-3.5-5.66l1.92-3,3.84,5.28A1,1,0,0,0,19,24a1,1,0,0,0,.59-.19,1,1,0,0,0,.22-1.4L16.6,18H29.9l-3.66,4.36a1,1,0,0,0,.12,1.4,1,1,0,0,0,1.4-.12l3.88-4.59,3.42,9.3A1,1,0,0,0,36,29a1.07,1.07,0,0,0,.35-.06,1,1,0,0,0,.59-1.29l-2-5.54a6,6,0,1,1-3.42,1.95A1,1,0,1,0,30,22.75,8,8,0,1,0,36,20ZM23,27a1,1,0,1,1-1,1A1,1,0,0,1,23,27Z"/><path class="cls-1" d="M14.52,30.75a1,1,0,0,0-1.38.34A6,6,0,1,1,7.38,22a1,1,0,1,0-.2-2,8,8,0,1,0,7.68,12.08A1,1,0,0,0,14.52,30.75Z"/></g></svg>