<svg xmlns="http://www.w3.org/2000/svg" viewBox="0 0 44 44"><defs><style>.cls-1{fill:#fffafc;}</style></defs><g id="windsock"><path class="cls-1" d="M25,42H16V40a1,1,0,0,0-1-1V36a1,1,0,0,0-2,0v4a1,1,0,0,0,1,1v1H10V41a1,1,0,0,0,1-1V35a1,1,0,0,1,1-1,1,1,0,0,0,1-1V21a1,1,0,0,0-2,0V32.17A3,3,0,0,0,9,35v4a1,1,0,0,0-1,1v2H5a1,1,0,0,0,0,2H25a1,1,0,0,0,0-2Z"/><path class="cls-1" d="M39.2,10l-20-4a.93.93,0,0,0-.44,0,12.53,12.53,0,0,0-4.35,2,1,1,0,0,0-.22,1.4,1,1,0,0,0,1.4.22A10.8,10.8,0,0,1,18,8.37V19.63a10.52,10.52,0,0,1-4.67-3.53L13,15.67V5.82a3,3,0,1,0-2,0V16s0,.08,0,.11a1.18,1.18,0,0,0,0,.2l.09.19,0,.1.53.7a12.64,12.64,0,0,0,7,4.67A1,1,0,0,0,19,22l.2,0,20-4a1,1,0,0,0,.8-1V11A1,1,0,0,0,39.2,10ZM12,2a1,1,0,1,1-1,1A1,1,0,0,1,12,2ZM38,16.18l-18,3.6V8.22l3,.61A.86.86,0,0,0,23,9v7a1,1,0,0,0,2,0V9.22l3,.61A.47.47,0,0,0,28,10v5a1,1,0,0,0,2,0V10.22l3,.61A.47.47,0,0,0,33,11v3a1,1,0,0,0,2,0V11.22l3,.6Z"/></g></svg>