<svg xmlns="http://www.w3.org/2000/svg" viewBox="0 0 44 44"><defs><style>.cls-1{fill:#fff;}</style></defs><title>cws-icon-stall</title><g id="traffic_light"><path class="cls-1" d="M26,22a4,4,0,1,0-4,4A4,4,0,0,0,26,22Zm-6,0a2,2,0,1,1,2,2A2,2,0,0,1,20,22Z"/><path class="cls-1" d="M26,8a4,4,0,1,0-4,4A4,4,0,0,0,26,8ZM20,8a2,2,0,1,1,2,2A2,2,0,0,1,20,8Z"/><path class="cls-1" d="M22,40a4,4,0,1,0-4-4A4,4,0,0,0,22,40Zm0-6a2,2,0,1,1-2,2A2,2,0,0,1,22,34Z"/><path class="cls-1" d="M38,28H6a1,1,0,0,0-1,1v1a5.34,5.34,0,0,0,1.87,4.06l4,3.4A3.34,3.34,0,0,1,12,40v1a3,3,0,0,0,3,3H29a3,3,0,0,0,3-3V40a3.34,3.34,0,0,1,1.17-2.54l4-3.4A5.34,5.34,0,0,0,39,30V29A1,1,0,0,0,38,28Zm-2.17,4.54L32,35.83V33a1,1,0,0,0-2,0v8a1,1,0,0,1-1,1H15a1,1,0,0,1-1-1V33a1,1,0,0,0-2,0v2.83L8.17,32.54A3.34,3.34,0,0,1,7,30H37A3.34,3.34,0,0,1,35.83,32.54Z"/><path class="cls-1" d="M38,0H6A1,1,0,0,0,5,1V2A5.34,5.34,0,0,0,6.87,6.06l4,3.4A3.34,3.34,0,0,1,12,12a1,1,0,0,0,2,0V5a1,1,0,0,0-2,0V7.83L8.17,4.54A3.34,3.34,0,0,1,7,2H37a3.34,3.34,0,0,1-1.17,2.54L32,7.83V5a1,1,0,0,0-2,0v7a1,1,0,0,0,2,0,3.34,3.34,0,0,1,1.17-2.54l4-3.4A5.34,5.34,0,0,0,39,2V1A1,1,0,0,0,38,0Z"/><path class="cls-1" d="M38,14H6a1,1,0,0,0-1,1v1a5.34,5.34,0,0,0,1.87,4.06l4,3.4A3.34,3.34,0,0,1,12,26a1,1,0,0,0,2,0V19a1,1,0,0,0-2,0v2.83L8.17,18.54A3.34,3.34,0,0,1,7,16H37a3.34,3.34,0,0,1-1.17,2.54L32,21.83V19a1,1,0,0,0-2,0v7a1,1,0,0,0,2,0,3.34,3.34,0,0,1,1.17-2.54l4-3.4A5.34,5.34,0,0,0,39,16V15A1,1,0,0,0,38,14Z"/></g></svg>