<svg xmlns="http://www.w3.org/2000/svg" viewBox="0 0 44 44"><defs><style>.cls-1{fill:#fff;}</style></defs><title>cws-icon-accumulator</title><g id="accumulator"><path class="cls-1" d="M14,28a1,1,0,0,0,1-1V25h2a1,1,0,0,0,0-2H15V21a1,1,0,0,0-2,0v2H11a1,1,0,0,0,0,2h2v2A1,1,0,0,0,14,28Z"/><path class="cls-1" d="M27,23a1,1,0,0,0,0,2h6a1,1,0,0,0,0-2Z"/><path class="cls-1" d="M35,8h2a1,1,0,0,0,0-2H35a1,1,0,0,0,0,2Z"/><path class="cls-1" d="M5,8H7A1,1,0,0,0,7,6H5A1,1,0,0,0,5,8Z"/><path class="cls-1" d="M41,33H7a1,1,0,0,0,0,2H41a1,1,0,0,1,0,2H3a1,1,0,0,1,0-2,1,1,0,0,0,1-1V18a1,1,0,0,0-2,0V33.17A3,3,0,0,0,3,39H41a3,3,0,0,0,0-6Z"/><path class="cls-1" d="M3,15H37a1,1,0,0,0,0-2H3a1,1,0,0,1,0-2h9a1,1,0,0,0,1-1V8a1,1,0,0,1,1-1H28a1,1,0,0,1,1,1v2a1,1,0,0,0,1,1H41a1,1,0,0,1,0,2,1,1,0,0,0-1,1V30a1,1,0,0,0,2,0V14.83A3,3,0,0,0,41,9H31V8a3,3,0,0,0-3-3H14a3,3,0,0,0-3,3V9H3a3,3,0,0,0,0,6Z"/></g></svg>