<svg xmlns="http://www.w3.org/2000/svg" viewBox="0 0 44 44"><defs><style>.cls-1{fill:#fff;}</style></defs><title>cws-icon-book</title><g id="book"><path class="cls-1" d="M10,7V31a1,1,0,0,0,2,0V7a1,1,0,0,0-2,0Z"/><path class="cls-1" d="M11,38a1,1,0,0,0,0,2H35a1,1,0,0,0,0-2Z"/><path class="cls-1" d="M30,17a1,1,0,0,0-1-1H19a1,1,0,0,0,0,2H29A1,1,0,0,0,30,17Z"/><path class="cls-1" d="M21,20a1,1,0,0,0,0,2h6a1,1,0,0,0,0-2Z"/><path class="cls-1" d="M38,33V4a3,3,0,0,0-3-3H34a1,1,0,0,0-1-1H25a1,1,0,0,0-1,1V9a1,1,0,0,0,1.45.89L29,8.12l3.55,1.77A1,1,0,0,0,34,9V6a1,1,0,0,0-2,0V7.38L29.45,6.11a1,1,0,0,0-.9,0L26,7.38V2h6a1,1,0,0,0,1,1h2a1,1,0,0,1,1,1V33a1,1,0,0,1-1,1H11a4.92,4.92,0,0,0-3,1V8a5,5,0,0,1,5-5h8a1,1,0,0,0,0-2H13A7,7,0,0,0,6,8V39a5,5,0,0,0,5,5H37a1,1,0,0,0,0-2H11a3,3,0,0,1,0-6H35A3,3,0,0,0,38,33Z"/></g></svg>