<svg xmlns="http://www.w3.org/2000/svg" viewBox="0 0 44 44"><defs><style>.cls-1{fill:#fff;}</style></defs><title>cws-icon-web-search</title><g id="web_search"><path class="cls-1" d="M43,13a1,1,0,0,0-1,1V36a1,1,0,0,1-1,1,1,1,0,0,0,0,2,3,3,0,0,0,3-3V14A1,1,0,0,0,43,13Z"/><path class="cls-1" d="M41,1H3A3,3,0,0,0,0,4V36a3,3,0,0,0,3,3H24a1,1,0,0,0,0-2H3a1,1,0,0,1-1-1V4A1,1,0,0,1,3,3H41a1,1,0,0,1,1,1V9H5a1,1,0,0,0,0,2H43a1,1,0,0,0,1-1V4A3,3,0,0,0,41,1Z"/><circle class="cls-1" cx="5" cy="6" r="1"/><circle class="cls-1" cx="9" cy="6" r="1"/><circle class="cls-1" cx="13" cy="6" r="1"/><path class="cls-1" d="M30.71,30.29a1,1,0,0,0-1.42,0l-.79.8L26,28.62a9,9,0,1,0-13.39.74,9,9,0,0,0,8.61,2.36A1,1,0,0,0,22,30.5a1,1,0,0,0-1.22-.72A7.05,7.05,0,0,1,14.05,28,7,7,0,1,1,24,28a1,1,0,0,0-.29.71,1,1,0,0,0,.29.7l3.14,3.14-.8.79a1,1,0,0,0,0,1.42l7.38,7.38a3.09,3.09,0,0,0,2.21.91A3.12,3.12,0,0,0,39,39.88a3.09,3.09,0,0,0-.91-2.21ZM35.88,41a1.11,1.11,0,0,1-.79-.33L28.41,34,30,32.41l6.67,6.68A1.12,1.12,0,0,1,35.88,41Z"/><path class="cls-1" d="M14,23a1,1,0,0,0,2,0,3,3,0,0,1,3-3,1,1,0,0,0,0-2A5,5,0,0,0,14,23Z"/></g></svg>