<svg xmlns="http://www.w3.org/2000/svg" viewBox="0 0 44 44"><defs><style>.cls-1{fill:#fff;}</style></defs><title>cws-icon-barrel</title><g id="barrel"><path class="cls-1" d="M4,28a3,3,0,0,0,2,2.82V35a1,1,0,0,0,2,0V31h8a1,1,0,0,0,0-2H7a1,1,0,0,1,0-2h6a1,1,0,0,0,0-2H8V19h4a1,1,0,0,0,0-2H7a1,1,0,0,1,0-2h9a1,1,0,0,0,0-2H8V5A1,1,0,0,0,7,4,1,1,0,0,1,7,2H37a1,1,0,0,1,0,2H11a1,1,0,0,0,0,2H37a3,3,0,0,0,0-6H7A3,3,0,0,0,6,5.83v7.35a3,3,0,0,0,0,5.64v6.36A3,3,0,0,0,4,28Z"/><path class="cls-1" d="M21.19,15.41C20.76,16,17,21.21,17,24.18a5,5,0,0,0,10,0c0-3-3.76-8.19-4.19-8.77A1,1,0,0,0,21.19,15.41ZM25,24.18a3,3,0,0,1-6,0c0-1.45,1.61-4.34,3-6.43C23.39,19.84,25,22.73,25,24.18Z"/><path class="cls-1" d="M40,16a3,3,0,0,0-2-2.82V9a1,1,0,0,0-2,0v4H28a1,1,0,0,0,0,2h9a1,1,0,0,1,0,2H33a1,1,0,0,0,0,2h3v6H33a1,1,0,0,0,0,2h4a1,1,0,0,1,0,2H30a1,1,0,0,0,0,2h6v8a1,1,0,0,0,1,1,1,1,0,0,1,0,2H7a1,1,0,0,1,0-2H33a1,1,0,0,0,0-2H7a3,3,0,0,0,0,6H37a3,3,0,0,0,1-5.83V30.82a3,3,0,0,0,0-5.64V18.82A3,3,0,0,0,40,16Z"/></g></svg>