<svg xmlns="http://www.w3.org/2000/svg" viewBox="0 0 44 44"><defs><style>.cls-1{fill:#fff;}</style></defs><g id="contrabass"><path class="cls-1" d="M40.88,0a3.15,3.15,0,0,0-2.21.91L35.91,3.67A3.09,3.09,0,0,0,35,5.88a3.14,3.14,0,0,0,.33,1.37L28.9,13.68a8,8,0,0,0-11,1.12,1,1,0,0,0-.16,1A3.08,3.08,0,0,1,18,17a3,3,0,0,1-5.55,1.56,1,1,0,0,0-1-.47A13,13,0,0,0,1.18,36.42a1,1,0,0,0,.91.58,1.06,1.06,0,0,0,.42-.09A1,1,0,0,0,3,35.58a11,11,0,0,1,8.14-15.42A5,5,0,0,0,20,17a5.15,5.15,0,0,0-.17-1.3,6,6,0,0,1,7.64-.59l-8.18,8.18a1,1,0,0,0,0,1.42,1,1,0,0,0,1.42,0l16-16a3.09,3.09,0,0,0,3.58-.58l2.76-2.76A3.09,3.09,0,0,0,44,3.12,3.12,3.12,0,0,0,40.88,0Zm.79,3.91L38.91,6.67a1.1,1.1,0,0,1-.79.33,1.12,1.12,0,0,1-.79-1.91l2.76-2.76A1.1,1.1,0,0,1,40.88,2a1.12,1.12,0,0,1,.79,1.91Z"/><path class="cls-1" d="M30.79,18a1,1,0,0,0-.85,1.13A6.11,6.11,0,0,1,30,20a5.94,5.94,0,0,1-1.7,4.17A5.09,5.09,0,0,0,27,24a5,5,0,0,0-3.16,8.86A11,11,0,0,1,5.22,38.78a1,1,0,0,0-.73-.32.9.9,0,0,0-.7.33l-1.5,1.5h0l-2,2a1,1,0,0,0,1.42,1.42L3.41,42H6.06a13,13,0,0,0,19.85-9.48,1,1,0,0,0-.47-1A3,3,0,0,1,27,26a3.08,3.08,0,0,1,1.16.23,1,1,0,0,0,1-.16A8,8,0,0,0,32,20a8.62,8.62,0,0,0-.08-1.14A1,1,0,0,0,30.79,18Z"/><path class="cls-1" d="M15,25H13.83a3,3,0,0,0-2.12.88l-1.4,1.39a1,1,0,0,1-1.15.19l-.71-.35a1,1,0,0,0-.9,1.78l.71.36a3.08,3.08,0,0,0,1.35.32,3,3,0,0,0,2.12-.88l1.39-1.4a1.05,1.05,0,0,1,.71-.29H15a1,1,0,0,0,0-2Z"/><path class="cls-1" d="M18.12,32.29A3,3,0,0,0,19,30.17V29a1,1,0,0,0-2,0v1.17a1,1,0,0,1-.29.71l-1.4,1.39a3,3,0,0,0-.56,3.47l.36.71A1,1,0,0,0,16,37a.93.93,0,0,0,.45-.11,1,1,0,0,0,.44-1.34l-.35-.71a1,1,0,0,1,.19-1.15Z"/></g></svg>