<svg xmlns="http://www.w3.org/2000/svg" viewBox="0 0 44 44"><defs><style>.cls-1{fill:#fff;}</style></defs><title>cws-icon-tag</title><g id="tag"><path class="cls-1" d="M18,19a3,3,0,1,0-3,3A3,3,0,0,0,18,19Zm-4,0a1,1,0,1,1,1,1A1,1,0,0,1,14,19Z"/><path class="cls-1" d="M15,30a3,3,0,1,0,3-3A3,3,0,0,0,15,30Zm4,0a1,1,0,1,1-1-1A1,1,0,0,1,19,30Z"/><path class="cls-1" d="M21.71,19.29a1,1,0,0,0-1.42,0l-9,9a1,1,0,0,0,0,1.42,1,1,0,0,0,1.42,0l9-9A1,1,0,0,0,21.71,19.29Z"/><path class="cls-1" d="M44,5a1,1,0,0,0-2,0,5,5,0,0,1-5,5H31a1,1,0,0,0,0,2h.72A2,2,0,1,1,30,9a1,1,0,0,0,0-2,4,4,0,1,0,3.86,5H36v4.6a5,5,0,0,1-1.38,3.45L17,38.59,2.44,25,21,6.46A5,5,0,0,1,24.49,5H36V7a1,1,0,0,0,2,0V4a1,1,0,0,0-1-1H24.49a7,7,0,0,0-4.95,2.05L.29,24.29A1,1,0,0,0,0,25a1,1,0,0,0,.32.71l16,15a1,1,0,0,0,1.4,0L36.07,21.43A7,7,0,0,0,38,16.6V11.92A7,7,0,0,0,44,5Z"/></g></svg>