<svg xmlns="http://www.w3.org/2000/svg" viewBox="0 0 44 44"><defs><style>.cls-1{fill:#fff;}</style></defs><g id="fence"><circle class="cls-1" cx="9" cy="16" r="1"/><circle class="cls-1" cx="22" cy="16" r="1"/><circle class="cls-1" cx="35" cy="16" r="1"/><path class="cls-1" d="M43,19a1,1,0,0,0,0-2H40V15h3a1,1,0,0,0,0-2H40V9.4a5,5,0,0,0-1.1-3.12l-3.12-3.9a1,1,0,0,0-1.56,0L31.1,6.28A5,5,0,0,0,30,9.4V13H27V9.4a5,5,0,0,0-1.1-3.12l-3.12-3.9a1,1,0,0,0-1.56,0L18.1,6.28A5,5,0,0,0,17,9.4V13H14V9.4a5,5,0,0,0-1.1-3.12L9.78,2.38a1,1,0,0,0-1.56,0L5.1,6.28A5,5,0,0,0,4,9.4V13H1a1,1,0,0,0,0,2H4v2H1a1,1,0,0,0,0,2H4v8H1a1,1,0,0,0,0,2H4v2H1a1,1,0,0,0,0,2H4v8a1,1,0,0,0,1,1h8a1,1,0,0,0,1-1V33h3v8a1,1,0,0,0,1,1h2a1,1,0,0,0,0-2H19V9.4a3,3,0,0,1,.66-1.87L22,4.6l2.34,2.93A3,3,0,0,1,25,9.4V33a1,1,0,0,0,2,0h4a1,1,0,0,0,1-1V9.4a3,3,0,0,1,.66-1.87L35,4.6l2.34,2.93A3,3,0,0,1,38,9.4V30a1,1,0,0,0,2,0V29h3a1,1,0,0,0,0-2H40V19ZM17,15v2H14V15ZM12,40H6V9.4a3,3,0,0,1,.66-1.87L9,4.6l2.34,2.93A3,3,0,0,1,12,9.4V18a1,1,0,0,0,1,1h4v8H14V22a1,1,0,0,0-2,0V40Zm2-9V29h3v2ZM27,19h3v8H27Zm3-4v2H27V15ZM27,31V29h3v2Z"/><circle class="cls-1" cx="9" cy="30" r="1"/><circle class="cls-1" cx="22" cy="30" r="1"/><circle class="cls-1" cx="35" cy="30" r="1"/><path class="cls-1" d="M32.36,37.77A1,1,0,0,0,33,38a1,1,0,0,0,.77-.36C35.64,35.4,39.18,34,43,34a1,1,0,0,0,0-2,15,15,0,0,0-9.35,3H29a6,6,0,0,0-6,6,1,1,0,0,0,1,1H43a1,1,0,0,0,0-2H25.13A4,4,0,0,1,29,37h3A1,1,0,0,0,32.36,37.77Z"/></g></svg>