<svg xmlns="http://www.w3.org/2000/svg" viewBox="0 0 44 44"><defs><style>.cls-1{fill:#fff;}</style></defs><g id="wood"><circle class="cls-1" cx="11" cy="20" r="1"/><circle class="cls-1" cx="6" cy="30" r="1"/><circle class="cls-1" cx="16" cy="30" r="1"/><path class="cls-1" d="M38,24h-.53A6,6,0,0,0,39,19.41,6.17,6.17,0,0,0,32.79,14H28.06a3,3,0,0,1-2.44-1.26L22.41,8.26A3,3,0,0,0,20,7h-1.4a2.56,2.56,0,0,0-2.2,3.89L18.23,14H11A6,6,0,0,0,6.57,24,5.44,5.44,0,0,0,6,24,6,6,0,0,0,6,36H38a6,6,0,0,0,0-12ZM16,34a4,4,0,1,1,4-4A4,4,0,0,1,16,34Zm-4.46,0H10.46a7.12,7.12,0,0,0,.54-.69A7.12,7.12,0,0,0,11.54,34ZM11,26.69a6.43,6.43,0,0,0-.57-.72,5.43,5.43,0,0,0,1.14,0A6.43,6.43,0,0,0,11,26.69ZM2,30a4,4,0,1,1,4,4A4,4,0,0,1,2,30Zm36,4H20.46a5.87,5.87,0,0,0,1.19-2H29a1,1,0,0,0,0-2H22a6,6,0,0,0-6-6,5.44,5.44,0,0,0-.57,0A6,6,0,0,0,17,20h3a1,1,0,0,0,0-2H15.9a1,1,0,0,0-.77.37,1,1,0,0,0-.21.83A4.26,4.26,0,0,1,15,20a4,4,0,1,1-4-4h9a1,1,0,0,0,.86-1.51L18.08,9.86A.6.6,0,0,1,18,9.57.56.56,0,0,1,18.57,9H20a1,1,0,0,1,.81.42L24,13.91A5,5,0,0,0,28.06,16h4.73A4.14,4.14,0,0,1,37,19.6c0,.14,0,.27,0,.4H30a1,1,0,0,0,0,2h6.46a3.67,3.67,0,0,1-.5.69A4,4,0,0,1,33,24H23a1,1,0,0,0,0,2H38a4,4,0,0,1,2.62,1H32a1,1,0,0,0,0,2h9.86A4.09,4.09,0,0,1,42,30,4,4,0,0,1,38,34Z"/><path class="cls-1" d="M33.71,30.29a1.15,1.15,0,0,0-.33-.21,1,1,0,0,0-1.09.21,1,1,0,0,0-.21.33.94.94,0,0,0,0,.76,1.15,1.15,0,0,0,.21.33,1,1,0,0,0,1.42,0,1.15,1.15,0,0,0,.21-.33.94.94,0,0,0,0-.76A1,1,0,0,0,33.71,30.29Z"/><path class="cls-1" d="M23.29,19.71a1,1,0,0,0,1.09.21,1.15,1.15,0,0,0,.33-.21,1,1,0,0,0,.21-1.09,1.15,1.15,0,0,0-.21-.33,1,1,0,0,0-1.09-.21.9.9,0,0,0-.54.54.94.94,0,0,0,0,.76A1.15,1.15,0,0,0,23.29,19.71Z"/></g></svg>