<svg id="vending" xmlns="http://www.w3.org/2000/svg" viewBox="0 0 44 44"><defs><style>.cls-1{fill:#fff;}</style></defs><title>cws-icon-vending</title><circle class="cls-1" cx="30" cy="13" r="1"/><circle class="cls-1" cx="33" cy="13" r="1"/><circle class="cls-1" cx="30" cy="18" r="1"/><circle class="cls-1" cx="33" cy="18" r="1"/><circle class="cls-1" cx="30" cy="23" r="1"/><circle class="cls-1" cx="33" cy="23" r="1"/><path class="cls-1" d="M22,7H11a1,1,0,0,0,0,2H22a1,1,0,0,0,0-2Z"/><path class="cls-1" d="M22,12H11a1,1,0,0,0,0,2H22a1,1,0,0,0,0-2Z"/><path class="cls-1" d="M22,17H11a1,1,0,0,0,0,2H22a1,1,0,0,0,0-2Z"/><path class="cls-1" d="M22,22H11a1,1,0,0,0,0,2H22a1,1,0,0,0,0-2Z"/><path class="cls-1" d="M35,0H30a1,1,0,0,0,0,2h5a1,1,0,0,1,1,1V42H8V3A1,1,0,0,1,9,2H25V39a1,1,0,0,0,2,0V1a1,1,0,0,0-1-1H9A3,3,0,0,0,6,3V43a1,1,0,0,0,1,1H37a1,1,0,0,0,1-1V3A3,3,0,0,0,35,0Z"/><path class="cls-1" d="M33,7H30a1,1,0,0,0,0,2h3a1,1,0,0,0,0-2Z"/><path class="cls-1" d="M22,32H11a1,1,0,0,0-1,1v5a1,1,0,0,0,1,1H22a1,1,0,0,0,1-1V33A1,1,0,0,0,22,32Zm-1,5H12V34h9Z"/></svg>