<svg xmlns="http://www.w3.org/2000/svg" viewBox="0 0 44 44"><defs><style>.cls-1{fill:#fff;}</style></defs><g id="sphinx"><path class="cls-1" d="M20,9a1,1,0,1,0-1-1A1,1,0,0,0,20,9Z"/><path class="cls-1" d="M24,9a1,1,0,1,0-1-1A1,1,0,0,0,24,9Z"/><path class="cls-1" d="M4,34a1,1,0,0,0,1-1V28H25a1,1,0,0,0,0-2H5.64a2,2,0,0,1,1-.5L8.89,25a10.7,10.7,0,0,0,8-6.75A1,1,0,0,0,15,17.58,8.67,8.67,0,0,1,11.24,22,7,7,0,0,0,9.9,16.87l-.71-1L15,5.57V11a6,6,0,0,0,6,6h2a6,6,0,0,0,6-6V5.57l5.81,10.35-.71,1A7,7,0,0,0,32.76,22,8.67,8.67,0,0,1,29,17.58a1,1,0,0,0-1.88.71,10.7,10.7,0,0,0,8,6.75l2.28.46a2,2,0,0,1,1.61,2V33a1,1,0,0,0,2,0V27.46a4,4,0,0,0-3.22-3.92l-2.28-.46L35,22.94a1.22,1.22,0,0,0,0-.26,5,5,0,0,1,.75-4.61l1.1-1.47a1,1,0,0,0,.07-1.09L29.72,2.78A4,4,0,0,0,26.39,1H17.61a4,4,0,0,0-3.37,1.85L7.13,15.51A1,1,0,0,0,7.2,16.6l1.1,1.47a5,5,0,0,1,.75,4.61,1.22,1.22,0,0,0,0,.26l-.52.14-2.28.46A4,4,0,0,0,3,27.46V33A1,1,0,0,0,4,34ZM26,3h.39a2,2,0,0,1,.61.1V11a4,4,0,0,1-4,4H21a4,4,0,0,1-4-4V3.11A1.78,1.78,0,0,1,17.61,3H26Z"/><path class="cls-1" d="M41,36H35a3,3,0,0,0-3,3v2H12V39a3,3,0,0,0-3-3H3a3,3,0,0,0-3,3v3a1,1,0,0,0,1,1H43a1,1,0,0,0,1-1V39A3,3,0,0,0,41,36Zm-7,3a1,1,0,0,1,1-1h6a1,1,0,0,1,1,1v2H34ZM3,38H9a1,1,0,0,1,1,1v2H2V39A1,1,0,0,1,3,38Z"/><path class="cls-1" d="M17,32a1,1,0,0,0,1,1H35a1,1,0,0,0,0-2H18A1,1,0,0,0,17,32Z"/><path class="cls-1" d="M27,21H21a1,1,0,0,0,0,2h6a1,1,0,0,0,0-2Z"/></g></svg>