<svg xmlns="http://www.w3.org/2000/svg" viewBox="0 0 44 44"><defs><style>.cls-1{fill:#fff;}</style></defs><g id="hive"><path class="cls-1" d="M39.42,18A3.94,3.94,0,0,0,40,16a4,4,0,0,0-3.58-4A3.94,3.94,0,0,0,37,10a4,4,0,0,0-3.58-4A3.94,3.94,0,0,0,34,4a4,4,0,0,0-4-4H14a4,4,0,0,0,0,8H33a2,2,0,0,1,0,4H11a2,2,0,0,1-2-2,2,2,0,0,1,.67-1.49A1,1,0,1,0,8.33,7,4,4,0,0,0,7,10a3.94,3.94,0,0,0,.58,2A4,4,0,0,0,4,16a3.94,3.94,0,0,0,.58,2,4,4,0,0,0,0,7.92,3.94,3.94,0,0,0,.76,5,1,1,0,1,0,1.33-1.49A2,2,0,0,1,6,28a2,2,0,0,1,2-2H36a2,2,0,0,1,0,4H11a4,4,0,0,0-.42,8A3.94,3.94,0,0,0,10,40a4,4,0,0,0,4,4H30a4,4,0,0,0,0-8H11a2,2,0,0,1,0-4H33a2,2,0,0,1,2,2,2,2,0,0,1-.67,1.49A1,1,0,0,0,35,37.24a1,1,0,0,0,.67-.26A4,4,0,0,0,37,34a3.94,3.94,0,0,0-.58-2A4,4,0,0,0,40,28a3.94,3.94,0,0,0-.58-2,4,4,0,0,0,0-7.92ZM12,4a2,2,0,0,1,2-2H30a2,2,0,0,1,0,4H14A2,2,0,0,1,12,4ZM32,40a2,2,0,0,1-2,2H14a2,2,0,0,1,0-4H30A2,2,0,0,1,32,40ZM20,24V20a2,2,0,0,1,4,0v4Zm19,0H26V20a4,4,0,0,0-8,0v4H5a2,2,0,0,1,0-4H15a1,1,0,0,0,0-2H8a2,2,0,0,1,0-4H36a2,2,0,0,1,0,4H29a1,1,0,0,0,0,2H39a2,2,0,0,1,0,4Z"/><path class="cls-1" d="M43.71,7.29,42.41,6l.3-.29a1,1,0,1,0-1.42-1.42l-.29.3-.29-.3a1,1,0,0,0-1.42,1.42l.3.29-.3.29a1,1,0,0,0,0,1.42,1,1,0,0,0,1.42,0l.29-.3,1.29,1.3a1,1,0,0,0,1.42,0A1,1,0,0,0,43.71,7.29Z"/><path class="cls-1" d="M4.71,35.29a1,1,0,0,0-1.42,0l-.29.3-.29-.3a1,1,0,0,0-1.42,1.42l.3.29L.29,38.29a1,1,0,0,0,0,1.42,1,1,0,0,0,1.42,0L3,38.41l.29.3a1,1,0,0,0,1.42,0,1,1,0,0,0,0-1.42L4.41,37l.3-.29A1,1,0,0,0,4.71,35.29Z"/></g></svg>