<svg xmlns="http://www.w3.org/2000/svg" viewBox="0 0 44 44"><defs><style>.cls-1{fill:#fff;}</style></defs><g id="lion"><path class="cls-1" d="M28,8h0a10.53,10.53,0,0,0-6,1.73A10.53,10.53,0,0,0,16,8h0a1,1,0,0,0,0,2,8.21,8.21,0,0,1,5.34,1.75,1,1,0,0,0,1.32,0A8.21,8.21,0,0,1,28,10a1,1,0,0,0,0-2Z"/><path class="cls-1" d="M18,29h0a5.9,5.9,0,0,0,4-1.54A5.9,5.9,0,0,0,26,29h0a1,1,0,0,0,0-2,4,4,0,0,1-3-1.39V23.54l2.55-1.71A1,1,0,0,0,25,20H19a1,1,0,0,0-.55,1.83L21,23.54v2.07A4,4,0,0,1,18,27a1,1,0,0,0,0,2Z"/><circle class="cls-1" cx="27.2" cy="16" r="2"/><circle class="cls-1" cx="17.2" cy="16" r="2"/><path class="cls-1" d="M11.34,2.63A10.44,10.44,0,0,1,14.93,2H29.07a10.44,10.44,0,0,1,3.59.63,1,1,0,0,0,.34.06A1,1,0,0,0,33.34.75,12.43,12.43,0,0,0,29.07,0H14.93a12.39,12.39,0,0,0-4.27.75,1,1,0,1,0,.68,1.88Z"/><path class="cls-1" d="M44,8A5,5,0,0,0,34,8a1,1,0,0,0,2,0,3,3,0,1,1,4.51,2.59,1,1,0,0,0-.42,1.22l.21.55a10.6,10.6,0,0,1,.7,3.78v.73a4,4,0,0,1-2.2-1.47,1,1,0,0,0-1.6,1.2A5.94,5.94,0,0,0,41,18.91a20.16,20.16,0,0,1-.45,4A4,4,0,0,1,37.8,21.4a1,1,0,0,0-1.6,1.2A6,6,0,0,0,40,24.91,18.88,18.88,0,0,1,38.15,29H38a4,4,0,0,1-3.2-1.6,1,1,0,0,0-1.6,1.2,5.9,5.9,0,0,0,3.67,2.28c-.37.48-.76.94-1.18,1.39L34.07,34H34a4,4,0,0,1-3.2-1.6,1,1,0,1,0-1.6,1.2,6,6,0,0,0,3.2,2.18l-2.71,2.89c-.11.12-.23.22-.34.33H29a4,4,0,0,1-3.2-1.6,1,1,0,0,0-1.6,1.2,6,6,0,0,0,2.89,2.08,10.47,10.47,0,0,1-10.18,0A6,6,0,0,0,19.8,38.6a1,1,0,1,0-1.6-1.2A4,4,0,0,1,15,39h-.35c-.11-.11-.23-.21-.34-.33L11.6,35.78a6,6,0,0,0,3.2-2.18,1,1,0,1,0-1.6-1.2A4,4,0,0,1,10,34H9.93L8.31,32.27c-.42-.45-.81-.91-1.18-1.39A5.9,5.9,0,0,0,10.8,28.6a1,1,0,0,0-1.6-1.2A4,4,0,0,1,6,29H5.85A18.88,18.88,0,0,1,4,24.91,6,6,0,0,0,7.8,22.6a1,1,0,1,0-1.6-1.2A4,4,0,0,1,3.45,23a20.16,20.16,0,0,1-.45-4A5.94,5.94,0,0,0,6.8,16.6a1,1,0,0,0-1.6-1.2A4,4,0,0,1,3,16.87v-.73a10.6,10.6,0,0,1,.7-3.78l.19-.49a1,1,0,0,0-.1-1,1,1,0,0,0-.35-.31A3,3,0,1,1,8,8a1,1,0,0,0,2,0,5,5,0,1,0-8.23,3.82A12.49,12.49,0,0,0,1,16.14v2.7a21.59,21.59,0,0,0,5.85,14.8l6,6.4a12.55,12.55,0,0,0,18.3,0l6-6.4A21.59,21.59,0,0,0,43,18.84v-2.7a12.45,12.45,0,0,0-.77-4.32A5,5,0,0,0,44,8Z"/><path class="cls-1" d="M11,12.16a1,1,0,0,0-2-.32l-.56,3.4a9,9,0,0,0,.83,5.56L13.87,30a9.09,9.09,0,0,0,16.26,0l4.59-9.18a9,9,0,0,0,.83-5.56L35,11.84a1,1,0,0,0-2,.32l.57,3.41a7.07,7.07,0,0,1-.65,4.34l-4.59,9.17a7.09,7.09,0,0,1-12.68,0l-4.59-9.17a7.07,7.07,0,0,1-.65-4.34Z"/></g></svg>