<svg xmlns="http://www.w3.org/2000/svg" viewBox="0 0 44 44"><defs><style>.cls-1{fill:#fff;}</style></defs><title>cws-icon-lamp</title><g id="lamp"><circle class="cls-1" cx="14" cy="35" r="1"/><path class="cls-1" d="M35.68,35.09,30.44,23.74A3,3,0,0,0,27.72,22h-2l-.32-.95A3,3,0,0,0,23,19V6h.44a3,3,0,0,0,2.91-2.27L26.78,2H31a1,1,0,0,0,0-2H13a1,1,0,0,0,0,2h4.22l.43,1.73A3,3,0,0,0,20.56,6H21V19a3,3,0,0,0-2.4,2l-.32.95h-2a3,3,0,0,0-2.72,1.74L8.32,35.09A3.46,3.46,0,0,0,11.46,40H17.1A5,5,0,0,0,27,39a1,1,0,0,0-1-1H11.46A1.46,1.46,0,0,1,10,36.54a1.59,1.59,0,0,1,.13-.61l5.24-11.35a1,1,0,0,1,.91-.58H27.72a1,1,0,0,1,.91.58l5.24,11.35a1.59,1.59,0,0,1,.13.61A1.47,1.47,0,0,1,32.54,38H30a1,1,0,0,0,0,2h2.54a3.46,3.46,0,0,0,3.14-4.91ZM19.59,3.24,19.28,2h5.44l-.31,1.24a1,1,0,0,1-1,.76H20.56A1,1,0,0,1,19.59,3.24ZM24.83,40a3,3,0,0,1-5.66,0ZM20.49,21.68a1,1,0,0,1,1-.68h1.12a1,1,0,0,1,1,.68l.1.32H20.39Z"/><path class="cls-1" d="M15.93,32.37l2-5a1,1,0,0,0-1.86-.74l-2,5a1,1,0,0,0,.56,1.3A1,1,0,0,0,15,33,1,1,0,0,0,15.93,32.37Z"/></g></svg>