<svg id="Livello_1" data-name="Livello 1" xmlns="http://www.w3.org/2000/svg" viewBox="0 0 841.89 595.28"><defs><style>.cls-1{fill:none;}.cls-2{fill:#fff;}</style></defs><title>cws-logo-partner-extra-lever</title><rect class="cls-1" width="841.89" height="595.28"/><path class="cls-2" d="M51.43,115.39A22.72,22.72,0,1,1,28.71,92.68,22.72,22.72,0,0,1,51.43,115.39Z"/><path class="cls-2" d="M142.3,115.39a22.72,22.72,0,1,1-22.72-22.71A22.72,22.72,0,0,1,142.3,115.39Z"/><path class="cls-2" d="M233.16,115.39a22.72,22.72,0,1,1-22.72-22.71A22.72,22.72,0,0,1,233.16,115.39Z"/><path class="cls-2" d="M324,115.39a22.72,22.72,0,1,1-22.71-22.71A22.71,22.71,0,0,1,324,115.39Z"/><path class="cls-2" d="M414.89,115.39a22.72,22.72,0,1,1-22.72-22.71A22.72,22.72,0,0,1,414.89,115.39Z"/><path class="cls-2" d="M51.43,206.25a22.72,22.72,0,1,1-22.72-22.71A22.72,22.72,0,0,1,51.43,206.25Z"/><path class="cls-2" d="M142.3,206.25a22.72,22.72,0,1,1-22.72-22.71A22.72,22.72,0,0,1,142.3,206.25Z"/><path class="cls-2" d="M233.16,206.25a22.72,22.72,0,1,1-22.72-22.71A22.72,22.72,0,0,1,233.16,206.25Z"/><path class="cls-2" d="M324,206.25a22.72,22.72,0,1,1-22.71-22.71A22.71,22.71,0,0,1,324,206.25Z"/><path class="cls-2" d="M414.89,206.25a22.72,22.72,0,1,1-22.72-22.71A22.72,22.72,0,0,1,414.89,206.25Z"/><path class="cls-2" d="M51.43,297.11A22.72,22.72,0,1,1,28.71,274.4,22.72,22.72,0,0,1,51.43,297.11Z"/><path class="cls-2" d="M142.3,297.11a22.72,22.72,0,1,1-22.72-22.71A22.72,22.72,0,0,1,142.3,297.11Z"/><path class="cls-2" d="M233.16,297.11a22.72,22.72,0,1,1-22.72-22.71A22.72,22.72,0,0,1,233.16,297.11Z"/><path class="cls-2" d="M324,297.11a22.72,22.72,0,1,1-22.71-22.71A22.71,22.71,0,0,1,324,297.11Z"/><path class="cls-2" d="M414.89,297.11a22.72,22.72,0,1,1-22.72-22.71A22.72,22.72,0,0,1,414.89,297.11Z"/><path class="cls-2" d="M411.27,473.17c0,6.79-3.32,12.54-8.38,15.24l9.7,14.19H398.46l-7.06-11.7h-8.31v11.7H371.73V455.52h22.78C404.07,455.52,411.27,462.93,411.27,473.17Zm-28.18-7.12v14.33h9.76a7.17,7.17,0,0,0,.07-14.33Z"/><path class="cls-2" d="M319.32,455.52V466H294.6v8.1h20.64V484H294.6v8.1h24.72V502.6H283.25V455.52Z"/><path class="cls-2" d="M46.7,364.52V375H22v8.11H42.61V393H22v8.1H46.7V411.6H10.62V364.52Z"/><path class="cls-2" d="M137.57,455.52V466H112.85v8.1h20.64V484H112.85v8.1h24.72V502.6H101.5V455.52Z"/><path class="cls-2" d="M95.4,404.09l15.79-15.58L94.58,371.75l8.1-8.1,16.61,16.76,17.11-16.76,8.1,8-17.25,17L143,404.3l-8.23,8.17-15.52-15.79L103.5,412.33Z"/><path class="cls-2" d="M232.91,375H216.22V411.6H204.73V375H188V364.52h44.87Z"/><path class="cls-2" d="M320.4,382.18c0,6.78-3.32,12.53-8.38,15.23l9.69,14.19H307.59l-7.06-11.7h-8.31v11.7H280.86V364.52h22.78C313.2,364.52,320.4,371.93,320.4,382.18Zm-28.18-7.13v14.33H302a7.17,7.17,0,0,0,.07-14.33Z"/><path class="cls-2" d="M403.52,404.26H380.81l-3.12,7.34H365.64l20.15-47.08h12.67l20.22,47.08H406.56ZM399.57,395l-7.34-17.59L384.75,395Z"/><path class="cls-2" d="M22,492.08H46.7V502.6H10.62V455.52H22Z"/><path class="cls-2" d="M216.67,502.6H204.21l-20.84-47.08H195.9l14.61,33.65,14.54-33.65h12.53Z"/></svg>