<svg xmlns="http://www.w3.org/2000/svg" viewBox="0 0 44 44"><defs><style>.cls-1{fill:#fff;}</style></defs><title>cws-icon-radiator</title><g id="radiator"><path class="cls-1" d="M43.5,5.94,42.39,4.28a2.87,2.87,0,0,0-4.78,0L36.5,5.94A3,3,0,0,0,36,7.61V8a1,1,0,0,1-2,0V7.61a3,3,0,0,0-.5-1.67L32.39,4.28a2.87,2.87,0,0,0-4.78,0L26.5,5.94A3,3,0,0,0,26,7.61V8a1,1,0,0,1-2,0V7.61a3,3,0,0,0-.5-1.67L22.39,4.28a2.87,2.87,0,0,0-4.78,0L16.5,5.94A3,3,0,0,0,16,7.61V8a1,1,0,0,1-2,0V7.61a3,3,0,0,0-.5-1.67L12.39,4.28a2.87,2.87,0,0,0-4.78,0L6.5,5.94A3,3,0,0,0,6,7.61V9.28l-1.37.46A2.38,2.38,0,0,0,3.22,11H1a1,1,0,0,0,0,2H3.22a2.38,2.38,0,0,0,1.41,1.26L6,14.72V26a1,1,0,0,0,2,0V7.61a1,1,0,0,1,.17-.56L9.28,5.39a.89.89,0,0,1,1.44,0l1.11,1.66a1,1,0,0,1,.17.56V8a3,3,0,0,0,6,0V7.61a1,1,0,0,1,.17-.56l1.11-1.66a.89.89,0,0,1,1.44,0l1.11,1.66a1,1,0,0,1,.17.56V8a3,3,0,0,0,6,0V7.61a1,1,0,0,1,.17-.56l1.11-1.66a.89.89,0,0,1,1.44,0l1.11,1.66a1,1,0,0,1,.17.56V8a3,3,0,0,0,6,0V7.61a1,1,0,0,1,.17-.56l1.11-1.66a.89.89,0,0,1,1.44,0l1.11,1.66a1,1,0,0,1,.17.56V36.39a1,1,0,0,1-.17.56l-1.11,1.66a.89.89,0,0,1-1.44,0L38.17,37a1,1,0,0,1-.17-.56V36a3,3,0,0,0-6,0v.39a1,1,0,0,1-.17.56l-1.11,1.66a.89.89,0,0,1-1.44,0L28.17,37a1,1,0,0,1-.17-.56V36a3,3,0,0,0-6,0v.39a1,1,0,0,1-.17.56l-1.11,1.66a.89.89,0,0,1-1.44,0L18.17,37a1,1,0,0,1-.17-.56V36a3,3,0,0,0-6,0v.39a1,1,0,0,1-.17.56l-1.11,1.66a.89.89,0,0,1-1.44,0L8.17,37A1,1,0,0,1,8,36.39V30a1,1,0,0,0-.42-.81,1,1,0,0,0-.9-.14l-2,.69A2.38,2.38,0,0,0,3.22,31H1a1,1,0,0,0,0,2H3.22a2.35,2.35,0,0,0,1.41,1.26L6,34.72v1.67a3,3,0,0,0,.5,1.67l1.11,1.66a2.87,2.87,0,0,0,4.78,0l1.11-1.66a3,3,0,0,0,.5-1.67V36a1,1,0,0,1,2,0v.39a3,3,0,0,0,.5,1.67l1.11,1.66a2.87,2.87,0,0,0,4.78,0l1.11-1.66a3,3,0,0,0,.5-1.67V36a1,1,0,0,1,2,0v.39a3,3,0,0,0,.5,1.67l1.11,1.66a2.87,2.87,0,0,0,4.78,0l1.11-1.66a3,3,0,0,0,.5-1.67V36a1,1,0,0,1,2,0v.39a3,3,0,0,0,.5,1.67l1.11,1.66a2.87,2.87,0,0,0,4.78,0l1.11-1.66a3,3,0,0,0,.5-1.67V7.61A3,3,0,0,0,43.5,5.94ZM5.27,12.37A.4.4,0,0,1,5,12a.4.4,0,0,1,.26-.37L6,11.39v1.22ZM6,32.61l-.74-.24A.39.39,0,0,1,5,32a.4.4,0,0,1,.26-.37L6,31.39Z"/><path class="cls-1" d="M33,12a1,1,0,0,0-1,1V31a1,1,0,0,0,2,0v-.18a2.87,2.87,0,0,0,2,0V31a1,1,0,0,0,2,0V13a1,1,0,0,0-2,0v.18a2.87,2.87,0,0,0-2,0V13A1,1,0,0,0,33,12Zm2,3a1,1,0,0,1,1,1V28a1,1,0,0,1-2,0V16A1,1,0,0,1,35,15Z"/><path class="cls-1" d="M23,12a1,1,0,0,0-1,1V31a1,1,0,0,0,2,0v-.18a2.87,2.87,0,0,0,2,0V31a1,1,0,0,0,2,0V13a1,1,0,0,0-2,0v.18a2.87,2.87,0,0,0-2,0V13A1,1,0,0,0,23,12Zm2,3a1,1,0,0,1,1,1V28a1,1,0,0,1-2,0V16A1,1,0,0,1,25,15Z"/><path class="cls-1" d="M13,12a1,1,0,0,0-1,1V31a1,1,0,0,0,2,0v-.18a2.87,2.87,0,0,0,2,0V31a1,1,0,0,0,2,0V13a1,1,0,0,0-2,0v.18a2.87,2.87,0,0,0-2,0V13A1,1,0,0,0,13,12Zm2,3a1,1,0,0,1,1,1V28a1,1,0,0,1-2,0V16A1,1,0,0,1,15,15Z"/></g></svg>