<svg xmlns="http://www.w3.org/2000/svg" viewBox="0 0 44 44"><defs><style>.cls-1{fill:#fff;}</style></defs><title>cws-icon-bath</title><g id="bath"><path class="cls-1" d="M6,21a1,1,0,0,0,0,2H26V33a1,1,0,0,0,1,1h8a1,1,0,0,0,1-1V27h2a1,1,0,0,0,0-2H36V22a3,3,0,0,0-3-3H25a3,3,0,0,0-2.82,2Zm28,1V32H28V22a3,3,0,0,0-.18-1H33A1,1,0,0,1,34,22Z"/><path class="cls-1" d="M6,25a1,1,0,0,0,0,2H23a1,1,0,0,0,0-2Z"/><path class="cls-1" d="M43,21H39a1,1,0,0,0,0,2h2a25.87,25.87,0,0,1-1.13,6.59l-2.37,9.7a1,1,0,0,1-1,.71h-29a1,1,0,0,1-.94-.65L4.13,29.53A25.64,25.64,0,0,1,3,22V5A2,2,0,0,1,5,3h5a2,2,0,0,1,2,1.62L10.29,6.29a1,1,0,0,0-.21,1.09A1,1,0,0,0,11,8h4a1,1,0,0,0,.92-.62,1,1,0,0,0-.21-1.09L14,4.56A4,4,0,0,0,10,1H5A4,4,0,0,0,1,5V21a1,1,0,0,0,0,2H1a27,27,0,0,0,1.17,7.06l2.4,9.82A3,3,0,0,0,7.48,42H8a1,1,0,0,0,1,1h4a1,1,0,0,0,1-1H30a1,1,0,0,0,1,1h4a1,1,0,0,0,1-1h.52a3,3,0,0,0,2.89-2.17l2.37-9.71A27.41,27.41,0,0,0,43,23h0a1,1,0,0,0,0-2Z"/></g></svg>