<svg xmlns="http://www.w3.org/2000/svg" viewBox="0 0 44 44"><defs><style>.cls-1{fill:#fff;}</style></defs><title>cws-icon-armchair</title><g id="armchair"><circle class="cls-1" cx="25" cy="17" r="1"/><circle class="cls-1" cx="29" cy="17" r="1"/><circle class="cls-1" cx="25" cy="21" r="1"/><circle class="cls-1" cx="29" cy="21" r="1"/><path class="cls-1" d="M36,29H18a3,3,0,0,0-3,3v4a1,1,0,0,0,1,1H38a1,1,0,0,0,1-1V32A3,3,0,0,0,36,29Zm1,6H17V32a1,1,0,0,1,1-1H36a1,1,0,0,1,1,1Z"/><path class="cls-1" d="M41,20H39V13a3,3,0,0,0-3-3H18a3,3,0,0,0-3,3v7H13a3,3,0,0,0-3,3V40a3,3,0,0,0,3,3h2a1,1,0,0,0,1,1h4a1,1,0,0,0,1-1H33a1,1,0,0,0,1,1h4a1,1,0,0,0,1-1h2a3,3,0,0,0,3-3V23A3,3,0,0,0,41,20Zm1,20a1,1,0,0,1-1,1H13a1,1,0,0,1-1-1V23a1,1,0,0,1,1-1h3a1,1,0,0,1,1,1v3a1,1,0,0,0,2,0V23a3,3,0,0,0-2-2.83A.53.53,0,0,0,17,20V13a1,1,0,0,1,1-1H36a1,1,0,0,1,1,1v7.18A3,3,0,0,0,35,23v3a1,1,0,0,0,2,0V23a1,1,0,0,1,1-1h3a1,1,0,0,1,1,1Z"/><path class="cls-1" d="M9,42a1.43,1.43,0,0,1-1-.41L7.41,41A3.18,3.18,0,0,0,6,40.19V16H7.09A2.91,2.91,0,0,0,10,13.09a2.62,2.62,0,0,0,0-.28L9,2.9A1,1,0,0,0,8,2H6V1A1,1,0,0,0,4,1V2H2a1,1,0,0,0-1,.9L0,12.81a2.62,2.62,0,0,0,0,.28A2.91,2.91,0,0,0,2.91,16H4V40.19A3.18,3.18,0,0,0,2.59,41L2,41.59A1.43,1.43,0,0,1,1,42a1,1,0,0,0,0,2,3.36,3.36,0,0,0,2.41-1L4,42.41a1.48,1.48,0,0,1,2,0l.59.59A3.36,3.36,0,0,0,9,44a1,1,0,0,0,0-2ZM2,13l.9-9H7.1L8,13v.08a.91.91,0,0,1-.91.91H2.91A.94.94,0,0,1,2,13Z"/></g></svg>