<svg xmlns="http://www.w3.org/2000/svg" viewBox="0 0 44 44"><defs><style>.cls-1{fill:#fffafc;}</style></defs><g id="wind"><path class="cls-1" d="M31,24H1a1,1,0,0,0,0,2H31a4,4,0,1,1-4,4,1,1,0,0,0-2,0,6,6,0,1,0,6-6Z"/><path class="cls-1" d="M6,18H23a5,5,0,1,0-5-5,1,1,0,0,0,2,0,3,3,0,1,1,3,3H6a1,1,0,0,0,0,2Z"/><path class="cls-1" d="M37,8a7,7,0,0,0-7,7,1,1,0,0,0,2,0,5,5,0,1,1,5,5H1a1,1,0,0,0,0,2H37A7,7,0,0,0,37,8Z"/><path class="cls-1" d="M19,28H4a1,1,0,0,0,0,2H19a2,2,0,0,1,0,4,1,1,0,0,0,0,2,4,4,0,0,0,0-8Z"/><path class="cls-1" d="M9,14h4a3,3,0,0,0,0-6,1,1,0,0,0,0,2,1,1,0,0,1,0,2H9a1,1,0,0,0,0,2Z"/><path class="cls-1" d="M13,32H9a1,1,0,0,0,0,2h4a1,1,0,0,1,1,1,1,1,0,0,0,2,0A3,3,0,0,0,13,32Z"/></g></svg>