<svg xmlns="http://www.w3.org/2000/svg" viewBox="0 0 44 44"><defs><style>.cls-1{fill:#fff;}</style></defs><title>cws-icon-car</title><g id="car"><circle class="cls-1" cx="10" cy="30" r="1"/><circle class="cls-1" cx="34" cy="30" r="1"/><circle class="cls-1" cx="22" cy="22" r="1"/><path class="cls-1" d="M40,18.38l-5-1A5.05,5.05,0,0,1,32.42,16l-5.25-5.25A5.93,5.93,0,0,0,22.93,9H13.5a6,6,0,0,0-4.8,2.4l-2.25,3a1,1,0,1,0,1.6,1.2l2.25-3A4,4,0,0,1,13.5,11h9.43a4,4,0,0,1,2.83,1.17L31,17.42a7.07,7.07,0,0,0,3.57,1.92l5,1A3,3,0,0,1,42,23.28V28a1,1,0,0,1-1,1H38.9a5,5,0,0,0-9.8,0H19V19h9a1,1,0,0,0,0-2H19V13a1,1,0,0,0-2,0v4H3a3,3,0,0,0-3,3v6a5,5,0,0,0,5,5h.1a5,5,0,1,0,0-2H5a3,3,0,0,1-3-3V20a1,1,0,0,1,1-1H17V30a1,1,0,0,0,1,1H29.1a5,5,0,0,0,9.8,0H41a3,3,0,0,0,3-3V23.28A5,5,0,0,0,40,18.38ZM10,27a3,3,0,1,1-3,3A3,3,0,0,1,10,27Zm24,6a3,3,0,1,1,3-3A3,3,0,0,1,34,33Z"/></g></svg>