<svg xmlns="http://www.w3.org/2000/svg" viewBox="0 0 64 56"><defs><style>.cls-1{fill:#fff;}</style></defs><g id="scarf"><circle class="cls-1" cx="15.03" cy="14.61" r="1"/><circle class="cls-1" cx="15.03" cy="17.61" r="1"/><circle class="cls-1" cx="15.03" cy="20.61" r="1"/><circle class="cls-1" cx="45.03" cy="40.61" r="1"/><circle class="cls-1" cx="45.03" cy="43.61" r="1"/><circle class="cls-1" cx="45.03" cy="46.61" r="1"/><path class="cls-1" d="M51,41.61a1,1,0,0,0,0-2H49v-1h2a1,1,0,0,0,0-2H42a1,1,0,0,0,0,2h5v10H26a3,3,0,0,1,0-6h9a4,4,0,0,0,4-4v-5a1,1,0,0,0-2,0v1.56a3.91,3.91,0,0,0-2-.56H19a2,2,0,0,1,0-4H41a4,4,0,0,0,4-4v-12a4,4,0,0,0-4-4H9a1,1,0,0,0,0,2h2v1H9a1,1,0,0,0,0,2h2v1H9a1,1,0,0,0,0,2h2v1H9a1,1,0,0,0,0,2h2v1H9a1,1,0,0,0,0,2H41a2,2,0,0,1,0,4H19a3.91,3.91,0,0,0-2,.56V27.61a1,1,0,0,0-2,0v5a4,4,0,0,0,4,4H35a2,2,0,0,1,0,4H26a4.92,4.92,0,0,0-3,1v-2a1,1,0,0,0-2,0v6a5,5,0,0,0,5,5H51a1,1,0,0,0,0-2H49v-1h2a1,1,0,0,0,0-2H49v-1h2a1,1,0,0,0,0-2H49v-1Zm-10-19H13v-10H41a2,2,0,0,1,2,2v8.56A3.91,3.91,0,0,0,41,22.61Z"/></g></svg>