<svg xmlns="http://www.w3.org/2000/svg" viewBox="0 0 44 44"><defs><style>.cls-1{fill:#fffafc;}</style></defs><g id="rain"><path class="cls-1" d="M11,11.74A1,1,0,0,0,11.74,13L12,13a1,1,0,0,0,1-.74A4.26,4.26,0,0,1,17,9a1,1,0,0,0,0-2A6.27,6.27,0,0,0,11,11.74Z"/><path class="cls-1" d="M41.6,20.2a1,1,0,0,0-1.2,1.6A4,4,0,0,1,42,25a4,4,0,0,1-4,4H34a1,1,0,0,0,0,2h4a6,6,0,0,0,6-6A5.94,5.94,0,0,0,41.6,20.2Z"/><path class="cls-1" d="M33.57,22.42a1,1,0,0,0-.48,1.34,1,1,0,0,0,.91.57,1,1,0,0,0,.43-.1A8,8,0,0,0,32.14,9.08a1,1,0,1,0-.28,2,6,6,0,0,1,1.71,11.36Z"/><path class="cls-1" d="M10,29H8a6,6,0,1,1,4.92-9.43,1,1,0,0,0,1.65-1.14A8,8,0,1,0,8,31h2a1,1,0,0,0,0-2Z"/><path class="cls-1" d="M7.14,13a1,1,0,0,0,1.24-.69A10,10,0,0,1,28,15a1,1,0,0,0,2,0A12,12,0,0,0,6.45,11.73,1,1,0,0,0,7.14,13Z"/><path class="cls-1" d="M31.33,27.06a1,1,0,0,0-1.27.61l-2.8,8a1,1,0,0,0,.61,1.27,1,1,0,0,0,.33.06,1,1,0,0,0,.94-.67l2.8-8A1,1,0,0,0,31.33,27.06Z"/><path class="cls-1" d="M27.32,27.05a1,1,0,0,0-1.27.63l-4,12A1,1,0,0,0,22.68,41,1.25,1.25,0,0,0,23,41a1,1,0,0,0,.95-.68l4-12A1,1,0,0,0,27.32,27.05Z"/><path class="cls-1" d="M23.32,27.05a1,1,0,0,0-1.27.63l-4,12A1,1,0,0,0,18.68,41,1.25,1.25,0,0,0,19,41a1,1,0,0,0,.95-.68l4-12A1,1,0,0,0,23.32,27.05Z"/><path class="cls-1" d="M19.32,27.05a1,1,0,0,0-1.27.63l-4,12A1,1,0,0,0,14.68,41,1.25,1.25,0,0,0,15,41a1,1,0,0,0,.95-.68l4-12A1,1,0,0,0,19.32,27.05Z"/><path class="cls-1" d="M15.33,27.06a1,1,0,0,0-1.27.61l-2.8,8a1,1,0,0,0,.61,1.27,1,1,0,0,0,.33.06,1,1,0,0,0,.94-.67l2.8-8A1,1,0,0,0,15.33,27.06Z"/></g></svg>