<svg xmlns="http://www.w3.org/2000/svg" viewBox="0 0 44 44"><defs><style>.cls-1{fill:#fff;}</style></defs><title>cws-icon-antenna</title><g id="antenna"><path class="cls-1" d="M35,10a11.25,11.25,0,0,1-3.68,8.27,1,1,0,0,0-.05,1.41,1,1,0,0,0,1.41.05,13.12,13.12,0,0,0,0-19.46,1,1,0,0,0-1.41,0,1,1,0,0,0,.05,1.41A11.25,11.25,0,0,1,35,10Z"/><path class="cls-1" d="M27.36,15.23a1,1,0,0,0-.13,1.41A1,1,0,0,0,28,17a1,1,0,0,0,.64-.23A8.75,8.75,0,0,0,32,10a8.75,8.75,0,0,0-3.36-6.77,1,1,0,1,0-1.28,1.54A6.8,6.8,0,0,1,30,10,6.8,6.8,0,0,1,27.36,15.23Z"/><path class="cls-1" d="M12,20a1,1,0,0,0,.73-.32,1,1,0,0,0-.05-1.41A11.25,11.25,0,0,1,9,10a11.25,11.25,0,0,1,3.68-8.27A1,1,0,0,0,12.73.32a1,1,0,0,0-1.41,0,13.12,13.12,0,0,0,0,19.46A1,1,0,0,0,12,20Z"/><path class="cls-1" d="M15.36,16.77A1,1,0,0,0,16,17a1,1,0,0,0,.77-.36,1,1,0,0,0-.13-1.41A6.8,6.8,0,0,1,14,10a6.8,6.8,0,0,1,2.64-5.23,1,1,0,0,0-1.28-1.54A8.75,8.75,0,0,0,12,10,8.75,8.75,0,0,0,15.36,16.77Z"/><path class="cls-1" d="M34.29,40.88A3,3,0,0,0,32.17,40h-.45L24,16.68A1,1,0,0,0,23,16V13.86a4,4,0,1,0-2,0V16a1,1,0,0,0-.95.68L12.28,40h-.45a3,3,0,0,0-2.12.88L8.29,42.29a1,1,0,0,0,1.42,1.42l1.41-1.42a1,1,0,0,1,.71-.29H32.17a1,1,0,0,1,.71.29l1.41,1.42a1,1,0,0,0,1.42,0,1,1,0,0,0,0-1.42ZM20,10a2,2,0,1,1,2,2A2,2,0,0,1,20,10Zm1.72,8h.56l2.33,7H21a1,1,0,0,0,0,2h4.28l.08.24,0,0-3.46,3.18-3.22-3.21ZM15.28,40l4.46-4.86a1,1,0,0,0-1.48-1.35l-2.83,3.09,2.51-7.53L28.59,40Zm8-8.14,2.78-2.55,2.66,8Z"/></g></svg>