<svg xmlns="http://www.w3.org/2000/svg" viewBox="0 0 44 44"><defs><style>.cls-1{fill:#fff;}</style></defs><g id="bear"><path class="cls-1" d="M16.51,27.13A4.54,4.54,0,0,0,14,31a1,1,0,0,0,1,1h0a1,1,0,0,0,1-1,2.55,2.55,0,0,1,1.49-2.13A4.55,4.55,0,0,0,20,25h0V22a3,3,0,0,0-3-3H16a2,2,0,1,0,1.9,2.58A1,1,0,0,1,18,22v3A2.56,2.56,0,0,1,16.51,27.13Z"/><path class="cls-1" d="M19,36a1,1,0,0,0,0,2h0a4.2,4.2,0,0,0,3-1.35A4.2,4.2,0,0,0,25,38h0a1,1,0,0,0,0-2,2.46,2.46,0,0,1-2-1.31v-.16l2.55-1.7A1,1,0,0,0,25,31H19a1,1,0,0,0-.55,1.83L21,34.53v.16A2.46,2.46,0,0,1,19,36Z"/><path class="cls-1" d="M26.1,21.58A2,2,0,1,0,28,19H27a3,3,0,0,0-3,3v3h0a4.55,4.55,0,0,0,2.51,3.87A2.55,2.55,0,0,1,28,31a1,1,0,0,0,1,1h0a1,1,0,0,0,1-1,4.54,4.54,0,0,0-2.51-3.87A2.56,2.56,0,0,1,26,25V22A1,1,0,0,1,26.1,21.58Z"/><path class="cls-1" d="M21.34,16.75a1,1,0,0,0,.17.1l.11.07A1,1,0,0,0,22,17h0a1,1,0,0,0,.38-.08l.11-.07a1,1,0,0,0,.17-.1A8.21,8.21,0,0,1,28,15a1,1,0,0,0,0-2h0a10.53,10.53,0,0,0-6,1.73A10.53,10.53,0,0,0,16,13h0a1,1,0,0,0,0,2A8.21,8.21,0,0,1,21.34,16.75Z"/><path class="cls-1" d="M40.47,17.59,39.15,16a2.38,2.38,0,0,1,.28-3l.66-.66A10,10,0,0,0,43,5.23a5.14,5.14,0,0,0-.89-2.87A5.29,5.29,0,0,0,37.7,0h0a8.4,8.4,0,0,0-5.4,2,1,1,0,0,0-.13,1.4,1,1,0,0,0,1.41.13A6.46,6.46,0,0,1,37.7,2h0a3.32,3.32,0,0,1,2.77,1.52A3.13,3.13,0,0,1,41,5.3a8,8,0,0,1-2.32,5.61l-.66.66a4.39,4.39,0,0,0-.46,5.64l1.37,1.65A9,9,0,0,1,41,24.6l-.13,5a7,7,0,0,1-3.22,5.89l-7.08,4.55A12.12,12.12,0,0,1,24,42H19.72a12.12,12.12,0,0,1-6.56-1.93L6.08,35.52C4.07,34.23,3,30,3,27.63v-3a9,9,0,0,1,2.07-5.74l1.42-1.73A4.37,4.37,0,0,0,6,11.57l-.67-.66A8.06,8.06,0,0,1,3,5.23a3.08,3.08,0,0,1,.56-1.76A3.27,3.27,0,0,1,6.3,2h0a6.45,6.45,0,0,1,4.12,1.49A1,1,0,1,0,11.71,2,8.4,8.4,0,0,0,6.3,0h0A5.33,5.33,0,0,0,1.85,2.41,5.19,5.19,0,0,0,1,5.3a10,10,0,0,0,2.91,7l.66.66a2.36,2.36,0,0,1,.33,2.95L3.53,17.59A11,11,0,0,0,1,24.6v3c0,3.08,1.41,7.91,4,9.57l7.08,4.55A14.12,14.12,0,0,0,19.72,44H24a14.07,14.07,0,0,0,7.64-2.25l7.08-4.55a9,9,0,0,0,4.14-7.57l.13-5A11,11,0,0,0,40.47,17.59Z"/><path class="cls-1" d="M38,6a1,1,0,0,0,2,0,3,3,0,0,0-3-3,1,1,0,0,0,0,2A1,1,0,0,1,38,6Z"/><path class="cls-1" d="M10.21,8.2a1,1,0,0,0,.26,1.39,1,1,0,0,0,.56.18,1,1,0,0,0,.83-.44,12.3,12.3,0,0,1,20.28,0,1,1,0,0,0,.83.44,1,1,0,0,0,.56-.18,1,1,0,0,0,.26-1.39,14,14,0,0,0-3.54-3.58,14.3,14.3,0,0,0-16.5,0A14,14,0,0,0,10.21,8.2Z"/><path class="cls-1" d="M4,6A1,1,0,0,0,6,6,1,1,0,0,1,7,5,1,1,0,0,0,7,3,3,3,0,0,0,4,6Z"/></g></svg>