<svg id="Layer_1" data-name="Layer 1" xmlns="http://www.w3.org/2000/svg" viewBox="0 0 300 53"><defs><style>.cls-1{fill:none;}.cls-2{fill:#fff;}</style></defs><title>cws-logo-liferay-300x53</title><rect class="cls-1" y="0.21" width="300" height="53"/><rect class="cls-2" x="110.34" y="8.64" width="0.57" height="37.33"/><path class="cls-2" d="M121.15,23.15a3.83,3.83,0,0,0,1,.67,3,3,0,0,0,1.23.25,1.79,1.79,0,0,0,1.11-.3,1,1,0,0,0,.39-.8,1,1,0,0,0-.09-.45,1.07,1.07,0,0,0-.25-.31,1.84,1.84,0,0,0-.39-.24l-.48-.22-.92-.36a4.75,4.75,0,0,1-.72-.32,2.85,2.85,0,0,1-.58-.41,1.9,1.9,0,0,1-.4-.54,1.6,1.6,0,0,1-.15-.7,1.87,1.87,0,0,1,.19-.82,2,2,0,0,1,.54-.63,2.56,2.56,0,0,1,.81-.4,3.31,3.31,0,0,1,1-.15,3.46,3.46,0,0,1,1.42.27,4.06,4.06,0,0,1,1,.61l-.61.76a3,3,0,0,0-.84-.52,2.63,2.63,0,0,0-1-.19,1.68,1.68,0,0,0-1,.26.88.88,0,0,0-.36.75.78.78,0,0,0,.32.67,3.8,3.8,0,0,0,.89.47l.94.36.74.31a2.52,2.52,0,0,1,.59.39,1.6,1.6,0,0,1,.38.55,2,2,0,0,1,.14.77,2,2,0,0,1-.19.84,1.87,1.87,0,0,1-.55.67,2.5,2.5,0,0,1-.86.44,3.72,3.72,0,0,1-1.15.16,4.16,4.16,0,0,1-1.61-.29,4.57,4.57,0,0,1-1.25-.75Z"/><path class="cls-2" d="M128,17.59h4.64v.92h-3.46v2.1h2.93v.88h-2.93V23.9h3.6v.93H128Z"/><path class="cls-2" d="M139.09,24.83l-1.84-2.91h-1.36v2.91h-1.18V17.59h2.54a5,5,0,0,1,1.13.11,2.42,2.42,0,0,1,.9.35,1.79,1.79,0,0,1,.59.66,2.13,2.13,0,0,1,.21,1,2,2,0,0,1-.46,1.35,2.46,2.46,0,0,1-1.23.73l2,3Zm-3.2-3.75h1.24c1.22,0,1.83-.43,1.83-1.31a1,1,0,0,0-.48-1,2.78,2.78,0,0,0-1.37-.28h-1.22Z"/><path class="cls-2" d="M140.87,17.59h1.23l1.21,3.74c.14.42.26.82.37,1.19s.24.77.37,1.19h.06c.14-.42.27-.82.38-1.19l.36-1.19L146,17.59h1.2l-2.49,7.24h-1.37Z"/><path class="cls-2" d="M148.51,17.59h1.18v7.24h-1.18Z"/><path class="cls-2" d="M151.71,21.22a4.4,4.4,0,0,1,.27-1.58,3.67,3.67,0,0,1,.76-1.2,3.17,3.17,0,0,1,1.14-.76,3.91,3.91,0,0,1,1.43-.26,2.92,2.92,0,0,1,1.27.28,3.65,3.65,0,0,1,.93.65l-.67.71a2.56,2.56,0,0,0-.67-.49,2.08,2.08,0,0,0-.85-.17,2.24,2.24,0,0,0-1.75.74,3,3,0,0,0-.65,2.05,3.13,3.13,0,0,0,.62,2.08,2.12,2.12,0,0,0,1.72.75,2.17,2.17,0,0,0,1-.21,2.71,2.71,0,0,0,.77-.56l.66.7a3.54,3.54,0,0,1-1.09.78,3.32,3.32,0,0,1-1.37.26,3.75,3.75,0,0,1-1.4-.25A3,3,0,0,1,152.7,24a3.36,3.36,0,0,1-.73-1.18A4.46,4.46,0,0,1,151.71,21.22Z"/><path class="cls-2" d="M159.4,17.59H164v.92h-3.46v2.1h2.93v.88h-2.93V23.9h3.6v.93H159.4Z"/><path class="cls-2" d="M169,17.59h2.52a6.29,6.29,0,0,1,1.2.11,2.76,2.76,0,0,1,.94.37,1.74,1.74,0,0,1,.61.68,2.15,2.15,0,0,1,.22,1,2.23,2.23,0,0,1-.22,1,1.93,1.93,0,0,1-.61.72,2.78,2.78,0,0,1-.94.42,4.94,4.94,0,0,1-1.2.14h-1.34v2.74H169Zm2.44,3.66a2.42,2.42,0,0,0,1.44-.35,1.24,1.24,0,0,0,.46-1.06,1.12,1.12,0,0,0-.47-1,2.82,2.82,0,0,0-1.46-.3h-1.23v2.74Z"/><path class="cls-2" d="M179.33,22.79h-2.8l-.68,2h-1.2l2.63-7.24h1.34l2.65,7.24H180Zm-.28-.87-.34-1c-.14-.4-.26-.8-.37-1.18s-.24-.78-.37-1.18h-.06c-.13.41-.26.8-.37,1.18s-.24.78-.37,1.18l-.34,1Z"/><path class="cls-2" d="M187,24.83l-1.84-2.91h-1.36v2.91h-1.18V17.59h2.54a5,5,0,0,1,1.13.11,2.42,2.42,0,0,1,.9.35,1.79,1.79,0,0,1,.59.66,2.13,2.13,0,0,1,.21,1,2,2,0,0,1-.46,1.35,2.46,2.46,0,0,1-1.23.73l2,3Zm-3.2-3.75H185c1.22,0,1.83-.43,1.83-1.31a1,1,0,0,0-.48-1,2.78,2.78,0,0,0-1.37-.28h-1.22Z"/><path class="cls-2" d="M191.28,18.54H189v-.95h5.85v.95h-2.34v6.29h-1.18Z"/><path class="cls-2" d="M196.47,17.59h1.2l2.72,4.27.85,1.56h.06c0-.37-.06-.77-.1-1.2s-.06-.84-.06-1.24V17.59h1.1v7.24h-1.18l-2.74-4.28L197.47,19h-.06c0,.38.07.78.1,1.2s.06.81.06,1.2v3.43h-1.1Z"/><path class="cls-2" d="M204.8,17.59h4.63v.92H206v2.1h2.93v.88H206V23.9h3.6v.93H204.8Z"/><path class="cls-2" d="M215.94,24.83l-1.84-2.91h-1.37v2.91h-1.18V17.59h2.55a5,5,0,0,1,1.13.11,2.42,2.42,0,0,1,.9.35,1.79,1.79,0,0,1,.59.66,2.13,2.13,0,0,1,.21,1,2,2,0,0,1-.46,1.35,2.46,2.46,0,0,1-1.23.73l2,3Zm-3.21-3.75H214c1.23,0,1.84-.43,1.84-1.31a1,1,0,0,0-.48-1,2.8,2.8,0,0,0-1.37-.28h-1.23Z"/><path class="cls-2" d="M121.15,34.54a3.83,3.83,0,0,0,1,.67,3,3,0,0,0,1.23.25,1.73,1.73,0,0,0,1.11-.31,1,1,0,0,0,.39-.79,1,1,0,0,0-.09-.45,1.07,1.07,0,0,0-.25-.31,1.84,1.84,0,0,0-.39-.24l-.48-.22-.92-.36a4.75,4.75,0,0,1-.72-.32,2.85,2.85,0,0,1-.58-.41,1.9,1.9,0,0,1-.4-.54,1.6,1.6,0,0,1-.15-.7,1.87,1.87,0,0,1,.19-.82,2,2,0,0,1,.54-.63,2.56,2.56,0,0,1,.81-.4,3.31,3.31,0,0,1,1-.15,3.46,3.46,0,0,1,1.42.27,4.06,4.06,0,0,1,1,.61l-.61.76a3,3,0,0,0-.84-.52,2.64,2.64,0,0,0-1-.2,1.68,1.68,0,0,0-1,.27.88.88,0,0,0-.36.75.78.78,0,0,0,.32.67,3.47,3.47,0,0,0,.89.46l.94.37.74.31a2.52,2.52,0,0,1,.59.39,1.6,1.6,0,0,1,.38.55,2,2,0,0,1,.14.77,2,2,0,0,1-.19.84,1.87,1.87,0,0,1-.55.67,2.5,2.5,0,0,1-.86.44,3.72,3.72,0,0,1-1.15.16,4.16,4.16,0,0,1-1.61-.29,4.83,4.83,0,0,1-1.25-.75Z"/><path class="cls-2" d="M128,29h1.18v7.24H128Z"/><path class="cls-2" d="M131.69,29h1.18v6.27h3.37v1h-4.55Z"/><path class="cls-2" d="M135.77,29H137l1.21,3.74c.13.42.26.82.37,1.19s.24.77.37,1.19H139c.14-.42.27-.82.37-1.19s.23-.77.37-1.19L140.94,29h1.19l-2.49,7.24h-1.36Z"/><path class="cls-2" d="M143.41,29h4.64v.92h-3.46V32h2.93v.88h-2.93v2.41h3.6v.93h-4.78Z"/><path class="cls-2" d="M154.55,36.22l-1.83-2.91h-1.37v2.91h-1.18V29h2.55a5.8,5.8,0,0,1,1.13.1,2.45,2.45,0,0,1,.89.36,1.79,1.79,0,0,1,.59.66,2,2,0,0,1,.22,1,2,2,0,0,1-.47,1.35,2.38,2.38,0,0,1-1.23.73l2,3Zm-3.2-3.75h1.24c1.22,0,1.83-.44,1.83-1.31a1.05,1.05,0,0,0-.47-1,2.74,2.74,0,0,0-1.38-.28h-1.22Z"/><path class="cls-2" d="M21.53,15.2H4.28a1.49,1.49,0,0,0-1.5,1.47V33.61a1.49,1.49,0,0,0,1.5,1.47H21.53A1.49,1.49,0,0,0,23,33.61V16.67A1.49,1.49,0,0,0,21.53,15.2ZM8.78,28.08a.36.36,0,0,1-.37.37H6.16a.37.37,0,0,1-.38-.37v-2.2a.37.37,0,0,1,.38-.37H8.41a.36.36,0,0,1,.37.37Zm0-3.68a.36.36,0,0,1-.37.37H6.16a.37.37,0,0,1-.38-.37V22.19a.38.38,0,0,1,.38-.37H8.41a.37.37,0,0,1,.37.37Zm0-3.68a.37.37,0,0,1-.37.37H6.16a.38.38,0,0,1-.38-.37V18.51a.38.38,0,0,1,.38-.37H8.41a.37.37,0,0,1,.37.37Zm3.75,11.05a.37.37,0,0,1-.37.37H9.91a.38.38,0,0,1-.38-.37V29.56a.37.37,0,0,1,.38-.37h2.25a.36.36,0,0,1,.37.37Zm0-7.37a.36.36,0,0,1-.37.37H9.91a.37.37,0,0,1-.38-.37V22.19a.38.38,0,0,1,.38-.37h2.25a.37.37,0,0,1,.37.37Zm0-3.68a.37.37,0,0,1-.37.37H9.91a.38.38,0,0,1-.38-.37V18.51a.38.38,0,0,1,.38-.37h2.25a.37.37,0,0,1,.37.37Zm3.75,11.05a.37.37,0,0,1-.37.37H13.66a.38.38,0,0,1-.38-.37V29.56a.37.37,0,0,1,.38-.37h2.25a.36.36,0,0,1,.37.37Zm0-3.69a.36.36,0,0,1-.37.37H13.66a.37.37,0,0,1-.38-.37v-2.2a.37.37,0,0,1,.38-.37h2.25a.36.36,0,0,1,.37.37Zm0-7.36a.37.37,0,0,1-.37.37H13.66a.38.38,0,0,1-.38-.37V18.51a.38.38,0,0,1,.38-.37h2.25a.37.37,0,0,1,.37.37ZM20,31.77a.37.37,0,0,1-.37.37H17.41a.38.38,0,0,1-.38-.37V29.56a.37.37,0,0,1,.38-.37h2.25a.36.36,0,0,1,.37.37Zm0-3.69a.36.36,0,0,1-.37.37H17.41a.37.37,0,0,1-.38-.37v-2.2a.37.37,0,0,1,.38-.37h2.25a.36.36,0,0,1,.37.37Zm0-3.68a.36.36,0,0,1-.37.37H17.41A.37.37,0,0,1,17,24.4V22.19a.38.38,0,0,1,.38-.37h2.25a.37.37,0,0,1,.37.37Z"/><path class="cls-2" d="M39.69,33.49H30.78v-18a.18.18,0,0,0-.18-.18H29.22a.19.19,0,0,0-.19.18V34.84a.19.19,0,0,0,.19.18H39.69a.18.18,0,0,0,.18-.18V33.68A.19.19,0,0,0,39.69,33.49Z"/><path class="cls-2" d="M52.84,20.54H49.7V17.66c0-2,.68-3,2.07-3a3.82,3.82,0,0,1,1.64.38.19.19,0,0,0,.15,0,.16.16,0,0,0,.1-.11L54,13.86a.17.17,0,0,0-.1-.22,5.67,5.67,0,0,0-2.17-.49c-2.41,0-3.74,1.57-3.74,4.43v3l-1.81.11a.19.19,0,0,0-.17.18v1a.18.18,0,0,0,.19.18H48V34.84a.18.18,0,0,0,.18.18h1.33a.18.18,0,0,0,.18-.18V22h3.14a.19.19,0,0,0,.19-.18V20.72A.19.19,0,0,0,52.84,20.54Z"/><path class="cls-2" d="M59.66,20.18c-3.13,0-6.46,2.67-6.46,7.63,0,4.45,2.81,7.57,6.84,7.57A8.12,8.12,0,0,0,64.67,34a.18.18,0,0,0,.06-.24l-.54-1a.22.22,0,0,0-.12-.09.2.2,0,0,0-.15,0,6.36,6.36,0,0,1-3.76,1.22c-3,0-5.11-2.3-5.22-5.75H65.09a.18.18,0,0,0,.18-.15,6.09,6.09,0,0,0,.08-1.09C65.35,22.69,63.22,20.18,59.66,20.18Zm-4.72,6.53c.34-3,2.26-5,4.73-5s4,1.79,4.06,5Z"/><path class="cls-2" d="M74.92,20.5a3.08,3.08,0,0,0-1.5-.32,4.88,4.88,0,0,0-4,2.66l-.12-2.13a.18.18,0,0,0-.18-.17H68a.18.18,0,0,0-.19.18V34.84A.18.18,0,0,0,68,35h1.32a.19.19,0,0,0,.19-.18V25.27c.91-2.22,2.28-3.49,3.73-3.49a3.07,3.07,0,0,1,1.24.23.26.26,0,0,0,.15,0,.18.18,0,0,0,.09-.12L75,20.7A.17.17,0,0,0,74.92,20.5Z"/><path class="cls-2" d="M86.78,20.54H85.63a.19.19,0,0,0-.19.17l-.07,1.06a6.45,6.45,0,0,0-4.16-1.59c-3.81,0-6.58,3.21-6.58,7.63,0,4.74,2.29,7.57,6.13,7.57a6.81,6.81,0,0,0,4.6-2l.12,1.5a.18.18,0,0,0,.18.17h1.12a.18.18,0,0,0,.19-.18V20.72A.18.18,0,0,0,86.78,20.54Zm-1.51,2.88v8.22c-1.54,1.53-2.88,2.22-4.32,2.22-2.85,0-4.56-2.27-4.56-6.06,0-3.42,2.14-6.1,4.88-6.1A5.82,5.82,0,0,1,85.27,23.42Z"/><path class="cls-2" d="M101.12,20.61a.17.17,0,0,0-.15-.07H99.62a.2.2,0,0,0-.18.12l-3.06,8.88c-.16.47-.33,1-.5,1.51-.24.73-.48,1.47-.73,2.15-.3-.73-.61-1.54-.91-2.31-.18-.48-.36-.94-.53-1.36l-3.47-8.88a.18.18,0,0,0-.17-.11H88.64a.21.21,0,0,0-.16.08.17.17,0,0,0,0,.17l5.88,14.32L94,36.28c-.56,1.65-1.62,3.62-3.51,3.62a3.4,3.4,0,0,1-1.1-.22.25.25,0,0,0-.15,0,.2.2,0,0,0-.1.12l-.3,1.12a.18.18,0,0,0,.1.21,3.81,3.81,0,0,0,1.54.31c2.22,0,4-1.65,5-4.77l5.68-15.9A.17.17,0,0,0,101.12,20.61Z"/><rect class="cls-2" x="41.9" y="20.54" width="1.69" height="14.49" rx="0.18"/><path class="cls-2" d="M43.83,16.94a.41.41,0,0,1-.42.41H42.07a.41.41,0,0,1-.41-.41V15.63a.41.41,0,0,1,.41-.41h1.34a.41.41,0,0,1,.42.41Z"/></svg>