<svg id="Layer_1" data-name="Layer 1" xmlns="http://www.w3.org/2000/svg" viewBox="0 0 44 44"><defs><style>.cls-1{fill:#fff;}</style></defs><title>cws-icon-gears</title><path class="cls-1" d="M32,29a4,4,0,1,0,4,4A4,4,0,0,0,32,29Zm0,6a2,2,0,1,1,2-2A2,2,0,0,1,32,35Z"/><path class="cls-1" d="M16,7a7,7,0,1,0,7,7A7,7,0,0,0,16,7Zm0,12a5,5,0,1,1,5-5A5,5,0,0,1,16,19Z"/><path class="cls-1" d="M41,35.55a1,1,0,0,1-.19-.8,9.09,9.09,0,0,0,0-3.5,1,1,0,0,1,.19-.8l.76-1a1,1,0,0,0,.12-1.06l-.84-1.73a1,1,0,0,0-1.1-.55l-1.25.26a1,1,0,0,1-.83-.21,8.77,8.77,0,0,0-2.94-1.7,1,1,0,0,1-.59-.61L34,22.68A1,1,0,0,0,33,22H31a1,1,0,0,0-.95.68l-.4,1.21a1,1,0,0,1-.59.61,8.77,8.77,0,0,0-2.94,1.7,1,1,0,0,1-.83.21L24,26.15a1,1,0,0,0-1.1.55l-.84,1.73a1,1,0,0,0,.12,1.06l.76,1a1,1,0,0,1,.19.8,9.09,9.09,0,0,0,0,3.5,1,1,0,0,1-.19.8l-.76,1a1,1,0,0,0-.12,1.06l.84,1.73a1,1,0,0,0,1.1.55l1.25-.26a1,1,0,0,1,.83.21,8.77,8.77,0,0,0,2.94,1.7,1,1,0,0,1,.59.61l.4,1.21A1,1,0,0,0,31,44h2a1,1,0,0,0,1-.68l.4-1.21a1,1,0,0,1,.59-.61,8.77,8.77,0,0,0,2.94-1.7,1,1,0,0,1,.83-.21l1.25.26a1,1,0,0,0,1.1-.55l.84-1.73a1,1,0,0,0-.12-1.06Zm-2.15-3.91a7.18,7.18,0,0,1,0,2.72,3,3,0,0,0,.59,2.44l.37.46-.23.47-.49-.1a3,3,0,0,0-2.54.66,7,7,0,0,1-2.28,1.32,3,3,0,0,0-1.84,1.87l-.17.52h-.56l-.17-.52a3,3,0,0,0-1.83-1.87,6.92,6.92,0,0,1-2.29-1.32,3,3,0,0,0-2.54-.66l-.49.1-.23-.47.37-.46a3,3,0,0,0,.59-2.44,7.18,7.18,0,0,1,0-2.72,3,3,0,0,0-.59-2.44l-.37-.46.23-.47.49.1a3,3,0,0,0,2.54-.66,7,7,0,0,1,2.28-1.32,3,3,0,0,0,1.84-1.87l.17-.52h.56l.17.52a3,3,0,0,0,1.83,1.87,6.92,6.92,0,0,1,2.29,1.32,3,3,0,0,0,2.54.66l.49-.1.23.47-.37.46A3,3,0,0,0,38.87,31.64Z"/><path class="cls-1" d="M23,24.29l1,.5a1,1,0,0,0,1.15-.18l1.42-1.42A1,1,0,0,0,26.79,22l-.5-1a1,1,0,0,1,0-.92A11.6,11.6,0,0,0,27.62,17a1,1,0,0,1,.63-.65L29.32,16A1,1,0,0,0,30,15V13a1,1,0,0,0-.68-.95l-1.07-.35a1,1,0,0,1-.63-.65,11.73,11.73,0,0,0-1.31-3.17,1,1,0,0,1,0-.92l.5-1a1,1,0,0,0-.18-1.15L25.19,3.39A1,1,0,0,0,24,3.21l-1,.5a1,1,0,0,1-.92,0A11.73,11.73,0,0,0,19,2.38a1,1,0,0,1-.65-.63L18,.68A1,1,0,0,0,17,0H15a1,1,0,0,0-.95.68L13.7,1.75a1,1,0,0,1-.65.63A11.73,11.73,0,0,0,9.88,3.69a1,1,0,0,1-.92,0l-1-.5a1,1,0,0,0-1.15.18L5.39,4.81A1,1,0,0,0,5.21,6l.5,1a1,1,0,0,1,0,.92,11.73,11.73,0,0,0-1.31,3.17,1,1,0,0,1-.63.65l-1.07.35A1,1,0,0,0,2,13v2a1,1,0,0,0,.68.95l1.07.35a1,1,0,0,1,.63.65,11.6,11.6,0,0,0,1.31,3.17,1,1,0,0,1,0,.92l-.5,1a1,1,0,0,0,.18,1.15l1.42,1.42A1,1,0,0,0,8,24.79l1-.5a1,1,0,0,1,.92,0,11.73,11.73,0,0,0,3.17,1.31,1,1,0,0,1,.65.63l.35,1.07A1,1,0,0,0,15,28h2a1,1,0,0,0,.95-.68l.35-1.07a1,1,0,0,1,.65-.63,11.73,11.73,0,0,0,3.17-1.31A1,1,0,0,1,23,24.29Zm-4.58-.61a2.92,2.92,0,0,0-2.05,1.94l-.13.38h-.56l-.13-.38a2.92,2.92,0,0,0-2.05-1.94,9.69,9.69,0,0,1-2.64-1.09,3,3,0,0,0-2.83-.09l-.36.18-.39-.39.18-.36a3,3,0,0,0-.09-2.83,9.69,9.69,0,0,1-1.09-2.64,2.92,2.92,0,0,0-1.94-2.05L4,14.28v-.56l.38-.13a2.92,2.92,0,0,0,1.94-2.05A9.69,9.69,0,0,1,7.41,8.9,3,3,0,0,0,7.5,6.07l-.18-.36.39-.39.36.18a3,3,0,0,0,2.83-.09,9.69,9.69,0,0,1,2.64-1.09,2.92,2.92,0,0,0,2.05-1.94L15.72,2h.56l.13.38a2.92,2.92,0,0,0,2.05,1.94A9.69,9.69,0,0,1,21.1,5.41a3,3,0,0,0,2.83.09l.36-.18.39.39-.18.36a3,3,0,0,0,.09,2.83,9.69,9.69,0,0,1,1.09,2.64,2.92,2.92,0,0,0,1.94,2.05l.38.13v.56l-.38.13a2.92,2.92,0,0,0-1.94,2.05,9.69,9.69,0,0,1-1.09,2.64,3,3,0,0,0-.09,2.83l.18.36-.39.39-.36-.18a3,3,0,0,0-2.83.09A9.69,9.69,0,0,1,18.46,23.68Z"/></svg>