<svg id="bell" xmlns="http://www.w3.org/2000/svg" viewBox="0 0 44 44"><defs><style>.cls-1{fill:#fff;}</style></defs><title>cws-icon-bell</title><path class="cls-1" d="M36.71,28.29A5.79,5.79,0,0,1,35,24.17V17A13,13,0,0,0,25,4.36V3a3,3,0,0,0-6,0V4.36A13,13,0,0,0,9,17v7.17a5.79,5.79,0,0,1-1.71,4.12A7.78,7.78,0,0,0,5,33.83V35a3,3,0,0,0,3,3H32a1,1,0,0,0,0-2H8a1,1,0,0,1-1-1V33.83a5.79,5.79,0,0,1,1.71-4.12A7.78,7.78,0,0,0,11,24.17V17a11,11,0,0,1,22,0v7.17a7.78,7.78,0,0,0,2.29,5.54A5.79,5.79,0,0,1,37,33.83V35a1,1,0,0,1-1,1,1,1,0,0,0,0,2,3,3,0,0,0,3-3V33.83A7.78,7.78,0,0,0,36.71,28.29ZM21,4.05s0,0,0,0V3a1,1,0,0,1,2,0V4s0,0,0,0c-.33,0-.67,0-1,0S21.32,4,21,4.05Z"/><path class="cls-1" d="M25.23,40.36a4,4,0,0,1-6.46,0,1,1,0,1,0-1.54,1.28,6,6,0,0,0,9.54,0,1,1,0,0,0-1.54-1.28Z"/><path class="cls-1" d="M14,17v8a1,1,0,0,0,2,0V17a1,1,0,0,0-2,0Z"/></svg>