<svg xmlns="http://www.w3.org/2000/svg" viewBox="0 0 44 44"><defs><style>.cls-1{fill:#fff;}</style></defs><title>cws-icon-park</title><g id="park"><path class="cls-1" d="M27,39H17V34.94C17,33.77,17,33,16,33V32H36a1,1,0,0,0,2,0V31a1,1,0,0,0-1-1H35V22a1,1,0,0,0-2,0H19a1,1,0,0,0-2,0v8H15a1,1,0,0,0-1,1v3a1,1,0,0,0,1,1v4H11V37a1,1,0,0,0-1-1V32a1,1,0,0,0-2,0v5a1,1,0,0,0,1,1v1H5V38a1,1,0,0,0,1-1V32a1,1,0,0,1,1-1,1,1,0,0,0,1-1V12.82A3,3,0,0,0,10,10V9A1,1,0,0,0,8,9v1a1,1,0,0,1-2,0V7h4a1,1,0,0,0,0-2H8V4A1,1,0,0,0,6,4V5H4A1,1,0,0,0,4,7v3a3,3,0,0,0,2,2.82V29.17A3,3,0,0,0,4,32v4a1,1,0,0,0-1,1v2H1a1,1,0,0,0,0,2H27a1,1,0,0,0,0-2Zm6-15v2H19V24ZM19,28H33v2H19Z"/><path class="cls-1" d="M20,33a1,1,0,0,0,0,2H34a1,1,0,0,0,0-2Z"/><path class="cls-1" d="M38.71,34a5.24,5.24,0,0,0-4.29,2.21,4.17,4.17,0,0,0-.71-.07A3.86,3.86,0,0,0,29.86,40a1,1,0,0,0,1,1H43a1,1,0,0,0,1-1v-.71A5.29,5.29,0,0,0,38.71,34Zm-6.56,5a1.87,1.87,0,0,1,2.32-.69,1,1,0,0,0,1.3-.48A3.29,3.29,0,0,1,42,39Z"/></g></svg>