<svg xmlns="http://www.w3.org/2000/svg" viewBox="0 0 44 44"><defs><style>.cls-1{fill:#fff;}</style></defs><title>cws-icon-chart</title><g id="chart"><circle class="cls-1" cx="41" cy="3" r="1"/><circle class="cls-1" cx="38" cy="3" r="1"/><circle class="cls-1" cx="35" cy="3" r="1"/><circle class="cls-1" cx="7" cy="37" r="1"/><circle class="cls-1" cx="4" cy="37" r="1"/><circle class="cls-1" cx="1" cy="37" r="1"/><path class="cls-1" d="M21,23H19a1,1,0,0,1,0-2h3a1,1,0,0,0,0-2H21V18a1,1,0,0,0-2,0v1a3,3,0,0,0,0,6h2a1,1,0,0,1,0,2H18a1,1,0,0,0,0,2h1v1a1,1,0,0,0,2,0V29a3,3,0,0,0,0-6Z"/><path class="cls-1" d="M32.82,29.8a2.91,2.91,0,0,0-.7-1.17A13,13,0,0,0,33,24.82,2.85,2.85,0,0,0,34.17,24a2.89,2.89,0,0,0,.65-2.31A15.09,15.09,0,0,0,20,9a14.87,14.87,0,0,0-8.86,2.9,2.82,2.82,0,0,0-.88,3.52,12.91,12.91,0,0,0,0,17.15A2.86,2.86,0,0,0,10,34a2.81,2.81,0,0,0,1.16,2.09,14.91,14.91,0,0,0,6.56,2.72,2.12,2.12,0,0,0,.44,0A2.86,2.86,0,0,0,20,38.17,2.82,2.82,0,0,0,20.82,37a13.52,13.52,0,0,0,2.93-.52,2.88,2.88,0,0,0,1.19.84,2.93,2.93,0,0,0,2.4-.22,15,15,0,0,0,5.14-4.9A2.81,2.81,0,0,0,32.82,29.8ZM12,14.14a.85.85,0,0,1,.35-.63A12.93,12.93,0,0,1,20,11,13.09,13.09,0,0,1,32.85,22a.9.9,0,0,1-.2.71A.81.81,0,0,1,32,23H31.7a.87.87,0,0,1-.84-.78,11,11,0,0,0-17.36-7.1A.84.84,0,0,1,12.41,15l-.2-.19A.87.87,0,0,1,12,14.14ZM19,36a.83.83,0,0,1-.29.63.9.9,0,0,1-.71.2,13.14,13.14,0,0,1-5.68-2.36.85.85,0,0,1-.35-.63.87.87,0,0,1,.24-.66l.2-.19a.91.91,0,0,1,.64-.28.74.74,0,0,1,.45.15,11.21,11.21,0,0,0,4.72,2,.87.87,0,0,1,.78.84Zm5.42-4.2A2.88,2.88,0,0,0,23,34.58a11.06,11.06,0,0,1-2.08.38,2.89,2.89,0,0,0-2.35-2.08,8.83,8.83,0,0,1-3.85-1.62,2.85,2.85,0,0,0-3.06-.14,11,11,0,0,1,0-14.24,2.85,2.85,0,0,0,3.06-.14,9,9,0,0,1,14.19,5.8A2.92,2.92,0,0,0,31,24.89a11,11,0,0,1-.61,2.82,2.86,2.86,0,0,0-2.91,1.21A9,9,0,0,1,24.42,31.82Zm6.38-.74a12.84,12.84,0,0,1-4.46,4.24.85.85,0,0,1-.73.07.83.83,0,0,1-.5-.48l-.11-.3a.87.87,0,0,1,.42-1.06A11.11,11.11,0,0,0,29.12,30a.85.85,0,0,1,1.07-.27l.25.11a.82.82,0,0,1,.46.53A.84.84,0,0,1,30.8,31.08Z"/><path class="cls-1" d="M30,10a1,1,0,0,0,.71-.29L32.41,8H41a1,1,0,0,0,0-2H32a1,1,0,0,0-.71.29l-2,2a1,1,0,0,0,0,1.42A1,1,0,0,0,30,10Z"/><path class="cls-1" d="M11.29,38.29,9.59,40H1a1,1,0,0,0,0,2h9a1,1,0,0,0,.71-.29l2-2a1,1,0,0,0-1.42-1.42Z"/><circle class="cls-1" cx="37" cy="35" r="1"/><circle class="cls-1" cx="40" cy="35" r="1"/><circle class="cls-1" cx="43" cy="35" r="1"/><path class="cls-1" d="M43,38H34.41l-1.7-1.71a1,1,0,0,0-1.42,1.42l2,2A1,1,0,0,0,34,40h9a1,1,0,0,0,0-2Z"/></g></svg>