<svg xmlns="http://www.w3.org/2000/svg" viewBox="0 0 44 44"><defs><style>.cls-1{fill:#fff;}</style></defs><title>cws-icon-city</title><g id="city"><circle class="cls-1" cx="19" cy="18" r="1"/><circle class="cls-1" cx="23" cy="18" r="1"/><circle class="cls-1" cx="27" cy="18" r="1"/><circle class="cls-1" cx="19" cy="22" r="1"/><circle class="cls-1" cx="23" cy="22" r="1"/><circle class="cls-1" cx="27" cy="22" r="1"/><circle class="cls-1" cx="23" cy="26" r="1"/><circle class="cls-1" cx="27" cy="26" r="1"/><circle class="cls-1" cx="23" cy="30" r="1"/><circle class="cls-1" cx="27" cy="30" r="1"/><circle class="cls-1" cx="35" cy="30" r="1"/><circle class="cls-1" cx="38" cy="30" r="1"/><circle class="cls-1" cx="35" cy="34" r="1"/><circle class="cls-1" cx="38" cy="34" r="1"/><circle class="cls-1" cx="35" cy="38" r="1"/><circle class="cls-1" cx="38" cy="38" r="1"/><circle class="cls-1" cx="23" cy="34" r="1"/><circle class="cls-1" cx="27" cy="34" r="1"/><circle class="cls-1" cx="23" cy="38" r="1"/><circle class="cls-1" cx="12" cy="30" r="1"/><circle class="cls-1" cx="12" cy="34" r="1"/><circle class="cls-1" cx="12" cy="38" r="1"/><circle class="cls-1" cx="15" cy="30" r="1"/><circle class="cls-1" cx="15" cy="34" r="1"/><circle class="cls-1" cx="15" cy="38" r="1"/><circle class="cls-1" cx="27" cy="38" r="1"/><path class="cls-1" d="M15,22a1,1,0,0,0,1-1V13h3a1,1,0,0,0,1-.83l.86-4.85h4.31l.31,1.84a1,1,0,1,0,2-.32L27,6.16a1,1,0,0,0-1-.84H24V1a1,1,0,0,0-2,0V5.32H20a1,1,0,0,0-1,.83L18.16,11H15a1,1,0,0,0-1,1v9A1,1,0,0,0,15,22Z"/><path class="cls-1" d="M22,11a1,1,0,0,0,0,2h8V39a1,1,0,0,0,2,0V12a1,1,0,0,0-1-1H22Z"/><path class="cls-1" d="M42,25H40V22a1,1,0,0,0-.45-.83L37,19.46V17a1,1,0,0,0-.55-.89l-2-1a1,1,0,1,0-.9,1.78l1.45.73V20a1,1,0,0,0,.45.83L38,22.54V25H36.24l-1.79-.89a1,1,0,1,0-.9,1.78l2,1A1,1,0,0,0,36,27h5V42H3V13H7v4a1,1,0,0,0,1,1h2v3a1,1,0,0,0,2,0V17a1,1,0,0,0-1-1H9V12a1,1,0,0,0-1-1H2a1,1,0,0,0-1,1V43a1,1,0,0,0,1,1H42a1,1,0,0,0,1-1V26A1,1,0,0,0,42,25Z"/><path class="cls-1" d="M19,40a1,1,0,0,0,1-1V25a1,1,0,0,0-1-1H8a1,1,0,0,0-1,1V39a1,1,0,0,0,2,0V26h9V39A1,1,0,0,0,19,40Z"/></g></svg>