<svg xmlns="http://www.w3.org/2000/svg" viewBox="0 0 44 26"><defs><style>.cls-1{fill:#fff;}</style></defs><title>cws-icon-ticket</title><g id="Livello_2" data-name="Livello 2"><g id="ticket"><circle class="cls-1" cx="21" cy="11" r="1"/><circle class="cls-1" cx="21" cy="15" r="1"/><path class="cls-1" d="M43,4a3,3,0,0,1-3-3,1,1,0,0,0-1-1H5A1,1,0,0,0,4,1,3,3,0,0,1,1,4,1,1,0,0,0,0,5V21a1,1,0,0,0,1,1,3,3,0,0,1,3,3,1,1,0,0,0,1,1H15a1,1,0,0,0,1-1V24a1,1,0,0,0-2,0H5.9A5,5,0,0,0,2,20.1V5.9A5,5,0,0,0,5.9,2H14a1,1,0,0,0,2,0H38.1A5,5,0,0,0,42,5.9V20.1A5,5,0,0,0,38.1,24H19a1,1,0,0,0,0,2H39a1,1,0,0,0,1-1,3,3,0,0,1,3-3,1,1,0,0,0,1-1V5A1,1,0,0,0,43,4Z"/><path class="cls-1" d="M38,5a1,1,0,0,0-1-1H19a1,1,0,0,0,0,2H37A1,1,0,0,0,38,5Z"/><path class="cls-1" d="M19,22H37a1,1,0,0,0,0-2H19a1,1,0,0,0,0,2Z"/><path class="cls-1" d="M7,22h4a1,1,0,0,0,0-2H7a1,1,0,0,0,0,2Z"/><path class="cls-1" d="M11,4H7A1,1,0,0,0,7,6h4a1,1,0,0,0,0-2Z"/><path class="cls-1" d="M15,11a1,1,0,0,0-1,1v2a1,1,0,0,0,2,0V12A1,1,0,0,0,15,11Z"/><path class="cls-1" d="M15,5a1,1,0,0,0-1,1V8a1,1,0,0,0,2,0V6A1,1,0,0,0,15,5Z"/><path class="cls-1" d="M15,18a1,1,0,0,0-1,1v2a1,1,0,0,0,2,0V19A1,1,0,0,0,15,18Z"/><path class="cls-1" d="M6.19,15.82a1,1,0,0,0,1.18,0L8,15.31l.63.48a1,1,0,0,0,1.18,0,1,1,0,0,0,.38-1.12l-.26-.83.65-.45A1,1,0,0,0,11,12.3a1,1,0,0,0-.95-.7H9.22L9,10.72a1,1,0,0,0-1.92,0l-.26.88H6a1,1,0,0,0-1,.7,1,1,0,0,0,.37,1.12l.65.45-.26.83A1,1,0,0,0,6.19,15.82Z"/><path class="cls-1" d="M33,11a1,1,0,0,0-1-1H24a1,1,0,0,0,0,2h8A1,1,0,0,0,33,11Z"/><path class="cls-1" d="M24,14a1,1,0,0,0,0,2h4a1,1,0,0,0,0-2Z"/></g></g></svg>