<svg xmlns="http://www.w3.org/2000/svg" viewBox="0 0 44 44"><defs><style>.cls-1{fill:#fff;}</style></defs><title>cws-icon-bridge</title><g id="bridge"><path class="cls-1" d="M43,25.06H39V14.81a11.82,11.82,0,0,0,3.49,3.11,1,1,0,0,0,.51.14,1,1,0,0,0,.86-.49,1,1,0,0,0-.35-1.37A8.49,8.49,0,0,1,39,9.06V9a1,1,0,0,0-1-1H34a1,1,0,0,0-1,1c0,5-4.93,9-11,9S11,14,11,9a1,1,0,0,0-1-1H6A1,1,0,0,0,5,9v.06c0,2.81-1.64,5.39-4.51,7.08a1,1,0,0,0-.35,1.37A1,1,0,0,0,1,18a1,1,0,0,0,.51-.14A12.12,12.12,0,0,0,5,14.8V25.05L1,25H1a1,1,0,0,0,0,2l4,.05v7H4a1,1,0,0,0,0,2h8a1,1,0,0,0,0-2H11V30a1,1,0,0,0-2,0v4H7V10H9.05c.6,5.6,6.18,10,13,10s12.35-4.4,13-10h2V34H35V30a1,1,0,0,0-2,0v4H32a1,1,0,0,0,0,2h8a1,1,0,0,0,0-2H39V27.06h4a1,1,0,0,0,0-2Z"/><path class="cls-1" d="M35,26.06V17a1,1,0,0,0-2,0v8.06H29V21a1,1,0,0,0-2,0v4.06H23V22a1,1,0,0,0-2,0v3.06H17V21a1,1,0,0,0-2,0v4.06H11V17a1,1,0,0,0-2,0v9.06a1,1,0,0,0,1,1H34A1,1,0,0,0,35,26.06Z"/></g></svg>