<svg xmlns="http://www.w3.org/2000/svg" viewBox="0 0 44 44"><defs><style>.cls-1{fill:#fff;}</style></defs><title>cws-icon-building</title><g id="building"><path class="cls-1" d="M9,9a1,1,0,0,0-1,1V20a1,1,0,0,0,1,1h6a1,1,0,0,0,1-1V10a1,1,0,0,0-1-1Zm1,2h4v3H10Zm0,8V16h4v3Z"/><path class="cls-1" d="M26,20V10a1,1,0,0,0-1-1H19a1,1,0,0,0-1,1V20a1,1,0,0,0,1,1h6A1,1,0,0,0,26,20Zm-6-9h4v3H20Zm0,8V16h4v3Z"/><path class="cls-1" d="M35,21a1,1,0,0,0,1-1V10a1,1,0,0,0-1-1H29a1,1,0,0,0-1,1V20a1,1,0,0,0,1,1Zm-5-2V16h4v3Zm0-8h4v3H30Z"/><path class="cls-1" d="M41,0H3A1,1,0,0,0,2,1V5A1,1,0,0,0,3,6H4V43a1,1,0,0,0,1,1H39a1,1,0,0,0,1-1V9a1,1,0,0,0-2,0V42H19V28a1,1,0,0,0,0-2H8a1,1,0,0,0,0,2V42H6V5A1,1,0,0,0,5,4H4V2H40V4H9A1,1,0,0,0,9,6H41a1,1,0,0,0,1-1V1A1,1,0,0,0,41,0ZM10,28h7v6H16a1,1,0,0,0,0,2h1v6H10Z"/><path class="cls-1" d="M22,38H36a1,1,0,0,0,0-2V27a1,1,0,0,0-1-1H23a1,1,0,0,0-1,1v9a1,1,0,0,0,0,2ZM34,28v8H30V28ZM24,28h4v8H24Z"/></g></svg>