<svg xmlns="http://www.w3.org/2000/svg" viewBox="0 0 44 44"><defs><style>.cls-1{fill:#fff;}</style></defs><title>cws-icon-radar</title><g id="radar"><path class="cls-1" d="M23.91,5A1,1,0,0,0,23,6.08,1,1,0,0,0,24.09,7a6.28,6.28,0,0,1,5.17,1.7A6.31,6.31,0,0,1,31,13.86,1,1,0,0,0,31.87,15H32A1,1,0,0,0,33,14a8.3,8.3,0,0,0-2.27-6.77A8.3,8.3,0,0,0,23.91,5Z"/><path class="cls-1" d="M34,4A13.63,13.63,0,0,0,24,0a1,1,0,0,0-1,1,1,1,0,0,0,1,1A11.69,11.69,0,0,1,36,14a1,1,0,0,0,1,1h0a1,1,0,0,0,1-1A13.7,13.7,0,0,0,34,4Z"/><path class="cls-1" d="M25.11,19.69,27,12.24a1,1,0,0,0-.26-1,1,1,0,0,0-.95-.26l-7.45,1.86-6.6-6.6a1,1,0,0,0-1.42,0A14.92,14.92,0,0,0,6,17,15,15,0,0,0,16,31.13L16,34a1,1,0,0,0,.29.72l3.88,3.88A6.2,6.2,0,0,1,21.92,42H12.08a6.14,6.14,0,0,1,1.75-3.41l.88-.88a1,1,0,0,0-1.42-1.42l-.88.88A8.23,8.23,0,0,0,10,43a1,1,0,0,0,1,1H23a1,1,0,0,0,1-1,8.19,8.19,0,0,0-2.42-5.83L18,33.59l0-3.17a1,1,0,0,0-.71-1A13.18,13.18,0,0,1,11,8.44L29.55,27a13,13,0,0,1-8.49,3H21a1,1,0,0,0,0,2h.07A14.86,14.86,0,0,0,31.7,27.71a1,1,0,0,0,0-1.42Zm-.49-6.32L23.46,18,20,14.54Z"/></g></svg>