<svg xmlns="http://www.w3.org/2000/svg" viewBox="0 0 44 44"><defs><style>.cls-1{fill:#fff;}</style></defs><title>cws-icon-web-eye</title><g id="web_eye"><path class="cls-1" d="M44,12V6a3,3,0,0,0-3-3H3A3,3,0,0,0,0,6V38a3,3,0,0,0,3,3H41a3,3,0,0,0,3-3V16a1,1,0,0,0-2,0V38a1,1,0,0,1-1,1H3a1,1,0,0,1-1-1V6A1,1,0,0,1,3,5H41a1,1,0,0,1,1,1v5H5a1,1,0,0,0,0,2H43A1,1,0,0,0,44,12Z"/><circle class="cls-1" cx="5" cy="8" r="1"/><circle class="cls-1" cx="9" cy="8" r="1"/><circle class="cls-1" cx="13" cy="8" r="1"/><path class="cls-1" d="M9.74,28.29a1,1,0,0,0,0,1.42A17.33,17.33,0,0,0,22,35c5.86,0,11.27-3.08,14.83-8.45a1,1,0,0,0,0-1.1C33.27,20.08,27.86,17,22,17S10.73,20.08,7.17,25.45a1,1,0,1,0,1.66,1.1C12,21.75,16.82,19,22,19a15.73,15.73,0,0,1,12.79,7A15.73,15.73,0,0,1,22,33a15.33,15.33,0,0,1-10.85-4.7A1,1,0,0,0,9.74,28.29Z"/><path class="cls-1" d="M27,26a5,5,0,1,0-5,5A5,5,0,0,0,27,26Zm-8,0a3,3,0,1,1,3,3A3,3,0,0,1,19,26Z"/></g></svg>