<svg xmlns="http://www.w3.org/2000/svg" viewBox="0 0 44 44"><defs><style>.cls-1{fill:#fff;}</style></defs><g id="cake"><path class="cls-1" d="M42,42H39V33a3,3,0,0,0-3-3H12V21a1,1,0,0,1,1-1H31a1,1,0,0,1,1,1v1.22a9.54,9.54,0,0,0-6.52.92,7.53,7.53,0,0,1-7,0,8.36,8.36,0,0,0-3.4-1.08,1,1,0,0,0-.22,2,6.37,6.37,0,0,1,2.59.81A9,9,0,0,0,22,26a8.89,8.89,0,0,0,4.51-1.14,7.59,7.59,0,0,1,5.49-.6V27a1,1,0,0,0,2,0V21a3,3,0,0,0-3-3H30V11a3,3,0,0,0-3-3H23V6.55l2.24-2.29A2.47,2.47,0,0,0,26,2.37,2.51,2.51,0,0,0,25.05.54a2.62,2.62,0,0,0-3-.12l0,0,0,0a2.62,2.62,0,0,0-3,.12A2.51,2.51,0,0,0,18,2.37a2.46,2.46,0,0,0,.74,1.87L21,6.55V8H17a3,3,0,0,0-3,3v4a1,1,0,0,0,2,0V13.25a6.19,6.19,0,0,1,1.48.6A8.86,8.86,0,0,0,22,15a9.54,9.54,0,0,0,3.34-.58,1,1,0,0,0,.59-1.28,1,1,0,0,0-1.29-.59,7.62,7.62,0,0,1-6.14-.4A7.83,7.83,0,0,0,16,11.2V11a1,1,0,0,1,1-1H27a1,1,0,0,1,1,1v7H13a3,3,0,0,0-3,3v9H8a3,3,0,0,0-3,3v3a1,1,0,0,0,.51.87,1,1,0,0,0,1,0,7.51,7.51,0,0,1,7,0,9.53,9.53,0,0,0,9,0,7.51,7.51,0,0,1,7,0A9,9,0,0,0,34,38a1,1,0,0,0,0-2,6.87,6.87,0,0,1-3.48-.86,9.53,9.53,0,0,0-9,0,7.51,7.51,0,0,1-7,0A9.64,9.64,0,0,0,7,34.46V33a1,1,0,0,1,1-1H36a1,1,0,0,1,1,1v9H7V40a1,1,0,0,0-2,0v2H2a1,1,0,0,0,0,2H42a1,1,0,0,0,0-2ZM20,2.46a.49.49,0,0,1,.19-.35A.63.63,0,0,1,20.54,2a.57.57,0,0,1,.32.09.45.45,0,0,1,.2.25,1,1,0,0,0,1.88,0,.45.45,0,0,1,.2-.25.6.6,0,0,1,.67,0,.49.49,0,0,1,.19.35.49.49,0,0,1-.17.38L22,4.71,20.15,2.82A.47.47,0,0,1,20,2.46Z"/></g></svg>