<svg xmlns="http://www.w3.org/2000/svg" viewBox="0 0 40 44"><defs><style>.cls-1{fill:#fff;}</style></defs><title>cws-icon-instant-camera</title><g id="Livello_2" data-name="Livello 2"><g id="instant_camera"><path class="cls-1" d="M37.11,0H2.89A3,3,0,0,0,0,3V23a1,1,0,0,0,2,0V3a1,1,0,0,1,.89-1H37.11A1,1,0,0,1,38,3V26H25V21a1,1,0,0,0-2,0v5H21V22a1,1,0,0,0-2,0v4H17V21a1,1,0,0,0-2,0v5H1a1,1,0,0,0-1,1v8a3,3,0,0,0,2.89,3H5a1,1,0,0,0,0-2H2.89A1,1,0,0,1,2,35V28H38v7a1,1,0,0,1-.89,1H35a1,1,0,0,0,0,2h2.11A3,3,0,0,0,40,35V3A3,3,0,0,0,37.11,0Z"/><path class="cls-1" d="M28,12a8,8,0,1,0-8,8A8,8,0,0,0,28,12ZM14,12a6,6,0,1,1,6,6A6,6,0,0,1,14,12Z"/><path class="cls-1" d="M25,12a5,5,0,1,0-5,5A5,5,0,0,0,25,12Zm-8,0a3,3,0,1,1,3,3A3,3,0,0,1,17,12Z"/><circle class="cls-1" cx="6.5" cy="18.5" r="1.5"/><circle class="cls-1" cx="33.5" cy="18.5" r="1.5"/><rect class="cls-1" x="32" y="4" width="4" height="4"/><path class="cls-1" d="M32,33a1,1,0,0,0-1,1v3H9V34a1,1,0,0,0-2,0v7a2.93,2.93,0,0,0,2.83,3H30.17A2.93,2.93,0,0,0,33,41V34A1,1,0,0,0,32,33Zm-1.83,9H9.83A.93.93,0,0,1,9,41V39H31v2A.93.93,0,0,1,30.17,42Z"/><path class="cls-1" d="M34,34a1,1,0,0,0,2,0V33a3,3,0,0,0-3-3H7a3,3,0,0,0-3,3v1a1,1,0,0,0,2,0V33a1,1,0,0,1,1-1H33a1,1,0,0,1,1,1Z"/></g></g></svg>