<svg xmlns="http://www.w3.org/2000/svg" viewBox="0 0 44 44"><defs><style>.cls-1{fill:#fff;}</style></defs><g id="brain"><path class="cls-1" d="M1,17.7a1,1,0,0,0,1-1,6,6,0,0,1,3.76-5.56,1,1,0,0,0,.6-.7A6,6,0,0,1,12.2,5.8,6.11,6.11,0,0,1,13.83,6a1,1,0,0,0,1.1-.4A6,6,0,0,1,19.9,3a6.09,6.09,0,0,1,1.8.27,1,1,0,1,0,.6-1.9A7.81,7.81,0,0,0,19.9,1a8,8,0,0,0-6.2,3,7.63,7.63,0,0,0-1.5-.15A8,8,0,0,0,4.55,9.49,8,8,0,0,0,0,16.7,1,1,0,0,0,1,17.7Z"/><path class="cls-1" d="M10.45,30.4c-4.66,0-8.45-3-8.45-6.7a5.45,5.45,0,0,1,.85-2.9,8.79,8.79,0,0,1,7.6-3.8,1,1,0,0,0,0-2,10.78,10.78,0,0,0-9.31,4.76A7.44,7.44,0,0,0,0,23.7c0,4.8,4.69,8.7,10.45,8.7a1,1,0,0,0,0-2Z"/><path class="cls-1" d="M37.33,7a9.14,9.14,0,0,0-8-4.61,9.28,9.28,0,0,0-4.6,1.22A8.67,8.67,0,0,0,20.3,11.1c0,.39-.95,1.1-2.5,1.1a1,1,0,0,0,0,2,5.4,5.4,0,0,0,3.5-1.15,5.4,5.4,0,0,0,3.5,1.15,1,1,0,0,0,0-2c-1.55,0-2.5-.71-2.5-1.1a6.61,6.61,0,0,1,3.44-5.75,7.37,7.37,0,0,1,3.61-.95,7.11,7.11,0,0,1,6.4,3.9,1,1,0,0,0,.65.53A7.38,7.38,0,0,1,42,16a8.49,8.49,0,0,1,0,.88A1,1,0,0,0,42.82,18h.12a1,1,0,0,0,1-.88A8.32,8.32,0,0,0,44,16,9.39,9.39,0,0,0,37.33,7Z"/><path class="cls-1" d="M20.2,22.3a3.21,3.21,0,0,1,3.2-3.2,1,1,0,0,0,0-2,5.2,5.2,0,0,0-5.2,5.2,1,1,0,0,0,2,0Z"/><path class="cls-1" d="M30.4,23.3a1,1,0,0,0,0-2,3.8,3.8,0,0,0-3.8,3.8,6.89,6.89,0,0,1-7,6.7A7.2,7.2,0,0,1,14.79,30,6.55,6.55,0,0,1,12.5,25.1a1,1,0,0,0-2,0,8.55,8.55,0,0,0,3,6.45,9.22,9.22,0,0,0,6.07,2.25,8.89,8.89,0,0,0,9.05-8.7A1.81,1.81,0,0,1,30.4,23.3Z"/><path class="cls-1" d="M33.2,15a1,1,0,0,0,0,2,7.43,7.43,0,0,1,7.4,7.4c0,4.29-2.82,7.4-6.7,7.4,0,0-4.93.1-7.35,1.31A1,1,0,0,0,26,34a34.51,34.51,0,0,0,2,7.85C28.69,43,29.74,43,31.82,43c.5,0,4.87,0,5.93-1.78a1.56,1.56,0,0,0,.1-1.53l-1.27-3.07a1,1,0,0,0-1.85.76l1.2,2.89a9.35,9.35,0,0,1-4.11.73,9.64,9.64,0,0,1-2-.12,42.68,42.68,0,0,1-1.73-6.24,23.54,23.54,0,0,1,5.84-.84c5,0,8.7-3.95,8.7-9.4A9.27,9.27,0,0,0,42,21,9.45,9.45,0,0,0,33.2,15Z"/></g></svg>