<svg xmlns="http://www.w3.org/2000/svg" viewBox="0 0 64 56"><defs><style>.cls-1{fill:#fff;}</style></defs><g id="shoe"><path class="cls-1" d="M50.51,12.81l-.85-1.71a1,1,0,0,0-.61-.51,1,1,0,0,0-.78.08,11.27,11.27,0,0,1-12.36-.76L34.36,8.74a1,1,0,0,0-1.49.36l-2,4a1,1,0,0,0,.18,1.15l5.18,5.17A8.82,8.82,0,0,1,38,22a1,1,0,1,0,1.82-.83A10.65,10.65,0,0,0,37.64,18L33,13.35l1.14-2.29.59.45A13.27,13.27,0,0,0,48.32,12.9l.41.81a9.93,9.93,0,0,1,1,4.38,10.23,10.23,0,0,1-.34,2.59l-.3,1.1a66.45,66.45,0,0,0-2.36,17.58v1.18h-2V31a3,3,0,0,0-5-2.25L27.52,39.54a4,4,0,0,1-2.65,1H9.76V40a.51.51,0,0,1,.5-.5H24.62a4,4,0,0,0,2.64-1L40.36,27A17.2,17.2,0,0,1,47,23.38a1,1,0,0,0-.55-1.92,19.14,19.14,0,0,0-7.37,4L25.94,37a2,2,0,0,1-.64.38L21.64,30.1a1,1,0,0,0-1.26-.49l-5,2a1,1,0,0,0-.58,1.25l1.56,4.68h-6.1A2.5,2.5,0,0,0,7.76,40v1.5a1,1,0,0,0,1,1H24.87a6,6,0,0,0,4-1.5L41.1,30.22a1,1,0,0,1,1.66.75V41.54a1,1,0,0,0,1,1h4a1,1,0,0,0,1-1V39.36A64.71,64.71,0,0,1,51.05,22.3l.3-1.1a12.07,12.07,0,0,0,.41-3.11A11.82,11.82,0,0,0,50.51,12.81ZM17,33.12l3.27-1.31,2.86,5.73H18.47Z"/></g></svg>