<svg xmlns="http://www.w3.org/2000/svg" viewBox="0 0 44 44"><defs><style>.cls-1{fill:#fff;}</style></defs><title>cws-icon-mobile-campaign</title><g id="mobile__campaign" data-name="mobile_ campaign"><circle class="cls-1" cx="19" cy="39" r="1"/><circle class="cls-1" cx="24" cy="39" r="1"/><circle class="cls-1" cx="14" cy="39" r="1"/><path class="cls-1" d="M21,6a1,1,0,0,0,0-2H17a1,1,0,0,0,0,2Z"/><path class="cls-1" d="M31,32a1,1,0,0,0-1,1v2H11a1,1,0,0,0,0,2H30v2a3,3,0,0,1-3,3H11a3,3,0,0,1-3-3V5a3,3,0,0,1,3-3H27a3,3,0,0,1,3,3V8H11a1,1,0,0,0,0,2H31a1,1,0,0,0,1-1V5a5,5,0,0,0-5-5H11A5,5,0,0,0,6,5V39a5,5,0,0,0,5,5H27a5,5,0,0,0,5-5V33A1,1,0,0,0,31,32Z"/><path class="cls-1" d="M27,20H25a1,1,0,0,1,0-2h3a1,1,0,0,0,0-2H27a1,1,0,0,0-2,0,3,3,0,0,0,0,6h2a1,1,0,0,1,0,2H24a1,1,0,0,0,0,2h1a1,1,0,0,0,2,0,3,3,0,0,0,0-6Z"/><path class="cls-1" d="M35,12H17a3,3,0,0,0-3,3V32a1,1,0,0,0,.47.85A1,1,0,0,0,15,33a1,1,0,0,0,.45-.11l4.94-2.47A4.09,4.09,0,0,1,22.18,30H35a3,3,0,0,0,3-3V15A3,3,0,0,0,35,12Zm1,15a1,1,0,0,1-1,1H22.18a6.07,6.07,0,0,0-2.68.63L16,30.38V15a1,1,0,0,1,1-1H35a1,1,0,0,1,1,1Z"/></g></svg>