<svg xmlns="http://www.w3.org/2000/svg" viewBox="0 0 44 44"><defs><style>.cls-1{fill:#fff;}</style></defs><g id="ring_box"><path class="cls-1" d="M37.55,10.89l2,1A.93.93,0,0,0,40,12a1,1,0,0,0,.89-.55,1,1,0,0,0-.44-1.34l-2-1a1,1,0,1,0-.9,1.78Z"/><path class="cls-1" d="M38,8a.93.93,0,0,0,.45-.11l2-1a1,1,0,0,0-.9-1.78l-2,1a1,1,0,0,0-.44,1.34A1,1,0,0,0,38,8Z"/><path class="cls-1" d="M21.55,6.89l2,1A.93.93,0,0,0,24,8a1,1,0,0,0,.89-.55,1,1,0,0,0-.44-1.34l-2-1a1,1,0,0,0-.9,1.78Z"/><path class="cls-1" d="M22,12a.93.93,0,0,0,.45-.11l2-1a1,1,0,1,0-.9-1.78l-2,1a1,1,0,0,0-.44,1.34A1,1,0,0,0,22,12Z"/><path class="cls-1" d="M43,29H21a1,1,0,0,0,0,2H42v7a1,1,0,0,1-1,1H19a1,1,0,0,1-1-1V30a1,1,0,0,0-1-1H14A12,12,0,0,1,14,5h2V26a1,1,0,0,0,2,0V4a1,1,0,0,0-1-1H14a14,14,0,0,0-1.91,27.85,5,5,0,0,0,3.91,4V38a3,3,0,0,0,3,3H41a3,3,0,0,0,3-3V30A1,1,0,0,0,43,29ZM14.18,31H16v1.82A3,3,0,0,1,14.18,31Z"/><path class="cls-1" d="M36.89,26.9a.94.94,0,0,0,.43.1,1,1,0,0,0,.9-.57A7.89,7.89,0,0,0,39,23a8,8,0,0,0-16,0,7.89,7.89,0,0,0,.78,3.43,1,1,0,0,0,1.81-.86A5.93,5.93,0,0,1,25,23a6,6,0,0,1,12,0,5.93,5.93,0,0,1-.59,2.57A1,1,0,0,0,36.89,26.9Z"/><path class="cls-1" d="M21.76,27a1,1,0,0,0,.65-1.25A9.11,9.11,0,0,1,22,23a9,9,0,0,1,18,0,9.11,9.11,0,0,1-.41,2.7A1,1,0,0,0,40.24,27a.79.79,0,0,0,.3.05,1,1,0,0,0,1-.7A11.19,11.19,0,0,0,42,23a11,11,0,0,0-8.27-10.64L35.8,9.6A1,1,0,0,0,36,8.68l-1-3A1,1,0,0,0,34,5H28a1,1,0,0,0-.95.68l-1,3a1,1,0,0,0,.15.92l2.07,2.76A11,11,0,0,0,20,23a11.19,11.19,0,0,0,.5,3.3A1,1,0,0,0,21.76,27ZM30.5,12,29,10h2a1,1,0,0,0,0-2H28.39l.33-1h4.56l.61,1.82L31.5,12Z"/></g></svg>