<svg xmlns="http://www.w3.org/2000/svg" viewBox="0 0 44 44"><defs><style>.cls-1{fill:#fff;}</style></defs><title>cws-icon-shredder</title><g id="shredder"><path class="cls-1" d="M10,14a1,1,0,0,0,1-1V3a1,1,0,0,1,1-1H26.63l6.72,5.76a1,1,0,0,0,1.3-1.52l-7-6A1,1,0,0,0,27,0H12A3,3,0,0,0,9,3V13A1,1,0,0,0,10,14Z"/><circle class="cls-1" cx="7" cy="22" r="1"/><circle class="cls-1" cx="11" cy="22" r="1"/><path class="cls-1" d="M40,16H35V10a1,1,0,0,0-1-1H28a1,1,0,0,1-1-1V5a1,1,0,0,0-2,0V8a3,3,0,0,0,3,3h5v6a1,1,0,0,0,1,1h6a1,1,0,0,1,1,1v6a1,1,0,0,1-1,1H4a1,1,0,0,1-1-1V19a1,1,0,0,1,1-1H30a1,1,0,0,0,0-2H4a3,3,0,0,0-3,3v6a3,3,0,0,0,3,3H40a3,3,0,0,0,3-3V19A3,3,0,0,0,40,16Z"/><path class="cls-1" d="M10,30a1,1,0,0,0-1,1V43a1,1,0,0,0,2,0V31A1,1,0,0,0,10,30Z"/><path class="cls-1" d="M34,30a1,1,0,0,0-1,1V43a1,1,0,0,0,2,0V31A1,1,0,0,0,34,30Z"/><path class="cls-1" d="M14,30a1,1,0,0,0-1,1V43a1,1,0,0,0,2,0V31A1,1,0,0,0,14,30Z"/><path class="cls-1" d="M30,30a1,1,0,0,0-1,1v8a1,1,0,0,0,2,0V31A1,1,0,0,0,30,30Z"/><path class="cls-1" d="M22,30a1,1,0,0,0-1,1v8a1,1,0,0,0,2,0V31A1,1,0,0,0,22,30Z"/><path class="cls-1" d="M26,30a1,1,0,0,0-1,1V41a1,1,0,0,0,2,0V31A1,1,0,0,0,26,30Z"/><path class="cls-1" d="M18,30a1,1,0,0,0-1,1V41a1,1,0,0,0,2,0V31A1,1,0,0,0,18,30Z"/><path class="cls-1" d="M27,22a1,1,0,0,0,1,1h8a1,1,0,0,0,0-2H28A1,1,0,0,0,27,22Z"/></g></svg>