<svg xmlns="http://www.w3.org/2000/svg" viewBox="0 0 44 44"><defs><style>.cls-1{fill:#fff;}</style></defs><title>cws-icon-roller</title><g id="roller"><circle class="cls-1" cx="9" cy="29" r="1"/><path class="cls-1" d="M43,28h-.68a7,7,0,0,0-12.64,0H29a1,1,0,0,0-1,1v4a1,1,0,0,0,1,1h.68a7,7,0,0,0,12.64,0H43a1,1,0,0,0,1-1V29A1,1,0,0,0,43,28Zm-1,4H30V30H42Zm-6-6a5,5,0,0,1,4,2H32A5,5,0,0,1,36,26Zm0,10a5,5,0,0,1-4-2h8A5,5,0,0,1,36,36Z"/><path class="cls-1" d="M31,22h6a3,3,0,0,0,0-6H22a16.12,16.12,0,0,0-3.2-9.6A1,1,0,0,0,18,6H3A1,1,0,0,0,2,7v6a1,1,0,0,0,2,0V8h6v8H3a1,1,0,0,0-.83.45l-2,3a1,1,0,0,0,.28,1.38,1,1,0,0,0,1.38-.28L3.54,18H14.46l1.71,2.55A1,1,0,0,0,17,21a.94.94,0,0,0,.55-.17,1,1,0,0,0,.28-1.38l-2-3A1,1,0,0,0,15,16H12V8h5.49A14.12,14.12,0,0,1,20,16H19a1,1,0,0,0,0,2H37a1,1,0,0,1,0,2H31a4,4,0,0,0-3.71,2.51l-2.49,6.23A2,2,0,0,1,23,30h-5A8.26,8.26,0,0,0,18,29a9.05,9.05,0,1,0-.53,3H23a4,4,0,0,0,3.71-2.51l2.49-6.23A2,2,0,0,1,31,22ZM9,36a7,7,0,1,1,7-7A7,7,0,0,1,9,36Z"/><path class="cls-1" d="M23,28a1,1,0,0,0,0-2H20a1,1,0,0,0,0,2Z"/></g></svg>