<svg xmlns="http://www.w3.org/2000/svg" viewBox="0 0 44 44"><defs><style>.cls-1{fill:#fff;}</style></defs><title>cws-icon-call</title><g id="call"><path class="cls-1" d="M21,14a3,3,0,0,1,3,3,1,1,0,0,0,2,0,5,5,0,0,0-5-5,1,1,0,0,0,0,2Z"/><path class="cls-1" d="M21,8a9,9,0,0,1,9,9,1,1,0,0,0,2,0A11,11,0,0,0,21,6a1,1,0,0,0,0,2Z"/><path class="cls-1" d="M21,2A15,15,0,0,1,36,17a1,1,0,0,0,2,0A17,17,0,0,0,21,0a1,1,0,0,0,0,2Z"/><path class="cls-1" d="M38,31V28.71a3,3,0,0,0-3-3h-.57a22.13,22.13,0,0,1-7-1.13,3,3,0,0,0-3.48,1.25l-1,1.51a1,1,0,0,1-1.32.36A27.33,27.33,0,0,1,10.3,16.33,1,1,0,0,1,10.66,15l1.51-.95a3,3,0,0,0,1.25-3.48,22.13,22.13,0,0,1-1.13-7V3a3,3,0,0,0-3-3H5A5,5,0,0,0,0,5,33,33,0,0,0,33,38a5,5,0,0,0,3.31-1.25A1,1,0,1,0,35,35.25,3,3,0,0,1,33,36,31,31,0,0,1,2,5,3,3,0,0,1,5,2H6V4a29,29,0,0,0,1,7.71,1,1,0,0,0,1,.73,1.09,1.09,0,0,0,.26,0A1,1,0,0,0,9,11.18,27.08,27.08,0,0,1,8,4V2H9.29a1,1,0,0,1,1,1v.57a24.06,24.06,0,0,0,1.23,7.64,1,1,0,0,1-.41,1.16l-1.51.94a3,3,0,0,0-1.06,4A29.24,29.24,0,0,0,20.73,29.46a3,3,0,0,0,4-1.06l.95-1.51a1,1,0,0,1,1.15-.41,24.06,24.06,0,0,0,7.64,1.23H35a1,1,0,0,1,1,1V31H34a27.08,27.08,0,0,1-7.18-1A1,1,0,1,0,26.29,32,29,29,0,0,0,34,33h3.5a4.5,4.5,0,0,1,0,9H16a4.51,4.51,0,0,1-4.5-4.5A6.51,6.51,0,0,0,5,31a1,1,0,0,0,0,2,4.51,4.51,0,0,1,4.5,4.5A6.51,6.51,0,0,0,16,44H37.5A6.5,6.5,0,0,0,38,31Z"/></g></svg>