<svg xmlns="http://www.w3.org/2000/svg" viewBox="0 0 44 44"><defs><style>.cls-1{fill:#fff;}</style></defs><title>cws-ring-binder</title><g id="ring_binder"><path class="cls-1" d="M8,31a4,4,0,1,0,4,4A4,4,0,0,0,8,31Zm0,6a2,2,0,1,1,2-2A2,2,0,0,1,8,37Z"/><path class="cls-1" d="M11,7H5A1,1,0,0,0,5,9h6a1,1,0,0,0,0-2Z"/><path class="cls-1" d="M11,11H5a1,1,0,0,0,0,2h6a1,1,0,0,0,0-2Z"/><path class="cls-1" d="M11,15H5a1,1,0,0,0,0,2h6a1,1,0,0,0,0-2Z"/><path class="cls-1" d="M27,1a1,1,0,0,0-1-1H17a3,3,0,0,0-3,3V41a1,1,0,0,1-1,1H3a1,1,0,0,1-1-1V3A1,1,0,0,1,3,2h8a1,1,0,0,0,0-2H3A3,3,0,0,0,0,3V41a3,3,0,0,0,3,3H13a3,3,0,0,0,3-3V3a1,1,0,0,1,1-1h9A1,1,0,0,0,27,1Z"/><path class="cls-1" d="M22,31a4,4,0,1,0,4,4A4,4,0,0,0,22,31Zm0,6a2,2,0,1,1,2-2A2,2,0,0,1,22,37Z"/><path class="cls-1" d="M25,7H19a1,1,0,0,0,0,2h6a1,1,0,0,0,0-2Z"/><path class="cls-1" d="M25,11H19a1,1,0,0,0,0,2h6a1,1,0,0,0,0-2Z"/><path class="cls-1" d="M25,15H19a1,1,0,0,0,0,2h6a1,1,0,0,0,0-2Z"/><path class="cls-1" d="M41,0H31a3,3,0,0,0-3,3V41a1,1,0,0,1-1,1H19a1,1,0,0,0,0,2h8a3,3,0,0,0,3-3V3a1,1,0,0,1,1-1H41a1,1,0,0,1,1,1V41a1,1,0,0,1-1,1H33a1,1,0,0,0,0,2h8a3,3,0,0,0,3-3V3A3,3,0,0,0,41,0Z"/><path class="cls-1" d="M36,39a4,4,0,1,0-4-4A4,4,0,0,0,36,39Zm0-6a2,2,0,1,1-2,2A2,2,0,0,1,36,33Z"/><path class="cls-1" d="M33,9h6a1,1,0,0,0,0-2H33a1,1,0,0,0,0,2Z"/><path class="cls-1" d="M33,13h6a1,1,0,0,0,0-2H33a1,1,0,0,0,0,2Z"/><path class="cls-1" d="M33,17h6a1,1,0,0,0,0-2H33a1,1,0,0,0,0,2Z"/></g></svg>