<svg xmlns="http://www.w3.org/2000/svg" viewBox="0 0 30 44"><defs><style>.cls-1{fill:#fff;}</style></defs><title>cws-icon-trpod</title><g id="Livello_2" data-name="Livello 2"><g id="tripod"><path class="cls-1" d="M15,5a7,7,0,1,0,7,7A7,7,0,0,0,15,5Zm0,12a5,5,0,1,1,5-5A5,5,0,0,1,15,17Z"/><path class="cls-1" d="M15,8a4,4,0,0,0-4,4,1,1,0,0,0,2,0,2,2,0,0,1,2-2,1,1,0,0,0,0-2Z"/><path class="cls-1" d="M27,4H23.85a2,2,0,0,1-1.78-1.11l-.35-.68A4,4,0,0,0,18.15,0h-6.3A4,4,0,0,0,8.28,2.21l-.35.68A2,2,0,0,1,6.15,4H3A3,3,0,0,0,0,7V19a3,3,0,0,0,3,3H27a3,3,0,0,0,3-3V7A3,3,0,0,0,27,4Zm1,15a1,1,0,0,1-1,1H3a1,1,0,0,1-1-1V7A1,1,0,0,1,3,6H6.15A4,4,0,0,0,9.72,3.79l.35-.68A2,2,0,0,1,11.85,2h6.3a2,2,0,0,1,1.78,1.11l.35.68A4,4,0,0,0,23.85,6H27a1,1,0,0,1,1,1Z"/><path class="cls-1" d="M11.26,33.44l-6.09,9a1,1,0,0,0,.27,1.39A1,1,0,0,0,6,44a1,1,0,0,0,.83-.44l6.09-9a1,1,0,0,0-1.66-1.12Z"/><path class="cls-1" d="M18.74,33.44a1,1,0,0,0-1.39-.27,1,1,0,0,0-.27,1.39l6.09,9A1,1,0,0,0,24,44a1,1,0,0,0,.56-.17,1,1,0,0,0,.27-1.39Z"/><path class="cls-1" d="M18,25h3a1,1,0,0,0,0-2H9a1,1,0,0,0,0,2h3a1,1,0,0,0,1,1h1V43a1,1,0,0,0,2,0V26h1A1,1,0,0,0,18,25Z"/><circle class="cls-1" cx="25" cy="9" r="1"/></g></g></svg>