<svg xmlns="http://www.w3.org/2000/svg" viewBox="0 0 44 44"><defs><style>.cls-1{fill:#fff;}</style></defs><title>cws-pencil-ruler</title><g id="pencil_ruler"><circle class="cls-1" cx="31" cy="39" r="1"/><path class="cls-1" d="M35,0H27a3,3,0,0,0-3,3,1,1,0,0,0,2,0,1,1,0,0,1,1-1h8a1,1,0,0,1,1,1V41a1,1,0,0,1-1,1H27a1,1,0,0,1-1-1V36h2a1,1,0,0,0,0-2H26V32h4a1,1,0,0,0,0-2H26V28h2a1,1,0,0,0,0-2H26V24h4a1,1,0,0,0,0-2H26V20h2a1,1,0,0,0,0-2H26V16h4a1,1,0,0,0,0-2H26V12h2a1,1,0,0,0,0-2H26V8h4a1,1,0,0,0,0-2H25a1,1,0,0,0-1,1V41a3,3,0,0,0,3,3h8a3,3,0,0,0,3-3V3A3,3,0,0,0,35,0Z"/><path class="cls-1" d="M9,2h6a1,1,0,0,1,1,1,1,1,0,0,0,2,0,3,3,0,0,0-3-3H9A3,3,0,0,0,6,3V33.28A7,7,0,0,0,7.06,37l4.09,6.54a1,1,0,0,0,1.7,0L16.94,37A7,7,0,0,0,18,33.28V7a1,1,0,0,0-1-1H11a1,1,0,0,0,0,2h5V33.28a5,5,0,0,1-.76,2.65L12,41.11,8.76,35.93A5.27,5.27,0,0,1,8.32,35H14a1,1,0,0,0,0-2H8V3A1,1,0,0,1,9,2Z"/><path class="cls-1" d="M13,30V11a1,1,0,0,0-2,0V30a1,1,0,0,0,2,0Z"/></g></svg>