<svg xmlns="http://www.w3.org/2000/svg" viewBox="0 0 44 44"><defs><style>.cls-1{fill:#fff;}</style></defs><title>cws-icon-bookcase</title><g id="bookcase"><circle class="cls-1" cx="22" cy="38" r="1"/><path class="cls-1" d="M36,0H8A3,3,0,0,0,5,3V40a3,3,0,0,0,3,3H9a1,1,0,0,0,1,1h4a1,1,0,0,0,1-1H29a1,1,0,0,0,1,1h4a1,1,0,0,0,1-1h1a3,3,0,0,0,3-3V38a1,1,0,0,0-2,0v2a1,1,0,0,1-1,1H8a1,1,0,0,1-1-1V35H38a1,1,0,0,0,1-1V3A3,3,0,0,0,36,0ZM35,15a1,1,0,0,0-1,1v6H33V15a1,1,0,0,0-2,0v7H30V17a1,1,0,0,0-2,0v5H27V16a1,1,0,0,0-2,0v6H23L24,18.24A1,1,0,0,0,22,17.76l-1,4A1,1,0,0,0,21,22H7V13H37v9H36V16A1,1,0,0,0,35,15ZM8,2H36a1,1,0,0,1,1,1v8H24a1,1,0,0,0-.07-.37l-2-5a1,1,0,1,0-1.86.74L21.92,11H19V5a1,1,0,0,0-2,0v6H16V8a1,1,0,0,0-2,0v3H13V5a1,1,0,0,0-2,0v6H10V5A1,1,0,0,0,8,5v6H7V3A1,1,0,0,1,8,2ZM19,33V29a1,1,0,0,0-2,0v4H16V28a1,1,0,0,0-2,0v5H13V26a1,1,0,0,0-2,0v7H10V29a1,1,0,0,0-2,0v4H7V24H37v9Z"/></g></svg>