<svg xmlns="http://www.w3.org/2000/svg" viewBox="0 0 44 28"><defs><style>.cls-1{fill:#fff;}</style></defs><title>cws-icon-projector</title><g id="Livello_2" data-name="Livello 2"><g id="projector"><circle class="cls-1" cx="39" cy="21" r="1"/><path class="cls-1" d="M11,12H5a1,1,0,0,0,0,2h6a1,1,0,0,0,0-2Z"/><path class="cls-1" d="M11,16H5a1,1,0,0,0,0,2h6a1,1,0,0,0,0-2Z"/><path class="cls-1" d="M11,20H5a1,1,0,0,0,0,2h6a1,1,0,0,0,0-2Z"/><path class="cls-1" d="M41,8a1,1,0,0,0,0,2,1,1,0,0,1,1,1V23a1,1,0,0,1-1,1H3a1,1,0,0,1-1-1V11a1,1,0,0,1,1-1H16.05c0,.33-.05.66-.05,1a11.05,11.05,0,1,0,.43-3H3a3,3,0,0,0-3,3V23a3,3,0,0,0,3,3H4v1a1,1,0,0,0,2,0V26H38v1a1,1,0,0,0,2,0V26h1a3,3,0,0,0,3-3V11A3,3,0,0,0,41,8ZM27,2a9,9,0,1,1-9,9A9,9,0,0,1,27,2Z"/><path class="cls-1" d="M27,18a7,7,0,1,0-7-7A7,7,0,0,0,27,18ZM27,6a5,5,0,1,1-5,5A5,5,0,0,1,27,6Z"/><path class="cls-1" d="M24,12a1,1,0,0,0,1-1,2,2,0,0,1,2-2,1,1,0,0,0,0-2,4,4,0,0,0-4,4A1,1,0,0,0,24,12Z"/></g></g></svg>