<svg xmlns="http://www.w3.org/2000/svg" viewBox="0 0 64 56"><defs><style>.cls-1{fill:#fff;}</style></defs><g id="skirt"><path class="cls-1" d="M33,10.62a1,1,0,1,0,1-1A1,1,0,0,0,33,10.62Z"/><circle class="cls-1" cx="30.03" cy="10.62" r="1"/><path class="cls-1" d="M52,46.28,51.15,44A51.53,51.53,0,0,1,48,26.33a29.63,29.63,0,0,0-3-12.95V9.62a3,3,0,0,0-3-3H22a3,3,0,0,0-3,3v4a1,1,0,0,0,1,1H40a1,1,0,0,0,0-2H21v-3a1,1,0,0,1,1-1H42a1,1,0,0,1,1,1v4a1,1,0,0,0,.11.45A27.55,27.55,0,0,1,46,26.33a53.58,53.58,0,0,0,3.09,18c-5.51-2.63-12.9-2.12-17.69,1.53a15.61,15.61,0,0,1-17.2.43l.57-1.56A53.71,53.71,0,0,0,18,26.33a27.58,27.58,0,0,1,1.32-8.41,1,1,0,0,0-1.9-.61,29.38,29.38,0,0,0-1.42,9A51.76,51.76,0,0,1,12.92,44l-.83,2.27a1,1,0,0,0,.34,1.13,16.72,16.72,0,0,0,10.1,3.2,16.77,16.77,0,0,0,10.11-3.2C37.16,44,44.3,43.7,49.23,46.62a16,16,0,0,1-13.15,1.06,1,1,0,0,0-.69,1.88,17.93,17.93,0,0,0,6.11,1,16.93,16.93,0,0,0,10.12-3.18l0,0A1,1,0,0,0,52,46.28Z"/><path class="cls-1" d="M33,40.62v-14a1,1,0,0,0-2,0v14a1,1,0,1,0,2,0Z"/><path class="cls-1" d="M22,45.62A1,1,0,0,0,23,45l.19-.51A45.07,45.07,0,0,0,26,28.62a1,1,0,0,0-2,0,43,43,0,0,1-2.74,15.14l-.19.51a1,1,0,0,0,.58,1.28A.87.87,0,0,0,22,45.62Z"/><path class="cls-1" d="M39,27.62a1,1,0,0,0-1,1v1.53a20,20,0,0,0,2.11,8.92,1,1,0,0,0,.89.55,1,1,0,0,0,.45-.11,1,1,0,0,0,.45-1.34,18,18,0,0,1-1.9-8V28.62A1,1,0,0,0,39,27.62Z"/></g></svg>