<svg xmlns="http://www.w3.org/2000/svg" viewBox="0 0 44 44"><defs><style>.cls-1{fill:#fff;}</style></defs><title>cws-icon-bed</title><g id="bed"><path class="cls-1" d="M3,22a1,1,0,0,0,1-1V11.23A3,3,0,0,1,6.37,8.3l6-1.29A46,46,0,0,1,22,6h.1a46,46,0,0,1,9.58,1l6,1.29A3,3,0,0,1,40,11.23V21a1,1,0,0,0,2,0V11.23c0-.05,0-.1,0-.16s0,0,0-.07V5a1,1,0,0,0-2,0V7.26a5,5,0,0,0-2-.92l-6-1.28A48,48,0,0,0,22.05,4H22A48,48,0,0,0,12,5.06L6,6.34A5,5,0,0,0,4,7.26V5A1,1,0,0,0,2,5v6s0,.05,0,.07,0,.11,0,.16V21A1,1,0,0,0,3,22Z"/><path class="cls-1" d="M43,30V26a3,3,0,0,0-3-3H38V21a3,3,0,0,0-3-3H27a3,3,0,0,0-3,3v2H20V21a3,3,0,0,0-3-3H9a3,3,0,0,0-3,3v2H4a3,3,0,0,0-3,3v1a1,1,0,0,0,2,0V26a1,1,0,0,1,1-1H40a1,1,0,0,1,1,1v5a1,1,0,0,0,1,1v2a1,1,0,0,1-1,1H3a1,1,0,0,1-1-1V32H38a1,1,0,0,0,0-2H1a1,1,0,0,0-1,1v3a3,3,0,0,0,3,3H4v2a1,1,0,0,0,1,1h5a1,1,0,0,0,1-1V37H33v2a1,1,0,0,0,1,1h5a1,1,0,0,0,1-1V37h1a3,3,0,0,0,3-3V31A1,1,0,0,0,43,30ZM8,23V21a1,1,0,0,1,1-1h8a1,1,0,0,1,1,1v2Zm18,0V21a1,1,0,0,1,1-1h8a1,1,0,0,1,1,1v2ZM9,38H6V37H9Zm29,0H35V37h3Z"/><path class="cls-1" d="M37.21,10.2,31.89,9.06A48,48,0,0,0,21.89,8h-.1a48,48,0,0,0-10,1.06l-5,1.07a1,1,0,0,0,.42,2l5-1.08a46,46,0,0,1,9.58-1h.1a46,46,0,0,1,9.58,1l5.32,1.15.21,0a1,1,0,0,0,.21-2Z"/></g></svg>