<svg xmlns="http://www.w3.org/2000/svg" viewBox="0 0 44 44"><defs><style>.cls-1{fill:#fff;}</style></defs><g id="diamond_ring"><path class="cls-1" d="M9,27A13,13,0,1,0,22,14,13,13,0,0,0,9,27Zm24,0A11,11,0,1,1,22,16,11,11,0,0,1,33,27Z"/><path class="cls-1" d="M28.38,11.24a1,1,0,0,0-.75,1.85A15,15,0,1,1,22,12a3.13,3.13,0,0,0,2.41-1.13l4.36-5.23a1,1,0,0,0,.2-.88l-1-4A1,1,0,0,0,27,0H17a1,1,0,0,0-1,.76l-1,4A1,1,0,0,0,15,5h0a1,1,0,0,0,.07.34l0,.06a1.09,1.09,0,0,0,.14.23l2.5,3a1,1,0,1,0,1.54-1.28L18.13,6H21v4.05a16.94,16.94,0,1,0,7.38,1.19ZM17.28,4l.5-2H21V4ZM24,4H23V2h3.22l.69,2.75L23,9.44V6h1a1,1,0,0,0,0-2Z"/><path class="cls-1" d="M33,5a1,1,0,0,0,1,1h3a1,1,0,0,0,0-2H34A1,1,0,0,0,33,5Z"/><path class="cls-1" d="M33.29,9.71a1,1,0,0,0,1.42,0,1,1,0,0,0,0-1.42l-2-2a1,1,0,0,0-1.42,1.42Z"/><path class="cls-1" d="M32,4a1,1,0,0,0,.71-.29l2-2A1,1,0,1,0,33.29.29l-2,2a1,1,0,0,0,0,1.42A1,1,0,0,0,32,4Z"/><path class="cls-1" d="M7,6h3a1,1,0,0,0,0-2H7A1,1,0,0,0,7,6Z"/><path class="cls-1" d="M11.29,3.71a1,1,0,0,0,1.42,0,1,1,0,0,0,0-1.42l-2-2A1,1,0,0,0,9.29,1.71Z"/><path class="cls-1" d="M11.29,6.29l-2,2a1,1,0,0,0,0,1.42,1,1,0,0,0,1.42,0l2-2a1,1,0,1,0-1.42-1.42Z"/></g></svg>