<svg xmlns="http://www.w3.org/2000/svg" viewBox="0 0 44 44"><defs><style>.cls-1{fill:#fff;}</style></defs><title>cws-icon-demolition</title><g id="demolition_crane"><circle class="cls-1" cx="22" cy="36" r="1"/><circle class="cls-1" cx="18" cy="36" r="1"/><circle class="cls-1" cx="14" cy="36" r="1"/><circle class="cls-1" cx="10" cy="36" r="1"/><circle class="cls-1" cx="6" cy="36" r="1"/><path class="cls-1" d="M40,22.1s0-.06,0-.1V3a1,1,0,0,0-1-1H33a1,1,0,0,0,0,2h.39l-11.9,7.14A1,1,0,0,0,22,13a1,1,0,0,0,.51-.14L34.38,5.74,25.83,21.52a1,1,0,0,0,.4,1.36,1,1,0,0,0,.48.12,1,1,0,0,0,.88-.52L37.6,4H38V22s0,.06,0,.1a5,5,0,1,0,2,0ZM39,30a3,3,0,1,1,3-3A3,3,0,0,1,39,30Z"/><path class="cls-1" d="M25,30.8V27a1.18,1.18,0,0,0,0-.16L23.26,16.51a3,3,0,0,0-3-2.51H14a3,3,0,0,0-3,3v3a1,1,0,0,0,2,0V17a1,1,0,0,1,1-1h6.31a1,1,0,0,1,1,.83L22.82,26H18.54l-1.11-1.66A3,3,0,0,0,14.93,23H4a1,1,0,0,0-1,1v3a1,1,0,0,0,2,0V25h9.93a1,1,0,0,1,.83.45l1.41,2.1A1,1,0,0,0,18,28h5v3.42a1,1,0,0,0,.6.91A4,4,0,0,1,22,40H6a4,4,0,0,1,0-8H20a1,1,0,0,0,0-2H6A6,6,0,0,0,6,42H22a6,6,0,0,0,3-11.2Z"/></g></svg>