<svg xmlns="http://www.w3.org/2000/svg" viewBox="0 0 44 44"><defs><style>.cls-1{fill:#fff;}</style></defs><title>cws-icon-hot-air-baloon</title><g id="hot_air_balloon"><path class="cls-1" d="M32.35,4.15A14.85,14.85,0,0,0,22.66,0l-.33,0-.1,0c-.32,0-.63,0-.95,0A15,15,0,0,0,9.9,23.85c2.06,2.8,4.32,6.07,5.13,9.39A1,1,0,0,0,16,34h3a1,1,0,0,0,1-1,38.46,38.46,0,0,0-1.88-10c-1-3.78-2.12-7.69-2.12-11.83C16,6.1,18.68,2,22,2h0l.73,0C25.63,2.39,28,6.4,28,11.12c0,4.14-1.08,8.05-2.12,11.83A43.48,43.48,0,0,0,24,32H23V5a1,1,0,0,0-2,0V37a1,1,0,0,0,1,1h3.82l-.53,3.16a1,1,0,0,1-1,.84H19.69a1,1,0,0,1-1-.84L18.17,38A1,1,0,0,0,19,37a1,1,0,0,0-1-1H17v0a.86.86,0,0,0-.16,0A1,1,0,0,0,16,37.16l.72,4.33a3,3,0,0,0,3,2.51h4.62a3,3,0,0,0,3-2.51L28,37.16a1,1,0,0,0-.23-.81A1,1,0,0,0,27,36H23V34h5a1,1,0,0,0,1-.77c.8-3.33,3.06-6.58,5.11-9.36A15,15,0,0,0,32.35,4.15ZM14,11.12c0,4.42,1.11,8.45,2.19,12.36A43.24,43.24,0,0,1,18,32H16.76c-1-3.39-3.23-6.58-5.25-9.33a13,13,0,0,1,4.8-19.36A13.57,13.57,0,0,0,14,11.12ZM32.48,22.68c-2,2.74-4.23,5.91-5.25,9.32H26a43.24,43.24,0,0,1,1.78-8.52C28.88,19.57,30,15.54,30,11.12a14.09,14.09,0,0,0-2.11-7.71A13,13,0,0,1,35,15,12.83,12.83,0,0,1,32.48,22.68Z"/></g></svg>