<svg xmlns="http://www.w3.org/2000/svg" viewBox="0 0 44 44"><defs><style>.cls-1{fill:#fff;}</style></defs><g id="drum"><path class="cls-1" d="M38,11.25a1,1,0,0,0-1.31,1.51A3.07,3.07,0,0,1,38,15c0,2.84-6.57,6-16,6-5.38,0-10.41-1.07-13.44-2.86a1,1,0,1,0-1,1.72C10.87,21.83,16.27,23,22,23c10.26,0,18-3.44,18-8A5,5,0,0,0,38,11.25Z"/><path class="cls-1" d="M43.87,4.51a1,1,0,0,0-1.36-.38l-8.64,4.8A34.33,34.33,0,0,0,22,7,34.33,34.33,0,0,0,10.13,8.93L1.49,4.13a1,1,0,1,0-1,1.74L17,15a2,2,0,1,0,2-2,2,2,0,0,0-1,.29l-5.48-3A34.66,34.66,0,0,1,22,9a34.78,34.78,0,0,1,9.51,1.24l-5.49,3A2,2,0,0,0,25,13a2,2,0,1,0,2,2L43.49,5.87A1,1,0,0,0,43.87,4.51Z"/><path class="cls-1" d="M39,20a1,1,0,0,0-1,1V32c0,2.84-6.57,6-16,6S6,34.84,6,32V15a3.07,3.07,0,0,1,1.29-2.24A1,1,0,0,0,6,11.24,5,5,0,0,0,4,15V32c0,4.56,7.74,8,18,8s18-3.44,18-8V21A1,1,0,0,0,39,20Z"/><path class="cls-1" d="M36,32a1,1,0,0,0,.51-.14,1,1,0,0,0,.35-1.37l-4.2-7a1,1,0,1,0-1.72,1l4.2,7A1,1,0,0,0,36,32Z"/><path class="cls-1" d="M23.88,36a1,1,0,0,0,.92-.61l4.24-10a1,1,0,1,0-1.84-.78L23,34.61a1,1,0,0,0,.53,1.31A1.09,1.09,0,0,0,23.88,36Z"/><path class="cls-1" d="M20.12,36a.91.91,0,0,0,.39-.08A1,1,0,0,0,21,34.61l-4.24-10a1,1,0,1,0-1.84.78l4.24,10A1,1,0,0,0,20.12,36Z"/><path class="cls-1" d="M7.49,31.86A1,1,0,0,0,8,32a1,1,0,0,0,.86-.49l4.2-7a1,1,0,1,0-1.72-1l-4.2,7A1,1,0,0,0,7.49,31.86Z"/></g></svg>