<svg id="Layer_1" data-name="Layer 1" xmlns="http://www.w3.org/2000/svg" viewBox="0 0 44 44"><defs><style>.cls-1{fill:#fff;}</style></defs><title>cws-icon-clamp</title><path class="cls-1" d="M35,39a2,2,0,0,0-1.72,1H30V31h1a1,1,0,0,0,1-1V25a1,1,0,0,0-1-1H30V19h1a1,1,0,0,0,.89-.55l1-2A1,1,0,0,0,33,16V15a1,1,0,0,0-1-1H26a1,1,0,0,0-1,1v1a1,1,0,0,0,.11.45l1,2A1,1,0,0,0,27,19h1v6a1,1,0,0,0,1,1h1v3H28v-.33a1,1,0,0,0-1.45-.89A25.08,25.08,0,0,1,16.25,30H16a7,7,0,0,1-7-7V9a7,7,0,0,1,7-7A20.73,20.73,0,0,1,26.63,4.94L31,7.57V8H26.83A3,3,0,0,0,24,6H16a3,3,0,0,0-3,3V23a3,3,0,0,0,3,3h9a1,1,0,0,0,0-2H16a1,1,0,0,1-1-1V9a1,1,0,0,1,1-1h8a1,1,0,0,1,1,1,1,1,0,0,0,1,1h7a1,1,0,0,0,0-2V7a1,1,0,0,0-.49-.86L27.66,3.23A22.68,22.68,0,0,0,16,0,9,9,0,0,0,7,9V23a9,9,0,0,0,9,9h.25A28.25,28.25,0,0,0,26,30.2a1,1,0,0,0,1,.8h1v9H24.72A2,2,0,0,0,23,39a2,2,0,0,0,0,4,2,2,0,0,0,1.72-1H28v1a1,1,0,0,0,2,0V42h3.28A2,2,0,0,0,35,43a2,2,0,0,0,0-4ZM27.12,16h3.76l-.5,1H27.62Z"/></svg>