<svg xmlns="http://www.w3.org/2000/svg" viewBox="0 0 44 44"><defs><style>.cls-1{fill:#fff;}</style></defs><g id="radio"><path class="cls-1" d="M38,19a3,3,0,0,0-3-3H9a3,3,0,0,0-3,3v2a3,3,0,0,0,3,3H35a3,3,0,0,0,3-3Zm-2,2a1,1,0,0,1-1,1H30V20a1,1,0,0,0-2,0v2H9a1,1,0,0,1-1-1V19a1,1,0,0,1,1-1H35a1,1,0,0,1,1,1Z"/><path class="cls-1" d="M35,26a3,3,0,1,0,3,3A3,3,0,0,0,35,26Zm0,4a1,1,0,1,1,1-1A1,1,0,0,1,35,30Z"/><path class="cls-1" d="M35,34a3,3,0,1,0,3,3A3,3,0,0,0,35,34Zm0,4a1,1,0,1,1,1-1A1,1,0,0,1,35,38Z"/><path class="cls-1" d="M7.29,39.71a1,1,0,0,0,1.42,0l12-12a1,1,0,0,0-1.42-1.42l-12,12A1,1,0,0,0,7.29,39.71Z"/><path class="cls-1" d="M7.29,33.71a1,1,0,0,0,1.42,0l6-6a1,1,0,0,0-1.42-1.42l-6,6A1,1,0,0,0,7.29,33.71Z"/><path class="cls-1" d="M8,29a1,1,0,0,0,.71-.29l1-1a1,1,0,0,0-1.42-1.42l-1,1a1,1,0,0,0,0,1.42A1,1,0,0,0,8,29Z"/><path class="cls-1" d="M25.29,37.29l-1,1a1,1,0,0,0,0,1.42,1,1,0,0,0,1.42,0l1-1a1,1,0,0,0-1.42-1.42Z"/><path class="cls-1" d="M26.71,26.29a1,1,0,0,0-1.42,0l-12,12a1,1,0,0,0,0,1.42,1,1,0,0,0,1.42,0l12-12A1,1,0,0,0,26.71,26.29Z"/><path class="cls-1" d="M26.71,32.29a1,1,0,0,0-1.42,0l-6,6a1,1,0,0,0,0,1.42,1,1,0,0,0,1.42,0l6-6A1,1,0,0,0,26.71,32.29Z"/><path class="cls-1" d="M39,12H13a1,1,0,0,0,0,2H39a1,1,0,0,1,1,1V41a1,1,0,0,1-1,1H5a1,1,0,0,1-1-1V15a1,1,0,0,1,1-1H9a1,1,0,0,0,1-1V11.74l22.6-7A3,3,0,1,0,32,2.87L8.71,10A1,1,0,0,0,8,11v1H5a3,3,0,0,0-3,3V41a3,3,0,0,0,3,3H39a3,3,0,0,0,3-3V15A3,3,0,0,0,39,12ZM35,2a1,1,0,1,1-1,1A1,1,0,0,1,35,2Z"/></g></svg>