<svg id="sheep" xmlns="http://www.w3.org/2000/svg" viewBox="0 0 44 44"><defs><style>.cls-1{fill:#fff;}</style></defs><path class="cls-1" d="M35.7,18.05A1,1,0,1,0,37,18.7,1,1,0,0,0,35.7,18.05Z"/><path class="cls-1" d="M41.94,17.09l-1.38-.92a1,1,0,0,0-1.39.28,1,1,0,0,0,.28,1.38l1.38.92A2.64,2.64,0,0,1,42,20.94a2.64,2.64,0,0,1-2.92,2.62l-5-.55a1,1,0,0,0-.78.24A1,1,0,0,0,33,24a4,4,0,0,1-.91,2.51,1,1,0,0,0-.19.92A1.85,1.85,0,0,1,32,28a2,2,0,0,1-2,2,1.86,1.86,0,0,1-.34,0,1,1,0,0,0-.92.33,5.06,5.06,0,0,1-6.09,1.12,1,1,0,0,0-1.16.17,5,5,0,0,1-7.6-.74,1,1,0,0,0-1.34-.29A2.93,2.93,0,0,1,11,31a3,3,0,0,1-3-3,2.37,2.37,0,0,1,.05-.44,1,1,0,0,0-.44-1,1,1,0,0,0-1.07,0,3,3,0,0,1-.8.34,1,1,0,0,0-.74,1V36.5a2.5,2.5,0,0,0,5,0v-.93a1,1,0,0,1,.68-.86A5,5,0,0,0,13,32.94a7,7,0,0,0,9.31.54A7.07,7.07,0,0,0,25,34a6.63,6.63,0,0,0,1-.08V36.5a2.5,2.5,0,0,0,5,0V34.16l.89-2.67A4,4,0,0,0,34,28a3.44,3.44,0,0,0-.06-.63,6,6,0,0,0,1-2.26l4,.44a4.66,4.66,0,0,0,3.6-1.16,4.63,4.63,0,0,0-.52-7.3ZM8,35.57v.93a.5.5,0,0,1-1,0V31a5,5,0,0,0,2.88,1.87A2.92,2.92,0,0,0,8,35.57ZM29,34v2.5a.5.5,0,0,1-1,0V33.31a7,7,0,0,0,1.5-1l-.45,1.35A1.19,1.19,0,0,0,29,34Z"/><path class="cls-1" d="M5.09,15.69A3,3,0,0,1,5,15a3,3,0,0,1,3-3,3,3,0,0,1,1.54.44,1,1,0,0,0,1.07,0,1,1,0,0,0,.43-1A2.71,2.71,0,0,1,11,11a3,3,0,0,1,4.49-2.59,1,1,0,0,0,1.08-.05l.1-.08A5,5,0,0,1,20,7a5,5,0,0,1,3.91,1.9A1,1,0,0,0,25.36,9a3.94,3.94,0,0,1,6.09,1,1,1,0,0,0,.64.47,1,1,0,0,0,.79-.15A2,2,0,0,1,34,10a2,2,0,0,1,1.88,1.35A1.1,1.1,0,0,0,37,12a1,1,0,0,1,0,2H36a5,5,0,0,0-5,5,1,1,0,0,0,2,0,3,3,0,0,1,3-3h1a3,3,0,0,0,.47-6A4,4,0,0,0,34,8a3.84,3.84,0,0,0-1.35.24,5.93,5.93,0,0,0-7.83-1.31,7,7,0,0,0-9-.56A4.7,4.7,0,0,0,14,6a5,5,0,0,0-4.92,4.12A5,5,0,0,0,3,15v.13A4,4,0,0,0,0,19a4,4,0,0,0,.77,2.35A5,5,0,0,0,0,24a5,5,0,0,0,1.69,3.75,1,1,0,0,0,.66.25,1,1,0,0,0,.75-.34A1,1,0,0,0,3,26.25,3,3,0,0,1,2.81,22a1,1,0,0,0-.09-1.45A2,2,0,0,1,4,17a1,1,0,0,0,.58-.18l.11-.09A1,1,0,0,0,5.09,15.69Z"/><path class="cls-1" d="M20,14a2,2,0,0,1-2-2,1,1,0,0,0-2,0,4,4,0,0,0,4,4,1,1,0,0,0,0-2Z"/><path class="cls-1" d="M19.39,20.21a4,4,0,0,1-4.78,0,1,1,0,0,0-1-.11A1,1,0,0,0,13,21a2,2,0,0,1-2,2,1,1,0,0,0,0,2,4,4,0,0,0,3.69-2.46,6,6,0,0,0,5.92-.75,1,1,0,0,0-1.22-1.58Z"/><path class="cls-1" d="M27.39,25.21a4,4,0,0,1-4.78,0,1,1,0,1,0-1.22,1.58,6,6,0,0,0,7.22,0,1,1,0,1,0-1.22-1.58Z"/></svg>