<svg xmlns="http://www.w3.org/2000/svg" viewBox="0 0 44 44"><defs><style>.cls-1{fill:#fff;}</style></defs><title>cws-icon-court</title><g id="court"><path class="cls-1" d="M19.35,36.27A3,3,0,0,0,16.44,34H3.56A3,3,0,0,0,.65,36.27L0,38.76a1,1,0,0,0,.18.86A1,1,0,0,0,1,40H19a1,1,0,0,0,.79-.38,1,1,0,0,0,.18-.86ZM2.28,38l.31-1.24a1,1,0,0,1,1-.76H16.44a1,1,0,0,1,1,.76L17.72,38Z"/><path class="cls-1" d="M41,13H24a1,1,0,0,0-2,0H16V9.82A3,3,0,0,0,18,7V5a1,1,0,0,0-1-1H3A1,1,0,0,0,2,5V7A3,3,0,0,0,4,9.83V24.17A3,3,0,0,0,2,27v2a1,1,0,0,0,1,1H17a1,1,0,0,0,1-1V27a3,3,0,0,0-2-2.82V24a1,1,0,0,0-2,0H9a1,1,0,0,0,0,2h6a1,1,0,0,1,1,1v1H4V27a1,1,0,0,1,1-1,1,1,0,0,0,1-1V9A1,1,0,0,0,5,8,1,1,0,0,1,4,7V6H16V7a1,1,0,0,1-1,1H9a1,1,0,0,0,0,2h5V20a1,1,0,0,0,1,1h7a1,1,0,0,0,2,0H41a3,3,0,0,0,3-3V16A3,3,0,0,0,41,13ZM16,19V15h6v4Zm26-1a1,1,0,0,1-1,1H24V15H41a1,1,0,0,1,1,1Z"/></g></svg>