<svg xmlns="http://www.w3.org/2000/svg" viewBox="0 0 44 44"><defs><style>.cls-1{fill:#fff;}</style></defs><g id="notre_dame_de_paris"><path class="cls-1" d="M22,32a3,3,0,1,0-3-3A3,3,0,0,0,22,32Zm0-4a1,1,0,1,1-1,1A1,1,0,0,1,22,28Z"/><path class="cls-1" d="M31,28v2a1,1,0,0,0,2,0V28a1,1,0,0,0-2,0Z"/><path class="cls-1" d="M35,28v2a1,1,0,0,0,2,0V28a1,1,0,0,0-2,0Z"/><path class="cls-1" d="M9,30V28a1,1,0,0,0-2,0v2a1,1,0,0,0,2,0Z"/><path class="cls-1" d="M13,30V28a1,1,0,0,0-2,0v2a1,1,0,0,0,2,0Z"/><path class="cls-1" d="M3,6v7a1,1,0,0,0,2,0V6H15v7a1,1,0,0,0,2,0V6a1,1,0,0,0,0-2V1a1,1,0,0,0-1-1H4A1,1,0,0,0,3,1V4A1,1,0,0,0,3,6ZM5,2H15V4H5Z"/><path class="cls-1" d="M27,6v7a1,1,0,0,0,2,0V6H39v7a1,1,0,0,0,2,0V6a1,1,0,0,0,0-2V1a1,1,0,0,0-1-1H28a1,1,0,0,0-1,1V4a1,1,0,0,0,0,2Zm2-4H39V4H29Z"/><path class="cls-1" d="M43,42H41V28a1,1,0,0,0-2,0V42H37V38.24a4.06,4.06,0,0,0-1.17-2.83l-1.12-1.12a1,1,0,0,0-1.42,0l-1.12,1.12A4.06,4.06,0,0,0,31,38.24V42H29V25H41a1,1,0,0,0,0-2V18a1,1,0,0,0,0-2H37V8a1,1,0,0,0-2,0v8H33V8a1,1,0,0,0-2,0v8H13V8a1,1,0,0,0-2,0v8H9V8A1,1,0,0,0,7,8v8H3a1,1,0,0,0,0,2v5a1,1,0,0,0,0,2H15V42H12.88V38.24a4.06,4.06,0,0,0-1.17-2.83l-1.12-1.12a1,1,0,0,0-1.42,0L8.05,35.41a4.06,4.06,0,0,0-1.17,2.83V42H5V28a1,1,0,0,0-2,0V42H1a1,1,0,0,0,0,2H43a1,1,0,0,0,0-2ZM39,23H37V21a1,1,0,0,0-2,0v2H33V21a1,1,0,0,0-2,0v2H29V18H39ZM27,23H25V21a1,1,0,0,0-2,0v2H21V21a1,1,0,0,0-2,0v2H17V18H27ZM13,23V21a1,1,0,0,0-2,0v2H9V21a1,1,0,0,0-2,0v2H5V18H15v5ZM8.88,42V38.24a2,2,0,0,1,.58-1.41l.42-.42.41.42a2,2,0,0,1,.59,1.41V42ZM17,28V25H27V42H26V37.61a4,4,0,0,0-1.78-3.33l-1.67-1.11a1,1,0,0,0-1.1,0l-1.67,1.11A4,4,0,0,0,18,37.61V42H17Zm3,14V37.61a2,2,0,0,1,.89-1.67L22,35.2l1.11.74A2,2,0,0,1,24,37.61V42Zm13,0V38.24a2,2,0,0,1,.59-1.41l.41-.42.41.42A2,2,0,0,1,35,38.24V42Z"/></g></svg>