<svg id="launch" xmlns="http://www.w3.org/2000/svg" viewBox="0 0 44 44"><defs><style>.cls-1{fill:#fff;}</style></defs><title>cws-icon-launch</title><path class="cls-1" d="M13,25a1,1,0,0,0,1,1h2v1a1,1,0,0,0,2,0V26h3v1a1,1,0,0,0,2,0V26h3v1a1,1,0,0,0,2,0V26h2a1,1,0,0,0,1-1V22.82a4.07,4.07,0,0,0-.57-2.06l-2-3.33A3,3,0,0,1,28,15.88V8.44a5,5,0,0,0-1.16-3.2L22.77.35a1,1,0,0,0-1.54,0L17.16,5.24A5,5,0,0,0,16,8.44v7.44a3,3,0,0,1-.43,1.55l-2,3.33A4.07,4.07,0,0,0,13,22.82Zm2-2.17a2,2,0,0,1,.29-1l2-3.33A5.08,5.08,0,0,0,18,15.88V8.44a3,3,0,0,1,.7-1.92l3.3-4,3.3,4A3,3,0,0,1,26,8.44v7.44a5.08,5.08,0,0,0,.71,2.58l2,3.33a2,2,0,0,1,.29,1V24H23V21a1,1,0,1,0-2,0v3H15Z"/><path class="cls-1" d="M22,17a3,3,0,1,0-3-3A3,3,0,0,0,22,17Zm0-4a1,1,0,1,1-1,1A1,1,0,0,1,22,13Z"/><path class="cls-1" d="M32,12h7a1,1,0,0,1,1,1V35a1,1,0,1,0,2,0V13a3,3,0,0,0-3-3H32a1,1,0,0,0,0,2Z"/><path class="cls-1" d="M43,38H7a1,1,0,0,0,0,2H42v1a1,1,0,0,1-1,1H3a1,1,0,0,1-1-1V40H3a1,1,0,0,0,1-1V13a1,1,0,0,1,1-1h7a1,1,0,0,0,0-2H5a3,3,0,0,0-3,3V38H1a1,1,0,0,0-1,1v2a3,3,0,0,0,3,3H41a3,3,0,0,0,3-3V39A1,1,0,0,0,43,38Z"/><path class="cls-1" d="M32,15h5V26.1a5,5,0,0,0-3.92,4,5,5,0,0,0-3.32,2.28A6,6,0,0,0,25,30a1,1,0,0,0,0,2,4,4,0,0,1,3.86,3H15.14A4,4,0,0,1,19,32a1,1,0,0,0,0-2,6,6,0,0,0-4.76,2.37,5,5,0,0,0-3.32-2.28A5,5,0,0,0,7,26.1V15h5a1,1,0,0,0,0-2H6a1,1,0,0,0-1,1V36a1,1,0,0,0,1,1H38a1,1,0,0,0,1-1V14a1,1,0,0,0-1-1H32a1,1,0,0,0,0,2ZM7,28.18A3,3,0,0,1,9,31a1,1,0,0,0,1,1,3,3,0,0,1,3,3H7ZM37,35H31a3,3,0,0,1,3-3,1,1,0,0,0,1-1,3,3,0,0,1,2-2.81Z"/></svg>