<svg xmlns="http://www.w3.org/2000/svg" viewBox="0 0 44 44"><defs><style>.cls-1{fill:#fff;}</style></defs><title>cws-icon-home-sale</title><g id="home_sale"><circle class="cls-1" cx="34" cy="14" r="1"/><circle class="cls-1" cx="34" cy="18" r="1"/><circle class="cls-1" cx="34" cy="22" r="1"/><path class="cls-1" d="M23.62,12.22a1,1,0,0,0-1.24,0l-5,4a1,1,0,0,0-.32,1.11A1,1,0,0,0,18,18v5a1,1,0,0,0,1,1h8a1,1,0,0,0,1-1V18a1,1,0,0,0,.63-1.78ZM26,17v5H20V17a.92.92,0,0,0,0-.29l3-2.43,3,2.43A.92.92,0,0,0,26,17Z"/><path class="cls-1" d="M42,4H9V3A3,3,0,0,0,3,3V42H2a1,1,0,0,0,0,2H27a1,1,0,0,0,0-2H23.9A5,5,0,0,0,19,38a4.94,4.94,0,0,0-1.78.34A7,7,0,0,0,5.08,42H5V3A1,1,0,0,1,7,3V34a1,1,0,0,0,2,0V6h8V8H16a3,3,0,0,0-3,3V25a3,3,0,0,0,3,3H38a3,3,0,0,0,3-3V11a3,3,0,0,0-3-3H37V6h5a1,1,0,0,0,0-2ZM12,38a5,5,0,0,1,4.11,2.16,1,1,0,0,0,1.34.29A2.93,2.93,0,0,1,19,40a3,3,0,0,1,2.82,2H7.1A5,5,0,0,1,12,38ZM36,10h2a1,1,0,0,1,1,1V25a1,1,0,0,1-1,1H16a1,1,0,0,1-1-1V11a1,1,0,0,1,1-1H32a1,1,0,0,0,0-2H19V6H35V9A1,1,0,0,0,36,10Z"/></g></svg>