<svg xmlns="http://www.w3.org/2000/svg" viewBox="0 0 44 44"><defs><style>.cls-1{fill:#fff;}</style></defs><g id="bacteria"><circle class="cls-1" cx="14" cy="17" r="1"/><circle class="cls-1" cx="19" cy="19" r="1"/><circle class="cls-1" cx="18" cy="12" r="1"/><path class="cls-1" d="M39,25a1,1,0,0,0-1,1,4,4,0,0,1-4,4,7,7,0,0,0-7,7,5,5,0,0,1-10,0V36a1,1,0,0,0-1-1,7,7,0,0,1-7-7V12a7,7,0,0,1,14,0V28a7,7,0,0,1-3.5,6.06,1,1,0,0,0-.37,1.37l1.5,2.6a1,1,0,0,0,1.74-1l-1-1.78a9.29,9.29,0,0,0,1.89-1.92l1.8,1A1,1,0,0,0,26.39,34,1,1,0,0,0,26,32.63l-1.8-1A9.34,9.34,0,0,0,25,28.74L27.32,28a1,1,0,1,0-.64-1.9L25,26.61V24h2a1,1,0,0,0,0-2H25V17.72L27.32,17a1,1,0,1,0-.64-1.9L25,15.61V13h2a1,1,0,0,0,0-2H24.94a8.69,8.69,0,0,0-.7-2.6l1.79-1a1,1,0,0,0-1-1.74l-1.8,1a8.56,8.56,0,0,0-1.9-1.9l1-1.8a1,1,0,0,0-1.74-1l-1,1.79a8.69,8.69,0,0,0-2.6-.7V1a1,1,0,0,0-2,0V3.06a8.78,8.78,0,0,0-2.79.79l-2-2.07a1,1,0,0,0-1.41,0,1,1,0,0,0,0,1.42l1.68,1.75A8.76,8.76,0,0,0,8.77,6.67L7,5.63A1,1,0,0,0,6,7.37l1.79,1a8.69,8.69,0,0,0-.7,2.6H5a1,1,0,0,0,0,2H7v3.28l-2.32.77a1,1,0,0,0-.63,1.27A1,1,0,0,0,5,19,1.25,1.25,0,0,0,5.32,19L7,18.39V22H5a1,1,0,0,0,0,2H7v2.61l-1.68-.56A1,1,0,1,0,4.68,28L7,28.73a9.12,9.12,0,0,0,.73,2.87L6,32.63A1,1,0,0,0,5.61,34,1,1,0,0,0,7,34.37l1.79-1a9.29,9.29,0,0,0,2,2L9.58,38.14a1,1,0,0,0,.92,1.39,1,1,0,0,0,.92-.62l1.09-2.62a8.71,8.71,0,0,0,2.49.65V37a7,7,0,0,0,14,0,5,5,0,0,1,5-5,6,6,0,0,0,6-6A1,1,0,0,0,39,25Z"/><path class="cls-1" d="M11,26a4,4,0,1,0,4-4A4,4,0,0,0,11,26Zm4-2a2,2,0,1,1-2,2A2,2,0,0,1,15,24Z"/></g></svg>