<svg xmlns="http://www.w3.org/2000/svg" viewBox="0 0 44 44"><defs><style>.cls-1{fill:#fff;}</style></defs><g id="gramophone"><path class="cls-1" d="M4.27,26a3.26,3.26,0,0,0,1.92-.64l2.61-2A32.17,32.17,0,0,1,28,17h7a2,2,0,0,1,0,4H30a6,6,0,0,0-6,6,1,1,0,0,0,2,0,4,4,0,0,1,4-4h5a4,4,0,0,0,0-8V12a6,6,0,0,1,0,12H30a3,3,0,0,0-3,3,1,1,0,0,0,2,0,1,1,0,0,1,1-1h5a8,8,0,0,0,0-16H29A32,32,0,0,1,8.46,2.58L6.25.74A3.2,3.2,0,0,0,1,3.2V22.8A3.22,3.22,0,0,0,4.27,26ZM3,3.2a1.2,1.2,0,0,1,2-.92L7.18,4.12A34.08,34.08,0,0,0,29,12H33v3H28A34.25,34.25,0,0,0,7.6,21.8L5,23.76A1.32,1.32,0,0,1,4.2,24,1.2,1.2,0,0,1,3,22.8Z"/><path class="cls-1" d="M40,30H2a1,1,0,0,0-1,1,4.22,4.22,0,0,0,2.34,3.79l.21.1A1,1,0,0,0,4,35H34a1,1,0,0,0,0-2H4.24a2.27,2.27,0,0,1-1-1H39v.4A4.22,4.22,0,0,0,37,36v1a1,1,0,0,0,2,0V36a2.22,2.22,0,0,1,1.24-2l.21-.11A1,1,0,0,0,41,33V31A1,1,0,0,0,40,30Z"/><path class="cls-1" d="M38.66,39.21l-.21-.1A1,1,0,0,0,38,39H8a1,1,0,0,0,0,2H37.76a2.27,2.27,0,0,1,1,1H3.23a2.27,2.27,0,0,1,1-1l.21-.11A1,1,0,0,0,5,40V37a1,1,0,0,0-2,0v2.4A4.22,4.22,0,0,0,1,43a1,1,0,0,0,1,1H40a1,1,0,0,0,1-1A4.22,4.22,0,0,0,38.66,39.21Z"/></g></svg>