<svg xmlns="http://www.w3.org/2000/svg" viewBox="0 0 44 44"><defs><style>.cls-1{fill:#fff;}</style></defs><title>cws-icon-console</title><g id="console"><circle class="cls-1" cx="12" cy="21" r="1"/><circle class="cls-1" cx="33" cy="21" r="1"/><path class="cls-1" d="M41,15H20a4.15,4.15,0,0,0,1-2.69,4.11,4.11,0,0,0-1.22-2.94L18.63,8.22A2.14,2.14,0,0,1,18,6.69V2a1,1,0,0,0-1-1H13.07a1,1,0,0,0-1,1V6.69a2.14,2.14,0,0,1-.63,1.53L10.29,9.37A4.14,4.14,0,0,0,10.07,15H3a3,3,0,0,0-3,3v6a3,3,0,0,0,3,3H30a1,1,0,0,0,0-2H23V17H41a1,1,0,0,1,1,1v6a1,1,0,0,1-1,1H34a1,1,0,0,0-1,1v1a11.77,11.77,0,0,0,1.69,6.09l3.42,5.71A6.22,6.22,0,0,1,39,42a1,1,0,0,0,2,0,8.29,8.29,0,0,0-1.17-4.23L36.4,32.06A9.82,9.82,0,0,1,35,27h6a3,3,0,0,0,3-3V18A3,3,0,0,0,41,15Zm-29-.89a2.15,2.15,0,0,1-.33-3.33l1.15-1.15a4.14,4.14,0,0,0,1.21-2.94V3H16V6.69a4.11,4.11,0,0,0,1.22,2.94l1.15,1.15A2.14,2.14,0,0,1,19,12.31a2.18,2.18,0,0,1-1,1.8L16.7,15H13.38ZM21,25H3a1,1,0,0,1-1-1V18a1,1,0,0,1,1-1H21Z"/><path class="cls-1" d="M31,29H9.58a1,1,0,0,0-1,.72,10,10,0,0,1-1,2.34L4.17,37.77A8.29,8.29,0,0,0,3,42a1,1,0,0,0,2,0,6.22,6.22,0,0,1,.89-3.2l3.42-5.71a11.42,11.42,0,0,0,1-2.09H31a1,1,0,0,0,0-2Z"/></g></svg>