<svg xmlns="http://www.w3.org/2000/svg" viewBox="0 0 44 44"><defs><style>.cls-1{fill:#fff;}</style></defs><title>cws-icon-cone</title><g id="cone"><path class="cls-1" d="M11.9,28a1.15,1.15,0,0,0,.26,0,1,1,0,0,0,1-.75L15.56,18H25a1,1,0,0,0,0-2H16.09L19.57,2.75a1,1,0,0,1,1-.75h2.92a1,1,0,0,1,1,.75l1.18,4.5a1,1,0,0,0,1.94-.5L26.36,2.24A3,3,0,0,0,23.46,0H20.54a3,3,0,0,0-2.9,2.24L11.19,26.75A1,1,0,0,0,11.9,28Z"/><path class="cls-1" d="M39,38H13a1,1,0,0,0,0,2H39a1,1,0,0,1,1,1v1H4V41a1,1,0,0,1,1-1H9a1,1,0,0,0,1-.75L11.88,32H29a1,1,0,0,0,0-2H11.11a1,1,0,0,0-1,.75L8.23,38H5a3,3,0,0,0-3,3v2a1,1,0,0,0,1,1H41a1,1,0,0,0,1-1V41A3,3,0,0,0,39,38Z"/><path class="cls-1" d="M19,11a1,1,0,0,0,1,1h6.86L30,24H17a1,1,0,0,0,0,2H30.55L33,35.25A1,1,0,0,0,34,36a1.07,1.07,0,0,0,.25,0,1,1,0,0,0,.71-1.22l-6.31-24a1,1,0,0,0-1-.75H20A1,1,0,0,0,19,11Z"/></g></svg>