<svg xmlns="http://www.w3.org/2000/svg" viewBox="0 0 44 44"><defs><style>.cls-1{fill:#fff;}</style></defs><title>cws-icon-stamp</title><g id="stamp"><path class="cls-1" d="M35,30H29V29a3,3,0,0,0-3-3V15.21a6.19,6.19,0,0,1,1.47-3.85,6.94,6.94,0,0,0,1.44-5.48A7,7,0,0,0,15,7a7,7,0,0,0,1,3.61,12.65,12.65,0,0,1,2,6.57V26a3,3,0,0,0-3,3v1H9a5,5,0,0,0-5,5v2a3,3,0,0,0,3,3v3a1,1,0,0,0,1,1H36a1,1,0,0,0,1-1V39a1,1,0,0,0-1-1H7a1,1,0,0,1-1-1V35a3,3,0,0,1,3-3h7a1,1,0,0,0,1-1V29a1,1,0,0,1,1-1h3a1,1,0,0,0,0-2H20V17.18a14.62,14.62,0,0,0-2.28-7.6A5,5,0,0,1,22.61,2a5.06,5.06,0,0,1,4.33,4.16,5,5,0,0,1-1,3.92A8.17,8.17,0,0,0,24,15.21V27a1,1,0,0,0,1,1h1a1,1,0,0,1,1,1v1H20a1,1,0,0,0,0,2H35a3,3,0,0,1,3,3v2a1,1,0,0,0,2,0V35A5,5,0,0,0,35,30ZM9,40H35v2H9Z"/></g></svg>