<svg xmlns="http://www.w3.org/2000/svg" viewBox="0 0 44 44"><defs><style>.cls-1{fill:#fff;}</style></defs><g id="key"><path class="cls-1" d="M43.58,12.39A7,7,0,0,0,36,8a6.89,6.89,0,0,0-.24-3.11A6.82,6.82,0,0,0,31.6.42,7.31,7.31,0,0,0,25,1.34,6.81,6.81,0,0,0,22,6.87v9.47a3,3,0,0,1-.88,2.12L.92,38.67a3.12,3.12,0,0,0,4.41,4.42l1-1a1,1,0,0,1,1.42,0l1,1A3.13,3.13,0,0,0,14,40.88a3.15,3.15,0,0,0-.91-2.21L11.42,37,13,35.41l3.67,3.68A3.13,3.13,0,0,0,22,36.88a3.15,3.15,0,0,0-.91-2.21l-3-3a1,1,0,0,0-1.41,0,1,1,0,0,0,0,1.41l3,3a1.14,1.14,0,0,1,.33.8,1.12,1.12,0,0,1-1.91.79l-4.38-4.38a1,1,0,0,0-1.42,0l-3,3a1,1,0,0,0,0,1.42l2.38,2.38a1.1,1.1,0,0,1,.33.79,1.12,1.12,0,0,1-1.91.79l-1-1a3.06,3.06,0,0,0-4.24,0l-1,1a1.14,1.14,0,0,1-.8.33A1.12,1.12,0,0,1,2,40.88a1.1,1.1,0,0,1,.33-.79L22.54,19.88A5,5,0,0,0,24,16.34V6.87A4.82,4.82,0,0,1,26.11,3a5.2,5.2,0,0,1,4.82-.66A4.94,4.94,0,0,1,33.63,9a1.06,1.06,0,0,0-.09.39A3,3,0,0,0,32,9a3,3,0,1,0,3,3,3,3,0,0,0-.43-1.54,1.06,1.06,0,0,0,.39-.09,4.94,4.94,0,0,1,6.73,2.7A5.2,5.2,0,0,1,41,17.89,4.81,4.81,0,0,1,37.14,20H27.66a5,5,0,0,0-3.54,1.46l-6.83,6.83a1,1,0,0,0,1.42,1.42l6.83-6.83A3,3,0,0,1,27.66,22h9.49a6.79,6.79,0,0,0,5.51-2.95A7.33,7.33,0,0,0,43.58,12.39ZM32,13a1,1,0,1,1,1-1A1,1,0,0,1,32,13Z"/></g></svg>