<svg xmlns="http://www.w3.org/2000/svg" viewBox="0 0 44 44"><defs><style>.cls-1{fill:#fff;}</style></defs><g id="ipod"><path class="cls-1" d="M5,33a7,7,0,1,0,7-7A7,7,0,0,0,5,33Zm12,0a5,5,0,1,1-5-5A5,5,0,0,1,17,33Z"/><path class="cls-1" d="M20,23V13a1,1,0,0,0-1-1H5a1,1,0,0,0-1,1V23a1,1,0,0,0,1,1H19A1,1,0,0,0,20,23Zm-2-1H6V14H18Z"/><path class="cls-1" d="M44,9a3,3,0,1,0-4,2.82V21a3,3,0,0,1-3,3,3.91,3.91,0,0,0-2,.56V5.82a3,3,0,1,0-2,0V40a2,2,0,0,1-4,0V5A5,5,0,0,0,19,5V7a1,1,0,0,0-1,1V9a1,1,0,0,0,1,1h2a1,1,0,0,1,1,1V41a1,1,0,0,1-1,1H3a1,1,0,0,1-1-1V11a1,1,0,0,1,1-1H15a1,1,0,0,0,0-2H3a3,3,0,0,0-3,3V41a3,3,0,0,0,3,3H21a3,3,0,0,0,3-3V11a3,3,0,0,0-2-2.83A1,1,0,0,0,22,8a1,1,0,0,0-1-1V5a3,3,0,0,1,6,0V40a4,4,0,0,0,8,0V28a2,2,0,0,1,2-2,5,5,0,0,0,5-5V11.82A3,3,0,0,0,44,9ZM34,2a1,1,0,1,1-1,1A1,1,0,0,1,34,2Zm7,8a1,1,0,1,1,1-1A1,1,0,0,1,41,10Z"/><path class="cls-1" d="M9,33a3,3,0,1,0,3-3A3,3,0,0,0,9,33Zm4,0a1,1,0,1,1-1-1A1,1,0,0,1,13,33Z"/></g></svg>