<svg xmlns="http://www.w3.org/2000/svg" viewBox="0 0 44 44"><defs><style>.cls-1{fill:#fff;}</style></defs><g id="itsukushima"><path class="cls-1" d="M39.87,11a141.81,141.81,0,0,1-17.79,1h-.16A141.81,141.81,0,0,1,4.13,11a1,1,0,0,0-.26,2c1.28.17,2.67.32,4.13.45V16H5a1,1,0,0,0,0,2H8v2a1,1,0,0,0,0,2v.93A98.5,98.5,0,0,1,7.12,36H5a1,1,0,0,0,0,2H24a1,1,0,0,0,0-2H13.88A99.33,99.33,0,0,1,13,25a1,1,0,0,0-1-1,1,1,0,0,0-1,1,103.4,103.4,0,0,0,.83,11H9.15A102,102,0,0,0,10,22.93V22h3a1,1,0,0,0,0-2V18H31v2a1,1,0,0,0,0,2v.93A98.5,98.5,0,0,1,30.12,36H28a1,1,0,0,0,0,2H39a1,1,0,0,0,0-2H36.88A99.33,99.33,0,0,1,36,25a1,1,0,1,0-2,0,103.4,103.4,0,0,0,.83,11h-2.7A102,102,0,0,0,33,22.93V22h3a1,1,0,0,0,0-2V18h3a1,1,0,0,0,0-2H36V13.44c1.46-.13,2.85-.28,4.13-.45a1,1,0,0,0-.26-2ZM10,13.6l1,.06V16H10ZM11,20H10V18h1Zm2-6.22c1.95.09,4,.16,6,.19v2H13ZM21,16V14h2v2Zm4,0V14c2,0,4.05-.1,6-.19V16Zm9,4H33V18h1Zm0-4H33V13.66l1-.06Z"/><path class="cls-1" d="M43.62,6.22a1,1,0,0,0-.84-.2A99.28,99.28,0,0,1,22,8,97.51,97.51,0,0,1,1.23,6a1,1,0,0,0-.85.19A1,1,0,0,0,0,7V9A1,1,0,0,0,2,9V8.25A100.72,100.72,0,0,0,21.81,10H22A105.33,105.33,0,0,0,42,8.24V9a1,1,0,0,0,2,0V7A1,1,0,0,0,43.62,6.22Z"/></g></svg>