<svg xmlns="http://www.w3.org/2000/svg" viewBox="0 0 44 44"><defs><style>.cls-1{fill:#fff;}</style></defs><title>cws-icon-bulb-saver</title><g id="bulb_saver"><path class="cls-1" d="M31.17,14.47a3.55,3.55,0,0,0-3.63,0l-12.16,7.3a1.57,1.57,0,0,1-1.62-2.7L31.27,8.61A3.59,3.59,0,0,0,33,5.54a3.57,3.57,0,0,0-5.41-3.06L15.38,9.81a1.57,1.57,0,0,1-1.62-2.7l8.75-5.25a1,1,0,1,0-1-1.72L12.73,5.39A3.59,3.59,0,0,0,11,8.46a3.57,3.57,0,0,0,5.41,3.06L28.62,4.2a1.52,1.52,0,0,1,1.58,0A1.54,1.54,0,0,1,31,5.54a1.58,1.58,0,0,1-.76,1.35L12.73,17.39A3.59,3.59,0,0,0,11,20.46a3.57,3.57,0,0,0,5.41,3.06l12.16-7.29a1.6,1.6,0,0,1,1.71,2.71l-3.05,2A5,5,0,0,0,25,25.14V31a1,1,0,0,0,1,1h.38l-.85,1.71A5,5,0,0,0,25,35.94v3.35a.67.67,0,0,1-.21.5A2.69,2.69,0,0,0,24,41.71V42H20v-.29a2.69,2.69,0,0,0-.79-1.92.67.67,0,0,1-.21-.5V37h3a1,1,0,0,0,0-2H18.9a4.56,4.56,0,0,0-.43-1.29L17.62,32H22a1,1,0,0,0,0-2H16a1,1,0,0,0-.89,1.45l1.57,3.15A3,3,0,0,1,17,35.94v3.35a2.69,2.69,0,0,0,.79,1.92.67.67,0,0,1,.21.5V43a1,1,0,0,0,1,1h6a1,1,0,0,0,1-1V41.71a.67.67,0,0,1,.21-.5A2.69,2.69,0,0,0,27,39.29V35.94a3,3,0,0,1,.32-1.34l1.57-3.15A1,1,0,0,0,28,30H27V25.14a3,3,0,0,1,1.34-2.5l3.05-2a3.61,3.61,0,0,0,1.61-3A3.54,3.54,0,0,0,31.17,14.47Z"/><path class="cls-1" d="M19,27V25a1,1,0,0,0-2,0v2a1,1,0,0,0,2,0Z"/></g></svg>