<svg xmlns="http://www.w3.org/2000/svg" viewBox="0 0 44 44"><defs><style>.cls-1{fill:#fff;}</style></defs><title>cws-icon-scales</title><g id="scales"><path class="cls-1" d="M42,23H36a1,1,0,0,0,0,2h5a4,4,0,0,1-8,0v-.81l4-10.4,2.53,6.57a1,1,0,1,0,1.87-.72L38.84,13H40a1,1,0,0,0,0-2H38.44c-.13,0-.25,0-.38,0l-.13-.33a1,1,0,0,0-1.86,0l0,.08a11.55,11.55,0,0,1-3.48-1.35A9.73,9.73,0,0,0,25,8.4a3.94,3.94,0,0,0-2-1.26V1a1,1,0,0,0-2,0V7.14A3.94,3.94,0,0,0,19,8.4a9.73,9.73,0,0,0-7.55,1A11.55,11.55,0,0,1,8,10.72l0-.08a1,1,0,0,0-1.86,0L5.94,11c-.13,0-.25,0-.38,0H4a1,1,0,0,0,0,2H5.16L1.07,23.64A.92.92,0,0,0,1,24v1a6,6,0,0,0,12,0V24a1,1,0,0,0-1-1H6a1,1,0,0,0,0,2h5a4,4,0,0,1-8,0v-.81l4-10.4,2.53,6.57a1,1,0,1,0,1.87-.72l-2.71-7a13.65,13.65,0,0,0,3.78-1.53,7.7,7.7,0,0,1,5.61-.86A3.92,3.92,0,0,0,19.32,14L18.23,34.48a5,5,0,0,1-2.73,4.2l-2,1A2.64,2.64,0,0,0,12,42a1,1,0,0,0,0,2H32a1,1,0,0,0,0-2,2.64,2.64,0,0,0-1.47-2.29l-2-1a5,5,0,0,1-2.73-4.2L24.89,18a1,1,0,1,0-2,.1l.87,16.54a7,7,0,0,0,3.82,5.87l2.1,1.07A.65.65,0,0,1,30,42H14a.67.67,0,0,1,.37-.5l2-1a7,7,0,0,0,3.82-5.87l1-19.66A4.4,4.4,0,0,0,22,15a4,4,0,0,0,4-4,3.94,3.94,0,0,0-.08-.77,7.7,7.7,0,0,1,5.61.86,13.65,13.65,0,0,0,3.78,1.53l-4.24,11A.92.92,0,0,0,31,24v1a6,6,0,0,0,12,0V24A1,1,0,0,0,42,23ZM22,13a2,2,0,1,1,2-2A2,2,0,0,1,22,13Z"/></g></svg>