<svg xmlns="http://www.w3.org/2000/svg" viewBox="0 0 44 44"><defs><style>.cls-1{fill:#fff;}</style></defs><title>cws-icon-pie-chart</title><g id="pie_chart"><path class="cls-1" d="M23,21a1,1,0,0,0,1-1V3A17,17,0,0,1,40,19H27a1,1,0,0,0,0,2H41a1,1,0,0,0,1-1A19,19,0,0,0,23,1a1,1,0,0,0-1,1V20A1,1,0,0,0,23,21Z"/><path class="cls-1" d="M20,23.59V10a1,1,0,0,0-2,0V24a1,1,0,0,0,.29.71l12,12A17,17,0,1,1,19,7a1,1,0,0,0,0-2A19,19,0,1,0,32.44,37.44a1,1,0,0,0,.3-.7,1,1,0,0,0-.3-.71Z"/><path class="cls-1" d="M43,23H25a1,1,0,0,0,0,2H42a16.91,16.91,0,0,1-4.26,10.3l-8-8a1,1,0,0,0-1.42,1.42L37,37.44a1,1,0,0,0,.71.3h0a1,1,0,0,0,.7-.3A18.89,18.89,0,0,0,44,24,1,1,0,0,0,43,23Z"/></g></svg>