<svg xmlns="http://www.w3.org/2000/svg" viewBox="0 0 44 44"><defs><style>.cls-1{fill:#fff;}</style></defs><g id="christ_the_redeemer"><path class="cls-1" d="M41,8H25.82A3,3,0,0,0,26,7V4a4,4,0,0,0-8,0V7a3,3,0,0,0,3,3h6v7a.8.8,0,0,0,0,.15c0,.12,0,.23,0,.35v10l-2-.83V15a1,1,0,0,0-2,0V25.83l-6-2.5V17.5c0-.12,0-.23,0-.35A.8.8,0,0,0,17,17V13a1,1,0,0,0-2,0v1a4,4,0,0,0-1.28-.47L6,12.17V10H16a1,1,0,0,0,0-2H3a1,1,0,0,0,0,2H4v3a1,1,0,0,0,.82,1l8.54,1.56a2,2,0,0,1,1.64,2V24a1,1,0,0,0,.62.92L26,29.25V36H18V29a1,1,0,0,0-2,0v7h-.31a3,3,0,0,0-2.95,2.51L12.15,42H9a1,1,0,0,0,0,2H35a1,1,0,0,0,0-2H31.85l-.59-3.49a3,3,0,0,0-3-2.51H28V30a1,1,0,0,0,1-1V17.5a2,2,0,0,1,1.64-2L39.18,14A1,1,0,0,0,40,13V10h1a1,1,0,0,0,0-2ZM29.29,38.84,29.82,42H14.18l.53-3.16a1,1,0,0,1,1-.84H28.31A1,1,0,0,1,29.29,38.84ZM20,7V4a2,2,0,0,1,4,0V7a1,1,0,0,1-1,1H21A1,1,0,0,1,20,7Zm18,5.17-7.72,1.4A4,4,0,0,0,29,14V10h9Z"/></g></svg>