<svg xmlns="http://www.w3.org/2000/svg" viewBox="0 0 44 44"><defs><style>.cls-1{fill:#fff;}</style></defs><title>cws-icon-cloud</title><g id="cloud"><path class="cls-1" d="M37,8.58A3.86,3.86,0,0,0,37,8a5,5,0,0,0-5-5,4.92,4.92,0,0,0-3,1A12,12,0,0,0,8.65,8.12,8,8,0,0,0,10,24h4a1,1,0,0,0,0-2H10a6,6,0,0,1-.5-12,1,1,0,0,0,.88-.73A10,10,0,0,1,28.07,6.12a1,1,0,0,0,.79.41,1.17,1.17,0,0,0,.8-.38A3,3,0,0,1,35,8a2.79,2.79,0,0,1-.17.93,1,1,0,0,0,.08.79,1,1,0,0,0,.62.49A6,6,0,0,1,34,22H30a1,1,0,0,0,0,2h4A8,8,0,0,0,37,8.58Z"/><path class="cls-1" d="M18,17a1,1,0,0,0-1,1V31a1,1,0,0,1-1,1H13.82a3,3,0,1,0,0,2H16a3,3,0,0,0,3-3V18A1,1,0,0,0,18,17ZM11,34a1,1,0,1,1,1-1A1,1,0,0,1,11,34Z"/><path class="cls-1" d="M23,38.18V16a1,1,0,0,0-2,0V38.18a3,3,0,1,0,2,0ZM22,42a1,1,0,1,1,1-1A1,1,0,0,1,22,42Z"/><path class="cls-1" d="M33,30a3,3,0,0,0-2.82,2H28a1,1,0,0,1-1-1V18a1,1,0,0,0-2,0V31a3,3,0,0,0,3,3h2.18A3,3,0,1,0,33,30Zm0,4a1,1,0,1,1,1-1A1,1,0,0,1,33,34Z"/></g></svg>