<svg xmlns="http://www.w3.org/2000/svg" viewBox="0 0 44 44"><defs><style>.cls-1{fill:#fff;}</style></defs><g id="calendar"><path class="cls-1" d="M1,12a1,1,0,0,0,1-1V8A1,1,0,0,1,3,7h7V8a3,3,0,0,0,5.6,1.5,1,1,0,0,0-.37-1.37,1,1,0,0,0-1.36.37A1,1,0,0,1,12,8V4a1,1,0,0,1,2,0V6h0a1,1,0,0,0,1,1H25a1,1,0,0,0,0-2H16V4a3,3,0,0,0-6,0V5H3A3,3,0,0,0,0,8v3A1,1,0,0,0,1,12Z"/><path class="cls-1" d="M41,5H34V4a3,3,0,0,0-6,0V8a3,3,0,0,0,4.5,2.6,3.05,3.05,0,0,0,1.1-1.1,1,1,0,1,0-1.73-1,1.09,1.09,0,0,1-.37.37A1.06,1.06,0,0,1,31,9a1,1,0,0,1-1-1V4a1,1,0,0,1,2,0V6a1,1,0,0,0,1,1h8a1,1,0,0,1,1,1V32a2,2,0,0,1-2,2H38a3,3,0,0,0-3,3v2a2,2,0,0,1-2,2H3a1,1,0,0,1-1-1V16H39a1,1,0,0,0,0-2H1a1,1,0,0,0-1,1V40a3,3,0,0,0,3,3H34.34a5,5,0,0,0,3.54-1.46l4.66-4.66A5,5,0,0,0,44,33.34V8A3,3,0,0,0,41,5ZM37,39.59V37a1,1,0,0,1,1-1h2.59Z"/><path class="cls-1" d="M18.79,23.07a1,1,0,1,0,.42-1.95,5.12,5.12,0,0,0-4.33,1,5.21,5.21,0,0,0-.4,7.64l6.18,6.62a1.84,1.84,0,0,0,2.69,0l6.16-6.59A5.2,5.2,0,0,0,31,26s0,0,0,0,0,0,0-.07v0a5,5,0,0,0-.06-.56A5,5,0,0,0,21,26a1,1,0,0,0,2,0,3,3,0,0,1,3-3,2.94,2.94,0,0,1,1.72.55.88.88,0,0,0,.12.15A3.19,3.19,0,0,1,29,26a3.25,3.25,0,0,1-.94,2.43L22,34.93l-6.08-6.51A3.24,3.24,0,0,1,15,26a3.19,3.19,0,0,1,1.16-2.31A3.1,3.1,0,0,1,18.79,23.07Z"/></g></svg>