<svg xmlns="http://www.w3.org/2000/svg" viewBox="0 0 44 44"><defs><style>.cls-1{fill:#fff;}</style></defs><title>cws-icon-share</title><g id="paper_plane"><path class="cls-1" d="M43.21.79A2.69,2.69,0,0,0,41.29,0a7.46,7.46,0,0,0-2.87.57L1.58,15.71a2.45,2.45,0,0,0,0,4.58l12.07,4.64a1,1,0,1,0,.72-1.86L2.29,18.42A.45.45,0,0,1,2,18a.47.47,0,0,1,.32-.43L39.18,2.42A5.52,5.52,0,0,1,41.29,2a.72.72,0,0,1,.71.71,5.52,5.52,0,0,1-.42,2.11L26.42,41.71a.49.49,0,0,1-.87,0L19.18,26.24,35.71,9.71a1,1,0,0,0-1.42-1.42l-17,17A1,1,0,0,0,17,26V36a1,1,0,0,0,2,0V31.05l4.7,11.43a2.47,2.47,0,0,0,4.58,0L43.43,5.58A7.46,7.46,0,0,0,44,2.71,2.69,2.69,0,0,0,43.21.79Z"/></g></svg>