<svg id="Layer_1" data-name="Layer 1" xmlns="http://www.w3.org/2000/svg" viewBox="0 0 44 44"><defs><style>.cls-1{fill:#fff;}</style></defs><title>cws-icon-pipe-wrench</title><path class="cls-1" d="M30,15H19V8H32a1,1,0,0,0,0-2H31V4.35a3,3,0,0,0-1.89-2.78A21.83,21.83,0,0,0,21,0H16a3,3,0,0,0-3,3v9a1,1,0,0,0,2,0V3a1,1,0,0,1,1-1h5a19.73,19.73,0,0,1,7.4,1.43,1,1,0,0,1,.63.92V6H18a1,1,0,0,0-1,1v8H12a1,1,0,0,0-1,1v1a1,1,0,0,0,2,0H29V39a3,3,0,0,1-6,0V27.34a4,4,0,0,0-3-3.88L14.24,22a1,1,0,0,0-.86.18A1,1,0,0,0,13,23v4a3,3,0,0,0,6,0V25.28l.48.12A2,2,0,0,1,21,27.34V39a5,5,0,0,0,10,0V16A1,1,0,0,0,30,15ZM17,25v2a1,1,0,0,1-2,0V24.28l2,.51A1.49,1.49,0,0,0,17,25Z"/><circle class="cls-1" cx="26" cy="39" r="1"/><path class="cls-1" d="M32,12H22a1,1,0,0,0,0,2H32a1,1,0,0,0,0-2Z"/><path class="cls-1" d="M17,20a1,1,0,0,0-1-1H12a1,1,0,0,0,0,2h4A1,1,0,0,0,17,20Z"/></svg>