<svg xmlns="http://www.w3.org/2000/svg" viewBox="0 0 44 44"><defs><style>.cls-1{fill:#fff;}</style></defs><g id="pitchfork"><path class="cls-1" d="M15.71,31.29a1,1,0,0,0-1.42,0l-8,8a1,1,0,0,0,0,1.42,1,1,0,0,0,1.42,0l8-8A1,1,0,0,0,15.71,31.29Z"/><path class="cls-1" d="M12.71,28.29a1,1,0,0,0-1.42,0l-8,8a1,1,0,0,0,0,1.42,1,1,0,0,0,1.42,0l8-8A1,1,0,0,0,12.71,28.29Z"/><path class="cls-1" d="M40.88,0a3.15,3.15,0,0,0-2.21.91L15,24.59l-.88-.88a3,3,0,0,0-4.24,0L.29,33.29a1,1,0,0,0,1.42,1.42l9.58-9.59a1,1,0,0,1,1.42,0l1.58,1.59a1.15,1.15,0,0,0,.33.21c.59.25.63.25,4.38-3.51L20.59,25l-3.3,3.29a1,1,0,0,0,0,1.42l1.59,1.58a1,1,0,0,1,0,1.42L9.29,42.29a1,1,0,0,0,0,1.42,1,1,0,0,0,1.42,0l9.58-9.59a3,3,0,0,0,0-4.24L19.41,29,43.09,5.33A3.09,3.09,0,0,0,44,3.12,3.12,3.12,0,0,0,40.88,0Zm.79,3.91L22,23.59,20.41,22,40.09,2.33A1.1,1.1,0,0,1,40.88,2a1.12,1.12,0,0,1,.79,1.91Z"/></g></svg>