<svg xmlns="http://www.w3.org/2000/svg" viewBox="0 0 44 44"><defs><style>.cls-1{fill:#fff;}</style></defs><g id="brandenburg_gate"><path class="cls-1" d="M1,14v3a1,1,0,0,0,1,1H42a1,1,0,0,0,1-1V14a1,1,0,0,0,0-2H41V10a1,1,0,0,0,0-2H31a1,1,0,0,0,0,2h8v2H28V8a1,1,0,0,0-1-1H26a1,1,0,0,0-2,0H23V6a1,1,0,0,0-2,0V7H20a1,1,0,0,0-2,0H17a1,1,0,0,0-1,1v4H5V10h8a1,1,0,0,0,0-2H3a1,1,0,0,0,0,2v2H1a1,1,0,0,0,0,2ZM18,9h8v3H18ZM4,14H41v2H3V14Z"/><path class="cls-1" d="M44,21a1,1,0,0,0-1-1H41a1,1,0,0,0,0,2V37H36V22a1,1,0,0,0,0-2H34a1,1,0,0,0,0,2V37H29V22a1,1,0,0,0,0-2H27a1,1,0,0,0,0,2V37H17V22a1,1,0,0,0,0-2H15a1,1,0,0,0,0,2V37H10V22a1,1,0,0,0,0-2H8a1,1,0,0,0,0,2V37H3V22a1,1,0,0,0,0-2H1a1,1,0,0,0,0,2V37a1,1,0,0,0,0,2H43a1,1,0,0,0,0-2V22A1,1,0,0,0,44,21Z"/></g></svg>