<svg id="Layer_1" data-name="Layer 1" xmlns="http://www.w3.org/2000/svg" viewBox="0 0 44 44"><defs><style>.cls-1{fill:#fff;}</style></defs><title>cws-circular-saw</title><circle class="cls-1" cx="33" cy="10" r="1"/><circle class="cls-1" cx="29" cy="10" r="1"/><circle class="cls-1" cx="25" cy="10" r="1"/><path class="cls-1" d="M29.64,27H31a1,1,0,0,0,1-1A15,15,0,0,0,2.05,25H1a1,1,0,0,0,0,2H14.18a3,3,0,0,0,5.64,0H22a1,1,0,0,0,0-2H19.82a3,3,0,0,0-5.64,0H4.05A13,13,0,0,1,30,25H27A10,10,0,0,0,8,21.55a1,1,0,1,0,1.79.9A8,8,0,0,1,25,26a1,1,0,0,0,1,1h1.35l.39.7-1,.94a1,1,0,0,0-.3.93l.27,1.37-1.26.58a1,1,0,0,0-.58.79l-.16,1.38-1.38.16a1,1,0,0,0-.79.58l-.58,1.26-1.37-.27a1,1,0,0,0-.93.3l-.94,1-1.21-.68a1,1,0,0,0-1,0l-1.21.68-.94-1a1,1,0,0,0-.93-.3l-1.37.27-.58-1.26a1,1,0,0,0-.79-.58l-1.38-.16-.16-1.38a1,1,0,0,0-.58-.79l-1.26-.58.27-1.37a1,1,0,0,0-2-.39l-.43,2.14a1,1,0,0,0,.57,1.1l1.47.68.19,1.61a1,1,0,0,0,.87.87l1.61.19.68,1.47a1,1,0,0,0,1.1.57l1.59-.32,1.1,1.19a1,1,0,0,0,1.22.19L17,38.08l1.41.79a1,1,0,0,0,.49.13,1,1,0,0,0,.73-.32l1.1-1.19,1.59.32a1,1,0,0,0,1.1-.57l.68-1.47,1.61-.19a1,1,0,0,0,.87-.87l.19-1.61,1.47-.68a1,1,0,0,0,.57-1.1l-.32-1.59,1.19-1.1a1,1,0,0,0,.19-1.22Z"/><path class="cls-1" d="M31,16a1,1,0,0,0,1,1h1a4.47,4.47,0,0,0,2.54,3.89A.91.91,0,0,0,36,21a1,1,0,0,0,.45-1.89l-.09-.05A2.43,2.43,0,0,1,35,17h2a1,1,0,0,1,1,1v6a1,1,0,0,1-1,1H35a1,1,0,0,0,0,2h2a3,3,0,0,0,3-3V18a3,3,0,0,0-3-3H32A1,1,0,0,0,31,16Z"/><path class="cls-1" d="M40,31h1a3,3,0,0,0,3-3V17.53a5,5,0,0,0-1.28-3.34L35.94,6.66A5,5,0,0,0,32.22,5H19a3,3,0,0,0-3,3,1,1,0,0,0,2,0,1,1,0,0,1,1-1H32.22a3,3,0,0,1,2.23,1l6.78,7.54a3,3,0,0,1,.77,2V28a1,1,0,0,1-1,1H32a1,1,0,0,0,0,2h4a1,1,0,0,0,1,1v2a5,5,0,0,0,5,5h1a1,1,0,0,0,0-2H42a3,3,0,0,1-3-3V32A1,1,0,0,0,40,31Z"/></svg>