<svg xmlns="http://www.w3.org/2000/svg" viewBox="0 0 44 44"><defs><style>.cls-1{fill:#fff;}</style></defs><g id="adaptive_1"><circle class="cls-1" cx="22" cy="30" r="1"/><circle class="cls-1" cx="6" cy="37" r="1"/><path class="cls-1" d="M41,3H3A3,3,0,0,0,0,6V20a1,1,0,0,0,2,0V6A1,1,0,0,1,3,5H41a1,1,0,0,1,1,1V32a1,1,0,0,1-1,1H15a1,1,0,0,0,0,2h2v3a1,1,0,0,1-1,1H15a1,1,0,0,0,0,2H29a1,1,0,0,0,0-2H28a1,1,0,0,1-1-1V35H41a3,3,0,0,0,3-3V6A3,3,0,0,0,41,3ZM25.18,39H18.82A3,3,0,0,0,19,38V35h6v3A3,3,0,0,0,25.18,39Z"/><path class="cls-1" d="M40,26a1,1,0,0,0-1-1H15a1,1,0,0,0,0,2H39A1,1,0,0,0,40,26Z"/><path class="cls-1" d="M9,23H3a3,3,0,0,0-3,3V38a3,3,0,0,0,3,3H9a3,3,0,0,0,3-3V26A3,3,0,0,0,9,23Zm1,15a1,1,0,0,1-1,1H3a1,1,0,0,1-1-1V26a1,1,0,0,1,1-1H9a1,1,0,0,1,1,1Z"/></g></svg>