<svg xmlns="http://www.w3.org/2000/svg" viewBox="0 0 44 44"><defs><style>.cls-1{fill:#fff;}</style></defs><title>cws-icon-search</title><g id="search"><path class="cls-1" d="M42.56,36.23,31.39,25.92a2,2,0,0,0-2.78,0l-.61.62-1.71-1.71A15,15,0,1,0,22.5,28a1,1,0,1,0-1-1.73,13,13,0,1,1,2.79-2.16,1,1,0,0,0-.29.7V25a1,1,0,0,0,.29.71L26.59,28l-.62.61a2,2,0,0,0,0,2.77L36.23,42.57a4.48,4.48,0,1,0,6.33-6.34Zm-3,5.77a2.5,2.5,0,0,1-1.82-.79L27.39,30,30,27.39,41.21,37.7A2.5,2.5,0,0,1,42,39.52,2.48,2.48,0,0,1,39.52,42Z"/><path class="cls-1" d="M15,4A11,11,0,1,0,26,15,11,11,0,0,0,15,4Zm0,20a9,9,0,1,1,9-9A9,9,0,0,1,15,24Z"/><path class="cls-1" d="M15,7.71A7.3,7.3,0,0,0,7.71,15a1,1,0,1,0,2,0A5.29,5.29,0,0,1,15,9.71a1,1,0,0,0,0-2Z"/></g></svg>