<svg xmlns="http://www.w3.org/2000/svg" viewBox="0 0 44 44"><defs><style>.cls-1{fill:#fff;}</style></defs><g id="balalaika"><path class="cls-1" d="M40.88,0a3.15,3.15,0,0,0-2.21.91L35.91,3.67a3.09,3.09,0,0,0-.58,3.58l-10,10a2.33,2.33,0,0,0-1.2-.12l-22,3.66a2.58,2.58,0,0,0-1.4,4.38L18.83,43.24a2.58,2.58,0,0,0,4.38-1.4l3.11-18.68a1,1,0,1,0-2-.32L21.23,41.51a.6.6,0,0,1-1,.32L2.17,23.76A.59.59,0,0,1,2,23.34a.58.58,0,0,1,.49-.57l20.8-3.47-3,3a3,3,0,1,0,1.41,1.41l15.05-15a3.09,3.09,0,0,0,3.58-.58l2.76-2.76A3.13,3.13,0,0,0,40.88,0ZM19,26a1,1,0,1,1,1-1A1,1,0,0,1,19,26ZM41.67,3.91,38.91,6.67a1.1,1.1,0,0,1-.79.33A1.12,1.12,0,0,1,37,5.88a1.1,1.1,0,0,1,.33-.79l2.76-2.76A1.1,1.1,0,0,1,40.88,2,1.12,1.12,0,0,1,42,3.12,1.1,1.1,0,0,1,41.67,3.91Z"/><path class="cls-1" d="M13.71,27.29a1,1,0,0,0-1.42,1.42l3,3a1,1,0,0,0,1.42,0,1,1,0,0,0,0-1.42Z"/></g></svg>