<svg xmlns="http://www.w3.org/2000/svg" viewBox="0 0 44 44"><defs><style>.cls-1{fill:#fff;}</style></defs><g id="hallgrimskirkja"><path class="cls-1" d="M21,12a1,1,0,1,0,1-1A1,1,0,0,0,21,12Z"/><path class="cls-1" d="M18,40a1,1,0,0,0,1-1V10.42a5,5,0,0,1,.53-2.24L22,3.24l2.47,4.94A5,5,0,0,1,25,10.42V39a1,1,0,0,0,2,0V10.42a7.06,7.06,0,0,0-.74-3.13L22.89.55a1,1,0,0,0-1.78,0L17.74,7.29A7.06,7.06,0,0,0,17,10.42V39A1,1,0,0,0,18,40Z"/><path class="cls-1" d="M43,42V37a1,1,0,0,0-2,0v5H39V33a1,1,0,0,0-2,0v9H35V27a1,1,0,0,0-2,0V42H31V17a1,1,0,0,0-2,0V42H23V33a1,1,0,0,0-2,0v9H15V17a1,1,0,0,0-2,0V42H11V27a1,1,0,0,0-2,0V42H7V33a1,1,0,0,0-2,0v9H3V37a1,1,0,0,0-2,0v5a1,1,0,0,0,0,2H43a1,1,0,0,0,0-2Z"/></g></svg>