<svg xmlns="http://www.w3.org/2000/svg" viewBox="0 0 44 34"><defs><style>.cls-1{fill:#fff;}</style></defs><title>cws-icon-glasses</title><g id="Livello_2" data-name="Livello 2"><g id="glasses"><path class="cls-1" d="M3,30a1,1,0,0,0,1,1h9.78a1,1,0,0,0,.83-.44l3.22-4.79A6.78,6.78,0,0,0,19,21.94V20a1,1,0,0,0-1-1H4a1,1,0,0,0-1,1Zm2-9H17v.94a4.89,4.89,0,0,1-.83,2.72L13.25,29H5Z"/><path class="cls-1" d="M30.22,31H40a1,1,0,0,0,1-1V20a1,1,0,0,0-1-1H26a1,1,0,0,0-1,1v1.94a6.78,6.78,0,0,0,1.17,3.83l3.22,4.79A1,1,0,0,0,30.22,31ZM27,21.94V21H39v8H30.75l-2.92-4.34A4.89,4.89,0,0,1,27,21.94Z"/><path class="cls-1" d="M39,0H38a1,1,0,0,0,0,2h1a3,3,0,0,1,3,3v9a1,1,0,0,0,2,0V5A5,5,0,0,0,39,0Z"/><path class="cls-1" d="M41,16H5a1,1,0,0,0,0,2H41a1,1,0,0,1,1,1V31a1,1,0,0,1-1,1H30.22a3,3,0,0,1-2.55-1.41l-3.29-5.27a2.81,2.81,0,0,0-4.76,0l-3.29,5.27A3,3,0,0,1,13.78,32H3a1,1,0,0,1-1-1V5A3,3,0,0,1,5,2H6A1,1,0,0,0,6,0H5A5,5,0,0,0,0,5V31a3,3,0,0,0,3,3H13.78A5,5,0,0,0,18,31.65l3.3-5.27a.83.83,0,0,1,1.36,0L26,31.65A5,5,0,0,0,30.22,34H41a3,3,0,0,0,3-3V19A3,3,0,0,0,41,16Z"/></g></g></svg>