<svg xmlns="http://www.w3.org/2000/svg" viewBox="0 0 44 44"><defs><style>.cls-1{fill:#fff;}</style></defs><title>cws-icon-bill</title><g id="bill"><circle class="cls-1" cx="10" cy="21" r="1"/><path class="cls-1" d="M40.47.12a1,1,0,0,0-1,.05L37,1.8,34.55.17a1,1,0,0,0-1.1,0L31,1.8,28.55.17a1,1,0,0,0-1.1,0L25,1.8,22.55.17a1,1,0,0,0-1.1,0L19,1.8,16.55.17a1,1,0,0,0-1.1,0L13,1.8,10.55.17a1,1,0,0,0-1.1,0L7,1.8,4.55.17a1,1,0,0,0-1-.05A1,1,0,0,0,3,1V43a1,1,0,0,0,.53.88,1,1,0,0,0,1-.05L7,42.2l2.45,1.63a1,1,0,0,0,1.1,0L13,42.2l2.45,1.63a1,1,0,0,0,1.1,0L19,42.2l2.45,1.63a1,1,0,0,0,1.1,0L25,42.2l2.45,1.63a1,1,0,0,0,1.1,0L31,42.2l2.45,1.63a1,1,0,0,0,1.1,0L37,42.2l2.45,1.63A1,1,0,0,0,41,43V1A1,1,0,0,0,40.47.12ZM39,41.13l-1.45-1a1,1,0,0,0-1.1,0L34,41.8l-2.45-1.63a1,1,0,0,0-1.1,0L28,41.8l-2.45-1.63a1,1,0,0,0-1.1,0L22,41.8l-2.45-1.63a1,1,0,0,0-1.1,0L16,41.8l-2.45-1.63a1,1,0,0,0-1.1,0L10,41.8,7.55,40.17a1,1,0,0,0-1.1,0L5,41.13V2.87l1.45,1a1,1,0,0,0,1.1,0L10,2.2l2.45,1.63a1,1,0,0,0,1.1,0L16,2.2l2.45,1.63a1,1,0,0,0,1.1,0L22,2.2l2.45,1.63a1,1,0,0,0,1.1,0L28,2.2l2.45,1.63a1,1,0,0,0,1.1,0L34,2.2l2.45,1.63a1,1,0,0,0,1.1,0l1.45-1Z"/><path class="cls-1" d="M32,26H30a1,1,0,0,1,0-2h3a1,1,0,0,0,0-2H32V21a1,1,0,0,0-2,0v1a3,3,0,0,0,0,6h2a1,1,0,0,1,0,2H29a1,1,0,0,0,0,2h1v1a1,1,0,0,0,2,0V32a3,3,0,0,0,0-6Z"/><path class="cls-1" d="M14,11H30a1,1,0,0,0,0-2H14a1,1,0,0,0,0,2Z"/><path class="cls-1" d="M26,13H18a1,1,0,0,0,0,2h8a1,1,0,0,0,0-2Z"/><path class="cls-1" d="M14,22h5a1,1,0,0,0,0-2H14a1,1,0,0,0,0,2Z"/><circle class="cls-1" cx="10" cy="25" r="1"/><path class="cls-1" d="M14,26h6a1,1,0,0,0,0-2H14a1,1,0,0,0,0,2Z"/><circle class="cls-1" cx="10" cy="29" r="1"/><path class="cls-1" d="M14,30h4a1,1,0,0,0,0-2H14a1,1,0,0,0,0,2Z"/><circle class="cls-1" cx="10" cy="33" r="1"/><path class="cls-1" d="M22,32H14a1,1,0,0,0,0,2h8a1,1,0,0,0,0-2Z"/></g></svg>