<svg id="Layer_1" data-name="Layer 1" xmlns="http://www.w3.org/2000/svg" viewBox="0 0 44 44"><defs><style>.cls-1{fill:#fff;}</style></defs><title>cws-saw</title><path class="cls-1" d="M6.29,29.71l6,6a1,1,0,0,0,1.42,0l2-2a1,1,0,0,0,.15-1.22l-3-5a1,1,0,0,0-.15-.2l-2-2a1,1,0,0,0-1.42,0l-3,3A1,1,0,0,0,6.29,29.71ZM10,27.41l1.21,1.21,2.53,4.22-.74.75L8.41,29Z"/><path class="cls-1" d="M43.71,9.29,39.54,5.12a10.67,10.67,0,0,0-15.08,0L9.29,20.29a1,1,0,0,0,0,1.42l2.93,2.93,4,5.91a1,1,0,0,0,.12.16L18.59,33,13,38.59,3.41,29l4.3-4.29a1,1,0,0,0-1.42-1.42l-5,5-1,1a1,1,0,0,0,0,1.42,1,1,0,0,0,1.42,0l.29-.3L11.59,40l-.3.29a1,1,0,0,0,0,1.42,1,1,0,0,0,1.42,0l1-1,7-7a1,1,0,0,0,0-1.42l-2.93-2.93-3.89-5.83,13.7-13.7a6.22,6.22,0,0,1,8.48-.31L19.29,26.29a1,1,0,0,0,0,1.42,1,1,0,0,0,1.42,0L40,8.41,41.59,10l-.13.13-2.78.92a1,1,0,0,0-.63.63l-.84,2.53-2.53.84a1,1,0,0,0-.63.63l-.84,2.53-2.53.84a1,1,0,0,0-.63.63l-.84,2.53-2.53.84a1,1,0,0,0-.63.63l-.84,2.53-2.53.84a1,1,0,0,0-.63.63l-.67,2A1,1,0,0,0,22,31a1.12,1.12,0,0,0,.31.05,1,1,0,0,0,1-.68l.51-1.53L26.32,28a1,1,0,0,0,.63-.63l.84-2.53L30.32,24a1,1,0,0,0,.63-.63l.84-2.53L34.32,20a1,1,0,0,0,.63-.63l.84-2.53L38.32,16a1,1,0,0,0,.63-.63l.84-2.53L42.32,12a1.06,1.06,0,0,0,.39-.24l1-1A1,1,0,0,0,43.71,9.29ZM37.48,8.1a8.23,8.23,0,0,0-11.31.31L12.5,22.09,11.41,21,25.88,6.54a8.64,8.64,0,0,1,12.24,0l.47.46Z"/></svg>