<svg xmlns="http://www.w3.org/2000/svg" viewBox="0 0 44 44"><defs><style>.cls-1{fill:#fff;}</style></defs><g id="petronas_towers"><path class="cls-1" d="M37,42H35V19a1,1,0,0,0-.29-.71l-.71-.7V13a1,1,0,0,0-.29-.71l-.71-.7V9.76a10.08,10.08,0,0,0-1.7-5.61L31,3.7V1a1,1,0,0,0-2,0V3.7l-.3.45A10.08,10.08,0,0,0,27,9.76v1.83l-.71.7A1,1,0,0,0,26,13v4.59l-.71.7A1,1,0,0,0,25,19v5H19V19a1,1,0,0,0-.29-.71l-.71-.7V13a1,1,0,0,0-.29-.71l-.71-.7V9.76a10.08,10.08,0,0,0-1.7-5.61L15,3.7V1a1,1,0,0,0-2,0V3.7l-.3.45A10.08,10.08,0,0,0,11,9.76v1.83l-.71.7A1,1,0,0,0,10,13v4.59l-.71.7A1,1,0,0,0,9,19V42H7a1,1,0,0,0,0,2H21a1,1,0,0,0,0-2H19V30.62l3-1.5,3,1.5V42a1,1,0,0,0,0,2H37a1,1,0,0,0,0-2ZM11,42V40h3a1,1,0,0,0,0-2H11V36h3a1,1,0,0,0,0-2H11V32h3a1,1,0,0,0,0-2H11V28h3a1,1,0,0,0,0-2H11V24h3a1,1,0,0,0,0-2H11V19.41l.71-.7A1,1,0,0,0,12,18V13.41l.71-.7A1,1,0,0,0,13,12V9.76a8,8,0,0,1,1-3.9,8,8,0,0,1,1,3.9V12a1,1,0,0,0,.29.71l.71.7V18a1,1,0,0,0,.29.71l.71.7V42ZM22.45,27.11s-.05,0-.07,0a1.17,1.17,0,0,0-.2-.06L22,27l-.18,0a1.17,1.17,0,0,0-.2.06s-.05,0-.07,0L19,28.38V26h6v2.38ZM27,42V40h3a1,1,0,0,0,0-2H27V36h3a1,1,0,0,0,0-2H27V32h3a1,1,0,0,0,0-2H27V28h3a1,1,0,0,0,0-2H27V24h3a1,1,0,0,0,0-2H27V19.41l.71-.7A1,1,0,0,0,28,18V13.41l.71-.7A1,1,0,0,0,29,12V9.76a8,8,0,0,1,1-3.9,8,8,0,0,1,1,3.9V12a1,1,0,0,0,.29.71l.71.7V18a1,1,0,0,0,.29.71l.71.7V42Z"/></g></svg>