<svg xmlns="http://www.w3.org/2000/svg" viewBox="0 0 44 44"><defs><style>.cls-1{fill:#fff;}</style></defs><g id="sydney_opera_house"><path class="cls-1" d="M43,31H42V27a1,1,0,0,0-1-1h-.64a6.55,6.55,0,0,1,1.41-3.36,1,1,0,0,0,.11-1.11,1,1,0,0,0-1-.52c-3.45.37-5.94,2-6.67,4.28a15.85,15.85,0,0,1,2.6-7.72,1,1,0,0,0,0-1.08,1,1,0,0,0-1-.49,17.25,17.25,0,0,0-7.1,2.14,1,1,0,0,0,1,1.72,13.6,13.6,0,0,1,4.24-1.56,18.92,18.92,0,0,0-1.9,7.7H30.48L27,21.62C26.77,14.33,20.46,8.08,12.13,7a1,1,0,0,0-1,.44,1,1,0,0,0,0,1.07C13.4,12.24,14.82,18.1,15,24H10.84a25.92,25.92,0,0,0-2-9.53,10.45,10.45,0,0,1,1.68.71,1,1,0,0,0,.92-1.78A14.09,14.09,0,0,0,7.15,12a1,1,0,0,0-1,.42,1,1,0,0,0,0,1.07A22.49,22.49,0,0,1,8.83,24H6a13.76,13.76,0,0,0-1-4.62c.26.07.52.15.76.24A1,1,0,0,0,6.94,19a1,1,0,0,0-.61-1.27A13.76,13.76,0,0,0,3.11,17a1,1,0,0,0-1,.48,1,1,0,0,0,0,1.08A10.75,10.75,0,0,1,4,24H3a1,1,0,0,0-1,1v3a1,1,0,0,0,2,0V26H16.09a2,2,0,0,1,1.11.34l1.49,1a4,4,0,0,0,2.22.67H40v4a1,1,0,0,0,1,1h1v2H2V33H37a1,1,0,0,0,0-2H1a1,1,0,0,0-1,1v4a1,1,0,0,0,1,1H43a1,1,0,0,0,1-1V32A1,1,0,0,0,43,31Zm-4-7.53A9.19,9.19,0,0,0,38.34,26H36.1A4.14,4.14,0,0,1,39,23.47ZM19.8,25.66l-1.49-1A4.1,4.1,0,0,0,17,24.11,37.53,37.53,0,0,0,13.86,9.36c6.35,1.58,11,6.58,11.12,12.31L21.52,26h-.61A2,2,0,0,1,19.8,25.66Zm4.28.34L26,23.6,27.92,26Z"/></g></svg>