<svg xmlns="http://www.w3.org/2000/svg" viewBox="0 0 44 44"><defs><style>.cls-1{fill:#fff;}</style></defs><title>cws-icon-basket</title><g id="basket"><circle class="cls-1" cx="5" cy="19" r="1"/><circle class="cls-1" cx="39" cy="19" r="1"/><path class="cls-1" d="M13,37a1,1,0,0,0,1-1V28a1,1,0,0,0-2,0v8A1,1,0,0,0,13,37Z"/><path class="cls-1" d="M19,37a1,1,0,0,0,1-1V28a1,1,0,0,0-2,0v8A1,1,0,0,0,19,37Z"/><path class="cls-1" d="M25,37a1,1,0,0,0,1-1V28a1,1,0,0,0-2,0v8A1,1,0,0,0,25,37Z"/><path class="cls-1" d="M31,37a1,1,0,0,0,1-1V28a1,1,0,0,0-2,0v8A1,1,0,0,0,31,37Z"/><path class="cls-1" d="M41,14H37.74L35.39,6.14A3,3,0,0,0,32.51,4H30V3a1,1,0,0,0-1-1H15a1,1,0,0,0-1,1V4H12.35A3,3,0,0,0,9.57,5.89L6.32,14H3a3,3,0,0,0-3,3v4a3,3,0,0,0,3,3h.1L4.81,39.33a3,3,0,0,0,3,2.67H36.21a3,3,0,0,0,3-2.67L40.9,24H41a3,3,0,0,0,3-3V17A3,3,0,0,0,41,14ZM16,4H28V6H16ZM42,21a1,1,0,0,1-1,1H8a1,1,0,0,0,0,2H38.88L37.2,39.11a1,1,0,0,1-1,.89H7.79a1,1,0,0,1-1-.89L5,22.89A1,1,0,0,0,4,22H3a1,1,0,0,1-1-1V17a1,1,0,0,1,1-1H33a1,1,0,0,0,0-2H8.48l2.95-7.37A1,1,0,0,1,12.35,6H14V7a1,1,0,0,0,1,1H29a1,1,0,0,0,1-1V6h2.51a1,1,0,0,1,1,.71L36,15.29A1,1,0,0,0,37,16h4a1,1,0,0,1,1,1Z"/></g></svg>