<svg xmlns="http://www.w3.org/2000/svg" viewBox="0 0 44 44"><defs><style>.cls-1{fill:#fffafc;}</style></defs><g id="sunset"><path class="cls-1" d="M40.29,31.62a15.07,15.07,0,0,0-6.43-.47,1,1,0,0,0,.28,2,13.15,13.15,0,0,1,5.57.41,1,1,0,1,0,.58-1.92Z"/><path class="cls-1" d="M43.57,28.18a14.35,14.35,0,0,0-15.14,0,12.21,12.21,0,0,1-12.86,0,14.35,14.35,0,0,0-15.14,0,1,1,0,0,0,1.14,1.64,12.21,12.21,0,0,1,12.86,0A13.5,13.5,0,0,0,22,32a13.5,13.5,0,0,0,7.57-2.16,12.21,12.21,0,0,1,12.86,0,1,1,0,0,0,1.14-1.64Z"/><path class="cls-1" d="M22,37a13.5,13.5,0,0,0,7.57-2.16,1,1,0,1,0-1.14-1.64,12.21,12.21,0,0,1-12.86,0A13,13,0,0,0,9.07,31,1,1,0,0,0,8,32,1,1,0,0,0,8.93,33a11.22,11.22,0,0,1,5.5,1.79A13.5,13.5,0,0,0,22,37Z"/><path class="cls-1" d="M25.71,39.46a12.39,12.39,0,0,1-10.14-1.28,1,1,0,1,0-1.14,1.64A13.48,13.48,0,0,0,22,42a14.84,14.84,0,0,0,4.29-.62,1,1,0,1,0-.58-1.92Z"/><path class="cls-1" d="M36,36a13.93,13.93,0,0,0-6.47,1.51,1,1,0,1,0,.94,1.77A12.11,12.11,0,0,1,36,38a1,1,0,0,0,0-2Z"/><path class="cls-1" d="M30.84,25H31a1,1,0,0,0,1-.89,10,10,0,1,0-19.88,0,1,1,0,0,0,2-.22A8.69,8.69,0,0,1,14,23a8,8,0,0,1,16,0,8.69,8.69,0,0,1-.05.89A1,1,0,0,0,30.84,25Z"/><path class="cls-1" d="M16,23a1,1,0,0,0,2,0,4,4,0,0,1,4-4,1,1,0,0,0,0-2A6,6,0,0,0,16,23Z"/><path class="cls-1" d="M34,23a1,1,0,0,0,1,1h7a1,1,0,0,0,0-2H35A1,1,0,0,0,34,23Z"/><path class="cls-1" d="M2,24H9a1,1,0,0,0,0-2H2a1,1,0,0,0,0,2Z"/><path class="cls-1" d="M22,11a1,1,0,0,0,1-1V3a1,1,0,0,0-2,0v7A1,1,0,0,0,22,11Z"/><path class="cls-1" d="M12.1,14.51a1,1,0,0,0,.71.3,1,1,0,0,0,.7-1.71L9.27,8.86a1,1,0,1,0-1.41,1.41Z"/><path class="cls-1" d="M31.19,14.81a1,1,0,0,0,.71-.3l4.24-4.24a1,1,0,1,0-1.41-1.41L30.49,13.1a1,1,0,0,0,.7,1.71Z"/><path class="cls-1" d="M33.63,17.1A1,1,0,1,0,34.39,19l2.78-1.15A1,1,0,0,0,36.4,16Z"/><path class="cls-1" d="M26.59,11.91A1.08,1.08,0,0,0,27,12a1,1,0,0,0,.93-.62L29.05,8.6a1,1,0,0,0-1.85-.77l-1.15,2.78A1,1,0,0,0,26.59,11.91Z"/><path class="cls-1" d="M16.1,11.37A1,1,0,0,0,17,12a1.08,1.08,0,0,0,.38-.08,1,1,0,0,0,.54-1.3L16.8,7.83A1,1,0,0,0,15,8.6Z"/><path class="cls-1" d="M6.83,17.8,9.61,19A1,1,0,0,0,10,19a1,1,0,0,0,.38-1.93L7.6,16a1,1,0,0,0-.77,1.85Z"/></g></svg>