<svg xmlns="http://www.w3.org/2000/svg" viewBox="0 0 44 44"><defs><style>.cls-1{fill:#fffafc;}</style></defs><g id="cloudy_night"><path class="cls-1" d="M43.53,16.06a1,1,0,0,0-1.12,0A8.24,8.24,0,0,1,30.9,4.59a1,1,0,0,0,0-1.12,1,1,0,0,0-1-.45A12.08,12.08,0,0,0,20,13.92,1,1,0,0,0,21,15,1,1,0,0,0,22,14.08a10.14,10.14,0,0,1,6-8.42A10.26,10.26,0,0,0,41.34,19a10.18,10.18,0,0,1-4.78,5,1,1,0,0,0-.46,1.34,1,1,0,0,0,.9.56,1,1,0,0,0,.44-.11A12.06,12.06,0,0,0,44,17.09,1,1,0,0,0,43.53,16.06Z"/><path class="cls-1" d="M32.33,33.73a1,1,0,0,0-.07,1.41,1,1,0,0,0,.74.33,1,1,0,0,0,.67-.25A7,7,0,0,0,31.34,23.4a1,1,0,0,0-1.28.61,1,1,0,0,0,.61,1.28,5,5,0,0,1,1.66,8.44Z"/><path class="cls-1" d="M37.34,32.6A1,1,0,0,0,37.25,34,3,3,0,0,1,35,39H7a5,5,0,1,1,4.17-7.76,1,1,0,1,0,1.66-1.11A7,7,0,1,0,7,41H35a5,5,0,0,0,3.75-8.31A1,1,0,0,0,37.34,32.6Z"/><path class="cls-1" d="M8.43,24.92a1,1,0,0,0,1.32-.52A9,9,0,0,1,27,28a1,1,0,0,0,2,0A11,11,0,0,0,7.92,23.6,1,1,0,0,0,8.43,24.92Z"/><path class="cls-1" d="M11.08,25.57a1,1,0,0,0,.53,1.31A.88.88,0,0,0,12,27a1,1,0,0,0,.92-.6A5.55,5.55,0,0,1,18,23a1,1,0,0,0,0-2A7.55,7.55,0,0,0,11.08,25.57Z"/></g></svg>