<svg xmlns="http://www.w3.org/2000/svg" viewBox="0 0 44 44"><defs><style>.cls-1{fill:#fff;}</style></defs><g id="cassette"><circle class="cls-1" cx="5" cy="11" r="1"/><circle class="cls-1" cx="39" cy="11" r="1"/><circle class="cls-1" cx="32" cy="21" r="1"/><circle class="cls-1" cx="12" cy="21" r="1"/><circle class="cls-1" cx="5" cy="33" r="1"/><circle class="cls-1" cx="39" cy="33" r="1"/><path class="cls-1" d="M12,27H32a6,6,0,0,0,0-12H12a6,6,0,0,0,0,12Zm-1-9.87A1,1,0,0,0,12,18a1,1,0,0,0,1-1H27.54a6,6,0,0,0-1,6.4,1,1,0,1,0,1.83-.8,4.21,4.21,0,0,1-.2-.63,1,1,0,0,0,0-1.94,4,4,0,0,1,2.9-2.9,1,1,0,0,0,1.94,0,4,4,0,0,1,2.9,2.9,1,1,0,0,0,0,1.94,4,4,0,0,1-2.9,2.9A1,1,0,0,0,32,24a1,1,0,0,0-1,1H16.46a6,6,0,0,0,1-6.4,1,1,0,1,0-1.83.8,4.21,4.21,0,0,1,.2.63,1,1,0,0,0,0,1.94,4,4,0,0,1-2.9,2.9,1,1,0,0,0-1.94,0A4,4,0,0,1,8.13,22a1,1,0,0,0,0-1.94A4,4,0,0,1,11,17.13Z"/><path class="cls-1" d="M41,6H3A3,3,0,0,0,0,9V35a3,3,0,0,0,3,3H30a1,1,0,0,0,0-2H3a1,1,0,0,1-1-1V9A1,1,0,0,1,3,8H41a1,1,0,0,1,1,1V35a1,1,0,0,1-1,1H34.72l-1.32-4a3,3,0,0,0-2.84-2H13.44a3,3,0,0,0-2.85,2l-.54,1.63a1,1,0,0,0,1.9.64l.54-1.64a1,1,0,0,1,.95-.68H30.56a1,1,0,0,1,1,.68l1.54,4.64A1,1,0,0,0,34,38h7a3,3,0,0,0,3-3V9A3,3,0,0,0,41,6Z"/><path class="cls-1" d="M30,12a1,1,0,0,0,0-2H14a1,1,0,0,0,0,2Z"/><path class="cls-1" d="M20,22h4a1,1,0,0,0,0-2H20a1,1,0,0,0,0,2Z"/></g></svg>