<svg xmlns="http://www.w3.org/2000/svg" viewBox="0 0 44 44"><defs><style>.cls-1{fill:#fff;}</style></defs><title>cws-icon-card</title><g id="card"><path class="cls-1" d="M43,22a1,1,0,0,0-1,1V35a2,2,0,0,1-2,2H4a2,2,0,0,1-2-2V14H39a1,1,0,0,0,0-2H1a1,1,0,0,0-1,1V35a4,4,0,0,0,4,4H40a4,4,0,0,0,4-4V23A1,1,0,0,0,43,22Z"/><path class="cls-1" d="M12,33a1,1,0,0,0,0-2H5a1,1,0,0,0,0,2Z"/><path class="cls-1" d="M20,33a1,1,0,0,0,0-2H16a1,1,0,0,0,0,2Z"/><path class="cls-1" d="M39,33a1,1,0,0,0,0-2H35a1,1,0,0,0,0,2Z"/><path class="cls-1" d="M40,5H4A4,4,0,0,0,0,9,1,1,0,0,0,2,9,2,2,0,0,1,4,7H40a2,2,0,0,1,2,2v9H5a1,1,0,0,0,0,2H43a1,1,0,0,0,1-1V9A4,4,0,0,0,40,5Z"/></g></svg>