<svg xmlns="http://www.w3.org/2000/svg" viewBox="0 0 44 44"><defs><style>.cls-1{fill:#fff;}</style></defs><title>cws-icon-strategy</title><g id="strategy"><path class="cls-1" d="M36,16a3,3,0,1,0-3,3A3,3,0,0,0,36,16Zm-4,0a1,1,0,1,1,1,1A1,1,0,0,1,32,16Z"/><path class="cls-1" d="M40,2H23V1a1,1,0,0,0-2,0V2H4A3,3,0,0,0,4,8H36a1,1,0,0,0,0-2H4A1,1,0,0,1,4,4H40a1,1,0,0,1,0,2,1,1,0,0,0-1,1V29a1,1,0,0,1-1,1H6a1,1,0,0,1-1-1V11a1,1,0,0,0-2,0V29a3,3,0,0,0,3,3H21v7.13a4,4,0,0,0-2.17,1.43A3.38,3.38,0,0,1,16.17,42H16a1,1,0,0,0,0,2h.17a5.43,5.43,0,0,0,4.25-2.22,2.05,2.05,0,0,1,3.16,0A5.43,5.43,0,0,0,27.83,44H28a1,1,0,0,0,0-2h-.17a3.38,3.38,0,0,1-2.66-1.44A4,4,0,0,0,23,39.13V32H38a3,3,0,0,0,3-3V7.83A3,3,0,0,0,40,2Z"/><path class="cls-1" d="M14,20v3.28A2,2,0,0,0,13,25a2,2,0,0,0,4,0,2,2,0,0,0-1-1.72V20a3,3,0,0,1,3-3h5.59l-.3.29a1,1,0,0,0,0,1.42,1,1,0,0,0,1.42,0l2-2a1,1,0,0,0,0-1.42l-2-2a1,1,0,0,0-1.42,1.42l.3.29H19A5,5,0,0,0,14,20Z"/><path class="cls-1" d="M27.71,22.29a1,1,0,0,0-1.42,0l-.79.8-.79-.8a1,1,0,0,0-1.42,1.42l.8.79-.8.79a1,1,0,0,0,0,1.42,1,1,0,0,0,1.42,0l.79-.8.79.8a1,1,0,0,0,1.42,0,1,1,0,0,0,0-1.42l-.8-.79.8-.79A1,1,0,0,0,27.71,22.29Z"/><path class="cls-1" d="M8.29,14.71a1,1,0,0,0,1.42,0l.79-.8.79.8a1,1,0,0,0,1.42,0,1,1,0,0,0,0-1.42l-.8-.79.8-.79a1,1,0,0,0-1.42-1.42l-.79.8-.79-.8a1,1,0,0,0-1.42,1.42l.8.79-.8.79A1,1,0,0,0,8.29,14.71Z"/></g></svg>