<svg xmlns="http://www.w3.org/2000/svg" viewBox="0 0 44 44"><defs><style>.cls-1{fill:#fff;}</style></defs><g id="tower_bridge"><path class="cls-1" d="M35,14a1,1,0,1,0,1,1A1,1,0,0,0,35,14Z"/><path class="cls-1" d="M35,21a1,1,0,1,0,1,1A1,1,0,0,0,35,21Z"/><path class="cls-1" d="M35,25a1,1,0,1,0,1,1A1,1,0,0,0,35,25Z"/><path class="cls-1" d="M9,21a1,1,0,1,0,1,1A1,1,0,0,0,9,21Z"/><path class="cls-1" d="M9,25a1,1,0,1,0,1,1A1,1,0,0,0,9,25Z"/><path class="cls-1" d="M9,14a1,1,0,1,0,1,1A1,1,0,0,0,9,14Z"/><path class="cls-1" d="M1,24a.93.93,0,0,0,.45-.11A11.25,11.25,0,0,0,5,21.21V26a1,1,0,0,0,2,0V19h4v7a1,1,0,0,0,2,0V19a1,1,0,0,0,0-2V16H31v1a1,1,0,0,0,0,2v7a1,1,0,0,0,2,0V19h4v7a1,1,0,0,0,2,0V21.21a11.25,11.25,0,0,0,3.55,2.68A.93.93,0,0,0,43,24a1,1,0,0,0,.89-.55,1,1,0,0,0-.44-1.34c-2-1-4.45-2.9-4.45-6.11V11a1,1,0,0,0-2,0,1,1,0,0,1-1-1V8a1,1,0,0,0-2,0v2a1,1,0,0,1-1,1,1,1,0,0,0-2,0v3H13V11a1,1,0,0,0-2,0,1,1,0,0,1-1-1V8A1,1,0,0,0,8,8v2a1,1,0,0,1-1,1,1,1,0,0,0-2,0v5c0,3.21-2.42,5.09-4.45,6.11a1,1,0,0,0-.44,1.34A1,1,0,0,0,1,24Zm32-7V13h4v4ZM7,17V13h4v4Z"/><path class="cls-1" d="M43,29H1a1,1,0,0,0,0,2H12v4H6V34a1,1,0,0,0-2,0v2a1,1,0,0,0,1,1h8a1,1,0,0,0,1-1V34.5A14.39,14.39,0,0,1,22,32a14.48,14.48,0,0,1,8,2.5V36a1,1,0,0,0,1,1h8a1,1,0,0,0,1-1V34a1,1,0,0,0-2,0v1H32V31H43a1,1,0,0,0,0-2ZM14,31h2.46A16.49,16.49,0,0,0,14,32.14Zm16,1.14A16.49,16.49,0,0,0,27.54,31H30Z"/></g></svg>