<svg xmlns="http://www.w3.org/2000/svg" viewBox="0 0 44 44"><defs><style>.cls-1{fill:#fff;}</style></defs><g id="chemical"><path class="cls-1" d="M38,34a4.93,4.93,0,0,0-3.15,1.15l-8.67-7.43A4.87,4.87,0,0,0,27,25a5,5,0,0,0-4-4.9V9.9a5,5,0,1,0-2,0V20.1A5,5,0,0,0,17,25a4.87,4.87,0,0,0,.82,2.72L9.15,35.15A4.93,4.93,0,0,0,6,34a5.05,5.05,0,1,0,4.42,2.7l8.8-7.55a5,5,0,0,0,5.56,0l8.8,7.55A5,5,0,1,0,38,34ZM19,5a3,3,0,1,1,3,3A3,3,0,0,1,19,5ZM6,42a3,3,0,1,1,3-3A3,3,0,0,1,6,42ZM19,25a3,3,0,1,1,3,3A3,3,0,0,1,19,25ZM38,42a3,3,0,1,1,3-3A3,3,0,0,1,38,42Z"/><path class="cls-1" d="M25.08,15.43a1,1,0,0,0,.52,1.32A9,9,0,0,1,31,25a9.11,9.11,0,0,1-.41,2.7A1,1,0,0,0,31.24,29a.79.79,0,0,0,.3.05,1,1,0,0,0,1-.7,11,11,0,0,0-6.1-13.39A1,1,0,0,0,25.08,15.43Z"/><path class="cls-1" d="M12.46,29a1,1,0,0,0,.3,0,1,1,0,0,0,.65-1.26A9.11,9.11,0,0,1,13,25a8.93,8.93,0,0,1,5.07-8.1,1,1,0,1,0-.87-1.8A11.07,11.07,0,0,0,11,25a10.78,10.78,0,0,0,.51,3.3A1,1,0,0,0,12.46,29Z"/><path class="cls-1" d="M25.6,33.25a9.1,9.1,0,0,1-7.2,0,1,1,0,0,0-1.31.52,1,1,0,0,0,.51,1.32A11,11,0,0,0,22,36a10.88,10.88,0,0,0,4.4-.92,1,1,0,1,0-.8-1.83Z"/></g></svg>