<svg xmlns="http://www.w3.org/2000/svg" viewBox="0 0 44 44"><defs><style>.cls-1{fill:#fff;}</style></defs><title>cws-icon-audience</title><g id="audience"><circle class="cls-1" cx="39" cy="20" r="1"/><circle class="cls-1" cx="39" cy="24" r="1"/><circle class="cls-1" cx="5" cy="20" r="1"/><circle class="cls-1" cx="11" cy="9" r="1"/><circle class="cls-1" cx="15" cy="7" r="1"/><circle class="cls-1" cx="33" cy="9" r="1"/><circle class="cls-1" cx="32" cy="16" r="1"/><circle class="cls-1" cx="32" cy="27" r="1"/><circle class="cls-1" cx="12" cy="16" r="1"/><circle class="cls-1" cx="12" cy="27" r="1"/><circle class="cls-1" cx="22" cy="11" r="1"/><circle class="cls-1" cx="29" cy="7" r="1"/><circle class="cls-1" cx="5" cy="24" r="1"/><circle class="cls-1" cx="24" cy="22" r="1"/><circle class="cls-1" cx="20" cy="22" r="1"/><path class="cls-1" d="M15.37,24.9l.06.34.18.91A6,6,0,0,0,21.52,31h1a6,6,0,0,0,5.91-4.85l.18-.91.06-.34A2,2,0,0,0,30,23V22a2,2,0,0,0-1-1.73V20a5,5,0,0,0-5-5H20a5,5,0,0,0-5,5v.27A2,2,0,0,0,14,22v1A2,2,0,0,0,15.37,24.9ZM16,22a1,1,0,0,0,1-1V20a3,3,0,0,1,3-3h4a3,3,0,0,1,3,3v1a1,1,0,0,0,1,1v1h-.25a1,1,0,0,0-1,.85l-.05.36c0,.21-.06.42-.1.63l-.18.92A4,4,0,0,1,22.48,29h-1a4,4,0,0,1-3.95-3.24l-.18-.92c0-.21-.07-.42-.1-.63l-.05-.36a1,1,0,0,0-1-.85H16Z"/><path class="cls-1" d="M20,26a1,1,0,0,0,1,1h2a1,1,0,0,0,0-2H21A1,1,0,0,0,20,26Z"/><path class="cls-1" d="M39,17a4,4,0,1,0-4-4A4,4,0,0,0,39,17Zm0-6a2,2,0,1,1-2,2A2,2,0,0,1,39,11Z"/><path class="cls-1" d="M39,27a4,4,0,1,0,4,4A4,4,0,0,0,39,27Zm0,6a2,2,0,1,1,2-2A2,2,0,0,1,39,33Z"/><path class="cls-1" d="M5,17a4,4,0,1,0-4-4A4,4,0,0,0,5,17Zm0-6a2,2,0,1,1-2,2A2,2,0,0,1,5,11Z"/><path class="cls-1" d="M5,27a4,4,0,1,0,4,4A4,4,0,0,0,5,27Zm0,6a2,2,0,1,1,2-2A2,2,0,0,1,5,33Z"/><path class="cls-1" d="M22,8a4,4,0,1,0-4-4A4,4,0,0,0,22,8Zm0-6a2,2,0,1,1-2,2A2,2,0,0,1,22,2Z"/><path class="cls-1" d="M32,34.38,26.2,33.22a1,1,0,1,0-.4,2l5.79,1.16A3,3,0,0,1,34,39.28v1A38.65,38.65,0,0,1,22,42a38.65,38.65,0,0,1-12-1.71v-1a3,3,0,0,1,2.41-2.94L19.1,35H21v4a1,1,0,0,0,2,0V34a1,1,0,0,0-1-1H19l-.2,0L12,34.38a5,5,0,0,0-4,4.9V41a1,1,0,0,0,.65.94A39.71,39.71,0,0,0,22,44a39.71,39.71,0,0,0,13.35-2.06A1,1,0,0,0,36,41V39.28A5,5,0,0,0,32,34.38Z"/></g></svg>