<svg xmlns="http://www.w3.org/2000/svg" viewBox="0 0 44 44"><defs><style>.cls-1{fill:#fff;}</style></defs><g id="acropolis"><path class="cls-1" d="M43,36H42V33a1,1,0,0,0-1-1H40V18a1,1,0,0,0-2,0V32H36V15h6a1,1,0,0,0,1-1V11a1,1,0,0,0-.5-.86l-5-2.89A5,5,0,0,0,33,7l-.35.16a3,3,0,0,1-2.9-.24L22.55,2.17a1,1,0,0,0-.92-.1l-20,8A1,1,0,0,0,1,11v3a1,1,0,0,0,1,1H4V32H3a1,1,0,0,0,0,2H40v3a1,1,0,0,0,1,1h1v2H2V38H37a1,1,0,0,0,0-2H1a1,1,0,0,0-1,1v4a1,1,0,0,0,1,1H43a1,1,0,0,0,1-1V37A1,1,0,0,0,43,36Zm-9-4H30V18a1,1,0,0,0-2,0V32H26V15h8ZM19,17a1,1,0,0,0-1,1V32H16V15h8V32H20V18A1,1,0,0,0,19,17ZM3,11.68,21.88,4.12,28.6,8.6a5,5,0,0,0,4.83.4l.36-.16A3,3,0,0,1,36.53,9L41,11.58V13H3ZM6,15h8V32H10V18a1,1,0,0,0-2,0V32H6Z"/></g></svg>