<svg xmlns="http://www.w3.org/2000/svg" viewBox="0 0 44 44"><defs><style>.cls-1{fill:#fff;}</style></defs><g id="cathedral_of_vasily_the_blessed"><path class="cls-1" d="M25,42H4V39.23a10.61,10.61,0,0,0,1-4.47V32H9v5a1,1,0,0,0,2,0V31a1,1,0,0,0-1-1H10a20.94,20.94,0,0,0-.36-3.16L8,18.8a1,1,0,0,0-2,0l-1.61,8A20.94,20.94,0,0,0,4.05,30H4a1,1,0,0,0-1,1v3.76a8.58,8.58,0,0,1-.89,3.79A1,1,0,0,0,2,39v4a1,1,0,0,0,1,1H25a1,1,0,0,0,0-2ZM6.37,27.24,7,24.1l.63,3.14A18.26,18.26,0,0,1,8,30H6A18.26,18.26,0,0,1,6.37,27.24Z"/><path class="cls-1" d="M41.89,38.55A8.58,8.58,0,0,1,41,34.76V26a1,1,0,0,0-.55-.89L39,24.38V21.87a2.58,2.58,0,0,0,1.58-1.47A5.12,5.12,0,0,0,41,18.46c0-2.57-2.87-5.07-4-6V11a1,1,0,0,0-2,0v1.5c-1.13.89-4,3.39-4,6a5.12,5.12,0,0,0,.42,1.94A2.59,2.59,0,0,0,33.83,22H37v2H36a1,1,0,0,0,0,2h1.76l1.24.62v8.14a10.61,10.61,0,0,0,1,4.47V42H38V37a1,1,0,0,0-1-1h-.43l-2.71-4.51a1,1,0,0,0-1.72,0L29.43,36H29a1,1,0,0,0-1,1v6a1,1,0,0,0,1,1H41a1,1,0,0,0,1-1V39A1,1,0,0,0,41.89,38.55Zm-3.17-18.9a.58.58,0,0,1-.55.35H33.83a.58.58,0,0,1-.55-.35A3.21,3.21,0,0,1,33,18.46c0-1.31,1.65-3.09,3-4.2,1.15,1,3,2.78,3,4.2A3.21,3.21,0,0,1,38.72,19.65ZM33,33.94,34.23,36H31.77ZM36,42H30V38h6Z"/><path class="cls-1" d="M29,33a1,1,0,0,0-1-1H27V30h3.17a2.59,2.59,0,0,0,2.41-1.6A5.12,5.12,0,0,0,33,26.46c0-3-4-5.95-4.42-6.27a1,1,0,0,0-1.16,0C27,20.51,23,23.44,23,26.46a5.12,5.12,0,0,0,.42,1.94A2.54,2.54,0,0,0,25,29.86V32H24a1,1,0,0,0-.89.55L22.38,34H19V28a1,1,0,0,0-.55-.89L17,26.38V23.87a2.58,2.58,0,0,0,1.58-1.47A5.12,5.12,0,0,0,19,20.46c0-2.57-2.87-5.07-4-6V13a1,1,0,0,0-2,0v1.51a15.13,15.13,0,0,0-2.86,2.91,1,1,0,0,0,.24,1.4A1,1,0,0,0,11,19a1,1,0,0,0,.81-.42A13.42,13.42,0,0,1,14,16.27c1.15.95,3,2.77,3,4.19a3.21,3.21,0,0,1-.28,1.19.58.58,0,0,1-.55.35H11.83a1,1,0,1,0,0,2H15v2H13a1,1,0,0,0,0,2h2.76l1.24.62V34H14a1,1,0,0,0,0,2h9a1,1,0,0,0,.89-.55L24.62,34H28A1,1,0,0,0,29,33Zm-3.17-5a.58.58,0,0,1-.55-.35A3.21,3.21,0,0,1,25,26.46c0-1.31,1.65-3.09,3-4.2,1.15,1,3,2.78,3,4.2a3.21,3.21,0,0,1-.28,1.19.58.58,0,0,1-.55.35H25.83Z"/><path class="cls-1" d="M21,24a1,1,0,0,0,1-1V19h2a1,1,0,0,0,0-2h-.75l1.55-7h.4l1.6,7.22a1,1,0,1,0,1.95-.44l-1.56-7A2.91,2.91,0,0,0,29,7.21V7.09c0-2-2.07-3.83-3-4.58V1a1,1,0,0,0-2,0V2.51c-.93.75-3,2.62-3,4.58v.12a2.91,2.91,0,0,0,1.81,2.54L21.2,17H21a1,1,0,0,0-1,1v5A1,1,0,0,0,21,24ZM25,4.27c1,.83,2,2,2,2.87A1,1,0,0,1,26,8H24a1,1,0,0,1-1-.91C23,6.28,24,5.1,25,4.27Z"/></g></svg>