<svg xmlns="http://www.w3.org/2000/svg" viewBox="0 0 44 44"><defs><style>.cls-1{fill:#fff;}</style></defs><title>cws-icon-lunch</title><g id="lunch"><path class="cls-1" d="M10,21H4a2,2,0,0,1-2-2V18H6v1a1,1,0,0,0,2,0V18a1,1,0,0,0,0-2H2V11a1,1,0,0,0-2,0v8a4,4,0,0,0,4,4V33.11a5.27,5.27,0,0,0-1.34.44l-1.11.56a1,1,0,0,0,.9,1.78l1.1-.55a3.28,3.28,0,0,1,2.9,0l1.1.55A.93.93,0,0,0,8,36a1,1,0,0,0,.89-.55,1,1,0,0,0-.44-1.34l-1.11-.56A5.27,5.27,0,0,0,6,33.11V23H9a1,1,0,0,0,2,0V22A1,1,0,0,0,10,21Z"/><path class="cls-1" d="M43,10a1,1,0,0,0-1,1v5H36a1,1,0,0,0,0,2v1a1,1,0,0,0,2,0V18h4v1a2,2,0,0,1-2,2H34a1,1,0,0,0-1,1v1a1,1,0,0,0,2,0h3V33.11a5.27,5.27,0,0,0-1.34.44l-1.11.56a1,1,0,0,0,.9,1.78l1.1-.55a3.28,3.28,0,0,1,2.9,0l1.1.55A.93.93,0,0,0,42,36a1,1,0,0,0,.89-.55,1,1,0,0,0-.44-1.34l-1.11-.56A5.27,5.27,0,0,0,40,33.11V23a4,4,0,0,0,4-4V11A1,1,0,0,0,43,10Z"/><path class="cls-1" d="M32,12H26a1,1,0,0,0,0,2h6a3,3,0,0,0,0-6H12a3,3,0,0,0,0,6h9V32.12a8.12,8.12,0,0,0-2.44,1.15A3.62,3.62,0,0,1,17,34a1,1,0,0,0,0,2,5,5,0,0,0,2.64-1A4.59,4.59,0,0,1,22,34h0a3.73,3.73,0,0,1,2.06.86A5.11,5.11,0,0,0,27,36a1,1,0,0,0,0-2,3.35,3.35,0,0,1-1.82-.8A7,7,0,0,0,23,32.12V13a1,1,0,0,0-1-1H12a1,1,0,0,1,0-2H32a1,1,0,0,1,0,2Z"/></g></svg>