<svg xmlns="http://www.w3.org/2000/svg" viewBox="0 0 44 44"><defs><style>.cls-1{fill:#fff;}</style></defs><title>cws-check-list</title><g id="check_list"><path class="cls-1" d="M38,9H31a1,1,0,0,1-1-1V5a1,1,0,0,0-2,0V8a3,3,0,0,0,3,3h6V41a1,1,0,0,1-1,1H8a1,1,0,0,1-1-1V3A1,1,0,0,1,8,2H28.59l5.7,5.71a1,1,0,0,0,1.42-1.42l-6-6A1,1,0,0,0,29,0H8A3,3,0,0,0,5,3V41a3,3,0,0,0,3,3H36a3,3,0,0,0,3-3V10A1,1,0,0,0,38,9Z"/><path class="cls-1" d="M34,24a1,1,0,0,0-1-1H21a1,1,0,0,0,0,2H33A1,1,0,0,0,34,24Z"/><path class="cls-1" d="M21,29h6a1,1,0,0,0,0-2H21a1,1,0,0,0,0,2Z"/><path class="cls-1" d="M31,14H21a1,1,0,0,0,0,2H31a1,1,0,0,0,0-2Z"/><path class="cls-1" d="M21,20h3a1,1,0,0,0,0-2H21a1,1,0,0,0,0,2Z"/><path class="cls-1" d="M31,33a1,1,0,0,0-1-1H21a1,1,0,0,0,0,2h9A1,1,0,0,0,31,33Z"/><path class="cls-1" d="M21,36a1,1,0,0,0,0,2h5a1,1,0,0,0,0-2Z"/><path class="cls-1" d="M17,24a1,1,0,0,0-1-1H12a1,1,0,0,0-1,1v4a1,1,0,0,0,1,1h4a1,1,0,0,0,1-1Zm-2,3H13V25h2Z"/><path class="cls-1" d="M17,15a1,1,0,0,0-1-1H12a1,1,0,0,0-1,1v4a1,1,0,0,0,1,1h4a1,1,0,0,0,1-1Zm-2,3H13V16h2Z"/><path class="cls-1" d="M16,32H12a1,1,0,0,0-1,1v4a1,1,0,0,0,1,1h4a1,1,0,0,0,1-1V33A1,1,0,0,0,16,32Zm-1,4H13V34h2Z"/></g></svg>