<svg xmlns="http://www.w3.org/2000/svg" viewBox="0 0 44 44"><defs><style>.cls-1{fill:#fff;}</style></defs><title>cws-icon-feather</title><g id="feather"><path class="cls-1" d="M26.34,36.32l-3.79-1.9a1,1,0,0,1-.55-.89V31.59a3,3,0,0,0-1-5.83H11a3,3,0,0,0,0,6h6a1,1,0,0,0,0-2H11a1,1,0,0,1,0-2H21a1,1,0,0,1,0,2,1,1,0,0,0-1,1v2.77a3,3,0,0,0,1.66,2.68l3.79,1.9A1,1,0,0,1,26,39v2a1,1,0,0,1-1,1H7a1,1,0,0,1-1-1V39a1,1,0,0,1,.55-.89l3.79-1.9A3,3,0,0,0,12,33.53a1,1,0,0,0-2,0,1,1,0,0,1-.55.89l-3.79,1.9A3,3,0,0,0,4,39v2a3,3,0,0,0,3,3H25a3,3,0,0,0,3-3V39A3,3,0,0,0,26.34,36.32Z"/><path class="cls-1" d="M37.72.3A1,1,0,0,0,37,0a1.05,1.05,0,0,0-.74.38l-18,23a1,1,0,0,0,.17,1.41A1,1,0,0,0,19,25a1,1,0,0,0,.79-.38L37,2.63A8.67,8.67,0,0,1,38,7a7.44,7.44,0,0,1-2.22,5.37L31.91,13.7a1,1,0,0,0-.66.75,1,1,0,0,0,.33,1l1.59,1.39A17,17,0,0,1,24.78,21a1,1,0,0,0,.44,2,19.24,19.24,0,0,0,10.13-5.5,1,1,0,0,0,.28-.87.93.93,0,0,0-.33-.6l-1.11-1,2.46-.85a1.33,1.33,0,0,0,.43-.28A9.44,9.44,0,0,0,40,7,9.38,9.38,0,0,0,37.72.3Z"/></g></svg>