<svg xmlns="http://www.w3.org/2000/svg" viewBox="0 0 44 32"><defs><style>.cls-1{fill:#fff;}</style></defs><title>cws-icon-photo</title><g id="Livello_2" data-name="Livello 2"><g id="photo"><path class="cls-1" d="M36,16a19.25,19.25,0,0,1,6.66.94h0A.93.93,0,0,0,43,17a1,1,0,0,0,1-1V3a3,3,0,0,0-3-3H3A3,3,0,0,0,0,3V29a3,3,0,0,0,3,3H41a3,3,0,0,0,3-3V20a1,1,0,0,0-2,0v9a1,1,0,0,1-1,1H3a1,1,0,0,1-1-1V3A1,1,0,0,1,3,2H41a1,1,0,0,1,1,1V14.65A23.2,23.2,0,0,0,36,14a22.44,22.44,0,0,0-17.13,7.63A13,13,0,0,0,4.4,20.8a1,1,0,1,0,1,1.73c5-2.86,10.92-1.61,14.83,3.11A1,1,0,0,0,21,26a1,1,0,0,0,.64-.23,1,1,0,0,0,.13-1.41,17,17,0,0,0-1.36-1.44A20.44,20.44,0,0,1,36,16Z"/><path class="cls-1" d="M8,9a1,1,0,0,0,0,2h.14a4.17,4.17,0,0,0,.43,1l-.11.1a1,1,0,0,0,0,1.42,1,1,0,0,0,.71.29,1,1,0,0,0,.71-.29l.1-.11a4.17,4.17,0,0,0,1,.43V14a1,1,0,0,0,2,0v-.14a4.17,4.17,0,0,0,1-.43l.1.11a1,1,0,0,0,.71.29,1,1,0,0,0,.71-.29,1,1,0,0,0,0-1.42l-.11-.1a4.17,4.17,0,0,0,.43-1H16a1,1,0,0,0,0-2h-.14a4.17,4.17,0,0,0-.43-1l.11-.1a1,1,0,0,0-1.42-1.42l-.1.11a4.17,4.17,0,0,0-1-.43V6a1,1,0,0,0-2,0v.14a4.17,4.17,0,0,0-1,.43l-.1-.11A1,1,0,0,0,8.46,7.88l.11.1a4.17,4.17,0,0,0-.43,1Zm4-1a2,2,0,1,1-2,2A2,2,0,0,1,12,8Z"/></g></g></svg>