<svg id="note" xmlns="http://www.w3.org/2000/svg" viewBox="0 0 44 44"><defs><style>.cls-1{fill:#fff;}</style></defs><path class="cls-1" d="M38.22,0a3.16,3.16,0,0,0-.68.08L15.27,5.65A3,3,0,0,0,13,8.56V38a4,4,0,1,1-4-4,4.26,4.26,0,0,1,.8.08,1,1,0,0,0,.4-2A6,6,0,1,0,15,38V8.56a1,1,0,0,1,.76-1L38,2a.79.79,0,0,1,1,.76V7.24L17.74,13a1,1,0,0,0-.7,1.22A1,1,0,0,0,18,15a.78.78,0,0,0,.26,0L39,9.31V32a4,4,0,1,1-4-4,4.26,4.26,0,0,1,.8.08,1,1,0,0,0,.4-2A6.11,6.11,0,0,0,35,26a6,6,0,1,0,6,6V2.78A2.79,2.79,0,0,0,38.22,0Z"/></svg>