<svg xmlns="http://www.w3.org/2000/svg" viewBox="0 0 44 44"><defs><style>.cls-1{fill:#fff;}</style></defs><title>cws-icon-megaphone</title><g id="megaphone"><path class="cls-1" d="M44,22a5,5,0,0,0-4-4.9V8a3,3,0,0,0-6-.45c-4,4.18-7.33,6.3-11.25,7.09a1,1,0,0,0,.2,2l.2,0C27,15.83,30.35,14,34,10.44V33.56c-3.65-3.51-7-5.39-10.8-6.16A21,21,0,0,0,19,27a1,1,0,0,0-1,1v1H5V15H18v9a1,1,0,0,0,2,0V15a2,2,0,0,0-2-2H5a2,2,0,0,0-2,2v2H2a2,2,0,0,0-2,2v6a2,2,0,0,0,2,2H3v2a2,2,0,0,0,2,2H7v5.82a2.18,2.18,0,0,0,4.23.76L13,33H14a1,1,0,0,0,1-1V31h3a2,2,0,0,0,2-2,19.14,19.14,0,0,1,2.8.34c3.92.79,7.28,2.91,11.25,7.09A3,3,0,0,0,40,36V26.9A5,5,0,0,0,44,22ZM2,25V19H3v6ZM9.35,36.88A.19.19,0,0,1,9,36.82V31h2.56ZM38,36a1,1,0,0,1-2,0V8a1,1,0,0,1,2,0V36Zm2-11.17V19.17a3,3,0,0,1,0,5.66Z"/><path class="cls-1" d="M14,24H9a1,1,0,0,0,0,2h5a1,1,0,0,0,0-2Z"/><path class="cls-1" d="M14,21H9a1,1,0,0,0,0,2h5a1,1,0,0,0,0-2Z"/><path class="cls-1" d="M14,18H9a1,1,0,0,0,0,2h5a1,1,0,0,0,0-2Z"/></g></svg>