<svg xmlns="http://www.w3.org/2000/svg" viewBox="0 0 44 44"><defs><style>.cls-1{fill:#fff;}</style></defs><title>cws-icon-truck</title><g id="truck"><circle class="cls-1" cx="9" cy="32" r="1"/><circle class="cls-1" cx="34" cy="32" r="1"/><path class="cls-1" d="M25,31H14.91a6,6,0,1,0,0,2H25a1,1,0,0,0,0-2ZM9,36a4,4,0,1,1,4-4A4,4,0,0,1,9,36Z"/><path class="cls-1" d="M42.8,21.6l-2.95-2.21L37,10.68A1,1,0,0,0,36,10H29a1,1,0,0,0-.95.7L23.54,25.12a1.27,1.27,0,0,1-1.57.82L4.37,20.38a1,1,0,0,1-.67-.71L2,13a1.23,1.23,0,0,1,0-.19A.78.78,0,0,1,2.78,12h19a4,4,0,0,0,2.83-1.17l2.24-2.24A2,2,0,0,1,28.24,8H30a1,1,0,0,0,0-2H28.24a4,4,0,0,0-2.83,1.17L23.17,9.41a2,2,0,0,1-1.41.59h-19A2.79,2.79,0,0,0,0,12.78a3.16,3.16,0,0,0,.08.68l1.68,6.7a3,3,0,0,0,2,2.13l17.6,5.56a3.19,3.19,0,0,0,1,.15,3.25,3.25,0,0,0,3.1-2.28L29.74,12h5.54l2.33,7h-2l.27-.55a1,1,0,0,0-1.78-.9L33.38,19H30a1,1,0,0,0,0,2h8.67l2.93,2.2a1,1,0,0,1,.4.8v6a1,1,0,0,1-1,1H39.91a6,6,0,1,0,0,2H41a3,3,0,0,0,3-3V24A3,3,0,0,0,42.8,21.6ZM34,36a4,4,0,1,1,4-4A4,4,0,0,1,34,36Z"/><path class="cls-1" d="M7,15v3a1,1,0,0,0,2,0V15a1,1,0,0,0-2,0Z"/><path class="cls-1" d="M11,15v4a1,1,0,0,0,2,0V15a1,1,0,0,0-2,0Z"/><path class="cls-1" d="M15,15v5a1,1,0,0,0,2,0V15a1,1,0,0,0-2,0Z"/><path class="cls-1" d="M19,15v6a1,1,0,0,0,2,0V15a1,1,0,0,0-2,0Z"/></g></svg>