<svg xmlns="http://www.w3.org/2000/svg" viewBox="0 0 44 44"><defs><style>.cls-1{fill:#fff;}</style></defs><title>cws-icon-cupboard</title><g id="cupboard"><circle class="cls-1" cx="22" cy="38" r="1"/><path class="cls-1" d="M26,17a1,1,0,0,0-1,1v2a1,1,0,0,0,2,0V18A1,1,0,0,0,26,17Z"/><path class="cls-1" d="M19,20V18a1,1,0,0,0-2,0v2a1,1,0,0,0,2,0Z"/><path class="cls-1" d="M39,34V3a3,3,0,0,0-3-3H8A3,3,0,0,0,5,3V40a3,3,0,0,0,3,3H9a1,1,0,0,0,1,1h4a1,1,0,0,0,1-1H29a1,1,0,0,0,1,1h4a1,1,0,0,0,1-1h1a3,3,0,0,0,3-3V38a1,1,0,0,0-2,0v2a1,1,0,0,1-1,1H8a1,1,0,0,1-1-1V3A1,1,0,0,1,8,2H21V33H10a1,1,0,0,0,0,2H38A1,1,0,0,0,39,34Zm-2-1H23V2H36a1,1,0,0,1,1,1Z"/></g></svg>