<svg xmlns="http://www.w3.org/2000/svg" viewBox="0 0 44 44"><defs><style>.cls-1{fill:#fff;}</style></defs><g id="tree"><path class="cls-1" d="M22,24a1,1,0,0,0-2,0,5,5,0,0,1-10,.49,1,1,0,0,0-.3-.61A7.61,7.61,0,0,0,11,24a7,7,0,0,0,7-7,1,1,0,0,0-2,0,5,5,0,1,1-5-5,1,1,0,0,0,1-1,1,1,0,0,0-.9-1A5,5,0,0,1,21,11a1,1,0,0,0,2,0,7,7,0,0,0-14-.71A7,7,0,0,0,4,17c0,.14,0,.28,0,.42A5,5,0,0,0,6,27a1,1,0,0,0,0-2,3,3,0,0,1-3-3,3,3,0,0,1,1.45-2.56,7,7,0,0,0,4.33,4.19A1,1,0,0,0,8,24.68a7,7,0,0,0,5.44,6.15A1,1,0,0,0,14,31a3,3,0,0,1,3,3v2a4.87,4.87,0,0,0-2.11-.94,4,4,0,1,0-.07,2A3,3,0,0,1,17,40v3a1,1,0,0,0,2,0V34a5,5,0,0,0-1.43-3.49A7,7,0,0,0,22,24ZM11,38a2,2,0,1,1,2-2A2,2,0,0,1,11,38Z"/><path class="cls-1" d="M26,23a1,1,0,0,0,2,0,3,3,0,0,1,3-3,1,1,0,0,0,0-2A5,5,0,0,0,26,23Z"/><path class="cls-1" d="M40.76,16.83A7,7,0,0,0,36.33,8.4a1,1,0,1,0-.67,1.88A5,5,0,0,1,39,15a5.22,5.22,0,0,1-.35,1.83A5,5,0,0,1,34,20a1,1,0,0,0,0,2,7,7,0,0,0,5.92-3.3A3,3,0,0,1,38,24a3,3,0,0,1-1.68-.51,1,1,0,0,0-1.5.49,3,3,0,0,1-2.73,2l-.16,0a1,1,0,0,0-1,.8A4,4,0,0,1,27,30a3.46,3.46,0,0,1-.78-.09A5.9,5.9,0,0,0,27,27a1,1,0,0,0-2,0,4,4,0,0,1-1,2.68l0,0A4,4,0,0,1,21,31a1,1,0,0,0,0,2,5.89,5.89,0,0,0,3.85-1.42A5.75,5.75,0,0,0,27,32,6,6,0,0,0,32.67,28,5,5,0,0,0,34,27.57V31a3,3,0,0,1-3,3,4.92,4.92,0,0,0-3,1v0a1,1,0,0,0-2,0v8a1,1,0,0,0,2,0V39a3,3,0,0,1,3-3,5,5,0,0,0,5-5V26s0,0,0,0l.22-.3A4.94,4.94,0,0,0,38,26a5,5,0,0,0,2.76-9.17Z"/><path class="cls-1" d="M18.5,2.4a3,3,0,0,1,4.27,1.45,1,1,0,0,0,.54.54,1,1,0,0,0,.77,0A5,5,0,1,1,26,14a1,1,0,0,0,0,2,7,7,0,0,0,7-6.65h0c0-.11,0-.23,0-.34a7,7,0,0,0-8.83-6.76A5,5,0,0,0,17.5.67a1,1,0,1,0,1,1.73Z"/></g></svg>