<svg xmlns="http://www.w3.org/2000/svg" viewBox="0 0 44 44"><defs><style>.cls-1{fill:#fff;}</style></defs><g id="scarecrow"><path class="cls-1" d="M22,34a1,1,0,0,0-1,1v8a1,1,0,0,0,2,0V35A1,1,0,0,0,22,34Z"/><path class="cls-1" d="M39,14H37.41l.3-.29a1,1,0,0,0-1.42-1.42L34.59,14H23V12a1,1,0,0,0-1-1,3,3,0,0,1-3-3,3,3,0,0,1,.78-2h4.44a3,3,0,0,1,0,4,1,1,0,1,0,1.5,1.33A5,5,0,0,0,27,8a4.77,4.77,0,0,0-.45-2H28a1,1,0,0,0,0-2H26.78l-.43-1.73A3,3,0,0,0,23.44,0H20.56a3,3,0,0,0-2.91,2.27L17.22,4H16a1,1,0,0,0,0,2h1.45A4.77,4.77,0,0,0,17,8a5,5,0,0,0,4,4.9V14H5a1,1,0,0,0,0,2H6.59l-.3.29a1,1,0,0,0,0,1.42,1,1,0,0,0,1.42,0L9,16.41V19a1,1,0,0,0,.84,1l4.32.72a1,1,0,0,1,.84,1V31a1,1,0,0,0,1,1H28a1,1,0,0,0,1-1V21.69a1,1,0,0,1,.84-1L34.16,20A1,1,0,0,0,35,19V16h4a1,1,0,0,0,0-2ZM19.59,2.76a1,1,0,0,1,1-.76h2.88a1,1,0,0,1,1,.76L24.72,4H19.28ZM24.82,16A3,3,0,0,1,23,17.82V16ZM21,17.82A3,3,0,0,1,19.18,16H21Zm12,.33-3.49.59a3,3,0,0,0-2.51,3V30H17V21.69a3,3,0,0,0-2.51-3L11,18.15V16h6.1a5,5,0,0,0,9.8,0H33Z"/></g></svg>