<svg xmlns="http://www.w3.org/2000/svg" viewBox="0 0 44 44"><defs><style>.cls-1{fill:#fff;}</style></defs><g id="lesbian"><path class="cls-1" d="M18.51,27.74a1,1,0,1,0-1.93.52L19,37a.64.64,0,0,1,0,.2.76.76,0,0,1-.76.76H5.76A.76.76,0,0,1,5,37.24.64.64,0,0,1,5,37L7.89,26.55A1.66,1.66,0,0,1,8,26.18l.18-.37a4,4,0,0,0,0-3.62A2,2,0,0,1,8,21.28V16.44a1,1,0,0,1,.68-1,9.87,9.87,0,0,1,3-.49h.56a9.82,9.82,0,0,1,3,.49,1,1,0,0,1,.68,1v4.84a2,2,0,0,1-.21.91,4,4,0,0,0-.3.81H11a1,1,0,0,0,0,2h5.36a1,1,0,0,0,1-1,2.06,2.06,0,0,1,.21-.91A4.05,4.05,0,0,0,18,21.28V16.44A3,3,0,0,0,16,13.6a11.47,11.47,0,0,0-3.67-.6h-.56a11.47,11.47,0,0,0-3.67.6A3,3,0,0,0,6,16.44v4.84a4.05,4.05,0,0,0,.43,1.81,2.08,2.08,0,0,1,0,1.82l-.19.37A4,4,0,0,0,6,26L3.1,36.5a2.64,2.64,0,0,0-.1.74A2.77,2.77,0,0,0,5.76,40H14v1a1,1,0,0,1-1,1H11a1,1,0,0,1-.87-.5,1,1,0,0,0-1.73,1A3,3,0,0,0,11,44h2a3,3,0,0,0,3-3V40h2.24A2.77,2.77,0,0,0,21,37.24a2.52,2.52,0,0,0-.1-.73Z"/><path class="cls-1" d="M12,12a5,5,0,0,0,5-5V5A5,5,0,0,0,7,5V7A5,5,0,0,0,12,12ZM9,5a3,3,0,0,1,6,0V7A3,3,0,0,1,9,7Z"/><path class="cls-1" d="M40.9,36.51l-2.39-8.77a1,1,0,1,0-1.93.52L39,37a.64.64,0,0,1,0,.2.76.76,0,0,1-.76.76H25.76a.76.76,0,0,1-.76-.76.64.64,0,0,1,0-.2l2.86-10.49a1.66,1.66,0,0,1,.14-.37l.18-.37a4,4,0,0,0,0-3.62,2,2,0,0,1-.21-.91V16.44a1,1,0,0,1,.68-1,9.87,9.87,0,0,1,3-.49h.56a9.82,9.82,0,0,1,3,.49,1,1,0,0,1,.68,1v4.84a2,2,0,0,1-.21.91,4,4,0,0,0-.3.81H31a1,1,0,0,0,0,2h5.36a1,1,0,0,0,1-1,2.06,2.06,0,0,1,.21-.91A4.05,4.05,0,0,0,38,21.28V16.44a3,3,0,0,0-2-2.84,11.47,11.47,0,0,0-3.67-.6h-.56a11.47,11.47,0,0,0-3.67.6A3,3,0,0,0,26,16.44v4.84a4.05,4.05,0,0,0,.43,1.81,2.08,2.08,0,0,1,0,1.82l-.19.37A4,4,0,0,0,26,26L23.1,36.5a2.64,2.64,0,0,0-.1.74A2.77,2.77,0,0,0,25.76,40H34v1a1,1,0,0,1-1,1H31a1,1,0,0,1-.87-.5,1,1,0,1,0-1.73,1A3,3,0,0,0,31,44h2a3,3,0,0,0,3-3V40h2.24A2.77,2.77,0,0,0,41,37.24,2.52,2.52,0,0,0,40.9,36.51Z"/><path class="cls-1" d="M32,12a5,5,0,0,0,5-5V5A5,5,0,0,0,27,5V7A5,5,0,0,0,32,12ZM29,5a3,3,0,0,1,6,0V7a3,3,0,0,1-6,0Z"/></g></svg>