<svg xmlns="http://www.w3.org/2000/svg" viewBox="0 0 44 44"><defs><style>.cls-1{fill:#fff;}</style></defs><g id="couple"><path class="cls-1" d="M13,40a1,1,0,0,0,2,0V29h6.09A2.92,2.92,0,0,0,24,26.09a2.53,2.53,0,0,0,0-.27l-.86-9.42a3,3,0,0,0-2.4-2.67l-.59-.12a31.33,31.33,0,0,0-12.28,0l-.59.12a3,3,0,0,0-2.4,2.67L4,25.82a2.44,2.44,0,0,0,0,.27A2.92,2.92,0,0,0,6.91,29H8V43a1,1,0,0,0,1,1H19a1,1,0,0,0,1-1V32a1,1,0,0,0-2,0V42H10V28h0V20a1,1,0,0,0-2,0v7H6.91A.94.94,0,0,1,6,26l.86-9.42a1,1,0,0,1,.8-.89l.6-.12a29.24,29.24,0,0,1,11.49,0l.59.12a1,1,0,0,1,.8.89L22,26.09a.91.91,0,0,1-.91.91H20V20a1,1,0,0,0-2,0v7H14a1,1,0,0,0-1,1Z"/><path class="cls-1" d="M39.9,36.51l-2.39-8.77a1,1,0,1,0-1.93.52L38,37a.76.76,0,0,1-.73,1H24.76a.76.76,0,0,1-.76-.76.64.64,0,0,1,0-.2l2.86-10.49a1.66,1.66,0,0,1,.14-.37l.19-.37a4.11,4.11,0,0,0,0-3.62,1.91,1.91,0,0,1-.22-.91V16.44a1,1,0,0,1,.69-1,9.76,9.76,0,0,1,3-.49h.56a9.82,9.82,0,0,1,3,.49,1,1,0,0,1,.68,1v4.84a1.91,1.91,0,0,1-.22.91,4.59,4.59,0,0,0-.29.81H30a1,1,0,0,0,0,2h5.36a1,1,0,0,0,1-1,2.06,2.06,0,0,1,.21-.91A4.05,4.05,0,0,0,37,21.28V16.44a3,3,0,0,0-2-2.84,11.47,11.47,0,0,0-3.67-.6h-.56a11.47,11.47,0,0,0-3.67.6A3,3,0,0,0,25,16.44v4.84a4.05,4.05,0,0,0,.43,1.81,2.08,2.08,0,0,1,0,1.82l-.19.37A4,4,0,0,0,25,26L22.1,36.51a2.57,2.57,0,0,0-.1.73A2.77,2.77,0,0,0,24.76,40H33v1a1,1,0,0,1-1,1H30a1,1,0,0,1-.87-.5,1,1,0,1,0-1.73,1A3,3,0,0,0,30,44h2a3,3,0,0,0,3-3V40h2.24A2.77,2.77,0,0,0,40,37.24,2.57,2.57,0,0,0,39.9,36.51Z"/><path class="cls-1" d="M14,12a5,5,0,0,0,5-5V5A5,5,0,0,0,9,5V7A5,5,0,0,0,14,12ZM11,5a3,3,0,0,1,6,0V7a3,3,0,0,1-6,0Z"/><path class="cls-1" d="M31,12a5,5,0,0,0,5-5V5A5,5,0,0,0,26,5V7A5,5,0,0,0,31,12ZM28,5a3,3,0,0,1,6,0V7a3,3,0,0,1-6,0Z"/><path class="cls-1" d="M14,25a1,1,0,1,0-1-1A1,1,0,0,0,14,25Z"/><path class="cls-1" d="M14,22a1,1,0,1,0-1-1A1,1,0,0,0,14,22Z"/><path class="cls-1" d="M14,19a1,1,0,1,0-1-1A1,1,0,0,0,14,19Z"/></g></svg>