<svg xmlns="http://www.w3.org/2000/svg" viewBox="0 0 44 44"><defs><style>.cls-1{fill:#fff;}</style></defs><title>cws-icon-sent</title><g id="sent"><path class="cls-1" d="M16,27a1,1,0,0,0-1-1H7a1,1,0,0,0,0,2h8A1,1,0,0,0,16,27Z"/><path class="cls-1" d="M13,22a1,1,0,0,0-1-1H4a1,1,0,0,0,0,2h8A1,1,0,0,0,13,22Z"/><path class="cls-1" d="M10,17a1,1,0,0,0-1-1H1a1,1,0,0,0,0,2H9A1,1,0,0,0,10,17Z"/><path class="cls-1" d="M38.39,13.21,27.83,21.33a3,3,0,0,1-3.66,0L13.61,13.21a1,1,0,0,0-1.22,1.58L23,22.92a5,5,0,0,0,6.1,0l10.56-8.13a1,1,0,1,0-1.22-1.58Z"/><path class="cls-1" d="M41,9H9a1,1,0,0,0,0,2H41a1,1,0,0,1,1,1V32a1,1,0,0,1-1,1H9a1,1,0,0,0,0,2H41a3,3,0,0,0,3-3V12A3,3,0,0,0,41,9Z"/><path class="cls-1" d="M32.29,23.29a1,1,0,0,0,0,1.42l6,6a1,1,0,0,0,1.42,0,1,1,0,0,0,0-1.42l-6-6A1,1,0,0,0,32.29,23.29Z"/></g></svg>