<svg xmlns="http://www.w3.org/2000/svg" viewBox="0 0 44 44"><defs><style>.cls-1{fill:#fff;}</style></defs><title>cws-icon-report</title><g id="report"><path class="cls-1" d="M36,4H14.9A5,5,0,0,0,5,5V32a1,1,0,0,0,2,0V5a3,3,0,0,1,6,0,1,1,0,0,0,1,1H36a1,1,0,0,1,1,1V37a1,1,0,0,1-1,1H15V9a1,1,0,0,0-2,0V35a4.92,4.92,0,0,0-3-1,5,5,0,0,0,0,10H25a1,1,0,0,0,0-2H10a3,3,0,1,1,3-3,1,1,0,0,0,1,1H36a3,3,0,0,0,3-3V7A3,3,0,0,0,36,4Z"/><path class="cls-1" d="M17,26a1,1,0,0,0,1,1H28a1,1,0,0,0,0-2H18A1,1,0,0,0,17,26Z"/><path class="cls-1" d="M25,30a1,1,0,0,0,1,1h8a1,1,0,0,0,0-2H26A1,1,0,0,0,25,30Z"/><path class="cls-1" d="M32,27h2a1,1,0,0,0,0-2H32a1,1,0,0,0,0,2Z"/><path class="cls-1" d="M18,35h9a1,1,0,0,0,0-2H18a1,1,0,0,0,0,2Z"/><path class="cls-1" d="M18,31h4a1,1,0,0,0,0-2H18a1,1,0,0,0,0,2Z"/><path class="cls-1" d="M34,33H31a1,1,0,0,0,0,2h3a1,1,0,0,0,0-2Z"/><path class="cls-1" d="M28,9a1,1,0,0,0-1,1V21a1,1,0,0,0,2,0V10A1,1,0,0,0,28,9Z"/><path class="cls-1" d="M32,22a1,1,0,0,0,1-1V13a1,1,0,0,0-2,0v8A1,1,0,0,0,32,22Z"/><path class="cls-1" d="M25,21V14a1,1,0,0,0-2,0v7a1,1,0,0,0,2,0Z"/><path class="cls-1" d="M21,21V17a1,1,0,0,0-2,0v4a1,1,0,0,0,2,0Z"/></g></svg>