<svg id="Layer_1" data-name="Layer 1" xmlns="http://www.w3.org/2000/svg" viewBox="0 0 44 44"><defs><style>.cls-1{fill:#fff;}</style></defs><title>cws-icon-saw-linear</title><path class="cls-1" d="M18.71,33.29l-5-5a1,1,0,0,0-1.42,0l-3,3a1,1,0,0,0,0,1.42l5,5a1,1,0,0,0,1.42,0l3-3A1,1,0,0,0,18.71,33.29ZM15,35.59,11.41,32,13,30.41,16.59,34Z"/><path class="cls-1" d="M40.71,4.29l-4-4a1,1,0,0,0-1.42,0l-20,20a1,1,0,0,0,1.42,1.42L36,2.41l2.36,2.37-2,1.13a1,1,0,0,0-.5,1l.36,2.92-2.55,1.45a1,1,0,0,0-.5,1l.36,2.92L31,16.63a1,1,0,0,0-.5,1l.36,2.91L28.29,22a1,1,0,0,0-.5,1l.36,2.91-2.56,1.46a1,1,0,0,0-.5,1l.36,2.91L22.9,32.72a1,1,0,0,0-.49,1l.51,2.9-.92.93L21.41,37l.3-.29A1,1,0,0,0,22,36V32a1,1,0,0,0-.29-.71l-8-8a1,1,0,0,0-1.42,0l-9,9a1,1,0,0,0,0,1.42,1,1,0,0,0,1.42,0l.29-.3L13.59,42l-.3.29a1,1,0,0,0,0,1.42,1,1,0,0,0,1.42,0l3-3a1,1,0,0,0-1.42-1.42L15,40.59,6.41,32,13,25.41l7,7v3.18l-.71.7a1,1,0,0,0,0,1.42l2,2a1,1,0,0,0,1.42,0l2-2a1,1,0,0,0,.27-.89L24.5,34.1,27,32.67a1,1,0,0,0,.5-1l-.36-2.92,2.55-1.45a1,1,0,0,0,.5-1l-.36-2.92L32.41,22a1,1,0,0,0,.5-1L32.55,18l2.55-1.45a1,1,0,0,0,.5-1l-.36-2.92,2.56-1.45a1,1,0,0,0,.5-1l-.36-2.92,2.55-1.45a1,1,0,0,0,.5-.74A1,1,0,0,0,40.71,4.29Z"/></svg>