<svg id="Layer_1" data-name="Layer 1" xmlns="http://www.w3.org/2000/svg" viewBox="0 0 44 44"><defs><style>.cls-1{fill:#fff;}</style></defs><title>cws-icon-jumper</title><path class="cls-1" d="M40.94,35.58,39.19,26A1,1,0,0,0,40,25a1,1,0,0,0-1-1H36a1,1,0,0,0,0,2h1.17L39,35.94a1.55,1.55,0,0,1,0,.31A1.76,1.76,0,0,1,37.25,38h-.78a3,3,0,0,1-3-2.58L32.15,26A1,1,0,0,0,33,24.76l-.46-1.84A6.32,6.32,0,0,0,29.6,19,6.94,6.94,0,0,0,26,18H25a1,1,0,0,1,0-2h3a1,1,0,0,0,1-1V13.38a3.83,3.83,0,0,0,0-4.76V7.38a3.85,3.85,0,0,0,0-4.76V2h2.31a1,1,0,0,1,1,.83l3.06,18.33a1,1,0,1,0,2-.32L34.26,2.51A3,3,0,0,0,31.31,0H28a1,1,0,0,0-1,1V3a1,1,0,0,0,.29.71,1.81,1.81,0,0,1,0,2.58A1,1,0,0,0,27,7V9a1,1,0,0,0,.29.71,1.81,1.81,0,0,1,0,2.58A1,1,0,0,0,27,13v1H25V13a1,1,0,0,0-.29-.71,1.81,1.81,0,0,1,0-2.58A1,1,0,0,0,25,9V7a1,1,0,0,0-.29-.71,1.81,1.81,0,0,1,0-2.58A1,1,0,0,0,25,3V1a1,1,0,0,0-1-1H20.69a3,3,0,0,0-3,2.51L14.15,24H13a1,1,0,0,0-1,1,1,1,0,0,0,.81,1l-1.75,9.62a3.71,3.71,0,0,0-.06.67,3.75,3.75,0,0,0,3,3.66,2.5,2.5,0,0,1-5-.41V29a5,5,0,0,0-5-5,1,1,0,0,0,0,2,3,3,0,0,1,3,3V39.5A4.49,4.49,0,0,0,16,40a5,5,0,0,0,4.53-4.25L21.87,26H22a1,1,0,0,0,0-2H19a1,1,0,0,0,0,2h.85L18.5,35.42a3,3,0,0,1-3,2.58h-.78A1.76,1.76,0,0,1,13,36.25a1.73,1.73,0,0,1,0-.32L14.83,26H15a1,1,0,0,0,1-.84L19.71,2.83a1,1,0,0,1,1-.83H23v.62a3.85,3.85,0,0,0,0,4.76V8.62a3.85,3.85,0,0,0,0,4.76v1.4A3,3,0,0,0,22,17a3,3,0,0,0,.66,1.86c-.08.05-.18.08-.26.14a6.15,6.15,0,0,0-1.6,1.36,1,1,0,0,0,1.53,1.28,4.49,4.49,0,0,1,1.1-.93,5,5,0,0,1,5.14,0,4.32,4.32,0,0,1,2,2.69l.15.6H30a1,1,0,0,0,0,2h.13l1.39,9.71A5,5,0,0,0,36.47,40h.78A3.75,3.75,0,0,0,41,36.25,3.71,3.71,0,0,0,40.94,35.58Z"/></svg>