<svg xmlns="http://www.w3.org/2000/svg" viewBox="0 0 44 44"><defs><style>.cls-1{fill:#fff;}</style></defs><title>cws-icon-bag</title><g id="bag"><path class="cls-1" d="M37,8H33a1,1,0,0,0,0,2h3V40a2,2,0,0,1-2,2H10a2,2,0,0,1-2-2V39a1,1,0,0,0-2,0v1a4,4,0,0,0,4,4H34a4,4,0,0,0,4-4V9A1,1,0,0,0,37,8Z"/><path class="cls-1" d="M7,36H33a1,1,0,0,0,0-2H8V10h6v4.28A2,2,0,0,0,13,16a2,2,0,0,0,4,0,2,2,0,0,0-1-1.72V8A6,6,0,0,1,28,8H19a1,1,0,0,0,0,2h9v4.28A2,2,0,0,0,27,16a2,2,0,0,0,4,0,2,2,0,0,0-1-1.72V8A8,8,0,0,0,14,8H7A1,1,0,0,0,6,9V35A1,1,0,0,0,7,36Z"/></g></svg>