<svg xmlns="http://www.w3.org/2000/svg" viewBox="0 0 44 44"><defs><style>.cls-1{fill:#fff;}</style></defs><title>cws-icon-internet</title><g id="internet"><path class="cls-1" d="M22,6h0a16,16,0,0,0,0,32h0A16,16,0,0,0,37.42,26.27a1,1,0,1,0-1.92-.53A14,14,0,0,1,23,36V30h4.27c-.07.21-.13.44-.21.65a1,1,0,0,0,.59,1.29A1,1,0,0,0,28,32a1,1,0,0,0,.94-.65c.16-.43.29-.89.42-1.35H31a1,1,0,0,0,0-2H29.87a28.51,28.51,0,0,0,.59-5H37a1,1,0,0,0,1-1A16,16,0,0,0,22,6Zm0,4a1,1,0,0,0-1,1v3H16.71C17.9,10.4,19.85,8,22,8h0c2.15,0,4.1,2.4,5.29,6H23V11A1,1,0,0,0,22,10ZM9.37,28a13.82,13.82,0,0,1,0-12H14.1a28.83,28.83,0,0,0-.57,5H11a1,1,0,0,0,0,2h2.52c0,.71.06,1.41.13,2.1a1,1,0,0,0,1.1.9,1,1,0,0,0,.89-1.1c-.06-.62-.09-1.26-.12-1.9H21v5ZM21,21H15.52a27.63,27.63,0,0,1,.64-5H21ZM17.06,8.92A16.13,16.13,0,0,0,14.61,14H10.53A14,14,0,0,1,17.06,8.92ZM10.53,30h4.08a16.35,16.35,0,0,0,2.44,5.08A14.07,14.07,0,0,1,10.53,30ZM21,35.81c-1.69-.61-3.26-2.73-4.29-5.81H21ZM27.83,28H23V16h4.84a27.63,27.63,0,0,1,.64,5H26a1,1,0,0,0,0,2h2.46A26.49,26.49,0,0,1,27.83,28Zm2.64-7a28.83,28.83,0,0,0-.57-5H31a1,1,0,0,0,0-2H29.39a16.09,16.09,0,0,0-2.46-5.09A13.93,13.93,0,0,1,36,21Z"/><circle class="cls-1" cx="22" cy="1" r="1"/><circle class="cls-1" cx="22" cy="43" r="1"/><path class="cls-1" d="M16.82,2.68A1,1,0,1,0,15.6,2,1,1,0,0,0,16.82,2.68Z"/><path class="cls-1" d="M27.18,41.32A1,1,0,1,0,28.4,42,1,1,0,0,0,27.18,41.32Z"/><circle class="cls-1" cx="11.5" cy="3.81" r="1" transform="translate(4.84 13.93) rotate(-75)"/><path class="cls-1" d="M32,39.32a1,1,0,1,0,1,1.73,1,1,0,1,0-1-1.73Z"/><path class="cls-1" d="M7.86,7.86a1,1,0,1,0-1.42,0A1,1,0,0,0,7.86,7.86Z"/><path class="cls-1" d="M36.14,36.14a1,1,0,1,0,1.42,0A1,1,0,0,0,36.14,36.14Z"/><path class="cls-1" d="M4.31,10.63a1,1,0,0,0-1,1.74,1,1,0,1,0,1-1.74Z"/><path class="cls-1" d="M40.69,31.63a1,1,0,0,0-1,1.74,1,1,0,0,0,1-1.74Z"/><path class="cls-1" d="M2,15.6a1,1,0,1,0,.71,1.22A1,1,0,0,0,2,15.6Z"/><path class="cls-1" d="M42.54,26.47a1,1,0,1,0,.71,1.22A1,1,0,0,0,42.54,26.47Z"/><circle class="cls-1" cx="1" cy="22" r="1"/><circle class="cls-1" cx="43" cy="22" r="1"/><path class="cls-1" d="M1.46,26.47a1,1,0,1,0,1.22.71A1,1,0,0,0,1.46,26.47Z"/><path class="cls-1" d="M42.54,17.53a1,1,0,1,0-1.22-.71A1,1,0,0,0,42.54,17.53Z"/><path class="cls-1" d="M3.31,31.63A1,1,0,1,0,4.68,32,1,1,0,0,0,3.31,31.63Z"/><path class="cls-1" d="M39.69,10.63a1,1,0,1,0,1.36.37A1,1,0,0,0,39.69,10.63Z"/><path class="cls-1" d="M6.44,36.14a1,1,0,1,0,1.42,0A1,1,0,0,0,6.44,36.14Z"/><path class="cls-1" d="M37.56,7.86a1,1,0,1,0-1.42,0A1,1,0,0,0,37.56,7.86Z"/><path class="cls-1" d="M12,39.32a1,1,0,1,0,.37,1.37A1,1,0,0,0,12,39.32Z"/><circle class="cls-1" cx="32.5" cy="3.81" r="1" transform="translate(0.12 8.54) rotate(-15)"/><path class="cls-1" d="M16.82,41.32a1,1,0,1,0,.71,1.22A1,1,0,0,0,16.82,41.32Z"/><path class="cls-1" d="M27.18,2.68a1,1,0,1,0-.71-1.22A1,1,0,0,0,27.18,2.68Z"/></g></svg>