<svg xmlns="http://www.w3.org/2000/svg" viewBox="0 0 44 44"><defs><style>.cls-1{fill:#fff;}</style></defs><title>cws-icon-chalkboard</title><g id="chalkboard"><path class="cls-1" d="M40,2H23V1a1,1,0,0,0-2,0V2H4A3,3,0,0,0,4,8H36a1,1,0,0,0,0-2H4A1,1,0,0,1,4,4H40a1,1,0,0,1,0,2,1,1,0,0,0-1,1V29a1,1,0,0,1-1,1H6a1,1,0,0,1-1-1V11a1,1,0,0,0-2,0V29a3,3,0,0,0,3,3H21v7.13a4,4,0,0,0-2.17,1.43A3.38,3.38,0,0,1,16.17,42H16a1,1,0,0,0,0,2h.17a5.43,5.43,0,0,0,4.25-2.22,2.05,2.05,0,0,1,3.16,0A5.43,5.43,0,0,0,27.83,44H28a1,1,0,0,0,0-2h-.17a3.38,3.38,0,0,1-2.66-1.44A4,4,0,0,0,23,39.13V32H38a3,3,0,0,0,3-3V7.83A3,3,0,0,0,40,2Z"/><path class="cls-1" d="M20,14a1,1,0,0,0-1,1v8a1,1,0,0,0,1,1h3a3,3,0,0,0,3-3,3,3,0,0,0-.78-2A3,3,0,0,0,26,17a3,3,0,0,0-3-3,1,1,0,0,0,0,2,1,1,0,0,1,0,2,1,1,0,0,0,0,2,1,1,0,0,1,0,2H21V15A1,1,0,0,0,20,14Z"/><path class="cls-1" d="M32,16a1,1,0,0,1,1,1,1,1,0,0,0,2,0,3,3,0,0,0-6,0v4a3,3,0,0,0,6,0,1,1,0,0,0-2,0,1,1,0,0,1-2,0V17A1,1,0,0,1,32,16Z"/><path class="cls-1" d="M12,21a1,1,0,0,0,1,1h.56l.5,1.35A1,1,0,0,0,15,24a1,1,0,0,0,.35-.06,1,1,0,0,0,.59-1.29l-3-8h0a1,1,0,0,0-.58-.59,1,1,0,0,0-1.29.59l-3,8a1,1,0,0,0,.59,1.29A1,1,0,0,0,9,24a1,1,0,0,0,.94-.65L12,17.85,12.82,20A1,1,0,0,0,12,21Z"/></g></svg>