<svg xmlns="http://www.w3.org/2000/svg" viewBox="0 0 44 44"><defs><style>.cls-1{fill:#fff;}</style></defs><g id="speaker"><path class="cls-1" d="M22,8A14,14,0,1,0,36,22,14,14,0,0,0,22,8Zm0,26A12,12,0,1,1,34,22,12,12,0,0,1,22,34Z"/><circle class="cls-1" cx="37" cy="37" r="1"/><circle class="cls-1" cx="37" cy="7" r="1"/><circle class="cls-1" cx="7" cy="37" r="1"/><circle class="cls-1" cx="7" cy="7" r="1"/><path class="cls-1" d="M22,18a4,4,0,1,0,4,4A4,4,0,0,0,22,18Zm0,6a2,2,0,1,1,2-2A2,2,0,0,1,22,24Z"/><path class="cls-1" d="M41,0H3A3,3,0,0,0,0,3V41a3,3,0,0,0,3,3H41a3,3,0,0,0,3-3V3A3,3,0,0,0,41,0Zm1,41a1,1,0,0,1-1,1H3a1,1,0,0,1-1-1V3A1,1,0,0,1,3,2H41a1,1,0,0,1,1,1Z"/><path class="cls-1" d="M39.88,9.54a3.83,3.83,0,0,0-5.42-5.42L32.27,6.31a1,1,0,0,1-1.21.15,17.91,17.91,0,0,0-18.12,0,1,1,0,0,1-1.21-.15L9.54,4.12A3.83,3.83,0,0,0,4.12,9.54l2.19,2.19a1,1,0,0,1,.15,1.21,17.91,17.91,0,0,0,0,18.12,1,1,0,0,1-.15,1.21L4.12,34.46a3.83,3.83,0,0,0,5.42,5.42l2.19-2.19a1,1,0,0,1,1.21-.15,17.91,17.91,0,0,0,18.12,0,1,1,0,0,1,1.21.15l2.19,2.19a3.83,3.83,0,0,0,5.42-5.42l-2.19-2.19a1,1,0,0,1-.15-1.21,17.91,17.91,0,0,0,0-18.12,1,1,0,0,1,.15-1.21ZM35.81,14a15.89,15.89,0,0,1,0,16.1,3,3,0,0,0,.46,3.64l2.19,2.19A1.78,1.78,0,0,1,39,37.17,1.83,1.83,0,0,1,37.17,39a1.78,1.78,0,0,1-1.29-.54l-2.19-2.19a3,3,0,0,0-3.64-.46,16.15,16.15,0,0,1-16.1,0,3,3,0,0,0-3.64.46L8.12,38.46A1.78,1.78,0,0,1,6.83,39,1.83,1.83,0,0,1,5,37.17a1.78,1.78,0,0,1,.54-1.29l2.19-2.19a3,3,0,0,0,.46-3.64,15.89,15.89,0,0,1,0-16.1,3,3,0,0,0-.46-3.64L5.54,8.12A1.78,1.78,0,0,1,5,6.83,1.83,1.83,0,0,1,6.83,5a1.78,1.78,0,0,1,1.29.54l2.19,2.19A3,3,0,0,0,14,8.19a16.18,16.18,0,0,1,16.1,0,3,3,0,0,0,3.64-.46l2.19-2.19A1.78,1.78,0,0,1,37.17,5,1.83,1.83,0,0,1,39,6.83a1.78,1.78,0,0,1-.54,1.29l-2.19,2.19A3,3,0,0,0,35.81,14Z"/></g></svg>