<svg xmlns="http://www.w3.org/2000/svg" viewBox="0 0 44 44"><defs><style>.cls-1{fill:#fff;}</style></defs><g id="pyramid"><path class="cls-1" d="M43.81,33.41l-13-18A1,1,0,0,0,30,15a1,1,0,0,0-.8.36l-2.5,3a1,1,0,1,0,1.54,1.28l1.67-2L41,33H37a1,1,0,0,0,0,2h6a1,1,0,0,0,.89-.54A1,1,0,0,0,43.81,33.41Z"/><path class="cls-1" d="M17.84,9.47a1,1,0,0,0-1-.46l-.09,0a1,1,0,0,0-.58.41h0l-16,24a1,1,0,0,0-.05,1A1,1,0,0,0,1,35H18a1,1,0,0,0,0-2H2.87L16.51,12.54,21,34.2a1,1,0,0,0,1,.8H33a1,1,0,0,0,.88-.53,1,1,0,0,0-.05-1Zm5,23.53L19,14.85,31.13,33Z"/></g></svg>