<svg xmlns="http://www.w3.org/2000/svg" viewBox="0 0 44 44"><defs><style>.cls-1{fill:#fff;}</style></defs><g id="robot"><circle class="cls-1" cx="19" cy="9" r="1"/><circle class="cls-1" cx="25" cy="9" r="1"/><path class="cls-1" d="M38,26.18V21a3,3,0,0,0-3-3H31.82A3,3,0,0,0,29,16H15a3,3,0,0,0-2.82,2H9a3,3,0,0,0-3,3v5.18A3,3,0,0,0,4,29a1,1,0,0,0,2,0,1,1,0,0,1,2,0,1,1,0,0,0,2,0,3,3,0,0,0-2-2.82V21a1,1,0,0,1,1-1h3v9a3,3,0,0,0,3,3h1v7a1,1,0,0,0,2,0V32h5a1,1,0,0,0,0-2H15a1,1,0,0,1-1-1V19a1,1,0,0,1,1-1H29a1,1,0,0,1,1,1V29a1,1,0,0,1-1,1H27a1,1,0,0,0-1,1v8a1,1,0,0,0,2,0V32h1a3,3,0,0,0,3-3V20h3a1,1,0,0,1,1,1v5.18A3,3,0,0,0,34,29a1,1,0,0,0,2,0,1,1,0,0,1,2,0,1,1,0,0,0,2,0A3,3,0,0,0,38,26.18Z"/><path class="cls-1" d="M17,14H27A5,5,0,0,0,27,4h-.1a5,5,0,0,0-9.8,0H17a5,5,0,0,0,0,10ZM22,2a3,3,0,0,1,2.82,2H19.18A3,3,0,0,1,22,2ZM17,6H27a3,3,0,0,1,0,6H17a3,3,0,0,1,0-6Z"/><path class="cls-1" d="M21,21v2a1,1,0,0,0,2,0V21a1,1,0,0,0-2,0Z"/><path class="cls-1" d="M27,23V21a1,1,0,0,0-2,0v2a1,1,0,0,0,2,0Z"/><path class="cls-1" d="M17,21v2a1,1,0,0,0,2,0V21a1,1,0,0,0-2,0Z"/><path class="cls-1" d="M22,34a3,3,0,0,0-3,3v4a3,3,0,0,0,6,0V37A3,3,0,0,0,22,34Zm1,7a1,1,0,0,1-2,0V37a1,1,0,0,1,2,0Z"/></g></svg>