<svg xmlns="http://www.w3.org/2000/svg" viewBox="0 0 44 44"><defs><style>.cls-1{fill:#fff;}</style></defs><title>cws-icon-plug</title><g id="plug"><path class="cls-1" d="M27.5,25H26V22a1,1,0,0,0-2,0v3H20V22a1,1,0,0,0-2,0v3H16.5a2.5,2.5,0,0,0,0,5H23a1,1,0,0,0,0-2H16.5a.5.5,0,0,1,0-1h11a.5.5,0,0,1,0,1H27a1,1,0,0,0-1,1v6a1,1,0,0,1-1,1H19a1,1,0,0,1-1-1V33a1,1,0,0,0-2,0v2a3,3,0,0,0,3,3h2a4,4,0,0,1-4,4,5,5,0,0,1-5-5,5,5,0,0,0-5-5,1,1,0,0,0,0,2,3,3,0,0,1,3,3,7,7,0,0,0,7,7,6,6,0,0,0,6-6h2a3,3,0,0,0,3-3V30A2.5,2.5,0,0,0,27.5,25Z"/><path class="cls-1" d="M37,10a3,3,0,0,1-3-3,7,7,0,0,0-7-7,6,6,0,0,0-6,6H19a3,3,0,0,0-3,3v5.05A2.5,2.5,0,0,0,16.5,19h11a2.5,2.5,0,0,0,0-5H21a1,1,0,0,0,0,2h6.5a.5.5,0,0,1,0,1h-11a.5.5,0,0,1,0-1H17a1,1,0,0,0,1-1V9a1,1,0,0,1,1-1h6a1,1,0,0,1,1,1v2a1,1,0,0,0,2,0V9a3,3,0,0,0-3-3H23a4,4,0,0,1,4-4,5,5,0,0,1,5,5,5,5,0,0,0,5,5,1,1,0,0,0,0-2Z"/></g></svg>