<svg xmlns="http://www.w3.org/2000/svg" viewBox="0 0 44 44"><defs><style>.cls-1{fill:#fff;}</style></defs><title>cws-icon-phone</title><g id="phone"><path class="cls-1" d="M22,20a1,1,0,1,0,1,1A1,1,0,0,0,22,20Z"/><path class="cls-1" d="M27,20a1,1,0,1,0,1,1A1,1,0,0,0,27,20Z"/><path class="cls-1" d="M32,20a1,1,0,1,0,1,1A1,1,0,0,0,32,20Z"/><path class="cls-1" d="M22,25a1,1,0,1,0,1,1A1,1,0,0,0,22,25Z"/><path class="cls-1" d="M27,25a1,1,0,1,0,1,1A1,1,0,0,0,27,25Z"/><path class="cls-1" d="M32,25a1,1,0,1,0,1,1A1,1,0,0,0,32,25Z"/><path class="cls-1" d="M22,30a1,1,0,1,0,1,1A1,1,0,0,0,22,30Z"/><path class="cls-1" d="M27,30a1,1,0,1,0,1,1A1,1,0,0,0,27,30Z"/><path class="cls-1" d="M32,30a1,1,0,1,0,1,1A1,1,0,0,0,32,30Z"/><path class="cls-1" d="M21,17H33a1,1,0,0,0,1-1V9a1,1,0,0,0-1-1H21a1,1,0,0,0-1,1v7A1,1,0,0,0,21,17Zm1-7H32v5H22Z"/><path class="cls-1" d="M40,25.1V6a3,3,0,0,0-3-3H17.82A3,3,0,0,0,15,1H9A3,3,0,0,0,6,4V8.88a5.75,5.75,0,0,0,.61,2.57A3.83,3.83,0,0,1,7,13.12V25.88a3.83,3.83,0,0,1-.39,1.67A5.75,5.75,0,0,0,6,30.12V35H3a1,1,0,0,1-1-1V6A1,1,0,0,1,3,5,1,1,0,0,0,3,3,3,3,0,0,0,0,6V34a3,3,0,0,0,3,3H6.18A3,3,0,0,0,9,39a1,1,0,0,0,0-2,1,1,0,0,1-1-1V30.12a3.83,3.83,0,0,1,.39-1.67A5.75,5.75,0,0,0,9,25.88V13.12a5.75,5.75,0,0,0-.61-2.57A3.83,3.83,0,0,1,8,8.88V4A1,1,0,0,1,9,3h6a1,1,0,0,1,1,1V8.88a3.7,3.7,0,0,1-.4,1.67,5.88,5.88,0,0,0-.6,2.57V25.88a5.72,5.72,0,0,0,.61,2.57A3.83,3.83,0,0,1,16,30.12V36a1,1,0,0,1-1,1H12a1,1,0,0,0-1,1,5,5,0,0,0,5,5H39a5,5,0,0,0,5-5V30A5,5,0,0,0,40,25.1ZM42,38a3,3,0,0,1-3,3H16a3,3,0,0,1-2.83-2H15a3,3,0,0,0,3-3V30.12a5.72,5.72,0,0,0-.61-2.57A3.83,3.83,0,0,1,17,25.88V13.12a3.7,3.7,0,0,1,.4-1.67A5.84,5.84,0,0,0,18,8.88V5H37a1,1,0,0,1,1,1V34a1,1,0,0,1-1,1H21a1,1,0,0,0,0,2H37a3,3,0,0,0,3-3V27.18A3,3,0,0,1,42,30Z"/></g></svg>