<svg xmlns="http://www.w3.org/2000/svg" viewBox="0 0 44 44"><defs><style>.cls-1{fill:#fff;}</style></defs><g id="metronome"><path class="cls-1" d="M38.08,34.78a1,1,0,1,0-2,.44L37.43,41a.88.88,0,0,1,0,.17.8.8,0,0,1-.8.8H12.25a.8.8,0,0,1-.8-.8,1.1,1.1,0,0,1,0-.18l2-9h7a1,1,0,1,0,0-2H14l1.53-6.78a1,1,0,0,0-2-.44l-4,17.8a2.62,2.62,0,0,0-.07.62,2.81,2.81,0,0,0,2.8,2.8h24.4a2.8,2.8,0,0,0,2.8-2.8,2.48,2.48,0,0,0-.07-.61Z"/><path class="cls-1" d="M23.45,10h2a1,1,0,1,0,0-2h-2a1,1,0,0,0,0,2Z"/><path class="cls-1" d="M25.45,12h-2a1,1,0,0,0,0,2h2a1,1,0,1,0,0-2Z"/><path class="cls-1" d="M25.45,16h-2a1,1,0,0,0,0,2h2a1,1,0,1,0,0-2Z"/><path class="cls-1" d="M25.45,20h-2a1,1,0,0,0,0,2h2a1,1,0,1,0,0-2Z"/><path class="cls-1" d="M25.45,24h-1a1,1,0,0,0,0,2h1a1,1,0,1,0,0-2Z"/><path class="cls-1" d="M39.45,29a1,1,0,0,0-1,1H37L30.78,2.34A3,3,0,0,0,27.85,0h-6.8a3,3,0,0,0-2.93,2.34L15,16.09,14,14.61A3,3,0,0,0,11.45,10a3.19,3.19,0,0,0-.7.09l-.49-.67a1,1,0,1,0-1.62,1.16l.43.61A3,3,0,0,0,11.45,16a3,3,0,0,0,.94-.17L23.64,31.58a1,1,0,0,0,.81.42h14a1,1,0,0,0,2,0V30A1,1,0,0,0,39.45,29ZM21.05,2h6.8a1,1,0,0,1,1,.78L29.1,4H19.8l.27-1.22A1,1,0,0,1,21.05,2ZM10.45,13a1,1,0,1,1,1,1A1,1,0,0,1,10.45,13Zm6.13,5.26a.05.05,0,0,0,0,0L19.35,6h10.2L35,30H25Z"/></g></svg>