<svg xmlns="http://www.w3.org/2000/svg" viewBox="0 0 44 44"><defs><style>.cls-1{fill:#fff;}</style></defs><title>cws-icon-shop</title><g id="shop"><circle class="cls-1" cx="24" cy="28" r="1"/><path class="cls-1" d="M43,35a1,1,0,0,0-1,1v3H2V37H40a1,1,0,0,0,1-1V20a1,1,0,0,0-2,0V35H18V21h8V32a1,1,0,0,0,2,0V20a1,1,0,0,0-1-1H17a1,1,0,0,0-1,1V35H1a1,1,0,0,0-1,1v4a1,1,0,0,0,1,1H43a1,1,0,0,0,1-1V36A1,1,0,0,0,43,35Z"/><path class="cls-1" d="M3,16.46V32a1,1,0,0,0,2,0V17.65a6,6,0,0,0,7-2.34,6,6,0,0,0,10,0,6,6,0,0,0,10,0A6,6,0,0,0,43,12a1,1,0,0,0,0-.24l-2-8A1,1,0,0,0,40,3H4a1,1,0,0,0-1,.76l-2,8A1,1,0,0,0,1,12,6,6,0,0,0,3,16.46ZM4.78,5H11V8a1,1,0,0,0,2,0V5h8V8a1,1,0,0,0,2,0V5h8V8a1,1,0,0,0,2,0V5h6.22l1.5,6H36a1,1,0,0,0,0,2h4.86A4,4,0,0,1,33,12a1,1,0,0,0-1-1H26a1,1,0,0,0,0,2h4.86A4,4,0,0,1,23,12a1,1,0,0,0-1-1H16a1,1,0,0,0,0,2h4.86A4,4,0,0,1,13,12a1,1,0,0,0-1-1H6a1,1,0,0,0,0,2h4.86A4,4,0,0,1,3,12.12Z"/><path class="cls-1" d="M31,19a1,1,0,0,0-1,1V32a1,1,0,0,0,1,1h5a1,1,0,0,0,1-1V20a1,1,0,0,0-1-1Zm4,12H32V21h3Z"/><path class="cls-1" d="M8,19a1,1,0,0,0-1,1V32a1,1,0,0,0,1,1h5a1,1,0,0,0,1-1V20a1,1,0,0,0-1-1Zm4,12H9V21h3Z"/></g></svg>