<svg xmlns="http://www.w3.org/2000/svg" viewBox="0 0 44 44"><defs><style>.cls-1{fill:#fff;}</style></defs><g id="tablet_pen"><circle class="cls-1" cx="17" cy="39" r="2"/><circle class="cls-1" cx="17" cy="5" r="1"/><path class="cls-1" d="M32,25a1,1,0,0,0-1,1v8H6a1,1,0,0,0,0,2H31v3a3,3,0,0,1-3,3H6a3,3,0,0,1-3-3V13a1,1,0,0,0-2,0V39a5,5,0,0,0,5,5H28a5,5,0,0,0,5-5V26A1,1,0,0,0,32,25Z"/><path class="cls-1" d="M2,10H28a1,1,0,0,0,0-2H3V5A3,3,0,0,1,6,2H28a3,3,0,0,1,3,3v6a1,1,0,0,0,2,0V5a5,5,0,0,0-5-5H6A5,5,0,0,0,1,5V9A1,1,0,0,0,2,10Z"/><path class="cls-1" d="M42.71,10.29l-3-3a1,1,0,0,0-1.42,0l-17,17a1.11,1.11,0,0,0-.22.34l-2,5A1,1,0,0,0,20,31a1,1,0,0,0,.37-.07l5-2a1.11,1.11,0,0,0,.34-.22l17-17A1,1,0,0,0,42.71,10.29ZM24.44,27.15l-2.65,1.06,1.06-2.65L39,9.41,40.59,11Z"/></g></svg>