<svg xmlns="http://www.w3.org/2000/svg" viewBox="0 0 64 56"><defs><style>.cls-1{fill:#fff;}</style></defs><g id="bag"><circle class="cls-1" cx="28.03" cy="38.61" r="1"/><path class="cls-1" d="M45,35.61a1,1,0,0,0-1,1v8a3,3,0,0,1-3,3H15a3,3,0,0,1-3-3v-8a1,1,0,0,0-2,0v8a5,5,0,0,0,5,5H41a5,5,0,0,0,5-5v-8A1,1,0,0,0,45,35.61Z"/><path class="cls-1" d="M44,23.61H12a3,3,0,0,0-3,3V31a3,3,0,0,0,2.41,2.94L21.89,36c.71.14,1.43.24,2.14.34v2.26a4,4,0,0,0,8,0V36.35c.72-.1,1.43-.2,2.14-.34l10.45-2.1A3,3,0,0,0,47,31V26.61A3,3,0,0,0,44,23.61Zm-14,15a2,2,0,0,1-4,0v-2h4ZM45,31a1,1,0,0,1-.8,1h0L33.78,34a29.24,29.24,0,0,1-11.49,0L11.84,32A1,1,0,0,1,11,31V26.61a1,1,0,0,1,1-1H44a1,1,0,0,1,1,1Z"/><path class="cls-1" d="M14.79,21.26,25.49,8.78a3.34,3.34,0,0,1,5.08,0l10.7,12.48A1,1,0,0,0,42.79,20L32.09,7.48a5.34,5.34,0,0,0-8.12,0L13.27,20a1,1,0,0,0,1.52,1.3Z"/></g></svg>