<svg id="Layer_1" data-name="Layer 1" xmlns="http://www.w3.org/2000/svg" viewBox="0 0 44 44"><defs><style>.cls-1{fill:#fff;}</style></defs><title>cws-icon-drill</title><path class="cls-1" d="M43,12H32V10.56a3,3,0,0,0-2.27-2.91L28,7.22V7a3,3,0,0,0-3-3H7a7,7,0,0,0-7,7v4a7,7,0,0,0,7,7h9a1,1,0,0,0,0-2H7a5,5,0,0,1-5-5V11A5,5,0,0,1,7,6H25a1,1,0,0,1,1,1V19a1,1,0,0,1-1,1H20a1,1,0,0,0-1,.76l-.62,2.48a1,1,0,0,1-1,.76H15.18a1,1,0,0,0-1,.8l-1.15,5.66A3,3,0,0,0,13.19,32H11a1,1,0,0,0,0,2h4a1,1,0,0,0,.35-.07A2.81,2.81,0,0,0,16,34h1a1,1,0,0,1,1,1v2a1,1,0,0,1-1,1H9a1,1,0,0,1-1-1,35.7,35.7,0,0,1,.48-5.82l.84-6a1,1,0,0,0-2-.28l-.83,6A36.9,36.9,0,0,0,6,37a3,3,0,0,0,3,3h8a3,3,0,0,0,3-3V35a3,3,0,0,0-3-3H16a1,1,0,0,1-.77-.36,1,1,0,0,1-.22-.8L16,26h1.44a3,3,0,0,0,2.91-2.27L20.78,22H25a3,3,0,0,0,3-3v-.22l1.73-.43A3,3,0,0,0,32,15.44V14H43a1,1,0,0,0,0-2ZM30,15.44a1,1,0,0,1-.76,1L28,16.72V9.28l1.24.31a1,1,0,0,1,.76,1Z"/><path class="cls-1" d="M10,12H6a1,1,0,0,0,0,2h4a1,1,0,0,0,0-2Z"/><path class="cls-1" d="M10,9H6a1,1,0,0,0,0,2h4a1,1,0,0,0,0-2Z"/><path class="cls-1" d="M10,15H6a1,1,0,0,0,0,2h4a1,1,0,0,0,0-2Z"/></svg>