<svg xmlns="http://www.w3.org/2000/svg" viewBox="0 0 44 44"><defs><style>.cls-1{fill:#fff;}</style></defs><title>Artboard 4</title><g id="chair"><path class="cls-1" d="M34,22H31V18a1,1,0,0,0-2,0v5a1,1,0,0,0,1,1h4a1,1,0,0,1,1,1v2a1,1,0,0,1-1,1H10a1,1,0,0,1-1-1V25a1,1,0,0,1,1-1H26a1,1,0,0,0,0-2H10a3,3,0,0,0-3,3v2a3,3,0,0,0,3,3V43a1,1,0,0,0,1,1h4a1,1,0,0,0,1-1V35a1,1,0,0,1,1-1H27a1,1,0,0,1,1,1v8a1,1,0,0,0,1,1h4a1,1,0,0,0,1-1V33a1,1,0,0,0-2,0v9H30V35a3,3,0,0,0-3-3H17a3,3,0,0,0-3,3v7H12V30H34a3,3,0,0,0,3-3V25A3,3,0,0,0,34,22Z"/><path class="cls-1" d="M13,16v4a1,1,0,0,0,2,0V15a1,1,0,0,0-1-1H13a1,1,0,0,1-1-1V3a1,1,0,0,1,1-1H31a1,1,0,0,1,1,1V13a1,1,0,0,1-1,1H18a1,1,0,0,0,0,2H31a3,3,0,0,0,3-3V3a3,3,0,0,0-3-3H13a3,3,0,0,0-3,3V13A3,3,0,0,0,13,16Z"/><path class="cls-1" d="M18,6h8a1,1,0,0,0,0-2H18a1,1,0,0,0,0,2Z"/></g></svg>