<svg xmlns="http://www.w3.org/2000/svg" viewBox="0 0 44 44"><defs><style>.cls-1{fill:#fff;}</style></defs><g id="footprint"><path class="cls-1" d="M15,15c2.8,0,5-3.08,5-7s-2.2-7-5-7-5,3.08-5,7S12.2,15,15,15ZM15,3c1.63,0,3,2.29,3,5s-1.37,5-3,5-3-2.29-3-5S13.37,3,15,3Z"/><path class="cls-1" d="M29,15c2.8,0,5-3.08,5-7s-2.2-7-5-7-5,3.07-5,7S26.2,15,29,15ZM29,3c1.63,0,3,2.29,3,5s-1.37,5-3,5-3-2.29-3-5S27.37,3,29,3Z"/><path class="cls-1" d="M39,14c-2.8,0-5,3.07-5,7s2.2,7,5,7,5-3.08,5-7S41.8,14,39,14Zm0,12c-1.63,0-3-2.29-3-5s1.37-5,3-5,3,2.29,3,5S40.63,26,39,26Z"/><path class="cls-1" d="M10,21c0-3.93-2.2-7-5-7s-5,3.07-5,7,2.2,7,5,7S10,24.92,10,21ZM5,26c-1.63,0-3-2.29-3-5s1.37-5,3-5,3,2.29,3,5S6.63,26,5,26Z"/><path class="cls-1" d="M33.92,28.92,32,28a5.34,5.34,0,0,1-2.75-3.44l-.6-2.18A7,7,0,0,0,22,17a7,7,0,0,0-6.64,5.36l-.6,2.18A5.36,5.36,0,0,1,12,28l-1.94.94A7.55,7.55,0,0,0,6,35.75a7.42,7.42,0,0,0,2.61,5.74,6.27,6.27,0,0,0,5.21,1.41l2.95-.54a10.09,10.09,0,0,0,2.15-.66,1,1,0,1,0-.8-1.83,7.85,7.85,0,0,1-1.71.52l-2.95.54a4.31,4.31,0,0,1-3.57-1A5.42,5.42,0,0,1,8,35.75a5.55,5.55,0,0,1,3-5l1.93-.94a7.31,7.31,0,0,0,3.8-4.7l.59-2.18A5,5,0,0,1,22,19a5,5,0,0,1,4.72,3.89l.59,2.18a7.34,7.34,0,0,0,3.8,4.7l1.93.94a5.55,5.55,0,0,1,3,5A5.42,5.42,0,0,1,34.11,40a4.31,4.31,0,0,1-3.57,1l-2.95-.54a7.85,7.85,0,0,1-1.71-.52,1,1,0,0,0-.8,1.83,10.09,10.09,0,0,0,2.15.66l2.95.54a6.3,6.3,0,0,0,5.21-1.41A7.42,7.42,0,0,0,38,35.75,7.55,7.55,0,0,0,33.92,28.92Z"/></g></svg>