<svg xmlns="http://www.w3.org/2000/svg" viewBox="0 0 44 44"><defs><style>.cls-1{fill:#fff;}</style></defs><title>cws-icon-folder</title><g id="folder"><path class="cls-1" d="M41,12H9a3,3,0,0,0-3,3V36a2,2,0,0,1-4,0V7A1,1,0,0,1,3,6h9.34a3,3,0,0,1,2.12.88l1.66,1.66A5,5,0,0,0,19.66,10H37a1,1,0,0,0,0-2H19.66a3,3,0,0,1-2.12-.88L15.88,5.46A5,5,0,0,0,12.34,4H3A3,3,0,0,0,0,7V36a4,4,0,0,0,8,0V15a1,1,0,0,1,1-1H41a1,1,0,0,1,1,1V36a2,2,0,0,1-2,2H10a1,1,0,0,0,0,2H40a4,4,0,0,0,4-4V15A3,3,0,0,0,41,12Z"/><path class="cls-1" d="M32,23a1,1,0,0,0-1-1H19a1,1,0,0,0,0,2H31A1,1,0,0,0,32,23Z"/><path class="cls-1" d="M22,26a1,1,0,0,0,0,2h6a1,1,0,0,0,0-2Z"/></g></svg>