<svg xmlns="http://www.w3.org/2000/svg" viewBox="0 0 44 44"><defs><style>.cls-1{fill:#fffafc;}</style></defs><g id="day"><path class="cls-1" d="M22,28a5.81,5.81,0,0,0,3.63-1.23,1,1,0,0,0-1.26-1.56,4,4,0,0,1-4.74,0,1,1,0,1,0-1.26,1.56A5.81,5.81,0,0,0,22,28Z"/><circle class="cls-1" cx="25" cy="21" r="1"/><circle class="cls-1" cx="19" cy="21" r="1"/><path class="cls-1" d="M19,8a1,1,0,0,0,1-1,6.17,6.17,0,0,1,1.83-4.41L22,2.41l.17.18A6.17,6.17,0,0,1,24,7a1,1,0,0,0,2,0,8.23,8.23,0,0,0-2.41-5.83L22.71.29a1,1,0,0,0-1.42,0l-.88.88A8.23,8.23,0,0,0,18,7,1,1,0,0,0,19,8Z"/><path class="cls-1" d="M25,36a1,1,0,0,0-1,1,6.17,6.17,0,0,1-1.83,4.41l-.17.18-.17-.18A6.17,6.17,0,0,1,20,37a1,1,0,0,0-2,0,8.23,8.23,0,0,0,2.41,5.83l.88.88a1,1,0,0,0,1.42,0l.88-.88A8.23,8.23,0,0,0,26,37,1,1,0,0,0,25,36Z"/><path class="cls-1" d="M43.71,21.29l-.88-.88A8.23,8.23,0,0,0,37,18a1,1,0,0,0,0,2,6.19,6.19,0,0,1,4.41,1.83l.18.17-.18.17A6.19,6.19,0,0,1,37,24a1,1,0,0,0,0,2,8.23,8.23,0,0,0,5.83-2.41l.88-.88A1,1,0,0,0,43.71,21.29Z"/><path class="cls-1" d="M8,25a1,1,0,0,0-1-1,6.19,6.19,0,0,1-4.41-1.83L2.41,22l.18-.17A6.19,6.19,0,0,1,7,20a1,1,0,0,0,0-2,8.23,8.23,0,0,0-5.83,2.41l-.88.88a1,1,0,0,0,0,1.42l.88.88A8.23,8.23,0,0,0,7,26,1,1,0,0,0,8,25Z"/><path class="cls-1" d="M31.19,10a6.21,6.21,0,0,1,4.42-1.83h.24v.24A6.21,6.21,0,0,1,34,12.81a1,1,0,0,0,0,1.41,1,1,0,0,0,.71.29,1,1,0,0,0,.7-.29,8.19,8.19,0,0,0,2.42-5.83V7.15a1,1,0,0,0-1-1H35.61a8.23,8.23,0,0,0-5.83,2.41,1,1,0,0,0,0,1.42A1,1,0,0,0,31.19,10Z"/><path class="cls-1" d="M12.81,34a6.21,6.21,0,0,1-4.42,1.83H8.15v-.24A6.21,6.21,0,0,1,10,31.19a1,1,0,1,0-1.41-1.41,8.19,8.19,0,0,0-2.42,5.83v1.24a1,1,0,0,0,1,1H8.39a8.23,8.23,0,0,0,5.83-2.41,1,1,0,0,0,0-1.42A1,1,0,0,0,12.81,34Z"/><path class="cls-1" d="M34,29.78a1,1,0,0,0,0,1.41,6.21,6.21,0,0,1,1.83,4.42v.24h-.24A6.21,6.21,0,0,1,31.19,34a1,1,0,0,0-1.41,0,1,1,0,0,0,0,1.42,8.23,8.23,0,0,0,5.83,2.41h1.24a1,1,0,0,0,1-1V35.61a8.19,8.19,0,0,0-2.42-5.83A1,1,0,0,0,34,29.78Z"/><path class="cls-1" d="M9.27,14.51a1,1,0,0,0,.71-.29,1,1,0,0,0,0-1.41A6.21,6.21,0,0,1,8.15,8.39V8.15h.24A6.21,6.21,0,0,1,12.81,10a1,1,0,0,0,1.41,0,1,1,0,0,0,0-1.42A8.23,8.23,0,0,0,8.39,6.15H7.15a1,1,0,0,0-1,1V8.39a8.19,8.19,0,0,0,2.42,5.83A1,1,0,0,0,9.27,14.51Z"/><path class="cls-1" d="M27.88,33.59a13.11,13.11,0,0,0,2.57-1.72l.74.74a1,1,0,0,0,1.42,0,1,1,0,0,0,0-1.42l-.74-.74a13.41,13.41,0,0,0,1.72-2.57l1,.4a1.08,1.08,0,0,0,.38.08,1,1,0,0,0,.39-1.93l-1-.42a1,1,0,0,0-.65-1,1,1,0,0,0-1.27.61,11,11,0,0,1-20.76,0,1,1,0,0,0-1.27-.61,1,1,0,0,0-.66,1l-1,.42a1,1,0,0,0,.39,1.93,1.08,1.08,0,0,0,.38-.08l1-.4a13,13,0,0,0,1.72,2.57l-.74.74a1,1,0,0,0,0,1.42,1,1,0,0,0,1.42,0l.74-.74a13.11,13.11,0,0,0,2.57,1.72l-.4,1a1,1,0,0,0,.54,1.31,1,1,0,0,0,.38.07,1,1,0,0,0,.93-.61l.4-1A12.83,12.83,0,0,0,21,35v1a1,1,0,0,0,2,0V35a12.83,12.83,0,0,0,3-.61l.4,1a1,1,0,0,0,.93.61,1,1,0,0,0,.38-.07,1,1,0,0,0,.54-1.31Z"/><path class="cls-1" d="M16.12,10.42a13.11,13.11,0,0,0-2.57,1.72l-.74-.75a1,1,0,0,0-1.42,1.42l.75.74a13.11,13.11,0,0,0-1.72,2.57l-1-.4a1,1,0,0,0-.77,1.85l1,.4a12.62,12.62,0,0,0-.6,3H8a1,1,0,0,0,0,2h3.51a2,2,0,0,1,2,2,1,1,0,0,0,2,0,4,4,0,0,0-4-4h-.46A11,11,0,0,1,33,21h-.46a4,4,0,0,0-4,4,1,1,0,0,0,2,0,2,2,0,0,1,2-2H36a1,1,0,0,0,0-2H35a12.62,12.62,0,0,0-.6-3l1-.4a1,1,0,1,0-.77-1.85l-1,.4a13.11,13.11,0,0,0-1.72-2.57l.75-.74a1,1,0,0,0-1.42-1.42l-.74.75a13.11,13.11,0,0,0-2.57-1.72l.4-1a1,1,0,1,0-1.85-.77l-.4,1a12.62,12.62,0,0,0-3-.6V8a1,1,0,0,0-2,0V9.05a12.62,12.62,0,0,0-3,.6l-.4-1a1,1,0,0,0-1.85.77Z"/><path class="cls-1" d="M28,19a1,1,0,0,0,.63-1.78A6,6,0,0,0,22,16.79a6,6,0,0,0-6.63.43,1,1,0,1,0,1.26,1.56,4,4,0,0,1,4.74,0,1,1,0,0,0,1.26,0,4,4,0,0,1,4.74,0A1,1,0,0,0,28,19Z"/></g></svg>