<svg xmlns="http://www.w3.org/2000/svg" viewBox="0 0 44 44"><defs><style>.cls-1{fill:#fff;}</style></defs><title>cws-icon-walkie-talkie</title><g id="walkie-talkie"><path class="cls-1" d="M6,29a1,1,0,1,0,1,1A1,1,0,0,0,6,29Z"/><path class="cls-1" d="M10,29a1,1,0,1,0,1,1A1,1,0,0,0,10,29Z"/><path class="cls-1" d="M14,29a1,1,0,1,0,1,1A1,1,0,0,0,14,29Z"/><path class="cls-1" d="M6,33a1,1,0,1,0,1,1A1,1,0,0,0,6,33Z"/><path class="cls-1" d="M10,33a1,1,0,1,0,1,1A1,1,0,0,0,10,33Z"/><path class="cls-1" d="M14,33a1,1,0,1,0,1,1A1,1,0,0,0,14,33Z"/><path class="cls-1" d="M6,37a1,1,0,1,0,1,1A1,1,0,0,0,6,37Z"/><path class="cls-1" d="M10,37a1,1,0,1,0,1,1A1,1,0,0,0,10,37Z"/><path class="cls-1" d="M14,37a1,1,0,1,0,1,1A1,1,0,0,0,14,37Z"/><path class="cls-1" d="M17,12a1,1,0,0,1-1-1V3a3,3,0,0,0-6,0V9a1,1,0,0,0,2,0V3a1,1,0,0,1,2,0v8a3,3,0,0,0,3,3,1,1,0,0,1,1,1V41a1,1,0,0,1-1,1H3a1,1,0,0,1-1-1V15a1,1,0,0,1,1-1h8a1,1,0,0,0,0-2H3a3,3,0,0,0-3,3V41a3,3,0,0,0,3,3H17a3,3,0,0,0,3-3V15A3,3,0,0,0,17,12Z"/><path class="cls-1" d="M30,29a1,1,0,1,0,1,1A1,1,0,0,0,30,29Z"/><path class="cls-1" d="M34,29a1,1,0,1,0,1,1A1,1,0,0,0,34,29Z"/><path class="cls-1" d="M38,29a1,1,0,1,0,1,1A1,1,0,0,0,38,29Z"/><path class="cls-1" d="M30,33a1,1,0,1,0,1,1A1,1,0,0,0,30,33Z"/><path class="cls-1" d="M34,33a1,1,0,1,0,1,1A1,1,0,0,0,34,33Z"/><path class="cls-1" d="M38,33a1,1,0,1,0,1,1A1,1,0,0,0,38,33Z"/><path class="cls-1" d="M30,37a1,1,0,1,0,1,1A1,1,0,0,0,30,37Z"/><path class="cls-1" d="M34,37a1,1,0,1,0,1,1A1,1,0,0,0,34,37Z"/><path class="cls-1" d="M38,37a1,1,0,1,0,1,1A1,1,0,0,0,38,37Z"/><path class="cls-1" d="M41,12a1,1,0,0,1-1-1V3a3,3,0,0,0-6,0V9a1,1,0,0,0,2,0V3a1,1,0,0,1,2,0v8a3,3,0,0,0,3,3,1,1,0,0,1,1,1V41a1,1,0,0,1-1,1H27a1,1,0,0,1-1-1V15a1,1,0,0,1,1-1h8a1,1,0,0,0,0-2H27a3,3,0,0,0-3,3V41a3,3,0,0,0,3,3H41a3,3,0,0,0,3-3V15A3,3,0,0,0,41,12Z"/><path class="cls-1" d="M15,18a1,1,0,0,0-1-1H6a1,1,0,0,0-1,1v8a1,1,0,0,0,1,1h8a1,1,0,0,0,1-1Zm-2,7H7V19h6Z"/><path class="cls-1" d="M39,18a1,1,0,0,0-1-1H30a1,1,0,0,0-1,1v8a1,1,0,0,0,1,1h8a1,1,0,0,0,1-1Zm-2,7H31V19h6Z"/></g></svg>