<svg xmlns="http://www.w3.org/2000/svg" viewBox="0 0 44 44"><defs><style>.cls-1{fill:#fff;}</style></defs><g id="mouse"><circle class="cls-1" cx="9" cy="32" r="1"/><path class="cls-1" d="M18,25.47a1,1,0,0,0,.33-.06A27,27,0,0,1,23,24.19V27a1,1,0,0,0,2,0V19.86A4,4,0,0,0,28,16V8h1a1,1,0,0,0,0-2H25V2h1a1,1,0,0,0,0-2H22a1,1,0,0,0,0,2h1V6H19a1,1,0,0,0,0,2h7v4H22V11a1,1,0,0,0-2,0v5a4,4,0,0,0,3,3.86v2.32a27.3,27.3,0,0,0-5.33,1.34A1,1,0,0,0,18,25.47ZM22,16V14h4v2a2,2,0,0,1-4,0Z"/><path class="cls-1" d="M22,37V36a1,1,0,0,1,1-1h3a1,1,0,0,0,1-1,3,3,0,0,1,3-3,1,1,0,0,0,0-2,5,5,0,0,0-4.9,4H23a3,3,0,0,0-3,3H3.33A1.32,1.32,0,0,1,2,34.67a1.31,1.31,0,0,1,.24-.77A17.5,17.5,0,0,1,6.4,30.78c.94-.59,2-1.27,3.16-2.05A1,1,0,0,0,10,27.9V27a2,2,0,0,1,4,0,2,2,0,0,1-.51,1.33A1,1,0,1,0,15,29.67,4,4,0,1,0,8,27v.37C7,28,6.14,28.58,5.33,29.09A18,18,0,0,0,.66,32.68a3.24,3.24,0,0,0-.66,2A3.33,3.33,0,0,0,3.33,38H21A1,1,0,0,0,22,37Z"/><path class="cls-1" d="M40,34h0c0-.11,0-.22,0-.32-.49-3.82-2.68-10.39-11.85-11.52A1,1,0,0,0,27,23a1,1,0,0,0,.87,1.12c7.43.91,9.6,5.82,10.1,9.78a1.23,1.23,0,0,1,0,.27A1.81,1.81,0,0,1,36.2,36H25a1,1,0,0,0,0,2H36.2a3.78,3.78,0,0,0,3.32-2H40a2,2,0,0,1,0,4H17a3,3,0,0,0-3,3,1,1,0,0,0,2,0,1,1,0,0,1,1-1H40a4,4,0,0,0,0-8Z"/></g></svg>