<svg xmlns="http://www.w3.org/2000/svg" viewBox="0 0 44 44"><defs><style>.cls-1{fill:#fff;}</style></defs><title>cws-icon-table</title><g id="table"><circle class="cls-1" cx="34" cy="25" r="1"/><circle class="cls-1" cx="34" cy="36" r="1"/><path class="cls-1" d="M41,16H38a1,1,0,0,0-1-1H35V9a1,1,0,0,0-1-1H29.1a5,5,0,0,1,9.8,0H37a1,1,0,0,0,0,2h3a1,1,0,0,0,1-1,7,7,0,0,0-6-6.92V2a1,1,0,0,0-2,0v.08A7,7,0,0,0,27,9a1,1,0,0,0,1,1h5v5H31a1,1,0,0,0-1,1H17V15h1a1,1,0,0,0,1-1V11a1,1,0,0,0-1-1H8a1,1,0,0,0-1,1v2H6a1,1,0,0,0-1,1v2H3a3,3,0,0,0,0,6V42a1,1,0,0,0,2,0V28H24a1,1,0,0,0,0-2H5V21a1,1,0,0,0-1-1H3a1,1,0,0,1,0-2H41a1,1,0,0,1,0,2H8a1,1,0,0,0,0,2H27V40a3,3,0,0,0,3,3h8a3,3,0,0,0,3-3V22a3,3,0,0,0,0-6ZM9,12h8v1H9ZM7,16V15h8v1ZM38,41H30a1,1,0,0,1-1-1V33H39v7A1,1,0,0,1,38,41Zm1-10H29V22H39Z"/></g></svg>