<svg xmlns="http://www.w3.org/2000/svg" viewBox="0 0 44 44"><defs><style>.cls-1{fill:#fff;}</style></defs><title>cws-icon-money</title><g id="money"><circle class="cls-1" cx="32" cy="17" r="2"/><circle class="cls-1" cx="12" cy="17" r="2"/><path class="cls-1" d="M41,3H3A3,3,0,0,0,0,6V28a3,3,0,0,0,3,3H41a3,3,0,0,0,3-3V6A3,3,0,0,0,41,3Zm1,25a1,1,0,0,1-1,1H3a1,1,0,0,1-1-1V6A1,1,0,0,1,3,5H41a1,1,0,0,1,1,1Z"/><path class="cls-1" d="M43,32a1,1,0,0,0-1,1,1,1,0,0,1-1,1H3a1,1,0,0,1-1-1,1,1,0,0,0-2,0,3,3,0,0,0,3,3H41a3,3,0,0,0,3-3A1,1,0,0,0,43,32Z"/><path class="cls-1" d="M43,37a1,1,0,0,0-1,1,1,1,0,0,1-1,1H3a1,1,0,0,1-1-1,1,1,0,0,0-2,0,3,3,0,0,0,3,3H41a3,3,0,0,0,3-3A1,1,0,0,0,43,37Z"/><path class="cls-1" d="M39,9a1,1,0,0,1-1-1,1,1,0,0,0-1-1H7A1,1,0,0,0,6,8,1,1,0,0,1,5,9a1,1,0,0,0-1,1V24a1,1,0,0,0,1,1,1,1,0,0,1,1,1,1,1,0,0,0,1,1H37a1,1,0,0,0,1-1,1,1,0,0,1,1-1,1,1,0,0,0,1-1V10A1,1,0,0,0,39,9ZM36.17,25H7.83A3,3,0,0,0,6,23.18V10.82A3,3,0,0,0,7.83,9H36.17A3,3,0,0,0,38,10.82V23.18A3,3,0,0,0,36.17,25Z"/><path class="cls-1" d="M22,11a6,6,0,1,0,6,6A6,6,0,0,0,22,11Zm0,10a4,4,0,1,1,4-4A4,4,0,0,1,22,21Z"/></g></svg>