<svg xmlns="http://www.w3.org/2000/svg" viewBox="0 0 44 44"><defs><style>.cls-1{fill:#fff;}</style></defs><title>cws-icon-open-book</title><g id="open_book"><path class="cls-1" d="M26.42,15.91a9.63,9.63,0,0,1,8.16,0A1.06,1.06,0,0,0,35,16a1,1,0,0,0,.42-1.91,11.67,11.67,0,0,0-9.84,0,1,1,0,1,0,.84,1.82Z"/><path class="cls-1" d="M25.09,20.42a1,1,0,0,0,1.33.49,9.63,9.63,0,0,1,8.16,0A1.06,1.06,0,0,0,35,21a1,1,0,0,0,.42-1.91,11.67,11.67,0,0,0-9.84,0A1,1,0,0,0,25.09,20.42Z"/><path class="cls-1" d="M25.09,25.42a1,1,0,0,0,1.33.49,9.63,9.63,0,0,1,8.16,0A1.06,1.06,0,0,0,35,26a1,1,0,0,0,.42-1.91,11.67,11.67,0,0,0-9.84,0A1,1,0,0,0,25.09,25.42Z"/><path class="cls-1" d="M18.42,14.09a11.67,11.67,0,0,0-9.84,0,1,1,0,1,0,.84,1.82,9.63,9.63,0,0,1,8.16,0A1.06,1.06,0,0,0,18,16a1,1,0,0,0,.42-1.91Z"/><path class="cls-1" d="M18.42,19.09a11.67,11.67,0,0,0-9.84,0,1,1,0,1,0,.84,1.82,9.63,9.63,0,0,1,8.16,0A1.06,1.06,0,0,0,18,21a1,1,0,0,0,.42-1.91Z"/><path class="cls-1" d="M18.42,24.09a11.67,11.67,0,0,0-9.84,0,1,1,0,1,0,.84,1.82,9.63,9.63,0,0,1,8.16,0A1.06,1.06,0,0,0,18,26a1,1,0,0,0,.42-1.91Z"/><path class="cls-1" d="M43,8a1,1,0,0,0-1,1V36a1,1,0,0,1-1,1H23V9.37a13.12,13.12,0,0,1,15,0V33a14.89,14.89,0,0,0-12.32-1.21,1,1,0,1,0,.64,1.89,13.09,13.09,0,0,1,12.09,2,1,1,0,0,0,1,.09,1,1,0,0,0,.55-.89v-26a1,1,0,0,0-.41-.81,15.12,15.12,0,0,0-18.18,0,1,1,0,0,0-.41.81V33A15,15,0,0,0,6,33V9.37A13,13,0,0,1,17.68,7.7a1,1,0,0,0,.65-1.89A15,15,0,0,0,4.41,8.05,1,1,0,0,0,4,8.86v26a1,1,0,0,0,.55.89,1,1,0,0,0,1-.09A13.12,13.12,0,0,1,21,35.39V37H3a1,1,0,0,1-1-1V9A1,1,0,0,0,0,9V36a3,3,0,0,0,3,3H41a3,3,0,0,0,3-3V9A1,1,0,0,0,43,8Z"/></g></svg>