<svg xmlns="http://www.w3.org/2000/svg" viewBox="0 0 44 44"><defs><style>.cls-1{fill:#fff;}</style></defs><title>cws-icon-home</title><g id="home"><path class="cls-1" d="M34,40H27.82A3,3,0,0,0,25,38H23V35a1,1,0,0,0-2,0v3H19a3,3,0,0,0-2.82,2H10a1,1,0,0,0,0,2h6.18A3,3,0,0,0,19,44h6a3,3,0,0,0,2.82-2H34a1,1,0,0,0,0-2Zm-9,2H19a1,1,0,0,1,0-2h6a1,1,0,0,1,0,2Z"/><path class="cls-1" d="M39.33,8.06l-17-6a.94.94,0,0,0-.66,0L17,3.7V2a1,1,0,0,0,0-2H11a1,1,0,0,0,0,2V3a1,1,0,0,0,2,0V2h2V4.41L4.67,8.06A1,1,0,0,0,4,9v4a1,1,0,0,0,1,1H7V31a1,1,0,0,0,1,1H24a1,1,0,0,0,1-1V18h6v9a1,1,0,0,0,2,0V17a1,1,0,0,0-1-1H24a1,1,0,0,0-1,1V30H9V13a1,1,0,0,0-1-1H6V9.71L22,4.06,38,9.71V12H36a1,1,0,0,0-1,1V30H28a1,1,0,0,0,0,2h8a1,1,0,0,0,1-1V14h2a1,1,0,0,0,1-1V9A1,1,0,0,0,39.33,8.06Z"/><path class="cls-1" d="M25,10a3,3,0,1,0-3,3A3,3,0,0,0,25,10Zm-4,0a1,1,0,1,1,1,1A1,1,0,0,1,21,10Z"/><path class="cls-1" d="M19,16H13a1,1,0,0,0-1,1v7a1,1,0,0,0,0,2h8a1,1,0,0,0,0-2V17A1,1,0,0,0,19,16Zm-5,8V18h4v6Z"/></g></svg>