<svg xmlns="http://www.w3.org/2000/svg" viewBox="0 0 44 44"><defs><style>.cls-1{fill:#fff;}</style></defs><title>cws-icon-contract</title><g id="contract"><path class="cls-1" d="M22.64,10.23a1,1,0,0,0-1.28,0l-6,5a1,1,0,0,0-.3,1.11A1,1,0,0,0,16,17v5a1,1,0,0,0,1,1H27a1,1,0,0,0,1-1V17a1,1,0,0,0,.94-.66,1,1,0,0,0-.3-1.11ZM21,21V18h2v3Zm5-5v5H25V17a1,1,0,0,0-1-1H20a1,1,0,0,0-1,1v4H18V16a1.13,1.13,0,0,0-.05-.32L22,12.3l4.05,3.38A1.13,1.13,0,0,0,26,16Z"/><path class="cls-1" d="M26,27a1,1,0,0,0-1-1H11a1,1,0,0,0,0,2H25A1,1,0,0,0,26,27Z"/><path class="cls-1" d="M11,30a1,1,0,0,0,0,2h9a1,1,0,0,0,0-2Z"/><path class="cls-1" d="M33,26H29a1,1,0,0,0,0,2h4a1,1,0,0,0,0-2Z"/><path class="cls-1" d="M25.71,38.71l.58-.59a1,1,0,0,1,1.42,0l1,1a3,3,0,0,0,2.12.88H33a1,1,0,0,0,0-2H30.83a1,1,0,0,1-.71-.29l-1-1a3,3,0,0,0-4.24,0l-.59.58a1,1,0,0,0,1.42,1.42Z"/><path class="cls-1" d="M24,32h3a1,1,0,0,0,0-2H24a1,1,0,0,0,0,2Z"/><path class="cls-1" d="M38,10H31a1,1,0,0,1-1-1V5a1,1,0,0,0-2,0V9a3,3,0,0,0,3,3h6V41a1,1,0,0,1-1,1H8a1,1,0,0,1-1-1V3A1,1,0,0,1,8,2H29.62l7.72,6.75a1,1,0,1,0,1.32-1.5l-8-7A1,1,0,0,0,30,0H8A3,3,0,0,0,5,3V41a3,3,0,0,0,3,3H36a3,3,0,0,0,3-3V11A1,1,0,0,0,38,10Z"/></g></svg>