<svg xmlns="http://www.w3.org/2000/svg" viewBox="0 0 44 44"><defs><style>.cls-1{fill:#fff;}</style></defs><title>cws-icon-trolley</title><g id="trolley"><circle class="cls-1" cx="31" cy="36" r="1"/><circle class="cls-1" cx="13" cy="36" r="1"/><path class="cls-1" d="M6,13a1,1,0,0,0,.8-.4L9.42,9.1,13.8,10a1,1,0,0,0,1-.36l3.4-4.24L21.4,7.8a1,1,0,0,0,1.2,0l3.2-2.4,2.4,3.2a1,1,0,0,0,1,.38l4.4-.88,3.62,4.52a1,1,0,1,0,1.56-1.25l-4-5a1,1,0,0,0-1-.35l-4.38.88L26.8,3.4a1,1,0,0,0-1.4-.2L22,5.75,18.6,3.2a1,1,0,0,0-1.38.17L13.6,7.9,9.2,7a1,1,0,0,0-1,.38l-3,4a1,1,0,0,0,.2,1.4A1,1,0,0,0,6,13Z"/><path class="cls-1" d="M39.26,34.48l2-12.32a1,1,0,1,0-2-.32l-2,12.32a1,1,0,0,1-1,.84h-.4a5,5,0,0,0-9.8,0H21a1,1,0,0,0,0,2h6a1,1,0,0,0,1-1,3,3,0,1,1,3,3H20a1,1,0,0,0,0,2H31a5,5,0,0,0,4.9-4h.4A3,3,0,0,0,39.26,34.48Z"/><path class="cls-1" d="M43,39H38a1,1,0,0,0,0,2h5a1,1,0,0,0,0-2Z"/><path class="cls-1" d="M13,31a5,5,0,0,0-4.9,4H7.69a1,1,0,0,1-1-.84L4,17.84A1,1,0,0,0,3,17H2.5a.5.5,0,0,1,0-1h39a.5.5,0,0,1,0,1H9a1,1,0,0,0,0,2H41.5a2.5,2.5,0,0,0,0-5H2.5a2.5,2.5,0,0,0-.35,5L4.74,34.49a3,3,0,0,0,3,2.51H9a1,1,0,0,0,1-1,3,3,0,1,1,3,3H1a1,1,0,0,0,0,2H13a5,5,0,0,0,0-10Z"/></g></svg>