<svg xmlns="http://www.w3.org/2000/svg" viewBox="0 0 44 44"><defs><style>.cls-1{fill:#fff;}</style></defs><g id="mesoamerican_pyramid"><path class="cls-1" d="M43,31.84A1,1,0,0,0,42,31H40.85L40,25.84A1,1,0,0,0,39,25H37.85L37,19.84A1,1,0,0,0,36,19H34.85L34,13.84A1,1,0,0,0,33,13H31V7h2a1,1,0,0,0,0-2H11a1,1,0,0,0,0,2h2v3a1,1,0,0,0,2,0V7H29v6H26V10a1,1,0,0,0-1-1H19a1,1,0,0,0-1,1v3H11a1,1,0,0,0-1,.84L9.15,19H8a1,1,0,0,0-1,.84L6.15,25H5a1,1,0,0,0-1,.84L3.15,31H2a1,1,0,0,0-1,.84l-1,6a1,1,0,0,0,.23.81A1,1,0,0,0,1,39H43a1,1,0,0,0,.76-.35,1,1,0,0,0,.23-.81ZM20,11h4v2H20Zm-8.15,4H16v4H11.18Zm-3,6H16v4H8.18Zm-3,6H16v4H5.18Zm-3,6H16v4H2.18ZM18,37V15h8V34a1,1,0,0,0,2,0V15h4.15l.67,4h-2a1,1,0,0,0,0,2h4.29l.67,4H31a1,1,0,0,0,0,2h7.15l.67,4H31a1,1,0,0,0,0,2H41.15l.67,4Z"/><path class="cls-1" d="M24,31H20a1,1,0,0,0,0,2h4a1,1,0,0,0,0-2Z"/><path class="cls-1" d="M24,25H20a1,1,0,0,0,0,2h4a1,1,0,0,0,0-2Z"/><path class="cls-1" d="M24,19H20a1,1,0,0,0,0,2h4a1,1,0,0,0,0-2Z"/></g></svg>