<svg xmlns="http://www.w3.org/2000/svg" viewBox="0 0 44 44"><defs><style>.cls-1{fill:#fff;}</style></defs><title>cws-icon-globe-settings</title><g id="globe_settings"><path class="cls-1" d="M23.89,42.3a.53.53,0,0,0-.13-.13,1,1,0,0,0-.85-.26A4.84,4.84,0,0,1,22,42c-3.33,0-6.45-3.42-8.32-9H19a1,1,0,0,0,0-2H4.16a19.78,19.78,0,0,1-2.11-8h8a39.43,39.43,0,0,0,.45,5.15,1,1,0,0,0,1,.85h.16a1,1,0,0,0,.83-1.14A38.37,38.37,0,0,1,12,23h9v1a1,1,0,0,0,2,0V23h1a1,1,0,0,0,0-2H23V13h7.89a34.94,34.94,0,0,1,1,6.08,1,1,0,0,0,2-.15A36.83,36.83,0,0,0,33,13h6.88A19.88,19.88,0,0,1,42,22c0,.25,0,.49,0,.73l0,.36a1,1,0,1,0,2,.11l0-.33c0-.29,0-.58,0-.87A22,22,0,1,0,22,44c.29,0,.58,0,.87,0l.33,0a1,1,0,0,0,.95-1,1,1,0,0,0-.21-.52ZM21,21H12a35.12,35.12,0,0,1,1.09-8H21Zm2-10V5a1,1,0,0,0-2,0v6H13.71C15.52,5.62,18.59,2,22,2s6.5,3.56,8.31,9Zm15.69,0H32.41A20.68,20.68,0,0,0,28,2.94,20.05,20.05,0,0,1,38.69,11ZM15.94,3A20.4,20.4,0,0,0,11.57,11H8a1,1,0,0,0,0,2h3a38.39,38.39,0,0,0-1,8h-8A20,20,0,0,1,15.94,3ZM5.31,33h6.28A20.44,20.44,0,0,0,16,41.07,20.17,20.17,0,0,1,5.31,33Z"/><path class="cls-1" d="M41.69,30a.29.29,0,0,1-.27-.16c-.07-.19-.15-.38-.23-.56a.27.27,0,0,1,.08-.3,2.32,2.32,0,0,0,0-3.27l-1-1a2.32,2.32,0,0,0-3.27,0,.27.27,0,0,1-.3.08l-.56-.23a.29.29,0,0,1-.16-.27A2.32,2.32,0,0,0,33.69,22H32.31A2.32,2.32,0,0,0,30,24.31a.29.29,0,0,1-.16.27l-.56.23a.28.28,0,0,1-.3-.08,2.32,2.32,0,0,0-3.27,0l-1,1a2.32,2.32,0,0,0,0,3.27.27.27,0,0,1,.08.3c-.08.18-.16.37-.23.56a.29.29,0,0,1-.27.16A2.32,2.32,0,0,0,22,32.31v1.38A2.32,2.32,0,0,0,24.31,36a.29.29,0,0,1,.27.16c.07.19.15.38.23.56a.27.27,0,0,1-.08.3,2.32,2.32,0,0,0,0,3.27l1,1a2.32,2.32,0,0,0,3.27,0,.27.27,0,0,1,.3-.08l.56.23a.29.29,0,0,1,.16.27A2.32,2.32,0,0,0,32.31,44h1.38A2.32,2.32,0,0,0,36,41.69a.29.29,0,0,1,.16-.27l.56-.23a.27.27,0,0,1,.3.08,2.32,2.32,0,0,0,3.27,0l1-1a2.32,2.32,0,0,0,0-3.27.27.27,0,0,1-.08-.3c.08-.18.16-.37.23-.56a.29.29,0,0,1,.27-.16A2.32,2.32,0,0,0,44,33.69V32.31A2.32,2.32,0,0,0,41.69,30ZM42,33.69a.31.31,0,0,1-.31.31,2.27,2.27,0,0,0-2.14,1.46l-.18.43a2.29,2.29,0,0,0,.48,2.55.31.31,0,0,1,0,.44l-1,1a.31.31,0,0,1-.44,0,2.29,2.29,0,0,0-2.55-.48l-.43.18A2.27,2.27,0,0,0,34,41.69a.31.31,0,0,1-.31.31H32.31a.31.31,0,0,1-.31-.31,2.27,2.27,0,0,0-1.46-2.14l-.43-.18a2.23,2.23,0,0,0-.91-.2,2.35,2.35,0,0,0-1.64.68.31.31,0,0,1-.44,0l-1-1a.31.31,0,0,1,0-.44,2.29,2.29,0,0,0,.48-2.55l-.18-.43A2.27,2.27,0,0,0,24.31,34a.31.31,0,0,1-.31-.31V32.31a.31.31,0,0,1,.31-.31,2.27,2.27,0,0,0,2.14-1.46l.18-.43a2.29,2.29,0,0,0-.48-2.55.31.31,0,0,1,0-.44l1-1a.31.31,0,0,1,.44,0,2.29,2.29,0,0,0,2.55.48l.43-.18A2.27,2.27,0,0,0,32,24.31a.31.31,0,0,1,.31-.31h1.38a.31.31,0,0,1,.31.31,2.27,2.27,0,0,0,1.46,2.14l.43.18a2.29,2.29,0,0,0,2.55-.48.31.31,0,0,1,.44,0l1,1a.31.31,0,0,1,0,.44,2.29,2.29,0,0,0-.48,2.55l.18.43A2.27,2.27,0,0,0,41.69,32a.31.31,0,0,1,.31.31Z"/><path class="cls-1" d="M33,29a4,4,0,1,0,4,4A4,4,0,0,0,33,29Zm0,6a2,2,0,1,1,2-2A2,2,0,0,1,33,35Z"/></g></svg>