<svg xmlns="http://www.w3.org/2000/svg" viewBox="0 0 44 44"><defs><style>.cls-1{fill:#fff;}</style></defs><title>cws-icon-moped</title><g id="moped"><circle class="cls-1" cx="37" cy="32" r="1"/><path class="cls-1" d="M43.71,25.29a8.83,8.83,0,0,0-6.93-2.44c-.26-1.21-.82-3.84-1.43-6.48l2.41.6a1,1,0,0,0,.86-.18A1,1,0,0,0,39,16V10a1,1,0,0,0-.37-.77A1,1,0,0,0,37.8,9l-4.13.83C33.11,8.3,32,6,29,6a1,1,0,0,0-.55.17l-3,2a1,1,0,1,0,1.1,1.66L29.28,8c1.6.14,2.17,1.48,2.7,3.08l.07.23A1,1,0,0,0,33.2,12l3.8-.76v3.5L34.24,14A1,1,0,0,0,33,15.23c.73,3.06,1.46,6.49,1.78,8a9.55,9.55,0,0,0-4.18,2.44,8.87,8.87,0,0,0-1.5,2,1,1,0,1,0,1.74,1,6.89,6.89,0,0,1,1.18-1.56,7.65,7.65,0,0,1,9-1.3L30.79,30.14c-.91.4-1.53.66-1.94.86H2c.07-6.33.89-9,5-9a1,1,0,0,0,.8-1.6L6,18H17a1,1,0,0,1,1,1v7a1,1,0,0,0,1,1h6.08A5,5,0,0,0,29,25.12l1.78-2.22a5,5,0,0,0,1.07-3.62L31,10.9A1,1,0,0,0,29.9,10a1,1,0,0,0-.9,1.1l.84,8.38a3,3,0,0,1-.64,2.17l-1.78,2.22A3,3,0,0,1,25.08,25H20V19a3,3,0,0,0-3-3H4a1,1,0,0,0-.89.55A1,1,0,0,0,3.2,17.6l1.94,2.58C0,21.29,0,27.18,0,32a1,1,0,0,0,1,1H4.09a6,6,0,0,0,11.82,0H29a1.1,1.1,0,0,0,.4-.08L31,32.23a6,6,0,1,0,10.28-4.41l2.1-.9a1,1,0,0,0,.59-.73A1,1,0,0,0,43.71,25.29ZM10,36a4,4,0,0,1-3.86-3h7.72A4,4,0,0,1,10,36Zm29.4-7.2A4,4,0,0,1,41,32a4,4,0,0,1-8,0,3.5,3.5,0,0,1,.07-.65l6.22-2.67A1.2,1.2,0,0,0,39.4,28.8Z"/><path class="cls-1" d="M5,27a1,1,0,0,0,0,2H9a1,1,0,0,0,0-2Z"/></g></svg>