<svg xmlns="http://www.w3.org/2000/svg" viewBox="0 0 64 56"><defs><style>.cls-1{fill:#fff;}</style></defs><g id="hanger"><path class="cls-1" d="M32,41.61a1,1,0,1,0-1,1A1,1,0,0,0,32,41.61Z"/><path class="cls-1" d="M29,41.61a1,1,0,1,0-1,1A1,1,0,0,0,29,41.61Z"/><path class="cls-1" d="M35,41.61a1,1,0,1,0-1,1A1,1,0,0,0,35,41.61Z"/><path class="cls-1" d="M51.86,28.1,36.39,22.2a1,1,0,0,0-.71,1.87L51.15,30a1.36,1.36,0,0,1-.49,2.64H41a1,1,0,0,0,0,2h9.63a3.36,3.36,0,0,0,1.2-6.51Z"/><path class="cls-1" d="M33.45,29.61a3.5,3.5,0,0,0-4.83,0l-3,3H13.4A1.36,1.36,0,0,1,12.91,30l19.48-7.42a1,1,0,0,0,.64-.94V20.23a3,3,0,0,1,1.34-2.37A4,4,0,1,0,28,14.61a1,1,0,0,0,2,0,2,2,0,0,1,.72-1.53,2,2,0,0,1,1.65-.44,2,2,0,0,1,1.6,1.6,2,2,0,0,1-.8,2,5,5,0,0,0-2.17,4v.69L12.2,28.1a3.36,3.36,0,0,0,1.2,6.51H31a1,1,0,0,0,0-2H28.45L30,31a1.44,1.44,0,0,1,2,0l3.71,3.7a1,1,0,0,1,.29.71V45.61a1,1,0,0,1-1,1H27a1,1,0,0,1-1-1v-8a1,1,0,0,0-2,0v8a3,3,0,0,0,3,3h8a3,3,0,0,0,3-3V35.44a3,3,0,0,0-.88-2.12Z"/></g></svg>