<svg xmlns="http://www.w3.org/2000/svg" viewBox="0 0 44 44"><defs><style>.cls-1{fill:#fff;}</style></defs><title>cws-icon-support</title><g id="support_2"><circle class="cls-1" cx="22" cy="28" r="1"/><circle class="cls-1" cx="26" cy="28" r="1"/><circle class="cls-1" cx="18" cy="28" r="1"/><path class="cls-1" d="M32.26,10.67A1,1,0,0,0,33,11a1,1,0,0,0,.67-.26,1,1,0,0,0,.07-1.41,15.59,15.59,0,0,0-23.48,0,1,1,0,0,0,1.48,1.34,13.61,13.61,0,0,1,20.52,0Z"/><path class="cls-1" d="M43.71,24.29,42,22.59V20A20,20,0,0,0,2,20v2.32L.29,24a1,1,0,0,0-.29.7V31a1,1,0,0,0,.29.71L2,33.41V34a1,1,0,0,0,1,1H6a3,3,0,0,0,3-3V23.73a3,3,0,0,0-1.5-2.6,1,1,0,0,0-1,1.74,1,1,0,0,1,.5.86V32a1,1,0,0,1-1,1H4a1,1,0,0,0-.29-.71L2,30.59V25.15l1.71-1.71A1,1,0,0,0,4,22.73V20a18,18,0,0,1,36,0v1H38a3,3,0,0,0-3,3v8a3,3,0,0,0,1.5,2.6,1,1,0,0,0,1.36-.37,1,1,0,0,0-.36-1.36A1,1,0,0,1,37,32V24a1,1,0,0,1,1-1h2a1,1,0,0,0,.29.71L42,25.41v5.18l-1.71,1.7A1,1,0,0,0,40,33v4a3,3,0,0,1-3,3H27.82A3,3,0,0,0,25,38H19a3,3,0,0,0,0,6h6a3,3,0,0,0,2.82-2H37a5,5,0,0,0,5-5V33.41l1.71-1.7A1,1,0,0,0,44,31V25A1,1,0,0,0,43.71,24.29ZM25,42H19a1,1,0,0,1,0-2h6a1,1,0,0,1,0,2Z"/><path class="cls-1" d="M18.7,34l2.75,1.83a1,1,0,0,0,1.1,0L25.3,34H28a3,3,0,0,0,3-3V25a3,3,0,0,0-3-3H16a3,3,0,0,0-3,3v6a3,3,0,0,0,3,3ZM15,31V25a1,1,0,0,1,1-1H28a1,1,0,0,1,1,1v6a1,1,0,0,1-1,1H25a1,1,0,0,0-.55.17L22,33.8l-2.45-1.63A1,1,0,0,0,19,32H16A1,1,0,0,1,15,31Z"/></g></svg>