<svg xmlns="http://www.w3.org/2000/svg" viewBox="0 0 44 44"><defs><style>.cls-1{fill:#fff;}</style></defs><g id="microphone"><path class="cls-1" d="M16,17h4a1,1,0,0,0,0-2H16a1,1,0,0,0,0,2Z"/><path class="cls-1" d="M16,13h4a1,1,0,0,0,0-2H16a1,1,0,0,0,0,2Z"/><path class="cls-1" d="M16,9h4a1,1,0,0,0,0-2H16a1,1,0,0,0,0,2Z"/><path class="cls-1" d="M16,21h4a1,1,0,0,0,0-2H16a1,1,0,0,0,0,2Z"/><path class="cls-1" d="M24,17h4a1,1,0,0,0,0-2H24a1,1,0,0,0,0,2Z"/><path class="cls-1" d="M24,13h4a1,1,0,0,0,0-2H24a1,1,0,0,0,0,2Z"/><path class="cls-1" d="M24,9h4a1,1,0,0,0,0-2H24a1,1,0,0,0,0,2Z"/><path class="cls-1" d="M24,21h4a1,1,0,0,0,0-2H24a1,1,0,0,0,0,2Z"/><path class="cls-1" d="M16,32a1,1,0,0,0,0-2H15a5,5,0,0,1-5-5V15h2v8a5,5,0,0,0,5,5H27a5,5,0,0,0,5-5V18a1,1,0,0,0-2,0v5a3,3,0,0,1-3,3V24a1,1,0,0,0-2,0v2H23V24a1,1,0,0,0-2,0v2H19V24a1,1,0,0,0-2,0v2a3,3,0,0,1-3-3V14a1,1,0,0,0-1-1H8a1,1,0,0,0,0,2V25a7,7,0,0,0,7,7Z"/><path class="cls-1" d="M36,13H32V5a5,5,0,0,0-5-5H17a5,5,0,0,0-5,5v5a1,1,0,0,0,2,0V5a3,3,0,0,1,3-3V4a1,1,0,0,0,2,0V2h2V4a1,1,0,0,0,2,0V2h2V4a1,1,0,0,0,2,0V2a3,3,0,0,1,3,3v9a1,1,0,0,0,1,1h3V25a5,5,0,0,1-5,5H20a1,1,0,0,0-1,1v7H16a1,1,0,0,0-.71.29l-.58.59A5.79,5.79,0,0,0,13,43a1,1,0,0,0,1,1H30a1,1,0,0,0,1-1,5.79,5.79,0,0,0-1.71-4.12l-.58-.59a1,1,0,0,0-1.42,1.42l.59.58a3.8,3.8,0,0,1,1,1.71H15.13a3.8,3.8,0,0,1,1-1.71l.29-.29H24a1,1,0,0,0,1-1V32h4a7,7,0,0,0,7-7V15a1,1,0,0,0,0-2ZM23,38H21V32h2Z"/></g></svg>