<svg xmlns="http://www.w3.org/2000/svg" viewBox="0 0 44 42"><defs><style>.cls-1{fill:#fff;}</style></defs><title>cws-icon-camera-roll</title><g id="Livello_2" data-name="Livello 2"><g id="camera_roll"><path class="cls-1" d="M26,30a1,1,0,0,0,2,0V28a1,1,0,0,0-2,0Z"/><path class="cls-1" d="M30,30a1,1,0,0,0,2,0V28a1,1,0,0,0-2,0Z"/><path class="cls-1" d="M27,17a1,1,0,0,0,1-1V14a1,1,0,0,0-2,0v2A1,1,0,0,0,27,17Z"/><path class="cls-1" d="M31,17a1,1,0,0,0,1-1V14a1,1,0,0,0-2,0v2A1,1,0,0,0,31,17Z"/><path class="cls-1" d="M36,16V14a1,1,0,0,0-2,0v2a1,1,0,0,0,2,0Z"/><path class="cls-1" d="M40,16V14a1,1,0,0,0-2,0v2a1,1,0,0,0,2,0Z"/><path class="cls-1" d="M41,10H23a1,1,0,0,0-1,1V37a1,1,0,0,0,1,1h0a1,1,0,0,1,0,2H3a1,1,0,0,1,0-2H18a1,1,0,0,0,0-2H3a3,3,0,0,0,0,6H23a3,3,0,0,0,1-5.84V12H41a1,1,0,0,1,1,1V25.26a1,1,0,0,1-.78,1,7,7,0,0,0-3.44,2.1,7.09,7.09,0,0,0-1.55,2.88,1,1,0,0,1-1,.79H27a1,1,0,0,0,0,2h8.26a3,3,0,0,0,2.91-2.28,5,5,0,0,1,3.56-3.56A3,3,0,0,0,44,25.26V13A3,3,0,0,0,41,10Z"/><path class="cls-1" d="M2,7.83V33H4V7A1,1,0,0,0,3,6,1,1,0,0,1,3,4h7a1,1,0,0,0,1-1,1,1,0,0,1,1-1h2a1,1,0,0,1,1,1,1,1,0,0,0,1,1h7a1,1,0,0,1,0,2H7A1,1,0,0,0,7,8H23a3,3,0,0,0,0-6H16.83A3,3,0,0,0,14,0H12A3,3,0,0,0,9.17,2H3A3,3,0,0,0,2,7.83Z"/></g></g></svg>