<svg xmlns="http://www.w3.org/2000/svg" viewBox="0 0 44 44"><defs><style>.cls-1{fill:#fffafc;}</style></defs><g id="night"><path class="cls-1" d="M36.16,38.29a16.59,16.59,0,0,1-9.42-5c-.24-.25-.53-.51-.83-.78s-.56-.5-.79-.75a7.43,7.43,0,0,0,.46-1.15,2.33,2.33,0,0,0-1.85-2.87.26.26,0,0,1-.21-.14c-.13-.21-.25-.42-.36-.62h2.39a2.45,2.45,0,0,0,1.84-4.07L23.94,19A3,3,0,0,1,23.39,16a16.46,16.46,0,0,1,8.05-8.74,1,1,0,0,0,.46-1.34,1,1,0,0,0-1.34-.45,18.47,18.47,0,0,0-9,9.8,4.47,4.47,0,0,0-.26,1l-.78.52a4,4,0,0,1-6.11-2.09,1,1,0,0,0-1.29-.59,1,1,0,0,0-.58,1.29,5.36,5.36,0,0,0,.32.73l-1.06,1a1,1,0,0,0,0,1.42,1,1,0,0,0,.71.3,1,1,0,0,0,.7-.29l.84-.82a5.9,5.9,0,0,0,1.33,1l-.36,1A1,1,0,0,0,15.59,21a1.26,1.26,0,0,0,.33,0,1,1,0,0,0,.94-.67l.36-1a5.5,5.5,0,0,0,.91.08,4.74,4.74,0,0,0,.75-.06L19,20.57a1,1,0,0,0,1,.86h.13A1,1,0,0,0,21,20.3l-.2-1.48a6.45,6.45,0,0,0,.58-.31,5.2,5.2,0,0,0,1,1.84l3.45,3.9a.46.46,0,0,1,.11.3.45.45,0,0,1-.45.45H21.7a1,1,0,0,0-.78.38,1,1,0,0,0-.19.85,8.8,8.8,0,0,0,1.09,2.45,2.29,2.29,0,0,0,1.57,1.05.34.34,0,0,1,.21.14.32.32,0,0,1,0,.26,4.3,4.3,0,0,1-.33.79l0,.08H21.43a3.28,3.28,0,0,1-2.61-1.58,1,1,0,0,0-1.64,1.16A5.24,5.24,0,0,0,21.43,33h2.12a12.39,12.39,0,0,0,1,1c.25.23.5.45.71.67a18.74,18.74,0,0,0,8.09,5A19.94,19.94,0,0,1,24.05,42h0A20,20,0,0,1,4,22,20.05,20.05,0,0,1,35.43,5.54,1,1,0,1,0,36.57,3.9,22,22,0,0,0,24,0h0a22,22,0,1,0,0,44h0a22,22,0,0,0,12.52-3.9,1,1,0,0,0,.41-1A1,1,0,0,0,36.16,38.29Z"/><path class="cls-1" d="M7,26a4,4,0,1,0,4-4A4,4,0,0,0,7,26Zm4-2a2,2,0,1,1-2,2A2,2,0,0,1,11,24Z"/><path class="cls-1" d="M42,12.5a1,1,0,0,0-.8-.67l-2.93-.45-1.31-2.8a1,1,0,0,0-1.82,0l-1.31,2.8-2.93.45a1,1,0,0,0-.8.67,1,1,0,0,0,.23,1l2.15,2.2-.51,3.12a1,1,0,0,0,1.47,1L36,18.43l2.61,1.45a1,1,0,0,0,.48.12,1,1,0,0,0,.58-.18,1,1,0,0,0,.41-1l-.51-3.12,2.15-2.2A1,1,0,0,0,42,12.5Zm-4.17,2.18a1,1,0,0,0-.27.86l.26,1.59-1.29-.71a1,1,0,0,0-1,0l-1.29.71.26-1.59a1,1,0,0,0-.27-.86l-1.14-1.17,1.53-.23a1,1,0,0,0,.75-.56L36,11.35l.64,1.37a1,1,0,0,0,.75.56l1.53.23Z"/></g></svg>