<svg xmlns="http://www.w3.org/2000/svg" viewBox="0 0 44 44"><defs><style>.cls-1{fill:#fff;}</style></defs><title>cws-icon-stall_1</title><g id="stall"><path class="cls-1" d="M36,28H20a1,1,0,0,0,0,2H35v8H23a1,1,0,0,0,0,2H33v3a1,1,0,0,0,2,0V40h1a1,1,0,0,0,1-1V29A1,1,0,0,0,36,28Z"/><path class="cls-1" d="M17,37a3,3,0,1,0-3,3A3,3,0,0,0,17,37Zm-4,0a1,1,0,1,1,1,1A1,1,0,0,1,13,37Z"/><path class="cls-1" d="M36,23H23V14.58a5.71,5.71,0,0,1,5.43.24,1,1,0,0,0,1.14,0,5.66,5.66,0,0,1,5.86,0,1,1,0,0,0,1,.07A1,1,0,0,0,37,14C37,6.28,30.27,0,22,0S7,6.28,7,14a1,1,0,0,0,.54.89,1,1,0,0,0,1-.07,5.66,5.66,0,0,1,5.86,0,1,1,0,0,0,1.14,0A5.29,5.29,0,0,1,18.5,14a1,1,0,0,0,0-2,7.84,7.84,0,0,0-2.44.39C16.47,6.62,19,2,22,2s5.53,4.61,5.94,10.39a7.94,7.94,0,0,0-4.94,0V5a1,1,0,0,0-2,0V23H8a1,1,0,0,0-1,1V37a1,1,0,0,0,2,0,5,5,0,1,1,1.67,3.73,1,1,0,1,0-1.34,1.49A7,7,0,1,0,9,32.11V25H35a1,1,0,0,0,2,0V24A1,1,0,0,0,36,23ZM14.05,12.43a8,8,0,0,0-4.93-.07,12.25,12.25,0,0,1,8-9.46A18.15,18.15,0,0,0,14.05,12.43Zm20.83-.07a8,8,0,0,0-4.93.07,18.15,18.15,0,0,0-3-9.53A12.25,12.25,0,0,1,34.88,12.36Z"/></g></svg>