<svg xmlns="http://www.w3.org/2000/svg" viewBox="0 0 44 44"><defs><style>.cls-1{fill:#fff;}</style></defs><title>cws-kicons-buy</title><g id="buy"><path class="cls-1" d="M25,41H23a1,1,0,0,0,0,2h2a1,1,0,0,0,0-2Z"/><path class="cls-1" d="M19,23H9a1,1,0,0,0-1,1V41H6V18a1,1,0,0,0-2,0V42a1,1,0,0,0,1,1H19a1,1,0,0,0,1-1V24A1,1,0,0,0,19,23Zm-9,2h8V41H10Z"/><circle class="cls-1" cx="16" cy="33" r="1"/><path class="cls-1" d="M27,13a5,5,0,1,0-5,5A5,5,0,0,0,27,13Zm-5-3a3,3,0,0,1,2.82,2H19.18A3,3,0,0,1,22,10Zm-2.82,4h5.64a3,3,0,0,1-5.64,0Z"/><path class="cls-1" d="M41.73,13,39,11.18A1.16,1.16,0,0,0,39,11V3a1,1,0,0,0,0-2H33a1,1,0,0,0,0,2V6a1,1,0,0,0,2,0V3h2V9.91L24.38,1.71a4.41,4.41,0,0,0-4.76,0L2.27,13A5,5,0,0,0,0,17.17V18a1,1,0,0,0,2,0v-.83a3,3,0,0,1,1.36-2.51L20.71,3.38a2.41,2.41,0,0,1,2.58,0L40.64,14.66A3,3,0,0,1,42,17H39a1,1,0,0,0-1,1v2a1,1,0,0,0,2,0V19h3a1,1,0,0,0,1-1v-.83A5,5,0,0,0,41.73,13Z"/><path class="cls-1" d="M33,21A11,11,0,1,0,44,32,11,11,0,0,0,33,21Zm0,20a9,9,0,1,1,9-9A9,9,0,0,1,33,41Z"/><path class="cls-1" d="M34,31H32a1,1,0,0,1,0-2h3a1,1,0,0,0,0-2H34V26a1,1,0,0,0-2,0v1a3,3,0,0,0,0,6h2a1,1,0,0,1,0,2H31a1,1,0,0,0,0,2h1v1a1,1,0,0,0,2,0V37a3,3,0,0,0,0-6Z"/></g></svg>