<svg xmlns="http://www.w3.org/2000/svg" viewBox="0 0 24 44"><defs><style>.cls-1{fill:#fff;}</style></defs><title>cws-icon-award</title><g id="Livello_2" data-name="Livello 2"><g id="award"><path class="cls-1" d="M20,38H9a1,1,0,0,0,0,2H20a1,1,0,0,1,1,1v1H3V41a1,1,0,0,1,1-1H5a1,1,0,0,0,1-1V33a1,1,0,0,1,1-1H17a1,1,0,0,1,1,1v2a1,1,0,0,0,2,0V33a3,3,0,0,0-3-3H15V24a1,1,0,0,0-2,0v6H11V20a1.82,1.82,0,0,1,2,0l2,1.38a3.75,3.75,0,0,0,4.42-.11,3.38,3.38,0,0,0,1.2-3.85l-.77-2.23a1.46,1.46,0,0,1,.59-1.67l2-1.38a3.38,3.38,0,0,0,1.38-3.86,3.58,3.58,0,0,0-3.51-2.52H17.84a1.66,1.66,0,0,1-1.59-1.06l-.77-2.24h0A3.6,3.6,0,0,0,12,0,3.6,3.6,0,0,0,8.52,2.41L7.75,4.65A1.66,1.66,0,0,1,6.16,5.71H3.67A3.58,3.58,0,0,0,.16,8.23a3.38,3.38,0,0,0,1.38,3.86l2,1.38a1.46,1.46,0,0,1,.59,1.67l-.77,2.23a3.38,3.38,0,0,0,1.2,3.85A3.74,3.74,0,0,0,9,21.33H9V30H7a3,3,0,0,0-3,3v5a3,3,0,0,0-3,3v2a1,1,0,0,0,1,1H22a1,1,0,0,0,1-1V41A3,3,0,0,0,20,38ZM7.86,19.68a1.75,1.75,0,0,1-2.08-.05A1.4,1.4,0,0,1,5.26,18L6,15.79a3.42,3.42,0,0,0-1.35-4l-2-1.38a1.39,1.39,0,0,1-.6-1.62,1.59,1.59,0,0,1,1.6-1.11H6.16A3.66,3.66,0,0,0,9.64,5.3l.77-2.24A1.62,1.62,0,0,1,12,2a1.62,1.62,0,0,1,1.59,1.06l.77,2.24a3.66,3.66,0,0,0,3.48,2.41h2.49a1.59,1.59,0,0,1,1.6,1.11,1.38,1.38,0,0,1-.6,1.62l-2,1.38a3.43,3.43,0,0,0-1.35,4L18.74,18a1.4,1.4,0,0,1-.52,1.61,1.75,1.75,0,0,1-2.08.05l-2-1.38a3.8,3.8,0,0,0-4.26,0Z"/><path class="cls-1" d="M10,34a1,1,0,0,0,0,2h4a1,1,0,0,0,0-2Z"/><path class="cls-1" d="M8.71,11.71l2-2A1,1,0,0,0,9.29,8.29l-2,2a1,1,0,0,0,0,1.42,1,1,0,0,0,1.42,0Z"/><path class="cls-1" d="M14.71,9.29a1,1,0,0,0-1.42,0l-5,5a1,1,0,0,0,0,1.42,1,1,0,0,0,1.42,0l5-5A1,1,0,0,0,14.71,9.29Z"/></g></g></svg>