<svg xmlns="http://www.w3.org/2000/svg" viewBox="0 0 40 44"><defs><style>.cls-1{fill:#fff;}</style></defs><title>cws-icon-film</title><g id="Livello_2" data-name="Livello 2"><g id="film"><path class="cls-1" d="M37,0H3A3,3,0,0,0,0,3V41a3,3,0,0,0,3,3H37a3,3,0,0,0,3-3V3A3,3,0,0,0,37,0Zm1,28H34V23h4Zm-4-7V16h4v5Zm4-7H34V9h4ZM34,30h4v5H34ZM6,28H2V23H6Zm0-7H2V16H6ZM2,30H6v5H2ZM6,14H2V9H6ZM37,42H3a1,1,0,0,1-1-1V37H6v2a1,1,0,0,0,2,0V5A1,1,0,0,0,6,5V7H2V3A1,1,0,0,1,3,2H37a1,1,0,0,1,1,1V7H34V5a1,1,0,0,0-2,0V39a1,1,0,0,0,2,0V37h4v4A1,1,0,0,1,37,42Z"/><path class="cls-1" d="M20,12a1,1,0,0,0-1,1v2.08A7,7,0,0,0,13.08,21h-1a8,8,0,0,1,4.37-6.17A1,1,0,1,0,15.55,13,10,10,0,1,0,20,12Zm-1,5.1V18a1,1,0,0,0,2,0V14.06A8,8,0,0,1,27.93,21h-1a7.08,7.08,0,0,0-2.25-4.22,1,1,0,0,0-1.34,1.49A5.09,5.09,0,0,1,24.9,21H24a1,1,0,0,0,0,2h.9A5,5,0,0,1,21,26.9V26a1,1,0,0,0-2,0v.9A5,5,0,0,1,15.1,23H16a1,1,0,0,0,0-2h-.9A5,5,0,0,1,19,17.1ZM12.07,23h1A7,7,0,0,0,19,28.92v1A8,8,0,0,1,12.07,23ZM21,29.93v-1A7,7,0,0,0,26.92,23h1A8,8,0,0,1,21,29.93Z"/></g></g></svg>