<svg id="Layer_1" data-name="Layer 1" xmlns="http://www.w3.org/2000/svg" viewBox="0 0 44 44"><defs><style>.cls-1{fill:#fff;}</style></defs><title>cws-icon-jointer</title><path class="cls-1" d="M42.25,23.26l-2.39-4.77a2,2,0,0,1,.38-2.31l1.47-1.47A1,1,0,0,0,40.78,13l-6.84,1.52a3.76,3.76,0,0,0-2.37,5.66l4,6.42A2.69,2.69,0,0,1,36,28.07a2.75,2.75,0,0,1-2.08,2.67L32.76,31A1,1,0,0,0,32,32v3H2.28l.31-1.24a1,1,0,0,1,1-.76H8.67a5.08,5.08,0,0,0,3-1l2.66-2h8.34l2.66,2a5.08,5.08,0,0,0,3,1H29a1,1,0,0,0,0-2h-.67a3,3,0,0,1-1.8-.6l-1.38-1A4,4,0,0,0,26.86,27H28a1,1,0,0,0,0-2H26.86a4,4,0,0,0-2.81-2.84l6.77-9.58a1,1,0,1,0-1.64-1.16l-4.76,6.75-5.87,2.94a1,1,0,0,0-.36.31l-4.91,6.87L10.47,30.4a3,3,0,0,1-1.8.6H7V27.86a4,4,0,1,0-2,0V31H3.56A3,3,0,0,0,.65,33.27L0,35.76a1,1,0,0,0,.18.86A1,1,0,0,0,1,37H33a1,1,0,0,0,1-1V32.78l.4-.1a4.75,4.75,0,0,0,2.88-7.12l-4-6.42a1.71,1.71,0,0,1-.27-.93,1.74,1.74,0,0,1,1.37-1.71l3.78-.84a4,4,0,0,0-.08,3.72l2.39,4.77A14.68,14.68,0,0,1,42,30.68V35H37a1,1,0,0,0,0,2h6a1,1,0,0,0,1-1V30.68A16.76,16.76,0,0,0,42.25,23.26ZM25,26a2,2,0,0,1-2,2H19.93l2.82-4H23A2,2,0,0,1,25,26Zm-5.33-3.22L22,21.63,17.48,28H15.94ZM4,24a2,2,0,1,1,2,2A2,2,0,0,1,4,24Z"/><path class="cls-1" d="M23,11a1,1,0,0,0,1-1,1,1,0,0,1,2,0,1,1,0,0,1-.23.64l-2.6,3.8a1,1,0,0,0,.27,1.39A1,1,0,0,0,24,16a1,1,0,0,0,.83-.44L27.4,11.8A3,3,0,0,0,28,10a3,3,0,0,0-6,0A1,1,0,0,0,23,11Z"/></svg>