<svg xmlns="http://www.w3.org/2000/svg" viewBox="0 0 44 44"><defs><style>.cls-1{fill:#fff;}</style></defs><g id="headphones"><path class="cls-1" d="M41,24H40V23a17.88,17.88,0,0,0-5.25-12.7A3.09,3.09,0,0,0,35,9a3,3,0,0,0-1.26-2.21,20.14,20.14,0,0,0-23.38,0A3,3,0,0,0,9.05,9a3,3,0,0,0,.21,1.37A18,18,0,0,0,4,23v1H3a3,3,0,0,0-3,3v9.65a3,3,0,0,0,1.89,2.78l3,1.21A5,5,0,0,0,6.77,41H10a1,1,0,0,0,1-1V25a1,1,0,0,0-1-1H8a1,1,0,0,0,0,2H9V39H7V28a1,1,0,0,0-2,0V38.52l-2.37-1A1,1,0,0,1,2,36.65V27a1,1,0,0,1,1-1H5a1,1,0,0,0,1-1V23a16,16,0,0,1,4.59-11.18,2.94,2.94,0,0,0,1.44.39,3.16,3.16,0,0,0,1.82-.59,14,14,0,0,1,16.3,0,3.05,3.05,0,0,0,3.28.19A15.91,15.91,0,0,1,38,23v2a1,1,0,0,0,1,1h2a1,1,0,0,1,1,1v9.65a1,1,0,0,1-.63.92l-2.37,1V28a1,1,0,0,0-2,0V39H35V26h1a1,1,0,0,0,0-2H34a1,1,0,0,0-1,1V40a1,1,0,0,0,1,1h3.23a5,5,0,0,0,1.86-.36l3-1.21A3,3,0,0,0,44,36.65V27A3,3,0,0,0,41,24ZM31.32,10a16,16,0,0,0-18.64,0A1,1,0,0,1,11,9.12a1,1,0,0,1,.43-.75,18.14,18.14,0,0,1,21.06,0,1,1,0,0,1,.13,1.55A1,1,0,0,1,31.32,10Z"/></g></svg>