<svg xmlns="http://www.w3.org/2000/svg" viewBox="0 0 44 44"><defs><style>.cls-1{fill:#fff;}</style></defs><g id="colosseum"><path class="cls-1" d="M27,21H41v4a1,1,0,0,0,2,0V21a1,1,0,0,0,0-2H27a1,1,0,0,0,0,2Z"/><path class="cls-1" d="M43,37H38V33a1,1,0,0,0-2,0v5a1,1,0,0,0,1,1h6a1,1,0,0,0,0-2Z"/><path class="cls-1" d="M43,28H38V24a1,1,0,0,0-2,0v4H33V24a1,1,0,0,0-2,0v4H28V24a1,1,0,0,0-2,0v.29l-2.09-4.7A1,1,0,0,0,23,19H20.65l-3.74-8.41A1,1,0,0,0,16,10H15V6a1,1,0,0,0-1-1H1A1,1,0,0,0,1,7v3a1,1,0,0,0,0,2v4a1,1,0,0,0,2,0V12H15.35l3.11,7H13V15a1,1,0,0,0-2,0v4H8V15a1,1,0,0,0-2,0v4H1a1,1,0,0,0,0,2v4a1,1,0,0,0,2,0V21H22.35l3.11,7H23V24a1,1,0,0,0-2,0v4H18V24a1,1,0,0,0-2,0v4H13V24a1,1,0,0,0-2,0v4H8V24a1,1,0,0,0-2,0v4H1a1,1,0,0,0,0,2v4a1,1,0,0,0,2,0V30H29.35l3.11,7H28V33a1,1,0,0,0-2,0v4H23V33a1,1,0,0,0-2,0v4H18V33a1,1,0,0,0-2,0v4H13V33a1,1,0,0,0-2,0v4H8V33a1,1,0,0,0-2,0v4H1a1,1,0,0,0,0,2H34a1,1,0,0,0,.91-1.41L31.54,30H41v4a1,1,0,0,0,2,0V30a1,1,0,0,0,0-2ZM3,10V7H13v3Z"/></g></svg>