<svg xmlns="http://www.w3.org/2000/svg" viewBox="0 0 44 44"><defs><style>.cls-1{fill:#fff;}</style></defs><title>cws-icon-target</title><g id="target"><path class="cls-1" d="M36.55,14.61A1,1,0,0,0,36.11,16,18,18,0,1,1,28.05,7.9a1,1,0,0,0,1.34-.45,1,1,0,0,0-.45-1.34A19.76,19.76,0,0,0,20,4,20,20,0,1,0,40,24a19.76,19.76,0,0,0-2.11-8.94A1,1,0,0,0,36.55,14.61Z"/><path class="cls-1" d="M44,5.73a1,1,0,0,0-.72-.7l-3.42-.85L39,.76a1,1,0,0,0-.7-.72,1,1,0,0,0-1,.25l-6,6a1,1,0,0,0-.26,1l.86,3.45-12.6,12.6a1,1,0,0,0,0,1.42,1,1,0,0,0,1.42,0l12.6-12.6,3.45.86L37,13a1,1,0,0,0,.71-.29l6-6A1,1,0,0,0,44,5.73Zm-7.27,5.16-2.87-.71-.71-2.87L37.46,3,38,5.24a1,1,0,0,0,.73.73L41,6.54Z"/><path class="cls-1" d="M20,20a1,1,0,0,0,0-2,6,6,0,1,0,6,6,1,1,0,0,0-2,0,4,4,0,1,1-4-4Z"/><path class="cls-1" d="M26.49,13.86a1,1,0,0,0-.41-1.35,12.95,12.95,0,1,0,5.42,5.41,1,1,0,0,0-1.36-.41,1,1,0,0,0-.41,1.35,11,11,0,1,1-4.59-4.59A1,1,0,0,0,26.49,13.86Z"/></g></svg>