<svg xmlns="http://www.w3.org/2000/svg" viewBox="0 0 44 44"><defs><style>.cls-1{fill:#fff;}</style></defs><title>cws-icon-target-audience</title><g id="target_audience"><path class="cls-1" d="M43,21H41A18.87,18.87,0,0,0,26.23,3.47a1,1,0,0,0-.45,1.95,17,17,0,0,1,7.53,3.86L31.9,10.69l0,0a14.92,14.92,0,0,0-19.74,0l0,0L10.73,9.31A16.9,16.9,0,0,1,22,5a1,1,0,0,0,1-1V1a1,1,0,0,0-2,0V3A19,19,0,0,0,8.61,8.53s0,0,0,0l0,0A19,19,0,0,0,3,21H1a1,1,0,0,0,0,2H4a1,1,0,0,0,1-1A16.9,16.9,0,0,1,9.31,10.73l1.38,1.37,0,0a14.92,14.92,0,0,0,0,19.74l0,0L9.28,33.31a17,17,0,0,1-3.86-7.53A1,1,0,0,0,4.22,25a1,1,0,0,0-.75,1.2A18.87,18.87,0,0,0,21,41v2a1,1,0,0,0,2,0V40a1,1,0,0,0-1-1,17,17,0,0,1-11.3-4.28l1.4-1.41,0,0a14.92,14.92,0,0,0,19.74,0l0,0,1.38,1.39a16.91,16.91,0,0,1-7.5,3.88,1,1,0,0,0,.22,2,.82.82,0,0,0,.22,0,19,19,0,0,0,9.18-5.07s0,0,0,0,0,0,0,0a19,19,0,0,0,5.07-9.17,1,1,0,0,0-.75-1.2,1,1,0,0,0-1.2.76,16.91,16.91,0,0,1-3.88,7.5L33.31,31.9l0,0a14.92,14.92,0,0,0,0-19.74l0,0,1.41-1.4A17,17,0,0,1,39,22a1,1,0,0,0,1,1h3a1,1,0,0,0,0-2ZM14.46,32.57,19.16,31h5.68l4.7,1.57a12.91,12.91,0,0,1-15.08,0Zm16.85-1.52-6-2A1.19,1.19,0,0,0,25,29H19a1.19,1.19,0,0,0-.32.05l-6,2a13,13,0,1,1,18.62,0Z"/><circle class="cls-1" cx="24" cy="19" r="1"/><circle class="cls-1" cx="20" cy="19" r="1"/><path class="cls-1" d="M29,17.27V17a5,5,0,0,0-5-5H20a5,5,0,0,0-5,5v.27A2,2,0,0,0,14,19v1a2,2,0,0,0,1.37,1.9l.06.34.18.91A6,6,0,0,0,21.52,28h1a6,6,0,0,0,5.91-4.85l.18-.91.06-.34A2,2,0,0,0,30,20V19A2,2,0,0,0,29,17.27ZM27.75,20a1,1,0,0,0-1,.85l-.05.36c0,.21-.06.42-.1.63l-.18.92A4,4,0,0,1,22.48,26h-1a4,4,0,0,1-3.95-3.24l-.18-.92c0-.21-.07-.42-.1-.63l-.05-.36a1,1,0,0,0-1-.85H16V19a1,1,0,0,0,1-1V17a3,3,0,0,1,3-3h4a3,3,0,0,1,3,3v1a1,1,0,0,0,1,1v1Z"/><path class="cls-1" d="M23,22H21a1,1,0,0,0,0,2h2a1,1,0,0,0,0-2Z"/></g></svg>