<svg xmlns="http://www.w3.org/2000/svg" viewBox="0 0 44 44"><defs><style>.cls-1{fill:#fff;}</style></defs><title>cws-icon-tv-stand</title><g id="tv_stand"><circle class="cls-1" cx="27" cy="35" r="1"/><circle class="cls-1" cx="17" cy="35" r="1"/><path class="cls-1" d="M37,21V5a1,1,0,0,0-1-1H8A1,1,0,0,0,7,5V21a1,1,0,0,0,1,1H36A1,1,0,0,0,37,21Zm-2-1H9V6H35Z"/><path class="cls-1" d="M11,15a1,1,0,0,0,.71-.29l6-6a1,1,0,1,0-1.42-1.42l-6,6a1,1,0,0,0,0,1.42A1,1,0,0,0,11,15Z"/><path class="cls-1" d="M11,11a1,1,0,0,0,.71-.29l2-2a1,1,0,1,0-1.42-1.42l-2,2a1,1,0,0,0,0,1.42A1,1,0,0,0,11,11Z"/><path class="cls-1" d="M41,28H28a1,1,0,0,0-1-1H25V25H37a3,3,0,0,0,3-3V4a3,3,0,0,0-3-3H7A3,3,0,0,0,4,4V22a3,3,0,0,0,3,3h9a1,1,0,0,0,0-2H7a1,1,0,0,1-1-1V4A1,1,0,0,1,7,3H37a1,1,0,0,1,1,1V22a1,1,0,0,1-1,1H20a1,1,0,0,0-1,1v3H17a1,1,0,0,0-1,1H3a3,3,0,0,0-3,3v8a3,3,0,0,0,3,3H5a1,1,0,0,0,1,1h4a1,1,0,0,0,1-1H30a1,1,0,0,0,0-2H23V30H41a1,1,0,0,1,1,1v8a1,1,0,0,1-1,1H34a1,1,0,0,0-1,1v1a1,1,0,0,0,1,1h4a1,1,0,0,0,1-1h2a3,3,0,0,0,3-3V31A3,3,0,0,0,41,28ZM21,25h2v2H21Zm0,15H3a1,1,0,0,1-1-1V31a1,1,0,0,1,1-1H21Z"/></g></svg>