<svg xmlns="http://www.w3.org/2000/svg" viewBox="0 0 44 44"><defs><style>.cls-1{fill:#fff;}</style></defs><g id="shrimp"><circle class="cls-1" cx="13.42" cy="16" r="1"/><path class="cls-1" d="M31,11H5A3,3,0,0,1,5,5H31a1,1,0,0,0,0-2H5A5,5,0,0,0,5,13H31a11,11,0,1,1,0,22h0a8.38,8.38,0,0,0-6.78,3,7.71,7.71,0,0,1,.6-5.44,1,1,0,1,0-1.64-1.14c-1.56,2.26-1.56,6.88,0,9.14A1,1,0,0,0,24,41h0a1,1,0,0,0,.83-.47A6.64,6.64,0,0,1,31,37h0a13,13,0,0,0,0-26Z"/><path class="cls-1" d="M27,23l-1.8,2.4a1,1,0,0,0,.2,1.4,1,1,0,0,0,.6.2,1,1,0,0,0,.8-.4L29.5,23H31a4,4,0,0,1,0,8H28a1,1,0,0,0,0,2h3a6,6,0,0,0,5.25-3.11,11.34,11.34,0,0,0,1.59.11H38a1,1,0,0,0,0-2h0c-.38,0-.74,0-1.07,0A6,6,0,0,0,37,27a5.88,5.88,0,0,0-.56-2.51,10.19,10.19,0,0,0,2.43-3,1,1,0,1,0-1.74-1,8.43,8.43,0,0,1-1.82,2.33,6,6,0,0,0-4-1.83,9.33,9.33,0,0,0,.6-5.14,1,1,0,0,0-2,.26A6.83,6.83,0,0,1,29,21H18.42c-4.48,0-7.33-1.78-8.47-5.3a1,1,0,1,0-1.9.61C9,19.17,11.31,22.53,17.16,23l-3,4.5a1,1,0,0,0,.28,1.38A.94.94,0,0,0,15,29a1,1,0,0,0,.83-.45L19.53,23H22l-1.8,2.4a1,1,0,0,0,.2,1.4,1,1,0,0,0,.6.2,1,1,0,0,0,.8-.4L24.5,23Z"/></g></svg>