<svg xmlns="http://www.w3.org/2000/svg" viewBox="0 0 44 44"><defs><style>.cls-1{fill:#fff;}</style></defs><title>cws-icon-road-sign</title><g id="road_sign"><path class="cls-1" d="M31,42H28v-.22a4.35,4.35,0,0,0-2-3.63,2.32,2.32,0,0,1-1-1.93V28h5a1,1,0,0,0,1-1V19a1,1,0,0,0-1-1H25V15a1,1,0,0,0-2,0v4a1,1,0,0,0,.29.71A1,1,0,0,0,24,20h5v6H24a1,1,0,0,0-1,1v9.22a4.35,4.35,0,0,0,2,3.63,2.32,2.32,0,0,1,1,1.93V42H18v-.22a2.36,2.36,0,0,1,1.07-2A4.32,4.32,0,0,0,21,36.22V27a1,1,0,0,0-1-1H10.41l-3-3,3-3H16a1,1,0,0,0,0-2H10a1,1,0,0,0-.71.29l-4,4a1,1,0,0,0,0,1.42l4,4A1,1,0,0,0,10,28h9v8.22a2.34,2.34,0,0,1-1.08,2A4.34,4.34,0,0,0,16,41.78V42H13a1,1,0,0,0,0,2H31a1,1,0,0,0,0-2Z"/><path class="cls-1" d="M38.71,10.29l-4-4A1,1,0,0,0,34,6H25V3a3,3,0,0,0-6,0V6H14a1,1,0,0,0-1,1v8a1,1,0,0,0,1,1h5v3a1,1,0,0,0,2,0V15a1,1,0,0,0-1-1H15V8h5a1,1,0,0,0,1-1V3a1,1,0,0,1,2,0V7a1,1,0,0,0,1,1h9.59l3,3-3,3H28a1,1,0,0,0,0,2h6a1,1,0,0,0,.71-.29l4-4A1,1,0,0,0,38.71,10.29Z"/></g></svg>