<svg xmlns="http://www.w3.org/2000/svg" viewBox="0 0 44 44"><defs><style>.cls-1{fill:#fff;}</style></defs><title>cws-icon-server</title><g id="server"><circle class="cls-1" cx="9" cy="6" r="1"/><circle class="cls-1" cx="13" cy="6" r="1"/><path class="cls-1" d="M34,40H27.82A3,3,0,0,0,25,38H23V35a1,1,0,0,0-2,0v3H19a3,3,0,0,0-2.82,2H10a1,1,0,0,0,0,2h6.18A3,3,0,0,0,19,44h6a3,3,0,0,0,2.82-2H34a1,1,0,0,0,0-2Zm-9,2H19a1,1,0,0,1,0-2h6a1,1,0,0,1,0,2Z"/><path class="cls-1" d="M21,5a1,1,0,0,0,0,2H35a1,1,0,0,0,0-2Z"/><circle class="cls-1" cx="9" cy="26" r="1"/><circle class="cls-1" cx="13" cy="26" r="1"/><path class="cls-1" d="M21,25a1,1,0,0,0,0,2H35a1,1,0,0,0,0-2Z"/><circle class="cls-1" cx="9" cy="16" r="1"/><circle class="cls-1" cx="13" cy="16" r="1"/><path class="cls-1" d="M35,17a1,1,0,0,0,0-2H21a1,1,0,0,0,0,2Z"/><path class="cls-1" d="M40,8a1,1,0,0,0,1-1V3a3,3,0,0,0-3-3H6A3,3,0,0,0,3,3v8H3v6a1,1,0,0,0,2,0V12H39v8H4a1,1,0,0,0-1,1v8a3,3,0,0,0,3,3H38a3,3,0,0,0,3-3V25a1,1,0,0,0-2,0v4a1,1,0,0,1-1,1H6a1,1,0,0,1-1-1V22H40a1,1,0,0,0,1-1V11a1,1,0,0,0-1-1H5V3A1,1,0,0,1,6,2H38a1,1,0,0,1,1,1V7A1,1,0,0,0,40,8Z"/></g></svg>