<svg xmlns="http://www.w3.org/2000/svg" viewBox="0 0 44 44"><defs><style>.cls-1{fill:#fffafc;}</style></defs><g id="cloudy_day"><path class="cls-1" d="M27,8a1,1,0,0,0,1-1V3a1,1,0,0,0-2,0V7A1,1,0,0,0,27,8Z"/><path class="cls-1" d="M17.81,11.22a1,1,0,0,0,1.41,0,1,1,0,0,0,0-1.41L16.39,7A1,1,0,0,0,15,8.39Z"/><path class="cls-1" d="M43,18H39a1,1,0,0,0,0,2h4a1,1,0,0,0,0-2Z"/><path class="cls-1" d="M31.21,8.84a1,1,0,0,0,.38.07,1,1,0,0,0,.93-.61l.76-1.85a1,1,0,1,0-1.85-.77l-.76,1.85A1,1,0,0,0,31.21,8.84Z"/><path class="cls-1" d="M37.16,14.79a1,1,0,0,0,.93.62,1.08,1.08,0,0,0,.38-.08l1.85-.76a1,1,0,0,0-.77-1.85l-1.85.76A1,1,0,0,0,37.16,14.79Z"/><path class="cls-1" d="M21.48,8.3a1,1,0,0,0,.93.61,1,1,0,0,0,.38-.07,1,1,0,0,0,.54-1.31l-.76-1.85a1,1,0,1,0-1.85.77Z"/><path class="cls-1" d="M35.49,11.51a1,1,0,0,0,.7-.29L39,8.39A1,1,0,0,0,37.61,7L34.78,9.81a1,1,0,0,0,0,1.41A1,1,0,0,0,35.49,11.51Z"/><path class="cls-1" d="M13.68,14.57l1.85.76a1.08,1.08,0,0,0,.38.08,1,1,0,0,0,.93-.62,1,1,0,0,0-.54-1.31l-1.85-.76a1,1,0,0,0-.77,1.85Z"/><path class="cls-1" d="M32.33,34.73a1,1,0,0,0-.08,1.41,1,1,0,0,0,.75.33,1,1,0,0,0,.67-.25A7,7,0,0,0,31.34,24.4a1,1,0,0,0-.67,1.89,5,5,0,0,1,1.66,8.44Z"/><path class="cls-1" d="M37.34,33.6A1,1,0,0,0,37.25,35,3,3,0,0,1,35,40H7a5,5,0,1,1,4.17-7.76,1,1,0,1,0,1.66-1.11A7,7,0,1,0,7,42H35a5,5,0,0,0,3.75-8.31A1,1,0,0,0,37.34,33.6Z"/><path class="cls-1" d="M8.43,25.92a1,1,0,0,0,1.32-.52A9,9,0,0,1,27,29a1,1,0,0,0,2,0A11,11,0,0,0,7.92,24.6,1,1,0,0,0,8.43,25.92Z"/><path class="cls-1" d="M11.08,26.57a1,1,0,0,0,.53,1.31A.88.88,0,0,0,12,28a1,1,0,0,0,.92-.6A5.55,5.55,0,0,1,18,24a1,1,0,0,0,0-2A7.55,7.55,0,0,0,11.08,26.57Z"/><path class="cls-1" d="M19.51,16a1,1,0,0,0,1.36-.39,7,7,0,0,1,12.26,6.78,1,1,0,0,0,.39,1.36.94.94,0,0,0,.48.13,1,1,0,0,0,.88-.52,9,9,0,0,0-15.76-8.72A1,1,0,0,0,19.51,16Z"/><path class="cls-1" d="M40.32,23.43l-1.85-.76a1,1,0,0,0-1.31.54,1,1,0,0,0-.07.38,1,1,0,0,0,.61.93l.93.38h0l.92.38a1.08,1.08,0,0,0,.38.08,1,1,0,0,0,.93-.62,1,1,0,0,0,.07-.38A1,1,0,0,0,40.32,23.43Z"/></g></svg>