<svg xmlns="http://www.w3.org/2000/svg" viewBox="0 0 44 44"><defs><style>.cls-1{fill:#fff;}</style></defs><title>cws-icon-exchange_1</title><g id="graph"><path class="cls-1" d="M43,38H1a1,1,0,0,0,0,2H43a1,1,0,0,0,0-2Z"/><path class="cls-1" d="M1,36H2a3,3,0,0,0,3-3V23a1,1,0,0,1,1-1H8a1,1,0,0,1,1,1V33a3,3,0,0,0,6,0V15a1,1,0,0,1,1-1h2a1,1,0,0,1,1,1V33a3,3,0,0,0,6,0V7a1,1,0,0,1,1-1h2a1,1,0,0,1,1,1V33a3,3,0,0,0,6,0V19a1,1,0,0,1,1-1h2a1,1,0,0,1,1,1V33a3,3,0,0,0,3,3h1a1,1,0,0,0,0-2H42a1,1,0,0,1-1-1V19a3,3,0,0,0-3-3H36a3,3,0,0,0-3,3V33a1,1,0,0,1-2,0V7a3,3,0,0,0-3-3H26a3,3,0,0,0-3,3V33a1,1,0,0,1-2,0V15a3,3,0,0,0-3-3H16a3,3,0,0,0-3,3V33a1,1,0,0,1-2,0V23a3,3,0,0,0-3-3H6a3,3,0,0,0-3,3V33a1,1,0,0,1-1,1H1a1,1,0,0,0,0,2Z"/></g></svg>