<svg xmlns="http://www.w3.org/2000/svg" viewBox="0 0 44 44"><defs><style>.cls-1{fill:#fff;}</style></defs><title>cws-icon-postcard</title><g id="postcard"><path class="cls-1" d="M41,7H3a3,3,0,0,0-3,3V34a3,3,0,0,0,3,3H41a3,3,0,0,0,3-3V10A3,3,0,0,0,41,7Zm1,27a1,1,0,0,1-1,1H3a1,1,0,0,1-1-1V10A1,1,0,0,1,3,9H41a1,1,0,0,1,1,1Z"/><path class="cls-1" d="M22,11a1,1,0,0,0-1,1V32a1,1,0,0,0,2,0V12A1,1,0,0,0,22,11Z"/><path class="cls-1" d="M39,11H33a1,1,0,0,0-1,1v3.73a3.93,3.93,0,0,1-1.27-.21l-1.41-.47a1,1,0,1,0-.64,1.9l1.42.47a6,6,0,0,0,3.8,0L35.32,17a1,1,0,0,0-.64-1.9l-.68.23V13h4v6a1,1,0,0,0,0,2h1a1,1,0,0,0,1-1V12A1,1,0,0,0,39,11Z"/><path class="cls-1" d="M17,21H5a1,1,0,0,0,0,2H17a1,1,0,0,0,0-2Z"/><path class="cls-1" d="M15,29H5a1,1,0,0,0,0,2H15a1,1,0,0,0,0-2Z"/><path class="cls-1" d="M5,27h8a1,1,0,0,0,0-2H5a1,1,0,0,0,0,2Z"/><path class="cls-1" d="M34.68,18.05l-1.42.47a3.92,3.92,0,0,1-2.53,0l-1.41-.47a1,1,0,1,0-.64,1.9l1.42.47a6,6,0,0,0,3.8,0L35.32,20a1,1,0,0,0-.64-1.9Z"/></g></svg>