<svg xmlns="http://www.w3.org/2000/svg" viewBox="0 0 64 56"><defs><style>.cls-1{fill:#fff;}</style></defs><g id="t-shirt"><path class="cls-1" d="M39.68,34a1,1,0,0,0,.64,0l3-1A1,1,0,0,0,44,32V26a1,1,0,0,0-1-1H37a1,1,0,0,0-1,1v6a1,1,0,0,0,.68,1ZM38,27h4v4.28l-2,.66-2-.66Z"/><path class="cls-1" d="M54.6,18.2,47.67,13a5,5,0,0,0-3-1H42.41l-2.7-2.71A1,1,0,0,0,39.24,9l-2.06-.52a17.38,17.38,0,0,0-8.36,0L26.76,9a1,1,0,0,0-.47.26L23.59,12H21.33a5,5,0,0,0-3,1L11.4,18.2a1,1,0,0,0-.32,1.19l3,7A1,1,0,0,0,15,27l.2,0,3.8-.76V41a1,1,0,0,0,2,0V24a1,1,0,0,0-2,0v.18l-3.4.68-2.37-5.53,6.3-4.73a3,3,0,0,1,1.8-.6H23.5l5.7,7.6a1,1,0,0,0,.8.4l.16,0a1,1,0,0,0,.79-.67l.1-.31A11,11,0,0,1,32,18.94V29a1,1,0,0,0,2,0V18.94A11,11,0,0,1,35,21l.1.31a1,1,0,0,0,.79.67L36,22a1,1,0,0,0,.8-.4L42.5,14h2.17a3,3,0,0,1,1.8.6l6.3,4.73L50.4,24.86,47,24.18V24a1,1,0,0,0-2,0v1a1,1,0,0,0,.8,1l5,1,.2,0a1,1,0,0,0,.92-.61l3-7A1,1,0,0,0,54.6,18.2ZM29.72,19l-4.4-5.87L27,11.41,31.61,16A13.23,13.23,0,0,0,29.72,19ZM33,14.58l-4-4,.34-.09a15.44,15.44,0,0,1,7.4,0l.34.09ZM36.28,19A13.23,13.23,0,0,0,34.39,16L39,11.41l1.68,1.68Z"/><path class="cls-1" d="M46,28a1,1,0,0,0-1,1V47a1,1,0,0,1-1,1H22a1,1,0,0,1-1-1V46H42a1,1,0,0,0,0-2H20a1,1,0,0,0-1,1v2a3,3,0,0,0,3,3H44a3,3,0,0,0,3-3V29A1,1,0,0,0,46,28Z"/></g></svg>