<svg xmlns="http://www.w3.org/2000/svg" viewBox="0 0 44 44"><defs><style>.cls-1{fill:#fff;}</style></defs><title>cws-icon-comment</title><g id="comment"><path class="cls-1" d="M8,33a1,1,0,0,0-1-1H3a1,1,0,0,1-1-1V23a1,1,0,0,1,1-1H29a1,1,0,0,0,0-2H3a3,3,0,0,0-3,3v8a3,3,0,0,0,3,3H7A1,1,0,0,0,8,33Z"/><path class="cls-1" d="M41,14H37a1,1,0,0,0,0,2h4a3,3,0,0,0,3-3V5a3,3,0,0,0-3-3H3A3,3,0,0,0,0,5v8a3,3,0,0,0,3,3H24.19a7,7,0,0,1,4.38,1.53l7.81,6.25A1,1,0,0,0,37,24a.91.91,0,0,0,.43-.1A1,1,0,0,0,38,23V22h3a1,1,0,0,1,1,1v8a1,1,0,0,1-1,1H19.81a9.05,9.05,0,0,0-5.63,2L8,38.92V37a1,1,0,0,0-2,0v4a1,1,0,0,0,.57.9A.91.91,0,0,0,7,42a1,1,0,0,0,.62-.22l7.81-6.25A7,7,0,0,1,19.81,34H41a3,3,0,0,0,3-3V23a3,3,0,0,0-3-3H38V19a1,1,0,0,0-2,0v1.92l-6.18-5a9.05,9.05,0,0,0-5.63-2H3a1,1,0,0,1-1-1V5A1,1,0,0,1,3,4H41a1,1,0,0,1,1,1v8A1,1,0,0,1,41,14Z"/><path class="cls-1" d="M15,27a1,1,0,1,0,1-1A1,1,0,0,0,15,27Z"/><path class="cls-1" d="M21,27a1,1,0,1,0,1-1A1,1,0,0,0,21,27Z"/><path class="cls-1" d="M27,27a1,1,0,1,0,1-1A1,1,0,0,0,27,27Z"/><path class="cls-1" d="M15,9a1,1,0,1,0,1-1A1,1,0,0,0,15,9Z"/><path class="cls-1" d="M21,9a1,1,0,1,0,1-1A1,1,0,0,0,21,9Z"/><path class="cls-1" d="M27,9a1,1,0,1,0,1-1A1,1,0,0,0,27,9Z"/></g></svg>