<svg xmlns="http://www.w3.org/2000/svg" viewBox="0 0 44 44"><defs><style>.cls-1{fill:#fff;}</style></defs><title>cws-icon-abacus</title><g id="abacus"><path class="cls-1" d="M41,19a1,1,0,0,0-1,1v4a1,1,0,0,0,2,0V20A1,1,0,0,0,41,19Z"/><path class="cls-1" d="M14,28a1,1,0,0,0,1-1V26a3,3,0,0,0-6,0H4V18H7a3,3,0,0,0,3,3,1,1,0,0,0,0-2,1,1,0,0,1-1-1V16a1,1,0,0,1,2,0v1a1,1,0,0,0,2,0V16a3,3,0,0,0-6,0H3a1,1,0,0,0-1,1V27a1,1,0,0,0,1,1H9a3,3,0,0,0,3,3,1,1,0,0,0,0-2,1,1,0,0,1-1-1V26a1,1,0,0,1,2,0v1A1,1,0,0,0,14,28Z"/><path class="cls-1" d="M15,17a1,1,0,0,0,1,1h3a3,3,0,0,0,3,3,1,1,0,0,0,0-2,1,1,0,0,1-1-1V16a1,1,0,0,1,2,0v1a1,1,0,0,0,2,0V16a3,3,0,0,0-6,0H16A1,1,0,0,0,15,17Z"/><path class="cls-1" d="M19,33a3,3,0,0,0-3,3H4V30a1,1,0,0,0-2,0v7a1,1,0,0,0,1,1H16a3,3,0,0,0,3,3,1,1,0,0,0,0-2,1,1,0,0,1-1-1V36a1,1,0,0,1,2,0v1a1,1,0,0,0,2,0V36A3,3,0,0,0,19,33Z"/><path class="cls-1" d="M42,37V27a1,1,0,0,0-1-1H26a3,3,0,0,0-6,0H18a1,1,0,0,0,0,2h2a3,3,0,0,0,3,3,1,1,0,0,0,0-2,1,1,0,0,1-1-1V26a1,1,0,0,1,2,0v1a1,1,0,0,0,1,1H40v8H35a3,3,0,0,0-6,0H25a1,1,0,0,0,0,2h4a3,3,0,0,0,3,3,1,1,0,0,0,0-2,1,1,0,0,1-1-1V36a1,1,0,0,1,2,0v1a1,1,0,0,0,1,1h7A1,1,0,0,0,42,37Z"/><path class="cls-1" d="M2,7v7a1,1,0,0,0,2,0V8h8a3,3,0,0,0,3,3,1,1,0,0,0,0-2,1,1,0,0,1-1-1V6a1,1,0,0,1,2,0V7a1,1,0,0,0,2,0V6a3,3,0,0,0-6,0H3A1,1,0,0,0,2,7Z"/><path class="cls-1" d="M21,8h5a3,3,0,0,0,3,3,1,1,0,0,0,0-2,1,1,0,0,1-1-1V6a1,1,0,0,1,2,0V7a1,1,0,0,0,1,1h9v8H36a3,3,0,0,0-6,0H28a1,1,0,0,0,0,2h2a3,3,0,0,0,3,3,1,1,0,0,0,0-2,1,1,0,0,1-1-1V16a1,1,0,0,1,2,0v1a1,1,0,0,0,1,1h6a1,1,0,0,0,1-1V7a1,1,0,0,0-1-1H32a3,3,0,0,0-6,0H21a1,1,0,0,0,0,2Z"/><path class="cls-1" d="M43,42H42V40a1,1,0,0,0-2,0v2H39a1,1,0,0,0,0,2h4a1,1,0,0,0,0-2Z"/><path class="cls-1" d="M5,42H4V40a1,1,0,0,0-2,0v2H1a1,1,0,0,0,0,2H5a1,1,0,0,0,0-2Z"/><path class="cls-1" d="M39,2h1V4a1,1,0,0,0,2,0V2h1a1,1,0,0,0,0-2H39a1,1,0,0,0,0,2Z"/><path class="cls-1" d="M1,2H2V4A1,1,0,0,0,4,4V2H5A1,1,0,0,0,5,0H1A1,1,0,0,0,1,2Z"/></g></svg>