<svg id="printer" xmlns="http://www.w3.org/2000/svg" viewBox="0 0 44 44"><defs><style>.cls-1{fill:#fff;}</style></defs><title>cws-icon-printer</title><path class="cls-1" d="M10,12a1,1,0,0,0,1-1V3a1,1,0,0,1,1-1H25.63l6.72,5.76a1,1,0,0,0,1.3-1.52l-7-6A1,1,0,0,0,26,0H12A3,3,0,0,0,9,3v8A1,1,0,0,0,10,12Z"/><path class="cls-1" d="M28,33a1,1,0,0,0-1-1H20a1,1,0,0,0,0,2h7A1,1,0,0,0,28,33Z"/><path class="cls-1" d="M14,38h7a1,1,0,0,0,0-2H14a1,1,0,0,0,0,2Z"/><path class="cls-1" d="M14,34h2a1,1,0,0,0,0-2H14a1,1,0,0,0,0,2Z"/><path class="cls-1" d="M25,38h5a1,1,0,0,0,0-2H25a1,1,0,0,0,0,2Z"/><circle class="cls-1" cx="8" cy="21" r="1"/><circle class="cls-1" cx="12" cy="21" r="1"/><path class="cls-1" d="M39,14H35V10a1,1,0,0,0-1-1H27a1,1,0,0,1-1-1V5a1,1,0,0,0-2,0V8a3,3,0,0,0,3,3h6v3H5a3,3,0,0,0-3,3V33a3,3,0,0,0,3,3,1,1,0,0,0,0-2,1,1,0,0,1-1-1V17a1,1,0,0,1,1-1H39a1,1,0,0,1,1,1V33a1,1,0,0,1-1,1,1,1,0,0,0,0,2,3,3,0,0,0,3-3V17A3,3,0,0,0,39,14Z"/><path class="cls-1" d="M37,28H7a1,1,0,0,0,0,2H8V41a3,3,0,0,0,3,3H33a3,3,0,0,0,3-3V33a1,1,0,0,0-2,0v8a1,1,0,0,1-1,1H11a1,1,0,0,1-1-1V30H37a1,1,0,0,0,0-2Z"/></svg>