<svg xmlns="http://www.w3.org/2000/svg" viewBox="0 0 44 44"><defs><style>.cls-1{fill:#fff;}</style></defs><g id="fox"><path class="cls-1" d="M8.85,7a1,1,0,0,0-1.2.74,11.85,11.85,0,0,0,.4,6.54A1,1,0,0,0,9,15a.79.79,0,0,0,.3-.05A1,1,0,0,0,10,13.69a9.71,9.71,0,0,1-.37-5.46A1,1,0,0,0,8.85,7Z"/><path class="cls-1" d="M34.69,15A.79.79,0,0,0,35,15a1,1,0,0,0,1-.69,11.85,11.85,0,0,0,.4-6.54,1,1,0,0,0-1.94.46A9.71,9.71,0,0,1,34,13.69,1,1,0,0,0,34.69,15Z"/><path class="cls-1" d="M31.57,14.23a3,3,0,0,1-1.35-3.17c.69-2.85,2.71-5.47,5.57-8.42a15.08,15.08,0,0,1,1.27,13.05,1,1,0,0,0,1.91.62C40.83,10.55,40.21,6,36.85.48A1,1,0,0,0,36.11,0a1,1,0,0,0-.82.28c-3.58,3.58-6.14,6.7-7,10.3a5,5,0,0,0,2.19,5.31C34,18.25,37.64,23.47,38,30c-6.19.43-12,4.66-12,9,0,1.39-1.28,2.56-3,2.89V38.41l1.71-1.7a1,1,0,0,0,.05-1.36A3.71,3.71,0,0,0,22.47,34a3.55,3.55,0,0,0-3.23,1.32,1,1,0,0,0,.05,1.36L21,38.41v3.48c-1.72-.33-3-1.5-3-2.89,0-4.3-5.78-8.53-12-9,.33-6.57,3.93-11.79,7.5-14.14a5,5,0,0,0,2.19-5.31c-.87-3.6-3.43-6.72-7-10.3A1,1,0,0,0,7.89,0a1,1,0,0,0-.74.47C3.79,6,3.17,10.55,5,16.31a1,1,0,0,0,1.91-.62,15.08,15.08,0,0,1,1.27-13c2.86,2.95,4.88,5.57,5.57,8.42a3,3,0,0,1-1.35,3.17A20.23,20.23,0,0,0,4,31a1,1,0,0,0,1,1c5.34,0,11,3.6,11,7,0,2.76,2.69,5,6,5s6-2.24,6-5c0-3.4,5.65-7,11-7a1,1,0,0,0,1-1A20.23,20.23,0,0,0,31.57,14.23Z"/><path class="cls-1" d="M25,25.78A16.61,16.61,0,0,0,24,31a1,1,0,0,0,1,1h0a1,1,0,0,0,1-1,14.93,14.93,0,0,1,.76-4.17l1.49-.3A4.68,4.68,0,0,0,32,22a1,1,0,0,0-1.2-1l-2.06.41A4.66,4.66,0,0,0,25,25.78Zm4.12-2.39.52-.1a2.69,2.69,0,0,1-1.8,1.32h0l-.53.1A2.69,2.69,0,0,1,29.14,23.39Z"/><path class="cls-1" d="M13.37,21.23A1,1,0,0,0,13,22a4.68,4.68,0,0,0,3.75,4.57l1.49.3A14.93,14.93,0,0,1,19,31a1,1,0,0,0,1,1h0a1,1,0,0,0,1-1,16.61,16.61,0,0,0-1-5.18,4.66,4.66,0,0,0-3.72-4.35L14.2,21A1,1,0,0,0,13.37,21.23Zm2.5,2.16a2.69,2.69,0,0,1,1.8,1.32l-.53-.1h0a2.69,2.69,0,0,1-1.8-1.32Z"/><path class="cls-1" d="M18.51,13.86A7.21,7.21,0,0,1,22.6,13a6.84,6.84,0,0,1,2.89.84A.94.94,0,0,0,26,14a1,1,0,0,0,.86-.49,1,1,0,0,0-.35-1.37A8.53,8.53,0,0,0,22.74,11a9.22,9.22,0,0,0-5.25,1.11,1,1,0,1,0,1,1.72Z"/></g></svg>