<svg xmlns="http://www.w3.org/2000/svg" viewBox="0 0 44 44"><defs><style>.cls-1{fill:#fff;}</style></defs><g id="connector"><path class="cls-1" d="M16,7V5a1,1,0,0,0-2,0V7a1,1,0,0,0,2,0Z"/><path class="cls-1" d="M20,7V5a1,1,0,0,0-2,0V7a1,1,0,0,0,2,0Z"/><path class="cls-1" d="M35,26a7,7,0,0,0-7,7v4a5,5,0,0,1-10,0V36h1a1,1,0,0,0,0-2H16V32h5a3,3,0,0,0,3-3V26.24l1.89-3.79A1,1,0,0,0,26,22V14a1,1,0,0,0-2,0v7.76l-1.89,3.79A1,1,0,0,0,22,26v3a1,1,0,0,1-1,1H13a1,1,0,0,1-1-1V26a1,1,0,0,0-.11-.45L10,21.76V13a1,1,0,0,1,1-1H23a1,1,0,0,0,1-1V1a1,1,0,0,0-1-1H11a1,1,0,0,0-1,1V7a1,1,0,0,0,2,0V2H22v8H11a3,3,0,0,0-3,3v9a1,1,0,0,0,.11.45L10,26.24V29a3,3,0,0,0,3,3h1v3a1,1,0,0,0,1,1h1v1a7,7,0,0,0,14,0V33a5,5,0,0,1,5-5,1,1,0,0,0,0-2Z"/><path class="cls-1" d="M21,15H13a1,1,0,0,0,0,2h8a1,1,0,0,0,0-2Z"/><path class="cls-1" d="M21,19H13a1,1,0,0,0,0,2h8a1,1,0,0,0,0-2Z"/></g></svg>