<svg xmlns="http://www.w3.org/2000/svg" viewBox="0 0 44 44"><defs><style>.cls-1{fill:#fff;}</style></defs><title>cws-icon-shopping-bag</title><g id="shopping_bag"><path class="cls-1" d="M40,42.76l-2-7.88V11a1,1,0,0,0-.53-.88,1,1,0,0,0-1,.05l-.45.29V6a1,1,0,0,0-1-1H30V1a1,1,0,0,0-1-1H15a1,1,0,0,0-1,1V6a6,6,0,0,0-5.82,4.58l-.63-.41a1,1,0,0,0-1-.05A1,1,0,0,0,6,11V35a1,1,0,0,0,1,1H33a1,1,0,0,0,0-2H8V12.87l1.45,1a1,1,0,0,0,1.1,0L13,12.2l2.45,1.63a1,1,0,0,0,1.1,0L19,12.2l2.45,1.63a1,1,0,0,0,1.1,0L25,12.2l2.45,1.63a1,1,0,0,0,1.1,0L31,12.2l2.45,1.63a1,1,0,0,0,1.1,0l1.45-1V35a1,1,0,0,0,0,.24L37.72,42H6.28L7,39.24A1,1,0,0,0,5,38.76l-1,4a1,1,0,0,0,.18.86A1,1,0,0,0,5,44H39a1,1,0,0,0,.79-.38A1,1,0,0,0,40,42.76Zm-24-31-2.45-1.63h0a.82.82,0,0,0-.36-.15h-.38a.82.82,0,0,0-.36.15h0L10,11.78a4,4,0,0,1,7.73-1.15Zm6,0-2.27-1.52A6,6,0,0,0,16,6.35V2h8v8.46Zm4-1.34V2h2v9.8Zm5.55-.29a1,1,0,0,0-1.1,0l-.45.29V7h4v4.8Z"/></g></svg>