<svg id="Layer_1" data-name="Layer 1" xmlns="http://www.w3.org/2000/svg" viewBox="0 0 44 44"><defs><style>.cls-1{fill:#fff;}</style></defs><title>cws-icon-tape</title><path class="cls-1" d="M43,28H27a1,1,0,0,0-1,1v4a1,1,0,0,1-1,1H3a1,1,0,0,1-1-1V22a12,12,0,0,1,24,0v3a1,1,0,0,0,2,0V22A14,14,0,0,0,0,22V33a3,3,0,0,0,3,3H25a3,3,0,0,0,3-3V30H42v1H31a1,1,0,0,0,0,2H42v2a1,1,0,0,0,2,0V29A1,1,0,0,0,43,28Z"/><path class="cls-1" d="M7,22a7,7,0,1,0,7-7A7,7,0,0,0,7,22Zm12,0a5,5,0,1,1-5-5A5,5,0,0,1,19,22Z"/><path class="cls-1" d="M28.22,15.63A1,1,0,0,0,29,16a1,1,0,0,0,.62-.22,1,1,0,0,0,.16-1.4l-4-5a1,1,0,0,0-1.56,1.24Z"/></svg>