<svg id="biohazard" xmlns="http://www.w3.org/2000/svg" viewBox="0 0 44 44"><defs><style>.cls-1{fill:#fff;}</style></defs><path class="cls-1" d="M38.35,21.58a11,11,0,0,0-8.53-1.21,11.16,11.16,0,0,0-1.5.54A11.56,11.56,0,0,0,33,11.56,11.48,11.48,0,0,0,26.41,1.09a1,1,0,0,0-.83,1.82A9.47,9.47,0,0,1,31,11.56,9.24,9.24,0,0,1,22,21a9.24,9.24,0,0,1-9-9.44,9.47,9.47,0,0,1,5.42-8.65,1,1,0,0,0-.83-1.82A11.48,11.48,0,0,0,11,11.56a11.56,11.56,0,0,0,4.68,9.35,11.16,11.16,0,0,0-1.5-.54,11,11,0,0,0-8.53,1.21A11.39,11.39,0,0,0,.05,32.4a1,1,0,0,0,2-.19A9.41,9.41,0,0,1,6.66,23.3a9.09,9.09,0,0,1,7-1,8.48,8.48,0,0,1,5.22,4,9.25,9.25,0,0,1-3.55,12.38,9,9,0,0,1-9.82-.36A1,1,0,1,0,4.33,40a10.7,10.7,0,0,0,6.3,2,11.38,11.38,0,0,0,11-14c.12,0,.23,0,.35,0s.23,0,.35,0a11.38,11.38,0,0,0,11,14,10.7,10.7,0,0,0,6.3-2,1,1,0,1,0-1.18-1.62,9,9,0,0,1-9.82.36,9.25,9.25,0,0,1-3.55-12.38,8.48,8.48,0,0,1,5.22-4,9.09,9.09,0,0,1,7,1A9.41,9.41,0,0,1,42,32.21a1,1,0,0,0,2,.19A11.39,11.39,0,0,0,38.35,21.58ZM25.16,23a3.21,3.21,0,0,0-.24-.45,10.91,10.91,0,0,0,1.29-.45A10,10,0,0,0,25.16,23Zm-6.08-.45a3.21,3.21,0,0,0-.24.45,10,10,0,0,0-1.05-.9A10.91,10.91,0,0,0,19.08,22.58ZM20.5,24.5A1.5,1.5,0,1,1,22,26,1.5,1.5,0,0,1,20.5,24.5Z"/><path class="cls-1" d="M15.13,14.11a1,1,0,0,0,1.37.36,11.22,11.22,0,0,1,11,0,.93.93,0,0,0,.5.14,1,1,0,0,0,.51-1.87,13.23,13.23,0,0,0-13,0A1,1,0,0,0,15.13,14.11Z"/><path class="cls-1" d="M15.5,35.26a1,1,0,0,0,1.36-.36,1,1,0,0,0-.36-1.37A11,11,0,0,1,11,24.92,1,1,0,0,0,10,24,1,1,0,0,0,9,25.08,13,13,0,0,0,15.5,35.26Z"/><path class="cls-1" d="M33,24.92a11,11,0,0,1-5.46,8.61A1,1,0,0,0,28,35.4a1,1,0,0,0,.5-.14A13,13,0,0,0,35,25.08a1,1,0,1,0-2-.16Z"/></svg>