<svg xmlns="http://www.w3.org/2000/svg" viewBox="0 0 44 44"><defs><style>.cls-1{fill:#fff;}</style></defs><title>cws-icon-web-speed</title><g id="web_speed"><path class="cls-1" d="M43,13a1,1,0,0,0-1,1V36a1,1,0,0,1-1,1H35a1,1,0,0,0,0,2h6a3,3,0,0,0,3-3V14A1,1,0,0,0,43,13Z"/><path class="cls-1" d="M41,1H3A3,3,0,0,0,0,4V36a3,3,0,0,0,3,3H9a1,1,0,0,0,0-2H3a1,1,0,0,1-1-1V4A1,1,0,0,1,3,3H41a1,1,0,0,1,1,1V9H5a1,1,0,0,0,0,2H43a1,1,0,0,0,1-1V4A3,3,0,0,0,41,1Z"/><circle class="cls-1" cx="5" cy="6" r="1"/><circle class="cls-1" cx="9" cy="6" r="1"/><circle class="cls-1" cx="13" cy="6" r="1"/><path class="cls-1" d="M31.15,23.26l.85-.85.29.3a1,1,0,0,0,1.42,0,1,1,0,0,0,0-1.42l-2-2a1,1,0,0,0-1.42,1.42l.3.29-.85.85A11.9,11.9,0,0,0,23,19.05V17h1a1,1,0,0,0,0-2H20a1,1,0,0,0,0,2h1v2.05a11.9,11.9,0,0,0-6.74,2.8L13.41,21l.3-.29a1,1,0,0,0-1.42-1.42l-2,2a1,1,0,0,0,0,1.42,1,1,0,0,0,1.42,0l.29-.3.85.85a12,12,0,1,0,18.3,0ZM22,41A10,10,0,1,1,32,31,10,10,0,0,1,22,41Z"/><path class="cls-1" d="M23.93,31.51A2.09,2.09,0,0,0,24,31a2,2,0,0,0-2-2,2.09,2.09,0,0,0-.51.07l-.78-.78a1,1,0,0,0-1.42,1.42l.78.78A2.09,2.09,0,0,0,20,31a2,2,0,0,0,2,2,2.09,2.09,0,0,0,.51-.07l3.78,3.78a1,1,0,0,0,1.42,0,1,1,0,0,0,0-1.42Z"/><circle class="cls-1" cx="14" cy="31" r="1"/><circle class="cls-1" cx="22" cy="39" r="1"/><path class="cls-1" d="M22,22a1,1,0,0,0,0,2,7,7,0,0,1,7,7,6.87,6.87,0,0,1-.51,2.62A1,1,0,0,0,29,34.93a1,1,0,0,0,1.31-.55A9,9,0,0,0,22,22Z"/></g></svg>