<svg xmlns="http://www.w3.org/2000/svg" viewBox="0 0 44 44"><defs><style>.cls-1{fill:#fff;}</style></defs><title>cws-icon-web-icons</title><g id="web_coins"><path class="cls-1" d="M43,14a1,1,0,0,0-1,1V37a1,1,0,0,1-1,1H31a1,1,0,0,0,0,2H41a3,3,0,0,0,3-3V15A1,1,0,0,0,43,14Z"/><path class="cls-1" d="M41,2H3A3,3,0,0,0,0,5V37a3,3,0,0,0,3,3H13a1,1,0,0,0,0-2H3a1,1,0,0,1-1-1V5A1,1,0,0,1,3,4H41a1,1,0,0,1,1,1v5H5a1,1,0,0,0,0,2H43a1,1,0,0,0,1-1V5A3,3,0,0,0,41,2Z"/><circle class="cls-1" cx="5" cy="7" r="1"/><circle class="cls-1" cx="9" cy="7" r="1"/><circle class="cls-1" cx="13" cy="7" r="1"/><path class="cls-1" d="M15.67,27.73A5,5,0,1,1,24,24a5.27,5.27,0,0,1-.28,1.67,1,1,0,0,0,.6,1.27,1,1,0,0,0,1.28-.61A6.8,6.8,0,0,0,26,24a7,7,0,1,0-11.67,5.22,1,1,0,0,0,.67.25,1,1,0,0,0,.74-.33A1,1,0,0,0,15.67,27.73Z"/><path class="cls-1" d="M30.33,31.73a1,1,0,0,0-.08,1.41,1,1,0,0,0,.75.33,1,1,0,0,0,.67-.25,7,7,0,0,0-3.5-12.12,1,1,0,1,0-.34,2,5,5,0,0,1,2.5,8.66Z"/><path class="cls-1" d="M22,28A7,7,0,1,0,27,30.05,7,7,0,0,0,22,28Zm3.54,10.54A5,5,0,1,1,27,35,5,5,0,0,1,25.54,38.54Z"/><path class="cls-1" d="M22,33a1,1,0,0,0-1,1v2a1,1,0,0,0,2,0V34A1,1,0,0,0,22,33Z"/><path class="cls-1" d="M18,23v2a1,1,0,0,0,2,0V23a1,1,0,0,0-2,0Z"/></g></svg>