<svg xmlns="http://www.w3.org/2000/svg" viewBox="0 0 44 34"><defs><style>.cls-1{fill:#fff;}</style></defs><title>cws-icon-focus</title><g id="Livello_2" data-name="Livello 2"><g id="focus"><circle class="cls-1" cx="22" cy="17" r="1"/><path class="cls-1" d="M41,0H3A3,3,0,0,0,0,3V31a3,3,0,0,0,3,3H41a3,3,0,0,0,3-3V3A3,3,0,0,0,41,0Zm1,31a1,1,0,0,1-1,1H3a1,1,0,0,1-1-1V3A1,1,0,0,1,3,2H41a1,1,0,0,1,1,1Z"/><path class="cls-1" d="M5,13a1,1,0,0,0,1-1V6h7a1,1,0,0,0,0-2H5A1,1,0,0,0,4,5v7A1,1,0,0,0,5,13Z"/><path class="cls-1" d="M39,4H31a1,1,0,0,0,0,2h7v7a1,1,0,0,0,2,0V5A1,1,0,0,0,39,4Z"/><path class="cls-1" d="M39,20a1,1,0,0,0-1,1v7H31a1,1,0,0,0,0,2h8a1,1,0,0,0,1-1V21A1,1,0,0,0,39,20Z"/><path class="cls-1" d="M13,28H6V21a1,1,0,0,0-2,0v8a1,1,0,0,0,1,1h8a1,1,0,0,0,0-2Z"/><path class="cls-1" d="M28.92,18H32a1,1,0,0,0,0-2H28.92A7,7,0,0,0,23,10.08V7a1,1,0,0,0-2,0v3.08A7,7,0,0,0,15.08,16H12a1,1,0,0,0,0,2h3.08A7,7,0,0,0,21,23.92V27a1,1,0,0,0,2,0V23.92A7,7,0,0,0,28.92,18ZM22,22a5,5,0,1,1,5-5A5,5,0,0,1,22,22Z"/></g></g></svg>