<svg xmlns="http://www.w3.org/2000/svg" viewBox="0 0 44 44"><defs><style>.cls-1{fill:#fff;}</style></defs><g id="silo"><path class="cls-1" d="M42.86,40.42,42,37.84V8A8,8,0,0,0,26,8v5a1,1,0,0,0,2,0V11h9a1,1,0,0,0,0-2H28V8A6,6,0,0,1,40,8V37H36a1,1,0,0,0,0,2h4.28l.68,2a.59.59,0,0,1,0,.23.72.72,0,0,1-.72.72H36a1,1,0,0,0,0,2h4.28A2.72,2.72,0,0,0,43,41.28,2.82,2.82,0,0,0,42.86,40.42Z"/><path class="cls-1" d="M30.23,17.7a4.88,4.88,0,0,0-1.69-.88l-8.29-2.49a7.84,7.84,0,0,0-4.5,0L7.46,16.82a4.88,4.88,0,0,0-1.69.88L1.38,21.22a1,1,0,0,0,1.24,1.56L7,19.27a3,3,0,0,1,1-.54l8.3-2.48a5.76,5.76,0,0,1,3.34,0L28,18.73a3,3,0,0,1,1,.54l4.4,3.51A1,1,0,0,0,34,23a1,1,0,0,0,.78-.38,1,1,0,0,0-.16-1.4Z"/><path class="cls-1" d="M20,26a1,1,0,0,0,1-1V21a1,1,0,0,0-1-1H16a1,1,0,0,0-1,1v4a1,1,0,0,0,1,1Zm-3-4h2v2H17Z"/><path class="cls-1" d="M32,24a1,1,0,0,0-1,1V42H26V34a1,1,0,0,0-2,0v6.59L19.41,36l6.3-6.29a1,1,0,0,0,.21-.33,1,1,0,0,0,0-.76,1,1,0,0,0-.54-.54A1,1,0,0,0,25,28H11a1,1,0,0,0-1,1V42H5V25a1,1,0,0,0-2,0V42H2a1,1,0,0,0,0,2H32a1,1,0,0,0,1-1V25A1,1,0,0,0,32,24Zm-9.41,6L18,34.59,13.41,30ZM12,31.41,16.59,36,12,40.59ZM13.41,42,18,37.41,22.59,42Z"/></g></svg>