<svg xmlns="http://www.w3.org/2000/svg" viewBox="0 0 44 44"><defs><style>.cls-1{fill:#fff;}</style></defs><title>cws-icon-cardmachine</title><g id="card_machine"><circle class="cls-1" cx="14" cy="17" r="1"/><circle class="cls-1" cx="22" cy="17" r="1"/><circle class="cls-1" cx="18" cy="17" r="1"/><circle class="cls-1" cx="14" cy="21" r="1"/><circle class="cls-1" cx="22" cy="21" r="1"/><circle class="cls-1" cx="18" cy="21" r="1"/><circle class="cls-1" cx="14" cy="25" r="1"/><circle class="cls-1" cx="22" cy="25" r="1"/><circle class="cls-1" cx="26" cy="17" r="1"/><circle class="cls-1" cx="26" cy="21" r="1"/><circle class="cls-1" cx="26" cy="25" r="1"/><circle class="cls-1" cx="18" cy="25" r="1"/><path class="cls-1" d="M29,12V5a1,1,0,0,0-1-1H12a1,1,0,0,0-1,1v7a1,1,0,0,0,1,1H28A1,1,0,0,0,29,12Zm-2-1H13V6H27Z"/><path class="cls-1" d="M28,33a1,1,0,0,0-1,1v7a1,1,0,0,1-1,1H25V34a1,1,0,0,0-1-1H20a1,1,0,0,0-1,1v8H14a1,1,0,0,1-1-1V34a1,1,0,0,0-2,0v7a3,3,0,0,0,3,3H26a3,3,0,0,0,3-3V34A1,1,0,0,0,28,33Zm-7,2h2v7H21Z"/><path class="cls-1" d="M36,11a1,1,0,0,0-1,1V24a5,5,0,0,1-5,5H10a1,1,0,0,1-1-1V3a1,1,0,0,1,1-1H30a1,1,0,0,1,1,1V25a1,1,0,0,0,2,0V3a3,3,0,0,0-3-3H10A3,3,0,0,0,7,3V28a3,3,0,0,0,3,3H30a7,7,0,0,0,7-7V12A1,1,0,0,0,36,11Z"/></g></svg>