<svg id="Layer_1" data-name="Layer 1" xmlns="http://www.w3.org/2000/svg" viewBox="0 0 44 44"><defs><style>.cls-1{fill:#fff;}</style></defs><title>cws-icon-screw</title><path class="cls-1" d="M35,0H24a1,1,0,0,0-1,1V4H21V1a1,1,0,0,0-1-1H9A1,1,0,0,0,8,1V3.17a3,3,0,0,0,.88,2.12L17,13.41V16a1,1,0,0,0,2,0V13a1,1,0,0,0-.29-.71L10.29,3.88A1,1,0,0,1,10,3.17V2h9V5a1,1,0,0,0,1,1h4a1,1,0,0,0,1-1V2h9V3.17a1,1,0,0,1-.29.71l-8.42,8.41A1,1,0,0,0,25,13v2.38l-7.45,3.73A1,1,0,0,0,17,20V40a1,1,0,0,0,.4.8l4,3a1,1,0,0,0,1.2,0l4-3A1,1,0,0,0,27,40V13.41l8.12-8.12A3,3,0,0,0,36,3.17V1A1,1,0,0,0,35,0ZM25,35.38l-6,3V35.62l6-3Zm0-5-6,3V30.62l6-3Zm0-5-6,3V25.62l6-3Zm0-7.76v2.76l-6,3V20.62ZM22,41.75l-2.11-1.58L25,37.62V39.5Z"/></svg>