<svg xmlns="http://www.w3.org/2000/svg" viewBox="0 0 44 44"><defs><style>.cls-1{fill:#fff;}</style></defs><title>cws-icon-adversting</title><g id="advertising"><circle class="cls-1" cx="6" cy="39" r="1"/><path class="cls-1" d="M7,28a1,1,0,0,0-2,0v7a1,1,0,0,0,2,0Z"/><circle class="cls-1" cx="22" cy="39" r="1"/><circle class="cls-1" cx="22" cy="16" r="1"/><circle class="cls-1" cx="26" cy="16" r="1"/><circle class="cls-1" cx="18" cy="16" r="1"/><path class="cls-1" d="M23,28a1,1,0,0,0-2,0v7a1,1,0,0,0,2,0Z"/><circle class="cls-1" cx="30" cy="39" r="1"/><path class="cls-1" d="M31,28a1,1,0,0,0-2,0v7a1,1,0,0,0,2,0Z"/><path class="cls-1" d="M42,20a1,1,0,0,0,1-1V3a3,3,0,0,0-3-3H4A3,3,0,0,0,1,3V43a1,1,0,0,0,1,1h8a1,1,0,0,0,1-1V28.87l1.45,1a1,1,0,0,0,1.26-.12l1.42-1.42L17,29.54V43a1,1,0,0,0,1,1H34a1,1,0,0,0,1-1V28.62l3-1.5,1.55.77a1,1,0,0,0,.9,0l2-1A1,1,0,0,0,43,26V23a1,1,0,0,0-1-1H41a1,1,0,0,0,0,2v1.38l-1,.5-1.55-.77a1,1,0,0,0-.9,0L35,26.38V24a1,1,0,0,0,0-2H33a1,1,0,0,0,0,2V42H27V24a1,1,0,0,0,0-2H25a1,1,0,0,0,0,2V42H19V24a1,1,0,0,0,0-2H17a1,1,0,0,0,0,2v3.13l-1.45-1a1,1,0,0,0-1.26.12l-1.42,1.42L11,26.46V24a1,1,0,0,0,0-2H9a1,1,0,0,0,0,2V42H3V24a1,1,0,0,0,0-2V3A1,1,0,0,1,4,2H40a1,1,0,0,1,1,1V19A1,1,0,0,0,42,20Z"/><path class="cls-1" d="M29,8a1,1,0,0,0-1-1H19a1,1,0,0,0,0,2h9A1,1,0,0,0,29,8Z"/><path class="cls-1" d="M22,11H9a1,1,0,0,0,0,2H22a1,1,0,0,0,0-2Z"/><path class="cls-1" d="M9,9h6a1,1,0,0,0,0-2H9A1,1,0,0,0,9,9Z"/><path class="cls-1" d="M36,8a1,1,0,0,0-1-1H32a1,1,0,0,0,0,2h3A1,1,0,0,0,36,8Z"/><path class="cls-1" d="M34,12a1,1,0,0,0-1-1H26a1,1,0,0,0,0,2h7A1,1,0,0,0,34,12Z"/></g></svg>