<svg xmlns="http://www.w3.org/2000/svg" viewBox="0 0 44 44"><defs><style>.cls-1{fill:#fff;}</style></defs><g id="sinusoid"><path class="cls-1" d="M43,21H39.8a10.18,10.18,0,0,1,3.64-3.38,1,1,0,0,0,.46-1.33,1,1,0,0,0-1.35-.46,13.45,13.45,0,0,0-5.43,5.69C35.17,25.05,32.64,27,30,27c-2.24,0-4.4-1.41-6.2-4H33a1,1,0,0,0,0-2H23V10h1a1,1,0,0,0,.92-.62,1,1,0,0,0-.21-1.09l-2-2a1,1,0,0,0-1.42,0l-2,2a1,1,0,0,0-.21,1.09A1,1,0,0,0,20,10h1v8.74C19,16.31,16.56,15,14,15c-3.25,0-6.27,2.14-8.56,6H1a1,1,0,0,0,0,2H4.2A10.18,10.18,0,0,1,.56,26.38,1,1,0,0,0,1,28.27a1,1,0,0,0,.45-.1,13.45,13.45,0,0,0,5.43-5.69C8.83,19,11.36,17,14,17c2.24,0,4.4,1.41,6.2,4H11a1,1,0,0,0,0,2H21V37a1,1,0,0,0,2,0V25.26C25,27.69,27.44,29,30,29c3.25,0,6.27-2.14,8.56-6H43a1,1,0,0,0,0-2Z"/></g></svg>