<svg xmlns="http://www.w3.org/2000/svg" viewBox="0 0 44 44"><defs><style>.cls-1{fill:#fff;}</style></defs><g id="leaf"><path class="cls-1" d="M22.76.34a1,1,0,0,0-1.52,0C20.69,1,8,16.15,8,24.75c0,8.24,5.82,12.13,11.27,13a2,2,0,0,1,1.73,2V43a1,1,0,0,0,2,0V39.75a4,4,0,0,0-3.41-4c-2.25-.37-9.59-2.25-9.59-11C10,18,19.25,6,22,2.56,24.76,6,34,18,34,24.75c0,7.45-4.47,10-8.22,10.85a1,1,0,0,0,.44,2c6.31-1.42,9.78-6,9.78-12.81C36,16.15,23.31,1,22.76.34Z"/><path class="cls-1" d="M22,35a1,1,0,0,0,1-1V31.48l8.61-6.7a1,1,0,0,0-1.22-1.58L23,29V23.51l6.58-4.71a1,1,0,1,0-1.16-1.62L23,21.05V16.49l3.6-2.7a1,1,0,1,0-1.2-1.6L23,14V10a1,1,0,0,0-2,0v4l-2.4-1.8a1,1,0,0,0-1.2,1.6l3.6,2.7v4.56l-5.42-3.87a1,1,0,1,0-1.16,1.62L21,23.51V29L13.61,23.2a1,1,0,1,0-1.22,1.58L21,31.48V34A1,1,0,0,0,22,35Z"/></g></svg>