<svg xmlns="http://www.w3.org/2000/svg" viewBox="0 0 44 44"><defs><style>.cls-1{fill:#fff;}</style></defs><g id="pan_flute"><circle class="cls-1" cx="7" cy="16" r="1"/><circle class="cls-1" cx="13" cy="16" r="1"/><circle class="cls-1" cx="19" cy="16" r="1"/><circle class="cls-1" cx="25" cy="16" r="1"/><circle class="cls-1" cx="31" cy="16" r="1"/><circle class="cls-1" cx="37" cy="16" r="1"/><circle class="cls-1" cx="7" cy="22" r="1"/><circle class="cls-1" cx="13" cy="22" r="1"/><circle class="cls-1" cx="19" cy="22" r="1"/><circle class="cls-1" cx="25" cy="22" r="1"/><circle class="cls-1" cx="7" cy="28" r="1"/><circle class="cls-1" cx="13" cy="28" r="1"/><circle class="cls-1" cx="19" cy="28" r="1"/><circle class="cls-1" cx="7" cy="34" r="1"/><circle class="cls-1" cx="13" cy="34" r="1"/><circle class="cls-1" cx="25" cy="28" r="1"/><circle class="cls-1" cx="31" cy="22" r="1"/><circle class="cls-1" cx="37" cy="22" r="1"/><path class="cls-1" d="M43,10a3,3,0,0,0-2-2.82V1a1,1,0,0,0-1-1H4A1,1,0,0,0,3,1V4A1,1,0,0,0,5,4V2H9V7H4a3,3,0,0,0-1,5.82V41a3,3,0,0,0,3,3H8a3,3,0,0,0,3-3v-.18A3,3,0,0,0,12,41h2a3,3,0,0,0,3-3v-.18A3,3,0,0,0,18,38h2a3,3,0,0,0,3-3v-.18A3,3,0,0,0,24,35h2a3,3,0,0,0,3-3v-.18A3,3,0,0,0,30,32h2a3,3,0,0,0,3-3v-.18A3,3,0,0,0,36,29h2a3,3,0,0,0,3-3V16a1,1,0,0,0-2,0V26a1,1,0,0,1-1,1H36a1,1,0,0,1-1-1V13h5A3,3,0,0,0,43,10ZM39,2V7H35V2ZM33,2V7H29V2ZM27,2V7H23V2ZM21,2V7H17V2ZM11,2h4V7H11ZM4,9H40a1,1,0,0,1,0,2H4A1,1,0,0,1,4,9ZM9,41a1,1,0,0,1-1,1H6a1,1,0,0,1-1-1V13H9V41Zm6-3a1,1,0,0,1-1,1H12a1,1,0,0,1-1-1V13h4V38Zm6-3a1,1,0,0,1-1,1H18a1,1,0,0,1-1-1V13h4V35Zm6-3a1,1,0,0,1-1,1H24a1,1,0,0,1-1-1V13h4V32Zm6-6v3a1,1,0,0,1-1,1H30a1,1,0,0,1-1-1V13h4Z"/></g></svg>