<svg xmlns="http://www.w3.org/2000/svg" viewBox="0 0 44 44"><defs><style>.cls-1{fill:#fff;}</style></defs><title>cws-icon-note</title><g id="note"><path class="cls-1" d="M35,2H34a1,1,0,0,0,0,2h1a1,1,0,0,1,1,1V33a1,1,0,0,1-1,1H9a1,1,0,0,1-1-1V5A1,1,0,0,1,9,4h4V5.28a2,2,0,1,0,2,0V1a1,1,0,0,0-2,0V2H9A3,3,0,0,0,6,5V41a3,3,0,0,0,3,3H35a3,3,0,0,0,3-3V5A3,3,0,0,0,35,2ZM9,36H35a3,3,0,0,0,1-.18V37a1,1,0,0,1-1,1H9a1,1,0,0,1-1-1V35.82A3,3,0,0,0,9,36Zm26,6H9a1,1,0,0,1-1-1V39.82A3,3,0,0,0,9,40H35a3,3,0,0,0,1-.18V41A1,1,0,0,1,35,42Z"/><path class="cls-1" d="M26,4h3V5.28a2,2,0,1,0,2,0V1a1,1,0,0,0-2,0V2H26a1,1,0,0,0,0,2Z"/><path class="cls-1" d="M18,4h3V5.28a2,2,0,1,0,2,0V1a1,1,0,0,0-2,0V2H18a1,1,0,0,0,0,2Z"/><path class="cls-1" d="M22,14H12a1,1,0,0,0,0,2H22a1,1,0,0,0,0-2Z"/><path class="cls-1" d="M19,19a1,1,0,0,0,1,1h9a1,1,0,0,0,0-2H20A1,1,0,0,0,19,19Z"/><path class="cls-1" d="M12,28H26a1,1,0,0,0,0-2H12a1,1,0,0,0,0,2Z"/><path class="cls-1" d="M26,16h6a1,1,0,0,0,0-2H26a1,1,0,0,0,0,2Z"/><path class="cls-1" d="M12,24h9a1,1,0,0,0,0-2H12a1,1,0,0,0,0,2Z"/><path class="cls-1" d="M12,20h4a1,1,0,0,0,0-2H12a1,1,0,0,0,0,2Z"/><path class="cls-1" d="M33,23a1,1,0,0,0-1-1H25a1,1,0,0,0,0,2h7A1,1,0,0,0,33,23Z"/></g></svg>