<svg xmlns="http://www.w3.org/2000/svg" viewBox="0 0 44 44"><defs><style>.cls-1{fill:#fff;}</style></defs><g id="birds"><path class="cls-1" d="M15,23a1,1,0,1,0-1,1A1,1,0,0,0,15,23Z"/><path class="cls-1" d="M29,23a1,1,0,1,0,1-1A1,1,0,0,0,29,23Z"/><path class="cls-1" d="M43,27H41a4,4,0,0,1-4-3.92,6,6,0,0,0-11.53-2.41,2.27,2.27,0,0,1-.8.92L22,22.89l-2.67-1.3a2.27,2.27,0,0,1-.8-.92A6,6,0,0,0,7,23.08,4,4,0,0,1,3,27H1a1,1,0,0,0,0,2h.07a9,9,0,0,0,4.57,6.87,1,1,0,1,0,1-1.74A7,7,0,0,1,3.07,29H10a1,1,0,0,0,0-2H7.45A6,6,0,0,0,9,23.12a4,4,0,0,1,7.69-1.67,4.13,4.13,0,0,0,1.76,1.93l1.29.63-2.19,1.1A1,1,0,0,0,17,26v1.73A7.16,7.16,0,0,1,10.47,35H10a1,1,0,0,0-1,1v3a1,1,0,0,0,0,2h3a1,1,0,0,0,0-2H11V37a9.19,9.19,0,0,0,8-9.22V26.62l3-1.5,3,1.5v1.11A9.19,9.19,0,0,0,33,37v2H32a1,1,0,0,0,0,2h3a1,1,0,0,0,0-2V36a1,1,0,0,0-1-1h-.46A7.17,7.17,0,0,1,27,27.73V26a1,1,0,0,0-.55-.89L24.26,24l1.29-.63a4.13,4.13,0,0,0,1.76-1.93A4,4,0,0,1,35,23.12,6,6,0,0,0,36.55,27H34a1,1,0,0,0,0,2h6.93a7,7,0,0,1-3.54,5.13,1,1,0,1,0,1,1.74A9,9,0,0,0,42.93,29H43a1,1,0,0,0,0-2Z"/><path class="cls-1" d="M20.65,18.41a1.84,1.84,0,0,0,2.7,0l6.16-6.59A5.2,5.2,0,0,0,31,8s0,0,0,0,0,0,0-.07v0a5,5,0,0,0-.06-.56A5,5,0,0,0,21,8a1,1,0,0,0,2,0,3,3,0,0,1,3-3,2.94,2.94,0,0,1,1.72.55.88.88,0,0,0,.12.15,3.19,3.19,0,0,1,.22,4.73L22,16.92l-6.08-6.51a3.19,3.19,0,0,1,.24-4.71,3.1,3.1,0,0,1,2.63-.63A1,1,0,0,0,20,4.31a1,1,0,0,0-.77-1.19,5.08,5.08,0,0,0-4.33,1,5.21,5.21,0,0,0-.4,7.64Z"/></g></svg>