<svg xmlns="http://www.w3.org/2000/svg" viewBox="0 0 44 44"><defs><style>.cls-1{fill:#fff;}</style></defs><title>cws-icon-success</title><g id="success"><path class="cls-1" d="M35.44,25.46A3,3,0,0,0,32.87,24H30.24a1,1,0,0,1-.9-.55l-1.89-3.79A3,3,0,0,0,24.76,18H23V6h6.24l-1,1.4a1,1,0,0,0,0,1.2l1,1.4H26a1,1,0,0,0,0,2h5.24a1,1,0,0,0,.89-.55,1,1,0,0,0-.09-1L30.25,8,32,5.6a1,1,0,0,0,.09-1A1,1,0,0,0,31.24,4H23V3a1,1,0,0,0-2,0V18H19.32a3,3,0,0,0-2.76,1.82l-2,4.57a1,1,0,0,1-.92.61H11.07a3,3,0,0,0-2.52,1.38L.14,40.49A1,1,0,0,0,1,42H39a1,1,0,0,0,0-2H29.58a1,1,0,0,0-.14-.21l-3.62-3.62A4,4,0,0,0,23,35H17.24a1,1,0,1,0,0,2H23a2,2,0,0,1,1.42.59L26.82,40H2.76l7.48-12.56a1,1,0,0,1,.83-.44H21a1,1,0,0,0,0-2H16.52l1.88-4.39a1,1,0,0,1,.92-.61h5.44a1,1,0,0,1,.9.55l1.89,3.79A3,3,0,0,0,30.24,26h2.63a1,1,0,0,1,.84.46l8.42,15A1,1,0,0,0,43,42a1,1,0,0,0,.49-.13,1,1,0,0,0,.38-1.36Z"/><path class="cls-1" d="M38,25a1,1,0,0,0,.71-.29l.41-.42a1.05,1.05,0,0,1,.71-.29H43a1,1,0,0,0,0-2H39.83a3,3,0,0,0-2.12.88l-.42.41a1,1,0,0,0,0,1.42A1,1,0,0,0,38,25Z"/><path class="cls-1" d="M3,22h7.17a1,1,0,0,1,.71.29l.41.42a1,1,0,0,0,1.42,0,1,1,0,0,0,0-1.42l-.42-.41A3,3,0,0,0,10.17,20H3a1,1,0,0,0,0,2Z"/></g></svg>