<svg xmlns="http://www.w3.org/2000/svg" viewBox="0 0 44 36"><defs><style>.cls-1{fill:#fff;}</style></defs><title>cws-icon-photo-camera</title><g id="Livello_2" data-name="Livello 2"><g id="photo_camera_1"><path class="cls-1" d="M22,17a4,4,0,0,0-4,4,1,1,0,0,0,2,0,2,2,0,0,1,2-2,1,1,0,0,0,0-2Z"/><path class="cls-1" d="M22,10A11,11,0,1,0,33,21,11,11,0,0,0,22,10Zm0,20a9,9,0,1,1,9-9A9,9,0,0,1,22,30Z"/><path class="cls-1" d="M22,13a8,8,0,1,0,8,8A8,8,0,0,0,22,13Zm0,14a6,6,0,1,1,6-6A6,6,0,0,1,22,27Z"/><circle class="cls-1" cx="38" cy="12" r="2"/><path class="cls-1" d="M41,6H33.85a2,2,0,0,1-1.78-1.11L30.72,2.21A4,4,0,0,0,27.15,0H16.85a4,4,0,0,0-3.57,2.21L11.93,4.89A2,2,0,0,1,10.15,6H8A1,1,0,0,0,7,5H5A1,1,0,0,0,4,6H3A3,3,0,0,0,0,9V33a3,3,0,0,0,3,3H41a3,3,0,0,0,3-3V9A3,3,0,0,0,41,6Zm0,28H3a1,1,0,0,1-1-1V24H8a1,1,0,0,0,0-2H2V20H8a1,1,0,0,0,0-2H2V9A1,1,0,0,1,3,8h7.15a4,4,0,0,0,3.57-2.21l1.35-2.68A2,2,0,0,1,16.85,2h10.3a2,2,0,0,1,1.78,1.11l1.35,2.68A4,4,0,0,0,33.85,8H41a1,1,0,0,1,1,1v9H36a1,1,0,0,0,0,2h6v2H36a1,1,0,0,0,0,2h6v9A1,1,0,0,1,41,34Z"/><path class="cls-1" d="M18,6h8a1,1,0,0,0,0-2H18a1,1,0,0,0,0,2Z"/></g></g></svg>