<svg id="envelope" xmlns="http://www.w3.org/2000/svg" viewBox="0 0 44 44"><defs><style>.cls-1{fill:#fff;}</style></defs><title>cws-icon-envelope</title><path class="cls-1" d="M41,7H3a3,3,0,0,0-3,3V34a3,3,0,0,0,3,3H41a3,3,0,0,0,3-3V10A3,3,0,0,0,41,7Zm1,27a1,1,0,0,1-1,1H3a1,1,0,0,1-1-1V10A1,1,0,0,1,3,9H41a1,1,0,0,1,1,1Z"/><path class="cls-1" d="M11.21,22.39l-7,9a1,1,0,0,0,.18,1.4,1,1,0,0,0,1.4-.18l7-9a1,1,0,1,0-1.58-1.22Z"/><path class="cls-1" d="M32.79,22.39a1,1,0,0,0-1.58,1.22l7,9a1,1,0,1,0,1.58-1.22Z"/><path class="cls-1" d="M38.36,11.23,23.91,23.13a3,3,0,0,1-3.82,0L5.64,11.23a1,1,0,1,0-1.28,1.54L18.82,24.68a5,5,0,0,0,6.36,0L39.64,12.77a1,1,0,0,0-1.28-1.54Z"/></svg>