<svg xmlns="http://www.w3.org/2000/svg" viewBox="0 0 44 44"><defs><style>.cls-1{fill:#fff;}</style></defs><g id="eiffel_tower"><path class="cls-1" d="M39,42H36.62L35,38.79c-1.13-2.25-2.28-4.61-3.37-7A1,1,0,0,0,31,30h-.14a75.78,75.78,0,0,1-2.93-8H28a1,1,0,0,0,0-2h-.62A39.71,39.71,0,0,1,26,10V4a1,1,0,0,0-1-1H23V1a1,1,0,0,0-2,0V3H19a1,1,0,0,0-1,1v6a39.71,39.71,0,0,1-1.38,10H16a1,1,0,0,0,0,2h.07a75.78,75.78,0,0,1-2.93,8H13a1,1,0,0,0-.63,1.76c-1.09,2.42-2.24,4.78-3.38,7L7.38,42H5a1,1,0,0,0,0,2H24a1,1,0,0,0,0-2H16.09a6,6,0,0,1,11.82,0A1,1,0,0,0,27,43a1,1,0,0,0,1,1H39a1,1,0,0,0,0-2ZM28.69,30h-2.6a74,74,0,0,1-2.77-8h2.52A76.76,76.76,0,0,0,28.69,30Zm-4.76,0H20.07c.72-1.83,1.37-3.64,1.93-5.42C22.56,26.36,23.21,28.17,23.93,30ZM20,5h4V7H20Zm0,5V9h4v1a41.39,41.39,0,0,0,1.31,10H23V18a1,1,0,0,0-2,0v2H18.69A41.39,41.39,0,0,0,20,10ZM18.16,22h2.52a74,74,0,0,1-2.77,8h-2.6A76.76,76.76,0,0,0,18.16,22ZM22,35a8,8,0,0,0-7.93,7H9.62l1.16-2.31c1.24-2.46,2.49-5,3.67-7.69h15.1c1.18,2.66,2.43,5.23,3.67,7.69L34.38,42H29.93A8,8,0,0,0,22,35Z"/></g></svg>