<svg xmlns="http://www.w3.org/2000/svg" viewBox="0 0 44 44"><defs><style>.cls-1{fill:#fff;}</style></defs><title>cws-icon-globe</title><g id="Layer_14" data-name="Layer 14"><path class="cls-1" d="M34.41,4l2.3-2.29A1,1,0,1,0,35.29.29l-3,3A1,1,0,0,0,32,4a1,1,0,0,0,.31.72A15.09,15.09,0,0,1,37,15.39a16.62,16.62,0,0,1-4.7,11.94,15.08,15.08,0,0,1-7.53,4.3,1,1,0,0,0,.23,2l.23,0a17.14,17.14,0,0,0,8.52-4.87A18.55,18.55,0,0,0,39,15.34,17.06,17.06,0,0,0,34.41,4Z"/><path class="cls-1" d="M21,32a16.1,16.1,0,0,1-11.3-4.75,1,1,0,0,0-1.42,0l-3,3a1,1,0,0,0,1.42,1.42L9,29.4A18.08,18.08,0,0,0,20,34v5a3,3,0,0,1-3,3H15a1,1,0,0,0,0,2h2a5,5,0,0,0,5-5V33A1,1,0,0,0,21,32Z"/><path class="cls-1" d="M16.69,29.33l.67.21.43-.55c.1-.13,2.46-3.19,1.9-6a4.21,4.21,0,0,0-2.2-2.88L17.26,20c-.56-.31-1.35-.76-1.93-1.14.71,0,1.67.15,2.4.24,3.12.39,5.08.55,6-.41,1.27-1.35-1.62-5.55-2.93-7.29-.35-.47-1.29-1.72-8-.38a1,1,0,1,0,.4,2c3.74-.75,5.69-.61,6-.38A26,26,0,0,1,22,17.37a20.91,20.91,0,0,1-4-.25c-2.31-.28-3.65-.42-4.44,0a1.49,1.49,0,0,0-.89,1.33c0,1.18,1.31,2,3.64,3.29l.23.13a2.25,2.25,0,0,1,1.22,1.53,5.9,5.9,0,0,1-1.12,3.77A12,12,0,1,1,27.46,5.89,1,1,0,0,0,28.54,4.2,14,14,0,1,0,16.69,29.33Z"/><path class="cls-1" d="M27,10a1.81,1.81,0,0,0,.14,1.49c.49.84,1.39,2.4,1,3s-1.64,3.16-.81,4.64A1.78,1.78,0,0,0,29,20c.33,0,.71-.05,1.12-.1a1,1,0,1,0-.28-2c-.28,0-.54.06-.79.08a5.27,5.27,0,0,1,.77-2.46c1-1.56-.09-3.51-.93-5a5.45,5.45,0,0,1,2-1.41A12,12,0,0,1,21,28a1,1,0,0,0,0,2A14,14,0,0,0,35,16a13.86,13.86,0,0,0-3-8.62,1.06,1.06,0,0,0-.8-.38H31a1,1,0,0,0-.38.08C29.88,7.39,27.49,8.52,27,10Z"/><path class="cls-1" d="M27,44H25a5.05,5.05,0,0,1-1.23-.15l-.05,0h0a1,1,0,0,1-.68-1,1,1,0,0,1,1.25-1h0A3.14,3.14,0,0,0,25,42h2a1,1,0,0,1,0,2Z"/></g></svg>