<svg id="piggy_bank" xmlns="http://www.w3.org/2000/svg" viewBox="0 0 44 44"><defs><style>.cls-1{fill:#fff;}</style></defs><title>cws-icon-piggy-bank</title><circle class="cls-1" cx="32" cy="22.47" r="2"/><path class="cls-1" d="M16,18.5H28a1,1,0,0,0,0-2H16a1,1,0,0,0,0,2Z"/><path class="cls-1" d="M41,21.5a1.49,1.49,0,0,1-1.35-.9,15.77,15.77,0,0,0-3.21-4.49L38,10.77a1,1,0,0,0-.15-.86A1,1,0,0,0,37,9.5a8,8,0,0,0-6.59,2.68c-.78-.32-1.69-.64-2.56-.9A6.91,6.91,0,0,0,29,7.5a7,7,0,1,0-2.61,5.44,25,25,0,0,1,3.92,1.36,1,1,0,0,0,1.22-.3,5.87,5.87,0,0,1,4.13-2.44l-1.31,4.59a1,1,0,0,0,.28,1,13.79,13.79,0,0,1,3.21,4.29A3.46,3.46,0,0,0,41,23.5a1,1,0,0,1,1,1v4a1,1,0,0,1-1,1H39.33a1,1,0,0,0-.73.32c-.53.58-.94,1-1.35,1.37s-1.09,1.05-1.92,2A9.35,9.35,0,0,0,33,39.47v1a1,1,0,0,1-1,1H30a1,1,0,0,1-1-1V38.64a1,1,0,0,0-2,0V40.5a3,3,0,0,0,3,3h2a3,3,0,0,0,3-3v-1a7.34,7.34,0,0,1,1.81-5c.79-.88,1.32-1.39,1.83-1.88s.71-.69,1.13-1.13H41a3,3,0,0,0,3-3v-4A3,3,0,0,0,41,21.5ZM17,7.5a5,5,0,1,1,5,5A5,5,0,0,1,17,7.5Z"/><path class="cls-1" d="M24.33,38.37a20.57,20.57,0,0,1-9-1,1,1,0,0,0-1.33.94V40.5a1,1,0,0,1-1,1H11a1,1,0,0,1-1-1V38.23a9.5,9.5,0,0,0-2-5.87c-.32-.4-.62-.77-.9-1.1a10,10,0,0,1-1.68-2.43A6.22,6.22,0,0,1,5,26.5C5,21.18,8.6,16.38,14.38,14a1,1,0,0,0-.76-1.84c-6.11,2.52-10,7.48-10.56,13.11A2,2,0,0,1,2,23.5a1,1,0,0,0-2,0,4,4,0,0,0,3,3.87,7.1,7.1,0,0,0,.49,2.21,11.32,11.32,0,0,0,2,3c.27.32.56.67.87,1.06A7.52,7.52,0,0,1,8,38.23V40.5a3,3,0,0,0,3,3h2a3,3,0,0,0,3-3v-.81a22.78,22.78,0,0,0,8.55.67,1,1,0,0,0-.22-2Z"/><path class="cls-1" d="M23,8.5v-3a1,1,0,0,0-1-1H21a1,1,0,0,0,0,2v2a1,1,0,0,0,0,2h2a1,1,0,0,0,0-2Z"/></svg>