<svg xmlns="http://www.w3.org/2000/svg" viewBox="0 0 44 44"><defs><style>.cls-1{fill:#fff;}</style></defs><g id="goat"><circle class="cls-1" cx="36" cy="12" r="1"/><path class="cls-1" d="M35,20a1,1,0,0,0-1,1,10.46,10.46,0,0,1-2.28,6.5l-.07.09a12.3,12.3,0,0,0-2.24,4.34l-.95,3.31A12.36,12.36,0,0,0,28,38.55V40a1,1,0,0,1-2,0V28a1,1,0,0,0-2,0v1.33a12.54,12.54,0,0,1-6.78.37,1,1,0,0,0-1.2.76,1,1,0,0,0,.76,1.19A14.47,14.47,0,0,0,20,32a14.25,14.25,0,0,0,4-.56V40a3,3,0,0,0,6,0V38.55a10,10,0,0,1,.39-2.76l.94-3.31a10.48,10.48,0,0,1,1.88-3.65l.07-.08A12.46,12.46,0,0,0,36,21,1,1,0,0,0,35,20Z"/><path class="cls-1" d="M42.66,12.57l-1-.69a2.75,2.75,0,0,1-1.09-1.42,4.76,4.76,0,0,0-3-3l-.82-.28a11.26,11.26,0,0,0-6.67-5.72,10.4,10.4,0,0,0-6.1,0l-4.24,1.3a1,1,0,0,0-.71,1,1,1,0,0,0,.88.91l5.42.64A6.61,6.61,0,0,1,29.86,8.1l-2.72,6.12A3,3,0,0,1,24.4,16H20.25a6.06,6.06,0,0,1-1.77-.24,19.58,19.58,0,0,0-11.85.31,1,1,0,1,0,.74,1.86,17.66,17.66,0,0,1,10.52-.26,8,8,0,0,0,2.36.33H24.4A5,5,0,0,0,29,15l2.94-6.62a1,1,0,0,0-.06-.94,8.62,8.62,0,0,0-6.32-4.1l-.69-.09a8.44,8.44,0,0,1,4.62.09,9.26,9.26,0,0,1,5.63,5.05,1,1,0,0,0,.59.53l1.22.41a2.74,2.74,0,0,1,1.74,1.74,4.86,4.86,0,0,0,1.88,2.45l1,.69a1,1,0,0,1,.45.83V16a1,1,0,0,1-1,1H39a7,7,0,0,1-1.65-.2L34.24,16A1,1,0,1,0,33.76,18l3.07.77A8.94,8.94,0,0,0,39,19h2a3,3,0,0,0,3-3v-.93A3,3,0,0,0,42.66,12.57Z"/><path class="cls-1" d="M15.32,26.05a1,1,0,0,0-1.27.63,7.55,7.55,0,0,1-3.28,4.09l-.62.37a3.41,3.41,0,0,0-1.48,4L10,39a1.12,1.12,0,0,1,.05.31V40a1,1,0,0,1-2,0v-.53a3,3,0,0,0-.32-1.34L5,32.81l.83-8.23a3,3,0,0,0-1.52-2.91,4.08,4.08,0,0,1-1.8-2.83,6.54,6.54,0,0,0,1,.66A1,1,0,0,0,4.9,19a1,1,0,0,0-.46-1.34,7.11,7.11,0,0,1-1.85-1.52l-.88-.88a1,1,0,0,0-1.17-.18A1,1,0,0,0,0,16.16L.34,18.1c.31,1.85.93,4.14,3,5.32a1,1,0,0,1,.51,1L3,32.9a1,1,0,0,0,.11.55L5.89,39a1,1,0,0,1,.11.44V40a3,3,0,0,0,6,0v-.68a3,3,0,0,0-.15-.94l-1.29-3.85a1.41,1.41,0,0,1,.62-1.67l.62-.38A9.51,9.51,0,0,0,16,27.32,1,1,0,0,0,15.32,26.05Z"/></g></svg>