<svg xmlns="http://www.w3.org/2000/svg" viewBox="0 0 44 44"><defs><style>.cls-1{fill:#fff;}</style></defs><title>cws-icon-web-shop</title><g id="web_shop"><circle class="cls-1" cx="22" cy="32" r="1"/><path class="cls-1" d="M43,14a1,1,0,0,0-1,1V34a1,1,0,0,1-1,1H18a1,1,0,0,0-1,1v4a1,1,0,0,1-1,1H15a1,1,0,0,0,0,2H29a1,1,0,0,0,0-2H28a1,1,0,0,1-1-1V37H41a3,3,0,0,0,3-3V15A1,1,0,0,0,43,14ZM25,40a3,3,0,0,0,.18,1H18.82A3,3,0,0,0,19,40V37h6Z"/><path class="cls-1" d="M15,36a1,1,0,0,0-1-1H3a1,1,0,0,1-1-1V15a1,1,0,0,0-2,0V34a3,3,0,0,0,3,3H14A1,1,0,0,0,15,36Z"/><path class="cls-1" d="M40,28a1,1,0,0,0-1-1H5a1,1,0,0,0,0,2H39A1,1,0,0,0,40,28Z"/><path class="cls-1" d="M.43,10.82A7.66,7.66,0,0,0,8,11.15a7.63,7.63,0,0,0,7,0,7.63,7.63,0,0,0,7,0,7.63,7.63,0,0,0,7,0,7.63,7.63,0,0,0,7,0,7.42,7.42,0,0,0,3.5.85,7.22,7.22,0,0,0,4.07-1.18A1,1,0,0,0,44,9.76L42.35,3.27A3,3,0,0,0,39.44,1H4.56A3,3,0,0,0,1.65,3.27L0,9.76A1,1,0,0,0,.43,10.82ZM9.08,9.46,9.88,3h5l-.8,6.38A5.78,5.78,0,0,1,9.08,9.46Zm7,0L16.88,3H21V9.42A5.8,5.8,0,0,1,16.08,9.46Zm6.92,0V3h4.12l.8,6.46A5.8,5.8,0,0,1,23,9.42Zm6.93,0L29.13,3h5l.8,6.46A5.78,5.78,0,0,1,29.93,9.38ZM40.41,3.76l1.44,5.75a5.8,5.8,0,0,1-4.92-.13L36.13,3h3.31A1,1,0,0,1,40.41,3.76Zm-36.82,0a1,1,0,0,1,1-.76H7.87l-.8,6.39a5.84,5.84,0,0,1-4.92.12Z"/><path class="cls-1" d="M25,19h8a1,1,0,0,0,0-2H25a1,1,0,0,0,0,2Z"/><path class="cls-1" d="M25,23h5a1,1,0,0,0,0-2H25a1,1,0,0,0,0,2Z"/><circle class="cls-1" cx="10" cy="25" r="1"/><circle class="cls-1" cx="16" cy="25" r="1"/><path class="cls-1" d="M18,22.24l1-4a1,1,0,0,0-.18-.86A1,1,0,0,0,18,17H11a3,3,0,0,0-3-3,1,1,0,0,0,0,2,1,1,0,0,1,1,1v5a1,1,0,0,0,1,1h7A1,1,0,0,0,18,22.24ZM16.22,21H11V19h5.72Z"/></g></svg>