<svg xmlns="http://www.w3.org/2000/svg" viewBox="0 0 64 56"><defs><style>.cls-1{fill:#fff;}</style></defs><g id="hoodie"><circle class="cls-1" cx="30.76" cy="19.54" r="1"/><path class="cls-1" d="M38.76,25.54a1,1,0,0,0-1,1v22a1,1,0,0,1-1,1h-18a1,1,0,0,1-1-1v-1h17a1,1,0,0,0,0-2h-17v-19a1,1,0,1,0-2,0v22a3,3,0,0,0,3,3h18a3,3,0,0,0,3-3v-22A1,1,0,0,0,38.76,25.54Z"/><path class="cls-1" d="M46.71,28.84,46,20.17a5,5,0,0,0-3.54-4.37l-6.68-2V8.54a1,1,0,0,0-1-1h-14a1,1,0,0,0-1,1V13.8l-6.68,2a5,5,0,0,0-3.54,4.37l-.72,8.67c0,.44-.06.88-.06,1.33V41.54a3,3,0,0,0,1,2.22v1.78a3,3,0,0,0,3,3,1,1,0,0,0,0-2,1,1,0,0,1-1-1v-1h1a1,1,0,0,0,0-2h-1a1,1,0,0,1-1-1V30.17c0-.39,0-.78.05-1.17l.72-8.66a3,3,0,0,1,2.13-2.62l7.25-2.18h5.85v9a1,1,0,0,0,2,0v-9h5.85l7.25,2.18A3,3,0,0,1,44,20.34L44.71,29a11.45,11.45,0,0,1,0,1.17V41.54a1,1,0,0,1-1,1h-1a1,1,0,0,0,0,2h1v1a1,1,0,0,1-1,1,1,1,0,0,0,0,2,3,3,0,0,0,3-3V43.76a3,3,0,0,0,1-2.22V30.17C46.76,29.72,46.74,29.28,46.71,28.84ZM21.76,13.54v-4a3,3,0,0,1,2.36,1.33l1.77,2.66Zm6-.8-2-3c-.05-.08-.11-.15-.17-.23h4.3c-.05.08-.12.15-.17.23Zm6,.8H29.63l1.78-2.66a3,3,0,0,1,2.35-1.33Z"/></g></svg>