<svg xmlns="http://www.w3.org/2000/svg" viewBox="0 0 44 44"><defs><style>.cls-1{fill:#fff;}</style></defs><g id="flower"><path class="cls-1" d="M32,42H25a2,2,0,0,1-1.73-1,6.24,6.24,0,0,0,3.91-1.8,6.17,6.17,0,0,0,1.75-5.27,1,1,0,0,0-.83-.84,6.1,6.1,0,0,0-4.54,1.12,1,1,0,1,0,1.18,1.62A4.05,4.05,0,0,1,27,35a4.21,4.21,0,0,1-1.24,2.75A4.16,4.16,0,0,1,23,39a8.53,8.53,0,0,0-.59-2.41,5.72,5.72,0,0,1,.44-5A7.5,7.5,0,0,0,24,26.72a6.87,6.87,0,0,0,1.89-3.44,7.1,7.1,0,0,0,5.58.87,1,1,0,0,0,.73-.73,7.06,7.06,0,0,0-.87-5.58,7,7,0,0,0,4.56-3.32,1,1,0,0,0,0-1,7,7,0,0,0-4.57-3.33,7.1,7.1,0,0,0,.87-5.58,1,1,0,0,0-.73-.73,7.06,7.06,0,0,0-5.58.87A7,7,0,0,0,22.52.15a1,1,0,0,0-1,0,7.06,7.06,0,0,0-3.33,4.56,7,7,0,0,0-5.58-.87,1,1,0,0,0-.73.73,7,7,0,0,0,.87,5.58,7.06,7.06,0,0,0-4.56,3.33,1,1,0,0,0,0,1,7.06,7.06,0,0,0,4.58,3.33,7.08,7.08,0,0,0-.87,5.57,1,1,0,0,0,.73.73,7,7,0,0,0,5.56-.86,7.09,7.09,0,0,0,3.33,4.56A.92.92,0,0,0,22,28a5,5,0,0,1-.77,2.44A7.07,7.07,0,0,0,20,34a4.16,4.16,0,0,1-2.78-1.23A4.21,4.21,0,0,1,16,30a4.14,4.14,0,0,1,2.38.9,1,1,0,0,0,1.41-.17,1,1,0,0,0-.17-1.4,6.1,6.1,0,0,0-4.71-1.26,1,1,0,0,0-.84.83A6.21,6.21,0,0,0,20.15,36a8.17,8.17,0,0,0,.36,1.31A5.83,5.83,0,0,1,21,39.5V40a2,2,0,0,1-2,2H12a1,1,0,0,0,0,2H32a1,1,0,0,0,0-2ZM30.34,22.33a4.84,4.84,0,0,1-4.1-1.27A4.79,4.79,0,0,1,25,17a4.6,4.6,0,0,1,5.36,5.37ZM33.79,14a4.59,4.59,0,0,1-7.58,0,4.59,4.59,0,0,1,7.58,0ZM26.23,6.93a4.83,4.83,0,0,1,4.1-1.27,4.84,4.84,0,0,1-1.27,4.1A4.79,4.79,0,0,1,25,11,4.82,4.82,0,0,1,26.23,6.93ZM22,2.21A4.81,4.81,0,0,1,24,6a4.81,4.81,0,0,1-2,3.79A4.81,4.81,0,0,1,20,6,4.81,4.81,0,0,1,22,2.21ZM22,12a2,2,0,1,1-2,2A2,2,0,0,1,22,12ZM13.66,5.66a4.84,4.84,0,0,1,4.1,1.27A4.78,4.78,0,0,1,19,11a4.78,4.78,0,0,1-4.09-1.26A4.84,4.84,0,0,1,13.66,5.66ZM10.21,14A4.81,4.81,0,0,1,14,12a4.81,4.81,0,0,1,3.79,2A4.81,4.81,0,0,1,14,16,4.81,4.81,0,0,1,10.21,14Zm7.57,7.06a4.82,4.82,0,0,1-4.09,1.27A4.59,4.59,0,0,1,19.05,17,4.83,4.83,0,0,1,17.78,21.06ZM20,22a4.81,4.81,0,0,1,2-3.79A4.81,4.81,0,0,1,24,22a4.81,4.81,0,0,1-2,3.79A4.81,4.81,0,0,1,20,22Z"/><path class="cls-1" d="M9,42a1,1,0,1,0,1,1A1,1,0,0,0,9,42Z"/><path class="cls-1" d="M35,42a1,1,0,1,0,1,1A1,1,0,0,0,35,42Z"/></g></svg>