<svg id="washing" xmlns="http://www.w3.org/2000/svg" viewBox="0 0 44 44"><defs><style>.cls-1{fill:#fff;}</style></defs><title>cws-icon-washing</title><path class="cls-1" d="M34,4a1,1,0,1,0,1,1A1,1,0,0,0,34,4Z"/><path class="cls-1" d="M30,4a1,1,0,1,0,1,1A1,1,0,0,0,30,4Z"/><path class="cls-1" d="M26,4a1,1,0,1,0,1,1A1,1,0,0,0,26,4Z"/><path class="cls-1" d="M39,9V3a3,3,0,0,0-3-3H8A3,3,0,0,0,5,3V5A1,1,0,0,0,7,5V3A1,1,0,0,1,8,2h9V8H6A1,1,0,0,0,5,9V41a3,3,0,0,0,3,3H36a3,3,0,0,0,3-3V13a1,1,0,0,0-2,0V41a1,1,0,0,1-1,1H8a1,1,0,0,1-1-1V10H38A1,1,0,0,0,39,9ZM37,8H19V2H36a1,1,0,0,1,1,1Z"/><path class="cls-1" d="M22,16a10,10,0,0,1,9.32,6.37,1,1,0,1,0,1.86-.73A12,12,0,1,0,34,26a1,1,0,0,0-1.66-.75,7.55,7.55,0,0,1-9.68,0,9.49,9.49,0,0,0-7.83-2.11,1,1,0,1,0,.34,2,7.52,7.52,0,0,1,6.17,1.64A9.65,9.65,0,0,0,31.8,28,10,10,0,1,1,22,16Z"/><path class="cls-1" d="M19.27,30.69a1,1,0,1,0,1.46-1.38A7.31,7.31,0,0,0,14.93,27a1,1,0,1,0,.14,2A5.31,5.31,0,0,1,19.27,30.69Z"/></svg>