<svg xmlns="http://www.w3.org/2000/svg" viewBox="0 0 44 44"><defs><style>.cls-1{fill:#fff;}</style></defs><g id="suit"><circle class="cls-1" cx="22" cy="38" r="1"/><circle class="cls-1" cx="22" cy="34" r="1"/><circle class="cls-1" cx="22" cy="30" r="1"/><circle class="cls-1" cx="22" cy="26" r="1"/><circle class="cls-1" cx="22" cy="18" r="1"/><circle class="cls-1" cx="22" cy="22" r="1"/><path class="cls-1" d="M7.72,7.61l-2.09.6A5,5,0,0,0,2,13V41a1,1,0,0,0,1,1H6a1,1,0,0,0,0-2H4V13a3,3,0,0,1,2.18-2.89l2.09-.6A1,1,0,0,0,9,8.3,1,1,0,0,0,7.72,7.61Z"/><path class="cls-1" d="M38.37,8.21l-2.1-.6A1,1,0,0,0,35,8.3a1,1,0,0,0,.68,1.23l2.1.6A3,3,0,0,1,40,13V40H38a1,1,0,0,0,0,2h3a1,1,0,0,0,1-1V13A5,5,0,0,0,38.37,8.21Z"/><path class="cls-1" d="M34,20a1,1,0,0,0-1,1V41a1,1,0,0,1-1,1H26V28.16L33,7.32a1,1,0,0,0-.5-1.21C31,5.37,28.6,2.46,27.8,1.4a1.83,1.83,0,0,0-.43-.33,14,14,0,0,0-10.74,0,1.59,1.59,0,0,0-.43.33c-.8,1.06-3.18,4-4.65,4.7a1,1,0,0,0-.5,1.21l7,20.85V42H12a1,1,0,0,1-1-1V21a1,1,0,0,0-2,0V41a3,3,0,0,0,3,3H22a1,1,0,0,0,0-2H20V27.91l-1-11a1,1,0,1,0-2,.18l.22,2.42L15.72,15a2.64,2.64,0,0,0,1.07-.27l3.13-1.56a3,3,0,0,0,4.16,0l3.13,1.56a2.64,2.64,0,0,0,1.07.27l-1.5,4.52L27,17.09a1,1,0,1,0-2-.18l-1,11V43a1,1,0,0,0,1,1h7a3,3,0,0,0,3-3V21A1,1,0,0,0,34,20ZM28,6V4.79a18.2,18.2,0,0,0,2.8,2.64l-.24.73A2.62,2.62,0,0,0,28.38,7a2.42,2.42,0,0,0-.47.06L28,6ZM18,2.69a11.94,11.94,0,0,1,8,0v1.9a15.24,15.24,0,0,0-1.84-.42,13.61,13.61,0,0,0-4.32,0,1,1,0,0,0,.32,2,11.36,11.36,0,0,1,3.68,0,12.12,12.12,0,0,1,2.09.54L25.82,8l-1.74.87a3,3,0,0,0-4.16,0L18.18,8,18,6Zm-2,2.1v1.3l.09,1A2.52,2.52,0,0,0,15.62,7a2.62,2.62,0,0,0-2.18,1.16l-.24-.73A18.2,18.2,0,0,0,16,4.79Zm-.1,8.14a.63.63,0,0,1-.9-.55V9.62A.62.62,0,0,1,15.62,9a.52.52,0,0,1,.27.07L19,10.64A2.2,2.2,0,0,0,19,11a2.2,2.2,0,0,0,0,.36ZM22,12a1,1,0,1,1,1-1A1,1,0,0,1,22,12Zm3-.64A2.2,2.2,0,0,0,25,11a2.2,2.2,0,0,0,0-.36L28.1,9.07a.63.63,0,0,1,.9.55v2.76a.63.63,0,0,1-.89.55Z"/><path class="cls-1" d="M29,27a1,1,0,0,0,0,2h2a1,1,0,0,0,0-2Z"/></g></svg>