<svg xmlns="http://www.w3.org/2000/svg" viewBox="0 0 44 44"><defs><style>.cls-1{fill:#fff;}</style></defs><title>cws-icon-group</title><g id="group"><path class="cls-1" d="M41,19a3,3,0,0,0-2.82,2H33a1,1,0,0,0-1,1,9.92,9.92,0,0,1-2.3,6.37A5,5,0,0,0,25,25H19a5,5,0,0,0-4.71,3.38,10.4,10.4,0,0,1-1.61-2.74,1,1,0,1,0-1.86.73,12,12,0,0,0,4.2,5.4l-2.48,4.29a3,3,0,0,0-1.32,0,3,3,0,0,0-.72,5.5A3.06,3.06,0,0,0,12,42a3,3,0,0,0,.78-.1,3,3,0,0,0,1.49-4.84l2.47-4.26A12.12,12.12,0,0,0,22,34a11.88,11.88,0,0,0,5.25-1.22l2.48,4.28A3,3,0,0,0,32,42a3.06,3.06,0,0,0,1.5-.4,3,3,0,0,0-.72-5.5,3,3,0,0,0-1.32,0L29,31.75A12,12,0,0,0,34,23h4.22A3,3,0,1,0,41,19ZM12.87,39.5a1,1,0,0,1-.61.47,1.05,1.05,0,0,1-.76-.1,1,1,0,0,1-.47-.61,1.05,1.05,0,0,1,.1-.76,1,1,0,0,1,.61-.47L12,38a1,1,0,0,1,.5.13A1,1,0,0,1,12.87,39.5ZM32.26,38a1,1,0,0,1,.61.47,1.05,1.05,0,0,1,.1.76,1,1,0,0,1-.47.61,1.05,1.05,0,0,1-.76.1,1,1,0,0,1-.61-.47,1,1,0,0,1,.37-1.37A1,1,0,0,1,32,38ZM16,30h0a3,3,0,0,1,3-3h6a3,3,0,0,1,3,3,10,10,0,0,1-12,0Zm25-7a1,1,0,1,1,1-1A1,1,0,0,1,41,23Z"/><path class="cls-1" d="M21,14a3,3,0,0,0-3,3v3a4,4,0,0,0,8,0V17a3,3,0,0,0-3-3Zm3,3v3a2,2,0,0,1-4,0V17a1,1,0,0,1,1-1h2A1,1,0,0,1,24,17Z"/><path class="cls-1" d="M11,23a1,1,0,0,0,1-1,10,10,0,0,1,19.32-3.64,1,1,0,1,0,1.86-.73,12,12,0,0,0-4.2-5.4l2.48-4.3A3.35,3.35,0,0,0,32,8a3,3,0,1,0-2.26-1.06L27.26,11.2a12,12,0,0,0-10.51,0L14.27,6.94A3,3,0,1,0,12,8a3.21,3.21,0,0,0,.53-.07L15,12.25A12,12,0,0,0,10,21H5.82a3,3,0,1,0,0,2ZM31.13,4.5a1,1,0,1,1,.37,1.37A1,1,0,0,1,31.13,4.5ZM11.74,6a1,1,0,0,1-.61-.47,1.05,1.05,0,0,1-.1-.76,1,1,0,0,1,.47-.61A1,1,0,0,1,12,4a1.15,1.15,0,0,1,.26,0,1,1,0,0,1,.61.47,1,1,0,0,1-.37,1.37A1.05,1.05,0,0,1,11.74,6ZM3,23a1,1,0,1,1,1-1A1,1,0,0,1,3,23Z"/></g></svg>