<svg xmlns="http://www.w3.org/2000/svg" viewBox="0 0 44 36"><defs><style>.cls-1{fill:#fff;}</style></defs><title>cws-icon-clapperboard</title><g id="Livello_2" data-name="Livello 2"><g id="clapperboard"><path class="cls-1" d="M43,0H1A1,1,0,0,0,0,1V33a3,3,0,0,0,3,3H41a3,3,0,0,0,3-3V17a1,1,0,0,0-2,0V33a1,1,0,0,1-1,1H3a1,1,0,0,1-1-1V13.41L7.41,8h3.18l-4,4H6a1,1,0,0,0,0,2H43a1,1,0,0,0,1-1V1A1,1,0,0,0,43,0ZM33.41,12l4-4h3.18l-4,4Zm-6,0,4-4h3.18l-4,4Zm-6,0,4-4h3.18l-4,4Zm-6,0,4-4h3.18l-4,4ZM4.59,6H2V3.41ZM2,8H4.59L2,10.59ZM7.41,6l-4-4H6.59l4,4Zm6,0-4-4h3.18l4,4Zm5.18-4,4,4H19.41l-4-4Zm6,0,4,4H25.41l-4-4Zm6,0,4,4H31.41l-4-4Zm6,0,4,4H37.41l-4-4ZM42,4.59,39.41,2H42ZM13.41,8h3.18l-4,4H9.41Zm26,4L42,9.41V12Z"/><path class="cls-1" d="M7,30H37a1,1,0,0,0,0-2H7a1,1,0,0,0,0,2Z"/><path class="cls-1" d="M37,18H7a1,1,0,0,0,0,2H37a1,1,0,0,0,0-2Z"/><path class="cls-1" d="M23,25V23a1,1,0,0,0-2,0v2a1,1,0,0,0,2,0Z"/><path class="cls-1" d="M7,26a1,1,0,0,0,1-1V23a1,1,0,0,0-2,0v2A1,1,0,0,0,7,26Z"/><path class="cls-1" d="M38,23a1,1,0,0,0-2,0v2a1,1,0,0,0,2,0Z"/></g></g></svg>