<svg id="Layer_1" data-name="Layer 1" xmlns="http://www.w3.org/2000/svg" viewBox="0 0 44 44"><defs><style>.cls-1{fill:#fff;}</style></defs><title>cws-icon-helmet</title><path class="cls-1" d="M41,27h0A18.87,18.87,0,0,0,27,9.67,3,3,0,0,0,24,7H20a3,3,0,0,0-3,2.67A18.87,18.87,0,0,0,3,27H3a3,3,0,0,0-3,3v4a3,3,0,0,0,3,3H41a3,3,0,0,0,3-3V30A3,3,0,0,0,41,27Zm1,7a1,1,0,0,1-1,1H3a1,1,0,0,1-1-1V30a1,1,0,0,1,1-1H4a1,1,0,0,0,1-1A16.91,16.91,0,0,1,17,11.75V13a1,1,0,0,0,2,0V10a1,1,0,0,1,1-1h4a1,1,0,0,1,1,1v3a1,1,0,0,0,2,0V11.75A16.91,16.91,0,0,1,39,28a1,1,0,0,0,1,1h1a1,1,0,0,1,1,1Z"/><path class="cls-1" d="M36,27H27V23.31a6,6,0,1,0-10,0V27H8a1,1,0,0,0,0,2H36a1,1,0,0,0,0-2ZM22,16a4,4,0,1,1-4,4A4,4,0,0,1,22,16Zm-3,9.19a6,6,0,0,0,6,0V27H19Z"/></svg>