<svg xmlns="http://www.w3.org/2000/svg" viewBox="0 0 44 44"><defs><style>.cls-1{fill:#fff;}</style></defs><title>cws-icon-hydrant</title><g id="hydrant"><circle class="cls-1" cx="22" cy="28" r="2"/><path class="cls-1" d="M16,28a6,6,0,1,0,6-6A6,6,0,0,0,16,28Zm10,0a4,4,0,1,1-4-4A4,4,0,0,1,26,28Z"/><path class="cls-1" d="M10,33a1,1,0,0,0-1-1H8V24H9a1,1,0,0,0,0-2H7a1,1,0,0,0-1,1v3a1,1,0,0,0-1,1v2a1,1,0,0,0,1,1v3a1,1,0,0,0,1,1H9A1,1,0,0,0,10,33Z"/><path class="cls-1" d="M38,26V23a1,1,0,0,0-1-1H35a1,1,0,0,0,0,2h1v8H35a1,1,0,0,0,0,2h2a1,1,0,0,0,1-1V30a1,1,0,0,0,1-1V27A1,1,0,0,0,38,26Z"/><path class="cls-1" d="M32,38H16a1,1,0,0,0,0,2H32a1,1,0,0,1,0,2H12a1,1,0,0,1,0-2,1,1,0,0,0,1-1V18H28a1,1,0,0,0,0-2H12a1,1,0,0,1,0-2,1,1,0,0,0,1-1,9,9,0,0,1,17.94-1H16a1,1,0,0,0,0,2H32a1,1,0,0,1,0,2,1,1,0,0,0-1,1V35a1,1,0,0,0,2,0V17.83a3,3,0,0,0,0-5.67A11,11,0,0,0,23,2.05V1a1,1,0,0,0-2,0v1A11,11,0,0,0,11,12.16a3,3,0,0,0,0,5.67V38.17A3,3,0,0,0,12,44H32a3,3,0,0,0,0-6Z"/></g></svg>