<svg xmlns="http://www.w3.org/2000/svg" viewBox="0 0 44 44"><defs><style>.cls-1{fill:#fff;}</style></defs><title>cws-icon-fireplace</title><g id="fireplace"><path class="cls-1" d="M3,13H37a1,1,0,0,0,0-2H3A1,1,0,0,1,3,9H41a1,1,0,0,1,0,2,1,1,0,0,0-1,1V34a1,1,0,0,0,2,0V12.83A3,3,0,0,0,41,7H31.94A9.72,9.72,0,0,0,31,3.75l-1.11-2.2A1,1,0,0,0,29,1H15a1,1,0,0,0-.89.55L13,3.76A9.66,9.66,0,0,0,12.06,7H3a3,3,0,0,0,0,6ZM14.79,4.66,15.62,3H28.38l.83,1.65A7.45,7.45,0,0,1,29.93,7H14.07A7.4,7.4,0,0,1,14.79,4.66Z"/><path class="cls-1" d="M41,37H36V20a3,3,0,0,0-3-3H11a3,3,0,0,0-3,3V37H7a1,1,0,0,0,0,2H41a1,1,0,0,1,1,1v1H2V40a1,1,0,0,1,1-1,1,1,0,0,0,1-1V16a1,1,0,0,0-2,0V37.17A3,3,0,0,0,0,40v2a1,1,0,0,0,1,1H43a1,1,0,0,0,1-1V40A3,3,0,0,0,41,37ZM10,37V20a1,1,0,0,1,1-1H33a1,1,0,0,1,1,1V37Z"/><path class="cls-1" d="M28.93,30.45A3,3,0,0,1,27.67,28a1,1,0,0,0-1-1,4.45,4.45,0,0,0-2.14.57C23.26,24.78,21.27,23,19,23a1.07,1.07,0,0,0-1,1.07,5.89,5.89,0,0,1-1.69,4.23A7.83,7.83,0,0,0,14,34v1a1,1,0,0,0,2,0V34a5.85,5.85,0,0,1,1.69-4.22,7.69,7.69,0,0,0,2.23-4.55c1.19.48,2.25,1.88,3,3.77A9.64,9.64,0,0,0,21,35a1,1,0,0,0,2,0,8.7,8.7,0,0,1,.68-3.4A17.83,17.83,0,0,1,24,35a1,1,0,0,0,2,0,19.78,19.78,0,0,0-.76-5.51,2.82,2.82,0,0,1,.56-.31,5.08,5.08,0,0,0,1.93,2.87A3,3,0,0,1,29,34.45V35a1,1,0,0,0,2,0v-.55A5,5,0,0,0,28.93,30.45Z"/></g></svg>