<svg xmlns="http://www.w3.org/2000/svg" viewBox="0 0 44 44"><defs><style>.cls-1{fill:#fff;}</style></defs><title>cws-icon-certificate</title><g id="certificate"><path class="cls-1" d="M41,0H3A3,3,0,0,0,0,3V29a3,3,0,0,0,3,3H20a1,1,0,0,0,0-2H3a1,1,0,0,1-1-1V3A1,1,0,0,1,3,2H41a1,1,0,0,1,1,1V29a1,1,0,0,1-1,1H39.44l.3-.33a1,1,0,0,0,0-1.34L38.53,27l.38-1.77a1,1,0,0,0-.68-1.16l-1.72-.56L36,21.76a1,1,0,0,0-1.16-.67L33,21.48l-1.35-1.22a1,1,0,0,0-1.34,0L29,21.48l-1.77-.39a1,1,0,0,0-1.16.67l-.56,1.73-1.72.56a1,1,0,0,0-.68,1.16L23.47,27l-1.21,1.35a1,1,0,0,0,0,1.34L23.47,31l-.38,1.77A1,1,0,0,0,23.77,34l1.72.56.56,1.73a1,1,0,0,0,1.16.67L29,36.52l1.35,1.22a1,1,0,0,0,1.34,0L33,36.52l1,.22v4.64l-2.55-1.27a1,1,0,0,0-.9,0L28,41.38V39a1,1,0,0,0-2,0v4a1,1,0,0,0,1.45.89L31,42.12l3.55,1.77A1,1,0,0,0,35,44a1,1,0,0,0,.53-.15A1,1,0,0,0,36,43V35.93a1,1,0,0,0-.79-1l-2.27-.49a1,1,0,0,0-.89.24l-1,.95L30,34.7a1,1,0,0,0-.89-.24l-1.39.3-.43-1.35a1,1,0,0,0-.65-.65l-1.35-.43.3-1.39a1,1,0,0,0-.24-.89L24.35,29,25.3,28a1,1,0,0,0,.24-.89l-.3-1.39,1.35-.43a1,1,0,0,0,.65-.65l.43-1.35,1.39.3A1,1,0,0,0,30,23.3L31,22.35l1,.95a1,1,0,0,0,.89.24l1.39-.3.43,1.35a1,1,0,0,0,.65.65l1.35.43-.3,1.39a1,1,0,0,0,.24.89L37.65,29l-.95,1.05a1,1,0,0,0-.24.89L37,33.21a1,1,0,1,0,2-.42L38.74,32H41a3,3,0,0,0,3-3V3A3,3,0,0,0,41,0Z"/><path class="cls-1" d="M31,25a4,4,0,1,0,4,4A4,4,0,0,0,31,25Zm0,6a2,2,0,1,1,2-2A2,2,0,0,1,31,31Z"/><path class="cls-1" d="M28,4H16a1,1,0,0,0,0,2H28a1,1,0,0,0,0-2Z"/><path class="cls-1" d="M23,15a1,1,0,0,0-1-1H7a1,1,0,0,0,0,2H22A1,1,0,0,0,23,15Z"/><path class="cls-1" d="M19,19a1,1,0,0,0-1-1H7a1,1,0,0,0,0,2H18A1,1,0,0,0,19,19Z"/><path class="cls-1" d="M26,9a1,1,0,0,0-1-1H19a1,1,0,0,0,0,2h6A1,1,0,0,0,26,9Z"/><path class="cls-1" d="M26,16h6a1,1,0,0,0,0-2H26a1,1,0,0,0,0,2Z"/><path class="cls-1" d="M12.83,25a1,1,0,0,1-.71-.29l-1-1a3,3,0,0,0-4.24,0l-.59.58a1,1,0,0,0,1.42,1.42l.58-.59a1,1,0,0,1,1.42,0l1,1a3,3,0,0,0,2.12.88H15a1,1,0,0,0,0-2Z"/><path class="cls-1" d="M26,19a1,1,0,0,0-1-1H22a1,1,0,0,0,0,2h3A1,1,0,0,0,26,19Z"/></g></svg>