<svg xmlns="http://www.w3.org/2000/svg" viewBox="0 0 44 44"><defs><style>.cls-1{fill:#fff;}</style></defs><g id="usb"><path class="cls-1" d="M34,12H28a1,1,0,0,0-1,1v4a1,1,0,0,0,2,0V14h4v4H31a1,1,0,0,0-1,1c0,2-.8,2.68-4,4.39l-.87.46A23.09,23.09,0,0,0,23,25.08V10h3a1,1,0,0,0,.89-1.45l-4-8a1,1,0,0,0-1.78,0l-4,8a1,1,0,0,0,.44,1.34,1,1,0,0,0,1.34-.45L22,3.19,24.38,8H22a1,1,0,0,0-1,1V31.47a13,13,0,0,0-2.31-1.38C15.43,28.5,14,27.63,14,26a1,1,0,0,0-1-1,2,2,0,1,1,2-2,1,1,0,1,0,2,0,4,4,0,1,0-4.92,3.9c.48,2.45,2.93,3.64,5.73,5S21,34.1,21,36v.13A4,4,0,1,0,26,40a1,1,0,1,0-2,0,2,2,0,1,1-2-2,1,1,0,0,0,1-1V29c0-1.71.49-2,3.09-3.4l.88-.47c2.78-1.49,4.6-2.6,5-5.14H34a1,1,0,0,0,1-1V13A1,1,0,0,0,34,12Z"/></g></svg>