<svg xmlns="http://www.w3.org/2000/svg" viewBox="0 0 44 44"><defs><style>.cls-1{fill:#fff;}</style></defs><title>cws-icon-marketing</title><g id="marketing"><path class="cls-1" d="M18.31,5.07a1,1,0,0,0,.54-.16,5.94,5.94,0,0,1,4-.85,1,1,0,1,0,.28-2,7.9,7.9,0,0,0-5.36,1.15,1,1,0,0,0,.53,1.84Z"/><path class="cls-1" d="M41.63,13a1,1,0,1,0-1.05,1.7,2.94,2.94,0,0,1,1.06,1.13l-5.25,4a1,1,0,0,0-.18,1.4,1,1,0,0,0,.79.39,1,1,0,0,0,.61-.21L42,18V41a1,1,0,0,1-1,1H3a1,1,0,0,1-1-1V17.78l16.82,13.9a5,5,0,0,0,6.36,0l3.46-2.85a1,1,0,0,0-1.28-1.54l-3.45,2.84a3,3,0,0,1-3.82,0L2.52,15.58a2.93,2.93,0,0,1,.91-.91l1.31-.83a1,1,0,1,0-1.07-1.68L2.37,13A5,5,0,0,0,0,17.23V41a3,3,0,0,0,3,3H41a3,3,0,0,0,3-3V17.23A5,5,0,0,0,41.63,13Z"/><path class="cls-1" d="M11.21,29.39l-7,9a1,1,0,1,0,1.58,1.22l7-9a1,1,0,1,0-1.58-1.22Z"/><path class="cls-1" d="M31.39,29.21a1,1,0,0,0-.18,1.4l7,9A1,1,0,0,0,39,40a1,1,0,0,0,.79-1.61l-7-9A1,1,0,0,0,31.39,29.21Z"/><path class="cls-1" d="M8,16a3,3,0,0,0,3,3h1v2a1,1,0,0,0,2,0V19h2v5a1,1,0,0,0,2,0V20.72A2,2,0,0,0,19,19a1,1,0,0,0,1-1V12a1,1,0,0,0-2,0v5H11a1,1,0,0,1-1-1V10a1,1,0,0,1,1-1h8A12.68,12.68,0,0,0,29.3,3.7,4,4,0,0,1,32,2.05V24a4,4,0,0,1-2.7-1.65,12.64,12.64,0,0,0-6-4.53,1,1,0,1,0-.68,1.88,10.64,10.64,0,0,1,5,3.81A6.08,6.08,0,0,0,32.6,26H33a1,1,0,0,0,1-1V17h.09A4.14,4.14,0,0,0,38,13a4.14,4.14,0,0,0-3.91-4H34V1a1,1,0,0,0-1-1h-.4a6.08,6.08,0,0,0-4.93,2.54A10.68,10.68,0,0,1,19,7H11a3,3,0,0,0-3,3,1,1,0,0,0-1,1v4A1,1,0,0,0,8,16Zm28-3a2.15,2.15,0,0,1-2,2V11A2.15,2.15,0,0,1,36,13Z"/></g></svg>