<svg id="Layer_1" data-name="Layer 1" xmlns="http://www.w3.org/2000/svg" viewBox="0 0 44 44"><defs><style>.cls-1{fill:#fff;}</style></defs><title>cws-icon-screwdriver</title><path class="cls-1" d="M43,5.57,38.41,1a3.45,3.45,0,0,0-4.82,0L20,14.58l-.29-.3a1,1,0,1,0-1.42,1.42l10,10a1,1,0,0,0,1.42,0,1,1,0,0,0,0-1.42L21.41,16,35,2.4a1.45,1.45,0,0,1,2,0L41.59,7A1.41,1.41,0,0,1,42,8a1.45,1.45,0,0,1-.41,1l-11.3,11.3a1,1,0,1,0,1.42,1.41L43,10.4a3.42,3.42,0,0,0,0-4.83Z"/><path class="cls-1" d="M22.29,23.28,9.88,35.7A3,3,0,0,0,9,37.82v.6L3.17,41.75l-.92-.92L5.58,35h.59a3,3,0,0,0,2.12-.88L20.71,21.69a1,1,0,1,0-1.42-1.41L6.88,32.7a1,1,0,0,1-.71.29H5a1,1,0,0,0-.87.51l-4,7a1,1,0,0,0,.16,1.21l2,2A1,1,0,0,0,3,44a1,1,0,0,0,.5-.13l7-4A1,1,0,0,0,11,39V37.82a1,1,0,0,1,.29-.7L23.71,24.69a1,1,0,0,0,0-1.41A1,1,0,0,0,22.29,23.28Z"/><path class="cls-1" d="M37.71,6.27a1,1,0,0,0-1.42,0l-10,10a1,1,0,0,0,0,1.42,1,1,0,0,0,1.42,0l10-10A1,1,0,0,0,37.71,6.27Z"/></svg>