<svg xmlns="http://www.w3.org/2000/svg" viewBox="0 0 44 44"><defs><style>.cls-1{fill:#fff;}</style></defs><g id="cow"><circle class="cls-1" cx="38" cy="14" r="1"/><path class="cls-1" d="M28,16a3,3,0,1,0-3,3A3,3,0,0,0,28,16Zm-4,0a1,1,0,1,1,1,1A1,1,0,0,1,24,16Z"/><path class="cls-1" d="M44.81,16.42l-4.1-5.74A5,5,0,0,0,44,6a1,1,0,0,0-2,0,3,3,0,0,1-3,3H8a6,6,0,0,0-6,6v3a2,2,0,0,1-2,2,1,1,0,0,0,0,2,4,4,0,0,0,4-4V15a4,4,0,0,1,1.12-2.76A7,7,0,0,0,18.06,14.5a1,1,0,0,0-.36-1.37,1,1,0,0,0-1.37.37A5,5,0,0,1,7,11.14,4.08,4.08,0,0,1,8,11H38.49l4.31,6-1.24,2-1.41-.44A4,4,0,0,0,36,19.78l-5.14,5.79A7.22,7.22,0,0,0,29,30.36V36a1,1,0,0,1-1,1h-.19a1,1,0,0,1-1-.9L26,27.9a1,1,0,0,0-.46-.74,1,1,0,0,0-.87-.11,21,21,0,0,1-6.35.95A7,7,0,0,1,28.5,23.94a1,1,0,0,0,1-1.73,9,9,0,0,0-13.22,5.54c0,.07,0,.13,0,.2a18.9,18.9,0,0,1-5-.9,1,1,0,0,0-.66,1.9c.41.14.85.26,1.3.37A4,4,0,0,1,8.51,33L9,28.1a1,1,0,1,0-2-.2L6.19,36A1.1,1.1,0,0,1,4,35.9V24a1,1,0,0,0-2,0V35.9a3.1,3.1,0,0,0,6.18.31L8.31,35A6,6,0,0,0,14,29.71a27.23,27.23,0,0,0,10.18-.41l.69,7a3,3,0,0,0,3,2.7H28a3,3,0,0,0,3-3V30.36a5.24,5.24,0,0,1,1.31-3.46l5.15-5.79a2,2,0,0,1,2.09-.58l2.15.67a1,1,0,0,0,1.15-.43l2-3.25A1,1,0,0,0,44.81,16.42Z"/></g></svg>