<svg xmlns="http://www.w3.org/2000/svg" viewBox="0 0 44 44"><defs><style>.cls-1{fill:#fff;}</style></defs><title>cws-icon-message</title><g id="message"><path class="cls-1" d="M14,13H30a1,1,0,0,0,0-2H14a1,1,0,0,0,0,2Z"/><path class="cls-1" d="M14,18H24a1,1,0,0,0,0-2H14a1,1,0,0,0,0,2Z"/><path class="cls-1" d="M14,23H28a1,1,0,0,0,0-2H14a1,1,0,0,0,0,2Z"/><path class="cls-1" d="M41,3H3A3,3,0,0,0,0,6V28a3,3,0,0,0,3,3H7a1,1,0,0,0,0-2H3a1,1,0,0,1-1-1V6A1,1,0,0,1,3,5H41a1,1,0,0,1,1,1V28a1,1,0,0,1-1,1H21.17a7.06,7.06,0,0,0-4.48,1.62L8,37.86V34a1,1,0,0,0-2,0v6a1,1,0,0,0,.58.91A1,1,0,0,0,7,41a1,1,0,0,0,.64-.23L18,32.16A5,5,0,0,1,21.17,31H41a3,3,0,0,0,3-3V6A3,3,0,0,0,41,3Z"/></g></svg>