<svg xmlns="http://www.w3.org/2000/svg" viewBox="0 0 44 44"><defs><style>.cls-1{fill:#fff;}</style></defs><title>cws-icon-bishop</title><g id="bishop"><path class="cls-1" d="M34.44,38.37l.13-.27a4.09,4.09,0,0,0-.76-4.71l-.61-.61a8.22,8.22,0,0,1-2.42-5.36l-.66-10.49a.88.88,0,0,1,.24-.65A.86.86,0,0,1,31,16a1,1,0,0,0,0-2H15.62l-.9-1.8a9,9,0,0,1-.91-3.13L13.1,2h2.08l.57,2.87A2.65,2.65,0,0,0,21,4.35V2h2V4.35a2.65,2.65,0,0,0,5.25.52L28.82,2H30.9l-.71,7.07a10.23,10.23,0,0,1-.32,1.65,1,1,0,1,0,1.91.56,10.52,10.52,0,0,0,.4-2L33,1.1a1,1,0,0,0-.26-.77A1,1,0,0,0,32,0H28a1,1,0,0,0-1,.8l-.74,3.68A.65.65,0,0,1,25,4.35V1a1,1,0,0,0-1-1H20a1,1,0,0,0-1,1V4.35a.65.65,0,0,1-1.28.13L17,.8A1,1,0,0,0,16,0H12a1,1,0,0,0-.74.33A1,1,0,0,0,11,1.1l.82,8.17a11.12,11.12,0,0,0,1.11,3.82l.45.91H13a1,1,0,0,0,0,2,.86.86,0,0,1,.64.28.88.88,0,0,1,.24.65l-.66,10.49a8.22,8.22,0,0,1-2.42,5.36l-.61.61a4.09,4.09,0,0,0-.76,4.71l.13.27A3,3,0,0,0,8,41v2a1,1,0,0,0,1,1H35a1,1,0,0,0,1-1V41A3,3,0,0,0,34.44,38.37ZM34,42H10V41a1,1,0,0,1,1-1H29a1,1,0,0,0,0-2H11.62l-.4-.8a2.12,2.12,0,0,1-.22-.93,2.06,2.06,0,0,1,.61-1.46l.61-.61a10.32,10.32,0,0,0,3-6.65l.65-10.49A2.72,2.72,0,0,0,15.74,16H28.26a2.72,2.72,0,0,0-.13,1.06l.65,10.49a10.32,10.32,0,0,0,3,6.65l.61.61A2.06,2.06,0,0,1,33,36.27a2.12,2.12,0,0,1-.22.93l-.67,1.35A1,1,0,0,0,33,40a1,1,0,0,1,1,1Z"/></g></svg>