<svg xmlns="http://www.w3.org/2000/svg" viewBox="0 0 44 44"><defs><style>.cls-1{fill:#fff;}</style></defs><title>cws-icon-case</title><g id="suitcase"><path class="cls-1" d="M41,8H3a3,3,0,0,0-3,3V23a3,3,0,0,0,3,3h9a1,1,0,0,0,2,0V13a1,1,0,0,0-2,0V24H3a1,1,0,0,1-1-1V11a1,1,0,0,1,1-1H41a1,1,0,0,1,1,1V23a1,1,0,0,1-1,1H35a1,1,0,0,0,0,2h6a3,3,0,0,0,3-3V11A3,3,0,0,0,41,8Z"/><path class="cls-1" d="M41,28a1,1,0,0,0-1,1V39a1,1,0,0,1-1,1H5a1,1,0,0,1-1-1V29a1,1,0,0,0-2,0V39a3,3,0,0,0,3,3H39a3,3,0,0,0,3-3V29A1,1,0,0,0,41,28Z"/><path class="cls-1" d="M15,7a1,1,0,0,0,1-1V5a1,1,0,0,1,1-1H27a1,1,0,0,1,1,1V6a1,1,0,0,0,2,0V5a3,3,0,0,0-3-3H17a3,3,0,0,0-3,3V6A1,1,0,0,0,15,7Z"/><path class="cls-1" d="M16,29a1,1,0,0,0-2,0,1,1,0,0,1-2,0,1,1,0,0,0-2,0,3,3,0,0,0,6,0Z"/><path class="cls-1" d="M31,12a1,1,0,0,0-1,1V24H17a1,1,0,0,0,0,2H30a1,1,0,0,0,2,0V13A1,1,0,0,0,31,12Z"/><path class="cls-1" d="M31,30a1,1,0,0,1-1-1,1,1,0,0,0-2,0,3,3,0,0,0,6,0,1,1,0,0,0-2,0A1,1,0,0,1,31,30Z"/></g></svg>