<svg xmlns="http://www.w3.org/2000/svg" viewBox="0 0 44 44"><defs><style>.cls-1{fill:#fffafc;}</style></defs><g id="hailstones"><path class="cls-1" d="M16.59,7a6.27,6.27,0,0,0-6,4.74A1,1,0,0,0,11.33,13a1.09,1.09,0,0,0,.26,0,1,1,0,0,0,1-.74,4.26,4.26,0,0,1,4-3.26,1,1,0,0,0,0-2Z"/><path class="cls-1" d="M39,17a8,8,0,0,0-6.86-7.92,1,1,0,1,0-.28,2,6,6,0,0,1,1.71,11.36,1,1,0,0,0-.48,1.34,1,1,0,0,0,.91.57,1,1,0,0,0,.43-.1A8.06,8.06,0,0,0,39,17Z"/><path class="cls-1" d="M18,3A12,12,0,0,0,6.45,11.73,1,1,0,0,0,7.14,13a1,1,0,0,0,1.24-.69A10,10,0,0,1,28,15a1,1,0,0,0,2,0A12,12,0,0,0,18,3Z"/><circle class="cls-1" cx="19" cy="28" r="1"/><circle class="cls-1" cx="13" cy="28" r="1"/><circle class="cls-1" cx="25" cy="28" r="1"/><circle class="cls-1" cx="16.28" cy="32" r="1"/><circle class="cls-1" cx="22.28" cy="32" r="1"/><circle class="cls-1" cx="28.28" cy="32" r="1"/><circle class="cls-1" cx="16.28" cy="40" r="1"/><circle class="cls-1" cx="22.28" cy="40" r="1"/><circle class="cls-1" cx="28.28" cy="40" r="1"/><circle class="cls-1" cx="31" cy="28" r="1"/><circle class="cls-1" cx="19" cy="36" r="1"/><circle class="cls-1" cx="13" cy="36" r="1"/><circle class="cls-1" cx="25" cy="36" r="1"/><circle class="cls-1" cx="31" cy="36" r="1"/><path class="cls-1" d="M8,15A8,8,0,0,0,8,31H9a1,1,0,0,0,0-2H8a6,6,0,1,1,4.92-9.43,1,1,0,0,0,1.65-1.14A8,8,0,0,0,8,15Z"/><path class="cls-1" d="M41.6,20.2a1,1,0,0,0-1.2,1.6A4,4,0,0,1,42,25a4,4,0,0,1-4,4H35a1,1,0,0,0,0,2h3a6,6,0,0,0,6-6A5.94,5.94,0,0,0,41.6,20.2Z"/></g></svg>