<svg id="Livello_1" data-name="Livello 1" xmlns="http://www.w3.org/2000/svg" viewBox="0 0 150 57"><defs><style>.cls-1{fill:#fff;}</style></defs><title>cws-logo-partner-ptc copia</title><path class="cls-1" d="M146.66,21.85c.09.24.07.54.34.68v.17a38.4,38.4,0,0,1-4.29.09c-.41,0-.42-.38-.54-.62a7.76,7.76,0,0,0-5.44-4.48c-4.68-1-9.08.75-11.12,5.18A11,11,0,0,0,127,35a9.33,9.33,0,0,0,7.47,3.28,8,8,0,0,0,6.18-2.54,7.13,7.13,0,0,0,1.52-2.27.81.81,0,0,1,.93-.56c1.29,0,2.59,0,3.89,0v.33c-.26.07-.23.33-.3.52-2,5-5.82,7.67-11.14,8.26a14.39,14.39,0,0,1-6.7-.76,12.31,12.31,0,0,1-7.21-6.84,15.47,15.47,0,0,1,.26-13.63c2.37-4.69,6.36-7,11.64-7.16A14.49,14.49,0,0,1,140.4,15,12.48,12.48,0,0,1,146.66,21.85Z"/><path class="cls-1" d="M117.4,17.18c0,.47-.16.6-.61.59-1.68,0-3.36,0-5,0-.74,0-.74,0-.75.76v22.4c0,.75,0,.76-.73.76-1,0-2,0-2.92,0-.44,0-.59-.15-.54-.56a5.42,5.42,0,0,0,0-.57q0-10.91,0-21.83c0-1.08.14-1-1-1-1.35,0-2.7,0-4.06,0-.41,0-.58-.1-.57-.55,0-.86,0-1.73,0-2.59,0-.44.15-.55.56-.55,1.49,0,3,0,4.47,0,.51,0,.64-.13.63-.63,0-2.87,0-5.73,0-8.6,0-.51.11-.72.66-.69,1,.05,2,0,2.92,0,.53,0,.64.16.64.65,0,2.84,0,5.68,0,8.52,0,.84,0,.74.75.74,1.68,0,3.36,0,5,0,.44,0,.63.11.61.59C117.36,15.5,117.36,16.34,117.4,17.18Z"/><path class="cls-1" d="M98,25.1a15.54,15.54,0,0,1-1,9.13c-2.13,4.6-5.65,7.34-10.8,7.81a12.8,12.8,0,0,1-7.11-1.15,10.56,10.56,0,0,1-3.64-3c-.1-.13-.16-.35-.35-.29S75,37.85,75,38V51.55c0,.19,0,.38,0,.56,0,.34-.08.49-.45.48-1.08,0-2.17,0-3.25,0-.41,0-.53-.16-.5-.53a3.85,3.85,0,0,0,0-.48V15.06a2.81,2.81,0,0,0,0-.41c0-.4.09-.58.54-.57,1,0,2.11,0,3.17,0,.4,0,.51.14.5.52,0,1.19,0,2.38,0,3.76a14.25,14.25,0,0,1,2.44-2.51A11.51,11.51,0,0,1,84,13.64a12.79,12.79,0,0,1,8.06,2A13.51,13.51,0,0,1,98,25.1Zm-4,2.64a19.65,19.65,0,0,0-.19-2.26,9.49,9.49,0,0,0-9-8,9.07,9.07,0,0,0-9.61,6.81A13.4,13.4,0,0,0,75,30.19c.62,3.73,3.19,7.44,7.76,8a9.39,9.39,0,0,0,8.7-2.93A10.75,10.75,0,0,0,94.05,27.74Z"/><path class="cls-1" d="M50.33,29.91c.28.15.11.59.11.9,0,3.62,0,7.24,0,10.87a1,1,0,0,1-.53,1q-11.74,6.72-23.47,13.5a1,1,0,0,1-1.17,0Q13.76,49.47,2.17,42.83a1.44,1.44,0,0,1-.87-1.5c.06-1.78,0-3.56,0-5.35s0-3.79,0-5.68a.85.85,0,0,1,.51-.88Q7.43,26.17,13,22.87a.89.89,0,0,1,1,0L35,35c.52.3.52.32,0,.63-2.87,1.66-5.76,3.31-8.63,5a.87.87,0,0,1-1,0c-3.27-1.9-6.57-3.77-9.83-5.67a1.11,1.11,0,0,0-1.39,0,13.72,13.72,0,0,1-1.54.89c-.38.2-.42.31,0,.53,1.46.82,2.91,1.67,4.37,2.5,2.78,1.6,5.58,3.18,8.37,4.8a.93.93,0,0,0,1.09,0Q38,37,49.49,30.29C49.77,30.13,50.07,29.77,50.33,29.91ZM47.78,41.47a.93.93,0,0,0,.6-.92c0-2.19,0-4.38,0-6.57,0-.6,0-.61-.56-.3l-5.13,3q-8,4.66-16,9.34a1.19,1.19,0,0,1-1.45,0c-1-.63-2-1.14-2.94-1.7L8.67,36.53c-.7-.4-.7-.42,0-.82,1.85-1.07,3.7-2.12,5.54-3.22a1.05,1.05,0,0,1,1.23,0c3.3,1.92,6.61,3.8,9.9,5.72a.93.93,0,0,0,1.1,0c1.44-.85,2.9-1.67,4.35-2.52.58-.33.58-.35,0-.67q-8.38-4.84-16.77-9.71a.9.9,0,0,0-1,0Q8.48,28,3.92,30.61a.86.86,0,0,0-.52.88c0,1.52,0,3,0,4.55s0,2.92,0,4.38A1,1,0,0,0,4,41.48q10.68,6.14,21.36,12.29a.87.87,0,0,0,1,0c2.74-1.6,5.48-3.17,8.22-4.74Q41.2,45.24,47.78,41.47Z"/><path class="cls-1" d="M2.05,26.18c-.2.12-.44.4-.63.29s-.1-.48-.1-.73c0-3.68,0-7.36,0-11a1,1,0,0,1,.58-1Q13.61,7,25.28.2a1.1,1.1,0,0,1,1.25,0Q38.18,7,49.86,13.66a1.06,1.06,0,0,1,.6,1.08c0,1.87,0,3.74,0,5.6s0,3.79,0,5.68a.9.9,0,0,1-.51.9q-5.62,3.25-11.2,6.55a.87.87,0,0,1-1,0q-10.41-6-20.84-12.06l-.43-.25c-.14-.09-.15-.19,0-.28l.28-.16q4.27-2.46,8.56-4.95a1,1,0,0,1,1.18,0c3.26,1.9,6.55,3.77,9.82,5.67a1,1,0,0,0,1.24,0,14.39,14.39,0,0,1,1.61-.94c.41-.21.39-.33,0-.55-1.42-.79-2.82-1.61-4.22-2.41-2.8-1.6-5.59-3.19-8.37-4.81a1.14,1.14,0,0,0-1.33,0Q13.67,19.45,2.05,26.18Z"/></svg>