<svg xmlns="http://www.w3.org/2000/svg" viewBox="0 0 44 44"><defs><style>.cls-1{fill:#fff;}</style></defs><title>cws-icon-atm-2</title><g id="ATM_1"><circle class="cls-1" cx="10" cy="10" r="1"/><circle class="cls-1" cx="6" cy="10" r="1"/><path class="cls-1" d="M34,17a1,1,0,0,0-1,1V36a1,1,0,0,1-1,1H12a1,1,0,0,1-1-1V18a1,1,0,0,0-2,0V36a3,3,0,0,0,3,3H32a3,3,0,0,0,3-3V18A1,1,0,0,0,34,17Z"/><path class="cls-1" d="M41,5H3A3,3,0,0,0,0,8V18a3,3,0,0,0,3,3H6a1,1,0,0,0,0-2H3a1,1,0,0,1-1-1V8A1,1,0,0,1,3,7H41a1,1,0,0,1,1,1V18a1,1,0,0,1-1,1H38a1,1,0,0,0,0,2h3a3,3,0,0,0,3-3V8A3,3,0,0,0,41,5Z"/><path class="cls-1" d="M37,16a1,1,0,0,0,2,0V14a1,1,0,0,0-1-1H6a1,1,0,0,0-1,1v2a1,1,0,0,0,2,0V15H37Z"/><path class="cls-1" d="M14,19a1,1,0,0,0-1,1V32a1,1,0,0,0,1,1,1,1,0,0,1,1,1,1,1,0,0,0,1,1H28a1,1,0,0,0,1-1,1,1,0,0,1,1-1,1,1,0,0,0,1-1V20a1,1,0,0,0-2,0V31.18A3,3,0,0,0,27.18,33H16.82A3,3,0,0,0,15,31.18V20A1,1,0,0,0,14,19Z"/><path class="cls-1" d="M22,24a6,6,0,0,0,6-6,1,1,0,0,0-2,0,4,4,0,0,1-8,0,1,1,0,0,0-2,0A6,6,0,0,0,22,24Z"/></g></svg>