<svg xmlns="http://www.w3.org/2000/svg" viewBox="0 0 44 44"><defs><style>.cls-1{fill:#fff;}</style></defs><title>cws-icon-presentation</title><g id="presentation_graph"><path class="cls-1" d="M11,22a2,2,0,1,0,2,2,1.64,1.64,0,0,0,0-.23l5.23-3.93A2.1,2.1,0,0,0,19,20a2,2,0,0,0,1.26-.46L25,21.33A2,2,0,0,0,29,21a2.08,2.08,0,0,0-.12-.66L32.63,16A1.5,1.5,0,0,0,33,16a2,2,0,1,0-2-2,2.08,2.08,0,0,0,.12.66L27.37,19A1.5,1.5,0,0,0,27,19a2,2,0,0,0-1.26.46L21,17.67A2,2,0,0,0,17,18a1.64,1.64,0,0,0,0,.23l-5.23,3.93A2.1,2.1,0,0,0,11,22Z"/><path class="cls-1" d="M40,2H23V1a1,1,0,0,0-2,0V2H4A3,3,0,0,0,4,8H36a1,1,0,0,0,0-2H4A1,1,0,0,1,4,4H40a1,1,0,0,1,0,2,1,1,0,0,0-1,1V29a1,1,0,0,1-1,1H6a1,1,0,0,1-1-1V11a1,1,0,0,0-2,0V29a3,3,0,0,0,3,3H21v7.13a4,4,0,0,0-2.17,1.43A3.38,3.38,0,0,1,16.17,42H16a1,1,0,0,0,0,2h.17a5.43,5.43,0,0,0,4.25-2.22,2.05,2.05,0,0,1,3.16,0A5.43,5.43,0,0,0,27.83,44H28a1,1,0,0,0,0-2h-.17a3.38,3.38,0,0,1-2.66-1.44A4,4,0,0,0,23,39.13V32H38a3,3,0,0,0,3-3V7.83A3,3,0,0,0,40,2Z"/></g></svg>