<svg id="web_settings" xmlns="http://www.w3.org/2000/svg" viewBox="0 0 44 44"><defs><style>.cls-1{fill:#fff;}</style></defs><title>cws-icon-web-settings</title><path class="cls-1" d="M43,12a1,1,0,0,0-1,1V35a1,1,0,0,1-1,1H37a1,1,0,0,0,0,2h4a3,3,0,0,0,3-3V13A1,1,0,0,0,43,12Z"/><path class="cls-1" d="M41,0H3A3,3,0,0,0,0,3V35a3,3,0,0,0,3,3H7a1,1,0,0,0,0-2H3a1,1,0,0,1-1-1V3A1,1,0,0,1,3,2H41a1,1,0,0,1,1,1V8H5a1,1,0,0,0,0,2H43a1,1,0,0,0,1-1V3A3,3,0,0,0,41,0Z"/><circle class="cls-1" cx="5" cy="5" r="1"/><circle class="cls-1" cx="9" cy="5" r="1"/><circle class="cls-1" cx="13" cy="5" r="1"/><path class="cls-1" d="M22,20a8,8,0,1,0,8,8A8,8,0,0,0,22,20Zm0,14a6,6,0,1,1,6-6A6,6,0,0,1,22,34Z"/><path class="cls-1" d="M38,28a3.56,3.56,0,0,0-2.71-3.46,1.55,1.55,0,0,1-1.08-1c-.13-.36-.28-.72-.44-1.07A1.55,1.55,0,0,1,33.85,21,3.56,3.56,0,0,0,29,16.16a1.55,1.55,0,0,1-1.45.07c-.35-.16-.71-.31-1.07-.44a1.54,1.54,0,0,1-1-1.09,3.57,3.57,0,0,0-6.92,0,1.55,1.55,0,0,1-1,1.08c-.36.13-.72.28-1.07.44A1.55,1.55,0,0,1,15,16.15a3.56,3.56,0,0,0-4.88,4.9,1.55,1.55,0,0,1,.07,1.45c-.16.35-.31.71-.44,1.07a1.54,1.54,0,0,1-1.09,1,3.57,3.57,0,0,0,0,6.92,1.55,1.55,0,0,1,1.08,1c.13.36.28.72.44,1.07A1.55,1.55,0,0,1,10.15,35a3.56,3.56,0,0,0,4.9,4.88,1.55,1.55,0,0,1,1.45-.07c.35.16.71.31,1.07.44a1.54,1.54,0,0,1,1,1.09,3.57,3.57,0,0,0,6.92,0,1.55,1.55,0,0,1,1-1.08c.36-.13.72-.28,1.07-.44a1.55,1.55,0,0,1,1.46.08A3.56,3.56,0,0,0,33.84,35a1.55,1.55,0,0,1-.07-1.45c.16-.35.31-.71.44-1.07a1.54,1.54,0,0,1,1.09-1A3.56,3.56,0,0,0,38,28Zm-3.2,1.52a3.55,3.55,0,0,0-2.47,2.23c-.11.3-.24.61-.37.9A3.54,3.54,0,0,0,32.13,36,1.56,1.56,0,0,1,30,38.13,3.54,3.54,0,0,0,26.65,38c-.29.13-.6.26-.9.37a3.58,3.58,0,0,0-2.24,2.49A1.55,1.55,0,0,1,22,42a1.57,1.57,0,0,1-1.52-1.2,3.55,3.55,0,0,0-2.23-2.47c-.3-.11-.61-.24-.9-.37a3.46,3.46,0,0,0-1.5-.34,3.57,3.57,0,0,0-1.84.51A1.56,1.56,0,0,1,11.87,36,3.51,3.51,0,0,0,12,32.65c-.13-.29-.26-.6-.37-.9a3.58,3.58,0,0,0-2.49-2.24A1.55,1.55,0,0,1,8,28a1.57,1.57,0,0,1,1.2-1.52,3.55,3.55,0,0,0,2.47-2.23c.11-.3.24-.61.37-.9A3.54,3.54,0,0,0,11.87,20,1.56,1.56,0,0,1,14,17.87a3.51,3.51,0,0,0,3.33.17c.29-.13.6-.26.9-.37a3.58,3.58,0,0,0,2.24-2.49A1.55,1.55,0,0,1,22,14a1.57,1.57,0,0,1,1.52,1.2,3.55,3.55,0,0,0,2.23,2.47c.3.11.61.24.9.37A3.56,3.56,0,0,0,30,17.87,1.56,1.56,0,0,1,32.13,20,3.51,3.51,0,0,0,32,23.35c.13.29.26.6.37.9a3.58,3.58,0,0,0,2.49,2.24A1.55,1.55,0,0,1,36,28,1.57,1.57,0,0,1,34.8,29.52Z"/><circle class="cls-1" cx="22" cy="28" r="2"/></svg>