<svg xmlns="http://www.w3.org/2000/svg" viewBox="0 0 44 44"><defs><style>.cls-1{fill:#fff;}</style></defs><g id="watering"><path class="cls-1" d="M43.83,17.45l-2-3a1,1,0,0,0-1.31-.33l-7.33,4a1,1,0,0,0-.4,1.36,1,1,0,0,0,1.36.4l6.53-3.56,1.07,1.6L30.09,31.34a1,1,0,0,0-.24.74l.15,2a.93.93,0,0,1-.26.65,1,1,0,0,1-.67.28H8.93A.93.93,0,0,1,8,34.12s0-.07,0-.11L9.23,18.08a1,1,0,1,0-2-.16L6,33.81a1.14,1.14,0,0,0,0,.26A2.93,2.93,0,0,0,8.93,37H29.07a3.06,3.06,0,0,0,2.09-.86A3,3,0,0,0,32,34.07a1.14,1.14,0,0,0,0-.26l-.11-1.47L43.75,18.66A1,1,0,0,0,43.83,17.45Z"/><path class="cls-1" d="M4,29H3a1,1,0,0,1-1-1V16a1,1,0,0,1,1-1H8.54a1,1,0,0,0,1-.92L9.93,9H28.07l1.39,18.08a1,1,0,0,0,1.08.92,1,1,0,0,0,.92-1.08L30.08,9A1,1,0,0,0,31,8a1,1,0,0,0-1-1H8A1,1,0,0,0,7,8a1,1,0,0,0,.92,1l-.31,4H3a3,3,0,0,0-3,3V28a3,3,0,0,0,3,3H4a1,1,0,0,0,0-2Z"/><path class="cls-1" d="M15,23a4,4,0,1,0,4-4A4,4,0,0,0,15,23Zm6,0a2,2,0,1,1-2-2A2,2,0,0,1,21,23Z"/><path class="cls-1" d="M26,12a1,1,0,0,0-1-1H13a1,1,0,0,0,0,2H25A1,1,0,0,0,26,12Z"/></g></svg>