<svg xmlns="http://www.w3.org/2000/svg" viewBox="0 0 44 44"><defs><style>.cls-1{fill:#fff;}</style></defs><title>cws-icon-invoice</title><g id="invoice"><path class="cls-1" d="M37,0H19a1,1,0,0,0,0,2H37a2,2,0,0,1,2,2V41.13l-1.45-1a1,1,0,0,0-1.1,0L34,41.8l-2.45-1.63a1,1,0,0,0-1.1,0L28,41.8l-2.45-1.63a1,1,0,0,0-1.1,0L22,41.8l-2.45-1.63a1,1,0,0,0-1.1,0l-1.45,1V4A4,4,0,0,0,9,4V22a2,2,0,0,1-4,0V14H6a1,1,0,0,0,0-2H4a1,1,0,0,0-1,1v9a4,4,0,0,0,4,4h5a1,1,0,0,0,0-2H10.44A3.91,3.91,0,0,0,11,22V4a2,2,0,0,1,4,0V43a1,1,0,0,0,.53.88,1,1,0,0,0,1-.05L19,42.2l2.45,1.63a1,1,0,0,0,1.1,0L25,42.2l2.45,1.63a1,1,0,0,0,1.1,0L31,42.2l2.45,1.63a1,1,0,0,0,1.1,0L37,42.2l2.45,1.63A1,1,0,0,0,41,43V4A4,4,0,0,0,37,0Z"/><circle class="cls-1" cx="20" cy="19" r="1"/><path class="cls-1" d="M35,7H21a1,1,0,0,0,0,2H35a1,1,0,0,0,0-2Z"/><path class="cls-1" d="M31,13a1,1,0,0,0,0-2H25a1,1,0,0,0,0,2Z"/><path class="cls-1" d="M23,19a1,1,0,0,0,1,1h8a1,1,0,0,0,0-2H24A1,1,0,0,0,23,19Z"/><circle class="cls-1" cx="20" cy="35" r="1"/><path class="cls-1" d="M24,34a1,1,0,0,0,0,2h8a1,1,0,0,0,0-2Z"/><circle class="cls-1" cx="20" cy="23" r="1"/><path class="cls-1" d="M24,24H34a1,1,0,0,0,0-2H24a1,1,0,0,0,0,2Z"/><circle class="cls-1" cx="20" cy="27" r="1"/><path class="cls-1" d="M24,28h6a1,1,0,0,0,0-2H24a1,1,0,0,0,0,2Z"/><circle class="cls-1" cx="20" cy="31" r="1"/><path class="cls-1" d="M37,31a1,1,0,0,0-1-1H24a1,1,0,0,0,0,2H36A1,1,0,0,0,37,31Z"/></g></svg>