<svg xmlns="http://www.w3.org/2000/svg" viewBox="0 0 44 44"><defs><style>.cls-1{fill:#fff;}</style></defs><title>cws-icon-school</title><g id="school"><path class="cls-1" d="M42,18H36a1,1,0,0,0,0,2h5V38H27V33a5,5,0,0,0-10,0v5H3V20H8a1,1,0,0,0,0-2H2a1,1,0,0,0-1,1V39a1,1,0,0,0,1,1H42a1,1,0,0,0,1-1V19A1,1,0,0,0,42,18ZM19,33a3,3,0,0,1,6,0v5H19Z"/><path class="cls-1" d="M11,16V35a1,1,0,0,0,2,0V16a1,1,0,0,0-2,0Z"/><path class="cls-1" d="M31,16V35a1,1,0,0,0,2,0V16a1,1,0,0,0-2,0Z"/><path class="cls-1" d="M10.32,14,22,10.05,33.68,14A1.25,1.25,0,0,0,34,14a1,1,0,0,0,1-.68,1,1,0,0,0-.63-1.27L23,8.28V2h3.38l-.27.55a1,1,0,0,0,0,.9l.27.55H25a1,1,0,0,0,0,2h3a1,1,0,0,0,.89-1.45L28.12,3l.77-1.55A1,1,0,0,0,28,0H22a1,1,0,0,0-1,1V8.28L9.68,12.05a1,1,0,0,0,.64,1.9Z"/><path class="cls-1" d="M18,17a1,1,0,0,0-2,0v2a1,1,0,0,0,2,0Z"/><path class="cls-1" d="M23,17a1,1,0,0,0-2,0v2a1,1,0,0,0,2,0Z"/><path class="cls-1" d="M28,17a1,1,0,0,0-2,0v2a1,1,0,0,0,2,0Z"/><path class="cls-1" d="M17,23a1,1,0,0,0-1,1v2a1,1,0,0,0,2,0V24A1,1,0,0,0,17,23Z"/><path class="cls-1" d="M22,23a1,1,0,0,0-1,1v2a1,1,0,0,0,2,0V24A1,1,0,0,0,22,23Z"/><path class="cls-1" d="M27,23a1,1,0,0,0-1,1v2a1,1,0,0,0,2,0V24A1,1,0,0,0,27,23Z"/><path class="cls-1" d="M37,27a1,1,0,0,0,1-1V24a1,1,0,0,0-2,0v2A1,1,0,0,0,37,27Z"/><path class="cls-1" d="M8,24a1,1,0,0,0-2,0v2a1,1,0,0,0,2,0Z"/><path class="cls-1" d="M36,34a1,1,0,0,0,2,0V32a1,1,0,0,0-2,0Z"/><path class="cls-1" d="M7,31a1,1,0,0,0-1,1v2a1,1,0,0,0,2,0V32A1,1,0,0,0,7,31Z"/><path class="cls-1" d="M38,42H6a1,1,0,0,0,0,2H38a1,1,0,0,0,0-2Z"/></g></svg>