<svg xmlns="http://www.w3.org/2000/svg" viewBox="0 0 44 44"><defs><style>.cls-1{fill:#fff;}</style></defs><title>cws-icon-floor-plan</title><g id="floor_plan"><circle class="cls-1" cx="22" cy="21" r="1"/><path class="cls-1" d="M13,23h1V33a1,1,0,0,0,1,1H29a1,1,0,0,0,1-1V23h1a1,1,0,0,0,.94-.67,1,1,0,0,0-.32-1.11l-8.76-7a1,1,0,0,0-1.23,0l-9.23,7A1,1,0,0,0,13,23Zm7,9V26h4v6Zm2.22-15.73L28.4,21.2a1,1,0,0,0-.4.8V32H26V25a1,1,0,0,0-1-1H19a1,1,0,0,0-1,1v7H16V22a1,1,0,0,0-.35-.76Z"/><path class="cls-1" d="M13,9H31a1,1,0,0,0,0-2H13a1,1,0,0,0,0,2Z"/><path class="cls-1" d="M43,31a1,1,0,0,0,1-1V8A5,5,0,0,0,34,8V36a1,1,0,0,0,2,0,3,3,0,1,1,3,3H5a3,3,0,1,1,3-3,1,1,0,0,0,2,0V8A5,5,0,0,0,0,8V30a1,1,0,0,0,2,0V8A3,3,0,0,1,8,8V32a5,5,0,1,0-3,9H39a5,5,0,1,0-3-9V8a3,3,0,0,1,6,0V30A1,1,0,0,0,43,31Z"/></g></svg>