<svg xmlns="http://www.w3.org/2000/svg" viewBox="0 0 44 44"><defs><style>.cls-1{fill:#fff;}</style></defs><title>cws-icon-door</title><g id="door"><circle class="cls-1" cx="30" cy="25" r="1"/><path class="cls-1" d="M42,42H11V3a1,1,0,0,1,1-1H32a1,1,0,0,1,1,1V39a1,1,0,0,0,2,0V3a3,3,0,0,0-3-3H12A3,3,0,0,0,9,3V42H2a1,1,0,0,0,0,2H42a1,1,0,0,0,0-2Z"/><path class="cls-1" d="M28,19H26a1,1,0,0,0,0,2h2a1,1,0,0,1,1,1,1,1,0,0,0,2,0A3,3,0,0,0,28,19Z"/><path class="cls-1" d="M31,9a1,1,0,0,0-1-1H14a1,1,0,0,0-1,1V35a1,1,0,0,0,1,1H30a1,1,0,0,0,1-1V28a1,1,0,0,0-2,0v6H15V10H29v7a1,1,0,0,0,2,0Z"/><path class="cls-1" d="M2,40H6a1,1,0,0,0,0-2H2a1,1,0,0,0,0,2Z"/><path class="cls-1" d="M38,40h4a1,1,0,0,0,0-2H38a1,1,0,0,0,0,2Z"/><path class="cls-1" d="M30,4H14a1,1,0,0,0,0,2H30a1,1,0,0,0,0-2Z"/><path class="cls-1" d="M30,38H14a1,1,0,0,0,0,2H30a1,1,0,0,0,0-2Z"/></g></svg>