<svg xmlns="http://www.w3.org/2000/svg" viewBox="0 0 44 44"><defs><style>.cls-1{fill:#fff;}</style></defs><g id="well"><path class="cls-1" d="M34,32V20a1,1,0,0,0-2,0V32H11a1,1,0,0,0,0,2H34a1,1,0,0,1,1,1v6a1,1,0,0,1-1,1H6a1,1,0,0,1-1-1V35a1,1,0,0,1,1-1H7a1,1,0,0,0,1-1V20a1,1,0,0,0-2,0V32a3,3,0,0,0-3,3v6a3,3,0,0,0,3,3H34a3,3,0,0,0,3-3V35A3,3,0,0,0,34,32Z"/><path class="cls-1" d="M42,18H39V16a1,1,0,0,0-1-1H34V10h2.28A2.72,2.72,0,0,0,39,7.28a2.82,2.82,0,0,0-.14-.86L37.4,2.05a3,3,0,0,0-2.84-2H5.44A3,3,0,0,0,2.6,2.05L1.14,6.42A2.82,2.82,0,0,0,1,7.28,2.72,2.72,0,0,0,3.72,10H6v5H5a1,1,0,0,0,0,2h5v2a1,1,0,0,0,1,1H24v4H21a1,1,0,0,0-1,1v4a1,1,0,0,0,2,0V26h6v3a1,1,0,0,0,2,0V25a1,1,0,0,0-1-1H26V20h3a1,1,0,0,0,1-1V17h7v2a1,1,0,0,0,1,1h4a1,1,0,0,0,0-2ZM12,14h4.61l-1.33,4H12Zm5.39,4,1.33-4h1.89l-1.33,4Zm4,0,1.33-4H24v4ZM28,18H26V14h2Zm1-6H11a1,1,0,0,0-1,1v2H8V10H29a1,1,0,0,0,0-2H3.72A.72.72,0,0,1,3,7.28a.59.59,0,0,1,0-.23L4.49,2.68a1,1,0,0,1,1-.68H34.56a1,1,0,0,1,.95.68L37,7.05a.59.59,0,0,1,0,.23.72.72,0,0,1-.72.72H33a1,1,0,0,0-1,1v6H30V13A1,1,0,0,0,29,12Z"/><path class="cls-1" d="M7,37a1,1,0,0,0,1,1H32a1,1,0,0,0,0-2H8A1,1,0,0,0,7,37Z"/></g></svg>