<svg xmlns="http://www.w3.org/2000/svg" viewBox="0 0 44 44"><defs><style>.cls-1{fill:#fff;}</style></defs><title>cws-icon-globe-location</title><g id="globe_location"><circle class="cls-1" cx="22" cy="7" r="2"/><path class="cls-1" d="M30.53,14.46a1,1,0,1,0-1.06,1.7,14,14,0,0,1,4,3.84H26a1,1,0,0,0,0,2h8.66A14,14,0,0,1,36,27H30.47c0-.71-.06-1.41-.13-2.1a1,1,0,0,0-1.09-.9,1,1,0,0,0-.9,1.1c.07.63.1,1.26.12,1.9H26a1,1,0,0,0,0,2h2.47a26.79,26.79,0,0,1-.63,5H23V21.3c1-1.51,6-9.47,6-14.3A7,7,0,0,0,15,7c0,4.83,5,12.78,6,14.3V27H15.54a26.49,26.49,0,0,1,.63-5H18a1,1,0,0,0,0-2H16.73c.07-.21.13-.44.21-.65a1,1,0,1,0-1.88-.7c-.16.43-.29.89-.43,1.35H10.51a14,14,0,0,1,4-3.84,1,1,0,1,0-1.06-1.7A16,16,0,0,0,22,44h0a16,16,0,0,0,8.53-29.54ZM27.29,36c-1,3-2.54,5.2-4.29,5.81V36ZM16.71,36H21v5.81C19.25,41.2,17.71,39,16.71,36ZM22,2a5,5,0,0,1,5,5c0,3.55-3.39,9.5-5,12.13C20.39,16.5,17,10.55,17,7A5,5,0,0,1,22,2ZM21,34H16.16a26.77,26.77,0,0,1-.64-5H21ZM14.13,22a27.7,27.7,0,0,0-.59,5H11a1,1,0,0,0,0,2h2.53a28.83,28.83,0,0,0,.57,5H9.37A13.87,13.87,0,0,1,8,28a14,14,0,0,1,1.34-6Zm-3.6,14h4.08a16.13,16.13,0,0,0,2.45,5.08A14,14,0,0,1,10.53,36Zm16.41,5.08A16.35,16.35,0,0,0,29.39,36H31a1,1,0,0,0,0-2H29.9a28.83,28.83,0,0,0,.57-5H36A14,14,0,0,1,26.94,41.08Z"/></g></svg>