<svg xmlns="http://www.w3.org/2000/svg" viewBox="0 0 44 44"><defs><style>.cls-1{fill:#fff;}</style></defs><title>cws-icon-edit-doc</title><g id="edit_doc"><path class="cls-1" d="M34,30a1,1,0,0,0-1,1V41a1,1,0,0,1-1,1H4a1,1,0,0,1-1-1V3A1,1,0,0,1,4,2H24.59l5.7,5.71a1,1,0,0,0,1.42-1.42l-6-6A1.05,1.05,0,0,0,25,0H4A3,3,0,0,0,1,3V41a3,3,0,0,0,3,3H32a3,3,0,0,0,3-3V31A1,1,0,0,0,34,30Z"/><path class="cls-1" d="M42.71,17.29l-4-4a1,1,0,0,0-1.42,0L35,15.59V10a1,1,0,0,0-1-1H27a1,1,0,0,1-1-1V5a1,1,0,0,0-2,0V8a3,3,0,0,0,3,3h6v6.59l-9.71,9.7A1,1,0,0,0,23,28v4a1,1,0,0,0,1,1h4a1,1,0,0,0,.71-.29l14-14A1,1,0,0,0,42.71,17.29ZM25,31V28.41L27.59,31ZM39,19.59l-1.29-1.3a1,1,0,0,0-1.42,1.42L37.59,21,29,29.59,26.41,27l8.3-8.29h0L38,15.41,40.59,18Z"/><path class="cls-1" d="M7,33H20a1,1,0,0,0,0-2H7a1,1,0,0,0,0,2Z"/><path class="cls-1" d="M7,17H17a1,1,0,0,0,0-2H7a1,1,0,0,0,0,2Z"/><path class="cls-1" d="M22,19H15a1,1,0,0,0,0,2h7a1,1,0,0,0,0-2Z"/><path class="cls-1" d="M26,16a1,1,0,0,0-1-1H21a1,1,0,0,0,0,2h4A1,1,0,0,0,26,16Z"/><path class="cls-1" d="M7,25h9a1,1,0,0,0,0-2H7a1,1,0,0,0,0,2Z"/><path class="cls-1" d="M7,29h4a1,1,0,0,0,0-2H7a1,1,0,0,0,0,2Z"/><path class="cls-1" d="M7,21h4a1,1,0,0,0,0-2H7a1,1,0,0,0,0,2Z"/><path class="cls-1" d="M23,24a1,1,0,0,0-1-1H20a1,1,0,0,0,0,2h2A1,1,0,0,0,23,24Z"/><path class="cls-1" d="M14,28a1,1,0,0,0,1,1h4a1,1,0,0,0,0-2H15A1,1,0,0,0,14,28Z"/></g></svg>