<svg xmlns="http://www.w3.org/2000/svg" viewBox="0 0 44 44"><defs><style>.cls-1{fill:#fff;}</style></defs><g id="windmill"><circle class="cls-1" cx="22" cy="29" r="1"/><circle class="cls-1" cx="22" cy="25" r="1"/><path class="cls-1" d="M18.55,4.83l2.17-1.44a2.33,2.33,0,0,1,2.56,0l2.17,1.44A.94.94,0,0,0,26,5a1,1,0,0,0,.55-1.83L24.39,1.72a4.4,4.4,0,0,0-4.78,0L17.45,3.17a1,1,0,0,0,1.1,1.66Z"/><path class="cls-1" d="M30.76,12A1,1,0,0,0,30,13.24l1,4A1,1,0,1,0,33,16.76l-1-4A1,1,0,0,0,30.76,12Z"/><path class="cls-1" d="M12,18a1,1,0,0,0,1-.76l1-4A1,1,0,1,0,12,12.76l-1,4A1,1,0,0,0,11.76,18,1,1,0,0,0,12,18Z"/><path class="cls-1" d="M38,42H35V32a1,1,0,0,0-2,0V42H26V36a3,3,0,0,0-3-3H21a3,3,0,0,0-3,3v6H11V32a1,1,0,0,0-2,0V42H6a1,1,0,0,0,0,2H38a1,1,0,0,0,0-2ZM20,42V36a1,1,0,0,1,1-1h2a1,1,0,0,1,1,1v6Z"/><path class="cls-1" d="M7.29,26.71l3,3a1,1,0,0,0,1.42,0l7-7a3,3,0,0,0,.56-3.47l0-.06,1.49-1.5a2.92,2.92,0,0,0,2.58,0l1.49,1.5,0,.06a3,3,0,0,0,.56,3.47l7,7a1,1,0,0,0,1.42,0l3-3a1,1,0,0,0,0-1.42l-7-7a3,3,0,0,0-3.47-.56l-.06,0-1.5-1.49a2.92,2.92,0,0,0,0-2.58l1.5-1.49.06,0a3.08,3.08,0,0,0,1.35.32,3,3,0,0,0,2.12-.88l7-7a1,1,0,0,0,0-1.42l-3-3a1,1,0,0,0-1.42,0l-7,7a3,3,0,0,0-.56,3.47l0,.06-1.49,1.5a2.92,2.92,0,0,0-2.58,0l-1.49-1.5,0-.06a3,3,0,0,0-.56-3.47l-7-7a1,1,0,0,0-1.42,0l-3,3a1,1,0,0,0,0,1.42l7,7a3,3,0,0,0,2.12.88,3.08,3.08,0,0,0,1.35-.32l.06,0,1.5,1.49a2.92,2.92,0,0,0,0,2.58l-1.5,1.49-.06,0a3,3,0,0,0-3.47.56l-7,7A1,1,0,0,0,7.29,26.71Zm19.25-6.55.21-.41.41-.21a1,1,0,0,1,1.15.19L34.59,26,33,27.59l-6.27-6.28A1,1,0,0,1,26.54,20.16Zm.19-11.47L33,2.41,34.59,4l-6.28,6.27a1,1,0,0,1-1.15.19l-.41-.21-.21-.41A1,1,0,0,1,26.73,8.69ZM17.46,9.84l-.21.41-.41.21a1,1,0,0,1-1.15-.19L9.41,4,11,2.41l6.27,6.28A1,1,0,0,1,17.46,9.84ZM23,15a1,1,0,1,1-1-1A1,1,0,0,1,23,15Zm-7.31,4.73a1,1,0,0,1,1.15-.19l.41.21.21.41a1,1,0,0,1-.19,1.15L11,27.59,9.41,26Z"/></g></svg>