<svg xmlns="http://www.w3.org/2000/svg" viewBox="0 0 44 44"><defs><style>.cls-1{fill:#fff;}</style></defs><title>cws-icon-hourglass</title><g id="hourglass"><circle class="cls-1" cx="22" cy="28" r="1"/><path class="cls-1" d="M30.65,16.54A7,7,0,0,0,33,11.31V6h1a1,1,0,0,0,1-1V1a1,1,0,0,0-1-1H10A1,1,0,0,0,9,1V5a1,1,0,0,0,1,1h1v5.31a7,7,0,0,0,2.35,5.23l5.3,4.71a1,1,0,0,1,0,1.5l-5.3,4.71A7,7,0,0,0,11,32.69V38H10a1,1,0,0,0-1,1v4a1,1,0,0,0,1,1H34a1,1,0,0,0,1-1V39a1,1,0,0,0-1-1H33V32.69a7,7,0,0,0-2.35-5.23l-5.3-4.71a1,1,0,0,1,0-1.5ZM24,24.24,29.32,29A5,5,0,0,1,31,32.69V38H17a1,1,0,0,0,0,2H33v2H11V40h1a1,1,0,0,0,1-1V32.69A5,5,0,0,1,14.68,29L20,24.24a3,3,0,0,0,0-4.48L14.68,15A5,5,0,0,1,13,11.31V6H27a1,1,0,0,0,0-2H11V2H33V4H32a1,1,0,0,0-1,1v6.31A5,5,0,0,1,29.32,15L24,19.76a3,3,0,0,0,0,4.48Z"/><path class="cls-1" d="M29,13a1,1,0,0,0-1-1H16a1,1,0,0,0,0,2H28A1,1,0,0,0,29,13Z"/><path class="cls-1" d="M21.68,32.05l-6,2a1,1,0,1,0,.64,1.9L22,34.05,27.68,36A1.25,1.25,0,0,0,28,36a1,1,0,0,0,.95-.68,1,1,0,0,0-.63-1.27l-6-2A1,1,0,0,0,21.68,32.05Z"/></g></svg>