<svg xmlns="http://www.w3.org/2000/svg" viewBox="0 0 44 44"><defs><style>.cls-1{fill:#fff;}</style></defs><title>cws-icon-ruler</title><g id="ruler"><path class="cls-1" d="M33,0H27a3,3,0,0,0-3,3V33a1,1,0,0,0,.29.71L32.59,42H11a1,1,0,0,1-1-1V35a1,1,0,0,1,1-1H21a1,1,0,0,0,0-2H11a3,3,0,0,0-3,3v6a3,3,0,0,0,3,3H35a1,1,0,0,0,.92-.62,1,1,0,0,0-.21-1.09L26,32.59V3a1,1,0,0,1,1-1h6a1,1,0,0,1,1,1V4H31a1,1,0,0,0,0,2h3V8H33a1,1,0,0,0,0,2h1v2H31a1,1,0,0,0,0,2h3v2H33a1,1,0,0,0,0,2h1v2H31a1,1,0,0,0,0,2h3v2H33a1,1,0,0,0,0,2h1v2H31a1,1,0,0,0,0,2h3v8a1,1,0,0,0,2,0V3A3,3,0,0,0,33,0Z"/></g></svg>