<svg xmlns="http://www.w3.org/2000/svg" viewBox="0 0 44 44"><defs><style>.cls-1{fill:#fff;}</style></defs><title>cws-icon-bulldozer</title><g id="bulldozer"><circle class="cls-1" cx="26" cy="31" r="1"/><circle class="cls-1" cx="22" cy="31" r="1"/><circle class="cls-1" cx="18" cy="31" r="1"/><circle class="cls-1" cx="14" cy="31" r="1"/><circle class="cls-1" cx="10" cy="31" r="1"/><circle class="cls-1" cx="6" cy="31" r="1"/><path class="cls-1" d="M1.73,24A.84.84,0,0,0,2,24a1,1,0,0,0,1-.73L4.75,17h4a1,1,0,0,1,.9.55l1.45,2.9A1,1,0,0,0,12,21h5a1,1,0,0,0,1-1V10a3,3,0,0,0-3-3H9a3,3,0,0,0-3,3v2a1,1,0,0,0,2,0V10A1,1,0,0,1,9,9h6a1,1,0,0,1,1,1v9H12.62l-1.17-2.34A3,3,0,0,0,8.76,15H4a1,1,0,0,0-1,.73l-2,7A1,1,0,0,0,1.73,24Z"/><path class="cls-1" d="M44,36.25a.71.71,0,0,0,0-.2s0,0,0,0a.8.8,0,0,0,0-.15.77.77,0,0,0,0-.15l-4.1-13.14A5.06,5.06,0,0,0,35,19a1,1,0,0,0-1,1v1H30V16a1,1,0,0,0-1-1H21a1,1,0,0,0,0,2h7V27h0a1,1,0,0,0,.38.8A4,4,0,0,1,26,35H6a4,4,0,0,1,0-8H25a1,1,0,0,0,0-2H6A6,6,0,0,0,6,37H26a6,6,0,0,0,6-6,5.9,5.9,0,0,0-1.54-4H35a1,1,0,0,0,1-1V21.17a3,3,0,0,1,1.94,2L41.64,35H41a5,5,0,0,1-5-5,1,1,0,0,0-2,0,7,7,0,0,0,7,7h2a.79.79,0,0,0,.3,0l0,0a.69.69,0,0,0,.19-.1.71.71,0,0,0,.14-.1.88.88,0,0,0,.12-.15.91.91,0,0,0,.11-.16C43.92,36.37,43.93,36.31,44,36.25ZM34,23v2H30V23Z"/><path class="cls-1" d="M26,18H21a1,1,0,0,0,0,2h5a1,1,0,0,0,0-2Z"/></g></svg>