<svg xmlns="http://www.w3.org/2000/svg" viewBox="0 0 44 44"><defs><style>.cls-1{fill:#fff;}</style></defs><title>cws-icon-reward</title><g id="reward"><path class="cls-1" d="M36.4,14A3.79,3.79,0,0,0,35,8.63,1.8,1.8,0,0,1,34,7a3.77,3.77,0,0,0-4-4,1.8,1.8,0,0,1-1.66-1A3.79,3.79,0,0,0,23,.6,1.8,1.8,0,0,1,21,.6a3.79,3.79,0,0,0-5.41,1.45A1.79,1.79,0,0,1,14,3a3.77,3.77,0,0,0-4,4,1.8,1.8,0,0,1-1,1.66A3.79,3.79,0,0,0,7.6,14,1.8,1.8,0,0,1,7.6,16a3.79,3.79,0,0,0,1.45,5.41A1.8,1.8,0,0,1,10,23,3.77,3.77,0,0,0,14,27h0V43a1,1,0,0,0,.5.86,1,1,0,0,0,1,0L22,40.15l6.5,3.72A1,1,0,0,0,29,44a.9.9,0,0,0,.5-.14A1,1,0,0,0,30,43V31a1,1,0,0,0-2,0V41.28l-5-2.86V34a1,1,0,0,0-2,0v4.42l-5,2.86V28.51a3.77,3.77,0,0,0,5,.89,1.8,1.8,0,0,1,1.92,0A3.77,3.77,0,0,0,25,30a3.54,3.54,0,0,0,1-.13A3.77,3.77,0,0,0,28.37,28,1.78,1.78,0,0,1,30,27,3.77,3.77,0,0,0,34,23a1.8,1.8,0,0,1,1-1.67A3.79,3.79,0,0,0,36.4,16,1.8,1.8,0,0,1,36.4,14Zm-1.68,3a1.8,1.8,0,0,1,.22,1.43,1.75,1.75,0,0,1-.9,1.12A3.81,3.81,0,0,0,32,23.13a1.73,1.73,0,0,1-.52,1.34,1.69,1.69,0,0,1-1.34.52A3.82,3.82,0,0,0,26.59,27a1.75,1.75,0,0,1-1.12.9A1.8,1.8,0,0,1,24,27.72a3.77,3.77,0,0,0-4.08,0,1.79,1.79,0,0,1-1.43.22,1.75,1.75,0,0,1-1.12-.9A3.81,3.81,0,0,0,13.87,25,1.78,1.78,0,0,1,12,23.13a3.81,3.81,0,0,0-2-3.54,1.75,1.75,0,0,1-.9-1.12A1.8,1.8,0,0,1,9.28,17a3.77,3.77,0,0,0,0-4.08,1.8,1.8,0,0,1-.22-1.43,1.75,1.75,0,0,1,.9-1.12,3.81,3.81,0,0,0,2-3.54A1.78,1.78,0,0,1,13.87,5a3.82,3.82,0,0,0,3.54-2,1.73,1.73,0,0,1,1.12-.91A1.8,1.8,0,0,1,20,2.28a3.77,3.77,0,0,0,4.08,0,1.8,1.8,0,0,1,1.43-.22A1.73,1.73,0,0,1,26.59,3a3.8,3.8,0,0,0,3.54,2A1.78,1.78,0,0,1,32,6.87,3.8,3.8,0,0,0,34,10.41a1.75,1.75,0,0,1,.9,1.12A1.8,1.8,0,0,1,34.72,13,3.77,3.77,0,0,0,34.72,17Z"/><path class="cls-1" d="M26,14a.25.25,0,0,0-.2-.18l-2.47-.38-1.1-2.33a.24.24,0,0,0-.44,0l-1.1,2.33-2.47.38A.25.25,0,0,0,18,14a.27.27,0,0,0,.07.27l1.78,1.81-.42,2.57a.26.26,0,0,0,.1.26.22.22,0,0,0,.26,0L22,17.76,24.2,19a.27.27,0,0,0,.12,0,.24.24,0,0,0,.14-.05.26.26,0,0,0,.1-.26l-.42-2.57,1.78-1.81A.27.27,0,0,0,26,14Z"/><path class="cls-1" d="M22,5A10,10,0,0,0,12,15a1,1,0,0,0,2,0,8,8,0,1,1,.83,3.56,1,1,0,0,0-1.79.89A10,10,0,1,0,22,5Z"/></g></svg>