<svg xmlns="http://www.w3.org/2000/svg" viewBox="0 0 44 44"><defs><style>.cls-1{fill:#fff;}</style></defs><g id="corn"><circle class="cls-1" cx="22" cy="5" r="1"/><path class="cls-1" d="M13.83,17A1,1,0,0,0,15,16.17c.08-.5.18-1,.29-1.49A1,1,0,0,0,16,15a1,1,0,0,0,0-2,.94.94,0,0,0-.34.07,38.4,38.4,0,0,1,4-9.81,2.73,2.73,0,0,1,4.6,0,38.4,38.4,0,0,1,4,9.81A.94.94,0,0,0,28,13a1,1,0,0,0,0,2,1,1,0,0,0,.72-.32c.11.49.21,1,.29,1.49A1,1,0,0,0,30,17h.17A1,1,0,0,0,31,15.83,40.56,40.56,0,0,0,26,2.25a4.73,4.73,0,0,0-8.06,0,40.56,40.56,0,0,0-5,13.58A1,1,0,0,0,13.83,17Z"/><path class="cls-1" d="M34,18a13,13,0,0,0-10.56,5.42,1,1,0,0,0,1.62,1.16,11.08,11.08,0,0,1,5.17-3.91A3.91,3.91,0,0,0,30,22V34a8,8,0,0,1-7,7.94V31A13,13,0,0,0,10,18h0a1,1,0,0,0,0,2,2,2,0,0,1,2,2V34a9.94,9.94,0,0,0,5.56,9,1,1,0,0,0,1.34-.45,1,1,0,0,0-.46-1.34A8,8,0,0,1,14,34V22a3.87,3.87,0,0,0-.23-1.33A11,11,0,0,1,21,31V43a1,1,0,0,0,1,1A10,10,0,0,0,32,34V22a2,2,0,0,1,2-2,1,1,0,0,0,0-2Z"/><circle class="cls-1" cx="20" cy="8" r="1"/><circle class="cls-1" cx="24" cy="8" r="1"/><circle class="cls-1" cx="20" cy="14" r="1"/><circle class="cls-1" cx="24" cy="14" r="1"/><circle class="cls-1" cx="20" cy="20" r="1"/><circle class="cls-1" cx="24" cy="20" r="1"/><circle class="cls-1" cx="26" cy="11" r="1"/><circle class="cls-1" cx="18" cy="11" r="1"/><circle class="cls-1" cx="22" cy="11" r="1"/><circle class="cls-1" cx="26" cy="17" r="1"/><circle class="cls-1" cx="18" cy="17" r="1"/><circle class="cls-1" cx="22" cy="17" r="1"/></g></svg>