<svg xmlns="http://www.w3.org/2000/svg" viewBox="0 0 44 44"><defs><style>.cls-1{fill:#fffafc;}</style></defs><g id="thermometer"><path class="cls-1" d="M26.86,27.43l-.2-.15a1,1,0,0,0-1.32,1.51,3.28,3.28,0,0,0,.44.32,7,7,0,0,1,.88,11.11A6.88,6.88,0,0,1,21.18,42,7,7,0,0,1,18.24,29.1,3.93,3.93,0,0,0,20,25.75V4a2,2,0,0,1,4,0V24a1,1,0,0,0,1,1h4a1,1,0,0,0,0-2H26V21h1a1,1,0,0,0,0-2H26V17h3a1,1,0,0,0,0-2H26V13h1a1,1,0,0,0,0-2H26V9h3a1,1,0,0,0,0-2H26V4a4,4,0,0,0-8,0V25.75a2,2,0,0,1-.84,1.67,8.94,8.94,0,0,0-4.08,8.76A9,9,0,0,0,21,43.94,8.72,8.72,0,0,0,22,44a9,9,0,0,0,4.88-16.57Z"/><path class="cls-1" d="M22,21a1,1,0,0,0-1,1v8.1a5,5,0,1,0,2,0V22A1,1,0,0,0,22,21Zm3,14a3,3,0,1,1-3-3A3,3,0,0,1,25,35Z"/></g></svg>