<svg xmlns="http://www.w3.org/2000/svg" viewBox="0 0 44 44"><defs><style>.cls-1{fill:#fff;}</style></defs><title>cws-icon-diploma</title><g id="diploma"><path class="cls-1" d="M39,7c-2.8,0-5,3.51-5,8a12.88,12.88,0,0,0,.18,2.17,1,1,0,1,0,2-.34A10.94,10.94,0,0,1,36,15c0-3.54,1.58-6,3-6s3,2.46,3,6-1.5,5.86-2.88,6A63.45,63.45,0,0,0,24.7,19.05a12.36,12.36,0,0,1,0-8.1c2.53-.08,5-.27,7.43-.57a1,1,0,0,0-.26-2C22.91,9.56,12.22,9,5.27,7A.84.84,0,0,0,5,7c-2.8,0-5,3.51-5,8s2.2,8,5,8a.84.84,0,0,0,.27,0,52.62,52.62,0,0,1,8.83-1.58,1,1,0,1,0-.2-2,54.34,54.34,0,0,0-9,1.6C3.5,20.86,2,18.44,2,15S3.5,9.14,4.88,9a59.41,59.41,0,0,0,11.74,1.81,14.7,14.7,0,0,0,0,8.49c.07.21.14.41.22.6a3.86,3.86,0,0,0,1.14,4s0,0,0,.06v9a2,2,0,0,1-2,2,1,1,0,0,0,0,2,4,4,0,0,0,4-4V24.93a4.05,4.05,0,0,0,.7.07c.1,0,.2,0,.3,0v4a3,3,0,0,0,6,0,1,1,0,0,0-2,0,1,1,0,0,1-2,0V24.26a4,4,0,0,0,1.7-3.21,60.73,60.73,0,0,1,14,1.91A.84.84,0,0,0,39,23c2.8,0,5-3.51,5-8S41.8,7,39,7ZM22.56,11a14.62,14.62,0,0,0-.37,6.3A4.08,4.08,0,0,0,20.7,17a4,4,0,0,0-2.39.81,12.68,12.68,0,0,1,.39-6.89C20,11,21.27,11,22.56,11ZM18.7,21a2,2,0,1,1,2,2A2,2,0,0,1,18.7,21Z"/></g></svg>