<svg id="Layer_1" data-name="Layer 1" xmlns="http://www.w3.org/2000/svg" viewBox="0 0 44 44"><defs><style>.cls-1{fill:#fff;}</style></defs><title>cws-icon-wrench</title><path class="cls-1" d="M4,36a4,4,0,1,0,4-4A4,4,0,0,0,4,36Zm6,0a2,2,0,1,1-2-2A2,2,0,0,1,10,36Z"/><path class="cls-1" d="M43.51,6.11a1,1,0,0,0-.71-.65,1,1,0,0,0-.94.26L37.69,9.89l-2.87-.71-.71-2.87,4.17-4.17a1,1,0,0,0,.26-.93,1,1,0,0,0-.65-.72A8.84,8.84,0,0,0,32.6.33a9,9,0,0,0-6.42,6.89,8.86,8.86,0,0,0,.17,4.25,1,1,0,0,1-.24,1L10.66,27.93a1,1,0,0,1-1,.25A8,8,0,0,0,6,28.26a8,8,0,0,0-3.62,13.4A8,8,0,0,0,8,44a8.36,8.36,0,0,0,1.4-.12A8.07,8.07,0,0,0,15.74,38a8,8,0,0,0,.08-3.73,1,1,0,0,1,.25-1L28.71,20.71a1,1,0,0,0-1.42-1.42L14.66,31.93a3,3,0,0,0-.8,2.81,6,6,0,1,1-4.6-4.6,3,3,0,0,0,2.81-.8L27.52,13.89a3,3,0,0,0,.75-3,7,7,0,0,1,4.86-8.66A7.21,7.21,0,0,1,35.56,2L32.29,5.3a1,1,0,0,0-.26.94l1,4a1,1,0,0,0,.73.73l4,1a1,1,0,0,0,1-.26L42,8.44a7.18,7.18,0,0,1-.24,2.43,7,7,0,0,1-5.35,5,6.86,6.86,0,0,1-3.31-.13,3,3,0,0,0-3,.75,1,1,0,1,0,1.41,1.41,1,1,0,0,1,1-.24,8.85,8.85,0,0,0,4.25.17,9,9,0,0,0,6.89-6.42A8.84,8.84,0,0,0,43.51,6.11Z"/></svg>