<svg xmlns="http://www.w3.org/2000/svg" viewBox="0 0 44 44"><defs><style>.cls-1{fill:#fff;}</style></defs><title>cws-icon-network-1</title><g id="network_1"><circle class="cls-1" cx="6" cy="5" r="1"/><path class="cls-1" d="M41.62,20.08a1,1,0,0,0-.33.21,1,1,0,0,0,0,1.42,1,1,0,0,0,.33.21A.84.84,0,0,0,42,22a1,1,0,0,0,.71-1.71A1,1,0,0,0,41.62,20.08Z"/><circle class="cls-1" cx="30.05" cy="7" r="1"/><circle class="cls-1" cx="42" cy="12.92" r="1"/><circle class="cls-1" cx="34.09" cy="7" r="1"/><path class="cls-1" d="M41.45,10A.94.94,0,0,0,42,9.84a1,1,0,0,0,.36-1.36h0a1,1,0,1,0-1.72,1A1,1,0,0,0,41.45,10Z"/><path class="cls-1" d="M38.1,8h0a1,1,0,1,0-1-1A1,1,0,0,0,38.13,8Z"/><circle class="cls-1" cx="42" cy="16.96" r="1"/><path class="cls-1" d="M26,8a1,1,0,0,0,1-1,1,1,0,0,0-.08-.38,1,1,0,0,0-.21-.33,1,1,0,0,0-1.42,0,1.15,1.15,0,0,0-.21.33A1,1,0,0,0,25,7a1,1,0,0,0,1,1Z"/><path class="cls-1" d="M2.2,22l.18-.06a.76.76,0,0,0,.18-.09l.15-.12a1,1,0,0,0,0-1.42,1,1,0,0,0-1.42,0,1,1,0,0,0,0,1.42A1.05,1.05,0,0,0,2,22Z"/><path class="cls-1" d="M2,28.08a1,1,0,0,0,0,2H2a1,1,0,1,0,0-2Z"/><circle class="cls-1" cx="2" cy="25.04" r="1"/><path class="cls-1" d="M4.45,31.57a1,1,0,1,0-1,1.71,1,1,0,0,0,1-1.71Z"/><circle class="cls-1" cx="7.87" cy="33" r="1"/><circle class="cls-1" cx="15.95" cy="33" r="1"/><circle class="cls-1" cx="11.91" cy="33" r="1"/><path class="cls-1" d="M20.71,32.29a1,1,0,0,0-1.09-.21,1,1,0,0,0-.33.21,1.15,1.15,0,0,0-.21.33.94.94,0,0,0,0,.76,1,1,0,0,0,.21.33,1,1,0,0,0,1.42,0,1,1,0,0,0,.21-.33.94.94,0,0,0,0-.76A1.15,1.15,0,0,0,20.71,32.29Z"/><path class="cls-1" d="M23,9V3a3,3,0,0,0-3-3H4A3,3,0,0,0,1,3V15a3,3,0,0,0,3,3H20a3,3,0,0,0,3-3ZM3,3A1,1,0,0,1,4,2H20a1,1,0,0,1,1,1V8H3ZM21,15a1,1,0,0,1-1,1H4a1,1,0,0,1-1-1V10H21Z"/><path class="cls-1" d="M19,4H13a1,1,0,0,0,0,2h6a1,1,0,0,0,0-2Z"/><circle class="cls-1" cx="6" cy="13" r="1"/><path class="cls-1" d="M13,14h6a1,1,0,0,0,0-2H13a1,1,0,0,0,0,2Z"/><path class="cls-1" d="M40,24H26a3,3,0,0,0-3,3V37a3,3,0,0,0,3,3h6v2H30a1,1,0,0,0,0,2h6a1,1,0,0,0,0-2H34V39a1,1,0,0,0-1-1H26a1,1,0,0,1-1-1V36H41v1a1,1,0,0,1-1,1H37a1,1,0,0,0,0,2h3a3,3,0,0,0,3-3V27A3,3,0,0,0,40,24ZM25,34V27a1,1,0,0,1,1-1H40a1,1,0,0,1,1,1v7Z"/></g></svg>