<svg id="Layer_1" data-name="Layer 1" xmlns="http://www.w3.org/2000/svg" viewBox="0 0 44 44"><defs><style>.cls-1{fill:#fff;}</style></defs><title>cws-icon-pliers</title><circle class="cls-1" cx="22" cy="18" r="1"/><path class="cls-1" d="M33,25H31.92a9.58,9.58,0,0,0-2.13-4.62.21.21,0,0,1,0-.23A.24.24,0,0,1,30,20a1,1,0,0,0,1-1,4,4,0,0,0-4-4H25a2,2,0,0,1-2-2v-.18a3,3,0,0,0,0-5.64V2h1.31L27,9.18V12a1,1,0,0,0,2,0V9a1,1,0,0,0-.06-.35l-3-8A1,1,0,0,0,25,0H19a1,1,0,0,0-.94.65l-3,8A1,1,0,0,0,15,9v6.18A3,3,0,0,0,13,18v1a1,1,0,0,0,1,1,.24.24,0,0,1,.23.15.21.21,0,0,1,0,.23A9.58,9.58,0,0,0,12.08,25H11a1,1,0,0,0,0,2V40a4,4,0,0,0,8,0V27a1,1,0,0,0,0-2h-.86a4.18,4.18,0,0,1,.19-.6,1,1,0,1,0-1.83-.8,5.79,5.79,0,0,0-.42,1.4h-2a8,8,0,0,1,1.66-3.37A2.19,2.19,0,0,0,16,19.28a2.23,2.23,0,0,0-1-1.05V18a1,1,0,0,1,.27-.68A7.89,7.89,0,0,0,22,22a4,4,0,0,1,3.86,3H25a1,1,0,0,0,0,2V40a4,4,0,0,0,8,0V27a1,1,0,0,0,0-2ZM17,27V40a2,2,0,0,1-4,0V27Zm5-16a1,1,0,1,1,1-1A1,1,0,0,1,22,11Zm0,9c-2.43,0-5-2.6-5-4V9.18L19.69,2H21V7.18a3,3,0,0,0,0,5.64V13a4,4,0,0,0,4,4h2a2,2,0,0,1,1.87,1.3,2.25,2.25,0,0,0-.9,1,2.19,2.19,0,0,0,.27,2.35A8,8,0,0,1,29.9,25h-2A6,6,0,0,0,22,20Zm9,20a2,2,0,0,1-4,0V27h4Z"/></svg>