<svg xmlns="http://www.w3.org/2000/svg" viewBox="0 0 64 56"><defs><style>.cls-1{fill:#fff;}</style></defs><g id="hat"><path class="cls-1" d="M40.1,31a1,1,0,0,0-.79.22,1,1,0,0,0-.36.74v.25c0,.23,0,.46,0,.68a.54.54,0,0,0,0,.11c-.63.45-3.78,1.25-9,1.25s-8.41-.8-9-1.25a.84.84,0,0,0-.06-.14,133,133,0,0,0-1.59-16.67c2.78.89,7.45,1.06,10.68,1.06A57.15,57.15,0,0,0,38,16.69a1,1,0,1,0-.29-2,56.27,56.27,0,0,1-7.86.49,40,40,0,0,1-10.27-1,40.48,40.48,0,0,1,10.27-1c6.28,0,10,.76,11,1.26l-.12.73c-.71,4.27-1.22,8.63-1.52,13a1,1,0,0,0,.93,1.06h.07a1,1,0,0,0,1-.93c.29-4.26.79-8.55,1.49-12.75l.19-1.15a1,1,0,0,0,0-.17c0-2.61-8.14-3-13-3s-13,.39-13,3a1.49,1.49,0,0,0,0,.17l.19,1.15a132.31,132.31,0,0,1,1.79,21.68c0,.71.8,3,11,3s11-2.29,11-3c0-1.36,0-2.73.07-4.08,6.53,1.18,8.93,3.06,8.93,4.08,0,2-7.79,5-20,5s-20-3-20-5c0-1,1.94-2.4,6.25-3.5a1,1,0,0,0-.49-1.94c-5.07,1.3-7.76,3.18-7.76,5.44,0,4.6,11.07,7,22,7s22-2.4,22-7C51.84,33.24,43.63,31.52,40.1,31ZM29.84,38.21c-5.16,0-8.3-.77-9-1.23,0-.63,0-1.26,0-1.89,1.53.61,4.24,1.12,9,1.12s7.51-.51,9-1.12c0,.63,0,1.26,0,1.89C38.15,37.44,35,38.21,29.84,38.21Z"/></g></svg>