<svg xmlns="http://www.w3.org/2000/svg" viewBox="0 0 44 44"><defs><style>.cls-1{fill:#fff;}</style></defs><title>cws-icon-shopping-trolly</title><g id="shopping_trolly"><circle class="cls-1" cx="16" cy="40.5" r="2"/><circle class="cls-1" cx="34" cy="40.5" r="2"/><path class="cls-1" d="M43.76,9.85A1,1,0,0,0,43,9.5H13a1,1,0,0,0,0,2H41.84L39.39,27.8a2,2,0,0,1-2,1.7H12.84L8.28,4A3,3,0,0,0,5.33,1.5H3a3,3,0,0,0-3,3,1,1,0,0,0,2,0,1,1,0,0,1,1-1H5.33a1,1,0,0,1,1,.82l4.6,25.78A4,4,0,0,0,13,37.5H39a1,1,0,0,0,0-2H13a2,2,0,0,1,0-4H37.42a4,4,0,0,0,3.95-3.41L44,10.65A1,1,0,0,0,43.76,9.85Z"/><path class="cls-1" d="M15,22.5a1,1,0,0,0,0,2h4v2a1,1,0,0,0,2,0v-2h4v2a1,1,0,0,0,2,0v-2h4v2a1,1,0,0,0,2,0v-2h4a1,1,0,0,0,0-2H33v-4h4a1,1,0,0,0,0-2H33v-2a1,1,0,0,0-2,0v2H27v-2a1,1,0,0,0-2,0v2H21v-2a1,1,0,0,0-2,0v2H15a1,1,0,0,0,0,2h4v4Zm16-4v4H27v-4Zm-10,0h4v4H21Z"/></g></svg>