<svg xmlns="http://www.w3.org/2000/svg" viewBox="0 0 44 44"><defs><style>.cls-1{fill:#fff;}</style></defs><title>cws-icon-window</title><g id="window"><path class="cls-1" d="M33,28H11a1,1,0,0,0,0,2H33a1,1,0,0,0,0-2Z"/><path class="cls-1" d="M33,32H11a1,1,0,0,0,0,2H33a1,1,0,0,0,0-2Z"/><path class="cls-1" d="M43,2H32a1,1,0,0,0-1,1.21c.13.58,3.08,14.26,6.18,18.39a1,1,0,1,0,1.6-1.2C36.47,17.29,34.05,7.45,33.25,4H42V40H37.11a1,1,0,0,1-1-1.08c.34-3.6,1.24-6.19,2.49-7.12a1,1,0,0,0,.4-.86,1,1,0,0,0-.51-.81C36,28.71,32.35,18.6,29.31,4.37A3,3,0,0,0,26.37,2H17.63a3,3,0,0,0-2.94,2.37C11.65,18.6,8,28.71,5.51,30.13a1,1,0,0,0-.51.81,1,1,0,0,0,.4.86c1.25.93,2.15,3.52,2.49,7.12a1,1,0,0,1-1,1.08H2V4h8.75C10,7.45,7.54,17.29,5.2,20.4a1,1,0,1,0,1.6,1.2C9.9,17.47,12.85,3.79,13,3.21A1,1,0,0,0,12,2H1A1,1,0,0,0,0,3V41a1,1,0,0,0,1,1H6.89a3,3,0,0,0,2.22-1,3,3,0,0,0,.77-2.28C9.64,36.19,9,33,7.49,31.07c3.91-4,7.37-17.92,9.16-26.28a1,1,0,0,1,1-.79h8.74a1,1,0,0,1,1,.79c1.79,8.36,5.25,22.26,9.16,26.28C35,33,34.36,36.19,34.12,38.74A3,3,0,0,0,34.89,41a3,3,0,0,0,2.22,1H43a1,1,0,0,0,1-1V3A1,1,0,0,0,43,2Z"/><path class="cls-1" d="M22,6a1,1,0,0,0-1,1v8H17a1,1,0,0,0,0,2h4v8a1,1,0,0,0,2,0V17h4a1,1,0,0,0,0-2H23V7A1,1,0,0,0,22,6Z"/></g></svg>