<svg xmlns="http://www.w3.org/2000/svg" viewBox="0 0 44 44"><defs><style>.cls-1{fill:#fff;}</style></defs><g id="farmer"><circle class="cls-1" cx="19" cy="15" r="1"/><circle class="cls-1" cx="25" cy="15" r="1"/><path class="cls-1" d="M21,21h2a1,1,0,0,0,0-2H21a1,1,0,0,0,0,2Z"/><path class="cls-1" d="M8,10H36a1,1,0,0,0,0-2H32V7.4a11.2,11.2,0,0,0-1.18-5l-.37-.75A3,3,0,0,0,27.76,0H16.24a3,3,0,0,0-2.69,1.66l-.37.75A11.2,11.2,0,0,0,12,7.4V8H8a1,1,0,0,0,0,2Zm6-2.6a9.12,9.12,0,0,1,1-4.1l.37-.75a1,1,0,0,1,.9-.55H27.76a1,1,0,0,1,.9.55L29,3.3a9.12,9.12,0,0,1,1,4.1V8H14Z"/><path class="cls-1" d="M14.5,17l-.25-4a1,1,0,1,0-2,.12l.25,4a9.52,9.52,0,0,0,19,0l.25-4a1,1,0,1,0-2-.12l-.25,4a7.51,7.51,0,0,1-15,0Z"/><path class="cls-1" d="M35,29.38,28.2,28,28,28h-.89a3.31,3.31,0,0,0-2.59,1.24L22,32.4l-2.52-3.16A3.31,3.31,0,0,0,16.89,28H16l-.2,0L9,29.38a5,5,0,0,0-4,4.9V41a3,3,0,0,0,3,3H32a1,1,0,0,0,1-1V39.39a21.15,21.15,0,0,1,.17-2.64l.32-2.63a1,1,0,1,0-2-.24l-.33,2.62A23.12,23.12,0,0,0,31,39.39V42H13V39.39a23.12,23.12,0,0,0-.18-2.89l-.71-5.7,4-.8h.79a1.3,1.3,0,0,1,1,.49l3.31,4.13a1,1,0,0,0,1.56,0l3.3-4.13a1.34,1.34,0,0,1,1-.49h.79L28,30l-.76,6.1a1,1,0,0,1-1,.88H17.77a1,1,0,0,1-1-.88l-.4-3.24A1,1,0,0,0,15.25,32a1,1,0,0,0-.87,1.11l.41,3.25a3,3,0,0,0,3,2.63h8.46a3,3,0,0,0,3-2.63l.75-6,4.63.93A3,3,0,0,1,37,34.28V41a1,1,0,0,1-1,1,1,1,0,0,0,0,2,3,3,0,0,0,3-3V34.28A5,5,0,0,0,35,29.38ZM10.83,36.75A21.15,21.15,0,0,1,11,39.39V42H8a1,1,0,0,1-1-1V34.28a3,3,0,0,1,2.41-2.94l.73-.15Z"/></g></svg>