<svg xmlns="http://www.w3.org/2000/svg" viewBox="0 0 44 44"><defs><style>.cls-1{fill:#fff;}</style></defs><g id="cooler"><path class="cls-1" d="M41,0H3A3,3,0,0,0,0,3V41a3,3,0,0,0,3,3H41a3,3,0,0,0,3-3V3A3,3,0,0,0,41,0Zm1,41a1,1,0,0,1-1,1H3a1,1,0,0,1-1-1V3A1,1,0,0,1,3,2H41a1,1,0,0,1,1,1Z"/><circle class="cls-1" cx="5" cy="5" r="1"/><circle class="cls-1" cx="39" cy="5" r="1"/><circle class="cls-1" cx="5" cy="39" r="1"/><circle class="cls-1" cx="39" cy="39" r="1"/><path class="cls-1" d="M39.46,21.11a1,1,0,0,0-1,.07,12.28,12.28,0,0,1-12.35.32,14.89,14.89,0,0,0,10.58-5.93,16,16,0,0,1,.89,2.66,1,1,0,0,0,1.21.74,1,1,0,0,0,.74-1.2A18,18,0,0,0,4,22a1,1,0,0,0,.54.89,1,1,0,0,0,1-.07,12.26,12.26,0,0,1,12.35-.31A14.85,14.85,0,0,0,7.34,28.43a16,16,0,0,1-.89-2.66A1,1,0,0,0,5.24,25a1,1,0,0,0-.74,1.2A18,18,0,0,0,40,22,1,1,0,0,0,39.46,21.11ZM22.54,38a12.34,12.34,0,0,1,0-11.89,14.85,14.85,0,0,0,5.91,10.56A15.79,15.79,0,0,1,22.54,38ZM20.4,25.78a14.82,14.82,0,0,0-.17,12.11,15.92,15.92,0,0,1-5.75-1.76A12.35,12.35,0,0,1,20.4,25.78ZM21.46,6a12.34,12.34,0,0,1,0,11.89A14.85,14.85,0,0,0,15.59,7.36,15.79,15.79,0,0,1,21.46,6ZM23.6,18.22a14.82,14.82,0,0,0,.17-12.11,15.92,15.92,0,0,1,5.75,1.76A12.35,12.35,0,0,1,23.6,18.22ZM22,24a2,2,0,1,1,2-2A2,2,0,0,1,22,24ZM35.58,13.53a12.33,12.33,0,0,1-10.3,6A14.85,14.85,0,0,0,31.48,9.1,16.06,16.06,0,0,1,35.58,13.53Zm-22-5.1a12.34,12.34,0,0,1,6,10.29A14.84,14.84,0,0,0,9.13,12.53,16,16,0,0,1,13.54,8.43ZM6.1,20.24a15.64,15.64,0,0,1,1.79-5.76,12.29,12.29,0,0,1,10.32,5.91A14.82,14.82,0,0,0,6.1,20.24ZM8.42,30.47a12.38,12.38,0,0,1,10.3-6,14.85,14.85,0,0,0-6.2,10.42A16.06,16.06,0,0,1,8.42,30.47Zm22,5.1a12.33,12.33,0,0,1-6-10.29,14.78,14.78,0,0,0,10.39,6.19A16,16,0,0,1,30.46,35.57Zm5.65-6.05a12.29,12.29,0,0,1-10.32-5.91,14.82,14.82,0,0,0,12.11.15A15.64,15.64,0,0,1,36.11,29.52Z"/></g></svg>