<svg id="Livello_1" data-name="Livello 1" xmlns="http://www.w3.org/2000/svg" viewBox="0 0 300 53"><defs><style>.cls-1{fill:#fff;}</style></defs><title>cws-logo-partner-microsoft</title><path class="cls-1" d="M81.88,30.1l-1.32,3.74h-.11a26.94,26.94,0,0,0-1.29-3.67l-7.08-17.8H65.14V40.74h4.59V23.23c0-1.1,0-2.35,0-3.89,0-.77-.11-1.35-.14-1.8h.11A16.34,16.34,0,0,0,70.32,20l8.51,20.7h3.23L90.5,19.78a19.33,19.33,0,0,0,.55-2.24h.11c-.11,2.1-.18,4-.22,5.11v18h4.89V12.3H89.15Zm18.57-9.8h4.77V40.63h-4.77Zm2.42-8.59a2.85,2.85,0,0,0-2,.81,2.71,2.71,0,0,0,0,3.92,2.82,2.82,0,0,0,2,.77,2.91,2.91,0,0,0,2-.77,2.57,2.57,0,0,0,.85-1.94,2.72,2.72,0,0,0-.85-2,2.66,2.66,0,0,0-2-.81m19.27,8.4a13.57,13.57,0,0,0-2.68-.29,11.57,11.57,0,0,0-5.8,1.43,9.6,9.6,0,0,0-3.81,3.93,12.49,12.49,0,0,0-1.33,5.87,10.94,10.94,0,0,0,1.29,5.25,8.75,8.75,0,0,0,3.6,3.63,10.49,10.49,0,0,0,5.24,1.29,11.56,11.56,0,0,0,5.77-1.36l0,0v-4.4l-.18.15A8.37,8.37,0,0,1,122,36.78a7.23,7.23,0,0,1-2.28.44,5.64,5.64,0,0,1-4.48-1.76,6.79,6.79,0,0,1-1.65-4.81,6.94,6.94,0,0,1,1.69-5,5.89,5.89,0,0,1,4.48-1.83,7.79,7.79,0,0,1,4.55,1.54l.18.15V20.88l0,0a11.31,11.31,0,0,0-2.28-.74M137.89,20a5,5,0,0,0-3.23,1.13,6.94,6.94,0,0,0-1.84,2.76h0V20.3H128V40.63h4.78V30.24A7,7,0,0,1,134,26,3.67,3.67,0,0,1,137,24.3a12.39,12.39,0,0,1,1.43.18,3.66,3.66,0,0,1,1.14.48l.19.15V20.33l-.11,0a3.68,3.68,0,0,0-1.8-.33m13-.11A10.53,10.53,0,0,0,143,22.79c-1.91,1.95-2.83,4.63-2.83,8a10.48,10.48,0,0,0,2.79,7.6,10.1,10.1,0,0,0,7.45,2.79,10.2,10.2,0,0,0,7.75-3A10.89,10.89,0,0,0,161,30.32a10.61,10.61,0,0,0-2.68-7.67c-1.72-1.88-4.25-2.79-7.41-2.79m3.82,15.63a4.81,4.81,0,0,1-4,1.69,5,5,0,0,1-4.11-1.76,7.21,7.21,0,0,1-1.47-4.88,7.65,7.65,0,0,1,1.47-5,5,5,0,0,1,4.07-1.77,4.86,4.86,0,0,1,4,1.69,7.51,7.51,0,0,1,1.47,5,8.51,8.51,0,0,1-1.39,5.06m16.92-6.75a11.29,11.29,0,0,1-2.9-1.51,2.06,2.06,0,0,1-.55-1.54,1.71,1.71,0,0,1,.77-1.47,3.57,3.57,0,0,1,2.09-.55,9.52,9.52,0,0,1,2.46.37,6.34,6.34,0,0,1,2.13,1l.18.15V20.7l-.11,0a12.76,12.76,0,0,0-2.17-.62,14.25,14.25,0,0,0-2.34-.22,8.52,8.52,0,0,0-5.62,1.76,5.42,5.42,0,0,0-2.16,4.48,5.87,5.87,0,0,0,.47,2.5,5.61,5.61,0,0,0,1.47,1.9,13,13,0,0,0,2.94,1.66c1.1.47,1.94.84,2.46,1.13a5.59,5.59,0,0,1,1.1.88,2.13,2.13,0,0,1,.29,1.14c0,1.36-1,2-3.12,2a8.23,8.23,0,0,1-2.64-.48,10.21,10.21,0,0,1-2.68-1.35l-.18-.15V40l.11,0a13.66,13.66,0,0,0,2.56.8,15.81,15.81,0,0,0,2.76.33,9,9,0,0,0,5.91-1.76,5.64,5.64,0,0,0,2.24-4.62,5.15,5.15,0,0,0-1.18-3.49,14.84,14.84,0,0,0-4.29-2.53m18-8.88a10.53,10.53,0,0,0-7.89,2.93,11.11,11.11,0,0,0-2.82,8,10.44,10.44,0,0,0,2.79,7.6,11.46,11.46,0,0,0,15.19-.18,10.9,10.9,0,0,0,2.83-7.89,10.61,10.61,0,0,0-2.68-7.67c-1.73-1.88-4.26-2.79-7.42-2.79m3.78,15.63a4.8,4.8,0,0,1-4,1.69,5,5,0,0,1-4.11-1.76,7.26,7.26,0,0,1-1.47-4.88,7.71,7.71,0,0,1,1.47-5,5,5,0,0,1,4.08-1.77,4.91,4.91,0,0,1,4,1.69,7.51,7.51,0,0,1,1.47,5,8,8,0,0,1-1.4,5.06m31.83-11.27V20.3h-4.81v-6l-.15,0-4.55,1.36-.11,0V20.3h-7.19V17.73a4,4,0,0,1,.8-2.68,2.86,2.86,0,0,1,2.24-.88,5.21,5.21,0,0,1,2.13.48l.18.11V10.61l-.11,0a9.14,9.14,0,0,0-6.49.51,6.43,6.43,0,0,0-2.61,2.61,7.55,7.55,0,0,0-1,3.78V20.3h-3.34v3.89h3.34V40.63h4.81V24.22h7.19V34.68q0,6.45,6.06,6.46a12.48,12.48,0,0,0,2-.22,6.63,6.63,0,0,0,1.51-.47l0,0V36.48l-.19.15a3.14,3.14,0,0,1-1,.44,3.41,3.41,0,0,1-.95.15,2.56,2.56,0,0,1-2.1-.77,4,4,0,0,1-.66-2.61V24.22Z"/><path class="cls-1" d="M3.63,2.83h22.5v22.5H3.63Z"/><path class="cls-1" d="M28.48,2.83H51v22.5H28.48Z"/><path class="cls-1" d="M3.63,27.67h22.5v22.5H3.63Z"/><path class="cls-1" d="M28.48,27.67H51v22.5H28.48Z"/></svg>