<svg xmlns="http://www.w3.org/2000/svg" viewBox="0 0 42 44"><defs><style>.cls-1{fill:#fff;}</style></defs><title>cws-icon-photo-camera_1</title><g id="Livello_2" data-name="Livello 2"><g id="photo_camera_2"><circle class="cls-1" cx="38" cy="31" r="1"/><path class="cls-1" d="M7,34a3,3,0,1,0,3,3A3,3,0,0,0,7,34Zm0,4a1,1,0,1,1,1-1A1,1,0,0,1,7,38Z"/><rect class="cls-1" x="32" y="35" width="6" height="4"/><path class="cls-1" d="M15,29a1,1,0,0,0,1-1V25a1,1,0,0,0-1-1,1,1,0,0,1-1-1V12a1,1,0,0,0-2,0V23a3,3,0,0,0,.88,2.12,3,3,0,0,0,1.12.71V28A1,1,0,0,0,15,29Z"/><path class="cls-1" d="M19,36h4a1,1,0,0,0,0-2H19a1,1,0,0,0,0,2Z"/><path class="cls-1" d="M19,40h4a1,1,0,0,0,0-2H19a1,1,0,0,0,0,2Z"/><path class="cls-1" d="M37.63,27a4.36,4.36,0,0,0-4.24,3.31.9.9,0,0,1-.88.69H30a1,1,0,0,0-1-1H13a1,1,0,0,0-1,1v7a1,1,0,0,0,2,0V32H28V42H14a1,1,0,0,0-1-1H3a1,1,0,0,1-1-1V34a1,1,0,0,1,1-1H9a1,1,0,0,0,0-2H3a3,3,0,0,0-3,3v6a3,3,0,0,0,3,3h9a1,1,0,0,0,1,1H29a1,1,0,0,0,1-1V33h2.51a2.9,2.9,0,0,0,2.82-2.21,2.37,2.37,0,0,1,4.67.58V40a1,1,0,0,1-1,1H33a1,1,0,0,0,0,2h6a3,3,0,0,0,3-3V31.37A4.37,4.37,0,0,0,37.63,27Z"/><path class="cls-1" d="M13,9h3v5a1,1,0,0,0,1,1H28v8a1,1,0,0,1-1,1H19a1,1,0,0,0,0,2h7v2a1,1,0,0,0,2,0V25.81A3,3,0,0,0,30,23V8.82A3,3,0,0,0,32,6V1a1,1,0,0,0-1-1H11a1,1,0,0,0-1,1V6A3,3,0,0,0,13,9Zm5,4V9h2v4Zm4,0V9h2v4ZM12,2H30V6a1,1,0,0,1-1,1h0a1,1,0,0,0-1,1v5H26V8a1,1,0,0,0-1-1H13a1,1,0,0,1-1-1Z"/></g></g></svg>