<svg xmlns="http://www.w3.org/2000/svg" viewBox="0 0 44 44"><defs><style>.cls-1{fill:#fff;}</style></defs><g id="benzene_ring"><path class="cls-1" d="M13,19v6a1,1,0,0,0,2,0V19a1,1,0,0,0-2,0Z"/><path class="cls-1" d="M31,25V19a1,1,0,0,0-2,0v6a1,1,0,0,0,2,0Z"/><path class="cls-1" d="M19,14a1,1,0,0,0,1-1V9.41l4.29,4.3A1,1,0,0,0,25,14a.84.84,0,0,0,.38-.08A1,1,0,0,0,26,13V7a1,1,0,0,0-2,0v3.59l-4.29-4.3a1,1,0,0,0-1.09-.21A1,1,0,0,0,18,7v6A1,1,0,0,0,19,14Z"/><path class="cls-1" d="M43.83,8.45a1,1,0,0,0-1.38-.28l-6.66,4.44A3,3,0,0,0,34,12a3,3,0,0,0-2.31,1.11l-2.22-1.2a1,1,0,0,0-.95,1.76L31,15a3,3,0,0,0,2,2.81v8.36A3,3,0,0,0,31,29l-7,3.79a3,3,0,0,0-4,0L13,29a3,3,0,0,0-2-2.81V17.82A3,3,0,0,0,13,15l2.48-1.34a1,1,0,0,0-1-1.76l-2.21,1.2A3,3,0,1,0,9,17.82v8.36A3,3,0,0,0,7,29a2.92,2.92,0,0,0,.1.73L.45,34.17a1,1,0,0,0-.28,1.38A1,1,0,0,0,1,36a.94.94,0,0,0,.55-.17l6.66-4.44A3,3,0,0,0,10,32a3,3,0,0,0,2.31-1.11l6.74,3.65A2.31,2.31,0,0,0,19,35a3,3,0,0,0,6,0,2.31,2.31,0,0,0-.05-.46l6.74-3.65A3,3,0,1,0,35,26.18V17.82A3,3,0,0,0,37,15a2.92,2.92,0,0,0-.1-.73l6.65-4.44A1,1,0,0,0,43.83,8.45ZM10,14a1,1,0,1,1-1,1A1,1,0,0,1,10,14Zm0,16a1,1,0,1,1,1-1A1,1,0,0,1,10,30Zm12,6a1,1,0,1,1,1-1A1,1,0,0,1,22,36Zm12-6a1,1,0,1,1,1-1A1,1,0,0,1,34,30Zm0-14a1,1,0,1,1,1-1A1,1,0,0,1,34,16Z"/></g></svg>