<svg xmlns="http://www.w3.org/2000/svg" viewBox="0 0 44 40"><defs><style>.cls-1{fill:#fff;}</style></defs><title>cws-icon-photos</title><g id="Livello_2" data-name="Livello 2"><g id="photos"><path class="cls-1" d="M37,17a14,14,0,0,1,5.66.94h0A.93.93,0,0,0,43,18a1,1,0,0,0,1-1V3a3,3,0,0,0-3-3H7A3,3,0,0,0,4,3V9.25L1.85,10A2.67,2.67,0,0,0,.3,11.36,3.05,3.05,0,0,0,.18,13.7L4,24.67V29A3,3,0,0,0,6.54,32l2.09,6a3,3,0,0,0,2.77,2,2.8,2.8,0,0,0,.85-.14L35.32,32H41a3,3,0,0,0,3-3V21a1,1,0,0,0-2,0v8a1,1,0,0,1-1,1H7a1,1,0,0,1-1-1V3A1,1,0,0,1,7,2H41a1,1,0,0,1,1,1V15.62A16.11,16.11,0,0,0,37,15c-4.32,0-9,.84-14.13,6.63A13,13,0,0,0,8.4,20.8a1,1,0,1,0,1,1.73c5-2.86,10.92-1.61,14.83,3.11A1,1,0,0,0,25,26a1,1,0,0,0,.64-.23,1,1,0,0,0,.13-1.41,17.21,17.21,0,0,0-1.37-1.45C28.71,18,32.57,17,37,17ZM11.6,38a.93.93,0,0,1-1.08-.67L8.67,32H29.13ZM2.06,13a1.1,1.1,0,0,1,0-.8.73.73,0,0,1,.4-.37L4,11.36v7.23Z"/><path class="cls-1" d="M12,9a1,1,0,0,0,0,2h.14a4.17,4.17,0,0,0,.43,1l-.11.1a1,1,0,0,0,0,1.42,1,1,0,0,0,1.42,0l.1-.11a4.17,4.17,0,0,0,1,.43V14a1,1,0,0,0,2,0v-.14a4.17,4.17,0,0,0,1-.43l.1.11a1,1,0,0,0,.71.29,1,1,0,0,0,.71-.29,1,1,0,0,0,0-1.42l-.11-.1a4.17,4.17,0,0,0,.43-1H20a1,1,0,0,0,0-2h-.14a4.17,4.17,0,0,0-.43-1l.11-.1a1,1,0,0,0-1.42-1.42l-.1.11a4.17,4.17,0,0,0-1-.43V6a1,1,0,0,0-2,0v.14a4.17,4.17,0,0,0-1,.43l-.1-.11a1,1,0,0,0-1.42,1.42l.11.1a4.17,4.17,0,0,0-.43,1Zm4-1a2,2,0,1,1-2,2A2,2,0,0,1,16,8Z"/></g></g></svg>