<svg xmlns="http://www.w3.org/2000/svg" viewBox="0 0 44 44"><defs><style>.cls-1{fill:#fff;}</style></defs><g id="duck"><circle class="cls-1" cx="33" cy="5" r="1"/><path class="cls-1" d="M41.24,4l-1.07-.27a9.85,9.85,0,0,1-4.6-2.6A3.9,3.9,0,0,0,32.78,0a4,4,0,0,0-4,3.7l-.54,7.57a7.9,7.9,0,0,1-3.82,6.28,9.17,9.17,0,0,1-1.88.87L20,19.27A11.64,11.64,0,0,0,15.54,22l-.17.18A9.46,9.46,0,0,1,8.65,25H3a1,1,0,0,0,0,2H8.65a11.43,11.43,0,0,0,8.13-3.37l.18-.17a9.41,9.41,0,0,1,3.71-2.29l2.55-.86a10.7,10.7,0,0,0,2.28-1,9.85,9.85,0,0,0,4.79-7.86l.53-7.57a2,2,0,0,1,3.34-1.26c.27.27.55.52.84.76V6.51a3.8,3.8,0,0,0-2,3.34v1.79a7.62,7.62,0,0,0,.62,3l1.71,4a8.31,8.31,0,0,1-2,9.39l-7,6.45A5.78,5.78,0,0,1,22.36,36h-7a5.83,5.83,0,0,1-4.64-2.32A7.82,7.82,0,0,0,8,31.39L3.45,29.11a1,1,0,0,0-.9,1.78l4.57,2.29a5.8,5.8,0,0,1,2,1.7A7.86,7.86,0,0,0,15.4,38H20v4a1,1,0,0,0,0,2h5a1,1,0,0,0,0-2H23a1,1,0,0,1-1-1V38h.36a7.77,7.77,0,0,0,5.26-2l7-6.45a10.31,10.31,0,0,0,2.51-11.65l-1.71-4A5.49,5.49,0,0,1,35,11.64V9.85a1.8,1.8,0,0,1,1.1-1.66l5.29-2.27A1,1,0,0,0,41.24,4ZM37,5.63v-1a11.33,11.33,0,0,0,1.06.5Z"/><path class="cls-1" d="M19,33A12,12,0,0,0,31,21a1,1,0,0,0-2,0A10,10,0,0,1,19,31H15a1,1,0,0,0,0,2Z"/></g></svg>