<svg xmlns="http://www.w3.org/2000/svg" viewBox="0 0 44 44"><defs><style>.cls-1{fill:#fff;}</style></defs><title>cws-icon-chain</title><g id="chain"><path class="cls-1" d="M25.71,14.29a1,1,0,0,0-1.42,1.42l5.6,5.58a3.84,3.84,0,0,1,0,5.42L15.71,40.88a3.92,3.92,0,0,1-5.42,0L3.12,33.71a3.84,3.84,0,0,1,0-5.42l6.59-6.58a1,1,0,0,0-1.42-1.42L1.71,26.88a5.83,5.83,0,0,0,0,8.24l7.18,7.17a5.82,5.82,0,0,0,8.24,0L31.3,28.12a5.82,5.82,0,0,0,0-8.24Z"/><path class="cls-1" d="M9.29,24.29,4.71,28.88a3,3,0,0,0,0,4.24l6.18,6.17a3,3,0,0,0,4.24,0L28.3,26.12a3,3,0,0,0,0-4.24l-4.59-4.59a1,1,0,0,0-1.42,1.42l4.6,4.58a1,1,0,0,1,0,1.42L13.72,37.88a1,1,0,0,1-1.42,0L6.12,31.71a1,1,0,0,1,0-1.42l4.59-4.58a1,1,0,0,0-1.42-1.42Z"/><path class="cls-1" d="M42.31,8.88,35.13,1.71a5.83,5.83,0,0,0-8.24,0L12.71,15.88a5.82,5.82,0,0,0,0,8.24l5.58,5.59a1,1,0,0,0,1.42,0,1,1,0,0,0,0-1.42l-5.59-5.58A3.84,3.84,0,0,1,13,20a3.88,3.88,0,0,1,1.12-2.71L28.31,3.12a3.92,3.92,0,0,1,5.41,0l7.17,7.17a3.86,3.86,0,0,1,0,5.42L34.3,22.29a1,1,0,0,0,1.42,1.42l6.58-6.59a5.85,5.85,0,0,0,0-8.24Z"/><path class="cls-1" d="M34.72,19.71l4.58-4.59a3,3,0,0,0,0-4.24L33.12,4.71a3,3,0,0,0-4.24,0L15.71,17.88a3,3,0,0,0,0,4.24l4.58,4.59a1,1,0,0,0,1.42,0,1,1,0,0,0,0-1.42l-4.59-4.58a1,1,0,0,1,0-1.42L30.29,6.12a1,1,0,0,1,1.42,0l6.18,6.17a1,1,0,0,1,0,1.42L33.3,18.29a1,1,0,0,0,1.42,1.42Z"/></g></svg>