<svg xmlns="http://www.w3.org/2000/svg" viewBox="0 0 44 44"><defs><style>.cls-1{fill:#fff;}</style></defs><title>cws-icon-trowel</title><g id="trowel"><path class="cls-1" d="M39,0A5.07,5.07,0,0,0,36.7.53L19,9.38a3.61,3.61,0,0,0-2,3.24,3.57,3.57,0,0,0,.15,1l2.72,9.07-3.58,3.57a1,1,0,0,0-.24,1l1.31,3.91L7.54,41.05A3.25,3.25,0,0,1,3,36.46L13.21,26.21a1,1,0,0,0-1.42-1.42L1.54,35.05A5.24,5.24,0,1,0,9,42.46L19.21,32.21a1,1,0,0,0,.24-1l-1.31-3.91L30.71,14.71a1,1,0,0,0-1.42-1.42l-7.81,7.82-2.41-8a1.47,1.47,0,0,1-.07-.46,1.61,1.61,0,0,1,.89-1.45l17.7-8.85A3.1,3.1,0,0,1,39,2a3,3,0,0,1,2.72,4.41l-8.85,17.7a1.63,1.63,0,0,1-1.91.82l-5.63-1.69a1,1,0,0,0-.58,1.92l5.63,1.69a3.68,3.68,0,0,0,1,.15,3.61,3.61,0,0,0,3.24-2L43.47,7.3A5,5,0,0,0,39,0Z"/></g></svg>