<svg id="bee" xmlns="http://www.w3.org/2000/svg" viewBox="0 0 44 44"><defs><style>.cls-1{fill:#fff;}</style></defs><path class="cls-1" d="M29,33a1,1,0,0,0-1,1v.76a5.37,5.37,0,0,1-2.21,4.33l-3.7,2.68-3.82-2.69A5.36,5.36,0,0,1,16,34.71V34a1,1,0,0,0-2,0v.71a7.34,7.34,0,0,0,3.11,6l4.41,3.11a1,1,0,0,0,.58.18,1,1,0,0,0,.59-.19L27,40.71a7.35,7.35,0,0,0,3-6V34A1,1,0,0,0,29,33Z"/><path class="cls-1" d="M16,10a1,1,0,0,0,2,0,4,4,0,0,1,8,0,1,1,0,0,0,2,0,6,6,0,0,0-4.85-5.89A3,3,0,0,1,26,2a1,1,0,0,0,0-2,5,5,0,0,0-4,2,5,5,0,0,0-4-2,1,1,0,0,0,0,2,3,3,0,0,1,2.85,2.11A6,6,0,0,0,16,10Z"/><path class="cls-1" d="M19,37h6a1,1,0,0,0,0-2H19a1,1,0,0,0,0,2Z"/><path class="cls-1" d="M18,31a1,1,0,0,0,1,1h6a1,1,0,0,0,0-2H19A1,1,0,0,0,18,31Z"/><path class="cls-1" d="M23.1,27a1,1,0,0,0,0-2h-2a1,1,0,0,0,0,2Z"/><path class="cls-1" d="M38.9,20.15c-4.08-4.81-16.07-8.92-16.58-9.1a1,1,0,0,0-.64,0c-.51.18-12.5,4.29-16.58,9.1A8.61,8.61,0,0,0,3,26.41a7.13,7.13,0,0,0,2.55,4.94c3.22,2.68,8.25,2,11.22-1.48,1.72-2,3.27-5.59,4.63-10.61a1,1,0,1,0-1.93-.52c-1.26,4.67-2.72,8.07-4.22,9.84-2.26,2.66-6,3.21-8.43,1.23A5.19,5.19,0,0,1,5,26.24a6.66,6.66,0,0,1,1.6-4.8c3.38-4,13.45-7.69,15.38-8.38,1.93.69,12,4.41,15.38,8.38a6.61,6.61,0,0,1,1.6,4.8,5.19,5.19,0,0,1-1.83,3.57c-2.39,2-6.17,1.43-8.42-1.23-1.51-1.77-3-5.17-4.23-9.84a1,1,0,1,0-1.93.52c1.36,5,2.91,8.59,4.63,10.61A8.7,8.7,0,0,0,33.77,33,7.13,7.13,0,0,0,41,26.41,8.61,8.61,0,0,0,38.9,20.15Z"/></svg>