<svg xmlns="http://www.w3.org/2000/svg" viewBox="0 0 44 44"><defs><style>.cls-1{fill:#fff;}</style></defs><g id="broken_heart"><path class="cls-1" d="M6.89,8.76A7.63,7.63,0,0,0,4.7,11.59a1,1,0,0,0,.5,1.33,1,1,0,0,0,.41.08,1,1,0,0,0,.91-.59,5.61,5.61,0,0,1,1.63-2.09A5.8,5.8,0,0,1,12,9.05h0a1,1,0,0,0,0-2A7.81,7.81,0,0,0,6.89,8.76Z"/><path class="cls-1" d="M32.5,3A11.51,11.51,0,0,0,21,14.5a1,1,0,0,0,.15.53L24.7,20.8l-6.35,5.44A1,1,0,0,0,18,27a1,1,0,0,0,.29.75l4.6,4.6-1.61,6.46a1.22,1.22,0,0,1-.17-.15L4.87,21.6A9.68,9.68,0,0,1,5.62,7.17,9.88,9.88,0,0,1,17.3,6.66a10,10,0,0,1,1.94,1.72,1,1,0,0,0,1.52-1.31A12.53,12.53,0,0,0,18.42,5a11.91,11.91,0,0,0-14.06.62A11.62,11.62,0,0,0,0,14.14,11.75,11.75,0,0,0,3.44,23L19.66,40A3.24,3.24,0,0,0,22,41a1,1,0,0,0,1-.76l2-8a1,1,0,0,0-.26-1l-4.24-4.23,6.18-5.3a1,1,0,0,0,.2-1.28L23,14.23A9.52,9.52,0,0,1,32.5,5,9.53,9.53,0,0,1,42,14.52a9.62,9.62,0,0,1-2.89,7.09l-14,14.7a1,1,0,0,0,1.45,1.38L40.54,23A11.63,11.63,0,0,0,44,14.5,11.51,11.51,0,0,0,32.5,3Z"/></g></svg>