<svg xmlns="http://www.w3.org/2000/svg" viewBox="0 0 44 44"><defs><style>.cls-1{fill:#fff;}</style></defs><title>cws-icon-billboard</title><g id="billboard"><path class="cls-1" d="M41,2H35V1a1,1,0,0,0-2,0V2H23V1a1,1,0,0,0-2,0V2H11V1A1,1,0,0,0,9,1V2H3A3,3,0,0,0,0,5V27a3,3,0,0,0,3,3H21a1,1,0,0,0,0-2H3a1,1,0,0,1-1-1V5A1,1,0,0,1,3,4H9V6H8A1,1,0,0,0,8,8h4a1,1,0,0,0,0-2H11V4H21V6H20a1,1,0,0,0,0,2h4a1,1,0,0,0,0-2H23V4H33V6H32a1,1,0,0,0,0,2h4a1,1,0,0,0,0-2H35V4h6a1,1,0,0,1,1,1V27a1,1,0,0,1-1,1H25a1,1,0,0,0-1,1V40a3.91,3.91,0,0,0,.56,2H19.44A3.91,3.91,0,0,0,20,40V33a1,1,0,0,0-2,0v7a2,2,0,0,1-2,2H15a1,1,0,0,0,0,2H29a1,1,0,0,0,0-2H28a2,2,0,0,1-2-2V30H41a3,3,0,0,0,3-3V5A3,3,0,0,0,41,2Z"/><path class="cls-1" d="M15,13H7a1,1,0,0,0,0,2h8a1,1,0,0,0,0-2Z"/><path class="cls-1" d="M7,19h5a1,1,0,0,0,0-2H7a1,1,0,0,0,0,2Z"/><path class="cls-1" d="M7,23h8a1,1,0,0,0,0-2H7a1,1,0,0,0,0,2Z"/><circle class="cls-1" cx="33" cy="17" r="1"/><circle class="cls-1" cx="29" cy="17" r="1"/><path class="cls-1" d="M23,17v1a2,2,0,0,0,1.37,1.9l.06.33.18.92A6,6,0,0,0,30.52,26h1a6,6,0,0,0,5.91-4.85l.18-.91.06-.34A2,2,0,0,0,39,18V17a2,2,0,0,0-1-1.73V15a5,5,0,0,0-5-5H29a5,5,0,0,0-5,5v.27A2,2,0,0,0,23,17Zm2,0a1,1,0,0,0,1-1V15a3,3,0,0,1,3-3h4a3,3,0,0,1,3,3v1a1,1,0,0,0,1,1v1h-.25a1,1,0,0,0-1,.85l0,.37c0,.2-.06.41-.1.62l-.18.92A4,4,0,0,1,31.48,24h-1a4,4,0,0,1-3.95-3.24l-.18-.92c0-.21-.07-.42-.1-.62l-.05-.37a1,1,0,0,0-1-.85H25Z"/><path class="cls-1" d="M29,21a1,1,0,0,0,1,1h2a1,1,0,0,0,0-2H30A1,1,0,0,0,29,21Z"/></g></svg>