<svg id="Layer_1" data-name="Layer 1" xmlns="http://www.w3.org/2000/svg" viewBox="0 0 44 44"><defs><style>.cls-1{fill:#fff;}</style></defs><title>cws-icon-tap-measure</title><path class="cls-1" d="M15,19c6.17,0,11-2.64,11-6S21.17,7,15,7,4,9.64,4,13,8.83,19,15,19ZM15,9c5.3,0,9,2.11,9,4s-3.7,4-9,4-9-2.11-9-4S9.7,9,15,9Z"/><path class="cls-1" d="M15,16c3.48,0,7-.93,7-3s-3.52-3-7-3-7,.93-7,3S11.52,16,15,16Zm0-4c2.76,0,4.44.63,4.91,1-.47.37-2.15,1-4.91,1s-4.44-.63-4.91-1C10.56,12.63,12.24,12,15,12Z"/><path class="cls-1" d="M41,20H30V13c0-5-6.59-9-15-9S0,8,0,13V31c0,5,6.59,9,15,9H41a3,3,0,0,0,3-3V23A3,3,0,0,0,41,20ZM24.53,20A12.24,12.24,0,0,0,28,17.54V20ZM42,37a1,1,0,0,1-1,1H40V34a1,1,0,0,0-2,0v4H36V36a1,1,0,0,0-2,0v2H32V34a1,1,0,0,0-2,0v4H28V36a1,1,0,0,0-2,0v2H24V34a1,1,0,0,0-2,0v4H20V36a1,1,0,0,0-2,0v2H16V34a1,1,0,0,0-2,0v4c-.68,0-1.35-.09-2-.17V35a1,1,0,0,0-2,0v2.44a18.75,18.75,0,0,1-2-.58V32a1,1,0,0,0-2,0v4a11.21,11.21,0,0,1-2-1.33V32a1,1,0,0,0-1-1,1,1,0,0,0-.93.67A3,3,0,0,1,2,31V13C2,9.21,8,6,15,6s13,3.21,13,7-5.95,7-13,7a19.21,19.21,0,0,1-9.5-2.26,1,1,0,0,0-1,1.72A21.11,21.11,0,0,0,15,22H41a1,1,0,0,1,1,1Z"/></svg>