<svg xmlns="http://www.w3.org/2000/svg" viewBox="0 0 44 44"><defs><style>.cls-1{fill:#fff;}</style></defs><title>cws-icon-bulb</title><g id="bulb"><circle class="cls-1" cx="22" cy="21" r="1"/><polygon class="cls-1" points="24 10 20 10 21 18 23 18 24 10"/><path class="cls-1" d="M22,0A14,14,0,0,0,8,14a13.54,13.54,0,0,0,5.2,10.86A7,7,0,0,1,16,30.53a2.5,2.5,0,0,0-1,2,2.53,2.53,0,0,0,.51,1.5,2.46,2.46,0,0,0,0,3A2.53,2.53,0,0,0,15,38.5,2.5,2.5,0,0,0,17.5,41h.78l.77,2.32A1,1,0,0,0,20,44h4a1,1,0,0,0,.95-.68L25.72,41h.78A2.5,2.5,0,0,0,29,38.5a2.53,2.53,0,0,0-.51-1.5,2.46,2.46,0,0,0,0-3A2.53,2.53,0,0,0,29,32.5,2.5,2.5,0,0,0,26.5,30H22a1,1,0,0,0,0,2h4.5a.5.5,0,0,1,0,1,1,1,0,0,0,0,2,.5.5,0,0,1,0,1H22a1,1,0,0,0,0,2h4.5a.5.5,0,0,1,0,1h-9a.5.5,0,0,1,0-1,1,1,0,0,0,0-2,.5.5,0,0,1,0-1H23a1,1,0,0,0,0-2H17.5a.5.5,0,0,1,0-1,1,1,0,0,0,1-1,1,1,0,0,0-.54-.87,8.83,8.83,0,0,0-3.56-6.92A11.53,11.53,0,0,1,10,14a12,12,0,0,1,24,0,11.49,11.49,0,0,1-4.4,9.25,8.56,8.56,0,0,0-3.17,4.52,1,1,0,1,0,1.92.56A6.61,6.61,0,0,1,30.8,24.8,13.5,13.5,0,0,0,36,14,14,14,0,0,0,22,0Zm1.28,42H20.72l-.33-1h3.22Z"/></g></svg>