<svg xmlns="http://www.w3.org/2000/svg" viewBox="0 0 44 44"><defs><style>.cls-1{fill:#fff;}</style></defs><title>cws-icon-coins</title><g id="coins"><path class="cls-1" d="M43,21H42V16a1,1,0,0,0-1-1H40V10a1,1,0,0,0-1-1H38V4a1,1,0,0,0-1-1H9A1,1,0,0,0,8,4V9a1,1,0,0,0,2,0V5H36V9H20a1,1,0,0,0,0,2H38v4H29a1,1,0,0,0,0,2H40v4H32a1,1,0,0,0,0,2H42v4H33a1,1,0,0,0,0,2h3v4H31a1,1,0,0,0,0,2h9v4H26a1,1,0,0,0,0,2H41a1,1,0,0,0,1-1V34a1,1,0,0,0-1-1H38V29h5a1,1,0,0,0,1-1V22A1,1,0,0,0,43,21Z"/><path class="cls-1" d="M30,26A15,15,0,1,0,15,41,15,15,0,0,0,30,26ZM15,39A13,13,0,1,1,28,26,13,13,0,0,1,15,39Z"/><path class="cls-1" d="M15,15A11,11,0,1,0,26,26,11,11,0,0,0,15,15Zm0,20a9,9,0,1,1,9-9A9,9,0,0,1,15,35Z"/><path class="cls-1" d="M17,28H16V23a1,1,0,0,0-1-1H13a1,1,0,0,0,0,2h1v4H13a1,1,0,0,0,0,2h4a1,1,0,0,0,0-2Z"/></g></svg>