<svg xmlns="http://www.w3.org/2000/svg" viewBox="0 0 44 44"><defs><style>.cls-1{fill:#fff;}</style></defs><g id="magnet"><path class="cls-1" d="M6,19a1,1,0,0,0,1-1V11H17V27a5,5,0,0,0,10,0V23h7a1,1,0,0,0,0-2H26a1,1,0,0,0-1,1v5a3,3,0,0,1-6,0V10a1,1,0,0,0-1-1H6a1,1,0,0,0-1,1v8A1,1,0,0,0,6,19Z"/><path class="cls-1" d="M32,13a1,1,0,0,0-1,1v1H30a1,1,0,0,0,0,2h1v1a1,1,0,0,0,2,0V17h1a1,1,0,0,0,0-2H33V14A1,1,0,0,0,32,13Z"/><path class="cls-1" d="M38,9H26a1,1,0,0,0-1,1v8a1,1,0,0,0,2,0V11H37V27A15,15,0,0,1,7,27V23h7a1,1,0,0,0,0-2H6a1,1,0,0,0-1,1v5a17,17,0,0,0,34,0V10A1,1,0,0,0,38,9Z"/><path class="cls-1" d="M10,15a1,1,0,0,0,0,2h4a1,1,0,0,0,0-2Z"/><path class="cls-1" d="M11.47,7.85A1,1,0,0,0,12,8a1,1,0,0,0,.85-.47,1,1,0,0,0-.32-1.38C12.2,6,12,5.7,12,5.5s.2-.44.53-.65A2.83,2.83,0,0,0,14,2.5,2.83,2.83,0,0,0,12.53.15a1,1,0,1,0-1.06,1.7c.33.21.53.45.53.65s-.2.45-.53.65A2.83,2.83,0,0,0,10,5.5,2.83,2.83,0,0,0,11.47,7.85Z"/><path class="cls-1" d="M31.47,7.85A1,1,0,0,0,32,8a1,1,0,0,0,.85-.47,1,1,0,0,0-.32-1.38C32.2,6,32,5.7,32,5.5s.2-.44.53-.65A2.83,2.83,0,0,0,34,2.5,2.83,2.83,0,0,0,32.53.15a1,1,0,0,0-1.06,1.7c.33.21.53.45.53.65s-.2.45-.53.65A2.83,2.83,0,0,0,30,5.5,2.83,2.83,0,0,0,31.47,7.85Z"/></g></svg>