<svg xmlns="http://www.w3.org/2000/svg" viewBox="0 0 44 44"><defs><style>.cls-1{fill:#fff;}</style></defs><title>cws-icon-battery</title><g id="battery"><path class="cls-1" d="M25,13H23V11a1,1,0,0,0-2,0v2H19a1,1,0,0,0,0,2h2v2a1,1,0,0,0,2,0V15h2a1,1,0,0,0,0-2Z"/><path class="cls-1" d="M25,33H19a1,1,0,0,0,0,2h6a1,1,0,0,0,0-2Z"/><path class="cls-1" d="M30,4H27V1a1,1,0,0,0-1-1H18a1,1,0,0,0,0,2h7V5a1,1,0,0,0,1,1h4a1,1,0,0,1,1,1V41a1,1,0,0,1-1,1H14a1,1,0,0,1-1-1V7a1,1,0,0,1,1-1h8a1,1,0,0,0,0-2H14a3,3,0,0,0-3,3V41a3,3,0,0,0,3,3H30a3,3,0,0,0,3-3V7A3,3,0,0,0,30,4Z"/></g></svg>