<svg xmlns="http://www.w3.org/2000/svg" viewBox="0 0 44 44"><defs><style>.cls-1{fill:#fff;}</style></defs><title>cws-icon-trash</title><g id="trash"><path class="cls-1" d="M37,4H30V3a3,3,0,0,0-3-3H17a3,3,0,0,0-3,3V4H7A3,3,0,0,0,4,7V9a3,3,0,0,0,3,3H37a3,3,0,0,0,3-3V7A3,3,0,0,0,37,4Zm1,5a1,1,0,0,1-1,1H7A1,1,0,0,1,6,9V7A1,1,0,0,1,7,6H25a1,1,0,0,0,0-2H16V3a1,1,0,0,1,1-1H27a1,1,0,0,1,1,1V5a1,1,0,0,0,1,1h8a1,1,0,0,1,1,1Z"/><path class="cls-1" d="M21,21V37a1,1,0,0,0,2,0V21a1,1,0,0,0-2,0Z"/><path class="cls-1" d="M28,21v5.45a54.81,54.81,0,0,1-.73,8.87L27,36.84A1,1,0,0,0,27.84,38H28a1,1,0,0,0,1-.84l.25-1.51a56.63,56.63,0,0,0,.76-9.2V21a1,1,0,0,0-2,0Z"/><path class="cls-1" d="M15,20a1,1,0,0,0-1,1v5.45a56.63,56.63,0,0,0,.76,9.2L15,37.16A1,1,0,0,0,16,38h.16A1,1,0,0,0,17,36.84l-.26-1.52A54.81,54.81,0,0,1,16,26.45V21A1,1,0,0,0,15,20Z"/><path class="cls-1" d="M37,14a1,1,0,0,0-1,1v7.91a96.4,96.4,0,0,1-1.32,15.91l-.39,2.35a1,1,0,0,1-1,.83H10.69a1,1,0,0,1-1-.83l-.39-2.35A96.4,96.4,0,0,1,8,22.91V16H33a1,1,0,0,0,0-2H7a1,1,0,0,0-1,1v7.91A99.31,99.31,0,0,0,7.34,39.15l.4,2.34A3,3,0,0,0,10.69,44H33.31a3,3,0,0,0,2.95-2.51l.4-2.34A99.31,99.31,0,0,0,38,22.91V15A1,1,0,0,0,37,14Z"/></g></svg>