<svg xmlns="http://www.w3.org/2000/svg" viewBox="0 0 44 44"><defs><style>.cls-1{fill:#fff;}</style></defs><title>cws-icon-iot</title><g id="IoT"><path class="cls-1" d="M33.69,14.75a1,1,0,0,0-1.36-.37L29,16.32a9,9,0,0,0-6-3.26V10a1,1,0,0,0-2,0v3.06a8.85,8.85,0,0,0-5.36,2.58,6.67,6.67,0,0,0-.62.68l-3.35-1.94a1,1,0,0,0-1,1.74L13.94,18A9,9,0,0,0,13,22a1,1,0,0,0,1,1h4a16.4,16.4,0,0,0,1.06,5.36,7.06,7.06,0,0,1-3.22-3,1,1,0,0,0-.55-.46L15,24.8a1,1,0,0,0-.82.08l-3.47,2a1,1,0,0,0,1,1.74L14.5,27a9,9,0,0,0,6.5,4V34a1,1,0,0,0,2,0V30.94a9,9,0,0,0,6.49-4l2.84,1.64a1,1,0,0,0,.49.13,1,1,0,0,0,.87-.5,1,1,0,0,0-.36-1.37L30.4,25.2A8.84,8.84,0,0,0,30.05,18l3.28-1.89A1,1,0,0,0,33.69,14.75ZM22,15c.54,0,1.79,2.1,2,6H20a17.12,17.12,0,0,1,.36-2.79,1,1,0,0,0-2-.42A21,21,0,0,0,18,21H15.07A7,7,0,0,1,22,15Zm-2,8H24c-.18,3.9-1.43,6-2,6S20.21,26.9,20,23Zm4.87,5.36A16.09,16.09,0,0,0,26,23h1V21H26a16.09,16.09,0,0,0-1.07-5.36,7,7,0,0,1,0,12.72Z"/><path class="cls-1" d="M11.33,10a1,1,0,0,0,.49-.13L20,5.25A3,3,0,1,0,19,3a2.84,2.84,0,0,0,.05.51L10.84,8.13A1,1,0,0,0,11.33,10ZM22,2a1,1,0,1,1-1,1A1,1,0,0,1,22,2Z"/><path class="cls-1" d="M27,6.62l8.11,4.81a3,3,0,0,0,.33,2.07,3,3,0,0,0,1.82,1.4,3,3,0,1,0-.72-5.5h0a3.19,3.19,0,0,0-.42.3L28,4.9a1,1,0,1,0-1,1.72ZM37.5,11.13A1,1,0,1,1,37.74,13a1,1,0,0,1-.61-.47A1,1,0,0,1,37.5,11.13Z"/><path class="cls-1" d="M17,37.38,8.93,32.57A2.92,2.92,0,0,0,8.6,30.5,3,3,0,1,0,6,35a2.93,2.93,0,0,0,1.5-.4,3.19,3.19,0,0,0,.42-.3L16,39.1a1.06,1.06,0,0,0,.51.14,1,1,0,0,0,.86-.49A1,1,0,0,0,17,37.38ZM6.5,32.87a1.05,1.05,0,0,1-.76.1,1,1,0,0,1-.61-.47,1,1,0,1,1,1.37.37Z"/><path class="cls-1" d="M32.18,34.13,24,38.75A3,3,0,0,0,22,38a3,3,0,1,0,3,3,2.84,2.84,0,0,0-.05-.51l8.21-4.62a1,1,0,0,0-1-1.74ZM22,42a1,1,0,1,1,1-1A1,1,0,0,1,22,42Z"/><path class="cls-1" d="M5,14.82V26a1,1,0,0,0,2,0V14.82a3,3,0,1,0-2,0ZM6,11a1,1,0,1,1-1,1A1,1,0,0,1,6,11Z"/><path class="cls-1" d="M39,29.18V18a1,1,0,0,0-2,0V29.18a3,3,0,1,0,2,0ZM38,33a1,1,0,1,1,1-1A1,1,0,0,1,38,33Z"/></g></svg>