<svg xmlns="http://www.w3.org/2000/svg" viewBox="0 0 44 44"><defs><style>.cls-1{fill:#fff;}</style></defs><title>cws-icon-collecting</title><g id="collecting"><path class="cls-1" d="M43.71,29.29a6.64,6.64,0,0,0-7.84-1.14l-4.2,2A9.53,9.53,0,0,1,28,31a4.91,4.91,0,0,0,1-3,2,2,0,0,0-2-2H16.63a9,9,0,0,0-6.77,3.07l-3.54,4A3,3,0,0,0,4,32H1a1,1,0,0,0,0,2H4a1,1,0,0,1,1,1v6a1,1,0,0,1-1,1H1a1,1,0,0,0,0,2H4a3,3,0,0,0,2.82-2h5.52a13.71,13.71,0,0,0,1.43-.08l14.09-1.56a13,13,0,0,0,6.36-2.53l9.38-7a1,1,0,0,0,.4-.73A1,1,0,0,0,43.71,29.29ZM33,36.23a11,11,0,0,1-5.39,2.14L13.55,39.93a9.82,9.82,0,0,1-1.21.07H7V35.38l4.36-5A7,7,0,0,1,16.63,28H27a3,3,0,0,1-3,3H18a1,1,0,0,0,0,2h9.69a11.5,11.5,0,0,0,4.83-1.07l4.26-2a4.65,4.65,0,0,1,4.57.05Z"/><path class="cls-1" d="M21,24a6,6,0,1,0-6-6A6,6,0,0,0,21,24Zm0-10a4,4,0,1,1-4,4A4,4,0,0,1,21,14Z"/><path class="cls-1" d="M34,18a5,5,0,1,0-5-5A5,5,0,0,0,34,18Zm0-8a3,3,0,1,1-3,3A3,3,0,0,1,34,10Z"/><path class="cls-1" d="M24,8a4,4,0,1,0-4-4A4,4,0,0,0,24,8Zm0-6a2,2,0,1,1-2,2A2,2,0,0,1,24,2Z"/></g></svg>