<svg xmlns="http://www.w3.org/2000/svg" viewBox="0 0 44 44"><defs><style>.cls-1{fill:#fff;}</style></defs><title>cws-icon-electricity</title><g id="electricity"><circle class="cls-1" cx="22" cy="36" r="1"/><circle class="cls-1" cx="26" cy="36" r="1"/><circle class="cls-1" cx="18" cy="36" r="1"/><path class="cls-1" d="M13,9h4a1,1,0,0,0,.63-.22L21,6.08V12a1,1,0,0,0,.57.9A.94.94,0,0,0,22,13a1,1,0,0,0,.63-.22L27.35,9H31a1,1,0,0,0,0-2H27a1,1,0,0,0-.62.22L23,9.92V4a1,1,0,0,0-.57-.9,1,1,0,0,0-1.05.12L16.65,7H13a1,1,0,0,0,0,2Z"/><path class="cls-1" d="M41,31h-.43a3,3,0,0,1-2.91-2.3A15.92,15.92,0,0,0,36.4,25a1,1,0,1,0-1.8.88,13.46,13.46,0,0,1,1.1,3.22A5,5,0,0,0,40.57,33H41a1,1,0,0,1,1,1v4a1,1,0,0,1-1,1H3a1,1,0,0,1-1-1V34a1,1,0,0,1,1-1h.43A5,5,0,0,0,8.3,29.11a13.46,13.46,0,0,1,1.1-3.22A1,1,0,0,0,7.6,25,15.92,15.92,0,0,0,6.34,28.7,3,3,0,0,1,3.43,31H3a3,3,0,0,0-3,3v4a3,3,0,0,0,3,3H41a3,3,0,0,0,3-3V34A3,3,0,0,0,41,31Z"/><path class="cls-1" d="M5,11.87v3.64a7,7,0,0,0,2.05,5l2.66,2.7a1,1,0,0,0,.76.3,1,1,0,0,0,.73-.36,14,14,0,0,1,21.6,0,1,1,0,0,0,.73.36h0a1,1,0,0,0,.71-.3L37,20.47a7,7,0,0,0,2-5V11.87A4,4,0,1,0,34,8a1,1,0,0,0,2,0,2,2,0,1,1,2,2,1,1,0,0,0-1,1v4.51a5,5,0,0,1-1.47,3.55L33.62,21a16,16,0,0,0-23.24,0L8.46,19.05A5,5,0,0,1,7,15.51V11a1,1,0,0,0-1-1A2,2,0,1,1,8,8a1,1,0,0,0,2,0,4,4,0,1,0-5,3.87Z"/><path class="cls-1" d="M33,32a11,11,0,0,0-22,0,1,1,0,0,0,1,1H22a1,1,0,0,0,.89-.55l3-6a1,1,0,0,0-1.78-.9L21.38,31H13.06a9,9,0,0,1,17.88,0H26a1,1,0,0,0,0,2h6A1,1,0,0,0,33,32Z"/></g></svg>