<svg xmlns="http://www.w3.org/2000/svg" viewBox="0 0 44 44"><defs><style>.cls-1{fill:#fffafc;}</style></defs><g id="lightning"><path class="cls-1" d="M11.59,11a1,1,0,0,0,1-.74,4.26,4.26,0,0,1,4-3.26,1,1,0,0,0,0-2,6.27,6.27,0,0,0-6,4.74A1,1,0,0,0,11.33,11,1.09,1.09,0,0,0,11.59,11Z"/><path class="cls-1" d="M37,15a6,6,0,0,1-3.43,5.42,1,1,0,0,0-.48,1.34,1,1,0,0,0,.91.57,1,1,0,0,0,.43-.1A8,8,0,0,0,32.14,7.08a1,1,0,0,0-.28,2A6,6,0,0,1,37,15Z"/><path class="cls-1" d="M41.6,18.2a1,1,0,0,0-1.2,1.6A4,4,0,0,1,42,23a4,4,0,0,1-4,4H32.41a1,1,0,1,0,0,2H38a6,6,0,0,0,3.6-10.8Z"/><path class="cls-1" d="M8,15a6,6,0,0,1,4.92,2.57,1,1,0,0,0,1.65-1.14A8,8,0,1,0,8,29h4.41a1,1,0,0,0,0-2H8A6,6,0,0,1,8,15Z"/><path class="cls-1" d="M18,1A12,12,0,0,0,6.45,9.73,1,1,0,0,0,7.14,11a1,1,0,0,0,1.24-.69A10,10,0,0,1,28,13a1,1,0,0,0,2,0A12,12,0,0,0,18,1Z"/><path class="cls-1" d="M28.59,27H24.53l3.87-5.42a1,1,0,0,0,.08-1,1,1,0,0,0-.89-.54h-4a1,1,0,0,0,0,2h2.05l-3.87,5.42A1,1,0,0,0,22.59,29h3.82L18.9,37.76l1.64-5.47A1,1,0,0,0,19.59,31H16.14l4.36-9.59a1,1,0,0,0-.5-1.32,1,1,0,0,0-1.32.5l-5,11a1,1,0,0,0,.07.95,1,1,0,0,0,.84.46h3.65l-2.61,8.71a1,1,0,0,0,.48,1.17,1,1,0,0,0,1.24-.23l12-14A1,1,0,0,0,28.59,27Z"/></g></svg>