<svg xmlns="http://www.w3.org/2000/svg" viewBox="0 0 44 44"><defs><style>.cls-1{fill:#fff;}</style></defs><g id="forest"><path class="cls-1" d="M14.55,12.88l1.11.55-3.55,7.11a1,1,0,0,0,.44,1.34l1.11.56-1.05,2.1a1,1,0,0,0,.44,1.35,1,1,0,0,0,.45.1,1,1,0,0,0,.89-.55l1.5-3a1,1,0,0,0-.44-1.35l-1.11-.55,3.55-7.11a1,1,0,0,0-.44-1.34l-.91-.45,5.46-7,5.46,7-.91.45a1,1,0,0,0-.44,1.34l3.55,7.11-1.11.55a1,1,0,0,0-.44,1.35l1.49,3a1,1,0,0,0,1.35.45,1,1,0,0,0,.44-1.35l-1.05-2.1,1.11-.56a1,1,0,0,0,.44-1.34l-3.55-7.11,1.11-.55a1,1,0,0,0,.53-.67,1,1,0,0,0-.19-.84l-7-9a1,1,0,0,0-1.58,0l-7,9a1,1,0,0,0-.19.84A1,1,0,0,0,14.55,12.88Z"/><path class="cls-1" d="M43.89,28.55l-3.55-7.11,1.11-.56a1,1,0,0,0,.38-1.45l-3.37-5.06,1-.49a1,1,0,0,0,.51-.62,1,1,0,0,0-.11-.81l-5-8A1,1,0,0,0,34,4a1,1,0,0,0-.84.4l-3,4a1,1,0,0,0,1.6,1.2l2.12-2.83,3.65,5.83-1,.51a1,1,0,0,0-.52.64,1,1,0,0,0,.14.81l3.37,5.06-1,.49a1,1,0,0,0-.44,1.35L41.38,28H32.5a1,1,0,0,0-1,1,1,1,0,0,0,.12.45h0L32.38,31H11.62l.77-1.53a1.08,1.08,0,0,0,.1-.35A1,1,0,0,0,11.73,28a.93.93,0,0,0-.54,0H2.62l3.27-6.55a1,1,0,0,0-.44-1.35l-1-.49,3.37-5.06A1,1,0,0,0,8,13.73a1,1,0,0,0-.52-.64l-1-.51,3.65-5.83L12.2,9.58a1,1,0,0,0,1.6-1.2l-3-4A1,1,0,0,0,10,4a1,1,0,0,0-.81.47l-5,8a1,1,0,0,0-.11.81,1,1,0,0,0,.51.62l1,.49L2.17,19.43a1,1,0,0,0,.38,1.45l1.11.56L.11,28.55a1,1,0,0,0,0,1A1,1,0,0,0,1,30H6v6a1,1,0,0,1-1,1H4a1,1,0,0,0,0,2H5a3,3,0,0,0,3-3V30H9.89c-.22.43-.48.94-.78,1.56A1,1,0,0,0,10,33h8v6a1,1,0,0,1-1,1H16a1,1,0,0,0,0,2h1a3,3,0,0,0,3-3V33H34a1,1,0,0,0,.89-1.45L34.12,30H36v6a3,3,0,0,0,3,3h1a1,1,0,0,0,0-2H39a1,1,0,0,1-1-1V30h5a1,1,0,0,0,.85-.47A1,1,0,0,0,43.89,28.55Z"/><path class="cls-1" d="M33,35a1,1,0,0,0-1,1v2a1,1,0,0,0,2,0V36A1,1,0,0,0,33,35Z"/><path class="cls-1" d="M11,35a1,1,0,0,0-1,1v2a1,1,0,0,0,2,0V36A1,1,0,0,0,11,35Z"/><path class="cls-1" d="M28,40H27a1,1,0,0,1-1-1V36a1,1,0,0,0-2,0v3a3,3,0,0,0,.17,1H22a1,1,0,0,0,0,2h6a1,1,0,0,0,0-2Z"/></g></svg>