<svg xmlns="http://www.w3.org/2000/svg" viewBox="0 0 44 44"><defs><style>.cls-1{fill:#fff;}</style></defs><g id="microscope"><path class="cls-1" d="M12,20a1,1,0,0,0,1-1V7a1,1,0,0,1,1-1h6a1,1,0,0,1,1,1V8a1,1,0,0,0,2,0V7a3,3,0,0,0-3-3V2a1,1,0,0,0,0-2H14a1,1,0,0,0,0,2V4a3,3,0,0,0-3,3V19A1,1,0,0,0,12,20ZM16,2h2V4H16Z"/><path class="cls-1" d="M25,12h-.38A4,4,0,1,0,21,18.86v3.9L19.38,26H14.62l-1-2H18a1,1,0,0,0,0-2H12a1,1,0,0,0-.89,1.45l2,4A1,1,0,0,0,14,28h6a1,1,0,0,0,.89-.55l2-4A1,1,0,0,0,23,23V18.86A4,4,0,0,0,24.62,18H25a9,9,0,0,1,9,9v6a3,3,0,0,1-2.53,3L28.8,32.4A1,1,0,0,0,28,32H7a1,1,0,0,0,0,2H27.5l2.7,3.6a1,1,0,0,0,.8.4,5,5,0,0,0,5-5V27A11,11,0,0,0,25.84,16,3.59,3.59,0,0,0,26,15a3.83,3.83,0,0,0-.13-1A13,13,0,0,1,38,27v6a7,7,0,0,1-7,7,1,1,0,0,0-1,1v1H6V39a1,1,0,0,1,1-1H24a1,1,0,0,0,0-2H7a3,3,0,0,0-3,3v4a1,1,0,0,0,1,1H31a1,1,0,0,0,1-1V41.94A9,9,0,0,0,40,33V27A15,15,0,0,0,25,12Zm-5,3a2,2,0,1,1,2,2A2,2,0,0,1,20,15Z"/></g></svg>