<svg xmlns="http://www.w3.org/2000/svg" viewBox="0 0 44 44"><defs><style>.cls-1{fill:#fff;}</style></defs><title>Artboard 5</title><g id="chat"><path class="cls-1" d="M21,23a3,3,0,1,0-3,3A3,3,0,0,0,21,23Zm-4,0a1,1,0,1,1,1,1A1,1,0,0,1,17,23Z"/><path class="cls-1" d="M29,23a3,3,0,1,0-3,3A3,3,0,0,0,29,23Zm-4,0a1,1,0,1,1,1,1A1,1,0,0,1,25,23Z"/><path class="cls-1" d="M13,23a3,3,0,1,0-3,3A3,3,0,0,0,13,23ZM9,23a1,1,0,1,1,1,1A1,1,0,0,1,9,23Z"/><path class="cls-1" d="M38.33,24.63A1,1,0,0,0,39,26.37a1,1,0,0,0,.67-.26A12.35,12.35,0,0,0,44,17C44,9.28,35.93,3,26,3c-6.71,0-12.75,2.84-15.89,7.41C4,12.75,0,17.65,0,23a12.35,12.35,0,0,0,4.33,9.11,1,1,0,1,0,1.34-1.48A10.37,10.37,0,0,1,2,23c0-4.58,3.57-8.83,9.1-10.83A20.49,20.49,0,0,1,18,11c8.82,0,16,5.38,16,12a9.87,9.87,0,0,1-2.44,6.36C28.6,32.89,23.53,35,18,35a21.08,21.08,0,0,1-3.08-.23,7,7,0,0,0-4.59.87L6,38.23V35a1,1,0,0,0-2,0v5a1,1,0,0,0,.51.87A1,1,0,0,0,5,41a1,1,0,0,0,.51-.14l5.85-3.51a4.91,4.91,0,0,1,3.27-.6A22.29,22.29,0,0,0,18,37c5.78,0,11.11-2.14,14.5-5.73l6,3.59A1,1,0,0,0,39,35a1,1,0,0,0,.49-.13A1,1,0,0,0,40,34V29a1,1,0,0,0-2,0v3.23l-4.2-2.51A11.63,11.63,0,0,0,36,23c0-7.72-8.07-14-18-14a23.59,23.59,0,0,0-4.39.43A18.59,18.59,0,0,1,26,5c8.82,0,16,5.38,16,12A10.37,10.37,0,0,1,38.33,24.63Z"/></g></svg>