<svg id="burj_al_arab" xmlns="http://www.w3.org/2000/svg" viewBox="0 0 44 44"><defs><style>.cls-1{fill:#fff;}</style></defs><path class="cls-1" d="M34,42H29.1A34.29,34.29,0,0,0,31,30.61,34.49,34.49,0,0,0,29,19v0a5,5,0,0,1,4.9-5H34a1,1,0,0,0,0-2H25.43A23.5,23.5,0,0,0,15,3.34V1a1,1,0,0,0-2,0V12H12a1,1,0,0,0,0,2h1V42H10a1,1,0,0,0,0,2H34a1,1,0,0,0,0-2ZM29.11,14A6.77,6.77,0,0,0,27.71,16c-.32-.66-.67-1.32-1-1.95ZM15,5.5A21.33,21.33,0,0,1,23,12H15ZM15,39H25a1,1,0,0,0,0-2H15V34H26a1,1,0,0,0,0-2H15V29H26a1,1,0,0,0,0-2H15V24H25a1,1,0,0,0,0-2H15V19h8a1,1,0,0,0,0-2H15V14h9.36A31.25,31.25,0,0,1,29,30.61,32.29,32.29,0,0,1,27,42H15Z"/></svg>