<svg xmlns="http://www.w3.org/2000/svg" viewBox="0 0 44 44"><defs><style>.cls-1{fill:#fff;}</style></defs><g id="flask"><path class="cls-1" d="M29.5,13.87A1,1,0,0,1,29,13V9a1,1,0,0,0-2,0v4a3,3,0,0,0,1.56,2.63A14,14,0,1,1,8,28.69,15.36,15.36,0,0,0,14.36,30a14.59,14.59,0,0,0,7.9-2.18,13.54,13.54,0,0,1,10.48-1.37A1,1,0,0,0,34,25.76a1,1,0,0,0-.71-1.22,15.64,15.64,0,0,0-12.09,1.62,13.53,13.53,0,0,1-13.09.32,13.88,13.88,0,0,1,7.36-10.84A3,3,0,0,0,17,13V5a1,1,0,0,0-1-1H15a1,1,0,0,1-1-1.18A1.09,1.09,0,0,1,15.11,2H29a1,1,0,0,1,.76.35,1,1,0,0,1,.23.83,1.09,1.09,0,0,1-1.1.82H20a1,1,0,0,0,0,2h8.89A3.09,3.09,0,0,0,32,3.5,3,3,0,0,0,29,0H15.11A3.09,3.09,0,0,0,12,2.5,3,3,0,0,0,15,6v7a1,1,0,0,1-.5.86A15.88,15.88,0,0,0,6.06,26.71a1.08,1.08,0,0,0,0,.5c0,.46,0,.93,0,1.39A16.08,16.08,0,0,0,21.21,44l.8,0A16,16,0,0,0,29.5,13.87Z"/><circle class="cls-1" cx="25" cy="30" r="1"/><circle class="cls-1" cx="16" cy="33" r="1"/><circle class="cls-1" cx="21" cy="37" r="1"/><circle class="cls-1" cx="28" cy="34" r="1"/></g></svg>