<svg xmlns="http://www.w3.org/2000/svg" viewBox="0 0 44 44"><defs><style>.cls-1{fill:#fff;}</style></defs><g id="gift"><path class="cls-1" d="M41,11H37V5.72A2.72,2.72,0,0,0,34.28,3a2.82,2.82,0,0,0-.86.14L25.73,5.7a4.94,4.94,0,0,0-7.46,0L10.58,3.14A2.82,2.82,0,0,0,9.72,3,2.72,2.72,0,0,0,7,5.72V11H3a3,3,0,0,0-3,3v4a3,3,0,0,0,2,2.83V38a3,3,0,0,0,3,3H39a3,3,0,0,0,3-3V24a1,1,0,0,0-2,0V38a1,1,0,0,1-1,1H27V24a1,1,0,0,0-2,0V39H19V24a1,1,0,0,0-2,0V39H5a1,1,0,0,1-1-1V20a1,1,0,0,0-1-1,1,1,0,0,1-1-1V14a1,1,0,0,1,1-1H7.11a2.71,2.71,0,0,0,2.61,2,2.82,2.82,0,0,0,.86-.14l4.74-1.58a1,1,0,0,0-.64-1.9L10,13A.73.73,0,0,1,9,12.28V5.72A.74.74,0,0,1,10,5l7.31,2.43A5.17,5.17,0,0,0,17,9a5,5,0,1,0,9.74-1.52L34.05,5a.73.73,0,0,1,1,.68v6.56a.74.74,0,0,1-1,.68l-4.73-1.57a1,1,0,1,0-.63,1.89l4.73,1.58a2.82,2.82,0,0,0,.86.14,2.71,2.71,0,0,0,2.61-2H41a1,1,0,0,1,1,1v4a1,1,0,0,1-1,1H27V16a1,1,0,0,0-2,0v3H19V16a1,1,0,0,0-2,0v3H7a1,1,0,0,0,0,2H41a3,3,0,0,0,3-3V14A3,3,0,0,0,41,11ZM22,12a3,3,0,1,1,3-3A3,3,0,0,1,22,12Z"/></g></svg>