<svg xmlns="http://www.w3.org/2000/svg" viewBox="0 0 44 44"><defs><style>.cls-1{fill:#fff;}</style></defs><title>cws-icon-chair</title><g id="chair"><circle class="cls-1" cx="19" cy="7" r="1"/><circle class="cls-1" cx="25" cy="7" r="1"/><circle class="cls-1" cx="19" cy="15" r="1"/><circle class="cls-1" cx="25" cy="15" r="1"/><circle class="cls-1" cx="22" cy="11" r="1"/><path class="cls-1" d="M31,40a2.09,2.09,0,0,0-.51.07l-1.61-1.61A5,5,0,0,0,25.34,37H23V34h1a1,1,0,0,0,0-2H20a1,1,0,0,0,0,2h1v3H18.66a5,5,0,0,0-3.54,1.46l-1.61,1.61A2.09,2.09,0,0,0,13,40a2,2,0,1,0,2,2,1.7,1.7,0,0,0-.08-.51l1.61-1.61A3,3,0,0,1,18.66,39H21v1.28A2,2,0,0,0,20,42a2,2,0,1,0,3-1.72V39h2.34a3,3,0,0,1,2.12.88l1.61,1.61A2.09,2.09,0,0,0,29,42a2,2,0,1,0,2-2Z"/><path class="cls-1" d="M38.5,15h-3a2.5,2.5,0,0,0,0,5H36v5a1,1,0,0,1-1,1H33.82A3,3,0,0,0,31,24H28a1,1,0,0,0,0,2h3a1,1,0,0,1,0,2H13a1,1,0,0,1-1-1h0a1,1,0,0,1,1-1H24a1,1,0,0,0,.71-.29A1,1,0,0,0,25,25V22h3.11a3,3,0,0,0,3-2.82L32,4V3a3,3,0,0,0-3-3H15a3,3,0,0,0-3,3V4.06l.89,15.11a3,3,0,0,0,3,2.83,1,1,0,0,0,0-2,1,1,0,0,1-1-.94L14,4V3a1,1,0,0,1,1-1H29a1,1,0,0,1,1,1v.94l-.89,15.12a1,1,0,0,1-1,.94H20a1,1,0,0,0-1,1v3H13a3,3,0,0,0-2.12.88,3.07,3.07,0,0,0-.7,1.12H9a1,1,0,0,1-1-1V20h.5a2.5,2.5,0,0,0,0-5h-3a2.5,2.5,0,0,0,0,5H6v5a3,3,0,0,0,3,3h1.18A3,3,0,0,0,13,30H31a3,3,0,0,0,2.82-2H35a3,3,0,0,0,3-3V20h.5a2.5,2.5,0,0,0,0-5ZM21,22h2v2H21ZM5,17.5a.5.5,0,0,1,.5-.5h3a.5.5,0,0,1,0,1h-3A.5.5,0,0,1,5,17.5Zm33.5.5h-3a.5.5,0,0,1,0-1h3a.5.5,0,0,1,0,1Z"/></g></svg>