<svg xmlns="http://www.w3.org/2000/svg" viewBox="0 0 44 44"><defs><style>.cls-1{fill:#fff;}</style></defs><g id="butterfly"><path class="cls-1" d="M43,5.86A2.28,2.28,0,0,0,41.23,5c-7,0-13.17,4.23-16.23,7.23V11a3,3,0,0,0-2-2.82V7a3,3,0,0,1,3-3,1,1,0,0,0,0-2,5,5,0,0,0-4,2,5,5,0,0,0-4-2,1,1,0,0,0,0,2,3,3,0,0,1,3,3V8.18A3,3,0,0,0,19,11v1.23C15.94,9.23,9.75,5,2.77,5A2.28,2.28,0,0,0,1,5.86C.19,6.79-.67,8.91.8,16.5a15.47,15.47,0,0,0,9.84,11.43,1,1,0,1,0,.72-1.86,13.5,13.5,0,0,1-8.6-9.95c-1.35-7-.54-8.65-.26-9A.3.3,0,0,1,2.77,7c8.36,0,15.47,6.71,16.34,8.45A1,1,0,0,0,21,15V11a1,1,0,0,1,2,0v4a1,1,0,0,0,1.89.45c.87-1.74,8-8.45,16.34-8.45a.3.3,0,0,1,.27.13c.28.34,1.09,2-.26,9a13.5,13.5,0,0,1-8.6,10,1,1,0,0,0-.58,1.29A1,1,0,0,0,33,28a.92.92,0,0,0,.36-.07A15.47,15.47,0,0,0,43.2,16.5C44.67,8.91,43.81,6.79,43,5.86Z"/><circle class="cls-1" cx="13" cy="35" r="1"/><circle class="cls-1" cx="31" cy="35" r="1"/><circle class="cls-1" cx="38" cy="12" r="1"/><circle class="cls-1" cx="34" cy="17" r="1"/><circle class="cls-1" cx="30" cy="22" r="1"/><circle class="cls-1" cx="6" cy="12" r="1"/><circle class="cls-1" cx="10" cy="17" r="1"/><circle class="cls-1" cx="14" cy="22" r="1"/><path class="cls-1" d="M23,34V19a1,1,0,0,0-2,0V34a1,1,0,0,0,2,0Z"/><path class="cls-1" d="M35.89,30.1a1,1,0,0,0-.47,1.33A6,6,0,0,1,30,40a5.65,5.65,0,0,1-5.14-2.52A1,1,0,0,0,23.73,37,1,1,0,0,0,23,38v1a1,1,0,0,1-2,0V38a1,1,0,0,0-.73-1,1,1,0,0,0-1.13.44A5.65,5.65,0,0,1,14,40a6,6,0,0,1-5.42-8.57,1,1,0,0,0-1.81-.86A8,8,0,0,0,14,42a8.3,8.3,0,0,0,5.3-1.69,3,3,0,0,0,5.4,0A8.3,8.3,0,0,0,30,42a8,8,0,0,0,7.23-11.43A1,1,0,0,0,35.89,30.1Z"/></g></svg>