<svg id="transmission" xmlns="http://www.w3.org/2000/svg" viewBox="0 0 44 44"><defs><style>.cls-1{fill:#fff;}</style></defs><title>cws-icon-transmission</title><path class="cls-1" d="M39,10H37a1,1,0,0,0,0,2h2a1,1,0,0,0,0-2Z"/><path class="cls-1" d="M39,14H37a1,1,0,0,0,0,2h2a1,1,0,0,0,0-2Z"/><path class="cls-1" d="M5,12H7a1,1,0,0,0,0-2H5a1,1,0,0,0,0,2Z"/><path class="cls-1" d="M7,16a1,1,0,0,0,0-2H5a1,1,0,0,0,0,2Z"/><path class="cls-1" d="M36.71,40.29A1,1,0,0,0,36,40H33.84L28.24,8H39a1,1,0,0,0,.42-1.91l-13-6A1,1,0,0,0,26,0H18a1,1,0,0,0-.42.09l-13,6A1,1,0,0,0,5,8H15.76L11,35.11a1,1,0,0,0,.81,1.16l.17,0a1,1,0,0,0,1-.83l1.24-7.06L28.34,38.81a1,1,0,0,0,.59.19,1,1,0,0,0,.8-.41,1,1,0,0,0-.21-1.4l-5.83-4.3,6.09-4.49,2,11.6H14l5.7-4.19a1,1,0,0,0-1.19-1.62L10.67,40H8a1,1,0,0,0-.71.29l-2,2a1,1,0,0,0,1.42,1.42L8.41,42H35.59l1.7,1.71a1,1,0,0,0,1.42,0,1,1,0,0,0,0-1.42ZM17.65,17l2-1.63a1,1,0,0,0,.14-1.41,1,1,0,0,0-1.4-.14l-1.86,1.52,1-5.59,7.43,6.07a1,1,0,0,0,.64.23,1,1,0,0,0,.63-1.77l-2.61-2.14L26.51,9.7,27.62,16l-5.62,4ZM16,6H9.55l8.67-4h7.56l8.67,4H27.89l-.2-1.17A1,1,0,0,0,26.53,4a1,1,0,0,0-.81,1.15l.14.83H21a1,1,0,0,0,0,2h4.42L22,10.8,17.89,7.44l.39-2.27A1,1,0,0,0,17.47,4a1,1,0,0,0-1.16.81L16.11,6Zm6,25.65L15.7,27l3.88-2.77a1,1,0,0,0-1.16-1.63l-3.64,2.61,1.22-7,10.42,7.44a1,1,0,0,0,.58.19A1,1,0,0,0,27.58,24l-3.86-2.75L28,18.23l1.4,8Z"/></svg>