<svg xmlns="http://www.w3.org/2000/svg" viewBox="0 0 44 44"><defs><style>.cls-1{fill:#fff;}</style></defs><title>cws-icon-inbox</title><g id="inbox"><path class="cls-1" d="M6,14v9a1,1,0,0,0,2,0V14a1,1,0,0,1,1-1H35a1,1,0,0,1,1,1v9a1,1,0,0,0,2,0V14a3,3,0,0,0-3-3H9A3,3,0,0,0,6,14Z"/><path class="cls-1" d="M32.46,15.16l-8.85,5.63a3,3,0,0,1-3.22,0l-8.85-5.63a1,1,0,1,0-1.08,1.68l8.86,5.64a5,5,0,0,0,5.36,0l8.86-5.64a1,1,0,1,0-1.08-1.68Z"/><path class="cls-1" d="M10,10H34a1,1,0,0,0,0-2H10a1,1,0,0,0,0,2Z"/><path class="cls-1" d="M12,7H32a1,1,0,0,0,0-2H12a1,1,0,0,0,0,2Z"/><path class="cls-1" d="M43,30a1,1,0,0,0-1,1v5a1,1,0,0,1-1,1H3a1,1,0,0,1-1-1V11a1,1,0,0,1,1-1H6A1,1,0,0,0,6,8H3a3,3,0,0,0-3,3V36a3,3,0,0,0,3,3H41a3,3,0,0,0,3-3V31A1,1,0,0,0,43,30Z"/><path class="cls-1" d="M41,8H38a1,1,0,0,0,0,2h3a1,1,0,0,1,1,1V26H31.24a3,3,0,0,0-2.69,1.66l-.89,1.79a1,1,0,0,1-.9.55H17.24a1,1,0,0,1-.9-.55l-.89-1.79A3,3,0,0,0,12.76,26H5a1,1,0,0,0,0,2h7.76a1,1,0,0,1,.9.55l.89,1.79A3,3,0,0,0,17.24,32h9.52a3,3,0,0,0,2.69-1.66l.89-1.79a1,1,0,0,1,.9-.55H43a1,1,0,0,0,1-1V11A3,3,0,0,0,41,8Z"/></g></svg>