<svg xmlns="http://www.w3.org/2000/svg" viewBox="0 0 44 44"><defs><style>.cls-1{fill:#fff;}</style></defs><title>cws-icon-pc-lock</title><g id="pc_lock"><circle class="cls-1" cx="22" cy="31" r="1"/><path class="cls-1" d="M43,30a1,1,0,0,0-1,1v2a1,1,0,0,1-1,1H18a1,1,0,0,0-1,1v4a1,1,0,0,1-1,1H15a1,1,0,0,0,0,2H29a1,1,0,0,0,0-2H28a1,1,0,0,1-1-1V36H41a3,3,0,0,0,3-3V31A1,1,0,0,0,43,30ZM25,39a3,3,0,0,0,.18,1H18.82A3,3,0,0,0,19,39V36h6Z"/><path class="cls-1" d="M41,2H3A3,3,0,0,0,0,5V33a3,3,0,0,0,3,3H14a1,1,0,0,0,0-2H3a1,1,0,0,1-1-1V28h9a1,1,0,0,0,0-2H2V5A1,1,0,0,1,3,4H41a1,1,0,0,1,1,1V26H17a1,1,0,0,1-1-1V18a1,1,0,0,1,1-1H27a1,1,0,0,1,1,1v5a1,1,0,0,0,2,0V18a3,3,0,0,0-3-3V11a5,5,0,0,0-10,0v4a3,3,0,0,0-3,3v7a3,3,0,0,0,3,3H43a1,1,0,0,0,1-1V5A3,3,0,0,0,41,2ZM19,11a3,3,0,0,1,6,0v4H19Z"/><path class="cls-1" d="M21,20v3a1,1,0,0,0,2,0V20a1,1,0,0,0-2,0Z"/></g></svg>