<svg xmlns="http://www.w3.org/2000/svg" viewBox="0 0 44 44"><defs><style>.cls-1{fill:#fff;}</style></defs><title>cws-icon-bus</title><g id="bus"><path class="cls-1" d="M14,21V15a1,1,0,0,0-2,0v5H6V12H19v8H17a1,1,0,0,0,0,2h3a1,1,0,0,0,1-1V11a1,1,0,0,0-1-1H5a1,1,0,0,0-1,1V21a1,1,0,0,0,1,1h8A1,1,0,0,0,14,21Z"/><circle class="cls-1" cx="11" cy="33" r="1"/><circle class="cls-1" cx="35" cy="33" r="1"/><path class="cls-1" d="M42,19.6l-3.27-1.09a1,1,0,0,1-.68-1V9a3,3,0,0,0-3-3H3A3,3,0,0,0,0,9V31a3,3,0,0,0,3,3,1,1,0,0,0,0-2,1,1,0,0,1-1-1V9A1,1,0,0,1,3,8H35a1,1,0,0,1,1,1v8.56a3,3,0,0,0,2,2.84l3.27,1.09a1,1,0,0,1,.68,1V25H41a1,1,0,0,0,0,2h1v4a1,1,0,0,1-1,1H39.9A5,5,0,0,0,35,28a4.9,4.9,0,0,0-1,.11S34,28,34,28V11a1,1,0,0,0-1-1H24a1,1,0,0,0-1,1V32H15.9a5,5,0,1,0,0,2H24a1,1,0,0,0,1-1V29h7a5,5,0,0,0-1.93,3H28a1,1,0,0,0,0,2h2.1a5,5,0,0,0,9.8,0H41a3,3,0,0,0,3-3V22.44A3,3,0,0,0,42,19.6ZM11,36a3,3,0,1,1,3-3A3,3,0,0,1,11,36ZM25,24h2a1,1,0,0,1,1,1,1,1,0,0,0,2,0,3,3,0,0,0-3-3H25V12h7v5a1,1,0,0,0-.71.29l-2,2a1,1,0,0,0,0,1.42,1,1,0,0,0,1.42,0L32,19.41V27H25ZM35,36a3,3,0,1,1,3-3A3,3,0,0,1,35,36Z"/></g></svg>