<svg xmlns="http://www.w3.org/2000/svg" viewBox="0 0 64 56"><defs><style>.cls-1{fill:#fff;}</style></defs><g id="corset"><path class="cls-1" d="M47.8,15.33a8.51,8.51,0,0,1,0,.88,7.76,7.76,0,0,1-1.3,4.43,6.35,6.35,0,0,1-5.45,2.57,8.08,8.08,0,0,1-3.78-1,1,1,0,0,0-1.35.41A1,1,0,0,0,36.37,24a10.15,10.15,0,0,0,4.72,1.2,8.21,8.21,0,0,0,7.08-3.42,9.72,9.72,0,0,0,1.67-5.58,10.18,10.18,0,0,0-.06-1.11,1,1,0,1,0-2,.23Z"/><path class="cls-1" d="M18.84,12.21h.73a13.81,13.81,0,0,1,12.27,7.26V44.21a1,1,0,1,0,2,0V19.47a13.82,13.82,0,0,1,12.28-7.26h.72a1,1,0,0,0,1-.8l1-5a1,1,0,0,0-2-.39L46,10.21a15.85,15.85,0,0,0-13.18,7,15.83,15.83,0,0,0-13.18-7L18.83,6a1,1,0,0,0-2,.39l1,5A1,1,0,0,0,18.84,12.21Z"/><path class="cls-1" d="M24.6,25.21A10.11,10.11,0,0,0,29.31,24a1,1,0,1,0-.93-1.77,8.11,8.11,0,0,1-3.78,1c-5,0-6.76-3.77-6.76-7a8.85,8.85,0,0,1,.05-.89,1,1,0,1,0-2-.22,10.34,10.34,0,0,0-.07,1.11C15.84,20.55,18.59,25.21,24.6,25.21Z"/><path class="cls-1" d="M40.09,27.25a1,1,0,0,0-1.23.69,25.65,25.65,0,0,0-1,7.19,26.42,26.42,0,0,0,.78,6.32l.25,1a1,1,0,0,0,1,.75,1.07,1.07,0,0,0,.25,0A1,1,0,0,0,40.81,42l-.25-1a24.37,24.37,0,0,1-.72-5.83,24,24,0,0,1,.94-6.64A1,1,0,0,0,40.09,27.25Z"/><path class="cls-1" d="M24.87,42a1,1,0,0,0,.73,1.21,1.07,1.07,0,0,0,.25,0,1,1,0,0,0,1-.75l.26-1a26.41,26.41,0,0,0,.77-6.32,26.14,26.14,0,0,0-1-7.2,1,1,0,1,0-1.92.56,24,24,0,0,1,.93,6.64A24.36,24.36,0,0,1,25.13,41Z"/><path class="cls-1" d="M46.87,42a19.16,19.16,0,0,1-1.09-14.51,1,1,0,0,0-1.9-.62,21.14,21.14,0,0,0,1.2,16l1.15,2.29h-3a28.83,28.83,0,0,0-10.39,1.93,28.74,28.74,0,0,0-10.38-1.93h-3l1.15-2.29a21.3,21.3,0,0,0,2.23-9.47,21,21,0,0,0-1.05-6.59,1,1,0,0,0-1.26-.64,1,1,0,0,0-.64,1.26,19.22,19.22,0,0,1,.95,6,19.35,19.35,0,0,1-2,8.58L17,45.77a1,1,0,0,0,0,1,1,1,0,0,0,.85.47h4.62a26.81,26.81,0,0,1,10,1.93,1,1,0,0,0,.37.07,1,1,0,0,0,.38-.07,26.77,26.77,0,0,1,10-1.93h4.61a1,1,0,0,0,.86-.47,1,1,0,0,0,0-1Z"/></g></svg>