<svg xmlns="http://www.w3.org/2000/svg" viewBox="0 0 44 44"><defs><style>.cls-1{fill:#fff;}</style></defs><title>cws-icon-safe</title><g id="safe"><path class="cls-1" d="M41,2H3A3,3,0,0,0,0,5V39a3,3,0,0,0,3,3H41a3,3,0,0,0,3-3V5A3,3,0,0,0,41,2Zm1,37a1,1,0,0,1-1,1H3a1,1,0,0,1-1-1V5A1,1,0,0,1,3,4H41a1,1,0,0,1,1,1Z"/><path class="cls-1" d="M39,6H6A1,1,0,0,0,5,7v3H4a1,1,0,0,0-1,1v6a1,1,0,0,0,1,1H7a1,1,0,0,0,1-1V11a1,1,0,0,0-1-1V8H38V36H7a1,1,0,0,0-2,0v1a1,1,0,0,0,1,1H39a1,1,0,0,0,1-1V7A1,1,0,0,0,39,6ZM6,16H5V12H6Z"/><path class="cls-1" d="M8,32V26a1,1,0,0,0-1-1V21a1,1,0,0,0-2,0v4H4a1,1,0,0,0-1,1v6a1,1,0,0,0,1,1H7A1,1,0,0,0,8,32ZM6,31H5V27H6Z"/><path class="cls-1" d="M15.29,29.71a1,1,0,0,0,1.42,0l3.54-3.54a5,5,0,0,0,5.5,0l3.54,3.54a1,1,0,0,0,1.42,0,1,1,0,0,0,0-1.42l-3.54-3.54a5,5,0,0,0,0-5.5l3.54-3.54a1,1,0,0,0-1.42-1.42l-3.54,3.54a5,5,0,0,0-5.5,0l-3.54-3.54a1,1,0,0,0-1.42,1.42l3.54,3.54a5,5,0,0,0,0,5.5l-3.54,3.54A1,1,0,0,0,15.29,29.71Zm4.79-8.38v0a3,3,0,0,1,2.22-2.22h0a2.85,2.85,0,0,1,1.34,0h0a3,3,0,0,1,2.22,2.22v0a2.85,2.85,0,0,1,0,1.34v0a3,3,0,0,1-2.22,2.22h0a2.85,2.85,0,0,1-1.34,0h0a3,3,0,0,1-2.22-2.22v0a2.85,2.85,0,0,1,0-1.34Z"/><circle class="cls-1" cx="23" cy="22" r="1"/></g></svg>