<svg xmlns="http://www.w3.org/2000/svg" viewBox="0 0 44 44"><defs><style>.cls-1{fill:#fff;}</style></defs><g id="watch"><path class="cls-1" d="M33.5,16V15a1,1,0,0,0-1-1V13a3,3,0,0,0-3-3H29C28,8.77,28,6.74,27.88,4.92a21.35,21.35,0,0,0-.16-2.35,3,3,0,0,0-3-2.57h-6.5a3,3,0,0,0-3,2.57,21.35,21.35,0,0,0-.16,2.35C15.05,6.74,15,8.77,14,10H13.5a3,3,0,0,0-3,3V31a3,3,0,0,0,3,3H14c.94,1.23,1,3.26,1.09,5.08a21.35,21.35,0,0,0,.16,2.35,3,3,0,0,0,3,2.57h6.5a3,3,0,0,0,3-2.57,21.35,21.35,0,0,0,.16-2.35C28,37.26,28,35.23,29,34h.53a3,3,0,0,0,3-3V30a1,1,0,0,0,1-1V23a1,1,0,0,0-1-1V17A1,1,0,0,0,33.5,16ZM17.12,5a18.7,18.7,0,0,1,.14-2.13,1,1,0,0,1,1-.86h6.5a1,1,0,0,1,1,.86A18.7,18.7,0,0,1,25.88,5a14.37,14.37,0,0,0,.79,5H16.33A14.37,14.37,0,0,0,17.12,5Zm8.76,34a18.7,18.7,0,0,1-.14,2.13,1,1,0,0,1-1,.86h-6.5a1,1,0,0,1-1-.86A18.7,18.7,0,0,1,17.12,39a14.37,14.37,0,0,0-.79-5H26.67A14.37,14.37,0,0,0,25.88,39Zm4.62-8a1,1,0,0,1-1,1h-16a1,1,0,0,1-1-1V13a1,1,0,0,1,1-1h16a1,1,0,0,1,1,1Z"/><path class="cls-1" d="M21.5,14a1,1,0,0,0,0,2,6,6,0,1,1-6,6,1,1,0,0,0-2,0,8,8,0,1,0,8-8Z"/><path class="cls-1" d="M21.5,27a5,5,0,0,0,0-10,1,1,0,0,0,0,2,3,3,0,0,1,0,6,1,1,0,0,0,0,2Z"/><path class="cls-1" d="M21.5,22a1,1,0,0,0,2,0,2,2,0,0,0-2-2,1,1,0,0,0,0,2Z"/></g></svg>