<svg xmlns="http://www.w3.org/2000/svg" viewBox="0 0 44 44"><defs><style>.cls-1{fill:#fff;}</style></defs><g id="compass"><circle class="cls-1" cx="22" cy="10" r="1"/><path class="cls-1" d="M35,24H28.8l-2.67-9.65A5.93,5.93,0,0,0,28,10a6,6,0,0,0-5-5.91V1a1,1,0,0,0-2,0V4.09A6,6,0,0,0,16,10a5.93,5.93,0,0,0,1.87,4.35L15.2,24H9a1,1,0,0,0,0,2H21v2a1,1,0,0,0,2,0V26H35a1,1,0,0,0,0-2ZM22,21a1,1,0,0,0-1,1v2H17.28L20,14.27a1,1,0,0,0-.36-1.07A4,4,0,0,1,18,10a4,4,0,0,1,8,0,4,4,0,0,1-1.6,3.2A1,1,0,0,0,24,14.27L26.72,24H23V22A1,1,0,0,0,22,21Z"/><path class="cls-1" d="M15.13,28a1,1,0,0,0-1.23.69L10,42.73A1,1,0,0,0,10.73,44,.84.84,0,0,0,11,44a1,1,0,0,0,1-.73l3.87-14A1,1,0,0,0,15.13,28Z"/><path class="cls-1" d="M30.1,28.74a1,1,0,0,0-1.23-.7,1,1,0,0,0-.7,1.23l3.87,14A1,1,0,0,0,33,44a.84.84,0,0,0,.27,0A1,1,0,0,0,34,42.73Z"/></g></svg>