<svg xmlns="http://www.w3.org/2000/svg" viewBox="0 0 44 44"><defs><style>.cls-1{fill:#fff;}</style></defs><title>cws-icon-web-award</title><g id="web_award"><path class="cls-1" d="M43,13a1,1,0,0,0-1,1V36a1,1,0,0,1-1,1H30a1,1,0,0,0,0,2H41a3,3,0,0,0,3-3V14A1,1,0,0,0,43,13Z"/><path class="cls-1" d="M41,1H3A3,3,0,0,0,0,4V36a3,3,0,0,0,3,3H14a1,1,0,0,0,0-2H3a1,1,0,0,1-1-1V4A1,1,0,0,1,3,3H41a1,1,0,0,1,1,1V9H5a1,1,0,0,0,0,2H43a1,1,0,0,0,1-1V4A3,3,0,0,0,41,1Z"/><circle class="cls-1" cx="5" cy="6" r="1"/><circle class="cls-1" cx="9" cy="6" r="1"/><circle class="cls-1" cx="13" cy="6" r="1"/><path class="cls-1" d="M30.78,27.64A3,3,0,0,0,30.6,25l-.33-.56a.93.93,0,0,1,0-.94L30.6,23a2.93,2.93,0,0,0-1.79-4.32l-.63-.16a1,1,0,0,1-.67-.67l-.16-.63A2.93,2.93,0,0,0,23,15.4l-.56.33h0a.93.93,0,0,1-.94,0L21,15.4a2.93,2.93,0,0,0-4.32,1.79l-.16.63a1,1,0,0,1-.67.67l-.63.16A2.93,2.93,0,0,0,13.4,23l.33.56a.93.93,0,0,1,0,.94L13.4,25a2.93,2.93,0,0,0,1.79,4.32l.63.16a1,1,0,0,1,.67.67l.16.63a2.74,2.74,0,0,0,.35.78V42a1,1,0,0,0,1.6.8L22,40.25l3.4,2.55a1,1,0,0,0,.6.2.91.91,0,0,0,.45-.11A1,1,0,0,0,27,42V36a1,1,0,0,0-2,0v4l-2.4-1.8a1,1,0,0,0-1.2,0L19,40V33a2.72,2.72,0,0,0,.49,0A2.91,2.91,0,0,0,21,32.6l.56-.33a.93.93,0,0,1,.94,0l.56.33a2.93,2.93,0,0,0,4.32-1.79l.16-.63a1,1,0,0,1,.67-.67l.63-.16A2.93,2.93,0,0,0,30.78,27.64Zm-2.24-2.16.33.56a.93.93,0,0,1,.06.83,1,1,0,0,1-.63.55l-.62.16a2.94,2.94,0,0,0-2.1,2.1l-.16.62a1,1,0,0,1-.55.63.93.93,0,0,1-.83-.06l-.56-.32a2.91,2.91,0,0,0-3,0l-.56.32a.93.93,0,0,1-.83.06,1,1,0,0,1-.55-.63l-.16-.62a2.94,2.94,0,0,0-2.1-2.1l-.62-.16a1,1,0,0,1-.63-.55.93.93,0,0,1,.06-.83l.33-.56a3,3,0,0,0,0-3L15.13,22a.93.93,0,0,1-.06-.83,1,1,0,0,1,.63-.55l.62-.16a2.94,2.94,0,0,0,2.1-2.1l.16-.62a1,1,0,0,1,.55-.63.92.92,0,0,1,.36-.07.9.9,0,0,1,.47.13l.56.32a2.91,2.91,0,0,0,3,0l.56-.32a.93.93,0,0,1,.83-.06,1,1,0,0,1,.55.63l.16.62a2.94,2.94,0,0,0,2.1,2.1l.62.16a1,1,0,0,1,.63.55.93.93,0,0,1-.06.83l-.33.56A3,3,0,0,0,28.54,25.48Z"/><path class="cls-1" d="M22,20a4,4,0,1,0,4,4A4,4,0,0,0,22,20Zm0,6a2,2,0,1,1,2-2A2,2,0,0,1,22,26Z"/></g></svg>