<svg xmlns="http://www.w3.org/2000/svg" viewBox="0 0 44 44"><defs><style>.cls-1{fill:#fff;}</style></defs><title>cws-icon-funnel</title><g id="funnel"><circle class="cls-1" cx="18" cy="43" r="1"/><circle class="cls-1" cx="26" cy="39" r="1"/><circle class="cls-1" cx="22" cy="41" r="1"/><path class="cls-1" d="M36,14H8a3,3,0,0,0-3,3v1.68a4,4,0,0,0,1.3,2.95l9.4,8.62a4,4,0,0,1,1.3,3V39a1,1,0,0,0,2,0V33.2a6,6,0,0,0-1.95-4.42l-9.4-8.63A2,2,0,0,1,7,18.68V17a1,1,0,0,1,1-1H36a1,1,0,0,1,1,1v1.68a2,2,0,0,1-.65,1.47L27,28.78A6,6,0,0,0,25,33.2V35a1,1,0,0,0,2,0V33.2a4,4,0,0,1,1.3-3l9.4-8.62A4,4,0,0,0,39,18.68V17A3,3,0,0,0,36,14Z"/><path class="cls-1" d="M16,10a5,5,0,1,0-5-5A5,5,0,0,0,16,10Zm0-8a3,3,0,1,1-3,3A3,3,0,0,1,16,2Z"/><path class="cls-1" d="M22,12a1,1,0,0,0,1-1,3,3,0,0,1,6,0,1,1,0,0,0,2,0,5,5,0,0,0-10,0A1,1,0,0,0,22,12Z"/><path class="cls-1" d="M22,30a1,1,0,0,0-1,1v6a1,1,0,0,0,2,0V31A1,1,0,0,0,22,30Z"/></g></svg>