<svg xmlns="http://www.w3.org/2000/svg" viewBox="0 0 44 44"><defs><style>.cls-1{fill:#fff;}</style></defs><title>cws-icon-socket</title><g id="socket"><circle class="cls-1" cx="22" cy="22" r="1"/><path class="cls-1" d="M41,0H3A3,3,0,0,0,0,3V41a3,3,0,0,0,3,3H41a3,3,0,0,0,3-3V3A3,3,0,0,0,41,0Zm1,41a1,1,0,0,1-1,1H3a1,1,0,0,1-1-1V3A1,1,0,0,1,3,2H41a1,1,0,0,1,1,1Z"/><path class="cls-1" d="M26.29,7.62a1,1,0,0,0-.57,1.92A13,13,0,0,1,23,35V33a1,1,0,0,0-2,0v3a1,1,0,0,0,1,1A15,15,0,0,0,26.29,7.62Z"/><path class="cls-1" d="M18.28,34.46A13,13,0,0,1,21,9v2a1,1,0,0,0,2,0V8a1,1,0,0,0-1-1,15,15,0,0,0-4.29,29.38,1,1,0,0,0,.29,0A1,1,0,0,0,19,35.7,1,1,0,0,0,18.28,34.46Z"/><path class="cls-1" d="M12,22a3,3,0,1,0,3-3A3,3,0,0,0,12,22Zm4,0a1,1,0,1,1-1-1A1,1,0,0,1,16,22Z"/><path class="cls-1" d="M32,22a3,3,0,1,0-3,3A3,3,0,0,0,32,22Zm-4,0a1,1,0,1,1,1,1A1,1,0,0,1,28,22Z"/></g></svg>