<svg xmlns="http://www.w3.org/2000/svg" viewBox="0 0 44 44"><defs><style>.cls-1{fill:#fff;}</style></defs><title>cws-icon-flag</title><g id="flag"><path class="cls-1" d="M26.1,34.3a1,1,0,1,0-.2,2C32.82,37,35,38.6,35,39c0,.87-5.26,3-15,3S5,39.87,5,39c0-.4,2.18-2,9.1-2.71a1,1,0,0,0,.9-1.1,1,1,0,0,0-1.1-.89C9.83,34.71,3,35.87,3,39c0,4,11.12,5,17,5s17-1,17-5C37,35.87,30.17,34.71,26.1,34.3Z"/><path class="cls-1" d="M38.12,11l2.77-5.55A1,1,0,0,0,40,4H32a3,3,0,0,0-3,3,1,1,0,0,1-1,1H21V5.82a3,3,0,1,0-2,0V9a1,1,0,0,0,1,1h8a3,3,0,0,0,1-.17V19a1,1,0,0,1-1,1H21V13a1,1,0,0,0-2,0V38a1,1,0,0,0,0,2h2a1,1,0,0,0,0-2V22h7a3,3,0,0,0,3-3V18h9a1,1,0,0,0,.89-1.45ZM20,2a1,1,0,1,1-1,1A1,1,0,0,1,20,2ZM31,16V7a1,1,0,0,1,1-1h6.38l-2.27,4.55a1,1,0,0,0,0,.9L38.38,16Z"/></g></svg>