<svg xmlns="http://www.w3.org/2000/svg" viewBox="0 0 44 44"><defs><style>.cls-1{fill:#fff;}</style></defs><g id="binary"><circle class="cls-1" cx="22" cy="31" r="1"/><path class="cls-1" d="M15,35a1,1,0,0,0-1-1H3a1,1,0,0,1-1-1V7A1,1,0,0,1,3,6,1,1,0,0,0,3,4,3,3,0,0,0,0,7V33a3,3,0,0,0,3,3H14A1,1,0,0,0,15,35Z"/><path class="cls-1" d="M5,28H39a1,1,0,0,0,0-2H5a1,1,0,0,0,0,2Z"/><path class="cls-1" d="M41,4a1,1,0,0,0,0,2,1,1,0,0,1,1,1V33a1,1,0,0,1-1,1H18a1,1,0,0,0-1,1v4a1,1,0,0,1-1,1H15a1,1,0,0,0,0,2H29a1,1,0,0,0,0-2H28a1,1,0,0,1-1-1V36H41a3,3,0,0,0,3-3V7A3,3,0,0,0,41,4ZM25,39a3,3,0,0,0,.18,1H18.82A3,3,0,0,0,19,39V36h6Z"/><path class="cls-1" d="M12,16a3,3,0,1,0-3-3A3,3,0,0,0,12,16Zm0-4a1,1,0,1,1-1,1A1,1,0,0,1,12,12Z"/><path class="cls-1" d="M17,16a1,1,0,0,0,1-1V11a1,1,0,0,0-2,0v4A1,1,0,0,0,17,16Z"/><path class="cls-1" d="M27,16a1,1,0,0,0,1-1V11a1,1,0,0,0-2,0v4A1,1,0,0,0,27,16Z"/><path class="cls-1" d="M24,19v4a1,1,0,0,0,2,0V19a1,1,0,0,0-2,0Z"/><path class="cls-1" d="M27,19v4a1,1,0,0,0,2,0V19a1,1,0,0,0-2,0Z"/><path class="cls-1" d="M21,19v4a1,1,0,0,0,2,0V19a1,1,0,0,0-2,0Z"/><path class="cls-1" d="M22,16a3,3,0,1,0-3-3A3,3,0,0,0,22,16Zm0-4a1,1,0,1,1-1,1A1,1,0,0,1,22,12Z"/><path class="cls-1" d="M17,18a3,3,0,1,0,3,3A3,3,0,0,0,17,18Zm0,4a1,1,0,1,1,1-1A1,1,0,0,1,17,22Z"/><path class="cls-1" d="M7,8A1,1,0,0,0,8,7V3A1,1,0,0,0,6,3V7A1,1,0,0,0,7,8Z"/><path class="cls-1" d="M12,8A3,3,0,1,0,9,5,3,3,0,0,0,12,8Zm0-4a1,1,0,1,1-1,1A1,1,0,0,1,12,4Z"/><path class="cls-1" d="M17,8a1,1,0,0,0,1-1V3a1,1,0,0,0-2,0V7A1,1,0,0,0,17,8Z"/><path class="cls-1" d="M34,8a1,1,0,0,0,1-1V3a1,1,0,0,0-2,0V7A1,1,0,0,0,34,8Z"/><path class="cls-1" d="M37,8a1,1,0,0,0,1-1V3a1,1,0,0,0-2,0V7A1,1,0,0,0,37,8Z"/><path class="cls-1" d="M22,8a3,3,0,1,0-3-3A3,3,0,0,0,22,8Zm0-4a1,1,0,1,1-1,1A1,1,0,0,1,22,4Z"/><path class="cls-1" d="M29,8a3,3,0,1,0-3-3A3,3,0,0,0,29,8Zm0-4a1,1,0,1,1-1,1A1,1,0,0,1,29,4Z"/><path class="cls-1" d="M32,10a3,3,0,1,0,3,3A3,3,0,0,0,32,10Zm0,4a1,1,0,1,1,1-1A1,1,0,0,1,32,14Z"/></g></svg>