<svg xmlns="http://www.w3.org/2000/svg" viewBox="0 0 44 44"><defs><style>.cls-1{fill:#fff;}</style></defs><g id="gender"><path class="cls-1" d="M31,21.75a9,9,0,1,0-12.7-.8,1,1,0,0,0,1.41.09,1,1,0,0,0,.09-1.41,7,7,0,1,1,9.88.62,1,1,0,0,0-.09,1.41,1,1,0,0,0,.75.34A1,1,0,0,0,31,21.75Z"/><path class="cls-1" d="M38,0H35a1,1,0,0,0,0,2h1.59L32.74,5.85a12,12,0,1,0-15.38,18.4,11,11,0,0,0,1.09.81,1,1,0,0,0,1.1-1.68,10.31,10.31,0,0,1-.92-.67,10,10,0,1,1,11.82.67,1,1,0,0,0,1.1,1.68,12,12,0,0,0,2.6-17.8L38,3.41V5a1,1,0,0,0,2,0V2A2,2,0,0,0,38,0Z"/><path class="cls-1" d="M22.55,15a1,1,0,1,0-1.1,1.67,10,10,0,1,1-11.19.2,1,1,0,0,0,.24-1.4,1,1,0,0,0-1.39-.24A12,12,0,0,0,15,37v2H13a1,1,0,0,0,0,2h2v2a1,1,0,0,0,2,0V41h2a1,1,0,0,0,0-2H17V37a12,12,0,0,0,5.55-22Z"/><path class="cls-1" d="M7,25a9,9,0,1,0,14.62-7,1,1,0,0,0-1.4.16,1,1,0,0,0,.15,1.4,7,7,0,1,1-9,.21,1,1,0,1,0-1.32-1.5A9,9,0,0,0,7,25Z"/></g></svg>