<svg id="Layer_1" data-name="Layer 1" xmlns="http://www.w3.org/2000/svg" viewBox="0 0 44 44"><defs><style>.cls-1{fill:#fff;}</style></defs><title>cws-icon-bruch</title><circle class="cls-1" cx="22" cy="5" r="1"/><path class="cls-1" d="M11,23a1,1,0,0,0,1,1H32a1,1,0,0,0,0-2H12A1,1,0,0,0,11,23Z"/><path class="cls-1" d="M34.86,18.61l-7.15-2.14a1,1,0,0,1-.71-1V5A5,5,0,0,0,17,5V15.51a1,1,0,0,1-.71,1L9.14,18.61A3,3,0,0,0,7,21.49V27a1,1,0,0,0,1,1h3v4a1,1,0,0,0,2,0V28h2v3a1,1,0,0,0,2,0V28h2v2a1,1,0,0,0,2,0V28h2v1a1,1,0,0,0,2,0V28h2v1a1,1,0,0,0,2,0V28h2v1a1,1,0,0,0,2,0V27a1,1,0,0,0-1-1H9V21.49a1,1,0,0,1,.71-1l7.15-2.14A3,3,0,0,0,19,15.51V5a3,3,0,0,1,6,0V15.51a3,3,0,0,0,2.14,2.88l7.15,2.14a1,1,0,0,1,.71,1V35a7,7,0,0,1-6,6.93V34a1,1,0,0,0-2,0,8,8,0,0,1-8,8H9V31a1,1,0,0,0-2,0V43a1,1,0,0,0,1,1H19a10,10,0,0,0,8-4v3a1,1,0,0,0,1,1,9,9,0,0,0,9-9V21.49A3,3,0,0,0,34.86,18.61Z"/></svg>