<svg id="Livello_1" data-name="Livello 1" xmlns="http://www.w3.org/2000/svg" viewBox="0 0 300 53"><defs><style>.cls-1{fill:#fff;}</style></defs><title>Tavola disegno 1 copia</title><ellipse class="cls-1" cx="218.93" cy="27.69" rx="4.35" ry="4.34"/><path class="cls-1" d="M232.25,18.67h0a20.77,20.77,0,0,0-13.24-5h0a20.76,20.76,0,0,0-13.19,5h0a1.22,1.22,0,0,0-.39.89,1.25,1.25,0,0,0,.32.82l0,0,0,0,2.28,2.28h0a1.25,1.25,0,0,0,.95.45,1.37,1.37,0,0,0,.69-.19,14.33,14.33,0,0,1,18.63,0,1.33,1.33,0,0,0,.69.19,1.25,1.25,0,0,0,.95-.45h0l2.28-2.28,0,0,0,0a1.24,1.24,0,0,0,.31-.82A1.22,1.22,0,0,0,232.25,18.67Z"/><path class="cls-1" d="M240.16,10.65a31.58,31.58,0,0,0-42.48,0,1.39,1.39,0,0,0-.4.94,1.35,1.35,0,0,0,.35.84l0,0,0,0L200,14.78h0a1.25,1.25,0,0,0,1,.45,1.37,1.37,0,0,0,.69-.19c1.47-1.21,8.08-6.62,17.3-6.62s15.83,5.41,17.31,6.62a1.31,1.31,0,0,0,.68.19,1.26,1.26,0,0,0,1-.45h0l2.28-2.28,0,0,0,0a1.23,1.23,0,0,0-.06-1.78Z"/><path class="cls-1" d="M205.59,36.53h0a20.74,20.74,0,0,0,13.25,5h0a20.73,20.73,0,0,0,13.2-5h0a1.22,1.22,0,0,0,.07-1.7l0,0,0,0-2.28-2.28h0a1.23,1.23,0,0,0-1-.46,1.27,1.27,0,0,0-.68.2,14.36,14.36,0,0,1-18.63,0,1.33,1.33,0,0,0-.69-.2,1.2,1.2,0,0,0-1,.46h0l-2.28,2.28,0,0,0,0a1.2,1.2,0,0,0-.32.81A1.24,1.24,0,0,0,205.59,36.53Z"/><path class="cls-1" d="M197.68,44.55a31.58,31.58,0,0,0,42.48,0,1.32,1.32,0,0,0,.41-.93,1.33,1.33,0,0,0-.35-.84l0,0,0,0-2.28-2.28h0a1.23,1.23,0,0,0-1-.46,1.31,1.31,0,0,0-.68.19c-1.48,1.22-8.08,6.63-17.31,6.63s-15.83-5.41-17.3-6.63a1.37,1.37,0,0,0-.69-.19,1.23,1.23,0,0,0-1,.46h0L197.7,42.7l0,0,0,0a1.33,1.33,0,0,0-.35.84A1.35,1.35,0,0,0,197.68,44.55Z"/><path class="cls-1" d="M259.53,16.86a4.56,4.56,0,0,1,.38-1.84,4.84,4.84,0,0,1,1-1.49,4.79,4.79,0,0,1,1.51-1,4.62,4.62,0,0,1,3.67,0,4.79,4.79,0,0,1,1.51,1,4.84,4.84,0,0,1,1,1.49,4.56,4.56,0,0,1,.38,1.84,4.51,4.51,0,0,1-.38,1.83,5,5,0,0,1-1,1.5,4.79,4.79,0,0,1-1.51,1,4.74,4.74,0,0,1-3.67,0,4.79,4.79,0,0,1-1.51-1,5,5,0,0,1-1-1.5A4.51,4.51,0,0,1,259.53,16.86Zm.84,0a3.68,3.68,0,0,0,.31,1.51,3.91,3.91,0,0,0,5.1,2.07,3.8,3.8,0,0,0,1.24-.83,3.91,3.91,0,0,0,.83-1.24,3.71,3.71,0,0,0,.31-1.51,3.64,3.64,0,0,0-.31-1.51,3.84,3.84,0,0,0-2.07-2.07,3.86,3.86,0,0,0-3,0,3.91,3.91,0,0,0-1.24.83,3.8,3.8,0,0,0-.83,1.24A3.64,3.64,0,0,0,260.37,16.86Zm2.08-2.73h2.08a2.11,2.11,0,0,1,1.45.42,1.53,1.53,0,0,1,.46,1.2,1.44,1.44,0,0,1-.36,1.07,1.51,1.51,0,0,1-.92.42l1.4,2.28h-1.05l-1.35-2.2h-.72v2.2h-1Zm1,2.35h.72l.46,0a1.43,1.43,0,0,0,.42-.1.6.6,0,0,0,.29-.23.65.65,0,0,0,.12-.41.66.66,0,0,0-.12-.42.6.6,0,0,0-.29-.23,1.43,1.43,0,0,0-.42-.09h-1.18Z"/><path class="cls-1" d="M15.69,19.47A3.76,3.76,0,0,0,14,18.1a6.23,6.23,0,0,0-2.27-.43,5.51,5.51,0,0,0-1.36.16,3.86,3.86,0,0,0-1.19.51,2.71,2.71,0,0,0-.86.92A2.67,2.67,0,0,0,8,20.59a2.06,2.06,0,0,0,.81,1.76,7.74,7.74,0,0,0,2,1.06c.79.3,1.66.59,2.6.87A10.78,10.78,0,0,1,16,25.43a6.52,6.52,0,0,1,2,2,5.76,5.76,0,0,1,.81,3.24,7.1,7.1,0,0,1-.68,3.19,6.43,6.43,0,0,1-1.82,2.26,7.81,7.81,0,0,1-2.65,1.35,11.11,11.11,0,0,1-3.18.45,12,12,0,0,1-4.09-.71A7.88,7.88,0,0,1,3,34.8L6,31.85A5.14,5.14,0,0,0,8,33.6a5.4,5.4,0,0,0,2.55.62A5.28,5.28,0,0,0,12,34a4.43,4.43,0,0,0,1.29-.58,3.08,3.08,0,0,0,.93-1,2.68,2.68,0,0,0,.35-1.37,2.38,2.38,0,0,0-.8-1.92,7.08,7.08,0,0,0-2-1.14c-.79-.31-1.66-.61-2.6-.88A11.34,11.34,0,0,1,6.52,26a6.42,6.42,0,0,1-2-1.93,5.67,5.67,0,0,1-.8-3.22,6.14,6.14,0,0,1,.72-3.05,6.58,6.58,0,0,1,1.9-2.13A8.2,8.2,0,0,1,9,14.43a11.45,11.45,0,0,1,6.58.13,8,8,0,0,1,3,1.8Z"/><path class="cls-1" d="M22,21.6h3.87v2.54h.07a5.52,5.52,0,0,1,1.75-2.05,5.33,5.33,0,0,1,3.25-.9q3.84,0,5.1,3a5.82,5.82,0,0,1,2.21-2.29,6.53,6.53,0,0,1,3.16-.73,6.35,6.35,0,0,1,2.76.54A5,5,0,0,1,46,23.23a6.26,6.26,0,0,1,1,2.22,11.9,11.9,0,0,1,.3,2.73v9.7H43.17V28.65A7.64,7.64,0,0,0,43,27.21,3.39,3.39,0,0,0,42.56,26a2.31,2.31,0,0,0-.92-.83,3.21,3.21,0,0,0-1.49-.3,3.37,3.37,0,0,0-1.62.35,3.2,3.2,0,0,0-1.08.95,3.93,3.93,0,0,0-.62,1.36,6.68,6.68,0,0,0-.18,1.54v8.82H32.57v-9.7a4.09,4.09,0,0,0-.65-2.43,2.44,2.44,0,0,0-2.14-.89,4,4,0,0,0-1.72.33,3.51,3.51,0,0,0-1.16.92,3.81,3.81,0,0,0-.66,1.32A6.18,6.18,0,0,0,26,29v8.89H22Z"/><path class="cls-1" d="M62,35.14h-.1a5.48,5.48,0,0,1-2.33,2.09,7.35,7.35,0,0,1-3.1.65,8.3,8.3,0,0,1-2.27-.32,6.09,6.09,0,0,1-2-.94A4.83,4.83,0,0,1,50.8,35a4.49,4.49,0,0,1-.53-2.21,5,5,0,0,1,.49-2.33,4.76,4.76,0,0,1,1.32-1.62,7.08,7.08,0,0,1,1.92-1,14.25,14.25,0,0,1,2.27-.58A21.08,21.08,0,0,1,58.65,27c.8,0,1.55-.05,2.25-.05H62V26.5a2.72,2.72,0,0,0-1.09-2.37,4.62,4.62,0,0,0-2.78-.79,6.66,6.66,0,0,0-2.5.47,6.46,6.46,0,0,0-2,1.28l-2.22-2.21a8.21,8.21,0,0,1,3.29-2.07,12.25,12.25,0,0,1,3.9-.63,9.78,9.78,0,0,1,3,.4,6.46,6.46,0,0,1,2,1,4.63,4.63,0,0,1,1.25,1.45,7,7,0,0,1,.63,1.67,9.65,9.65,0,0,1,.23,1.64c0,.52,0,1,0,1.38v9.7H62Zm-.25-5.23h-.88c-.58,0-1.24,0-2,.07a9.64,9.64,0,0,0-2.06.33,4.74,4.74,0,0,0-1.63.77,1.69,1.69,0,0,0-.67,1.43,1.77,1.77,0,0,0,.26,1,2.48,2.48,0,0,0,.69.68,3,3,0,0,0,.95.41,4.7,4.7,0,0,0,1.05.12,4.43,4.43,0,0,0,3.23-1,3.82,3.82,0,0,0,1-2.83Z"/><path class="cls-1" d="M69.69,21.11h4.2v2.66H74a5.26,5.26,0,0,1,2-2.27,5.53,5.53,0,0,1,3-.81,4.54,4.54,0,0,1,.75.07l.76.18v4c-.35-.09-.7-.17-1-.23a6.83,6.83,0,0,0-1-.08,4.57,4.57,0,0,0-2.37.54,4.22,4.22,0,0,0-1.36,1.24,3.87,3.87,0,0,0-.63,1.4,4.87,4.87,0,0,0-.16,1v9h-4.2Z"/><path class="cls-1" d="M83.6,24.64V21.18H87V16.46h4.08v4.72h4.5v3.46h-4.5v7.13a3.58,3.58,0,0,0,.46,1.93,2,2,0,0,0,1.82.72,6.48,6.48,0,0,0,1.19-.12,2.58,2.58,0,0,0,1-.39v3.43a5.48,5.48,0,0,1-1.59.42,13.06,13.06,0,0,1-1.65.12,8.28,8.28,0,0,1-2.67-.36A3.47,3.47,0,0,1,88,36.44a4.12,4.12,0,0,1-.82-1.82A12.46,12.46,0,0,1,87,32.11V24.64Z"/><path class="cls-1" d="M108.36,7.92h11.71a14,14,0,0,1,3.35.4,8.69,8.69,0,0,1,3,1.31,6.89,6.89,0,0,1,2.1,2.35,7,7,0,0,1,.81,3.47,6.15,6.15,0,0,1-1.44,4.19A8.06,8.06,0,0,1,124.06,22v.08a8,8,0,0,1,2.61.79,7,7,0,0,1,2.06,1.56,7.34,7.34,0,0,1,1.82,4.89A7.34,7.34,0,0,1,127,36a11,11,0,0,1-3.65,1.42,20.8,20.8,0,0,1-4.18.42H108.36Zm5.35,12.19h4.88a6.49,6.49,0,0,0,4-1,3.28,3.28,0,0,0,1.33-2.73,3.29,3.29,0,0,0-1.38-2.9,8,8,0,0,0-4.43-.95h-4.41Zm0,13.2h4.92a19.11,19.11,0,0,0,2.19-.13,6.52,6.52,0,0,0,2.14-.59,4.17,4.17,0,0,0,1.61-1.33,3.92,3.92,0,0,0,.64-2.35,3.53,3.53,0,0,0-1.55-3.3,9.65,9.65,0,0,0-4.82-.93h-5.13Z"/><path class="cls-1" d="M137.62,28.94a5.18,5.18,0,0,0,1.79,3.57,5.56,5.56,0,0,0,3.71,1.28,6.11,6.11,0,0,0,3.23-.79,8.77,8.77,0,0,0,2.28-2l3.67,2.77a10.27,10.27,0,0,1-4,3.15,11.75,11.75,0,0,1-4.65.94,12.38,12.38,0,0,1-4.36-.77,10.37,10.37,0,0,1-3.54-2.17,10.11,10.11,0,0,1-2.37-3.38,11.49,11.49,0,0,1,0-8.82,10.11,10.11,0,0,1,2.37-3.38,10.54,10.54,0,0,1,3.54-2.18,12.38,12.38,0,0,1,4.36-.76,10.07,10.07,0,0,1,3.9.74,8.51,8.51,0,0,1,3,2.15,10,10,0,0,1,2,3.47,14.7,14.7,0,0,1,.7,4.75v1.41Zm10.5-3.84a4.82,4.82,0,0,0-1.41-3.55,5.28,5.28,0,0,0-3.8-1.3,5,5,0,0,0-3.65,1.32,5.87,5.87,0,0,0-1.64,3.53Z"/><path class="cls-1" d="M170.48,34.62h-.12a6.54,6.54,0,0,1-2.77,2.49,8.8,8.8,0,0,1-3.69.77,9.84,9.84,0,0,1-2.7-.38,7.21,7.21,0,0,1-2.35-1.13,5.64,5.64,0,0,1-1.65-1.88,5.3,5.3,0,0,1-.63-2.63,6,6,0,0,1,.58-2.78,5.71,5.71,0,0,1,1.58-1.93A8,8,0,0,1,161,25.92a15.27,15.27,0,0,1,2.7-.69,24.45,24.45,0,0,1,2.83-.29c1-.05,1.85-.07,2.69-.07h1.25v-.54a3.24,3.24,0,0,0-1.3-2.82,5.47,5.47,0,0,0-3.31-.94,7.7,7.7,0,0,0-3,.56,7.54,7.54,0,0,0-2.39,1.53L157.87,20a9.8,9.8,0,0,1,3.92-2.47,14.44,14.44,0,0,1,4.63-.75,11.71,11.71,0,0,1,3.6.48,7.7,7.7,0,0,1,2.43,1.24,5.4,5.4,0,0,1,1.49,1.73,8.38,8.38,0,0,1,.76,2,11.44,11.44,0,0,1,.27,1.94c0,.63,0,1.18,0,1.66V37.38h-4.53Zm-.29-6.23h-1.05c-.7,0-1.48,0-2.34.08a12.64,12.64,0,0,0-2.46.4,5.51,5.51,0,0,0-2,.92,2,2,0,0,0-.79,1.69,2.11,2.11,0,0,0,.31,1.19,2.79,2.79,0,0,0,.82.82,3.48,3.48,0,0,0,1.13.48,5.42,5.42,0,0,0,1.26.15A5.19,5.19,0,0,0,169,32.88a4.51,4.51,0,0,0,1.24-3.36Z"/><path class="cls-1" d="M194.22,23.42A8.15,8.15,0,0,0,192.39,22a4.05,4.05,0,0,0-2-.54A5.71,5.71,0,0,0,185,25.16a6.66,6.66,0,0,0,0,4.49,5.75,5.75,0,0,0,1.17,1.91A5.65,5.65,0,0,0,188,32.89a5.76,5.76,0,0,0,2.46.5,5,5,0,0,0,2.17-.48,4.74,4.74,0,0,0,1.71-1.39l3.33,3.58a8,8,0,0,1-1.73,1.28,11.64,11.64,0,0,1-3.9,1.35,9.9,9.9,0,0,1-1.58.15,12,12,0,0,1-4.25-.75A10.1,10.1,0,0,1,182.73,35a9.89,9.89,0,0,1-2.32-3.3,10.51,10.51,0,0,1-.85-4.3,10.51,10.51,0,0,1,.85-4.3,10,10,0,0,1,2.32-3.31,10.26,10.26,0,0,1,3.45-2.12,12.25,12.25,0,0,1,4.25-.74,11,11,0,0,1,3.85.72,8.8,8.8,0,0,1,3.4,2.31Z"/><path class="cls-1" d="M240.23,17.66h4.82V20.9h.08a7,7,0,0,1,2.2-2.63,6.45,6.45,0,0,1,4-1.12,7.93,7.93,0,0,1,3.44.68,6.44,6.44,0,0,1,2.3,1.77,6.53,6.53,0,0,1,1.27,2.52,11.4,11.4,0,0,1,.38,3V37.88h-5.07V27.64c0-.56,0-1.18-.08-1.87a7.14,7.14,0,0,0-.44-1.94A3.75,3.75,0,0,0,252,22.31,3.27,3.27,0,0,0,250,21.7a4.81,4.81,0,0,0-2.13.42,4.05,4.05,0,0,0-1.44,1.14,4.44,4.44,0,0,0-.82,1.64,7.32,7.32,0,0,0-.26,1.94v11h-5.07Z"/></svg>