<svg id="Layer_1" data-name="Layer 1" xmlns="http://www.w3.org/2000/svg" viewBox="0 0 225 64.25"><defs><style>.cls-1{fill:#fff;}</style></defs><title>Artboard 8 copy 2 copia</title><g id="Artwork_1" data-name="Artwork 1"><g id="Big_Boomi_Logo_RGB" data-name="Big Boomi Logo RGB"><g id="White_Logo_RGB" data-name="White Logo RGB"><path class="cls-1" d="M22.25,9.07a20,20,0,1,0,20,20,20,20,0,0,0-20-20m0,38a18,18,0,1,1,18-18,18,18,0,0,1-18,18M38,31.63v1.7H32.46V24.82h1.71v6.81Zm-26.55,1.7a4.49,4.49,0,0,0,4.39-3.19L21,33.91l5.12-3.76v3.18h5.53v-1.7H27.78V24.82h-1.7V28l-4.91,3.61-1.1-.81,2.35-1.73L25,27.19l-1.46-1.07-4.91,3.61-1.1-.81,4.91-3.61L21,24.24,15.84,28a4.5,4.5,0,0,0-4.39-3.18H7.78v8.51Zm-1.54-1.7V26.52h1.51a2.57,2.57,0,0,1,0,5.11Z"/></g></g><path class="cls-1" d="M65.23,11.63l2.53,0c.89,0,1.79.07,2.67.15a23.8,23.8,0,0,1,2.47.38,6.47,6.47,0,0,1,2,.76,9.42,9.42,0,0,1,3,2.94,8.16,8.16,0,0,1,1.25,4.61,8.8,8.8,0,0,1-1.4,5,8.29,8.29,0,0,1-4,3.12v.1a8.4,8.4,0,0,1,5.15,3,9.09,9.09,0,0,1,1.78,5.67A10.85,10.85,0,0,1,80,41.26a9.61,9.61,0,0,1-2.12,3.32,10.59,10.59,0,0,1-3.46,2.33,12,12,0,0,1-4.77.89H52V11.63ZM66.34,27q4.09,0,5.89-1.45A5.2,5.2,0,0,0,74,21.18a6.3,6.3,0,0,0-.61-3,4.26,4.26,0,0,0-1.67-1.72,6.49,6.49,0,0,0-2.45-.79,25.24,25.24,0,0,0-3-.17H56.72V27Zm2.27,16.59a6.78,6.78,0,0,0,4.92-1.7,6.19,6.19,0,0,0,1.78-4.69,5.87,5.87,0,0,0-.65-2.9,5,5,0,0,0-1.73-1.82,7.11,7.11,0,0,0-2.47-.95,14.48,14.48,0,0,0-2.9-.28H56.72V43.54Z"/><path class="cls-1" d="M84.25,29.21a12.45,12.45,0,0,1,2.44-4.37,11.52,11.52,0,0,1,4-2.92,14.67,14.67,0,0,1,11,0,11.5,11.5,0,0,1,4,2.92,12.3,12.3,0,0,1,2.44,4.37,17.56,17.56,0,0,1,.81,5.41,17.34,17.34,0,0,1-.81,5.39,12.25,12.25,0,0,1-2.44,4.34,11.2,11.2,0,0,1-4,2.9,15.06,15.06,0,0,1-11,0,11.23,11.23,0,0,1-4-2.9A12.41,12.41,0,0,1,84.25,40a17.34,17.34,0,0,1-.81-5.39A17.56,17.56,0,0,1,84.25,29.21Zm4.4,9.65A8.87,8.87,0,0,0,90.4,42,7.66,7.66,0,0,0,93,43.87a8,8,0,0,0,6.35,0A7.66,7.66,0,0,0,102,42a8.87,8.87,0,0,0,1.75-3.1,12.85,12.85,0,0,0,.64-4.24,12.85,12.85,0,0,0-.64-4.24A9.2,9.2,0,0,0,102,27.25a7.59,7.59,0,0,0-2.62-1.93,8,8,0,0,0-6.35,0,7.59,7.59,0,0,0-2.62,1.93,9.2,9.2,0,0,0-1.75,3.13A13.12,13.12,0,0,0,88,34.62,13.12,13.12,0,0,0,88.65,38.86Z"/><path class="cls-1" d="M112.15,29.21a12.3,12.3,0,0,1,2.44-4.37,11.43,11.43,0,0,1,4-2.92,14.67,14.67,0,0,1,11,0,11.59,11.59,0,0,1,4,2.92A12.45,12.45,0,0,1,136,29.21a17.56,17.56,0,0,1,.81,5.41A17.34,17.34,0,0,1,136,40a12.41,12.41,0,0,1-2.44,4.34,11.29,11.29,0,0,1-4,2.9,15.06,15.06,0,0,1-11,0,11.14,11.14,0,0,1-4-2.9A12.25,12.25,0,0,1,112.15,40a17.34,17.34,0,0,1-.81-5.39A17.56,17.56,0,0,1,112.15,29.21Zm4.4,9.65A8.87,8.87,0,0,0,118.3,42a7.66,7.66,0,0,0,2.62,1.91,8,8,0,0,0,6.35,0A7.66,7.66,0,0,0,129.89,42a8.87,8.87,0,0,0,1.75-3.1,13.12,13.12,0,0,0,.64-4.24,13.12,13.12,0,0,0-.64-4.24,9.2,9.2,0,0,0-1.75-3.13,7.59,7.59,0,0,0-2.62-1.93,8,8,0,0,0-6.35,0,7.59,7.59,0,0,0-2.62,1.93,9.2,9.2,0,0,0-1.75,3.13,12.85,12.85,0,0,0-.64,4.24A12.85,12.85,0,0,0,116.55,38.86Z"/><path class="cls-1" d="M144.81,21.41v3.83h.1a10.17,10.17,0,0,1,12.9-3.47,5.71,5.71,0,0,1,2.79,3.47,9.16,9.16,0,0,1,3.48-3.32,9.84,9.84,0,0,1,4.75-1.18,13.6,13.6,0,0,1,3.58.44,7.45,7.45,0,0,1,2.75,1.35,6.3,6.3,0,0,1,1.78,2.38,8.81,8.81,0,0,1,.63,3.51V47.8h-4.25V30.57a12,12,0,0,0-.21-2.29,4.58,4.58,0,0,0-.76-1.85,3.77,3.77,0,0,0-1.54-1.25,6.25,6.25,0,0,0-2.56-.45,6.76,6.76,0,0,0-5,1.83,6.58,6.58,0,0,0-1.83,4.87V47.8h-4.68V30.57a11.32,11.32,0,0,0-.23-2.34,4.91,4.91,0,0,0-.78-1.85,3.69,3.69,0,0,0-1.5-1.22,5.78,5.78,0,0,0-2.41-.43,6.42,6.42,0,0,0-3.22.76,7.45,7.45,0,0,0-2.18,1.83,7.2,7.2,0,0,0-1.21,2.21,6.09,6.09,0,0,0-.38,1.9V47.8h-4.26V21.41Z"/><path class="cls-1" d="M183.1,16.73v-5.1h4.26v5.1Zm4.26,4.68V47.8H183.1V21.41Z"/></g></svg>