<svg xmlns="http://www.w3.org/2000/svg" viewBox="0 0 44 44"><defs><style>.cls-1{fill:#fff;}</style></defs><title>cws-icon-nuclear-plant</title><g id="nuclear_plant"><path class="cls-1" d="M12,8a3,3,0,0,0,3-3,1,1,0,0,1,1-1,3,3,0,0,0,3-3,1,1,0,0,0-2,0,1,1,0,0,1-1,1,3,3,0,0,0-3,3,1,1,0,0,1-1,1,1,1,0,0,0,0,2Z"/><path class="cls-1" d="M17,7a1,1,0,0,0,2,0,1,1,0,0,1,1-1,3,3,0,0,0,3-3,1,1,0,0,1,1-1,1,1,0,0,0,0-2,3,3,0,0,0-3,3,1,1,0,0,1-1,1A3,3,0,0,0,17,7Z"/><path class="cls-1" d="M29,14a3,3,0,0,0,3-3,1,1,0,0,1,1-1,1,1,0,0,0,0-2,3,3,0,0,0-3,3,1,1,0,0,1-1,1,1,1,0,0,0,0,2Z"/><path class="cls-1" d="M33,13a1,1,0,0,0,2,0,1,1,0,0,1,1-1,3,3,0,0,0,3-3,1,1,0,0,0-2,0,1,1,0,0,1-1,1A3,3,0,0,0,33,13Z"/><path class="cls-1" d="M43.93,42.63,42,37.84A55.94,55.94,0,0,1,38,17a1,1,0,0,0-1-1H27a1,1,0,0,0-1,1v4a1,1,0,0,0,1,1h6a1,1,0,0,0,0-2H28V18h8a57.67,57.67,0,0,0,4.15,20.58L41.52,42H29.71l-1.49-4.22A73.8,73.8,0,0,1,24,13.15V11a1,1,0,0,0-1-1H7a1,1,0,0,0-1,1v2.15A73.8,73.8,0,0,1,1.78,37.78L.06,42.67a1,1,0,0,0,.12.91A1,1,0,0,0,1,44H25a1,1,0,0,0,0-2H2.41l1.26-3.55A76,76,0,0,0,8,13.15V12H22v1.15q0,1.42.06,2.85H11a1,1,0,0,0,0,2H22.17a75.9,75.9,0,0,0,4.16,20.45l1.73,4.88A1,1,0,0,0,29,44H43a1,1,0,0,0,.93-1.37Z"/></g></svg>