<svg xmlns="http://www.w3.org/2000/svg" viewBox="0 0 44 44"><defs><style>.cls-1{fill:#fff;}</style></defs><title>cws-icon-exchange</title><g id="exchange"><path class="cls-1" d="M11,22A11,11,0,1,0,0,11,11,11,0,0,0,11,22ZM11,2a9,9,0,1,1-9,9A9,9,0,0,1,11,2Z"/><path class="cls-1" d="M10,12h2a1,1,0,0,1,0,2H9a1,1,0,0,0,0,2h1v1a1,1,0,0,0,2,0V16a3,3,0,0,0,0-6H10a1,1,0,0,1,0-2h3a1,1,0,0,0,0-2H12V5a1,1,0,0,0-2,0V6a3,3,0,0,0,0,6Z"/><path class="cls-1" d="M33,22A11,11,0,1,0,44,33,11,11,0,0,0,33,22Zm0,20a9,9,0,1,1,9-9A9,9,0,0,1,33,42Z"/><path class="cls-1" d="M35.65,30.27a1,1,0,0,0,1.42-1.41,5.87,5.87,0,0,0-8.28,0A5.79,5.79,0,0,0,27.44,31H27a.5.5,0,0,0,0,1h.17a6.1,6.1,0,0,0,0,2H27a.5.5,0,0,0,0,1h.44a5.8,5.8,0,0,0,5.49,3.85,5.85,5.85,0,0,0,4.14-1.71,1,1,0,0,0-1.42-1.41,3.86,3.86,0,0,1-5.45,0,3.78,3.78,0,0,1-.55-.73H32a.5.5,0,0,0,0-1H29.22a4,4,0,0,1,0-2H33a.5.5,0,0,0,0-1H29.65a3.78,3.78,0,0,1,.55-.73A3.86,3.86,0,0,1,35.65,30.27Z"/><path class="cls-1" d="M44.6,16.2a1,1,0,0,0-1.4.2l-1.4,1.86A19,19,0,0,0,23,2a1,1,0,0,0,0,2A17,17,0,0,1,40,21a1,1,0,0,0,.68.95A1.19,1.19,0,0,0,41,22a1,1,0,0,0,.8-.4l3-4A1,1,0,0,0,44.6,16.2Z"/><path class="cls-1" d="M21,40A17,17,0,0,1,4,23a1,1,0,0,0-1.8-.6l-3,4a1,1,0,0,0,.2,1.4,1,1,0,0,0,1.4-.2l1.4-1.86A19,19,0,0,0,21,42a1,1,0,0,0,0-2Z"/></g></svg>