<svg xmlns="http://www.w3.org/2000/svg" viewBox="0 0 44 44"><defs><style>.cls-1{fill:#fff;}</style></defs><title>cws-icon-connection</title><g id="connection"><path class="cls-1" d="M33,18a1,1,0,0,0-1,1,9,9,0,0,1-8,8.94V25a1,1,0,0,0-1-1,5,5,0,1,1,3.33-1.27,1,1,0,0,0-.08,1.41,1,1,0,0,0,1.42.08A7,7,0,1,0,22,25.93V31a1,1,0,0,0,2,0V30A11,11,0,0,0,34,19,1,1,0,0,0,33,18Z"/><path class="cls-1" d="M19,19a1,1,0,0,0,2,0,2,2,0,0,1,2-2,1,1,0,0,0,0-2A4,4,0,0,0,19,19Z"/><path class="cls-1" d="M39,0a5,5,0,0,0-4.33,7.46L30.59,11a11,11,0,0,0-15.37.19,1,1,0,0,0,1.42,1.42,9,9,0,0,1,12.71,0l.47.47a1,1,0,0,0,.72.31,1,1,0,0,0,.65-.25L36,9a4.94,4.94,0,0,0,3,1A5,5,0,0,0,39,0Zm0,8a3,3,0,1,1,3-3A3,3,0,0,1,39,8Z"/><path class="cls-1" d="M23,34a5,5,0,1,0,5,5A5,5,0,0,0,23,34Zm0,8a3,3,0,1,1,3-3A3,3,0,0,1,23,42Z"/><path class="cls-1" d="M13,18H7.86a4,4,0,1,0,0,2H13a1,1,0,0,0,0-2ZM4,21a2,2,0,1,1,2-2A2,2,0,0,1,4,21Z"/></g></svg>