<svg xmlns="http://www.w3.org/2000/svg" viewBox="0 0 44 44"><defs><style>.cls-1{fill:#fff;}</style></defs><title>cws-icon-crane-hook</title><g id="crane_hook"><path class="cls-1" d="M26.51,32.39A3.73,3.73,0,0,1,25,29.51V28a1,1,0,0,0-2,0v1.51A5.69,5.69,0,0,0,25.28,34a4.5,4.5,0,0,1-2.19,8,4.69,4.69,0,0,1-1.59-.07,4.48,4.48,0,0,0,3.4-3.46,4.53,4.53,0,0,0-1.18-4.08,2.53,2.53,0,0,0-.35-.28A6,6,0,0,1,21,29V28a1,1,0,0,0-2,0v1a8,8,0,0,0,3.29,6.76,2.5,2.5,0,1,1-4.28,2,1,1,0,0,0-2,.16,6.53,6.53,0,0,0,2.34,4.59A6.41,6.41,0,0,0,22.49,44a8.08,8.08,0,0,0,.85,0,6.5,6.5,0,0,0,3.17-11.56Z"/><path class="cls-1" d="M31,0a1,1,0,0,0-1,1v9.84L28.4,6.05a3,3,0,0,0-2.84-2H18.44A3,3,0,0,0,15.6,6.05L14,10.84V1a1,1,0,0,0-2,0V17.65a5.08,5.08,0,0,0,1,3L14.6,22.8A3,3,0,0,0,17,24a1,1,0,0,0,1,1h8a1,1,0,0,0,1-1,3,3,0,0,0,2.4-1.2L31,20.68a5.08,5.08,0,0,0,1-3V1A1,1,0,0,0,31,0ZM29.39,19.48,27.8,21.6a1,1,0,0,1-.8.4H17a1,1,0,0,1-.8-.4l-1.59-2.12A3.09,3.09,0,0,1,14,17.65a2.83,2.83,0,0,1,.16-.95l3.33-10a1,1,0,0,1,1-.68h7.12a1,1,0,0,1,1,.68l3.33,10a3,3,0,0,1,.16,1A3.09,3.09,0,0,1,29.39,19.48Z"/><path class="cls-1" d="M25.71,10.29a1,1,0,0,0-1.42,0l-8,8a1,1,0,0,0,0,1.42,1,1,0,0,0,1.42,0l8-8A1,1,0,0,0,25.71,10.29Z"/><path class="cls-1" d="M25.29,15.29l-4,4a1,1,0,0,0,0,1.42,1,1,0,0,0,1.42,0l4-4a1,1,0,0,0-1.42-1.42Z"/><path class="cls-1" d="M18,13a1,1,0,0,0,.71-.29l4-4a1,1,0,1,0-1.42-1.42l-4,4a1,1,0,0,0,0,1.42A1,1,0,0,0,18,13Z"/></g></svg>