<svg xmlns="http://www.w3.org/2000/svg" viewBox="0 0 64 56"><defs><style>.cls-1{fill:#fff;}</style></defs><g id="underwear"><path class="cls-1" d="M52.44,24.89a1,1,0,0,0-2,.22L50.88,29H48.44A12,12,0,0,0,42,31V30.5a8.52,8.52,0,0,0-1.7-5.1A6.54,6.54,0,0,1,39,22H51a1,1,0,0,0,1-1V16a3,3,0,0,0-3-3H13a3,3,0,0,0-3,3v4.94l-1,9a1,1,0,0,0,.05.46c2.63,7.08,8,12.28,13.77,13.24H23a1,1,0,0,0,.16-2C18.48,40.83,14,36.73,11.48,31h2.08C19,31,24.26,36.15,26,43.24a1,1,0,0,0,.45.62,9.53,9.53,0,0,0,9,0,1,1,0,0,0,.45-.62C37.74,36.15,43,31,48.44,31h2.08c-2.52,5.73-7,9.83-11.69,10.61a1,1,0,0,0,.17,2h.16c5.75-1,11.15-6.16,13.78-13.24a1,1,0,0,0,.05-.46ZM11.12,29,12,21.11A.41.41,0,0,0,12,21V16a1,1,0,0,1,1-1H49a1,1,0,0,1,1,1v4H15a1,1,0,0,0,0,2h8a6.54,6.54,0,0,1-1.26,3.4A8.52,8.52,0,0,0,20,30.5V31a12,12,0,0,0-6.44-2Zm23,13.33a7.72,7.72,0,0,1-6.28,0A20.36,20.36,0,0,0,22,32.53v-2a6.53,6.53,0,0,1,1.3-3.9A8.52,8.52,0,0,0,25,22H37a8.52,8.52,0,0,0,1.66,4.6A6.53,6.53,0,0,1,40,30.5v2A20.36,20.36,0,0,0,34.14,42.33Z"/></g></svg>