<svg xmlns="http://www.w3.org/2000/svg" viewBox="0 0 44 44"><defs><style>.cls-1{fill:#fff;}</style></defs><title>cws-icon-ppc</title><g id="ppc"><path class="cls-1" d="M26.38,18.72,17,18V10a4,4,0,0,0-8,0V20.46l-3,2a6.66,6.66,0,0,0-3,5.57,6.73,6.73,0,0,0,1.41,4.11l2.8,3.6a1,1,0,0,0,.79.39,1,1,0,0,0,.62-.22,1,1,0,0,0,.17-1.4L6,30.93a4.7,4.7,0,0,1,1.1-6.79L9,22.87V28a1,1,0,0,0,2,0V10a2,2,0,0,1,4,0v8a9.61,9.61,0,0,0,1,4.24l.11.21a1,1,0,1,0,1.78-.9l-.1-.21a7.69,7.69,0,0,1-.5-1.31l8.94.68a3,3,0,0,1,2.77,3v9.69a5.75,5.75,0,0,1-2.55,4.78A1,1,0,0,0,27,40a1,1,0,0,1,1,1v1H10V41a1,1,0,0,1,1-1H23a1,1,0,0,0,0-2H11a3,3,0,0,0-3,3v2a1,1,0,0,0,1,1H29a1,1,0,0,0,1-1V41a3,3,0,0,0-1.09-2.31A7.73,7.73,0,0,0,31,33.39V23.7A5,5,0,0,0,26.38,18.72Z"/><path class="cls-1" d="M31,4a6,6,0,0,0-4.24,10.24,6,6,0,1,0,8.48-8.48A5.93,5.93,0,0,0,31,4Zm2.83,8.83a4.1,4.1,0,0,1-5.66,0,4,4,0,1,1,5.66,0Z"/><path class="cls-1" d="M35,0a6,6,0,0,0-2.4.5,1,1,0,1,0,.8,1.83A4,4,0,0,1,35,2a4,4,0,0,1,4,4,4,4,0,0,1-.33,1.6,1,1,0,0,0,.51,1.32,1,1,0,0,0,.4.08,1,1,0,0,0,.92-.6A6,6,0,0,0,35,0Z"/><path class="cls-1" d="M31,8a1,1,0,0,0-1,1v2a1,1,0,0,0,2,0V9A1,1,0,0,0,31,8Z"/><path class="cls-1" d="M13,5a1,1,0,0,0,1-1V2a1,1,0,0,0-2,0V4A1,1,0,0,0,13,5Z"/><path class="cls-1" d="M5,11H7A1,1,0,0,0,7,9H5a1,1,0,0,0,0,2Z"/><path class="cls-1" d="M18,10a1,1,0,0,0,1,1h2a1,1,0,0,0,0-2H19A1,1,0,0,0,18,10Z"/><path class="cls-1" d="M17.24,6.76a1,1,0,0,0,.71-.3l1.41-1.41A1,1,0,1,0,18,3.64L16.54,5.05a1,1,0,0,0,0,1.41A1,1,0,0,0,17.24,6.76Z"/><path class="cls-1" d="M8.05,6.46a1,1,0,0,0,.71.3,1,1,0,0,0,.7-.3,1,1,0,0,0,0-1.41L8.05,3.64A1,1,0,0,0,6.64,5.05Z"/></g></svg>