<svg xmlns="http://www.w3.org/2000/svg" viewBox="0 0 44 44"><defs><style>.cls-1{fill:#fff;}</style></defs><title>cws-icon-id</title><g id="id"><circle class="cls-1" cx="22" cy="7" r="1"/><path class="cls-1" d="M23,28h6a1,1,0,0,0,0-2H23a1,1,0,0,0,0,2Z"/><path class="cls-1" d="M32,27a1,1,0,0,0,1,1h5a1,1,0,0,0,0-2H33A1,1,0,0,0,32,27Z"/><path class="cls-1" d="M32,22H23a1,1,0,0,0,0,2h9a1,1,0,0,0,0-2Z"/><path class="cls-1" d="M23,32h8a1,1,0,0,0,0-2H23a1,1,0,0,0,0,2Z"/><path class="cls-1" d="M38,24a1,1,0,0,0,0-2H36a1,1,0,0,0,0,2Z"/><path class="cls-1" d="M16,24V22a3,3,0,0,0-3-3H11a3,3,0,0,0-3,3v2a4,4,0,0,0,8,0Zm-6,0V22a1,1,0,0,1,1-1h2a1,1,0,0,1,1,1v2a2,2,0,0,1-4,0Z"/><path class="cls-1" d="M41,10H30a1,1,0,0,0,0,2H41a1,1,0,0,1,1,1V39a1,1,0,0,1-1,1H3a1,1,0,0,1-1-1V13a1,1,0,0,1,1-1H14a1,1,0,0,0,0-2H3a3,3,0,0,0-3,3V39a3,3,0,0,0,3,3H41a3,3,0,0,0,3-3V13A3,3,0,0,0,41,10Z"/><path class="cls-1" d="M5,34v2a1,1,0,0,0,1,1H18a1,1,0,0,0,1-1V34a5,5,0,0,0-5-5H10A5,5,0,0,0,5,34Zm2,0a3,3,0,0,1,3-3h4a3,3,0,0,1,3,3v1H7Z"/><path class="cls-1" d="M15,14a1,1,0,0,0,0,2H29a1,1,0,0,0,0-2H19V5a1,1,0,0,1,1-1h4a1,1,0,0,1,1,1v6a1,1,0,0,0,2,0V5a3,3,0,0,0-3-3H20a3,3,0,0,0-3,3v9Z"/></g></svg>