<svg xmlns="http://www.w3.org/2000/svg" viewBox="0 0 44 44"><defs><style>.cls-1{fill:#fff;}</style></defs><title>cws-icon-ppk</title><g id="ppk"><path class="cls-1" d="M34,14a1,1,0,0,0-1,1v1a3,3,0,0,0,0,6h2a1,1,0,0,1,0,2H32a1,1,0,0,0,0,2h1v1a1,1,0,0,0,2,0V26a3,3,0,0,0,0-6H33a1,1,0,0,1,0-2h3a1,1,0,0,0,0-2H35V15A1,1,0,0,0,34,14Z"/><path class="cls-1" d="M34,31a10,10,0,1,0-9-14.45,1,1,0,1,0,1.79.9A8,8,0,1,1,26,21a1,1,0,0,0-1-1H24a5,5,0,0,1-5-5V6A6,6,0,0,0,7,6V18.06A8,8,0,0,0,0,26V36a8,8,0,0,0,16,0V26a8,8,0,0,0-3.43-6.57,1,1,0,0,0-1.14,1.65A6,6,0,0,1,14,26H9V23a1,1,0,0,0-2,0v3H2a6,6,0,0,1,6-6,1,1,0,0,0,1-1V6a4,4,0,0,1,8,0v9a7,7,0,0,0,7,7h.05A10,10,0,0,0,34,31ZM14,28v8A6,6,0,0,1,2,36V28Z"/><path class="cls-1" d="M25.73,12.68a11.13,11.13,0,0,1,16.54,0,1,1,0,0,0,1.41.05,1,1,0,0,0,0-1.41,13.12,13.12,0,0,0-19.46,0,1,1,0,0,0,1.46,1.36Z"/><path class="cls-1" d="M42.27,29.32a11.13,11.13,0,0,1-16.54,0,1,1,0,1,0-1.46,1.36,13.12,13.12,0,0,0,19.46,0,1,1,0,0,0-1.46-1.36Z"/></g></svg>