<svg xmlns="http://www.w3.org/2000/svg" viewBox="0 0 44 44"><defs><style>.cls-1{fill:#fffafc;}</style></defs><g id="snow"><circle class="cls-1" cx="18" cy="34" r="1"/><circle class="cls-1" cx="26" cy="34" r="1"/><circle class="cls-1" cx="18" cy="26" r="1"/><circle class="cls-1" cx="26" cy="26" r="1"/><path class="cls-1" d="M17.59,8a1,1,0,0,0-1-1,6.27,6.27,0,0,0-6,4.74A1,1,0,0,0,11.33,13a1.09,1.09,0,0,0,.26,0,1,1,0,0,0,1-.74,4.26,4.26,0,0,1,4-3.26A1,1,0,0,0,17.59,8Z"/><path class="cls-1" d="M39,17a8,8,0,0,0-6.86-7.92,1,1,0,1,0-.28,2,6,6,0,0,1,1.71,11.36,1,1,0,0,0-.48,1.34,1,1,0,0,0,.91.57,1,1,0,0,0,.43-.1A8.06,8.06,0,0,0,39,17Z"/><path class="cls-1" d="M41.6,20.2a1,1,0,0,0-1.2,1.6A4,4,0,0,1,42,25a4,4,0,0,1-4,4H36a1,1,0,0,0,0,2h2a6,6,0,0,0,6-6A5.94,5.94,0,0,0,41.6,20.2Z"/><path class="cls-1" d="M8,29a6,6,0,1,1,4.92-9.43,1,1,0,0,0,1.65-1.14A8,8,0,1,0,8,31a1,1,0,0,0,0-2Z"/><path class="cls-1" d="M7.14,13a1,1,0,0,0,1.24-.69A10,10,0,0,1,28,15a1,1,0,0,0,2,0A12,12,0,0,0,6.45,11.73,1,1,0,0,0,7.14,13Z"/><path class="cls-1" d="M32,29H29.86l1-1.45a1,1,0,0,0-1.67-1.1L27.46,29H24.81A3,3,0,0,0,23,27.18V24.54l2.55-1.71a1,1,0,1,0-1.11-1.66l-1.44,1V20a1,1,0,0,0-2,0v2.13l-1.45-1a1,1,0,1,0-1.11,1.66L21,24.54v2.64A3,3,0,0,0,19.18,29H16.53l-1.7-2.55a1,1,0,0,0-1.67,1.1l1,1.45H12a1,1,0,0,0,0,2h2.13l-1,1.45a1,1,0,0,0,.28,1.38A1,1,0,0,0,14,34a1,1,0,0,0,.83-.45L16.53,31h2.65A3,3,0,0,0,21,32.82v2.64l-2.56,1.71a1,1,0,1,0,1.11,1.66l1.45-1V40a1,1,0,0,0,2,0V37.87l1.44,1A1,1,0,0,0,25,39a1,1,0,0,0,.55-1.83L23,35.46V32.82A3,3,0,0,0,24.81,31h2.65l1.7,2.55A1,1,0,0,0,30,34a.94.94,0,0,0,.55-.17,1,1,0,0,0,.28-1.38l-1-1.45H32a1,1,0,0,0,0-2ZM22,31a1,1,0,1,1,1-1A1,1,0,0,1,22,31Z"/></g></svg>