<svg xmlns="http://www.w3.org/2000/svg" viewBox="0 0 44 44"><defs><style>.cls-1{fill:#fff;}</style></defs><title>cws-icon-student-male</title><g id="student_male"><circle class="cls-1" cx="19" cy="15" r="1"/><circle class="cls-1" cx="25" cy="15" r="1"/><path class="cls-1" d="M8.85,4,12,4.47V11a67.25,67.25,0,0,0,.77,6.84,8.77,8.77,0,0,0,1.94,4.58l.22.26a9.19,9.19,0,0,0,14.14,0l.22-.26a8.69,8.69,0,0,0,1.93-4.53s.3-1.9.53-3.77a1,1,0,0,0-2-.24c-.22,1.83-.51,3.68-.52,3.74a6.76,6.76,0,0,1-1.5,3.53l-.21.26a7.2,7.2,0,0,1-11.06,0l-.21-.26a6.84,6.84,0,0,1-1.51-3.58S14,12.84,14,11V4.78L21.85,6h.3L30,4.78V9.2a41.14,41.14,0,0,1-13.86.39,1,1,0,0,0-1.13.84,1,1,0,0,0,.85,1.14A43.76,43.76,0,0,0,22,12a40,40,0,0,0,9.26-1A1,1,0,0,0,32,10V4.47l2-.3V9.28A2,2,0,0,0,33,11a2,2,0,0,0,4,0,2,2,0,0,0-1-1.72V3a1,1,0,0,0-.85-1l-13-2h-.3l-13,2a1,1,0,0,0,0,2ZM22,2l6.42,1L22,4,15.58,3Z"/><path class="cls-1" d="M35,29.38,28.2,28a1,1,0,0,0-.84.21l-4.08,3.4a2,2,0,0,1-2.56,0l-.08-.06-2.08-1.4a1,1,0,0,0-1.12,1.66l2,1.37A4,4,0,0,0,21,34v5a1,1,0,0,0,2,0V34a3.89,3.89,0,0,0,1.56-.78l3.71-3.1,6.32,1.27A3,3,0,0,1,37,34.28V41a1,1,0,0,1-1,1H8a1,1,0,0,1-1-1V34.28a3,3,0,0,1,2.41-2.94L16.2,30a1,1,0,0,0-.4-2L9,29.38a5,5,0,0,0-4,4.9V41a3,3,0,0,0,3,3H36a3,3,0,0,0,3-3V34.28A5,5,0,0,0,35,29.38Z"/><path class="cls-1" d="M21,21h2a1,1,0,0,0,0-2H21a1,1,0,0,0,0,2Z"/></g></svg>