<svg xmlns="http://www.w3.org/2000/svg" viewBox="0 0 44 44"><defs><style>.cls-1{fill:#fff;}</style></defs><title>cws-icon-user-globe</title><g id="user_globe"><path class="cls-1" d="M21,33V30a1,1,0,0,0,0-2V21h1a1,1,0,0,0,0-2H21V12h7c.1.39.2.79.28,1.2a1,1,0,0,0,2-.4c-.06-.28-.12-.53-.19-.8h6a18.2,18.2,0,0,1,.93,2.22,1,1,0,0,0,1.9-.64A20,20,0,1,0,16.84,39.75H17a1,1,0,0,0,.65-.24,1,1,0,0,0,.35-.76v-.63a1,1,0,0,0-.49-.86c-2-1.19-3.77-3.81-5-7.27H19v3a1,1,0,0,0,2,0ZM19,19H11a31.89,31.89,0,0,1,1-7h7Zm2-9V5a1,1,0,0,0-2,0v5H12.57C14.2,5.21,17,2,20,2s5.78,3.11,7.45,8Zm14,0h-5.4a19.28,19.28,0,0,0-3.74-7A18,18,0,0,1,35,10ZM14.15,3a19.2,19.2,0,0,0-3.71,7H8a1,1,0,0,0,0,2H9.89A34.73,34.73,0,0,0,9,19h-7A18,18,0,0,1,14.15,3Zm0,34.05A17.86,17.86,0,0,1,5,30h5.44A19.11,19.11,0,0,0,14.18,37ZM3.86,28A17.91,17.91,0,0,1,2,21H9a37.29,37.29,0,0,0,.33,4.14,1,1,0,0,0,1,.86h.14a1,1,0,0,0,.85-1.13A34.85,34.85,0,0,1,11,21h8v7Z"/><circle class="cls-1" cx="34" cy="23" r="1"/><circle class="cls-1" cx="30" cy="23" r="1"/><path class="cls-1" d="M34,16H30a5,5,0,0,0-5,5v.27A2,2,0,0,0,24,23v1a2,2,0,0,0,1.37,1.9,2.21,2.21,0,0,0,.06.34l.18.91A6,6,0,0,0,31.52,32h1a6,6,0,0,0,5.91-4.85l.18-.91.06-.34A2,2,0,0,0,40,24V23a2,2,0,0,0-1-1.73V21A5,5,0,0,0,34,16Zm3.75,8a1,1,0,0,0-1,.85l0,.36c0,.21-.06.42-.1.63l-.18.92a4,4,0,0,1-4,3.24h-1a4,4,0,0,1-3.95-3.24l-.18-.92c-.05-.21-.07-.43-.1-.64l-.05-.34a1,1,0,0,0-1-.86H26V23a1,1,0,0,0,1-1V21a3,3,0,0,1,3-3h4a3,3,0,0,1,3,3v1a1,1,0,0,0,1,1v1Z"/><path class="cls-1" d="M33,26H31a1,1,0,0,0,0,2h2a1,1,0,0,0,0-2Z"/><path class="cls-1" d="M40.21,35.27l-5-1.24A1,1,0,0,0,35,34H29a1,1,0,0,0-.24,0l-5,1.24A5,5,0,0,0,20,40.12V43a1,1,0,0,0,2,0V40.12a3,3,0,0,1,2.27-2.91L29.12,36h5.76l4.85,1.21A3,3,0,0,1,42,40.12V42H33V39a1,1,0,0,0-2,0v3H25a1,1,0,0,0,0,2H43a1,1,0,0,0,1-1V40.12A5,5,0,0,0,40.21,35.27Z"/></g></svg>