<svg xmlns="http://www.w3.org/2000/svg" viewBox="0 0 44 44"><defs><style>.cls-1{fill:#fff;}</style></defs><title>cws-icon-clipboard</title><g id="clipboard"><path class="cls-1" d="M25,29a1,1,0,0,0-1-1H18a1,1,0,0,0,0,2h6A1,1,0,0,0,25,29Z"/><path class="cls-1" d="M18,31a1,1,0,0,0,0,2h4a1,1,0,0,0,0-2Z"/><circle class="cls-1" cx="15" cy="29" r="1"/><circle class="cls-1" cx="15" cy="32" r="1"/><circle class="cls-1" cx="22" cy="4" r="1"/><path class="cls-1" d="M17,9H27a2,2,0,0,0,2-2V4.78a2,2,0,0,0-1.51-1.94l-1.84-.46a4,4,0,0,0-7.3,0l-1.84.46A2,2,0,0,0,15,4.78V7A2,2,0,0,0,17,9Zm0-4.22,2.36-.59a1,1,0,0,0,.72-.71,2,2,0,0,1,3.84,0,1,1,0,0,0,.72.71L27,4.78V7H17Z"/><path class="cls-1" d="M36,2H31a1,1,0,0,0,0,2h5a1,1,0,0,1,1,1V41a1,1,0,0,1-1,1H8a1,1,0,0,1-1-1V5A1,1,0,0,1,8,4h5a1,1,0,0,0,0-2H8A3,3,0,0,0,5,5V41a3,3,0,0,0,3,3H36a3,3,0,0,0,3-3V5A3,3,0,0,0,36,2Z"/><path class="cls-1" d="M13,6H10A1,1,0,0,0,9,7V39a1,1,0,0,0,1,1H25.34a4.94,4.94,0,0,0,3.54-1.47l4.65-4.65A5,5,0,0,0,35,30.34V7a1,1,0,0,0-1-1H31a1,1,0,0,0,0,2h2V29a2,2,0,0,1-2,2H29a3,3,0,0,0-3,3v2a2,2,0,0,1-2,2H11V8h2a1,1,0,0,0,0-2ZM28,34a1,1,0,0,1,1-1h2a3.5,3.5,0,0,0,.65-.07l-3.72,3.72A3.5,3.5,0,0,0,28,36Z"/><path class="cls-1" d="M13,22v2a1,1,0,0,0,2,0V22a1,1,0,0,0-2,0Z"/><path class="cls-1" d="M18,25a1,1,0,0,0,1-1V16a1,1,0,0,0-2,0v8A1,1,0,0,0,18,25Z"/><path class="cls-1" d="M25,19v5a1,1,0,0,0,2,0V19a1,1,0,0,0-2,0Z"/><path class="cls-1" d="M23,24V17a1,1,0,0,0-2,0v7a1,1,0,0,0,2,0Z"/><path class="cls-1" d="M29,24a1,1,0,0,0,2,0V13a1,1,0,0,0-2,0Z"/></g></svg>