<svg xmlns="http://www.w3.org/2000/svg" viewBox="0 0 44 44"><defs><style>.cls-1{fill:#fff;}</style></defs><title>cws-icon-contacts</title><g id="contacts"><path class="cls-1" d="M8,32a1,1,0,0,0,1-1V6A1,1,0,0,0,7,6V31A1,1,0,0,0,8,32Z"/><path class="cls-1" d="M34,42H8a3,3,0,0,1,0-6H32a3,3,0,0,0,3-3V3a3,3,0,0,0-3-3H10A7,7,0,0,0,3,7V33a1,1,0,0,0,2,0V7a5,5,0,0,1,5-5H32a1,1,0,0,1,1,1V33a1,1,0,0,1-1,1H8A5,5,0,0,0,8,44H34a1,1,0,0,0,0-2Z"/><path class="cls-1" d="M38,30a1,1,0,0,0,0,2,1,1,0,0,1,1,1v4a1,1,0,0,1-1,1H8a1,1,0,0,0,0,2H38a3,3,0,0,0,3-3V33A3,3,0,0,0,38,30Z"/><path class="cls-1" d="M38,18a1,1,0,0,0,0,2,1,1,0,0,1,1,1v4a1,1,0,0,1-1,1,1,1,0,0,0,0,2,3,3,0,0,0,3-3V21A3,3,0,0,0,38,18Z"/><path class="cls-1" d="M38,6a1,1,0,0,0,0,2,1,1,0,0,1,1,1v4a1,1,0,0,1-1,1,1,1,0,0,0,0,2,3,3,0,0,0,3-3V9A3,3,0,0,0,38,6Z"/><path class="cls-1" d="M25,15a1,1,0,0,0-1-1,1,1,0,0,0-.92.6A4,4,0,0,0,21,14a4,4,0,1,0,2.71,6.92A3,3,0,0,0,26,22h.91a3,3,0,0,0,3-2.51,8.82,8.82,0,0,0,.1-2.06,9,9,0,1,0-10.4,9.46A10,10,0,0,0,21,27a8.9,8.9,0,0,0,4.49-1.21,1,1,0,0,0,.37-1.36,1,1,0,0,0-1.37-.37A7,7,0,1,1,21.16,11,7.13,7.13,0,0,1,28,17.56a7.22,7.22,0,0,1-.09,1.61,1,1,0,0,1-1,.83H26a1,1,0,0,1-1-1Zm-4,5a2,2,0,1,1,2-2A2,2,0,0,1,21,20Z"/></g></svg>