<svg xmlns="http://www.w3.org/2000/svg" viewBox="0 0 44 44"><defs><style>.cls-1{fill:#fff;}</style></defs><g id="big_ben"><path class="cls-1" d="M22,9a4,4,0,1,0,4,4A4,4,0,0,0,22,9Zm0,6a2,2,0,1,1,2-2A2,2,0,0,1,22,15Z"/><path class="cls-1" d="M29,4a1,1,0,0,0-1,1H25.5L23,1.67V1a1,1,0,0,0-2,0v.67L18.5,5H16a1,1,0,0,0-2,0V20a1,1,0,0,0,1,1h9a1,1,0,0,0,0-2H16V7H28V19a1,1,0,0,0-1,1V37H25V33a1,1,0,0,0-2,0v4H21V33a1,1,0,0,0-2,0v4H17V30h7a1,1,0,0,0,1-1V24a1,1,0,0,0-2,0v4H21V24a1,1,0,0,0-2,0v4H17V24a1,1,0,0,0-2,0V43a1,1,0,0,0,2,0V39H27v4a1,1,0,0,0,2,0V21a1,1,0,0,0,1-1V5A1,1,0,0,0,29,4Zm-7-.33L23,5H21Z"/></g></svg>