<svg xmlns="http://www.w3.org/2000/svg" viewBox="0 0 44 44"><defs><style>.cls-1{fill:#fff;}</style></defs><g id="gay"><path class="cls-1" d="M20.13,16.4a3,3,0,0,0-2.4-2.67l-.59-.12a31.33,31.33,0,0,0-12.28,0l-.59.12a3,3,0,0,0-2.4,2.67L1,25.82a2.44,2.44,0,0,0,0,.27A2.92,2.92,0,0,0,3.91,29H5V43a1,1,0,0,0,1,1H16a1,1,0,0,0,1-1V32a1,1,0,0,0-2,0V42H7V28H7V20a1,1,0,0,0-2,0v7H3.91A.94.94,0,0,1,3,26l.86-9.42a1,1,0,0,1,.8-.89l.6-.12a29.24,29.24,0,0,1,11.49,0l.59.12a1,1,0,0,1,.8.89L19,26.09a.91.91,0,0,1-.91.91H17V20a1,1,0,0,0-2,0v7H11a1,1,0,0,0-1,1V40a1,1,0,0,0,2,0V29h6.09A2.92,2.92,0,0,0,21,26.09a2.35,2.35,0,0,0,0-.27Z"/><path class="cls-1" d="M11,12a5,5,0,0,0,5-5V5A5,5,0,0,0,6,5V7A5,5,0,0,0,11,12ZM8,5a3,3,0,0,1,6,0V7A3,3,0,0,1,8,7Z"/><path class="cls-1" d="M11,25a1,1,0,1,0-1-1A1,1,0,0,0,11,25Z"/><path class="cls-1" d="M11,22a1,1,0,1,0-1-1A1,1,0,0,0,11,22Z"/><path class="cls-1" d="M11,19a1,1,0,1,0-1-1A1,1,0,0,0,11,19Z"/><path class="cls-1" d="M43,25.82l-.86-9.42a3,3,0,0,0-2.4-2.67l-.59-.12a31.33,31.33,0,0,0-12.28,0l-.59.12a3,3,0,0,0-2.4,2.67L23,25.81a2.62,2.62,0,0,0,0,.28A2.92,2.92,0,0,0,25.91,29H27V43a1,1,0,0,0,1,1H38a1,1,0,0,0,1-1V32a1,1,0,0,0-2,0V42H29V28h0V20a1,1,0,0,0-2,0v7H25.91A.94.94,0,0,1,25,26l.86-9.42a1,1,0,0,1,.8-.89l.59-.12a29.29,29.29,0,0,1,11.5,0l.59.12a1,1,0,0,1,.8.89L41,26.09a.91.91,0,0,1-.91.91H39V20a1,1,0,0,0-2,0v7H33a1,1,0,0,0-1,1V40a1,1,0,0,0,2,0V29h6.09A2.92,2.92,0,0,0,43,26.09,2.53,2.53,0,0,0,43,25.82Z"/><path class="cls-1" d="M33,12a5,5,0,0,0,5-5V5A5,5,0,0,0,28,5V7A5,5,0,0,0,33,12ZM30,5a3,3,0,0,1,6,0V7a3,3,0,0,1-6,0Z"/><path class="cls-1" d="M33,25a1,1,0,1,0-1-1A1,1,0,0,0,33,25Z"/><path class="cls-1" d="M33,22a1,1,0,1,0-1-1A1,1,0,0,0,33,22Z"/><path class="cls-1" d="M33,19a1,1,0,1,0-1-1A1,1,0,0,0,33,19Z"/></g></svg>