<svg xmlns="http://www.w3.org/2000/svg" viewBox="0 0 44 44"><defs><style>.cls-1{fill:#fff;}</style></defs><g id="hyperbola"><path class="cls-1" d="M43.71,21.29l-2-2a1,1,0,0,0-1.09-.21A1,1,0,0,0,40,20v1H23V4h1a1,1,0,0,0,.92-.62,1,1,0,0,0-.21-1.09l-2-2a1,1,0,0,0-1.42,0l-2,2a1,1,0,0,0-.21,1.09A1,1,0,0,0,20,4h1V21H1a1,1,0,0,0,0,2H21V43a1,1,0,0,0,2,0V23H40v1a1,1,0,0,0,.62.92A.84.84,0,0,0,41,25a1,1,0,0,0,.71-.29l2-2A1,1,0,0,0,43.71,21.29Z"/><path class="cls-1" d="M6,19A13,13,0,0,0,19,6a1,1,0,0,0-2,0A11,11,0,0,1,6,17a1,1,0,0,0,0,2Z"/><path class="cls-1" d="M38,25A13,13,0,0,0,25,38a1,1,0,0,0,2,0A11,11,0,0,1,38,27a1,1,0,0,0,0-2Z"/></g></svg>