<svg xmlns="http://www.w3.org/2000/svg" viewBox="0 0 44 44"><defs><style>.cls-1{fill:#fff;}</style></defs><title>cws-icon-garage</title><g id="garage"><path class="cls-1" d="M43.19,9l-21-4a.81.81,0,0,0-.38,0L.81,9A1,1,0,0,0,0,10v4a1,1,0,0,0,1,1H3V38a1,1,0,0,0,1,1H30a1,1,0,0,0,0-2H5V14a1,1,0,0,0-1-1H2V10.83L22,7l20,3.81V13H40a1,1,0,0,0-1,1V37H35V16a1,1,0,0,0-1-1H10a1,1,0,0,0-1,1V34a1,1,0,0,0,2,0V17H33V38a1,1,0,0,0,1,1h6a1,1,0,0,0,1-1V15h2a1,1,0,0,0,1-1V10A1,1,0,0,0,43.19,9Z"/><path class="cls-1" d="M30,32H14a1,1,0,0,0,0,2H30a1,1,0,0,0,0-2Z"/><path class="cls-1" d="M30,24H14a1,1,0,0,0,0,2H30a1,1,0,0,0,0-2Z"/><path class="cls-1" d="M30,28H14a1,1,0,0,0,0,2H30a1,1,0,0,0,0-2Z"/><path class="cls-1" d="M30,20H14a1,1,0,0,0,0,2H30a1,1,0,0,0,0-2Z"/></g></svg>