<svg xmlns="http://www.w3.org/2000/svg" viewBox="0 0 44 44"><defs><style>.cls-1{fill:#fff;}</style></defs><title>cws-icon-books</title><g id="books"><path class="cls-1" d="M38,8H32a1,1,0,0,0,0,2h6a1,1,0,0,1,1,1V41a1,1,0,0,1-1,1H30a1,1,0,0,1-1-1V14h7a1,1,0,0,0,0-2H29V3a3,3,0,0,0-3-3H18a3,3,0,0,0-3,3V17H8a1,1,0,0,0,0,2h7V41a1,1,0,0,1-1,1H6a1,1,0,0,1-1-1V16a1,1,0,0,1,1-1h6a1,1,0,0,0,0-2H6a3,3,0,0,0-3,3V41a3,3,0,0,0,3,3h8a3,3,0,0,0,2-.78A3,3,0,0,0,18,44h8a3,3,0,0,0,2-.78A3,3,0,0,0,30,44h8a3,3,0,0,0,3-3V11A3,3,0,0,0,38,8ZM26,42H18a1,1,0,0,1-1-1V3a1,1,0,0,1,1-1h8a1,1,0,0,1,1,1V41A1,1,0,0,1,26,42Z"/><path class="cls-1" d="M32,40h4a1,1,0,0,0,0-2H32a1,1,0,0,0,0,2Z"/><path class="cls-1" d="M23,38H21a1,1,0,0,0,0,2h2a1,1,0,0,0,0-2Z"/><path class="cls-1" d="M12,38H8a1,1,0,0,0,0,2h4a1,1,0,0,0,0-2Z"/><path class="cls-1" d="M12,35H8a1,1,0,0,0,0,2h4a1,1,0,0,0,0-2Z"/><path class="cls-1" d="M12,32H8a1,1,0,0,0,0,2h4a1,1,0,0,0,0-2Z"/><path class="cls-1" d="M12,29H8a1,1,0,0,0,0,2h4a1,1,0,0,0,0-2Z"/><path class="cls-1" d="M24,6H20a1,1,0,0,0-1,1V21a1,1,0,0,0,1,1h4a1,1,0,0,0,1-1V7A1,1,0,0,0,24,6ZM23,20H21V8h2Z"/><path class="cls-1" d="M32,33a1,1,0,0,0,1-1V20a1,1,0,0,0-2,0V32A1,1,0,0,0,32,33Z"/><path class="cls-1" d="M37,26a1,1,0,0,0-2,0v6a1,1,0,0,0,2,0Z"/><path class="cls-1" d="M23,33V27a1,1,0,0,0-2,0v6a1,1,0,0,0,2,0Z"/></g></svg>