<svg xmlns="http://www.w3.org/2000/svg" viewBox="0 0 44 44"><defs><style>.cls-1{fill:#fff;}</style></defs><title>cws-icon-whellbarrow</title><g id="wheelbarrow"><path class="cls-1" d="M43,4H41.07a3,3,0,0,0-2.5,1.34L36.23,8.86a9.44,9.44,0,0,0-1.49,3.89L33.12,24.12,14.4,26.93,5.16,16H31a1,1,0,0,0,0-2H3a1,1,0,0,1,0-2H32a1,1,0,0,0,0-2H3a3,3,0,0,0-.5,6L12.71,28a5.05,5.05,0,0,0-.78.62l-.46.47A5.91,5.91,0,0,0,8,28a6,6,0,1,0,6,6,1,1,0,0,0-2,0,4,4,0,1,1-2-3.44L7.29,33.29a1,1,0,1,0,1.42,1.42l4.64-4.64a2.84,2.84,0,0,1,2.41-.81A13.18,13.18,0,0,1,23.7,33.5l4.84,5.37A3.41,3.41,0,0,0,31.07,40a3.41,3.41,0,0,0,3.34-4.07l-.55-2.74a12.1,12.1,0,0,1,1-7.74,1.12,1.12,0,0,0,.1-.31L36.72,13A7.57,7.57,0,0,1,37.89,10l2.35-3.51A1,1,0,0,1,41.07,6H43a1,1,0,0,0,0-2ZM32.15,37.49a1.45,1.45,0,0,1-2.12,0l-4.84-5.38a15.29,15.29,0,0,0-5.74-4l13-1.94a14.05,14.05,0,0,0-.51,7.33l.54,2.74A1.37,1.37,0,0,1,32.15,37.49Z"/></g></svg>