<svg xmlns="http://www.w3.org/2000/svg" viewBox="0 0 44 44"><defs><style>.cls-1{fill:#fff;}</style></defs><title>cws-icon-basket-download</title><g id="basket_download"><circle class="cls-1" cx="5" cy="17" r="1"/><circle class="cls-1" cx="39" cy="17" r="1"/><path class="cls-1" d="M12,26v8a1,1,0,0,0,2,0V26a1,1,0,0,0-2,0Z"/><path class="cls-1" d="M18,26v8a1,1,0,0,0,2,0V26a1,1,0,0,0-2,0Z"/><path class="cls-1" d="M26,26a1,1,0,0,0-2,0v8a1,1,0,0,0,2,0Z"/><path class="cls-1" d="M41,22a3,3,0,0,0,3-3V15a3,3,0,0,0-3-3H37.74L35.39,4.14A3,3,0,0,0,32.51,2H30V1a1,1,0,0,0-1-1H15a1,1,0,0,0-1,1V2H12.35A3,3,0,0,0,9.57,3.89L6.32,12H3a3,3,0,0,0-3,3v4a3,3,0,0,0,3,3h.1L4.81,37.33a3,3,0,0,0,3,2.67H24a1,1,0,0,0,0-2H7.79a1,1,0,0,1-1-.89L5,20.89A1,1,0,0,0,4,20H3a1,1,0,0,1-1-1V15a1,1,0,0,1,1-1H33a1,1,0,0,0,0-2H8.48l2.95-7.37A1,1,0,0,1,12.35,4H14V5a1,1,0,0,0,1,1H29a1,1,0,0,0,1-1V4h2.51a1,1,0,0,1,1,.71L36,13.29A1,1,0,0,0,37,14h4a1,1,0,0,1,1,1v4a1,1,0,0,1-1,1H8a1,1,0,0,0,0,2H38.88l-.51,4.66A9,9,0,0,0,35,26a8.81,8.81,0,0,0-3,.53V26a1,1,0,0,0-2,0v1.52a9,9,0,1,0,10.26.19L40.9,22ZM28,4H16V2H28ZM42,35a7,7,0,1,1-7-7A7,7,0,0,1,42,35Z"/><path class="cls-1" d="M37.45,35.17l-1.45,1V32a1,1,0,0,0-2,0v4.13l-1.45-1a1,1,0,0,0-1.1,1.66l3,2a1,1,0,0,0,1.1,0l3-2a1,1,0,0,0-1.1-1.66Z"/></g></svg>