<svg xmlns="http://www.w3.org/2000/svg" viewBox="0 0 44 44"><defs><style>.cls-1{fill:#fff;}</style></defs><title>cws-icon-network-2</title><g id="network_2"><path class="cls-1" d="M41.29,20.29a1,1,0,1,0,1.42,0A1.05,1.05,0,0,0,41.29,20.29Z"/><circle class="cls-1" cx="27.8" cy="7" r="1"/><circle class="cls-1" cx="35.36" cy="7" r="1"/><circle class="cls-1" cx="31.58" cy="7" r="1"/><circle class="cls-1" cx="42" cy="13.43" r="1"/><path class="cls-1" d="M41.78,10.67a1.26,1.26,0,0,0,.33-.05,1,1,0,1,0-.67-1.89,1,1,0,0,0,.34,1.94Z"/><path class="cls-1" d="M38.85,8.12a.9.9,0,0,0,.28,0,1,1,0,1,0-.28,0Z"/><circle class="cls-1" cx="42" cy="17.22" r="1"/><path class="cls-1" d="M23.44,7.83a.76.76,0,0,0,.18.09A.64.64,0,0,0,23.8,8L24,8a1,1,0,0,0,.71-1.71A1,1,0,0,0,23.8,6a.64.64,0,0,0-.18.06.76.76,0,0,0-.18.09l-.15.12a1,1,0,0,0,0,1.42Z"/><path class="cls-1" d="M1.17,19.56a1.58,1.58,0,0,0,.12.15A1.05,1.05,0,0,0,2,20a1.05,1.05,0,0,0,.71-.29l.12-.15a.76.76,0,0,0,.09-.18A.64.64,0,0,0,3,19.2,1.36,1.36,0,0,0,3,19a1.05,1.05,0,0,0-.29-.71,1,1,0,0,0-1.42,0A1.05,1.05,0,0,0,1,19a1.36,1.36,0,0,0,0,.2.64.64,0,0,0,.06.18A.76.76,0,0,0,1.17,19.56Z"/><circle class="cls-1" cx="11.92" cy="35" r="1"/><circle class="cls-1" cx="15.95" cy="35" r="1"/><circle class="cls-1" cx="2" cy="23.03" r="1"/><path class="cls-1" d="M7.89,34a1,1,0,1,0,0,2,1,1,0,0,0,0-2Z"/><path class="cls-1" d="M2,30.1a1,1,0,0,0-1,1,1,1,0,0,0,1,1H2a1,1,0,0,0,1-1A1,1,0,0,0,2,30.1Z"/><circle class="cls-1" cx="2" cy="27.07" r="1"/><path class="cls-1" d="M4.47,33.58a1,1,0,1,0-1,1.72,1.06,1.06,0,0,0,.51.14A1,1,0,0,0,4.81,35,1,1,0,0,0,4.47,33.58Z"/><path class="cls-1" d="M20.38,34.08a.92.92,0,0,0-.76,0,1,1,0,0,0-.33.21,1,1,0,0,0,0,1.42,1,1,0,0,0,.33.21A1,1,0,0,0,20,36a1,1,0,0,0,.71-1.71A1,1,0,0,0,20.38,34.08Z"/><path class="cls-1" d="M18,0H4A3,3,0,0,0,1,3V13a3,3,0,0,0,3,3h6v2H8a1,1,0,0,0,0,2h6a1,1,0,0,0,0-2H12V15a1,1,0,0,0-1-1H4a1,1,0,0,1-1-1V12H19v1a1,1,0,0,1-1,1H15a1,1,0,0,0,0,2h3a3,3,0,0,0,3-3V3A3,3,0,0,0,18,0ZM3,10V3A1,1,0,0,1,4,2H18a1,1,0,0,1,1,1v7Z"/><path class="cls-1" d="M40,24H26a3,3,0,0,0-3,3V37a3,3,0,0,0,3,3h6v2H30a1,1,0,0,0,0,2h6a1,1,0,0,0,0-2H34V39a1,1,0,0,0-1-1H26a1,1,0,0,1-1-1V36H41v1a1,1,0,0,1-1,1H37a1,1,0,0,0,0,2h3a3,3,0,0,0,3-3V27A3,3,0,0,0,40,24ZM25,34V27a1,1,0,0,1,1-1H40a1,1,0,0,1,1,1v7Z"/></g></svg>