<svg xmlns="http://www.w3.org/2000/svg" viewBox="0 0 44 44"><defs><style>.cls-1{fill:#fff;}</style></defs><title>cws-icon-metro</title><g id="metro"><circle class="cls-1" cx="15" cy="27" r="1"/><circle class="cls-1" cx="29" cy="27" r="1"/><path class="cls-1" d="M22,1A21,21,0,0,0,8.64,38.2a1,1,0,0,0,.64.23,1,1,0,0,0,.77-.36,1,1,0,0,0-.13-1.41,19,19,0,1,1,24.21,0,1,1,0,0,0,1.28,1.54A21,21,0,0,0,22,1Z"/><path class="cls-1" d="M30,16a1,1,0,0,0,0-2H14a1,1,0,0,0,0,2h7v6H14a1,1,0,0,0,0,2H30a1,1,0,0,0,0-2H23V16Z"/><path class="cls-1" d="M29.85,33.47a1,1,0,0,0-1.7,1.06l5,8a1,1,0,0,0,1.38.32,1,1,0,0,0,.32-1.38Z"/><path class="cls-1" d="M15.53,33.15a1,1,0,0,0-1.38.32l-5,8a1,1,0,0,0,.32,1.38,1,1,0,0,0,1.38-.32l5-8A1,1,0,0,0,15.53,33.15Z"/><path class="cls-1" d="M29,41H15a1,1,0,0,0,0,2H29a1,1,0,0,0,0-2Z"/><path class="cls-1" d="M16,38a1,1,0,0,0,1,1H27a1,1,0,0,0,0-2H17A1,1,0,0,0,16,38Z"/><path class="cls-1" d="M25,35a1,1,0,0,0,0-2H19a1,1,0,0,0,0,2Z"/><path class="cls-1" d="M20,26a1,1,0,0,0,0,2h4a1,1,0,0,0,0-2Z"/><path class="cls-1" d="M14,9H13a3,3,0,0,0-3,3V29a3,3,0,0,0,3,3H31a3,3,0,0,0,3-3V12a3,3,0,0,0-3-3H26.83A3,3,0,0,0,24,7H20a3,3,0,0,0,0,6h4a1,1,0,0,0,0-2H20a1,1,0,0,1,0-2h4a1,1,0,0,1,1,1,1,1,0,0,0,1,1h5a1,1,0,0,1,1,1V29a1,1,0,0,1-1,1H13a1,1,0,0,1-1-1V12a1,1,0,0,1,1-1h1a1,1,0,0,0,0-2Z"/></g></svg>