<svg xmlns="http://www.w3.org/2000/svg" viewBox="0 0 44 44"><defs><style>.cls-1{fill:#fff;}</style></defs><g id="floppy"><path class="cls-1" d="M41.54,8.12,34.88,1.46A5,5,0,0,0,31.34,0H11a1,1,0,0,0,0,2H31.34a3,3,0,0,1,2.12.88l6.66,6.66A3,3,0,0,1,41,11.66V41a1,1,0,0,1-1,1,1,1,0,0,0,0,2,3,3,0,0,0,3-3V11.66A5,5,0,0,0,41.54,8.12Z"/><path class="cls-1" d="M27,9V5a1,1,0,0,0-2,0V9a1,1,0,0,0,2,0Z"/><path class="cls-1" d="M37,22H7a1,1,0,0,0-1,1V39a1,1,0,0,0,2,0V24H36V42H4a1,1,0,0,1-1-1V3A1,1,0,0,1,4,2H6V13a1,1,0,0,0,1,1H31a1,1,0,0,0,1-1V5a1,1,0,0,0-2,0v7H8V1A1,1,0,0,0,7,0H4A3,3,0,0,0,1,3V41a3,3,0,0,0,3,3H37a1,1,0,0,0,1-1V23A1,1,0,0,0,37,22Z"/><path class="cls-1" d="M13,30H31a1,1,0,0,0,0-2H13a1,1,0,0,0,0,2Z"/><path class="cls-1" d="M13,34H31a1,1,0,0,0,0-2H13a1,1,0,0,0,0,2Z"/><path class="cls-1" d="M13,38H31a1,1,0,0,0,0-2H13a1,1,0,0,0,0,2Z"/></g></svg>