<svg xmlns="http://www.w3.org/2000/svg" viewBox="0 0 64 56"><defs><style>.cls-1{fill:#fff;}</style></defs><g id="dress"><path class="cls-1" d="M29.63,31.32V42.48a1,1,0,0,0,2,0V31.32a1,1,0,0,0-2,0Z"/><path class="cls-1" d="M36.26,30.55a1,1,0,0,0-.56,1.3l.14.36a24.72,24.72,0,0,1,1.77,8.31,1,1,0,0,0,1,1h0a1,1,0,0,0,1-1,26.87,26.87,0,0,0-1.91-9l-.14-.36A1,1,0,0,0,36.26,30.55Z"/><path class="cls-1" d="M25,30.55a1,1,0,0,0-1.3.56l-.14.36a26.84,26.84,0,0,0-1.93,10v2a1,1,0,0,0,2,0v-2a24.74,24.74,0,0,1,1.79-9.27l.14-.36A1,1,0,0,0,25,30.55Z"/><path class="cls-1" d="M39.68,24.58a1,1,0,1,0-1.53,1.29,32.36,32.36,0,0,1,7.46,19.59A13.27,13.27,0,0,0,30,46.74a10.86,10.86,0,0,1-7.33,2.74,11.09,11.09,0,0,1-6.56-2.11,1,1,0,0,1-.44-.83,32.33,32.33,0,0,1,7.49-20.67l2.28-2.75A1,1,0,0,0,25.49,22a20.06,20.06,0,0,1-2.86-10.32V9.52a10.1,10.1,0,0,1,5.57,1.94,4,4,0,0,0,4.86,0,10.1,10.1,0,0,1,5.57-1.94v2.13a20.08,20.08,0,0,1-2.57,9.83H28.63a1,1,0,0,0,0,2h8a1,1,0,0,0,.86-.48,22.12,22.12,0,0,0,3.14-11.35V8.48a1,1,0,0,0-1-1,12.51,12.51,0,0,0-7.78,2.39,2,2,0,0,1-2.43,0,12.56,12.56,0,0,0-7.79-2.39,1,1,0,0,0-1,1v3.17a22,22,0,0,0,2.79,10.73l-1.84,2.2a34.34,34.34,0,0,0-7.95,22A3.07,3.07,0,0,0,14.88,49a13.11,13.11,0,0,0,7.75,2.5,12.82,12.82,0,0,0,8.67-3.26A11.2,11.2,0,0,1,45,47.48,11.31,11.31,0,0,1,35,48.88a1,1,0,1,0-.65,1.89,13.23,13.23,0,0,0,4.3.71,13,13,0,0,0,8.66-3.23l0,0a1,1,0,0,0,.33-.74v-.94A34.34,34.34,0,0,0,39.68,24.58Z"/></g></svg>