<svg xmlns="http://www.w3.org/2000/svg" viewBox="0 0 44 44"><defs><style>.cls-1{fill:#fffafc;}</style></defs><g id="mist"><path class="cls-1" d="M27,22a1,1,0,0,0-1-1H1a1,1,0,0,0,0,2H26A1,1,0,0,0,27,22Z"/><path class="cls-1" d="M31,30a1,1,0,0,0-1-1H5a1,1,0,0,0,0,2H30A1,1,0,0,0,31,30Z"/><path class="cls-1" d="M4,19H15a1,1,0,0,0,0-2H4a1,1,0,0,0,0,2Z"/><path class="cls-1" d="M16,25a1,1,0,0,0,0,2h8a1,1,0,0,0,0-2Z"/><path class="cls-1" d="M28,37H21a1,1,0,0,0,0,2h7a1,1,0,0,0,0-2Z"/><path class="cls-1" d="M20,10a1,1,0,0,0,1,1H31a1,1,0,0,0,0-2H21A1,1,0,0,0,20,10Z"/><path class="cls-1" d="M8,25a1,1,0,0,0,0,2h4a1,1,0,0,0,0-2Z"/><path class="cls-1" d="M28,13a1,1,0,0,0,0,2h4a1,1,0,0,0,0-2Z"/><path class="cls-1" d="M14,9a1,1,0,0,0,0,2h3a1,1,0,0,0,0-2Z"/><path class="cls-1" d="M39,25H28a1,1,0,0,0,0,2H39a1,1,0,0,0,0-2Z"/><path class="cls-1" d="M34,33H30a1,1,0,0,0,0,2h4a1,1,0,0,0,0-2Z"/><path class="cls-1" d="M43,21H30a1,1,0,0,0,0,2H43a1,1,0,0,0,0-2Z"/><path class="cls-1" d="M18,18a1,1,0,0,0,1,1H35a1,1,0,0,0,0-2H19A1,1,0,0,0,18,18Z"/><path class="cls-1" d="M14,33a1,1,0,0,0,0,2H26a1,1,0,0,0,0-2Z"/><path class="cls-1" d="M11,7H27a1,1,0,0,0,0-2H11a1,1,0,0,0,0,2Z"/><path class="cls-1" d="M10,15H24a1,1,0,0,0,0-2H10a1,1,0,0,0,0,2Z"/><path class="cls-1" d="M17,37H8a1,1,0,0,0,0,2h9a1,1,0,0,0,0-2Z"/></g></svg>