<svg xmlns="http://www.w3.org/2000/svg" viewBox="0 0 44 44"><defs><style>.cls-1{fill:#fff;}</style></defs><g id="spider"><path class="cls-1" d="M37.49,23.13l-8.77-4.87,8.73-4.37a1,1,0,0,0,.5-.57l3-9a1,1,0,0,0-1.9-.64l-2.87,8.61-5.84,2.92L33.8,10.6a.89.89,0,0,0,.18-.38l2-9a1,1,0,1,0-2-.44l-2,8.79L28,15h0a6,6,0,0,0-.5-2.4,1,1,0,1,0-1.83.8,4,4,0,0,1-.52,4,1,1,0,0,0-.19.81,1,1,0,0,0,.49.67,7,7,0,1,1-9.51,9.59A6.93,6.93,0,0,1,15,25a7,7,0,0,1,3.55-6.09,1,1,0,0,0,.49-.67,1,1,0,0,0-.19-.81A3.93,3.93,0,0,1,18,15a4,4,0,0,1,4-4,4.26,4.26,0,0,1,.8.08A1,1,0,0,0,24,10.26l.9-1.81a1,1,0,0,0-1.78-.9L22.38,9H22l-.37,0-.74-1.47a1,1,0,0,0-1.78.9l.52,1A6,6,0,0,0,16,15h0L11.93,9.57,10,.78a1,1,0,0,0-2,.44l2,9a.89.89,0,0,0,.18.38l3.46,4.61L7.82,12.29,5,3.68a1,1,0,1,0-1.9.64l3,9a1,1,0,0,0,.5.57l8.73,4.37L6.51,23.13a1,1,0,0,0-.49.69l-3,16A1,1,0,0,0,3.82,41L4,41a1,1,0,0,0,1-.82L7.9,24.65l5.2-2.89-2.95,4.71a1.11,1.11,0,0,0-.14.41l-2,16A1,1,0,0,0,8.88,44H9a1,1,0,0,0,1-.88l2-15.78L13,25.62a9,9,0,0,0,17.93,0L32,27.34l2,15.78A1,1,0,0,0,35,44h.12A1,1,0,0,0,36,42.88l-2-16a1.11,1.11,0,0,0-.14-.41l-3-4.71,5.2,2.89L39,40.18A1,1,0,0,0,40,41l.18,0a1,1,0,0,0,.8-1.16l-3-16A1,1,0,0,0,37.49,23.13Z"/><path class="cls-1" d="M18,25a4,4,0,1,0,4-4A4,4,0,0,0,18,25Zm6,0a2,2,0,1,1-2-2A2,2,0,0,1,24,25Z"/></g></svg>