<svg xmlns="http://www.w3.org/2000/svg" viewBox="0 0 44 44"><defs><style>.cls-1{fill:#fff;}</style></defs><g id="taj_mahal"><path class="cls-1" d="M43,36V33a1,1,0,0,0-2,0v3H39V33a1,1,0,0,0-2,0v3H26V28.61a4,4,0,0,0-1.78-3.33l-1.67-1.11a1,1,0,0,0-1.1,0l-1.67,1.11A4,4,0,0,0,18,28.61V36H7V33a1,1,0,0,0-2,0v3H3V33a1,1,0,0,0-2,0v3a1,1,0,0,0,0,2H43a1,1,0,0,0,0-2ZM20,28.61a2,2,0,0,1,.89-1.67L22,26.2l1.11.74A2,2,0,0,1,24,28.61V36H20Z"/><path class="cls-1" d="M10,34a1,1,0,0,0,1-1V22H24a1,1,0,0,0,0-2H16.49A7.11,7.11,0,0,1,16,17.19c0-2.49,3.94-5.63,6-7,2.06,1.37,6,4.51,6,7a6.67,6.67,0,0,1-.58,3A1,1,0,0,0,28,22h5V33a1,1,0,0,0,2,0V21a1,1,0,0,0-1-1,4,4,0,0,0-4-4,1,1,0,0,0-.17,0C29,12.62,24.55,9.47,23,8.45V7a1,1,0,0,0-2,0V8.45c-1.55,1-5.95,4.17-6.83,7.58A1,1,0,0,0,14,16a4,4,0,0,0-4,4,1,1,0,0,0-1,1V33A1,1,0,0,0,10,34ZM32,20H29.63A9.5,9.5,0,0,0,30,18H30A2,2,0,0,1,32,20ZM14,18h0a9.46,9.46,0,0,0,.35,2H12A2,2,0,0,1,14,18Z"/><path class="cls-1" d="M30,25a1,1,0,0,0-2,0v2a1,1,0,0,0,2,0Z"/><path class="cls-1" d="M29,30a1,1,0,0,0-1,1v2a1,1,0,0,0,2,0V31A1,1,0,0,0,29,30Z"/><path class="cls-1" d="M16,25a1,1,0,0,0-2,0v2a1,1,0,0,0,2,0Z"/><path class="cls-1" d="M15,30a1,1,0,0,0-1,1v2a1,1,0,0,0,2,0V31A1,1,0,0,0,15,30Z"/><path class="cls-1" d="M43,29V26a1,1,0,0,0-2,0v3H39V26a1,1,0,0,0-2,0v3a1,1,0,0,0,0,2h6a1,1,0,0,0,0-2Z"/><path class="cls-1" d="M37,24h6a1,1,0,0,0,0-2V19.83a3,3,0,0,0-.88-2.12l-1.41-1.42a1,1,0,0,0-1.42,0l-1.41,1.42A3,3,0,0,0,37,19.83V22a1,1,0,0,0,0,2Zm2-4.17a1,1,0,0,1,.29-.71l.71-.71.71.71a1,1,0,0,1,.29.71V22H39Z"/><path class="cls-1" d="M1,31H7a1,1,0,0,0,0-2V26a1,1,0,0,0-2,0v3H3V26a1,1,0,0,0-2,0v3a1,1,0,0,0,0,2Z"/><path class="cls-1" d="M1,24H7a1,1,0,0,0,0-2V19.83a3,3,0,0,0-.88-2.12L4.71,16.29a1,1,0,0,0-1.42,0L1.88,17.71A3,3,0,0,0,1,19.83V22a1,1,0,0,0,0,2Zm2-4.17a1,1,0,0,1,.29-.71L4,18.41l.71.71a1,1,0,0,1,.29.71V22H3Z"/></g></svg>