<svg xmlns="http://www.w3.org/2000/svg" viewBox="0 0 44 44"><defs><style>.cls-1{fill:#fff;}</style></defs><g id="maple_leaf"><path class="cls-1" d="M42.87,23.5l-1.3-2.24,1-3.69a1,1,0,0,0-.1-.76,1,1,0,0,0-.6-.46l-3.71-1-1.29-2.24a1.07,1.07,0,0,0-.63-.47,1,1,0,0,0-.78.13L31,15.67a1,1,0,0,1-1.54-.89L30,4.05a1,1,0,0,0-1.24-1l-3.36.84L22.8.38a1,1,0,0,0-1.6,0L18.6,3.87,15.24,3a1,1,0,0,0-1.24,1l.57,10.73a1,1,0,0,1-1.54.89L8.55,12.78a1,1,0,0,0-1.41.34L5.85,15.36l-3.71,1a1,1,0,0,0-.6.46,1,1,0,0,0-.1.76l1,3.69L1.13,23.5a1,1,0,0,0-.08.81,1,1,0,0,0,.55.61l11.93,5.16a1,1,0,0,1,.56,1.21L13,34.71a1,1,0,0,0,.16.89,1,1,0,0,0,.8.4h5a2,2,0,0,1,2,2v5a1,1,0,0,0,2,0V38a4,4,0,0,0-4-4H15.35L16,31.87a3,3,0,0,0-1.68-3.62L3.43,23.53l.94-1.62a1,1,0,0,0,.1-.76L3.63,18l3.13-.84a1,1,0,0,0,.61-.46l1-1.69,3.59,2.32a3,3,0,0,0,4.62-2.68L16.07,5.3,18.76,6a1,1,0,0,0,1-.37L22,2.67,24.2,5.6a1,1,0,0,0,1,.37l2.69-.67-.49,9.37a3,3,0,0,0,4.62,2.68L35.65,15l1,1.69a1,1,0,0,0,.61.46l3.13.84-.84,3.13a1,1,0,0,0,.1.76l.94,1.62L29.68,28.25A3,3,0,0,0,28,31.87L28.65,34H26a1,1,0,0,0,0,2h4a1,1,0,0,0,.8-.4,1,1,0,0,0,.16-.89l-1.05-3.42a1,1,0,0,1,.56-1.21L42.4,24.92a1,1,0,0,0,.55-.61A1,1,0,0,0,42.87,23.5Z"/><path class="cls-1" d="M22,33a1,1,0,0,0,1-1V27.62l7.45-3.73a1,1,0,1,0-.9-1.78L23,25.38V16a1,1,0,0,0-2,0v9.38l-6.55-3.27a1,1,0,1,0-.9,1.78L21,27.62V32A1,1,0,0,0,22,33Z"/></g></svg>