<svg xmlns="http://www.w3.org/2000/svg" viewBox="0 0 44 44"><defs><style>.cls-1{fill:#fff;}</style></defs><title>cws-icon-newspapaer</title><g id="newspaper"><circle class="cls-1" cx="18" cy="15" r="1"/><path class="cls-1" d="M13,31H28a1,1,0,0,0,0-2H13a1,1,0,0,0,0,2Z"/><path class="cls-1" d="M39,33H26a1,1,0,0,0,0,2H39a1,1,0,0,0,0-2Z"/><path class="cls-1" d="M39,29H32a1,1,0,0,0,0,2h7a1,1,0,0,0,0-2Z"/><path class="cls-1" d="M13,39H27a1,1,0,0,0,0-2H13a1,1,0,0,0,0,2Z"/><path class="cls-1" d="M13,35h9a1,1,0,0,0,0-2H13a1,1,0,0,0,0,2Z"/><path class="cls-1" d="M39,37H31a1,1,0,0,0,0,2h8a1,1,0,0,0,0-2Z"/><path class="cls-1" d="M39,15H31a1,1,0,0,0,0,2h8a1,1,0,0,0,0-2Z"/><path class="cls-1" d="M39,23H31a1,1,0,0,0,0,2h8a1,1,0,0,0,0-2Z"/><path class="cls-1" d="M39,11H31a1,1,0,0,0,0,2h8a1,1,0,0,0,0-2Z"/><path class="cls-1" d="M31,21h6a1,1,0,0,0,0-2H31a1,1,0,0,0,0,2Z"/><path class="cls-1" d="M41,0H11A3,3,0,0,0,8,3V39a3,3,0,0,1-6,0V9A1,1,0,0,1,4,9V39a1,1,0,0,0,2,0V9A3,3,0,0,0,0,9V39a5,5,0,0,0,10,0V3a1,1,0,0,1,1-1H41a1,1,0,0,1,1,1V39a3,3,0,0,1-3,3H11a1,1,0,0,0,0,2H39a5,5,0,0,0,5-5V3A3,3,0,0,0,41,0Z"/><path class="cls-1" d="M30,5H22a1,1,0,0,0,0,2h8a1,1,0,0,0,0-2Z"/><path class="cls-1" d="M15.27,19.05,12.4,21.2a1,1,0,0,0-.4.8v3a1,1,0,0,0,1,1H27a1,1,0,0,0,1-1V11a1,1,0,0,0-1-1H13a1,1,0,0,0-1,1v7a1,1,0,0,0,2,0V12H26v4.14a3,3,0,0,0-4.4.66l-1.88,2.81-1-.66A3,3,0,0,0,15.27,19.05Zm2.35,1.57,1.83,1.21a1,1,0,0,0,1.38-.28l2.43-3.64a1,1,0,0,1,.81-.45,1,1,0,0,1,.83.4L26,19.33V24H14V22.5l2.47-1.85A1,1,0,0,1,17.62,20.62Z"/></g></svg>