<svg xmlns="http://www.w3.org/2000/svg" viewBox="0 0 44 44"><defs><style>.cls-1{fill:#fff;}</style></defs><title>cws-icon-mailbox</title><g id="mailbox"><path class="cls-1" d="M7,21a1,1,0,0,0,0,2h4a1,1,0,0,0,0-2Z"/><path class="cls-1" d="M35,9H25a1,1,0,0,0,0,2H35a7,7,0,0,1,7,7V30a1,1,0,0,1-1,1H3a1,1,0,0,1-1-1V18a7,7,0,0,1,14,0V28a1,1,0,0,0,2,0V18a9,9,0,0,0-3.36-7H20V22a1,1,0,0,0,2,0V4a1,1,0,0,1,1-1h6a1,1,0,0,1,0,2H25a1,1,0,0,0,0,2h4a3,3,0,0,0,0-6H23a3,3,0,0,0-3,3V9H9a9,9,0,0,0-9,9V30a3,3,0,0,0,3,3H17v2a1,1,0,0,0,1,1h1v6a1,1,0,0,0,2,0V36h2v6a1,1,0,0,0,2,0V36h1a1,1,0,0,0,1-1V33H41a3,3,0,0,0,3-3V18A9,9,0,0,0,35,9ZM25,34H19V33h6Z"/></g></svg>