<svg xmlns="http://www.w3.org/2000/svg" viewBox="0 0 44 44"><defs><style>.cls-1{fill:#fff;}</style></defs><title>cws-icon-presentation-video</title><g id="presentation_video"><path class="cls-1" d="M40,2H23V1a1,1,0,0,0-2,0V2H4A3,3,0,0,0,4,8H36a1,1,0,0,0,0-2H4A1,1,0,0,1,4,4H40a1,1,0,0,1,0,2,1,1,0,0,0-1,1V29a1,1,0,0,1-1,1H6a1,1,0,0,1-1-1V11a1,1,0,0,0-2,0V29a3,3,0,0,0,3,3H21v7.13a4,4,0,0,0-2.17,1.43A3.38,3.38,0,0,1,16.17,42H16a1,1,0,0,0,0,2h.17a5.43,5.43,0,0,0,4.25-2.22,2.05,2.05,0,0,1,3.16,0A5.43,5.43,0,0,0,27.83,44H28a1,1,0,0,0,0-2h-.17a3.38,3.38,0,0,1-2.66-1.44A4,4,0,0,0,23,39.13V32H38a3,3,0,0,0,3-3V7.83A3,3,0,0,0,40,2Z"/><path class="cls-1" d="M19,25a.94.94,0,0,0,.58-.19l7-5a1,1,0,0,0,0-1.62l-7-5A1,1,0,0,0,18,14V24a1,1,0,0,0,.54.89A1.07,1.07,0,0,0,19,25Zm1-9.06L24.28,19,20,22.06Z"/></g></svg>