<svg id="Layer_1" data-name="Layer 1" xmlns="http://www.w3.org/2000/svg" viewBox="0 0 160 30"><defs><style>.cls-1{fill:#fff;}</style></defs><title>cws-logo-partner-kofax</title><polygon class="cls-1" points="32.5 0.9 20.4 0.9 9.1 12 9.1 0.9 0 0.9 0 29.1 9.1 29.1 9.1 21.1 13 17.8 21.3 29.1 33.4 29.1 20.1 12 32.5 0.9"/><path class="cls-1" d="M48.4,0C38.8,0,30.8,3.3,30.7,15s8.2,15,17.7,15c9.7,0,17.7-3.2,17.7-15S58,0,48.4,0Zm0,23.7c-4.8,0-8.1-2.8-8.1-8.7s3.3-8.7,8.1-8.7,8.1,2.8,8.1,8.7S53.3,23.7,48.4,23.7Z"/><polygon class="cls-1" points="93.4 12.2 77.7 12.2 77.7 7.3 94.6 7.3 94.6 0.9 68.7 0.9 68.7 29.2 77.7 29.2 77.7 18.2 93.4 18.2 93.4 12.2"/><path class="cls-1" d="M146.6,14.5,157.1,1H146.3l-5,7.6-5-7.6H125.5l10.6,13.5L125.5,27.6,114.5.9H103.4L91.7,29.2h9.8l1.6-4.6H115l1.6,4.6,19-.1,5.8-8.6,5.8,8.6h11.3ZM105,18.6,108.9,8l3.7,10.7H105Z"/></svg>