<svg xmlns="http://www.w3.org/2000/svg" viewBox="0 0 44 44"><defs><style>.cls-1{fill:#fff;}</style></defs><title>cws-icon-oil-pump</title><g id="oil_pump"><path class="cls-1" d="M18,4a3,3,0,0,1,3,3,1,1,0,0,0,2,0,3,3,0,0,1,3-3,1,1,0,0,0,0-2,5,5,0,0,0-3,1V1a1,1,0,0,0-2,0V3a5,5,0,0,0-3-1,1,1,0,0,0,0,2Z"/><path class="cls-1" d="M38.71,42.29l-2-2A1,1,0,0,0,36,40H33.83L28,8.82a1,1,0,0,0-.65-.76,1,1,0,0,0-1,.18L23,11.1V11a1,1,0,0,0-2,0v.28l-3.33-3a1,1,0,0,0-1-.21,1,1,0,0,0-.66.77L10.17,40H8a1,1,0,0,0-.71.29l-2,2a1,1,0,0,0,0,1.42,1,1,0,0,0,1.42,0L8.41,42H18a1,1,0,0,0,0-2H14.61L21,36.17V43a1,1,0,0,0,2,0V35.87L29.54,40H26a1,1,0,0,0,0,2h9.59l1.7,1.71a1,1,0,0,0,1.42,0A1,1,0,0,0,38.71,42.29ZM15.92,20.17l4.36,3.12-5.71,4.07ZM14,30.21l6.33,4-8,4.79ZM15.79,29,21,25.23v7Zm8.44-6.81a1,1,0,0,0,.77.36,1,1,0,0,0,.64-.23l2.45-2,1.34,7.13L23,22.77v-7L26.48,19l-2.12,1.76A1,1,0,0,0,24.23,22.14Zm3.29-4.93-4.16-3.78,3-2.55ZM17.65,11l2.68,2.43-3,2.55a1,1,0,1,0,1.3,1.52l2.35-2v5.9L16.33,18ZM23,25.23,28.31,29,25.4,31.2a1,1,0,0,0-.2,1.4,1,1,0,0,0,.8.4,1,1,0,0,0,.6-.2L30,30.27l1.62,8.66L23,33.5Z"/></g></svg>