<svg id="shorts" xmlns="http://www.w3.org/2000/svg" viewBox="0 0 64 56"><defs><style>.cls-1{fill:#fff;}</style></defs><path class="cls-1" d="M56,49.87,54,19.93A1,1,0,0,0,53,19H37V18h3a1,1,0,0,0,0-2H28a1,1,0,0,0,0,2h3v1H16V15H52v1a1,1,0,0,0,2,0V14a1,1,0,0,0-1-1H15a1,1,0,0,0-1,1v6a1,1,0,0,0,1,1h7.9A5,5,0,0,1,18,25a1,1,0,0,0,0,2,7,7,0,0,0,6.92-6H31v5a1,1,0,0,0,2,0V21h2v8a1,1,0,0,0,2,0V21h6.08A7,7,0,0,0,50,27a1,1,0,0,0,0-2,5,5,0,0,1-4.9-4h7l1.47,22H49.84a1,1,0,0,1-1-.92L48.34,36H50a1,1,0,0,0,0-2H48.17l-.08-1H50a1,1,0,0,0,0-2H47a1,1,0,0,0-.74.32,1,1,0,0,0-.26.76l.85,10.17a3,3,0,0,0,3,2.75h3.82L54,50.06a.94.94,0,0,1-.94.94H39.73a.93.93,0,0,1-.93-.83L38.67,49H51a1,1,0,0,0,0-2H38.45L37.21,35.88a3.23,3.23,0,0,0-6.42,0L29.2,50.17a.93.93,0,0,1-.93.83H14.94A1,1,0,0,1,14,50l.07-1H26a1,1,0,0,0,0-2H14.2l.14-2h3.82a3,3,0,0,0,3-2.75L22,32.08a1,1,0,0,0-.26-.76A1,1,0,0,0,21,31H18a1,1,0,0,0,0,2h1.91l-.08,1H18a1,1,0,0,0,0,2h1.66l-.5,6.08a1,1,0,0,1-1,.92H14.47l1.26-18.93A1,1,0,0,0,14.8,23a1,1,0,0,0-1.06.93L12,49.87a1.21,1.21,0,0,0,0,.19A2.94,2.94,0,0,0,14.94,53H28.27a2.93,2.93,0,0,0,2.92-2.61L32.77,36.1a1.24,1.24,0,0,1,2.46,0l1.58,14.29A2.93,2.93,0,0,0,39.73,53H53.06A2.94,2.94,0,0,0,56,50.06,1.21,1.21,0,0,0,56,49.87ZM33,19V18h2v1Z"/></svg>