<svg id="Layer_1" data-name="Layer 1" xmlns="http://www.w3.org/2000/svg" viewBox="0 0 44 44"><defs><style>.cls-1{fill:#fff;}</style></defs><title>cws-icon-jackhammer</title><path class="cls-1" d="M39,5H33.71a.67.67,0,0,1-.5-.21A2.69,2.69,0,0,0,31.29,4H31V3a3,3,0,0,0-3-3H16a3,3,0,0,0-3,3V4h-.29a2.69,2.69,0,0,0-1.92.79.67.67,0,0,1-.5.21H5a3,3,0,0,0,0,6h5.29a.67.67,0,0,1,.5.21,2.69,2.69,0,0,0,1.92.79H13v1.58a7.06,7.06,0,0,0,.74,3.13l1.37,2.74A1,1,0,0,0,16,20h5a1,1,0,0,0,0-2H16.62l-1.09-2.18A5,5,0,0,1,15,13.58V3a1,1,0,0,1,1-1H28a1,1,0,0,1,1,1V13.58a5,5,0,0,1-.53,2.24L27.38,18H25c-1,0-1,.23-1,3.06V32.17a1,1,0,0,1-.29.71L22.59,34H21.41l-1.12-1.12a1,1,0,0,1-.29-.71V23a1,1,0,0,0-2,0v9.17a3,3,0,0,0,.88,2.12l1.41,1.42A1,1,0,0,0,21,36v7a1,1,0,0,0,2,0V36a1,1,0,0,0,.71-.29l1.41-1.42A3,3,0,0,0,26,32.17V20h2a1,1,0,0,0,.89-.55l1.37-2.74A7.06,7.06,0,0,0,31,13.58V12h.29a2.69,2.69,0,0,0,1.92-.79.67.67,0,0,1,.5-.21H39a3,3,0,0,0,0-6ZM12.71,10a.67.67,0,0,1-.5-.21A2.69,2.69,0,0,0,10.29,9H5A1,1,0,0,1,5,7h5.29a2.69,2.69,0,0,0,1.92-.79.67.67,0,0,1,.5-.21H13v4ZM39,9H33.71a2.69,2.69,0,0,0-1.92.79.67.67,0,0,1-.5.21H31V6h.29a.67.67,0,0,1,.5.21A2.69,2.69,0,0,0,33.71,7H39a1,1,0,0,1,0,2Z"/><path class="cls-1" d="M23,8V5a1,1,0,0,0-2,0V8a1,1,0,0,0,2,0Z"/><path class="cls-1" d="M26,8V5a1,1,0,0,0-2,0V8a1,1,0,0,0,2,0Z"/><path class="cls-1" d="M18,5V8a1,1,0,0,0,2,0V5a1,1,0,0,0-2,0Z"/></svg>