<svg xmlns="http://www.w3.org/2000/svg" viewBox="0 0 44 44"><defs><style>.cls-1{fill:#fff;}</style></defs><g id="forbidden_city"><path class="cls-1" d="M22,36a1,1,0,1,0-1-1A1,1,0,0,0,22,36Z"/><path class="cls-1" d="M29,34a1,1,0,1,0,1,1A1,1,0,0,0,29,34Z"/><path class="cls-1" d="M16,35a1,1,0,1,0-1,1A1,1,0,0,0,16,35Z"/><path class="cls-1" d="M43,22a1,1,0,0,0-1,1,1,1,0,0,1-1,1,3,3,0,0,1-3-3,1,1,0,0,0-1-1H31V19a1,1,0,0,0-2,0v1H27V19a1,1,0,0,0-2,0v1H23V19a1,1,0,0,0-2,0v1H19V19a1,1,0,0,0-2,0v1H15V19a1,1,0,0,0-2,0v1H7a1,1,0,0,0-1,1,3,3,0,0,1-3,3,1,1,0,0,1-1-1,1,1,0,0,0-2,0,3,3,0,0,0,3,3H41a3,3,0,0,0,3-3A1,1,0,0,0,43,22ZM7,24a4.92,4.92,0,0,0,.9-2H36.1a4.92,4.92,0,0,0,.9,2Z"/><path class="cls-1" d="M7,16H9v1a1,1,0,0,0,2,0V16H33v1a1,1,0,0,0,2,0V16h2a3,3,0,0,0,3-3,1,1,0,0,0-2,0,1,1,0,0,1-1,1,5,5,0,0,1-5-5V5a1,1,0,0,0-1-1H13a1,1,0,0,0-1,1V9a5,5,0,0,1-5,5,1,1,0,0,1-1-1,1,1,0,0,0-2,0A3,3,0,0,0,7,16ZM14,6H30V8H14Zm-.07,4H30.07a6.92,6.92,0,0,0,2,4H11.89A6.92,6.92,0,0,0,13.93,10Z"/><path class="cls-1" d="M41,38H39V29a1,1,0,0,0-2,0v9H33V29a1,1,0,0,0-2,0v1H13V29a1,1,0,0,0-2,0v9H7V29a1,1,0,0,0-2,0v9H3a1,1,0,0,0,0,2H41a1,1,0,0,0,0-2ZM25,32v6H19V32ZM13,38V32h4v6Zm14,0V32h4v6Z"/></g></svg>