<svg xmlns="http://www.w3.org/2000/svg" viewBox="0 0 44 44"><defs><style>.cls-1{fill:#fff;}</style></defs><title>cws-icon-support-person</title><g id="support_1"><path class="cls-1" d="M35.89,29.42,28.18,28a1,1,0,0,0-.82.21l-4.08,3.4a2,2,0,0,1-2.56,0l-.08-.06-2.08-1.4a1,1,0,0,0-1.12,1.66l2,1.37A4,4,0,0,0,21,34v5a1,1,0,0,0,2,0V34a3.89,3.89,0,0,0,1.56-.78l3.72-3.1,7.26,1.32a3,3,0,0,1,2.46,3V41a1,1,0,0,1-1,1H7a1,1,0,0,1-1-1V34.34a3,3,0,0,1,2.46-3L16.18,30a1,1,0,0,0,.8-1.16,1,1,0,0,0-1.16-.8L8.1,29.42A5,5,0,0,0,4,34.34V41a3,3,0,0,0,3,3H37a3,3,0,0,0,3-3V34.34A5,5,0,0,0,35.89,29.42Z"/><circle class="cls-1" cx="19" cy="13" r="1"/><circle class="cls-1" cx="25" cy="13" r="1"/><path class="cls-1" d="M12,17h.64c.08.49.13.81.13.84a8.77,8.77,0,0,0,1.94,4.58l.22.26A9.1,9.1,0,0,0,22,26a9.26,9.26,0,0,0,4.41-1.12,1,1,0,0,0,.4-1.36,1,1,0,0,0-1.36-.4,7.2,7.2,0,0,1-9-1.71l-.21-.26a6.84,6.84,0,0,1-1.51-3.58S14,12.84,14,11V8a6,6,0,0,1,6-6h4a6,6,0,0,1,6,6,8.28,8.28,0,0,1-4.37-1.73v0a1,1,0,0,0-1.16-.1,20.48,20.48,0,0,1-7.62,2.58,1,1,0,0,0,.14,2h.15a22.79,22.79,0,0,0,7.76-2.53A10.44,10.44,0,0,0,30,10V11c0,1.84-.75,6.53-.76,6.62A6,6,0,0,1,28.91,19h-4a1.51,1.51,0,0,0-1.41-1h-3a1.5,1.5,0,0,0,0,3H31a3,3,0,0,0,3-3V16.22A3,3,0,0,0,35,14V12a3,3,0,0,0-3-3V8a8,8,0,0,0-8-8H20a8,8,0,0,0-8,8V9a3,3,0,0,0-3,3v2A3,3,0,0,0,12,17Zm20-6a1,1,0,0,1,1,1v2a1,1,0,0,1-1,1Zm-.78,6.89c0-.05.06-.39.14-.89H32v1a1,1,0,0,1-1,1A8.67,8.67,0,0,0,31.22,17.89ZM11,12a1,1,0,0,1,1-1v4a1,1,0,0,1-1-1Z"/></g></svg>