<svg id="champagne" xmlns="http://www.w3.org/2000/svg" viewBox="0 0 44 44"><defs><style>.cls-1{fill:#fff;}</style></defs><path class="cls-1" d="M34,14a1,1,0,0,0,1-1V9a1,1,0,0,0-1-1H24a1,1,0,0,0-1,1V26a6,6,0,0,0,5,5.91V40a2,2,0,0,1-2,2,1,1,0,0,0,0,2h6a1,1,0,0,0,0-2,2,2,0,0,1-2-2V31.91A6,6,0,0,0,35,26V17a1,1,0,0,0-1-1H28a1,1,0,0,0,0,2h5v8a4,4,0,0,1-8,0V10h8v3A1,1,0,0,0,34,14Z"/><path class="cls-1" d="M20,8H10A1,1,0,0,0,9,9V26a6,6,0,0,0,5,5.91V40a2,2,0,0,1-2,2,1,1,0,0,0,0,2h6a1,1,0,0,0,0-2,2,2,0,0,1-2-2V31.91A6,6,0,0,0,21,26V17a1,1,0,0,0-1-1H14a1,1,0,0,0,0,2h5v8a4,4,0,0,1-8,0V10h8v3a1,1,0,0,0,2,0V9A1,1,0,0,0,20,8Z"/><path class="cls-1" d="M23,1a1,1,0,0,0-2,0V4a1,1,0,0,0,2,0Z"/><path class="cls-1" d="M25,7a.94.94,0,0,0,.55-.17l3-2a1,1,0,0,0,.28-1.38,1,1,0,0,0-1.38-.28l-3,2A1,1,0,0,0,25,7Z"/><path class="cls-1" d="M18.45,6.83A.94.94,0,0,0,19,7a1,1,0,0,0,.55-1.83l-3-2a1,1,0,0,0-1.38.28,1,1,0,0,0,.28,1.38Z"/></svg>