<svg xmlns="http://www.w3.org/2000/svg" viewBox="0 0 44 44"><defs><style>.cls-1{fill:#fff;}</style></defs><title>cws-icon-office-table</title><g id="office_table"><path class="cls-1" d="M39,20H26V18h6a3,3,0,0,0,3-3V3a3,3,0,0,0-3-3H12A3,3,0,0,0,9,3V15a3,3,0,0,0,3,3h6v2H5a3,3,0,0,0,0,6V43a1,1,0,0,0,2,0V32H34a1,1,0,0,0,0-2H7V25a1,1,0,0,0-1-1H5a1,1,0,0,1,0-2H39a1,1,0,0,1,0,2H10a1,1,0,0,0,0,2H37V43a1,1,0,0,0,2,0V26a3,3,0,0,0,0-6ZM11,15V3a1,1,0,0,1,1-1H32a1,1,0,0,1,1,1V15a1,1,0,0,1-1,1H12A1,1,0,0,1,11,15Zm9,5V18h4v2Z"/><path class="cls-1" d="M32,13a1,1,0,0,0-1-1H13a1,1,0,0,0,0,2H31A1,1,0,0,0,32,13Z"/></g></svg>