<svg xmlns="http://www.w3.org/2000/svg" viewBox="0 0 44 44"><defs><style>.cls-1{fill:#fff;}</style></defs><title>cws-icon-atm-1</title><g id="ATM_2"><circle class="cls-1" cx="10" cy="10" r="1"/><circle class="cls-1" cx="6" cy="10" r="1"/><path class="cls-1" d="M41,5H3A3,3,0,0,0,0,8V18a3,3,0,0,0,3,3H6a1,1,0,0,0,0-2H3a1,1,0,0,1-1-1V8A1,1,0,0,1,3,7H41a1,1,0,0,1,1,1V18a1,1,0,0,1-1,1H38a1,1,0,0,0,0,2h3a3,3,0,0,0,3-3V8A3,3,0,0,0,41,5Z"/><path class="cls-1" d="M5,16a1,1,0,0,0,2,0V15H37v1a1,1,0,0,0,2,0V14a1,1,0,0,0-1-1H6a1,1,0,0,0-1,1Z"/><path class="cls-1" d="M34,17H14a1,1,0,0,0,0,2h9V37H12a1,1,0,0,1-1-1V18a1,1,0,0,0-2,0V36a3,3,0,0,0,3,3H32a3,3,0,0,0,3-3V18A1,1,0,0,0,34,17Zm-9,2h2V37H25Zm7,18H29V19h4V36A1,1,0,0,1,32,37Z"/><path class="cls-1" d="M14,35a1,1,0,0,0,1-1V30a1,1,0,0,0-2,0v4A1,1,0,0,0,14,35Z"/></g></svg>