<svg xmlns="http://www.w3.org/2000/svg" viewBox="0 0 44 44"><defs><style>.cls-1{fill:#fff;}</style></defs><g id="guitar"><path class="cls-1" d="M40.88,0a3.15,3.15,0,0,0-2.21.91L35.91,3.67A3.09,3.09,0,0,0,35,5.88a3.14,3.14,0,0,0,.33,1.37l-9,9-1.28-1.07A8.14,8.14,0,0,0,19.57,13c-3.05.12-4.93,2.32-6.74,4.44q-.55.66-1.14,1.32a6.12,6.12,0,0,1-2.25,1.59l-.29.11c-2.4,1-8.09,3.68-9,8.14-.66,3.2.9,6.63,4.76,10.49C8.21,42.4,11.17,44,14,44a6.88,6.88,0,0,0,1.43-.15c4.46-.91,7.17-6.6,8.14-9a7.4,7.4,0,0,1,1.93-2.73l1.09-.93c2.12-1.81,4.32-3.69,4.44-6.74a7.14,7.14,0,0,0-1.13-4.05,1,1,0,0,0-1.72,1,5.22,5.22,0,0,1,.86,3c-.09,2.18-1.79,3.62-3.75,5.3l-1.11,1a9.39,9.39,0,0,0-2.47,3.5c-1.35,3.39-3.82,7.21-6.69,7.8-2.49.51-5.31-.86-8.66-4.22S1.59,31.5,2.1,29c.59-2.87,4.41-5.34,7.79-6.69l.3-.12a8.13,8.13,0,0,0,3-2.1l1.17-1.36c1.67-2,3.12-3.66,5.3-3.75a6.23,6.23,0,0,1,4.17,1.7l1.12.95L21,21.57A4,4,0,1,0,23,25a3.89,3.89,0,0,0-.57-2L36.75,8.67a3.09,3.09,0,0,0,3.58-.58l2.76-2.76A3.09,3.09,0,0,0,44,3.12,3.12,3.12,0,0,0,40.88,0ZM19,27a2,2,0,1,1,2-2A2,2,0,0,1,19,27ZM41.67,3.91,38.91,6.67a1.1,1.1,0,0,1-.79.33,1.12,1.12,0,0,1-.79-1.91l2.76-2.76a1.12,1.12,0,1,1,1.58,1.58Z"/><path class="cls-1" d="M16.71,29.29a1,1,0,0,0-1.42,0L12,32.59,11.41,32l3.3-3.29a1,1,0,0,0-1.42-1.42L10,30.59l-.29-.3a1,1,0,0,0-1.42,1.42l4,4a1,1,0,0,0,1.42,0,1,1,0,0,0,0-1.42l-.3-.29,3.3-3.29A1,1,0,0,0,16.71,29.29Z"/></g></svg>