<svg xmlns="http://www.w3.org/2000/svg" viewBox="0 0 44 44"><defs><style>.cls-1{fill:#fff;}</style></defs><title>cws-icon-conference</title><g id="conference"><path class="cls-1" d="M10,4a1,1,0,1,0,1,1A1,1,0,0,0,10,4Z"/><path class="cls-1" d="M22,13a4,4,0,0,0,4-4V6a3,3,0,0,0-3-3H21a3,3,0,0,0-3,3V9A4,4,0,0,0,22,13ZM20,6a1,1,0,0,1,1-1h2a1,1,0,0,1,1,1V9a2,2,0,0,1-4,0Z"/><path class="cls-1" d="M25,15H19a5,5,0,0,0-5,5,1,1,0,0,0,2,0,3,3,0,0,1,3-3h6a3,3,0,0,1,3,3,1,1,0,0,0,2,0A5,5,0,0,0,25,15Z"/><path class="cls-1" d="M6,24H38a1,1,0,0,0,1-1V1a1,1,0,0,0-1-1H6A1,1,0,0,0,5,1V23A1,1,0,0,0,6,24ZM7,2H37V22H7Z"/><path class="cls-1" d="M21,26a3,3,0,0,0-3,3v3a4,4,0,0,0,8,0V29a3,3,0,0,0-3-3Zm3,3v3a2,2,0,0,1-4,0V29a1,1,0,0,1,1-1h2A1,1,0,0,1,24,29Z"/><path class="cls-1" d="M24,38H20a5,5,0,0,0-5,5,1,1,0,0,0,1,1h8a1,1,0,0,0,0-2H17.17A3,3,0,0,1,20,40h4a3,3,0,0,1,3,3,1,1,0,0,0,2,0A5,5,0,0,0,24,38Z"/><path class="cls-1" d="M36,26a3,3,0,0,0-3,3v3a4,4,0,0,0,8,0V29a3,3,0,0,0-3-3Zm3,3v3a2,2,0,0,1-4,0V29a1,1,0,0,1,1-1h2A1,1,0,0,1,39,29Z"/><path class="cls-1" d="M39,38H35a5,5,0,0,0-5,5,1,1,0,0,0,1,1h8a1,1,0,0,0,0-2H32.17A3,3,0,0,1,35,40h4a3,3,0,0,1,3,3,1,1,0,0,0,2,0A5,5,0,0,0,39,38Z"/><path class="cls-1" d="M8,36a4,4,0,0,0,4-4V29a3,3,0,0,0-3-3H7a3,3,0,0,0-3,3v3A4,4,0,0,0,8,36ZM6,29a1,1,0,0,1,1-1H9a1,1,0,0,1,1,1v3a2,2,0,0,1-4,0Z"/><path class="cls-1" d="M9,38H5a5,5,0,0,0-5,5,1,1,0,0,0,1,1H9a1,1,0,0,0,0-2H2.17A3,3,0,0,1,5,40H9a3,3,0,0,1,3,3,1,1,0,0,0,2,0A5,5,0,0,0,9,38Z"/></g></svg>