<svg xmlns="http://www.w3.org/2000/svg" viewBox="0 0 44 44"><defs><style>.cls-1{fill:#fff;}</style></defs><title>cws-icon-office-building</title><g id="office_building"><path class="cls-1" d="M43,42H41V36.86a4,4,0,1,0-2,0V42H11V10h3a1,1,0,0,0,1-1V6H29V9a1,1,0,0,0,1,1h3V39a1,1,0,0,0,2,0V9a1,1,0,0,0-1-1H31V5a1,1,0,0,0-1-1H23V1a1,1,0,0,0-2,0V4H14a1,1,0,0,0-1,1V8H10A1,1,0,0,0,9,9V43a1,1,0,0,0,1,1H43a1,1,0,0,0,0-2Zm-5-9a2,2,0,1,1,2,2A2,2,0,0,1,38,33Z"/><path class="cls-1" d="M13,13V39a1,1,0,0,0,1,1H30a1,1,0,0,0,1-1V13a1,1,0,0,0-1-1H14A1,1,0,0,0,13,13ZM25,38H23V14h2Zm2-24h2V38H27ZM21,38H19V14h2Zm-4,0H15V14h2Z"/><path class="cls-1" d="M27,10a1,1,0,0,0,0-2H17a1,1,0,0,0,0,2Z"/><path class="cls-1" d="M8,33a4,4,0,1,0-5,3.86V42H1a1,1,0,0,0,0,2H6a1,1,0,0,0,0-2H5V36.86A4,4,0,0,0,8,33ZM2,33a2,2,0,1,1,2,2A2,2,0,0,1,2,33Z"/></g></svg>