<svg xmlns="http://www.w3.org/2000/svg" viewBox="0 0 44 44"><defs><style>.cls-1{fill:#fffafc;}</style></defs><g id="star"><path class="cls-1" d="M22,29a6.18,6.18,0,0,0,4.77-2.36,1,1,0,0,0-1.54-1.28,4,4,0,0,1-6.46,0,1,1,0,1,0-1.54,1.28A6.18,6.18,0,0,0,22,29Z"/><path class="cls-1" d="M28,22a1,1,0,0,0,.64-.23,1,1,0,0,0,.13-1.41,3.5,3.5,0,0,0-5.54,0,1,1,0,1,0,1.54,1.28,1.54,1.54,0,0,1,2.46,0A1,1,0,0,0,28,22Z"/><path class="cls-1" d="M19.23,21.64A1,1,0,0,0,20,22a1,1,0,0,0,.64-.23,1,1,0,0,0,.13-1.41,3.5,3.5,0,0,0-5.54,0,1,1,0,1,0,1.54,1.28A1.54,1.54,0,0,1,19.23,21.64Z"/><circle class="cls-1" cx="22" cy="24" r="1"/><path class="cls-1" d="M35,27.18l8.15-7a2.48,2.48,0,0,0-1.26-4.33L30.81,14.25a2,2,0,0,1-1.55-1.19l-5-11.53a2.51,2.51,0,0,0-4.62,0L15,12.55a3,3,0,0,1-2.32,1.78L2.12,15.87A2.48,2.48,0,0,0,0,18.32,2.45,2.45,0,0,0,.87,20.2l8.13,7a3,3,0,0,1,1,3L7.39,41.23a2.22,2.22,0,0,0,.43,1.92,2.31,2.31,0,0,0,3.11.4L20.2,36.6a3,3,0,0,1,3.6,0l9.27,6.95a2.25,2.25,0,0,0,3.54-2.32l-.1-.46a1,1,0,0,0-1.2-.74,1,1,0,0,0-.75,1.2l.11.46a.25.25,0,0,1-.05.21.29.29,0,0,1-.36.05L25,35a5,5,0,0,0-6,0L9.74,42a.28.28,0,0,1-.36-.05.25.25,0,0,1-.05-.21l2.59-11.1a5,5,0,0,0-1.61-4.93l-8.14-7A.46.46,0,0,1,2,18.32a.47.47,0,0,1,.41-.47l10.52-1.54a5,5,0,0,0,3.87-3l4.73-11a.53.53,0,0,1,.94,0l5,11.54a4,4,0,0,0,3.1,2.38l11.07,1.62a.47.47,0,0,1,.41.47.46.46,0,0,1-.17.36l-8.14,7a5,5,0,0,0-1.61,4.93l1.55,6.64a1,1,0,0,0,1.94-.46L34,30.14A3,3,0,0,1,35,27.18Z"/></g></svg>