<svg xmlns="http://www.w3.org/2000/svg" viewBox="0 0 44 44"><defs><style>.cls-1{fill:#fff;}</style></defs><g id="birdcage"><path class="cls-1" d="M38,38V23c0-9-5-15.32-12.73-16.71A4,4,0,0,0,26,4a4,4,0,0,0-8,0,4,4,0,0,0,.73,2.29C11,7.68,6,14,6,23V35a1,1,0,0,0,2,0V23C8,14.74,12.52,9.15,19.7,8.17,18.35,11.36,18,17.54,18,23V35a1,1,0,0,0,2,0V23c0-11.07,1.49-14.57,2.06-15C26.81,8.06,30,14.07,30,23V35a1,1,0,0,0,2,0V23c0-5.2-1.17-10.42-3.68-13.68C33.12,11.53,36,16.42,36,23V38.31C36,39.1,36,40,37,40h1a1,1,0,0,1,1,1v1H5V41a1,1,0,0,1,1-1H9a1,1,0,0,0,0-2H6a3,3,0,0,0-3,3v2a1,1,0,0,0,1,1H40a1,1,0,0,0,1-1V41A3,3,0,0,0,38,38ZM20,4a2,2,0,1,1,2,2A2,2,0,0,1,20,4Z"/><path class="cls-1" d="M16,12.45a1,1,0,0,0-1.78-.9A25.87,25.87,0,0,0,12,23V39a1,1,0,0,0,1,1h8a1,1,0,0,0,0-2H14V23A24,24,0,0,1,16,12.45Z"/><path class="cls-1" d="M25.27,11.83a1,1,0,1,0-2,.34A69,69,0,0,1,24,23V39a1,1,0,0,0,1,1h8a1,1,0,0,0,0-2H26V23A70.84,70.84,0,0,0,25.27,11.83Z"/></g></svg>