<svg xmlns="http://www.w3.org/2000/svg" viewBox="0 0 44 44"><defs><style>.cls-1{fill:#fff;}</style></defs><title>cws-icon-oil-rig</title><g id="oil_rig"><path class="cls-1" d="M37,33a1,1,0,0,0,0-2H7a1,1,0,0,1-1-1V16h8v7a1,1,0,0,0,2,0V21h4v6a1,1,0,0,0,1,1H37a1,1,0,0,1,1,1,1,1,0,0,0,2,0,3,3,0,0,0-2.11-2.85L35.14,6A1,1,0,0,0,36,5a1,1,0,0,0-1-1H27a1,1,0,0,0-1,1,1,1,0,0,0,.86,1L24.55,22.86a1.05,1.05,0,0,0,.24.8,1,1,0,0,0,.76.34H33a1,1,0,0,0,0-2H26.69l.51-3.71,4.29,2.57A1,1,0,0,0,32,21a1,1,0,0,0,.51-1.86L28.7,16.86,34,12.33,35.85,26H22V20a1,1,0,0,0-1-1H16V15a1,1,0,0,0-1-1H13V13a1,1,0,0,0-2,0v1H9V11a1,1,0,0,0-2,0v3H5a1,1,0,0,0-1,1V30a3,3,0,0,0,3,3h4.46L15,38.3V43a1,1,0,0,0,2,0V38a1,1,0,0,0-.17-.55l-3-4.45h5l-1.63,2a1,1,0,0,0,.13,1.41,1,1,0,0,0,.64.23,1,1,0,0,0,.77-.36L21.47,33h2L27,38.3V43a1,1,0,0,0,2,0V38a1,1,0,0,0-.17-.55l-3-4.45h5l-1.63,2a1,1,0,0,0,.13,1.41,1,1,0,0,0,.64.23,1,1,0,0,0,.77-.36L33.47,33ZM33.61,9.54,31.55,8.17a1,1,0,1,0-1.1,1.66l1.9,1.27-4.72,4.05L28.87,6h4.26Z"/><path class="cls-1" d="M31,3a1,1,0,0,0,1-1V1a1,1,0,0,0-2,0V2A1,1,0,0,0,31,3Z"/><path class="cls-1" d="M23.23,41.36a1.54,1.54,0,0,1-2.46,0,1,1,0,1,0-1.54,1.28,3.5,3.5,0,0,0,5.54,0,1,1,0,0,0-1.54-1.28Z"/><path class="cls-1" d="M40.64,41.23a1,1,0,0,0-1.41.13,1.54,1.54,0,0,1-2.46,0,1,1,0,0,0-1.54,0,1.54,1.54,0,0,1-2.46,0,1,1,0,0,0-1.54,1.28A3.57,3.57,0,0,0,34,44a3.43,3.43,0,0,0,2-.64A3.43,3.43,0,0,0,38,44a3.57,3.57,0,0,0,2.77-1.36A1,1,0,0,0,40.64,41.23Z"/><path class="cls-1" d="M11.23,41.36a1.54,1.54,0,0,1-2.46,0,1,1,0,0,0-1.54,0,1.54,1.54,0,0,1-2.46,0,1,1,0,0,0-1.54,1.28A3.57,3.57,0,0,0,6,44a3.43,3.43,0,0,0,2-.64A3.43,3.43,0,0,0,10,44a3.57,3.57,0,0,0,2.77-1.36,1,1,0,1,0-1.54-1.28Z"/><path class="cls-1" d="M9,20h2a1,1,0,0,0,0-2H9a1,1,0,0,0,0,2Z"/><path class="cls-1" d="M9,24h2a1,1,0,0,0,0-2H9a1,1,0,0,0,0,2Z"/><path class="cls-1" d="M9,28h8a1,1,0,0,0,0-2H9a1,1,0,0,0,0,2Z"/></g></svg>