<svg xmlns="http://www.w3.org/2000/svg" viewBox="0 0 44 44"><defs><style>.cls-1{fill:#fff;}</style></defs><g id="settings"><circle class="cls-1" cx="22" cy="8" r="2"/><circle class="cls-1" cx="33" cy="8" r="2"/><circle class="cls-1" cx="11" cy="8" r="2"/><path class="cls-1" d="M41,0H3A3,3,0,0,0,0,3V41a3,3,0,0,0,3,3H41a3,3,0,0,0,3-3V3A3,3,0,0,0,41,0Zm1,41a1,1,0,0,1-1,1H3a1,1,0,0,1-1-1V3A1,1,0,0,1,3,2H41a1,1,0,0,1,1,1Z"/><path class="cls-1" d="M22,32a1,1,0,0,0-1,1v4a1,1,0,0,0,2,0V33A1,1,0,0,0,22,32Z"/><path class="cls-1" d="M33,23a1,1,0,0,0-1,1V37a1,1,0,0,0,2,0V24A1,1,0,0,0,33,23Z"/><path class="cls-1" d="M11,26a1,1,0,0,0-1,1V37a1,1,0,0,0,2,0V27A1,1,0,0,0,11,26Z"/><path class="cls-1" d="M14,20h-.18A3,3,0,0,0,12,18.18V13a1,1,0,0,0-2,0v5.18A3,3,0,0,0,8.18,20H8a1,1,0,0,0,0,2h.18a3,3,0,0,0,5.64,0H14a1,1,0,0,0,0-2Zm-3,2a1,1,0,1,1,1-1A1,1,0,0,1,11,22Z"/><path class="cls-1" d="M25,26h-.18A3,3,0,0,0,23,24.18V13a1,1,0,0,0-2,0V24.18A3,3,0,0,0,19.18,26H19a1,1,0,0,0,0,2h.18a3,3,0,0,0,5.64,0H25a1,1,0,0,0,0-2Zm-3,2a1,1,0,1,1,1-1A1,1,0,0,1,22,28Z"/><path class="cls-1" d="M36,17h-.18A3,3,0,0,0,34,15.18V13a1,1,0,0,0-2,0v2.18A3,3,0,0,0,30.18,17H30a1,1,0,0,0,0,2h.18a3,3,0,0,0,5.64,0H36a1,1,0,0,0,0-2Zm-3,2a1,1,0,1,1,1-1A1,1,0,0,1,33,19Z"/></g></svg>