<svg xmlns="http://www.w3.org/2000/svg" viewBox="0 0 44 44"><defs><style>.cls-1{fill:#fff;}</style></defs><g id="adaptive_2"><circle class="cls-1" cx="22" cy="30" r="1"/><circle class="cls-1" cx="6" cy="37" r="1"/><path class="cls-1" d="M41,3H3A3,3,0,0,0,0,6V20a1,1,0,0,0,2,0V6A1,1,0,0,1,3,5H41a1,1,0,0,1,1,1v8a1,1,0,0,0,2,0V6A3,3,0,0,0,41,3Z"/><path class="cls-1" d="M23,39H18.82A3,3,0,0,0,19,38V35h4a1,1,0,0,0,0-2H15a1,1,0,0,0,0,2h2v3a1,1,0,0,1-1,1H15a1,1,0,0,0,0,2h8a1,1,0,0,0,0-2Z"/><path class="cls-1" d="M23,25H15a1,1,0,0,0,0,2h8a1,1,0,0,0,0-2Z"/><path class="cls-1" d="M9,23H3a3,3,0,0,0-3,3V38a3,3,0,0,0,3,3H9a3,3,0,0,0,3-3V26A3,3,0,0,0,9,23Zm1,15a1,1,0,0,1-1,1H3a1,1,0,0,1-1-1V26a1,1,0,0,1,1-1H9a1,1,0,0,1,1,1Z"/><circle class="cls-1" cx="35" cy="37" r="1"/><path class="cls-1" d="M41,17H29a3,3,0,0,0-3,3V38a3,3,0,0,0,3,3H41a3,3,0,0,0,3-3V20A3,3,0,0,0,41,17Zm1,21a1,1,0,0,1-1,1H29a1,1,0,0,1-1-1V20a1,1,0,0,1,1-1H41a1,1,0,0,1,1,1Z"/></g></svg>