<svg xmlns="http://www.w3.org/2000/svg" viewBox="0 0 44 44"><defs><style>.cls-1{fill:#fff;}</style></defs><title>cws-icon-clock</title><g id="clock"><path class="cls-1" d="M15.87,9.5a1,1,0,1,0-.37,1.37A1,1,0,0,0,15.87,9.5Z"/><path class="cls-1" d="M28.5,33.13a1,1,0,1,0,1.37.37A1,1,0,0,0,28.5,33.13Z"/><path class="cls-1" d="M10.5,14.13a1,1,0,1,0,.37,1.37A1,1,0,0,0,10.5,14.13Z"/><path class="cls-1" d="M33.5,29.87a1,1,0,1,0-.37-1.37A1,1,0,0,0,33.5,29.87Z"/><path class="cls-1" d="M29.87,10.5a1,1,0,1,0-1.37.37A1,1,0,0,0,29.87,10.5Z"/><path class="cls-1" d="M15.5,33.13a1,1,0,1,0,.37,1.37A1,1,0,0,0,15.5,33.13Z"/><path class="cls-1" d="M34.5,15.87a1,1,0,1,0-1.37-.37A1,1,0,0,0,34.5,15.87Z"/><path class="cls-1" d="M9.5,28.13a1,1,0,1,0,1.37.37A1,1,0,0,0,9.5,28.13Z"/><path class="cls-1" d="M22,0a22,22,0,0,0,0,44,1,1,0,0,0,0-2,20,20,0,1,1,3.81-.36,1,1,0,1,0,.38,2A22,22,0,0,0,22,0Z"/><path class="cls-1" d="M22,4a18,18,0,1,0,4.23.5,1,1,0,0,0-.46,2A15.92,15.92,0,0,1,38,21H36a1,1,0,0,0,0,2h2A16,16,0,0,1,23,38V36a1,1,0,0,0-2,0v2A16,16,0,0,1,6.05,23H8a1,1,0,0,0,0-2H6.05A16,16,0,0,1,21,6V8a1,1,0,0,0,2,0V5A1,1,0,0,0,22,4Z"/><path class="cls-1" d="M23,19.18V14a1,1,0,0,0-2,0v5.18A3,3,0,0,0,22,25a3,3,0,0,0,1.29-.3h0l6,6a1,1,0,0,0,1.42,0,1,1,0,0,0,0-1.42l-6-6h0A3,3,0,0,0,25,22,3,3,0,0,0,23,19.18ZM22,23a1,1,0,1,1,1-1A1,1,0,0,1,22,23Z"/></g></svg>