<svg xmlns="http://www.w3.org/2000/svg" viewBox="0 0 44 44"><defs><style>.cls-1{fill:#fff;}</style></defs><g id="accordion"><circle class="cls-1" cx="37" cy="10" r="1"/><circle class="cls-1" cx="37" cy="18" r="1"/><circle class="cls-1" cx="40" cy="14" r="1"/><circle class="cls-1" cx="37" cy="26" r="1"/><circle class="cls-1" cx="40" cy="22" r="1"/><circle class="cls-1" cx="37" cy="34" r="1"/><circle class="cls-1" cx="40" cy="30" r="1"/><path class="cls-1" d="M41,4H34a1.19,1.19,0,0,0-.32,0L32,4.63a3.08,3.08,0,0,1-1.9,0l-1.73-.58a1,1,0,0,0-.64,0L26,4.63a3.08,3.08,0,0,1-1.9,0l-1.73-.58a1,1,0,0,0-.64,0L20,4.63a3.08,3.08,0,0,1-1.9,0l-1.73-.58a1,1,0,0,0-.64,0L14,4.63a3.08,3.08,0,0,1-1.9,0l-1.72-.57A1,1,0,0,0,9,4.84a1.14,1.14,0,0,0,0,.55V21H2V19H6a1,1,0,0,0,0-2H2V15H6a1,1,0,0,0,0-2H2V11H6A1,1,0,0,0,6,9H2V7A1,1,0,0,1,3,6H6A1,1,0,0,0,6,4H3A3,3,0,0,0,0,7V37a3,3,0,0,0,3,3h7a1.19,1.19,0,0,0,.32,0l1.73-.58a3.08,3.08,0,0,1,1.9,0l1.73.58a1,1,0,0,0,.64,0l1.73-.58a3.08,3.08,0,0,1,1.9,0l1.73.58a1,1,0,0,0,.64,0l1.73-.58a3.08,3.08,0,0,1,1.9,0l1.73.58a1,1,0,0,0,.64,0l1.73-.58a3.08,3.08,0,0,1,1.9,0l1.73.58A1.19,1.19,0,0,0,34,40a.94.94,0,0,0,.58-.19A1,1,0,0,0,35,39V6h6a1,1,0,0,1,1,1V37a1,1,0,0,1-1,1H38a1,1,0,0,0,0,2h3a3,3,0,0,0,3-3V7A3,3,0,0,0,41,4ZM9,23V33H2V31H6a1,1,0,0,0,0-2H2V27H6a1,1,0,0,0,0-2H2V23ZM3,38a1,1,0,0,1-1-1V35H9v3Zm8.42-.53-.42.14V6.39l.42.14a5,5,0,0,0,3.16,0L15,6.39V37.61l-.42-.14A5,5,0,0,0,11.42,37.47Zm6,0-.42.14V6.39l.42.14a5,5,0,0,0,3.16,0L21,6.39V37.61l-.42-.14A5,5,0,0,0,17.42,37.47Zm6,0-.42.14V6.39l.42.14a5,5,0,0,0,3.16,0L27,6.39V37.61l-.42-.14A5,5,0,0,0,23.42,37.47Zm9.16,0a5,5,0,0,0-3.16,0l-.42.14V6.39l.42.14a5,5,0,0,0,3.16,0L33,6.39V37.61Z"/></g></svg>