<svg xmlns="http://www.w3.org/2000/svg" viewBox="0 0 44 44"><defs><style>.cls-1{fill:#fff;}</style></defs><title>cws-icon-billboard-small</title><g id="billboard_small"><path class="cls-1" d="M32,0H12A3,3,0,0,0,9,3V32a3,3,0,0,0,3,3H24a1,1,0,0,0,0-2H12a1,1,0,0,1-1-1V3a1,1,0,0,1,1-1H32a1,1,0,0,1,1,1V32a1,1,0,0,1-1,1H28a1,1,0,0,0-1,1v7a3,3,0,0,0,.17,1H16.83A3,3,0,0,0,17,41V38a1,1,0,0,0-2,0v3a1,1,0,0,1-1,1,1,1,0,0,0,0,2H30a1,1,0,0,0,0-2,1,1,0,0,1-1-1V35h3a3,3,0,0,0,3-3V3A3,3,0,0,0,32,0Z"/><path class="cls-1" d="M17,26H27a1,1,0,0,0,0-2H17a1,1,0,0,0,0,2Z"/><path class="cls-1" d="M19,30h6a1,1,0,0,0,0-2H19a1,1,0,0,0,0,2Z"/><circle class="cls-1" cx="24" cy="12" r="1"/><circle class="cls-1" cx="20" cy="12" r="1"/><path class="cls-1" d="M14,12v1a2,2,0,0,0,1.37,1.9c0,.11,0,.22.06.33l.18.92A6,6,0,0,0,21.52,21h1a6,6,0,0,0,5.91-4.85l.18-.91c0-.12,0-.23.06-.34A2,2,0,0,0,30,13V12a2,2,0,0,0-1-1.73V10a5,5,0,0,0-5-5H20a5,5,0,0,0-5,5v.27A2,2,0,0,0,14,12Zm2,0a1,1,0,0,0,1-1V10a3,3,0,0,1,3-3h4a3,3,0,0,1,3,3v1a1,1,0,0,0,1,1v1h-.25a1,1,0,0,0-1,.85l-.05.36c0,.21-.06.42-.1.63l-.18.92A4,4,0,0,1,22.48,19h-1a4,4,0,0,1-3.95-3.24l-.18-.92c0-.21-.07-.42-.1-.63l-.05-.36a1,1,0,0,0-1-.85H16Z"/><path class="cls-1" d="M20,16a1,1,0,0,0,1,1h2a1,1,0,0,0,0-2H21A1,1,0,0,0,20,16Z"/></g></svg>