<svg xmlns="http://www.w3.org/2000/svg" viewBox="0 0 44 44"><defs><style>.cls-1{fill:#fff;}</style></defs><g id="phone"><circle class="cls-1" cx="22" cy="39" r="2"/><circle class="cls-1" cx="17" cy="5" r="1"/><path class="cls-1" d="M20,4a1,1,0,0,0,0,2h4a1,1,0,0,0,0-2Z"/><path class="cls-1" d="M30,0H14A5,5,0,0,0,9,5V9a1,1,0,0,0,1,1H30a1,1,0,0,0,0-2H11V5a3,3,0,0,1,3-3H30a3,3,0,0,1,3,3V31a1,1,0,0,0,2,0V5A5,5,0,0,0,30,0Z"/><path class="cls-1" d="M34,34H14a1,1,0,0,0,0,2H33v3a3,3,0,0,1-3,3H14a3,3,0,0,1-3-3V13a1,1,0,0,0-2,0V39a5,5,0,0,0,5,5H30a5,5,0,0,0,5-5V35A1,1,0,0,0,34,34Z"/></g></svg>