<svg xmlns="http://www.w3.org/2000/svg" viewBox="0 0 44 44"><defs><style>.cls-1{fill:#fff;}</style></defs><title>cws-icon-pin</title><g id="pin"><path class="cls-1" d="M13,24h7a1,1,0,0,0,0-2H14v-.34a2.94,2.94,0,0,1,.88-2.12l4.24-4.25A3,3,0,0,0,20,13.17V5a1,1,0,0,0-.55-.89l-.9-.45a1,1,0,0,1-.55-.9V2h8v.76a1,1,0,0,1-.55.9l-.9.45A1,1,0,0,0,24,5v8.17a3,3,0,0,0,.88,2.12l4.24,4.25A3,3,0,0,1,30,21.66V22H24a1,1,0,0,0-1,1V34.76l-1,2-1-2V27a1,1,0,0,0-2,0v8a1,1,0,0,0,.11.45l2,4a1,1,0,0,0,1.78,0l2-4A1,1,0,0,0,25,35V24h6a1,1,0,0,0,.71-.29A1,1,0,0,0,32,23V21.66a5,5,0,0,0-1.46-3.54l-4.25-4.24a1,1,0,0,1-.29-.71V5.62l.34-.17A3,3,0,0,0,28,2.76V1a1,1,0,0,0-1-1H17a1,1,0,0,0-1,1V2.76a3,3,0,0,0,1.66,2.69l.34.17v7.55a1,1,0,0,1-.29.71l-4.25,4.24A5,5,0,0,0,12,21.66V23A1,1,0,0,0,13,24Z"/><path class="cls-1" d="M28.1,34.3a1,1,0,0,0-1.1.89,1,1,0,0,0,.9,1.1C34.82,37,37,38.6,37,39c0,.87-5.26,3-15,3S7,39.87,7,39c0-.4,2.18-2,9.1-2.71a1,1,0,0,0,.9-1.1,1,1,0,0,0-1.1-.89C11.83,34.71,5,35.87,5,39c0,4,11.12,5,17,5s17-1,17-5C39,35.87,32.17,34.71,28.1,34.3Z"/></g></svg>