<svg xmlns="http://www.w3.org/2000/svg" viewBox="0 0 44 44"><defs><style>.cls-1{fill:#fff;}</style></defs><g id="letter"><path class="cls-1" d="M22,21a1.77,1.77,0,0,0,1.26-.54l5.39-5.65A4.57,4.57,0,0,0,28.3,8a4.6,4.6,0,0,0-6.3.47A4.6,4.6,0,0,0,15.7,8,4.57,4.57,0,0,0,14,11.35a4.51,4.51,0,0,0,1.32,3.44l5.41,5.67A1.74,1.74,0,0,0,22,21Zm-6-9.56a2.57,2.57,0,0,1,1-1.87A2.68,2.68,0,0,1,18.61,9a2.6,2.6,0,0,1,2.45,1.72,1,1,0,0,0,1.88,0,2.58,2.58,0,0,1,1-1.28,2.66,2.66,0,0,1,3.1.13,2.56,2.56,0,0,1,.18,3.84L22,18.89l-5.24-5.5A2.58,2.58,0,0,1,16,11.44Z"/><path class="cls-1" d="M41.63,13l-2.1-1.3a1,1,0,0,0-1.38.32,1,1,0,0,0,.33,1.38l2.1,1.3A3,3,0,0,1,42,17.23V41a1,1,0,0,1-1,1H3a1,1,0,0,1-1-1V17.23a3,3,0,0,1,1.42-2.55l2.11-1.31A1,1,0,0,0,5.85,12a1,1,0,0,0-1.38-.33L2.37,13A5,5,0,0,0,0,17.23V41a3,3,0,0,0,3,3H41a3,3,0,0,0,3-3V17.23A5,5,0,0,0,41.63,13Z"/><path class="cls-1" d="M11.21,29.39l-7,9a1,1,0,0,0,.18,1.4,1,1,0,0,0,1.4-.18l7-9a1,1,0,1,0-1.58-1.22Z"/><path class="cls-1" d="M31.39,29.21a1,1,0,0,0-.18,1.4l7,9a1,1,0,0,0,1.58-1.22l-7-9A1,1,0,0,0,31.39,29.21Z"/><path class="cls-1" d="M39.77,18.36a1,1,0,0,0-1.41-.13L23.91,30.13a3,3,0,0,1-3.82,0L5.64,18.23a1,1,0,0,0-1.28,1.54L18.82,31.68a5,5,0,0,0,6.36,0L39.64,19.77A1,1,0,0,0,39.77,18.36Z"/><path class="cls-1" d="M9,19a1,1,0,0,0,1-1V3a1,1,0,0,1,1-1H33a1,1,0,0,1,1,1V18a1,1,0,0,0,2,0V3a3,3,0,0,0-3-3H11A3,3,0,0,0,8,3V18A1,1,0,0,0,9,19Z"/></g></svg>