<svg xmlns="http://www.w3.org/2000/svg" viewBox="0 0 44 44"><defs><style>.cls-1{fill:#fff;}</style></defs><g id="tractor"><circle class="cls-1" cx="38" cy="34" r="1"/><path class="cls-1" d="M9,23a9,9,0,1,0,9,9A9,9,0,0,0,9,23ZM9,39a7,7,0,1,1,7-7A7,7,0,0,1,9,39Z"/><path class="cls-1" d="M9,28a4,4,0,1,0,4,4A4,4,0,0,0,9,28Zm0,6a2,2,0,1,1,2-2A2,2,0,0,1,9,34Z"/><path class="cls-1" d="M38,28a6,6,0,0,0-1.42.18L36,27.71A20.37,20.37,0,0,0,23,23a1,1,0,0,0,0,2,18.34,18.34,0,0,1,11.54,4.1A6,6,0,0,0,32.09,33L32,33H22c0-.33,0-.67,0-1A13,13,0,0,0,.33,22.31,1,1,0,1,0,1.67,23.8,11,11,0,0,1,20,32a11.11,11.11,0,0,1-.15,1.83,1,1,0,0,0,1,1.17H32l.09,0A6,6,0,1,0,38,28Zm0,10a4,4,0,1,1,4-4A4,4,0,0,1,38,38Z"/><path class="cls-1" d="M3,19a1,1,0,0,0,1-1V8A1,1,0,0,1,5,7h5v9a1,1,0,0,0,2,0V7h5.56a1,1,0,0,1,1,.68L20.93,15a8.23,8.23,0,0,1-3.11,4l-.37.25a1,1,0,1,0,1.1,1.66l.37-.24A10.25,10.25,0,0,0,22.69,16H40a1,1,0,0,1,1,1v1H37a1,1,0,0,0,0,2h4v1H37a1,1,0,0,0,0,2h4v1H37a1,1,0,0,0,0,2h4a1,1,0,0,0,2,0V17a3,3,0,0,0-3-3H37V6a3,3,0,0,0-3-3H33a1,1,0,0,0,0,2h1a1,1,0,0,1,1,1v8H22.72L20.4,7.05a3,3,0,0,0-2.84-2H5A3,3,0,0,0,2,8V18A1,1,0,0,0,3,19Z"/></g></svg>