<svg xmlns="http://www.w3.org/2000/svg" viewBox="0 0 44 44"><defs><style>.cls-1{fill:#fff;}</style></defs><title>cws-icon-computer-globe</title><g id="computer_globe"><path class="cls-1" d="M21,18V12h7A32.1,32.1,0,0,1,29,18.05,1,1,0,0,0,30,19,1,1,0,0,0,30.94,18,33.18,33.18,0,0,0,30.09,12h6a18.09,18.09,0,0,1,1.77,6.1A1,1,0,0,0,39,19a1,1,0,0,0,.89-1.09,20,20,0,1,0-23,21.85H17a1,1,0,0,0,.65-.24,1,1,0,0,0,.35-.76v-.63a1,1,0,0,0-.49-.86c-2-1.19-3.77-3.81-5-7.27H17a1,1,0,0,0,0-2H3.86A17.91,17.91,0,0,1,2,21H9a37.29,37.29,0,0,0,.33,4.14,1,1,0,0,0,1,.86h.14a1,1,0,0,0,.85-1.13A34.85,34.85,0,0,1,11,21h6a1,1,0,0,0,0-2H11a31.89,31.89,0,0,1,1-7h7v6a1,1,0,0,0,2,0Zm14-8H29.54a19.26,19.26,0,0,0-3.75-7A18,18,0,0,1,35,10ZM10.45,30a19.11,19.11,0,0,0,3.73,7A17.86,17.86,0,0,1,5,30ZM9,19h-7A18,18,0,0,1,14.15,3a19.2,19.2,0,0,0-3.71,7H8a1,1,0,0,0,0,2H9.89A34.73,34.73,0,0,0,9,19Zm3.54-9C14.2,5.21,17,2,20,2s5.8,3.19,7.44,8H21V5a1,1,0,0,0-2,0v5Z"/><path class="cls-1" d="M41,21H23a3,3,0,0,0-3,3V37a3,3,0,0,0,3,3h6v2H28a1,1,0,0,0,0,2h8a1,1,0,0,0,0-2H35V39a1,1,0,0,0-1-1H23a1,1,0,0,1-1-1V36H42v1a1,1,0,0,1-1,1H38a1,1,0,0,0,0,2h3a3,3,0,0,0,3-3V24A3,3,0,0,0,41,21ZM33,42H31V40h2ZM22,34V24a1,1,0,0,1,1-1H41a1,1,0,0,1,1,1V34Z"/></g></svg>