<svg xmlns="http://www.w3.org/2000/svg" viewBox="0 0 44 44"><defs><style>.cls-1{fill:#fff;}</style></defs><title>cws-icon-queen</title><g id="queen"><path class="cls-1" d="M32.44,38.37l.13-.27a4.09,4.09,0,0,0-.76-4.71l-.61-.61a8.22,8.22,0,0,1-2.42-5.36l-.66-10.49a.88.88,0,0,1,.24-.65A.86.86,0,0,1,29,16a1,1,0,0,0,0-2H17.69L15.17,7.27a1.5,1.5,0,0,1,2.06.37A3.57,3.57,0,0,0,20,9a3.43,3.43,0,0,0,2-.64A3.43,3.43,0,0,0,24,9a3.57,3.57,0,0,0,2.77-1.36,1.5,1.5,0,0,1,2.06-.37l-1.27,3.38a1,1,0,0,0,.59,1.29,1,1,0,0,0,.35.06,1,1,0,0,0,.94-.65l1.5-4a1,1,0,0,0-.17-1A3.57,3.57,0,0,0,28,5a3.51,3.51,0,0,0-1.32.28A5,5,0,0,0,24,2.4,1.75,1.75,0,0,0,24,2a2,2,0,0,0-4,0,1.75,1.75,0,0,0,0,.4,5,5,0,0,0-2.72,2.88A3.51,3.51,0,0,0,16,5a3.57,3.57,0,0,0-2.77,1.36,1,1,0,0,0-.17,1L15.56,14H15a1,1,0,0,0,0,2,.86.86,0,0,1,.64.28.88.88,0,0,1,.24.65l-.66,10.49a8.22,8.22,0,0,1-2.42,5.36l-.61.61a4.09,4.09,0,0,0-.76,4.71l.13.27A3,3,0,0,0,10,41v2a1,1,0,0,0,1,1H33a1,1,0,0,0,1-1V41A3,3,0,0,0,32.44,38.37ZM22,4a3,3,0,0,1,3,2.63,1.52,1.52,0,0,1-2.19-.27,1,1,0,0,0-1.54,0A1.52,1.52,0,0,1,19,6.63,3,3,0,0,1,22,4ZM32,42H12V41a1,1,0,0,1,1-1H27a1,1,0,0,0,0-2H13.62l-.4-.8a2.12,2.12,0,0,1-.22-.93,2.06,2.06,0,0,1,.61-1.46l.61-.61a10.32,10.32,0,0,0,3-6.65l.65-10.49A2.72,2.72,0,0,0,17.74,16h8.52a2.72,2.72,0,0,0-.13,1.06l.65,10.49a10.32,10.32,0,0,0,3,6.65l.61.61A2.06,2.06,0,0,1,31,36.27a2.12,2.12,0,0,1-.22.93l-.67,1.35A1,1,0,0,0,31,40a1,1,0,0,1,1,1Z"/></g></svg>