<svg xmlns="http://www.w3.org/2000/svg" viewBox="0 0 44 44"><defs><style>.cls-1{fill:#fff;}</style></defs><title>cws-icon-calendar</title><g id="calendar"><path class="cls-1" d="M2,10A1,1,0,0,0,3,9V7A1,1,0,0,1,4,6h6V7a3,3,0,0,0,5.6,1.5,1,1,0,0,0-.37-1.37,1,1,0,0,0-1.36.37A1,1,0,0,1,12,7V3a1,1,0,0,1,2,0V5h0a1,1,0,0,0,1,1H25a1,1,0,0,0,0-2H16V3a3,3,0,0,0-6,0V4H4A3,3,0,0,0,1,7V9A1,1,0,0,0,2,10Z"/><path class="cls-1" d="M40,4H34V3a3,3,0,0,0-6,0V7a3,3,0,0,0,4.5,2.6,3.05,3.05,0,0,0,1.1-1.1,1,1,0,0,0-.37-1.37,1,1,0,0,0-1.36.37,1.09,1.09,0,0,1-.37.37A1.06,1.06,0,0,1,31,8a1,1,0,0,1-1-1V3a1,1,0,0,1,2,0V5a1,1,0,0,0,1,1h7a1,1,0,0,1,1,1V41a1,1,0,0,1-1,1H4a1,1,0,0,1-1-1V14H38a1,1,0,0,0,0-2H2a1,1,0,0,0-1,1V41a3,3,0,0,0,3,3H40a3,3,0,0,0,3-3V7A3,3,0,0,0,40,4Z"/><path class="cls-1" d="M13,18a1,1,0,0,0-1-1H8a1,1,0,0,0-1,1v4a1,1,0,0,0,1,1h4a1,1,0,0,0,1-1Zm-2,3H9V19h2Z"/><path class="cls-1" d="M21,18a1,1,0,0,0-1-1H16a1,1,0,0,0-1,1v4a1,1,0,0,0,1,1h4a1,1,0,0,0,1-1Zm-2,3H17V19h2Z"/><path class="cls-1" d="M29,18a1,1,0,0,0-1-1H24a1,1,0,0,0-1,1v4a1,1,0,0,0,1,1h4a1,1,0,0,0,1-1Zm-2,3H25V19h2Z"/><path class="cls-1" d="M37,18a1,1,0,0,0-1-1H32a1,1,0,0,0-1,1v4a1,1,0,0,0,1,1h4a1,1,0,0,0,1-1Zm-2,3H33V19h2Z"/><path class="cls-1" d="M13,26a1,1,0,0,0-1-1H8a1,1,0,0,0-1,1v4a1,1,0,0,0,1,1h4a1,1,0,0,0,1-1Zm-2,3H9V27h2Z"/><path class="cls-1" d="M21,26a1,1,0,0,0-1-1H16a1,1,0,0,0-1,1v4a1,1,0,0,0,1,1h4a1,1,0,0,0,1-1Zm-2,3H17V27h2Z"/><path class="cls-1" d="M29,26a1,1,0,0,0-1-1H24a1,1,0,0,0-1,1v4a1,1,0,0,0,1,1h4a1,1,0,0,0,1-1Zm-2,3H25V27h2Z"/><path class="cls-1" d="M37,26a1,1,0,0,0-1-1H32a1,1,0,0,0-1,1v4a1,1,0,0,0,1,1h4a1,1,0,0,0,1-1Zm-2,3H33V27h2Z"/><path class="cls-1" d="M12,33H8a1,1,0,0,0-1,1v4a1,1,0,0,0,1,1h4a1,1,0,0,0,1-1V34A1,1,0,0,0,12,33Zm-1,4H9V35h2Z"/><path class="cls-1" d="M20,33H16a1,1,0,0,0-1,1v4a1,1,0,0,0,1,1h4a1,1,0,0,0,1-1V34A1,1,0,0,0,20,33Zm-1,4H17V35h2Z"/><path class="cls-1" d="M28,33H24a1,1,0,0,0-1,1v4a1,1,0,0,0,1,1h4a1,1,0,0,0,1-1V34A1,1,0,0,0,28,33Zm-1,4H25V35h2Z"/><path class="cls-1" d="M36,33H32a1,1,0,0,0-1,1v4a1,1,0,0,0,1,1h4a1,1,0,0,0,1-1V34A1,1,0,0,0,36,33Zm-1,4H33V35h2Z"/></g></svg>