<svg xmlns="http://www.w3.org/2000/svg" viewBox="0 0 44 44"><defs><style>.cls-1{fill:#fff;}</style></defs><title>cws-icon-generator</title><g id="generator"><path class="cls-1" d="M20,6a1,1,0,0,0,1-1V1a1,1,0,0,0-2,0V5A1,1,0,0,0,20,6Z"/><path class="cls-1" d="M16,10a1,1,0,0,0-1-1H11a1,1,0,0,0,0,2h4A1,1,0,0,0,16,10Z"/><path class="cls-1" d="M23.54,7.46a1,1,0,0,0,.7-.29l2.83-2.83a1,1,0,1,0-1.41-1.41L22.83,5.76a1,1,0,0,0,0,1.41A1,1,0,0,0,23.54,7.46Z"/><path class="cls-1" d="M15.76,7.17a1,1,0,0,0,1.41,0,1,1,0,0,0,0-1.41L14.34,2.93a1,1,0,0,0-1.41,1.41Z"/><path class="cls-1" d="M12.93,15.66a1,1,0,0,0,0,1.41,1,1,0,0,0,1.41,0l2.83-2.83a1,1,0,0,0-1.41-1.41Z"/><path class="cls-1" d="M22.83,12.83a1,1,0,0,0,0,1.41l2.83,2.83a1,1,0,0,0,1.41,0,1,1,0,0,0,0-1.41l-2.83-2.83A1,1,0,0,0,22.83,12.83Z"/><path class="cls-1" d="M33.62,7.21A1,1,0,0,0,32.76,7l-4,1A1,1,0,0,0,28,9H22.83A3,3,0,1,0,19,12.83V15.3a3,3,0,0,1-.91,2.19,5,5,0,0,0-1.33,2.37L11,42.76a1,1,0,0,0,.44,1.09,1,1,0,0,0,1.18-.09l12-10.13,1.65,6.6-3.06-2.58a1,1,0,1,0-1.29,1.52l5.42,4.59a1,1,0,0,0,1.18.09A1,1,0,0,0,29,42.76l-6-24a1,1,0,1,0-1.94.48l2.46,9.83-5.58-5.58.79-3.15a3,3,0,0,1,.81-1.43A5.08,5.08,0,0,0,21,15.3V12a1,1,0,0,0-1-1,1,1,0,1,1,1-1,1,1,0,0,0,1,1h6a1,1,0,0,0,.76,1l4,1L33,13a1,1,0,0,0,1-1V8A1,1,0,0,0,33.62,7.21ZM23.52,31.94l-3.52,3-3.52-3L20,28.41Zm-8.15,1.69,3.08,2.6-4.73,4ZM18.59,27l-2.08,2.07.83-3.31ZM32,10.72l-2-.5V9.78l2-.5Z"/></g></svg>