<svg xmlns="http://www.w3.org/2000/svg" viewBox="0 0 44 40"><defs><style>.cls-1{fill:#fff;}</style></defs><title>cws-icon-tv</title><g id="Livello_2" data-name="Livello 2"><g id="tv"><circle class="cls-1" cx="38" cy="15" r="1"/><circle class="cls-1" cx="38" cy="19" r="1"/><circle class="cls-1" cx="38" cy="23" r="1"/><circle class="cls-1" cx="38" cy="35" r="1"/><path class="cls-1" d="M41,10H28a1,1,0,0,0,0,2H41a1,1,0,0,1,1,1V37a1,1,0,0,1-1,1H3a1,1,0,0,1-1-1V13a1,1,0,0,1,1-1H24a1,1,0,0,0,1-1V10a3,3,0,0,0-.69-1.89l6.4-6.4A1,1,0,1,0,29.29.29L22.53,7.05a2.83,2.83,0,0,0-1.06,0L14.71.29a1,1,0,0,0-1.42,1.42l6.4,6.4A3,3,0,0,0,19,10H3a3,3,0,0,0-3,3V37a3,3,0,0,0,3,3H41a3,3,0,0,0,3-3V13A3,3,0,0,0,41,10Z"/><path class="cls-1" d="M4,15V35a1,1,0,0,0,1,1H33a1,1,0,0,0,1-1V15a1,1,0,0,0-1-1H5A1,1,0,0,0,4,15Zm2,1H32V34H6Z"/><path class="cls-1" d="M9,22a1,1,0,0,0,.71-.29l2-2a1,1,0,0,0-1.42-1.42l-2,2a1,1,0,0,0,0,1.42A1,1,0,0,0,9,22Z"/><path class="cls-1" d="M15.29,18.29l-7,7a1,1,0,0,0,0,1.42,1,1,0,0,0,1.42,0l7-7a1,1,0,0,0-1.42-1.42Z"/></g></g></svg>