<svg xmlns="http://www.w3.org/2000/svg" viewBox="0 0 44 44"><defs><style>.cls-1{fill:#fff;}</style></defs><g id="motherboard"><circle class="cls-1" cx="17" cy="14" r="1"/><circle class="cls-1" cx="17" cy="18" r="1"/><circle class="cls-1" cx="21" cy="14" r="1"/><circle class="cls-1" cx="21" cy="18" r="1"/><circle class="cls-1" cx="17" cy="22" r="1"/><circle class="cls-1" cx="17" cy="26" r="1"/><circle class="cls-1" cx="21" cy="22" r="1"/><circle class="cls-1" cx="21" cy="26" r="1"/><path class="cls-1" d="M41,7H6V3A1,1,0,0,0,5,2H1A1,1,0,0,0,1,4H4V41a1,1,0,0,0,2,0V27h5a1,1,0,0,0,1-1V22a1,1,0,0,0-1-1H6V19h5a1,1,0,0,0,1-1V14a1,1,0,0,0-1-1H6V9H41a1,1,0,0,1,1,1V34a1,1,0,0,1-1,1H12V32a1,1,0,0,0-2,0v4a1,1,0,0,0,1,1H41a3,3,0,0,0,3-3V10A3,3,0,0,0,41,7ZM10,23v2H6V23Zm0-8v2H6V15Z"/><path class="cls-1" d="M24,30a1,1,0,0,0,1,1h2v1a1,1,0,0,0,2,0V31h2v1a1,1,0,0,0,2,0V31h2v1a1,1,0,0,0,2,0V31h2a1,1,0,0,0,1-1V24a1,1,0,0,0-2,0v5H26V23H36a1,1,0,0,0,1-1V20a1,1,0,0,0-2,0v1H33V20a1,1,0,0,0-2,0v1H29V20a1,1,0,0,0-2,0v1H25a1,1,0,0,0-1,1Z"/><path class="cls-1" d="M25,15H39a1,1,0,0,0,0-2H25a1,1,0,0,0,0,2Z"/></g></svg>