<svg xmlns="http://www.w3.org/2000/svg" viewBox="0 0 44 44"><defs><style>.cls-1{fill:#fff;}</style></defs><title>cws-icon-letter</title><g id="letter"><path class="cls-1" d="M26,6H18a1,1,0,0,0,0,2h8a1,1,0,0,0,0-2Z"/><path class="cls-1" d="M12,12a1,1,0,0,0,1,1h9a1,1,0,0,0,0-2H13A1,1,0,0,0,12,12Z"/><path class="cls-1" d="M13,21H24a1,1,0,0,0,0-2H13a1,1,0,0,0,0,2Z"/><path class="cls-1" d="M13,17h4a1,1,0,0,0,0-2H13a1,1,0,0,0,0,2Z"/><path class="cls-1" d="M21,15a1,1,0,0,0,0,2h4a1,1,0,0,0,0-2Z"/><path class="cls-1" d="M31,15H29a1,1,0,0,0,0,2h2a1,1,0,0,0,0-2Z"/><path class="cls-1" d="M31,11H26a1,1,0,0,0,0,2h5a1,1,0,0,0,0-2Z"/><path class="cls-1" d="M41.63,13l-2.1-1.3a1,1,0,1,0-1.05,1.7l2.1,1.3A3,3,0,0,1,42,17.23V41a1,1,0,0,1-1,1H3a1,1,0,0,1-1-1V17.23a3,3,0,0,1,1.42-2.55l2.11-1.31A1,1,0,0,0,5.85,12a1,1,0,0,0-1.38-.33L2.37,13A5,5,0,0,0,0,17.23V41a3,3,0,0,0,3,3H41a3,3,0,0,0,3-3V17.23A5,5,0,0,0,41.63,13Z"/><path class="cls-1" d="M11.21,29.39l-7,9a1,1,0,0,0,.18,1.4,1,1,0,0,0,1.4-.18l7-9a1,1,0,1,0-1.58-1.22Z"/><path class="cls-1" d="M31.39,29.21a1,1,0,0,0-.18,1.4l7,9a1,1,0,0,0,1.58-1.22l-7-9A1,1,0,0,0,31.39,29.21Z"/><path class="cls-1" d="M39.77,18.36a1,1,0,0,0-1.41-.13L23.91,30.13a3,3,0,0,1-3.82,0L5.64,18.23a1,1,0,0,0-1.28,1.54L18.82,31.68a5,5,0,0,0,6.36,0L39.64,19.77A1,1,0,0,0,39.77,18.36Z"/><path class="cls-1" d="M9,19a1,1,0,0,0,1-1V3a1,1,0,0,1,1-1H33a1,1,0,0,1,1,1V18a1,1,0,0,0,2,0V3a3,3,0,0,0-3-3H11A3,3,0,0,0,8,3V18A1,1,0,0,0,9,19Z"/></g></svg>