<svg xmlns="http://www.w3.org/2000/svg" viewBox="0 0 44 44"><defs><style>.cls-1{fill:#fff;}</style></defs><title>cws-icon-nuclear</title><g id="nuclear"><path class="cls-1" d="M22,24.1a2.25,2.25,0,1,0-2.25-2.25A2.25,2.25,0,0,0,22,24.1Z"/><path class="cls-1" d="M22,0A22,22,0,1,0,44,22,22,22,0,0,0,22,0Zm0,42A20,20,0,1,1,42,22,20,20,0,0,1,22,42Z"/><path class="cls-1" d="M25.87,26.69a1,1,0,0,0-.62-.47,1,1,0,0,0-.76.11A4.86,4.86,0,0,1,22,27a1,1,0,0,0,0,2,7,7,0,0,0,2.6-.5l4.52,7.83a16.25,16.25,0,0,1-14.24,0l5-8.64a1,1,0,1,0-1.74-1l-5.5,9.53A1,1,0,0,0,13,37.58a17.95,17.95,0,0,0,18,0,1,1,0,0,0,.37-1.36Z"/><path class="cls-1" d="M37.59,13A18,18,0,0,0,31,6.41a1,1,0,0,0-1.37.37l-5.5,9.53a1,1,0,0,0-.1.76,1,1,0,0,0,.48.61,4.82,4.82,0,0,1,1.82,1.82,1,1,0,0,0,1.37.37,1,1,0,0,0,.36-1.37,7,7,0,0,0-1.73-2l4.52-7.83A16,16,0,0,1,38,21H28a1,1,0,0,0,0,2H39a1,1,0,0,0,1-1A17.93,17.93,0,0,0,37.59,13Z"/><path class="cls-1" d="M16.71,22.7A1,1,0,0,0,17,22a4.79,4.79,0,0,1,.66-2.49,1,1,0,1,0-1.73-1,6.89,6.89,0,0,0-.86,2.5H6A16,16,0,0,1,13.15,8.67l5,8.63a1,1,0,1,0,1.74-1L14.36,6.78A1,1,0,0,0,13,6.41,18,18,0,0,0,4,22a1,1,0,0,0,1,1H16A1,1,0,0,0,16.71,22.7Z"/></g></svg>