<svg xmlns="http://www.w3.org/2000/svg" viewBox="0 0 44 44"><defs><style>.cls-1{fill:#fff;}</style></defs><g id="camera"><path class="cls-1" d="M22,8a9,9,0,1,0,9,9A9,9,0,0,0,22,8Zm0,16a7,7,0,1,1,7-7A7,7,0,0,1,22,24Z"/><path class="cls-1" d="M22,13a4,4,0,1,0,4,4A4,4,0,0,0,22,13Zm0,6a2,2,0,1,1,2-2A2,2,0,0,1,22,19Z"/><path class="cls-1" d="M37,40.76A5,5,0,0,0,32.53,38H31c-3.93,0-4-4.8-4-5v-.5a1,1,0,0,0-1.25-1A15.23,15.23,0,0,1,22,32,15,15,0,0,1,13.94,4.37l.24.63A3,3,0,0,0,17,6.94a3,3,0,0,0,1.1-.21,10.92,10.92,0,0,1,7.84,0,3,3,0,0,0,2.33-.06A3,3,0,0,0,29.82,5l.24-.62A15,15,0,0,1,29.5,30a1,1,0,0,0-.37,1.37,1,1,0,0,0,1.37.36,16.85,16.85,0,1,0-5.46,2C25.26,36.24,26.7,40,31,40h1.53a3,3,0,0,1,2.68,1.66l.17.34H8.62l.17-.34A3,3,0,0,1,11.47,40H24a1,1,0,0,0,0-2H17.38a6.91,6.91,0,0,0,.95-1.62,1,1,0,0,0-1.85-.76A3.48,3.48,0,0,1,13,38H11.47A5,5,0,0,0,7,40.76l-.89,1.79A1,1,0,0,0,7,44H37a1,1,0,0,0,.89-1.45ZM28.28,3.4,28,4.29a1,1,0,0,1-1.31.57,13,13,0,0,0-9.28,0,1,1,0,0,1-1.31-.57l-.33-.89a14.79,14.79,0,0,1,12.56,0Z"/></g></svg>