<svg xmlns="http://www.w3.org/2000/svg" viewBox="0 0 44 44"><defs><style>.cls-1{fill:#fff;}</style></defs><g id="balloons"><path class="cls-1" d="M16.56,4.86a1.06,1.06,0,0,0,.51.14,1,1,0,0,0,.86-.49A4.83,4.83,0,0,1,22,2a4.83,4.83,0,0,1,4.07,2.51,1,1,0,1,0,1.71-1A6.77,6.77,0,0,0,22,0a6.77,6.77,0,0,0-5.78,3.49A1,1,0,0,0,16.56,4.86Z"/><path class="cls-1" d="M39,13c0-4.41-3.14-8-7-8a6.82,6.82,0,0,0-5.87,3.63,1,1,0,1,0,1.74,1A4.83,4.83,0,0,1,32,7c2.76,0,5,2.69,5,6s-2.24,6-5,6a1,1,0,0,0-.73.33.69.69,0,0,0-.16.22l-1,2A1,1,0,0,0,31,23v1a6.68,6.68,0,0,1-2.85,5.47l-2.72,1.91a1,1,0,0,0-.25,1.39,1,1,0,0,0,.82.43,1,1,0,0,0,.57-.18l2.73-1.91A8.67,8.67,0,0,0,33,24V23a1,1,0,0,0,.89-1.45l-.37-.75C36.65,20,39,16.81,39,13Z"/><path class="cls-1" d="M18,33.2a1,1,0,0,0,.82-.43,1,1,0,0,0-.25-1.39l-2.72-1.91A6.68,6.68,0,0,1,13,24V23a1,1,0,0,0,.89-1.45l-1-2a.89.89,0,0,0-.16-.22A1,1,0,0,0,12,19c-2.76,0-5-2.69-5-6s2.24-6,5-6a4.83,4.83,0,0,1,4.13,2.62,1,1,0,1,0,1.74-1A6.82,6.82,0,0,0,12,5C8.14,5,5,8.59,5,13c0,3.81,2.35,7,5.48,7.8l-.37.75A1,1,0,0,0,11,23v1a8.67,8.67,0,0,0,3.7,7.11L17.43,33A1,1,0,0,0,18,33.2Z"/><path class="cls-1" d="M26.5,35a2.53,2.53,0,0,0-1.5.5L23,37V29a1,1,0,0,0,.89-1.45l-1-2a.69.69,0,0,0-.16-.22A1,1,0,0,0,22,25c-2.76,0-5-2.69-5-6s2.24-6,5-6,5,2.69,5,6a6.62,6.62,0,0,1-1.72,4.53,1,1,0,0,0,1.44,1.38A8.58,8.58,0,0,0,29,19c0-4.41-3.14-8-7-8s-7,3.59-7,8c0,3.81,2.35,7,5.48,7.8l-.37.75A1,1,0,0,0,21,29v8l-2-1.5a2.53,2.53,0,0,0-1.5-.5A2.5,2.5,0,0,0,15,37.5v3A2.5,2.5,0,0,0,17.5,43a2.53,2.53,0,0,0,1.5-.5L21,41v2a1,1,0,0,0,2,0V39.5l3.2-2.4a.52.52,0,0,1,.8.4v3a.52.52,0,0,1-.8.4A1,1,0,1,0,25,42.5a2.53,2.53,0,0,0,1.5.5A2.5,2.5,0,0,0,29,40.5v-3A2.5,2.5,0,0,0,26.5,35Zm-8.7,5.9a.51.51,0,0,1-.8-.4v-3a.5.5,0,0,1,.5-.5.47.47,0,0,1,.3.1L20.33,39Z"/><path class="cls-1" d="M19.23,15.38A5.64,5.64,0,0,0,18,19a1,1,0,0,0,2,0,3.68,3.68,0,0,1,.77-2.34,1,1,0,0,0-1.54-1.28Z"/><path class="cls-1" d="M9.23,9.38A5.64,5.64,0,0,0,8,13a1,1,0,0,0,2,0,3.68,3.68,0,0,1,.77-2.34A1,1,0,0,0,9.23,9.38Z"/></g></svg>