<svg xmlns="http://www.w3.org/2000/svg" viewBox="0 0 44 44"><defs><style>.cls-1{fill:#fffafc;}</style></defs><g id="snowflakes"><circle class="cls-1" cx="30" cy="16" r="1"/><circle class="cls-1" cx="38" cy="16" r="1"/><circle class="cls-1" cx="30" cy="8" r="1"/><circle class="cls-1" cx="38" cy="8" r="1"/><path class="cls-1" d="M43,11H40.87l1-1.45a1,1,0,0,0-1.66-1.1L38.46,11H36.82A3,3,0,0,0,35,9.18V7.54l2.55-1.71a1,1,0,0,0-1.1-1.66L35,5.13V3a1,1,0,0,0-2,0V5.13l-1.45-1a1,1,0,0,0-1.1,1.66L33,7.54V9.18A3,3,0,0,0,31.18,11H29.54L27.83,8.45a1,1,0,1,0-1.66,1.1l1,1.45H25a1,1,0,0,0,0,2h2.13l-1,1.45a1,1,0,0,0,.28,1.38A.94.94,0,0,0,27,16a1,1,0,0,0,.83-.45L29.54,13h1.64A3,3,0,0,0,33,14.82v1.64l-2.55,1.71a1,1,0,1,0,1.1,1.66l1.45-1V21a1,1,0,0,0,2,0V18.87l1.45,1A.94.94,0,0,0,37,20a1,1,0,0,0,.55-1.83L35,16.46V14.82A3,3,0,0,0,36.82,13h1.64l1.71,2.55A1,1,0,0,0,41,16a.94.94,0,0,0,.55-.17,1,1,0,0,0,.28-1.38l-1-1.45H43a1,1,0,0,0,0-2Zm-9,2a1,1,0,1,1,1-1A1,1,0,0,1,34,13Z"/><circle class="cls-1" cx="6" cy="16" r="1"/><circle class="cls-1" cx="14" cy="16" r="1"/><circle class="cls-1" cx="6" cy="8" r="1"/><circle class="cls-1" cx="14" cy="8" r="1"/><path class="cls-1" d="M11,18.87l1.45,1A.94.94,0,0,0,13,20a1,1,0,0,0,.55-1.83L11,16.46V14.82A3,3,0,0,0,12.82,13h1.64l1.71,2.55A1,1,0,0,0,17,16a.94.94,0,0,0,.55-.17,1,1,0,0,0,.28-1.38l-1-1.45H19a1,1,0,0,0,0-2H16.87l1-1.45a1,1,0,1,0-1.66-1.1L14.46,11H12.82A3,3,0,0,0,11,9.18V7.54l2.55-1.71a1,1,0,0,0-1.1-1.66L11,5.13V3A1,1,0,0,0,9,3V5.13l-1.45-1a1,1,0,0,0-1.1,1.66L9,7.54V9.18A3,3,0,0,0,7.18,11H5.54L3.83,8.45a1,1,0,0,0-1.66,1.1l1,1.45H1a1,1,0,0,0,0,2H3.13l-1,1.45a1,1,0,0,0,.28,1.38A.94.94,0,0,0,3,16a1,1,0,0,0,.83-.45L5.54,13H7.18A3,3,0,0,0,9,14.82v1.64L6.45,18.17a1,1,0,0,0,1.1,1.66l1.45-1V21a1,1,0,0,0,2,0ZM10,13a1,1,0,1,1,1-1A1,1,0,0,1,10,13Z"/><circle class="cls-1" cx="18" cy="35" r="1"/><circle class="cls-1" cx="26" cy="35" r="1"/><circle class="cls-1" cx="18" cy="27" r="1"/><circle class="cls-1" cx="26" cy="27" r="1"/><path class="cls-1" d="M32,30H29.87l1-1.45a1,1,0,0,0-1.66-1.1L27.46,30H24.82A3,3,0,0,0,23,28.18V25.54l2.55-1.71a1,1,0,0,0-1.1-1.66l-1.45,1V21a1,1,0,0,0-2,0v2.13l-1.45-1a1,1,0,1,0-1.1,1.66L21,25.54v2.64A3,3,0,0,0,19.18,30H16.54l-1.71-2.55a1,1,0,0,0-1.66,1.1l1,1.45H12a1,1,0,0,0,0,2h2.13l-1,1.45a1,1,0,0,0,.28,1.38A.94.94,0,0,0,14,35a1,1,0,0,0,.83-.45L16.54,32h2.64A3,3,0,0,0,21,33.82v2.64l-2.55,1.71a1,1,0,0,0,1.1,1.66l1.45-1V41a1,1,0,0,0,2,0V38.87l1.45,1A.94.94,0,0,0,25,40a1,1,0,0,0,.55-1.83L23,36.46V33.82A3,3,0,0,0,24.82,32h2.64l1.71,2.55A1,1,0,0,0,30,35a.94.94,0,0,0,.55-.17,1,1,0,0,0,.28-1.38l-1-1.45H32a1,1,0,0,0,0-2ZM22,32a1,1,0,1,1,1-1A1,1,0,0,1,22,32Z"/></g></svg>