<svg xmlns="http://www.w3.org/2000/svg" viewBox="0 0 64 56"><defs><style>.cls-1{fill:#fff;}</style></defs><g id="shirt"><path class="cls-1" d="M49.42,13.76l-5-.71L40.71,9.29A1,1,0,0,0,40.24,9l-1.09-.27a25.26,25.26,0,0,0-12.3,0L25.76,9a1,1,0,0,0-.47.26l-3.76,3.76-5,.71a3,3,0,0,0-2.58,3V36a1,1,0,0,0,2,0V16.73a1,1,0,0,1,.86-1l4.49-.64,4.72,12.26A1,1,0,0,0,27,28H27a1,1,0,0,0,.89-.55,11.83,11.83,0,0,1,1.16-1.86A10.58,10.58,0,0,0,30,29.13l-.92,6.73a1,1,0,1,0,2,.27L31.87,30h2.3L37.8,50H35a1,1,0,0,0,0,2H49a3,3,0,0,0,3-3V16.73A3,3,0,0,0,49.42,13.76Zm-9.25-2.17,2.66,2.66-4,10.47a14.59,14.59,0,0,0-4.4-4.06Zm-1.76-.95L33,19.14l-5.41-8.5A23.54,23.54,0,0,1,38.41,10.64ZM27.2,24.72l-4-10.47,2.66-2.66,5.77,9.07A14.59,14.59,0,0,0,27.2,24.72Zm7.8,0A8.58,8.58,0,0,1,34.36,28H31.64A8.58,8.58,0,0,1,31,24.76V23.51a12.42,12.42,0,0,1,2-1.37,12.42,12.42,0,0,1,2,1.37ZM50,49a1,1,0,0,1-1,1H39.83L36,29.11A10.7,10.7,0,0,0,37,25.59a11.83,11.83,0,0,1,1.16,1.86A1,1,0,0,0,39,28h0a1,1,0,0,0,.88-.64L44.65,15.1l4.49.64a1,1,0,0,1,.86,1Z"/><path class="cls-1" d="M31,39H24a1,1,0,0,0-1,1v7a1,1,0,0,0,2,0V41h5v9H15a1,1,0,0,1-1-1V42a1,1,0,0,1,1-1h5a1,1,0,0,0,0-2H15a3,3,0,0,0-3,3v7a3,3,0,0,0,3,3H31a1,1,0,0,0,1-1V40A1,1,0,0,0,31,39Z"/><path class="cls-1" d="M29,48a1,1,0,1,0-1,1A1,1,0,0,0,29,48Z"/></g></svg>