<svg xmlns="http://www.w3.org/2000/svg" viewBox="0 0 36 44"><defs><style>.cls-1{fill:#fff;}</style></defs><title>cws-icon-popcorn</title><g id="Livello_2" data-name="Livello 2"><g id="popcorn"><path class="cls-1" d="M4.5,9.94a1,1,0,0,0,.61-1.28A2.08,2.08,0,0,1,5,8,2,2,0,0,1,6.35,6.12a1,1,0,0,0,.67-1A.9.9,0,0,0,7,5,2,2,0,0,1,9,3a1.66,1.66,0,0,1,.49.07,2.39,2.39,0,0,1,.51.21A2,2,0,0,1,11,5a1,1,0,0,0,2,0,4,4,0,0,0-1.06-2.68A1.94,1.94,0,0,1,13,2a2,2,0,0,1,1.67.9,1,1,0,0,0,1.66,0,2,2,0,0,1,3.59.58,1,1,0,0,0,.52.64,1.06,1.06,0,0,0,.82,0,2,2,0,0,1,2.61,1.16,1,1,0,0,0,.74.64,1,1,0,0,0,.93-.3,2,2,0,0,1,3.36.78,1,1,0,0,0,.67.67A2,2,0,0,1,31,9a1,1,0,0,0,2,0,4,4,0,0,0-2.36-3.64A4,4,0,0,0,27,3a3.92,3.92,0,0,0-1.9.49A4,4,0,0,0,21.47,2a4,4,0,0,0-6-1.16A4,4,0,0,0,13,0a4,4,0,0,0-2.83,1.18A3.86,3.86,0,0,0,9,1,4,4,0,0,0,5,4.53,4,4,0,0,0,3,8a4,4,0,0,0,.23,1.33A1,1,0,0,0,4.5,9.94Z"/><path class="cls-1" d="M17,5a1,1,0,0,0,0,2,2,2,0,0,1,2,2,1,1,0,0,0,2,0A4,4,0,0,0,17,5Z"/><path class="cls-1" d="M26,8a1,1,0,0,0-2,0,3,3,0,0,0,3,3,1,1,0,0,0,0-2A1,1,0,0,1,26,8Z"/><path class="cls-1" d="M9,8A1,1,0,0,0,7,8a3,3,0,0,0,3,3,1,1,0,0,0,0-2A1,1,0,0,1,9,8Z"/><path class="cls-1" d="M35,12H17a2,2,0,0,1-2-2,1,1,0,0,0-2,0,3.91,3.91,0,0,0,.56,2H1a1,1,0,0,0,0,2H2a22.75,22.75,0,0,0,.2,2.61L5.76,41.42a3,3,0,0,0,3,2.58H27.27a3,3,0,0,0,3-2.58L33.7,17.14a1,1,0,1,0-2-.28L28.25,41.14a1,1,0,0,1-1,.86H8.73a1,1,0,0,1-1-.86L4.2,16.33A20.14,20.14,0,0,1,4,14H35a1,1,0,0,0,0-2Z"/><path class="cls-1" d="M7.91,16A1,1,0,0,0,7,17.09l2,22A1,1,0,0,0,10,40h.09A1,1,0,0,0,11,38.91l-2-22A1,1,0,0,0,7.91,16Z"/><path class="cls-1" d="M27,16.91l-2,22A1,1,0,0,0,25.91,40H26a1,1,0,0,0,1-.91l2-22a1,1,0,1,0-2-.18Z"/><path class="cls-1" d="M22,40h0a1,1,0,0,0,1-1l.32-7.15A5.49,5.49,0,0,0,25,28a5.38,5.38,0,0,0-1.34-3.51L24,17a1,1,0,0,0-1-1,1,1,0,0,0-1,1l-.27,6A7.66,7.66,0,0,0,19,22.07V17a1,1,0,0,0-2,0v5.07a7.66,7.66,0,0,0-2.73.86L14,17a1,1,0,0,0-1-1,1,1,0,0,0-1,1l.34,7.45A5.38,5.38,0,0,0,11,28a5.49,5.49,0,0,0,1.68,3.89L13,39a1,1,0,0,0,1,1h0a1,1,0,0,0,1-1l-.26-5.65a8,8,0,0,0,2.26.62V39a1,1,0,0,0,2,0V33.93a8,8,0,0,0,2.26-.62L21,39A1,1,0,0,0,22,40ZM13,28c0-2.21,2.24-4,5-4s5,1.79,5,4-2.24,4-5,4S13,30.21,13,28Z"/></g></g></svg>