<svg xmlns="http://www.w3.org/2000/svg" viewBox="0 0 44 44"><defs><style>.cls-1{fill:#fff;}</style></defs><g id="love"><path class="cls-1" d="M5,19a1,1,0,1,0,1,1A1,1,0,0,0,5,19Z"/><path class="cls-1" d="M43.92,4.62A1,1,0,0,0,43,4H40V1a1,1,0,0,0-.62-.92,1,1,0,0,0-1.09.21l-4,4A1.05,1.05,0,0,0,34,5V8.59l-1,1A10.33,10.33,0,0,0,29.5,9,10.5,10.5,0,0,0,19,19,1,1,0,0,0,20,20H20a1,1,0,0,0,1-.95,8.51,8.51,0,0,1,11.83-7.37A1,1,0,0,0,34,11.47L35.41,10H39a1,1,0,0,0,.71-.29l4-4A1,1,0,0,0,43.92,4.62ZM38.59,8H36V5.41l2-2V5a1,1,0,0,0,1,1h1.59Z"/><path class="cls-1" d="M35.66,12.28a1,1,0,0,0,0,1.42,8.33,8.33,0,0,1-.21,11.87L20.74,40.69a1.08,1.08,0,0,1-1.48,0L14,35.3a1,1,0,0,0-1.42,0,1,1,0,0,0,0,1.41l5.23,5.39a3,3,0,0,0,4.36,0L36.83,27a10.31,10.31,0,0,0,.24-14.68A1,1,0,0,0,35.66,12.28Z"/><path class="cls-1" d="M10.45,39.11,7.69,37.73,17.43,28A4,4,0,0,1,18,30a1,1,0,0,0,2,0,6,6,0,0,0-6-6,1,1,0,0,0,0,2,4,4,0,0,1,2,.57l-5.31,5.31L4.56,25.55a8.37,8.37,0,0,1,.68-12.64,9,9,0,0,1,10.46-.45,8.72,8.72,0,0,1,1.57,1.32,1,1,0,1,0,1.46-1.36,10.41,10.41,0,0,0-1.92-1.63A11,11,0,0,0,4,11.34,10.53,10.53,0,0,0,0,19a10.39,10.39,0,0,0,3.14,8L9.29,33.3l-3,3L4.89,33.55a1,1,0,0,0-1.84.13l-3,9A1,1,0,0,0,1,44a1.19,1.19,0,0,0,.32,0l9-3a1,1,0,0,0,.68-.88A1,1,0,0,0,10.45,39.11ZM2.58,41.42l1.61-4.81.92,1.84a.94.94,0,0,0,.44.44l1.84.92Z"/><path class="cls-1" d="M6.83,17.24A5,5,0,0,1,11,15a1,1,0,0,0,0-2,7,7,0,0,0-5.83,3.13A1,1,0,0,0,6,17.68,1,1,0,0,0,6.83,17.24Z"/></g></svg>