<svg xmlns="http://www.w3.org/2000/svg" viewBox="0 0 44 44"><defs><style>.cls-1{fill:#fff;}</style></defs><g id="disk"><circle class="cls-1" cx="33" cy="5" r="1"/><circle class="cls-1" cx="11" cy="5" r="1"/><circle class="cls-1" cx="33" cy="39" r="1"/><circle class="cls-1" cx="22" cy="18" r="2"/><circle class="cls-1" cx="11" cy="39" r="1"/><path class="cls-1" d="M34,18a12,12,0,1,0-21.26,7.64,11.76,11.76,0,0,0,1,1.09,1,1,0,0,0,1.41,0,1,1,0,0,0,0-1.42,8.11,8.11,0,0,1-.85-.91A10,10,0,1,1,22,28h-.23l3.05-4.42a1,1,0,0,0-1.5-1.31L12.8,31.91a2.63,2.63,0,0,0-.75,2.1,2.6,2.6,0,0,0,1.15,1.91,2.56,2.56,0,0,0,1.43.44,3.29,3.29,0,0,0,.54,0,2.57,2.57,0,0,0,1.64-1.12l3.65-5.3A11.39,11.39,0,0,0,22,30,12,12,0,0,0,34,18ZM15.14,34.08a.56.56,0,0,1-.38.27.61.61,0,0,1-.72-.54.57.57,0,0,1,.15-.46l4-3.65Z"/><path class="cls-1" d="M22,10a8,8,0,0,0-8,8,1,1,0,0,0,2,0,6,6,0,0,1,6-6,1,1,0,0,0,0-2Z"/><path class="cls-1" d="M35,0H9A3,3,0,0,0,6,3V31a1,1,0,0,0,1,1h3a1,1,0,0,0,0-2H8V3A1,1,0,0,1,9,2H35a1,1,0,0,1,1,1V41a1,1,0,0,1-1,1H25a1,1,0,0,0,0,2H35a3,3,0,0,0,3-3V3A3,3,0,0,0,35,0Z"/><path class="cls-1" d="M19.71,35.29a1,1,0,0,0-1.42,1.42l.83.83A3,3,0,0,1,20,39.66V42H9a1,1,0,0,1-1-1V35a1,1,0,0,0-2,0v6a3,3,0,0,0,3,3H21a1,1,0,0,0,1-1V39.66a5,5,0,0,0-1.46-3.54Z"/><path class="cls-1" d="M24,35v4a1,1,0,0,0,2,0V35a1,1,0,0,0-2,0Z"/><path class="cls-1" d="M28,35v4a1,1,0,0,0,2,0V35a1,1,0,0,0-2,0Z"/></g></svg>