<svg xmlns="http://www.w3.org/2000/svg" viewBox="0 0 44 44"><defs><style>.cls-1{fill:#fff;}</style></defs><title>cws-icon-satellite</title><g id="satellite"><path class="cls-1" d="M28.63,35.79a1,1,0,0,0,.15-1.4,1,1,0,0,0-1.41-.16,8.94,8.94,0,0,1-10.74,0,1,1,0,0,0-1.41.16,1,1,0,0,0,.15,1.4A10.63,10.63,0,0,0,22,38,10.63,10.63,0,0,0,28.63,35.79Z"/><path class="cls-1" d="M30.37,37.24a14,14,0,0,1-16.74,0,1,1,0,1,0-1.26,1.55A15.41,15.41,0,0,0,22,42a15.41,15.41,0,0,0,9.63-3.21,1,1,0,0,0,.15-1.4A1,1,0,0,0,30.37,37.24Z"/><path class="cls-1" d="M43,7H29a1,1,0,0,0-1,1v4H26V7a3,3,0,0,0-3-3V3a1,1,0,0,0-2,0V4a3,3,0,0,0-3,3v5H16V8a1,1,0,0,0-1-1H1A1,1,0,0,0,0,8V18a1,1,0,0,0,1,1H15a1,1,0,0,0,1-1V17a1,1,0,0,0-2,0H2V9H14v4a1,1,0,0,0,1,1h3v3a3,3,0,0,0,3,3v2.08A7,7,0,0,0,15,29a1,1,0,0,0,1,1h5v2a1,1,0,0,0,2,0V29a1,1,0,0,0-1-1H17.1a5,5,0,0,1,9.8,0H26a1,1,0,0,0,0,2h2a1,1,0,0,0,1-1,7,7,0,0,0-6-6.92V19a1,1,0,0,0-1-1H21a1,1,0,0,1-1-1V7a1,1,0,0,1,1-1h2a1,1,0,0,1,1,1V17a1,1,0,1,0,2,0V14h3a1,1,0,0,0,1-1V9H42v8H30a1,1,0,0,0-2,0v1a1,1,0,0,0,1,1H43a1,1,0,0,0,1-1V8A1,1,0,0,0,43,7Z"/><path class="cls-1" d="M39,14a1,1,0,0,0,0-2H33a1,1,0,0,0,0,2Z"/><path class="cls-1" d="M5,12a1,1,0,0,0,0,2h6a1,1,0,0,0,0-2Z"/></g></svg>