<svg xmlns="http://www.w3.org/2000/svg" viewBox="0 0 44 44"><defs><style>.cls-1{fill:#fff;}</style></defs><title>cws-icon-speech</title><g id="speech"><circle class="cls-1" cx="24" cy="7" r="1"/><circle class="cls-1" cx="20" cy="7" r="1"/><path class="cls-1" d="M43,28H1a1,1,0,0,0-1,1v4a1,1,0,0,0,1,1H6v9a1,1,0,0,0,2,0V34H33a1,1,0,0,0,0-2H2V30H42v2H37a1,1,0,0,0-1,1V43a1,1,0,0,0,2,0V34h5a1,1,0,0,0,1-1V29A1,1,0,0,0,43,28Z"/><path class="cls-1" d="M38,18a2.2,2.2,0,0,0,.36,0l1.11,2.22A5,5,0,0,1,40,22.42V25a1,1,0,0,0,2,0V22.42a7,7,0,0,0-.74-3.13l-1.1-2.21A3,3,0,1,0,38,18Zm0-4a1,1,0,1,1-1,1A1,1,0,0,1,38,14Z"/><path class="cls-1" d="M3,26a1,1,0,0,0,1-1V22.42a5,5,0,0,1,.53-2.24L5.64,18A2.2,2.2,0,0,0,6,18a3,3,0,1,0-2.16-.92l-1.1,2.21A7,7,0,0,0,2,22.42V25A1,1,0,0,0,3,26ZM6,14a1,1,0,1,1-1,1A1,1,0,0,1,6,14Z"/><path class="cls-1" d="M8,25a1,1,0,0,0,2,0v-.72a3,3,0,0,1,2.41-2.94L19.1,20H21v5a1,1,0,0,0,2,0V20h1.9l6.69,1.34A3,3,0,0,1,34,24.28V25a1,1,0,0,0,2,0v-.72a5,5,0,0,0-4-4.9L25.2,18,25,18H19l-.2,0L12,19.38a5,5,0,0,0-4,4.9Z"/><path class="cls-1" d="M15.37,9.9c0,.11,0,.22.06.34l.18.91A6,6,0,0,0,21.52,16h1a6,6,0,0,0,5.91-4.85l.18-.91c0-.12,0-.23.06-.34A2,2,0,0,0,30,8V7a2,2,0,0,0-1-1.73V5a5,5,0,0,0-5-5H20a5,5,0,0,0-5,5v.27A2,2,0,0,0,14,7V8A2,2,0,0,0,15.37,9.9ZM16,7a1,1,0,0,0,1-1V5a3,3,0,0,1,3-3h4a3,3,0,0,1,3,3V6a1,1,0,0,0,1,1V8h-.25a1,1,0,0,0-1,.85l-.05.36c0,.21-.06.42-.1.63l-.18.92A4,4,0,0,1,22.48,14h-1a4,4,0,0,1-3.95-3.24l-.18-.92c0-.21-.07-.42-.1-.63l-.05-.36a1,1,0,0,0-1-.85H16Z"/><path class="cls-1" d="M20,11a1,1,0,0,0,1,1h2a1,1,0,0,0,0-2H21A1,1,0,0,0,20,11Z"/></g></svg>