<svg xmlns="http://www.w3.org/2000/svg" viewBox="0 0 44 44"><defs><style>.cls-1{fill:#fff;}</style></defs><title>cws-icon-calculator</title><g id="calculator"><path class="cls-1" d="M36,0H8A3,3,0,0,0,5,3V41a3,3,0,0,0,3,3H36a3,3,0,0,0,3-3V3A3,3,0,0,0,36,0Zm1,41a1,1,0,0,1-1,1H8a1,1,0,0,1-1-1V3A1,1,0,0,1,8,2H36a1,1,0,0,1,1,1Z"/><circle class="cls-1" cx="29" cy="10" r="1"/><circle class="cls-1" cx="25" cy="10" r="1"/><circle class="cls-1" cx="21" cy="10" r="1"/><path class="cls-1" d="M34,4H10A1,1,0,0,0,9,5V15a1,1,0,0,0,1,1H34a1,1,0,0,0,1-1V5A1,1,0,0,0,34,4ZM33,14H11V6H33Z"/><path class="cls-1" d="M18,22H16V20a1,1,0,0,0-2,0v2H12a1,1,0,0,0,0,2h2v2a1,1,0,0,0,2,0V24h2a1,1,0,0,0,0-2Z"/><path class="cls-1" d="M32,22H26a1,1,0,0,0,0,2h6a1,1,0,0,0,0-2Z"/><path class="cls-1" d="M32,32H26a1,1,0,0,0,0,2h6a1,1,0,0,0,0-2Z"/><path class="cls-1" d="M32,36H26a1,1,0,0,0,0,2h6a1,1,0,0,0,0-2Z"/><path class="cls-1" d="M18.71,31.29a1,1,0,0,0-1.42,0L15,33.59l-2.29-2.3a1,1,0,0,0-1.42,1.42L13.59,35l-2.3,2.29a1,1,0,0,0,0,1.42,1,1,0,0,0,1.42,0L15,36.41l2.29,2.3a1,1,0,0,0,1.42,0,1,1,0,0,0,0-1.42L16.41,35l2.3-2.29A1,1,0,0,0,18.71,31.29Z"/></g></svg>