<svg xmlns="http://www.w3.org/2000/svg" viewBox="0 0 44 44"><defs><style>.cls-1{fill:#fff;}</style></defs><title>cws-icon-system</title><g id="system"><path class="cls-1" d="M12,22a4,4,0,0,0,4-4V10a1,1,0,0,1,1-1H34a1,1,0,0,1,1,1v8a2,2,0,0,1-2,2H18a1,1,0,0,0,0,2H33a4,4,0,0,0,4-4V10a3,3,0,0,0-3-3H17a3,3,0,0,0-3,3v8a2,2,0,0,1-4,0V3a1,1,0,0,1,1-1h4.76a4.09,4.09,0,0,1,2.91,1.21A6.12,6.12,0,0,0,23,5h7a1,1,0,0,0,0-2H23a4.07,4.07,0,0,1-2.91-1.21A6.12,6.12,0,0,0,15.76,0H11A3,3,0,0,0,8,3V18A4,4,0,0,0,12,22Z"/><path class="cls-1" d="M26,26a1,1,0,0,0,0,2h9a1,1,0,0,1,1,1,1,1,0,0,0,2,0,3,3,0,0,0-3-3Z"/><path class="cls-1" d="M8,30a1,1,0,0,0,1-1,1,1,0,0,1,1-1H21v1a1,1,0,0,0,2,0V25a1,1,0,0,0-2,0v1H10a3,3,0,0,0-3,3A1,1,0,0,0,8,30Z"/><path class="cls-1" d="M12,32H4a1,1,0,0,0-1,1V43a1,1,0,0,0,1,1h8a1,1,0,0,0,1-1V33A1,1,0,0,0,12,32ZM11,42H5V34h6Z"/><path class="cls-1" d="M26,32H18a1,1,0,0,0-1,1V43a1,1,0,0,0,1,1h8a1,1,0,0,0,1-1V33A1,1,0,0,0,26,32ZM25,42H19V34h6Z"/><path class="cls-1" d="M40,32H32a1,1,0,0,0-1,1V43a1,1,0,0,0,1,1h8a1,1,0,0,0,1-1V33A1,1,0,0,0,40,32ZM39,42H33V34h6Z"/></g></svg>