<svg id="lorry" xmlns="http://www.w3.org/2000/svg" viewBox="0 0 44 44"><defs><style>.cls-1{fill:#fff;}</style></defs><title>cws-icon-lorry</title><circle class="cls-1" cx="12" cy="33" r="1"/><circle class="cls-1" cx="35" cy="33" r="1"/><path class="cls-1" d="M42.8,22.6l-2.95-2.21L37,11.68A1,1,0,0,0,36,11H27a1,1,0,0,0-1,1V32H16.9a5,5,0,0,0-9.8,0H3a1,1,0,0,1-1-1V9A1,1,0,0,1,3,8H26a1,1,0,0,0,2,0V7a1,1,0,0,0-1-1H3A3,3,0,0,0,0,9V31a3,3,0,0,0,3,3H7.1a5,5,0,0,0,9.8,0H27a1,1,0,0,0,1-1V13h7.28l2.33,7h-2l.27-.55a1,1,0,0,0-1.78-.9L33.38,20H31a1,1,0,0,0,0,2h7.67l2.93,2.2a1,1,0,0,1,.4.8v6a1,1,0,0,1-1,1H39.9a5,5,0,1,0,0,2H41a3,3,0,0,0,3-3V25A3,3,0,0,0,42.8,22.6ZM12,36a3,3,0,1,1,3-3A3,3,0,0,1,12,36Zm23,0a3,3,0,1,1,3-3A3,3,0,0,1,35,36Z"/><path class="cls-1" d="M5,24a1,1,0,0,0,0,2H23a1,1,0,0,0,0-2Z"/></svg>