<svg xmlns="http://www.w3.org/2000/svg" viewBox="0 0 44 44"><defs><style>.cls-1{fill:#fff;}</style></defs><g id="chip"><circle class="cls-1" cx="11" cy="11" r="1"/><circle class="cls-1" cx="33" cy="11" r="1"/><circle class="cls-1" cx="11" cy="33" r="1"/><circle class="cls-1" cx="33" cy="33" r="1"/><path class="cls-1" d="M43,20a1,1,0,0,0,0-2H38V14h5a1,1,0,0,0,0-2H38V11a5,5,0,0,0-5-5H32V1a1,1,0,0,0-2,0V6H26V1a1,1,0,0,0-2,0V6H20V1a1,1,0,0,0-2,0V6H14V1a1,1,0,0,0-2,0V6H11a5,5,0,0,0-5,5v1H1a1,1,0,0,0,0,2H6v4H1a1,1,0,0,0,0,2H6v4H1a1,1,0,0,0,0,2H6v4H1a1,1,0,0,0,0,2H6v1a5,5,0,0,0,5,5h1v5a1,1,0,0,0,2,0V38h4v5a1,1,0,0,0,2,0V38h4v5a1,1,0,0,0,2,0V38h4v5a1,1,0,0,0,2,0V38h1a5,5,0,0,0,5-5V32h5a1,1,0,0,0,0-2H37a1,1,0,0,0-1,1v2a3,3,0,0,1-3,3H11a3,3,0,0,1-3-3V11a3,3,0,0,1,3-3H33a3,3,0,0,1,3,3V27a1,1,0,0,0,2,0V26h5a1,1,0,0,0,0-2H38V20Z"/><path class="cls-1" d="M15,14h6a1,1,0,0,0,0-2H15a3,3,0,0,0-3,3V29a3,3,0,0,0,3,3h4a1,1,0,0,0,1-1V21.82a3,3,0,1,0-2,0V30H15a1,1,0,0,1-1-1V15A1,1,0,0,1,15,14Zm4,4a1,1,0,1,1-1,1A1,1,0,0,1,19,18Z"/><path class="cls-1" d="M29,30H23a1,1,0,0,0,0,2h6a3,3,0,0,0,3-3V15a3,3,0,0,0-3-3H25a1,1,0,0,0-1,1v9.18a3,3,0,1,0,2,0V14h3a1,1,0,0,1,1,1V29A1,1,0,0,1,29,30Zm-4-4a1,1,0,1,1,1-1A1,1,0,0,1,25,26Z"/></g></svg>