<svg xmlns="http://www.w3.org/2000/svg" viewBox="0 0 44 44"><defs><style>.cls-1{fill:#fff;}</style></defs><title>cws-icon-box</title><g id="box"><path class="cls-1" d="M41,3H3A3,3,0,0,0,0,6V38a3,3,0,0,0,3,3H41a3,3,0,0,0,3-3V6A3,3,0,0,0,41,3ZM15,5H29v5.33l-1.6-1.2a2.34,2.34,0,0,0-2.8,0l-2.4,1.8a.33.33,0,0,1-.4,0l-2.4-1.8a2.34,2.34,0,0,0-2.8,0L15,10.33ZM42,38a1,1,0,0,1-1,1H3a1,1,0,0,1-1-1V6A1,1,0,0,1,3,5H13v6.53a1.38,1.38,0,0,0,.77,1.25,1.4,1.4,0,0,0,1.47-.13l2.56-1.92a.33.33,0,0,1,.4,0l2.4,1.8a2.32,2.32,0,0,0,2.8,0l2.4-1.8a.33.33,0,0,1,.4,0l2.56,1.92a1.4,1.4,0,0,0,1.47.13A1.38,1.38,0,0,0,31,11.53V5H41a1,1,0,0,1,1,1Z"/><path class="cls-1" d="M29,25H15a1,1,0,0,0,0,2H29a1,1,0,0,0,0-2Z"/><path class="cls-1" d="M16.71,19.71l.29-.3V23a1,1,0,0,0,2,0V19.41l.29.3a1,1,0,0,0,1.42,0,1,1,0,0,0,0-1.42l-2-2a1,1,0,0,0-1.42,0l-2,2a1,1,0,0,0,1.42,1.42Z"/><path class="cls-1" d="M24.71,19.71l.29-.3V23a1,1,0,0,0,2,0V19.41l.29.3a1,1,0,0,0,1.42,0,1,1,0,0,0,0-1.42l-2-2a1,1,0,0,0-1.42,0l-2,2a1,1,0,0,0,1.42,1.42Z"/><path class="cls-1" d="M16,31H6a1,1,0,0,0,0,2H16a1,1,0,0,0,0-2Z"/><path class="cls-1" d="M13,35H6a1,1,0,0,0,0,2h7a1,1,0,0,0,0-2Z"/></g></svg>