<svg xmlns="http://www.w3.org/2000/svg" viewBox="0 0 44 44"><defs><style>.cls-1{fill:#fff;}</style></defs><g id="skeleton"><path class="cls-1" d="M29,28V26a1,1,0,0,0-.41-.81A6.07,6.07,0,0,0,22,24.81a6.07,6.07,0,0,0-6.59.38A1,1,0,0,0,15,26v2a1,1,0,0,0,.68.95l6,2a1,1,0,0,0,.64,0l6-2A1,1,0,0,0,29,28Zm-2-.72L22,29l-5-1.67v-.74a4.07,4.07,0,0,1,4.38.24,1,1,0,0,0,1.21,0A4,4,0,0,1,27,26.54Z"/><path class="cls-1" d="M34.29,17.71a1,1,0,0,0,1.42,0,1,1,0,0,0,0-1.42l-5-5a1,1,0,0,0-1.42,1.42Z"/><path class="cls-1" d="M9,18a1,1,0,0,0,.71-.29l5-5a1,1,0,0,0-1.42-1.42l-5,5a1,1,0,0,0,0,1.42A1,1,0,0,0,9,18Z"/><path class="cls-1" d="M17,18h4v2H18a1,1,0,0,0,0,2h3a1,1,0,0,0,2,0h3a1,1,0,0,0,0-2H23V18h4a1,1,0,0,0,0-2H23V14h3a1,1,0,0,0,0-2H23V10.85c2.32-.69,4-3.7,4-6.33C27,1.73,25.08,0,22,0s-5,1.73-5,4.52c0,2.63,1.68,5.64,4,6.33V12H18a1,1,0,0,0,0,2h3v2H17a1,1,0,0,0,0,2ZM19,4.52C19,2.44,20.63,2,22,2s3,.44,3,2.52S23.43,9,22,9,19,6.66,19,4.52Z"/><path class="cls-1" d="M19,35.5H18V32a1,1,0,0,0-2,0v3.5H15a1,1,0,0,0,0,2h1V41a1,1,0,0,1-1,1H13a1,1,0,0,0,0,2h2a3,3,0,0,0,3-3V37.5h1a1,1,0,0,0,0-2Z"/><path class="cls-1" d="M31,42H29a1,1,0,0,1-1-1V37.5h1a1,1,0,0,0,0-2H28V32a1,1,0,0,0-2,0v3.5H25a1,1,0,0,0,0,2h1V41a3,3,0,0,0,3,3h2a1,1,0,0,0,0-2Z"/><path class="cls-1" d="M36,20H34a1,1,0,0,0,0,2v6a1,1,0,0,0,2,0V22a1,1,0,0,0,0-2Z"/><path class="cls-1" d="M10,20H8a1,1,0,0,0,0,2v6a1,1,0,0,0,2,0V22a1,1,0,0,0,0-2Z"/></g></svg>