<svg xmlns="http://www.w3.org/2000/svg" viewBox="0 0 64 56"><defs><style>.cls-1{fill:#fff;}</style></defs><g id="boots"><path class="cls-1" d="M53.22,23.74l-.46-2.3v-1.9a1,1,0,0,0-2,0v1.12a17.53,17.53,0,0,1-10-1.73h0V17.54a1,1,0,0,0-2,0v1.59L34.3,23.59a15.16,15.16,0,0,1-7.24,4L15.39,30.41a7.31,7.31,0,0,0-5.63,7.13v2a3,3,0,0,0,3,3H29.92a41.78,41.78,0,0,0,5.8-.41l3.05-.44a1,1,0,0,0,1,.85h10a3,3,0,0,0,3-3v-3a1,1,0,0,0-1-1H39.62l-4.19.6a39.05,39.05,0,0,1-5.51.39H19.76v-5s0-.07,0-.11L25,30.18a1.35,1.35,0,0,0,.32.26L28,31.79a4.19,4.19,0,0,0,3.48.1,24.1,24.1,0,0,0,9.77-7.68,1,1,0,0,0-1.6-1.2,22.11,22.11,0,0,1-8.95,7,2.14,2.14,0,0,1-1.8-.05l-1-.52A17.21,17.21,0,0,0,35.72,25L40,20.76a19.51,19.51,0,0,0,11,1.9l.29,1.47a26.1,26.1,0,0,1,.5,5.07,26.64,26.64,0,0,1-.2,3.22,1,1,0,1,0,2,.25,28.85,28.85,0,0,0,.21-3.47A27.77,27.77,0,0,0,53.22,23.74ZM17.76,36.54h-3a1,1,0,1,0,0,2H29.92a41.78,41.78,0,0,0,5.8-.41l4.11-.59H50.76v2a1,1,0,0,1-1,1h-9a1,1,0,0,0-.34-.75,1,1,0,0,0-.8-.24l-4.19.6a39.05,39.05,0,0,1-5.51.39H12.76a1,1,0,0,1-1-1v-2a5.31,5.31,0,0,1,4.1-5.18l1.9-.46Z"/></g></svg>