<svg xmlns="http://www.w3.org/2000/svg" viewBox="0 0 44 44"><defs><style>.cls-1{fill:#fff;}</style></defs><g id="network"><path class="cls-1" d="M38.1,8h0a1,1,0,1,0-1-1A1,1,0,0,0,38.13,8Z"/><circle class="cls-1" cx="30.05" cy="7" r="1"/><circle class="cls-1" cx="42" cy="12.92" r="1"/><path class="cls-1" d="M41.45,10A.94.94,0,0,0,42,9.84a1,1,0,1,0-.51.14Z"/><circle class="cls-1" cx="34.09" cy="7" r="1"/><circle class="cls-1" cx="42" cy="16.96" r="1"/><circle class="cls-1" cx="26" cy="7" r="1"/><circle class="cls-1" cx="42" cy="21" r="1"/><circle class="cls-1" cx="2" cy="25.82" r="1"/><circle class="cls-1" cx="2" cy="21.91" r="1"/><path class="cls-1" d="M1.88,28.74a1,1,0,0,0,.18,2h.18a1,1,0,1,0-.36-2Z"/><circle class="cls-1" cx="12.17" cy="33" r="1"/><circle class="cls-1" cx="8.26" cy="33" r="1"/><path class="cls-1" d="M4.8,31.75A1,1,0,1,0,4,33.58a.93.93,0,0,0,.4.09,1,1,0,0,0,.4-1.92Z"/><circle class="cls-1" cx="16.08" cy="33" r="1"/><circle class="cls-1" cx="20" cy="33" r="1"/><circle class="cls-1" cx="2" cy="18" r="1"/><path class="cls-1" d="M40,24H26a3,3,0,0,0-3,3V37a3,3,0,0,0,3,3h6v2H30a1,1,0,0,0,0,2h6a1,1,0,0,0,0-2H34V39a1,1,0,0,0-1-1H26a1,1,0,0,1-1-1V36H41v1a1,1,0,0,1-1,1H37a1,1,0,0,0,0,2h3a3,3,0,0,0,3-3V27A3,3,0,0,0,40,24Zm1,10H25V27a1,1,0,0,1,1-1H40a1,1,0,0,1,1,1Z"/><path class="cls-1" d="M20.5,4.67a4.85,4.85,0,0,0-3.15-.62A7,7,0,0,0,11,0,6.8,6.8,0,0,0,8.67.4a1,1,0,0,0-.61,1.28,1,1,0,0,0,1.27.6A5.27,5.27,0,0,1,11,2a5,5,0,0,1,4.74,3.43A4.88,4.88,0,0,1,16,7a5.27,5.27,0,0,1-.28,1.67,1,1,0,0,0,.61,1.27,1,1,0,0,0,.33.06,1,1,0,0,0,.94-.67A6.8,6.8,0,0,0,18,7a8.26,8.26,0,0,0-.08-1,2.78,2.78,0,0,1,1.58.39A3,3,0,0,1,18,12H6a3,3,0,0,1-.58-5.94L6.05,6A3,3,0,0,1,8.6,7.5a1,1,0,0,0,1.73-1A5,5,0,0,0,6,4H5.9l-.74.08A5,5,0,0,0,6,14H18a5,5,0,0,0,2.5-9.33Z"/></g></svg>