<svg xmlns="http://www.w3.org/2000/svg" viewBox="0 0 44 44"><defs><style>.cls-1{fill:#fff;}</style></defs><title>cws-cloud-clock</title><g id="cloud_lock"><path class="cls-1" d="M11,28H9a7,7,0,0,1-.72-14,1,1,0,0,0,.89-.82A10,10,0,0,1,25.36,7.29a1,1,0,0,0,1.41-.13,1,1,0,0,0-.13-1.41,12,12,0,0,0-19.29,6.4A9,9,0,0,0,9,30h2a1,1,0,0,0,0-2Z"/><path class="cls-1" d="M27,27V26h0a5,5,0,0,0-10,0h0v1a3,3,0,0,0-3,3v8a3,3,0,0,0,3,3H27a3,3,0,0,0,3-3V30A3,3,0,0,0,27,27Zm-8-1h0a3,3,0,0,1,6,0h0v1H19V26Zm9,12a1,1,0,0,1-1,1H17a1,1,0,0,1-1-1V30a1,1,0,0,1,1-1H27a1,1,0,0,1,1,1Z"/><path class="cls-1" d="M22,32a1,1,0,0,0-1,1v2a1,1,0,0,0,2,0V33A1,1,0,0,0,22,32Z"/><path class="cls-1" d="M19,9a1,1,0,0,0,0-2,8,8,0,0,0-8,8,1,1,0,0,0,2,0A6,6,0,0,1,19,9Z"/><path class="cls-1" d="M38,21a1,1,0,0,0,2,0,5,5,0,0,0-5-5,1,1,0,0,0,0,2A3,3,0,0,1,38,21Z"/><path class="cls-1" d="M38,12.52A6,6,0,0,0,26,13a1,1,0,0,0,2,0,4,4,0,0,1,8,0,1.49,1.49,0,0,0,0,.21,1,1,0,0,0,.75,1A7,7,0,0,1,35,28H33a1,1,0,0,0,0,2h2a9,9,0,0,0,3-17.48Z"/></g></svg>