<svg xmlns="http://www.w3.org/2000/svg" viewBox="0 0 44 44"><defs><style>.cls-1{fill:#fff;}</style></defs><title>cws-icon-network</title><g id="network"><path class="cls-1" d="M22,31a6,6,0,1,0,6,6A6,6,0,0,0,22,31Zm0,10a4,4,0,1,1,4-4A4,4,0,0,1,22,41Z"/><path class="cls-1" d="M38,31a6,6,0,1,0,6,6A6,6,0,0,0,38,31Zm0,10a4,4,0,1,1,4-4A4,4,0,0,1,38,41Z"/><path class="cls-1" d="M6,31a6,6,0,1,0,6,6A6,6,0,0,0,6,31ZM6,41a4,4,0,1,1,4-4A4,4,0,0,1,6,41Z"/><path class="cls-1" d="M16,11H28a3,3,0,0,0,3-3V4a3,3,0,0,0-3-3H16a3,3,0,0,0-3,3V8A3,3,0,0,0,16,11ZM15,4a1,1,0,0,1,1-1H28a1,1,0,0,1,1,1V8a1,1,0,0,1-1,1H16a1,1,0,0,1-1-1Z"/><path class="cls-1" d="M5,29a1,1,0,0,0,1-1V23a1,1,0,0,1,1-1H21v6a1,1,0,0,0,2,0V22H37a1,1,0,0,1,1,1v5a1,1,0,0,0,2,0V23a3,3,0,0,0-3-3H23V14a1,1,0,0,0-2,0v6H7a3,3,0,0,0-3,3v5A1,1,0,0,0,5,29Z"/></g></svg>