<svg xmlns="http://www.w3.org/2000/svg" viewBox="0 0 44 44"><defs><style>.cls-1{fill:#fff;}</style></defs><title>cws-icon-computer</title><g id="computer"><path class="cls-1" d="M34,40H27.82A3,3,0,0,0,25,38H23V35a1,1,0,0,0-2,0v3H19a3,3,0,0,0-2.82,2H10a1,1,0,0,0,0,2h6.18A3,3,0,0,0,19,44h6a3,3,0,0,0,2.82-2H34a1,1,0,0,0,0-2Zm-9,2H19a1,1,0,0,1,0-2h6a1,1,0,0,1,0,2Z"/><circle class="cls-1" cx="22" cy="23" r="1"/><path class="cls-1" d="M38,0H6A3,3,0,0,0,3,3V24a3,3,0,0,0,3,3h9a1,1,0,0,0,0-2H6a1,1,0,0,1-1-1V3A1,1,0,0,1,6,2H38a1,1,0,0,1,1,1V24a1,1,0,0,1-1,1H19a1,1,0,0,0-1,1v4H17a1,1,0,0,0,0,2H27a1,1,0,0,0,0-2H26V27H38a3,3,0,0,0,3-3V3A3,3,0,0,0,38,0ZM24,30H20V27h4Z"/><path class="cls-1" d="M37,20a1,1,0,0,0-1-1H8a1,1,0,0,0,0,2H36A1,1,0,0,0,37,20Z"/></g></svg>