<svg xmlns="http://www.w3.org/2000/svg" viewBox="0 0 44 44"><defs><style>.cls-1{fill:#fff;}</style></defs><title>cws-icon-education</title><g id="education"><path class="cls-1" d="M42,7.17a1,1,0,0,0-.26-.88l-3-3a1,1,0,0,0-1.42,0l-7,7A1,1,0,0,0,30,11v3a1,1,0,0,0,1,1h3a1,1,0,0,0,.71-.29L40.41,9H41a1,1,0,0,1,1,1V34a1,1,0,0,1-1,1H3a1,1,0,0,1-1-1V10A1,1,0,0,1,3,9H28a1,1,0,0,0,0-2H3a3,3,0,0,0-3,3V34a3,3,0,0,0,3,3H41a3,3,0,0,0,3-3V10A3,3,0,0,0,42,7.17ZM33.59,13H32V11.41l6-6L39.59,7l-.3.29h0Z"/><path class="cls-1" d="M8,19a1,1,0,0,0,0-2H5a1,1,0,0,0-1,1v8a1,1,0,0,0,1,1H8a1,1,0,0,0,0-2H6V23H8a1,1,0,0,0,0-2H6V19Z"/><path class="cls-1" d="M15,19H12a1,1,0,0,0,0,2h3a1,1,0,0,0,0-2Z"/><path class="cls-1" d="M15,23H12a1,1,0,0,0,0,2h3a1,1,0,0,0,0-2Z"/><path class="cls-1" d="M31,19a1,1,0,0,1,1,1,1,1,0,0,0,2,0,3,3,0,0,0-6,0v4a3,3,0,0,0,6,0,1,1,0,0,0-2,0,1,1,0,0,1-2,0V20A1,1,0,0,1,31,19Z"/><path class="cls-1" d="M25,27a1,1,0,0,0,1-1V18a1,1,0,0,0-.62-.92,1,1,0,0,0-1.09.21L22,19.59l-2.29-2.3a1,1,0,0,0-1.09-.21A1,1,0,0,0,18,18v8a1,1,0,0,0,2,0V20.41l1.29,1.3a1,1,0,0,0,1.42,0L24,20.41V26A1,1,0,0,0,25,27Z"/><path class="cls-1" d="M39.79,17.11A2,2,0,0,0,38,16H37a1,1,0,0,0,0,2h1l-1.8,2.4a1,1,0,0,0-.09,1.05A1,1,0,0,0,37,22h2a1,1,0,0,0,0-2h0l.6-.8A2,2,0,0,0,39.79,17.11Z"/><path class="cls-1" d="M43,39H1a1,1,0,0,0,0,2H43a1,1,0,0,0,0-2Z"/></g></svg>