<svg xmlns="http://www.w3.org/2000/svg" viewBox="0 0 44 44"><defs><style>.cls-1{fill:#fff;}</style></defs><title>cws-icon-sofa</title><g id="sofa"><circle class="cls-1" cx="12" cy="12" r="1"/><circle class="cls-1" cx="16" cy="12" r="1"/><circle class="cls-1" cx="12" cy="16" r="1"/><circle class="cls-1" cx="16" cy="16" r="1"/><circle class="cls-1" cx="28" cy="12" r="1"/><circle class="cls-1" cx="32" cy="12" r="1"/><circle class="cls-1" cx="28" cy="16" r="1"/><circle class="cls-1" cx="32" cy="16" r="1"/><path class="cls-1" d="M36,24H8a3,3,0,0,0-3,3v4a1,1,0,0,0,1,1H38a1,1,0,0,0,1-1V27A3,3,0,0,0,36,24Zm1,6H7V27a1,1,0,0,1,1-1H36a1,1,0,0,1,1,1Z"/><path class="cls-1" d="M41,15H39V8a3,3,0,0,0-3-3H24a3,3,0,0,0-2,.78A3,3,0,0,0,20,5H8A3,3,0,0,0,5,8v7H3a3,3,0,0,0-3,3V35a3,3,0,0,0,3,3H5a1,1,0,0,0,1,1h4a1,1,0,0,0,1-1H33a1,1,0,0,0,1,1h4a1,1,0,0,0,1-1h2a3,3,0,0,0,3-3V18A3,3,0,0,0,41,15Zm1,20a1,1,0,0,1-1,1H3a1,1,0,0,1-1-1V18a1,1,0,0,1,1-1H6a1,1,0,0,1,1,1v3a1,1,0,0,0,2,0V18a3,3,0,0,0-2-2.83A.53.53,0,0,0,7,15V8A1,1,0,0,1,8,7H20a1,1,0,0,1,1,1V21a1,1,0,0,0,2,0V8a1,1,0,0,1,1-1H36a1,1,0,0,1,1,1v7a.53.53,0,0,0,0,.17A3,3,0,0,0,35,18v3a1,1,0,0,0,2,0V18a1,1,0,0,1,1-1h3a1,1,0,0,1,1,1Z"/></g></svg>