<svg xmlns="http://www.w3.org/2000/svg" viewBox="0 0 44 44"><defs><style>.cls-1{fill:#fff;}</style></defs><g id="squirrel"><path class="cls-1" d="M33.21,13.25a1,1,0,1,0-.6-1.9,1,1,0,0,0,.6,1.9Z"/><path class="cls-1" d="M34.71,6.28c-.05,0-.39-.29-.39-.29h0a6.55,6.55,0,0,0-1.42-.78,9.17,9.17,0,0,0-.9-2.9,2.18,2.18,0,0,0-4,0,9.3,9.3,0,0,0-1,3.5,7.42,7.42,0,0,0-2.8,3.87,5.11,5.11,0,0,1-2.69,3A1,1,0,0,0,21.11,14a1,1,0,0,0,1.35.42,7.07,7.07,0,0,0,3.67-4.12,5.27,5.27,0,0,1,2.35-3A1,1,0,0,0,29,6.42a7.47,7.47,0,0,1,.78-3.19c.17-.34.27-.33.44,0A7.23,7.23,0,0,1,31,6a1,1,0,0,0,.73.89,4.68,4.68,0,0,1,1.46.7l.29.22a12.33,12.33,0,0,1,4.5,8,11,11,0,0,1-8.86.08l-.08,0a1,1,0,0,0-1.35.44,1,1,0,0,0,.48,1.37,13.46,13.46,0,0,0,5.38,1.11,11.67,11.67,0,0,0,6-1.53,1,1,0,0,0,.49-.88A14,14,0,0,0,34.71,6.28Z"/><path class="cls-1" d="M36,38H31.17a10,10,0,0,0-2.63-11.55l3.26.41a2.21,2.21,0,0,1,1.26.61l1.23,1.24A1,1,0,0,0,35,29a.84.84,0,0,0,.38-.08A1,1,0,0,0,36,28V24.94a3.3,3.3,0,0,0-2.75-3.25l-2.58-.42a3.05,3.05,0,0,1-1.85-1.09,1,1,0,0,0-1.4-.16,1,1,0,0,0-.16,1.41,5,5,0,0,0,3.09,1.81l2.57.43A1.29,1.29,0,0,1,34,24.94v.71a4.17,4.17,0,0,0-2-.78l-5.56-.69a3,3,0,0,1-1.75-.86l-4-4a1,1,0,0,0-1.42,1.42L22.62,24c-.21,0-.41,0-.62,0a10.05,10.05,0,0,0-6.29,2.22A1,1,0,0,0,17,27.78,7.89,7.89,0,0,1,22,26a8,8,0,0,1,6.65,12.44,1,1,0,0,0,0,1,1,1,0,0,0,.88.53H36a1,1,0,0,1,0,2H19a13,13,0,0,1-7.28-23.78l8.14-5.38A7,7,0,1,0,9,7a3,3,0,0,0,6,0,1,1,0,0,1,2,0,1,1,0,0,0,2,0,3,3,0,0,0-6,0,1,1,0,0,1-2,0,5,5,0,1,1,7.75,4.17l-8.14,5.39A15,15,0,0,0,19,44H36a3,3,0,0,0,0-6Z"/></g></svg>