<svg xmlns="http://www.w3.org/2000/svg" viewBox="0 0 44 44"><defs><style>.cls-1{fill:#fff;}</style></defs><g id="laptop"><path class="cls-1" d="M43,31H10a1,1,0,0,0,0,2H42v1a1,1,0,0,1-1,1H3a1,1,0,0,1-1-1V33H6a1,1,0,0,0,1-1V10A1,1,0,0,1,8,9H36a1,1,0,0,1,1,1V28a1,1,0,0,0,2,0V10a3,3,0,0,0-3-3H8a3,3,0,0,0-3,3V31H1a1,1,0,0,0-1,1v2a3,3,0,0,0,3,3H41a3,3,0,0,0,3-3V32A1,1,0,0,0,43,31Z"/><path class="cls-1" d="M10,11a1,1,0,0,0-1,1V28a1,1,0,0,0,1,1H34a1,1,0,0,0,1-1V12a1,1,0,0,0-1-1ZM33,27H11V13H33Z"/></g></svg>