<svg xmlns="http://www.w3.org/2000/svg" viewBox="0 0 44 44"><defs><style>.cls-1{fill:#fff;}</style></defs><g id="capitol"><path class="cls-1" d="M6,29a1,1,0,1,0-1-1A1,1,0,0,0,6,29Z"/><path class="cls-1" d="M42,23H33V17a1,1,0,0,0-1-1H15V15h6a1,1,0,0,0,0-2H15.08A7,7,0,0,1,29,13.12a1,1,0,0,0,2-.24,9,9,0,0,0-7-7.66A.79.79,0,0,0,24,5a1,1,0,0,0-1-1V1a1,1,0,0,0-2,0V4a1,1,0,0,0-1,1,1.43,1.43,0,0,0,0,.22A9,9,0,0,0,13,14v2H12a1,1,0,0,0-1,1v6H2a1,1,0,0,0-1,1V39a1,1,0,0,0,1,1H6a1,1,0,0,0,0-2H3V25H9V39a1,1,0,0,0,1,1H34a1,1,0,0,0,1-1V25h6V38H38a1,1,0,0,0,0,2h4a1,1,0,0,0,1-1V24A1,1,0,0,0,42,23ZM31,23H29V18h2Zm-6,0V18h2v5Zm-4,0V18h2v5Zm-4,0V18h2v5Zm-4-5h2v5H13ZM33,38H29V28a1,1,0,0,0-2,0V38H25V28a1,1,0,0,0-2,0V38H21V28a1,1,0,0,0-2,0V38H17V28a1,1,0,0,0-2,0V38H11V25H33Z"/><path class="cls-1" d="M42,42H2a1,1,0,0,0,0,2H42a1,1,0,0,0,0-2Z"/><path class="cls-1" d="M6,36a1,1,0,0,0,1-1V32a1,1,0,0,0-2,0v3A1,1,0,0,0,6,36Z"/><path class="cls-1" d="M38,27a1,1,0,1,0,1,1A1,1,0,0,0,38,27Z"/><path class="cls-1" d="M37,32v3a1,1,0,0,0,2,0V32a1,1,0,0,0-2,0Z"/></g></svg>