<svg xmlns="http://www.w3.org/2000/svg" viewBox="0 0 44 44"><defs><style>.cls-1{fill:#fff;}</style></defs><title>cws-mobile-marketing</title><g id="mobile_marketing"><circle class="cls-1" cx="16" cy="39" r="1"/><circle class="cls-1" cx="21" cy="39" r="1"/><circle class="cls-1" cx="11" cy="39" r="1"/><path class="cls-1" d="M18,6a1,1,0,0,0,0-2H14a1,1,0,0,0,0,2Z"/><path class="cls-1" d="M28,32a1,1,0,0,0-1,1v2H8a1,1,0,0,0,0,2H27v2a3,3,0,0,1-3,3H8a3,3,0,0,1-3-3V5A3,3,0,0,1,8,2H24a3,3,0,0,1,3,3V8H8a1,1,0,0,0,0,2H28a1,1,0,0,0,1-1V5a5,5,0,0,0-5-5H8A5,5,0,0,0,3,5V39a5,5,0,0,0,5,5H24a5,5,0,0,0,5-5V33A1,1,0,0,0,28,32Z"/><path class="cls-1" d="M37.09,17H37V9a1,1,0,0,0-1-1h-.4a6.08,6.08,0,0,0-4.93,2.54A10.67,10.67,0,0,1,22,15H12a3,3,0,0,0-3,3,1,1,0,0,0-1,1v4a1,1,0,0,0,1,1,3,3,0,0,0,3,3h1v5a1,1,0,0,0,2,0V27h2v5a1,1,0,0,0,2,0V28.72A2,2,0,0,0,20,27h2a1,1,0,0,0,1-1V20a1,1,0,0,0-2,0v5H12a1,1,0,0,1-1-1V18a1,1,0,0,1,1-1H22a12.68,12.68,0,0,0,10.3-5.3A4.09,4.09,0,0,1,35,10V32a4.09,4.09,0,0,1-2.7-1.66,12.64,12.64,0,0,0-6-4.53,1,1,0,0,0-.68,1.88,10.64,10.64,0,0,1,5,3.81A6.08,6.08,0,0,0,35.6,34H36a1,1,0,0,0,1-1V25h.09A4.14,4.14,0,0,0,41,21,4.14,4.14,0,0,0,37.09,17ZM37,23V19a2.16,2.16,0,0,1,2,2A2.16,2.16,0,0,1,37,23Z"/></g></svg>