<svg xmlns="http://www.w3.org/2000/svg" viewBox="0 0 44 44"><defs><style>.cls-1{fill:#fff;}</style></defs><g id="pig"><circle class="cls-1" cx="33" cy="19" r="1"/><path class="cls-1" d="M10.21,31.19a15.86,15.86,0,0,0,3.76-7A1,1,0,0,0,12,23.76a13.88,13.88,0,0,1-3.65,6.45l-.09.08a1,1,0,0,0-.18,1.16l1.82,3.66a.52.52,0,0,1,.07.27.62.62,0,0,1-.62.62H8.32a1,1,0,0,1-.92-.61L5,29.79V23a1,1,0,0,0-2,0v7a1,1,0,0,0,.08.39l2.48,5.79A3,3,0,0,0,8.32,38H9.38A2.62,2.62,0,0,0,12,35.38a2.65,2.65,0,0,0-.28-1.17Z"/><path class="cls-1" d="M25.81,15l-1.26-.83a1,1,0,0,0-1.1,1.66l1.25.84a4.63,4.63,0,0,0,2.56.77A4.57,4.57,0,0,0,29.33,17l2.12-1.06a1,1,0,0,0,.54-.73,1,1,0,0,0-.28-.87l-1.9-1.89A4.75,4.75,0,0,0,26.43,11H26a1,1,0,0,0,0,2h.43a2.77,2.77,0,0,1,2,.81l.91.92-.88.44A2.62,2.62,0,0,1,25.81,15Z"/><path class="cls-1" d="M43.2,20l-.55-.11a8.22,8.22,0,0,1-5.79-4.42l-.81-1.63a12.64,12.64,0,0,0-2.81-3.69l.8-.79A4.67,4.67,0,0,1,37.36,8H38a2.63,2.63,0,0,1-1.44,2.11,1,1,0,0,0-.44,1.34A1,1,0,0,0,37,12a.93.93,0,0,0,.45-.11A4.59,4.59,0,0,0,40,7.76V7a1,1,0,0,0-1-1H37.36a6.69,6.69,0,0,0-4.74,2l-1,1A11.91,11.91,0,0,0,25.18,7H13A10,10,0,0,0,3,17v1a.5.5,0,0,1-1,0,1,1,0,0,0-2,0,2.5,2.5,0,0,0,5,0V17a8,8,0,0,1,8-8H25.18a9.92,9.92,0,0,1,6.18,2.17,10.71,10.71,0,0,1,2.9,3.58l.81,1.63A10.26,10.26,0,0,0,42,21.82v4.54a1,1,0,0,1-.8,1L34.41,28.7A3,3,0,0,0,32,31.64V35a1,1,0,0,1-1,1h-.44a1,1,0,0,1-1-.76l-1-4a3,3,0,0,0-1.57-2,2.9,2.9,0,0,0-2.41-.11,13,13,0,0,1-9.38-.07,1,1,0,1,0-.78,1.84,14.82,14.82,0,0,0,10.9.08.93.93,0,0,1,.76,0,1.05,1.05,0,0,1,.54.68l1,4A3,3,0,0,0,30.56,38H31a3,3,0,0,0,3-3V31.64a1,1,0,0,1,.8-1l6.79-1.36A3,3,0,0,0,44,26.36V21A1,1,0,0,0,43.2,20Z"/></g></svg>