<svg xmlns="http://www.w3.org/2000/svg" viewBox="0 0 44 44"><defs><style>.cls-1{fill:#fff;}</style></defs><title>cws-icon-server-repair</title><g id="folder-2" data-name="folder"><circle class="cls-1" cx="6" cy="6" r="1"/><circle class="cls-1" cx="10" cy="6" r="1"/><path class="cls-1" d="M25,40h-.18A3,3,0,0,0,22,38H20V35a1,1,0,0,0-2,0v3H16a3,3,0,0,0-2.82,2H7a1,1,0,0,0,0,2h6.18A3,3,0,0,0,16,44h6a3,3,0,0,0,2.82-2H25a1,1,0,0,0,0-2Zm-3,2H16a1,1,0,0,1,0-2h6a1,1,0,0,1,0,2Z"/><path class="cls-1" d="M18,5a1,1,0,0,0,0,2H32a1,1,0,0,0,0-2Z"/><circle class="cls-1" cx="6" cy="26" r="1"/><circle class="cls-1" cx="10" cy="26" r="1"/><path class="cls-1" d="M18,25a1,1,0,0,0,0,2H28a1,1,0,0,0,0-2Z"/><circle class="cls-1" cx="6" cy="16" r="1"/><circle class="cls-1" cx="10" cy="16" r="1"/><path class="cls-1" d="M32,17a1,1,0,0,0,0-2H18a1,1,0,0,0,0,2Z"/><path class="cls-1" d="M24,31a1,1,0,0,0-1-1H3a1,1,0,0,1-1-1V22H36v4a1,1,0,0,0,2,0V11a1,1,0,0,0-1-1H2V3A1,1,0,0,1,3,2H35a1,1,0,0,1,1,1V7a1,1,0,0,0,2,0V3a3,3,0,0,0-3-3H3A3,3,0,0,0,0,3v8H0v6a1,1,0,0,0,2,0V12H36v8H1a1,1,0,0,0-1,1v8a3,3,0,0,0,3,3H23A1,1,0,0,0,24,31Z"/><path class="cls-1" d="M39.51,35.63a3.17,3.17,0,0,0,2.23-.92h0l2-2a1,1,0,1,0-1.42-1.4l-2,2h0a1.13,1.13,0,0,1-1.61,0,1.12,1.12,0,0,1,0-1.61l2-2a1,1,0,0,0-1.4-1.42l-2,2h0a3.11,3.11,0,0,0-.58,3.62l-1.3,1.3a2.64,2.64,0,0,0-1-.15l-2-2,1.3-1.29a1,1,0,0,0,0-1.42l-2-2a1,1,0,0,0-1.42,0l-4,4a1,1,0,0,0-.24,1l1,3a1,1,0,0,0,.72.65A.91.91,0,0,0,28,37a1,1,0,0,0,.71-.29L31,34.41,32.56,36l-3.84,3.85a2.44,2.44,0,0,0,0,3.46,2.44,2.44,0,0,0,3.46,0L36,39.44l4.26,4.27a1,1,0,0,0,1.42,0,1,1,0,0,0,0-1.42L37,37.57s0-.08,0-.12a2.53,2.53,0,0,0-.16-.87l1.29-1.29A3.19,3.19,0,0,0,39.51,35.63ZM28.44,34.15l-.3-.88L31,30.41l.59.59-1.3,1.29h0Zm6.43,3.62-4.1,4.1a.46.46,0,0,1-.64,0h0a.46.46,0,0,1,0-.64l4.1-4.1a.45.45,0,0,1,.64.64Z"/></g></svg>