<svg xmlns="http://www.w3.org/2000/svg" viewBox="0 0 44 44"><defs><style>.cls-1{fill:#fff;}</style></defs><title>cws-icon-wallet</title><g id="wallet"><circle class="cls-1" cx="22" cy="11" r="1"/><circle class="cls-1" cx="26" cy="11" r="1"/><circle class="cls-1" cx="30" cy="11" r="1"/><circle class="cls-1" cx="14" cy="11" r="1"/><circle class="cls-1" cx="18" cy="11" r="1"/><path class="cls-1" d="M22,36a1,1,0,0,0,1-1V34a3,3,0,0,0,2.85-4,3.06,3.06,0,0,0-3-2H21a1,1,0,0,1,0-2h3a1,1,0,0,0,0-2H23V23a1,1,0,0,0-2,0v1a3,3,0,0,0-2.85,4,3.06,3.06,0,0,0,3,2H23a1,1,0,0,1,0,2H20a1,1,0,0,0,0,2h1v1A1,1,0,0,0,22,36Z"/><path class="cls-1" d="M6,12a1,1,0,0,0,1-1V10A2,2,0,0,1,9,8H35a2,2,0,0,1,2,2v1a1,1,0,0,0,2,0V10a4,4,0,0,0-4-4H26.44A3.91,3.91,0,0,0,27,4a4,4,0,0,0-8,0,3.91,3.91,0,0,0,.56,2H18a2,2,0,0,1,0-4,1,1,0,0,0,0-2,4,4,0,0,0-4,4,3.91,3.91,0,0,0,.56,2H9a4,4,0,0,0-4,4v1A1,1,0,0,0,6,12ZM21,4a2,2,0,1,1,2,2A2,2,0,0,1,21,4Z"/><path class="cls-1" d="M40.17,31.61,35.7,19.69a11.09,11.09,0,0,1-.7-3.87V11a1,1,0,0,0-2,0v4.82a13,13,0,0,0,.83,4.57L38.3,32.31a11.09,11.09,0,0,1,.7,3.87V40a2,2,0,0,1-2,2H7a2,2,0,0,1-2-2V36.18a11.09,11.09,0,0,1,.7-3.87l4.47-11.92A13,13,0,0,0,11,15.82V11a1,1,0,0,0-2,0v4.82a11.09,11.09,0,0,1-.7,3.87L3.83,31.61A13,13,0,0,0,3,36.18V40a4,4,0,0,0,4,4H37a4,4,0,0,0,4-4V36.18A13,13,0,0,0,40.17,31.61Z"/><path class="cls-1" d="M9.47,34l4.46-11.61a1,1,0,0,0-1.86-.72L7.6,33.25A9,9,0,0,0,7,36.49V39a1,1,0,0,0,1,1h5a1,1,0,0,0,0-2H9V36.49A7,7,0,0,1,9.47,34Z"/></g></svg>