<svg xmlns="http://www.w3.org/2000/svg" viewBox="0 0 44 44"><defs><style>.cls-1{fill:#fff;}</style></defs><g id="tablet"><circle class="cls-1" cx="22" cy="39" r="2"/><circle class="cls-1" cx="22" cy="5" r="1"/><path class="cls-1" d="M33,0H11A5,5,0,0,0,6,5V9a1,1,0,0,0,1,1H33a1,1,0,0,0,0-2H8V5a3,3,0,0,1,3-3H33a3,3,0,0,1,3,3V31a1,1,0,0,0,2,0V5A5,5,0,0,0,33,0Z"/><path class="cls-1" d="M37,34H11a1,1,0,0,0,0,2H36v3a3,3,0,0,1-3,3H11a3,3,0,0,1-3-3V13a1,1,0,0,0-2,0V39a5,5,0,0,0,5,5H33a5,5,0,0,0,5-5V35A1,1,0,0,0,37,34Z"/></g></svg>