<svg xmlns="http://www.w3.org/2000/svg" viewBox="0 0 44 44"><defs><style>.cls-1{fill:#fff;}</style></defs><title>cws-icon-home-key</title><g id="home_key"><path class="cls-1" d="M19,23H9a1,1,0,0,0-1,1V41H6V18a1,1,0,0,0-2,0V42a1,1,0,0,0,1,1H19a1,1,0,0,0,1-1V24A1,1,0,0,0,19,23Zm-9,2h8V41H10Z"/><path class="cls-1" d="M23,23a1,1,0,0,0-1,1v9a1,1,0,0,0,2,0V25h2a1,1,0,0,0,0-2Z"/><circle class="cls-1" cx="16" cy="33" r="1"/><path class="cls-1" d="M22,8a5,5,0,1,0,5,5A5,5,0,0,0,22,8Zm0,2a3,3,0,0,1,2.82,2H19.18A3,3,0,0,1,22,10Zm0,6a3,3,0,0,1-2.82-2h5.64A3,3,0,0,1,22,16Z"/><path class="cls-1" d="M41.73,13,39,11.18A1.16,1.16,0,0,0,39,11V3a1,1,0,0,0,0-2H33a1,1,0,0,0,0,2V6a1,1,0,0,0,2,0V3h2V9.91L24.38,1.71a4.41,4.41,0,0,0-4.76,0L2.27,13A5,5,0,0,0,0,17.17V18a1,1,0,0,0,2,0v-.83a3,3,0,0,1,1.36-2.51L20.71,3.38a2.41,2.41,0,0,1,2.58,0L40.64,14.66A3,3,0,0,1,42,17H39a1,1,0,0,0,0,2h4a1,1,0,0,0,1-1v-.83A5,5,0,0,0,41.73,13Z"/><path class="cls-1" d="M35.71,25.29a1,1,0,0,0-1.42,1.42l3,3a1,1,0,0,0,1.42,0,1,1,0,0,0,0-1.42Z"/><path class="cls-1" d="M37.41,21a3.49,3.49,0,0,0-4.82,0L30,23.59a3.4,3.4,0,0,0,0,4.82l.59.59-9.3,9.29A1,1,0,0,0,21,39v3a1,1,0,0,0,1,1h3a1,1,0,0,0,.71-.29l1-1A1,1,0,0,0,27,41V40h1a1,1,0,0,0,.71-.29l1-1A1,1,0,0,0,30,38V37h1a1,1,0,0,0,.71-.29L35,33.41l.59.59a3.49,3.49,0,0,0,4.82,0L43,31.41a3.4,3.4,0,0,0,0-4.82Zm4.18,9L39,32.59a1.48,1.48,0,0,1-2,0l-1.29-1.3a1,1,0,0,0-1.42,0L30.59,35H29a1,1,0,0,0-1,1v1.59l-.41.41H26a1,1,0,0,0-1,1v1.59l-.41.41H23V39.41l9-9,.29.3a1,1,0,0,0,1.42,0,1,1,0,0,0,0-1.42L31.41,27a1.42,1.42,0,0,1,0-2L34,22.41a1.48,1.48,0,0,1,2,0L41.59,28a1.42,1.42,0,0,1,0,2Z"/><path class="cls-1" d="M39,38a1,1,0,0,0-1,1v2H30a1,1,0,0,0,0,2h9a1,1,0,0,0,1-1V39A1,1,0,0,0,39,38Z"/></g></svg>