<svg id="Layer_1" data-name="Layer 1" xmlns="http://www.w3.org/2000/svg" viewBox="0 0 44 44"><defs><style>.cls-1{fill:#fff;}</style></defs><title>cws-icon-hammer</title><path class="cls-1" d="M25.32,21.29,5.13,41.46A1.83,1.83,0,0,1,2,40.17a1.78,1.78,0,0,1,.54-1.29L25.23,16.21a1,1,0,0,0,0-1.42L24,13.59V11a1,1,0,0,0-1-1H20.43l-1-1L26,2.41l1,1V6a1,1,0,0,0,1,1h2.58l5.72,5.71a1,1,0,0,0,1.41,0l1.17-1.17a3.83,3.83,0,0,0-5.42-5.42L33,6.59l-1.29-1.3A1.05,1.05,0,0,0,31,5H29V3a1,1,0,0,0-.3-.71l-2-2a1,1,0,0,0-1.41,0l-8,8a1,1,0,0,0,0,1.42l2,2A1,1,0,0,0,20,12h2v2a1,1,0,0,0,.29.71l.8.79-22,22a3.83,3.83,0,0,0,5.42,5.42L26.73,22.71a1,1,0,0,0,0-1.42A1,1,0,0,0,25.32,21.29ZM34.91,7.54a1.83,1.83,0,0,1,2.59,2.58l-.47.47L34.45,8Z"/><path class="cls-1" d="M43.33,18.11a9.82,9.82,0,0,0-2.26-3.49l-.33-.33a1,1,0,0,0-1.41,0,1,1,0,0,0,0,1.42l.33.32a8.06,8.06,0,0,1,1.76,8.65A15.62,15.62,0,0,0,38,19.53a4.54,4.54,0,0,0-4.66-1.11L30,19.53l-2.22-2.21a1,1,0,0,0-1.42,0,1,1,0,0,0,0,1.41L29,21.39a1,1,0,0,0,1,.24L34,20.32a2.56,2.56,0,0,1,2.66.67,13.56,13.56,0,0,1,3.59,6.39,1,1,0,0,0,.78.74l.2,0a1,1,0,0,0,.8-.4A10,10,0,0,0,43.33,18.11Z"/></svg>