<?xml version="1.0" encoding="UTF-8"?>
<svg width="270px" height="232px" viewBox="0 0 270 232" version="1.1" xmlns="http://www.w3.org/2000/svg" xmlns:xlink="http://www.w3.org/1999/xlink">
    <title>B45B1360-B47D-416E-883A-F0A02B063B4D</title>
    <g id="SitoCWS" stroke="none" stroke-width="1" fill="none" fill-rule="evenodd" opacity="0.0364815848">
        <g id="Single-Case-History" transform="translate(0.000000, -4256.000000)" fill="#110553" fill-rule="nonzero">
            <g id="testimonials" transform="translate(-16.000000, 4256.000000)">
                <path d="M260,232 L260,116.720497 L215.222222,116.720497 C211.37037,74.4513458 234.962963,50.6749482 286,45.3913043 L276.611111,0 C233.759259,0.960662526 200.777778,11.7681159 177.666667,32.4223602 C154.555556,53.0766046 143,87.1801242 143,134.732919 L143,232 L260,232 Z M117,232 L117,116.720497 L72.2222222,116.720497 C68.3703704,74.4513458 91.962963,50.6749482 143,45.3913043 L133.611111,0 C90.7592593,0.960662526 57.7777778,11.7681159 34.6666667,32.4223602 C11.5555556,53.0766046 0,87.1801242 0,134.732919 L0,232 L117,232 Z" id="“"></path>
            </g>
        </g>
    </g>
</svg>