<?xml version="1.0" encoding="UTF-8"?>
<svg width="69px" height="25px" viewBox="0 0 69 25" version="1.1" xmlns="http://www.w3.org/2000/svg" xmlns:xlink="http://www.w3.org/1999/xlink">
    <title>8A7F15F2-67BB-4EB4-97EB-BFC6989C4D6B</title>
    <g id="SitoCWS" stroke="none" stroke-width="1" fill="none" fill-rule="evenodd">
        <g id="Home" transform="translate(-416.000000, -1848.000000)" fill="#0D1FCF">
            <g id="digital_transformation" transform="translate(0.000000, 768.000000)">
                <g id="Customer-Engagement" transform="translate(173.000000, 669.000000)">
                    <g id="Group-19" transform="translate(62.000000, 409.000000)">
                        <g id="arrow" transform="translate(215.500000, 14.500000) rotate(90.000000) translate(-215.500000, -14.500000) translate(203.000000, -20.000000)">
                            <path d="M11.5815514,3.36601714 L11.5815514,67.5222171 C11.5815514,68.0663314 12.0231514,68.5079314 12.5672657,68.5079314 C13.11138,68.5079314 13.55298,68.0663314 13.55298,67.5222171 L13.55298,3.36601714 L23.0237229,12.8347886 C23.4081514,13.2192171 24.0311229,13.2192171 24.4175229,12.8347886 C24.8019514,12.45036 24.8019514,11.8254171 24.4175229,11.4409886 L13.2651514,0.288617143 C12.8807229,-0.0958114286 12.25578,-0.0958114286 11.8713514,0.288617143 L0.71898,11.4409886 C0.334551429,11.8254171 0.334551429,12.45036 0.71898,12.8347886 C1.10340857,13.2192171 1.72835143,13.2192171 2.11278,12.8347886 L11.5815514,3.36601714 Z" id="Outline"></path>
                        </g>
                    </g>
                </g>
            </g>
        </g>
    </g>
</svg>