<svg xmlns="http://www.w3.org/2000/svg" width="186.943" height="27.455" viewBox="0 0 186.943 27.455"><defs><style>.a{fill:#110553;fill-rule:evenodd;}</style></defs><g transform="translate(0)"><path class="a" d="M105.9-16.522a23.363,23.363,0,0,0-2.972-1.557s-3.538-1.557-4.1-2.406a2.4,2.4,0,0,1-.566-2.83,1.614,1.614,0,0,1,1.7-.991s1.84.142,1.84,1.7v2.123h6.651v-3.255s.566-5.236-7.925-5.519c0,0-6.651-.425-8.491,3.113,0,0-.708.849-.708,3.538v1.981A6.154,6.154,0,0,0,92.455-16.8a8.642,8.642,0,0,0,2.264,1.981s3.4,1.84,5.378,2.83c0,0,1.981,1.132,1.7,2.972a2.026,2.026,0,0,1-2.123,1.84,1.975,1.975,0,0,1-1.84-1.981v-2.123H90.757v3.113s-.142,5.944,8.916,5.944c0,0,8.774.142,9.2-6.227V-11c.142.425.425-3.538-2.972-5.519ZM71.653-28.268l-2.264,14.01h-.566L66.7-28.126H55.52L54.954-2.653H61.6l.142-19.1h.566l3.538,19.1h6.934l3.4-19.1h.425l.142,19.1H83.54l-.708-25.614Zm-39.342,0L27.924-2.795H35l2.547-19.671h.708L40.8-2.795h7.076L43.491-28.268ZM181.752-16.946v3.679h1.84V-9.3a1.766,1.766,0,0,1-1.7,1.981,1.849,1.849,0,0,1-1.981-1.84V-23.032c0-1.415,1.84-1.557,1.84-1.557a1.663,1.663,0,0,1,1.7,1.7v2.123H190.1c.283-4.1-.566-5.095-.566-5.095-1.7-3.679-7.925-3.538-7.925-3.538-9.623,0-8.633,7.359-8.633,7.359V-8.6c.142,6.934,9.765,6.227,9.906,6.227,4.245-.425,5.519-1.84,5.519-1.84a4.017,4.017,0,0,0,1.415-2.123,16.144,16.144,0,0,0,.425-2.972v-7.925l-8.491.283Zm-22.218,4.1h-.283l-6.793-15.567H144.25V-2.795H150.9l-.425-15.567h.283l7.076,15.567h7.925V-28.409H159.11l.425,15.567ZM128.118-9.163s.142,2.123-1.84,2.123A1.832,1.832,0,0,1,124.3-9.021V-28.268h-7.217v19.1s-.708,7.217,9.482,7.217c0,0,8.916.142,8.916-6.934V-28.268H128.4l-.283,19.1ZM18.442-16.522a23.363,23.363,0,0,0-2.972-1.557s-3.538-1.557-4.1-2.406a2.4,2.4,0,0,1-.566-2.83,1.614,1.614,0,0,1,1.7-.991s1.84.142,1.84,1.7v2.123H20.99v-3.255s.566-5.236-7.925-5.519H11.508s-5.095.283-6.934,3.113h0s-.708.849-.708,3.538v1.981A6.154,6.154,0,0,0,5-16.8a8.642,8.642,0,0,0,2.264,1.981s3.255,1.84,5.378,2.83c0,0,1.981,1.132,1.7,2.972a2.026,2.026,0,0,1-2.123,1.84,1.975,1.975,0,0,1-1.84-1.981v-2.123H3.3v3.113s-.142,5.944,8.916,5.944c0,0,8.774.142,9.2-6.227V-11c.142.425.425-3.538-2.972-5.519Z" transform="translate(-3.3 29.401)"/></g></svg>