<svg id="Livello_1" data-name="Livello 1" xmlns="http://www.w3.org/2000/svg" viewBox="0 0 51 65"><defs><style>.cls-1{fill:#fff;}</style></defs><title>Tavola disegno 1 copia 3</title><g id="SitoCWS"><g id="Livion"><g id="low-touch"><g id="Group-24"><g id="Group-23"><g id="camera"><path id="Shape" class="cls-1" d="M25.5,11.82A13.3,13.3,0,1,0,38.8,25.11,13.31,13.31,0,0,0,25.5,11.82Zm0,23.63A10.34,10.34,0,1,1,35.84,25.11,10.35,10.35,0,0,1,25.5,35.45Z"/><path id="Shape-2" data-name="Shape" class="cls-1" d="M25.5,19.2a5.91,5.91,0,1,0,5.91,5.91A5.92,5.92,0,0,0,25.5,19.2Zm0,8.87a3,3,0,1,1,2.95-3A3,3,0,0,1,25.5,28.07Z"/><path id="Shape-3" data-name="Shape" class="cls-1" d="M47.66,60.22a7.34,7.34,0,0,0-6.61-4.08H38.8c-5.81,0-5.91-7.09-5.91-7.39V48a1.46,1.46,0,0,0-.58-1.17A1.49,1.49,0,0,0,31,46.57a21.91,21.91,0,0,1-5.54.7A22.14,22.14,0,0,1,13.6,6.45l.35.93a4.33,4.33,0,0,0,2.32,2.47,4.3,4.3,0,0,0,1.82.4,4.4,4.4,0,0,0,1.62-.31,16.17,16.17,0,0,1,11.58,0,4.42,4.42,0,0,0,3.44-.09,4.33,4.33,0,0,0,2.32-2.47l.35-.93a22.14,22.14,0,0,1-.82,37.86,1.48,1.48,0,1,0,1.48,2.56A25.12,25.12,0,1,0,25.5,50.23a25.74,25.74,0,0,0,4.48-.4c.34,3.7,2.46,9.26,8.82,9.26h2.25a4.42,4.42,0,0,1,4,2.45l.25.51H5.73L6,61.54a4.42,4.42,0,0,1,4-2.45h18.5a1.48,1.48,0,1,0,0-3H18.67a9.71,9.71,0,0,0,1.4-2.4,1.48,1.48,0,0,0-2.73-1.12,5.12,5.12,0,0,1-5.14,3.52H10a7.34,7.34,0,0,0-6.61,4.08L2,62.86A1.47,1.47,0,0,0,3.34,65H47.66a1.5,1.5,0,0,0,1.26-.7A1.48,1.48,0,0,0,49,62.86ZM34.78,5l-.49,1.32a1.44,1.44,0,0,1-.77.82,1.51,1.51,0,0,1-1.16,0,19.09,19.09,0,0,0-13.72,0,1.48,1.48,0,0,1-1.93-.85L16.22,5A21.84,21.84,0,0,1,34.78,5Z"/></g></g></g></g></g></g></svg>