<?xml version="1.0" encoding="UTF-8"?>
<svg width="30px" height="29px" viewBox="0 0 30 29" version="1.1" xmlns="http://www.w3.org/2000/svg" xmlns:xlink="http://www.w3.org/1999/xlink">
    <title>69797D56-90D2-42F4-8993-A7A9902FF5A4</title>
    <g id="SitoCWS" stroke="none" stroke-width="1" fill="none" fill-rule="evenodd">
        <g id="Home" transform="translate(-1153.000000, -9952.000000)" fill-rule="nonzero">
            <g id="footer" transform="translate(0.000000, 9618.000000)">
                <g id="Group-18" transform="translate(176.000000, 216.000000)">
                    <g id="Group-17" transform="translate(937.000000, 118.000000)">
                        <g id="facebook" transform="translate(40.165134, 0.000000)">
                            <path d="M16.6576232,28.5035331 C16.5381132,28.5382987 16.4181656,28.57033 16.2977802,28.5996268 C16.4181656,28.57033 16.5381132,28.5382987 16.6576232,28.5035331 Z" id="Path" fill="#000000"></path>
                            <path d="M16.9445783,28.4638634 C16.8874499,28.4826134 16.8303215,28.4998009 16.7731932,28.517379 C16.8303215,28.4998009 16.8874499,28.4826134 16.9445783,28.4638634 Z" id="Path" fill="#000000"></path>
                            <path d="M15.977336,28.6020237 C15.83747,28.6301487 15.6967285,28.6551487 15.5555492,28.6762424 C15.6967285,28.6551487 15.83747,28.6301487 15.977336,28.6020237 Z" id="Path" fill="#000000"></path>
                            <path d="M16.2529092,28.5747561 C16.1857123,28.5907718 16.1180776,28.6056155 16.0506617,28.619678 C16.1180776,28.6056155 16.1857123,28.5907718 16.2529092,28.5747561 Z" id="Path" fill="#000000"></path>
                            <path d="M17.3350649,28.385692 C17.2847218,28.4048326 17.2341599,28.4239733 17.183598,28.4423326 C17.2341599,28.4239733 17.2847218,28.4048326 17.3350649,28.385692 Z" id="Path" fill="#000000"></path>
                            <path d="M18.304277,28.1440624 C18.2635649,28.1647655 18.2228527,28.1842968 18.1821405,28.2046093 C18.2228527,28.1842968 18.2635649,28.1647655 18.304277,28.1440624 Z" id="Path" fill="#000000"></path>
                            <path d="M18.0111932,28.2239158 C17.9669789,28.2446189 17.9225457,28.2657127 17.8781126,28.2856345 C17.9225457,28.2657127 17.9669789,28.2450095 18.0111932,28.2239158 Z" id="Path" fill="#000000"></path>
                            <path d="M17.6277109,28.3209027 C17.58087,28.340434 17.5335913,28.3587933 17.4863127,28.3775433 C17.5335913,28.3587933 17.58087,28.340434 17.6277109,28.3209027 Z" id="Path" fill="#000000"></path>
                            <path d="M15.5509527,28.6536667 C15.4754382,28.6649948 15.3999237,28.6751511 15.3241903,28.6841354 C15.3999237,28.6751511 15.4754382,28.6649948 15.5509527,28.6536667 Z" id="Path" fill="#000000"></path>
                            <path d="M28.6893813,14.3446906 C28.6893813,6.42354793 22.2658333,0 14.3446906,0 C6.42354793,0 0,6.42354793 0,14.3446906 C0,22.2658333 6.42354793,28.6893813 14.3446906,28.6893813 C14.4289604,28.6893813 14.5127925,28.6876302 14.5968434,28.686098 L14.5968434,17.519364 L11.5149763,17.519364 L11.5149763,13.9277193 L14.5968434,13.9277193 L14.5968434,11.2847118 C14.5968434,8.21947972 16.4680708,6.55115645 19.2023524,6.55115645 C20.5117081,6.55115645 21.6372025,6.64877812 21.9653075,6.69233577 L21.9653075,9.89590163 L20.0798527,9.89590163 C18.5923266,9.89590163 18.304277,10.6028924 18.304277,11.6401771 L18.304277,13.9277193 L21.8611194,13.9277193 L21.3975261,17.519364 L18.304277,17.519364 L18.304277,28.1351705 C24.3001283,26.4162854 28.6893813,20.892345 28.6893813,14.3446906 Z" id="Path" fill="#0D1FCF"></path>
                            <path d="M15.2924523,28.6706486 C15.1431744,28.687836 14.9932398,28.7015079 14.8428675,28.7104923 C14.9932398,28.7015079 15.1431744,28.687836 15.2924523,28.6706486 Z" id="Path" fill="#000000"></path>
                            <path d="M14.8352065,28.6998527 C14.7559711,28.7045401 14.6765167,28.7080558 14.5970623,28.7103995 C14.6765167,28.7080558 14.7559711,28.7045401 14.8352065,28.6998527 Z" id="Path" fill="#000000"></path>
                        </g>
                    </g>
                </g>
            </g>
        </g>
    </g>
</svg>