<?xml version="1.0" encoding="UTF-8"?>
<svg width="30px" height="29px" viewBox="0 0 30 29" version="1.1" xmlns="http://www.w3.org/2000/svg" xmlns:xlink="http://www.w3.org/1999/xlink">
    <title>65C93EC6-DC7E-4F08-B90F-F2F1612C9B76</title>
    <g id="SitoCWS" stroke="none" stroke-width="1" fill="none" fill-rule="evenodd">
        <g id="Menu" transform="translate(-1053.000000, -484.000000)" fill="#ffffff" fill-rule="nonzero">
            <g id="social" transform="translate(973.000000, 484.000000)">
                <g id="instagram" transform="translate(80.330268, 0.000000)">
                    <path d="M17.0903541,14.3446906 C17.0903541,15.8611093 15.8611093,17.0903541 14.3446906,17.0903541 C12.8282719,17.0903541 11.5990272,15.8611093 11.5990272,14.3446906 C11.5990272,12.8282719 12.8282719,11.5990272 14.3446906,11.5990272 C15.8611093,11.5990272 17.0903541,12.8282719 17.0903541,14.3446906 Z" id="Path"></path>
                    <path d="M20.7658308,9.48681005 C20.6338446,9.12915584 20.4232796,8.80542845 20.1496763,8.53970499 C19.8839528,8.2661017 19.5604443,8.05553666 19.2025712,7.92355043 C18.9123329,7.81082587 18.4763188,7.67665085 17.6732385,7.64009744 C16.8044934,7.6004797 16.5440231,7.59194326 14.3446906,7.59194326 C12.1451393,7.59194326 11.884669,7.60026083 11.0161428,7.63987857 C10.2130625,7.67665085 9.77682949,7.81082587 9.48681005,7.92355043 C9.12893697,8.05553666 8.80520958,8.2661017 8.53970499,8.53970499 C8.2661017,8.80542845 8.05553666,9.12893697 7.92333156,9.48681005 C7.810607,9.77704836 7.67643198,10.2132814 7.63987857,11.0163617 C7.60026083,11.8848879 7.5917244,12.1453582 7.5917244,14.3449095 C7.5917244,16.544242 7.60026083,16.8047123 7.63987857,17.6734573 C7.67643198,18.4765376 7.810607,18.9125518 7.92333156,19.2027901 C8.05553666,19.5606632 8.26588283,19.8841717 8.53948612,20.1498952 C8.80520958,20.4234984 9.12871805,20.6340635 9.48659112,20.7660497 C9.77682949,20.8789931 10.2130625,21.0131682 11.0161428,21.0497216 C11.884669,21.0893394 12.1449204,21.0976569 14.3444718,21.0976569 C16.544242,21.0976569 16.8047123,21.0893394 17.6730196,21.0497216 C18.4760999,21.0131682 18.9123329,20.8789931 19.2025712,20.7660497 C19.920944,20.4889444 20.4887255,19.9211628 20.7658308,19.2027901 C20.8785554,18.9125518 21.0127304,18.4765376 21.0495027,17.6734573 C21.0891204,16.8047123 21.097438,16.544242 21.097438,14.3449095 C21.097438,12.1453582 21.0891204,11.8848879 21.0495027,11.0163617 C21.0129493,10.2132814 20.8787743,9.77704836 20.7658308,9.48681005 L20.7658308,9.48681005 Z M14.3446906,18.5743782 C12.0085566,18.5743782 10.1147842,16.6808247 10.1147842,14.3446906 C10.1147842,12.0085566 12.0085566,10.1150031 14.3446906,10.1150031 C16.6806058,10.1150031 18.5743782,12.0085566 18.5743782,14.3446906 C18.5743782,16.6808247 16.6806058,18.5743782 14.3446906,18.5743782 Z M18.7416045,10.9362507 C18.1957112,10.9362507 17.7531306,10.49367 17.7531306,9.94777679 C17.7531306,9.40188354 18.1957112,8.95930293 18.7416045,8.95930293 C19.2874977,8.95930293 19.7300783,9.40188354 19.7300783,9.94777679 C19.7298595,10.49367 19.2874977,10.9362507 18.7416045,10.9362507 Z" id="Shape"></path>
                    <path d="M14.3446906,0 C6.42354793,0 0,6.42354793 0,14.3446906 C0,22.2658333 6.42354793,28.6893813 14.3446906,28.6893813 C22.2658333,28.6893813 28.6893813,22.2658333 28.6893813,14.3446906 C28.6893813,6.42354793 22.2658333,0 14.3446906,0 Z M22.5319946,17.7406543 C22.492158,18.617498 22.3527297,19.216142 22.1491689,19.7401469 C21.7212534,20.8465985 20.8465985,21.7212534 19.7401469,22.1491689 C19.2163608,22.3527297 18.617498,22.4919391 17.7408732,22.5319946 C16.8624973,22.5720501 16.5818898,22.581681 14.3449095,22.581681 C12.1077104,22.581681 11.8273218,22.5720501 10.9487269,22.5319946 C10.0721021,22.4919391 9.4732393,22.3527297 8.94945323,22.1491689 C8.39962012,21.9423249 7.90188104,21.6181597 7.49038173,21.1989995 C7.07144045,20.7877191 6.74727526,20.2897612 6.54043121,19.7401469 C6.33687041,19.2163608 6.19744215,18.617498 6.15760554,17.7408732 C6.11711228,16.8622784 6.10770031,16.5816709 6.10770031,14.3446906 C6.10770031,12.1077104 6.11711228,11.8271028 6.15738668,10.9487269 C6.19722328,10.0718832 6.33643262,9.4732393 6.53999348,8.94923436 C6.74683753,8.39962012 7.07122152,7.90166217 7.49038173,7.49038173 C7.90166217,7.07122152 8.39962012,6.7470564 8.94923436,6.54021234 C9.4732393,6.33665155 10.0718832,6.19744215 10.9487269,6.15738668 C11.8271028,6.11733114 12.1077104,6.10770031 14.3446906,6.10770031 C16.5816709,6.10770031 16.8622784,6.11733114 17.7406543,6.15760554 C18.617498,6.19744215 19.216142,6.33665155 19.7401469,6.53999348 C20.2897612,6.74683753 20.7877191,7.07122152 21.1992184,7.49038173 C21.6181597,7.90188104 21.9425437,8.39962012 22.1491689,8.94923436 C22.3529486,9.4732393 22.492158,10.0718832 22.5322135,10.9487269 C22.572269,11.8271028 22.581681,12.1077104 22.581681,14.3446906 C22.581681,16.5816709 22.572269,16.8622784 22.5319946,17.7406543 L22.5319946,17.7406543 Z" id="Shape"></path>
                </g>
            </g>
        </g>
    </g>
</svg>