<?xml version="1.0" encoding="UTF-8"?>
<svg width="29px" height="29px" viewBox="0 0 29 29" version="1.1" xmlns="http://www.w3.org/2000/svg" xmlns:xlink="http://www.w3.org/1999/xlink">
    <title>C62BF79C-BC63-46AF-B394-525726D6DD49</title>
    <g id="SitoCWS" stroke="none" stroke-width="1" fill="none" fill-rule="evenodd">
        <g id="Home" transform="translate(-1113.000000, -9952.000000)" fill="#0D1FCF" fill-rule="nonzero">
            <g id="footer" transform="translate(0.000000, 9618.000000)">
                <g id="Group-18" transform="translate(176.000000, 216.000000)">
                    <g id="Group-17" transform="translate(937.000000, 118.000000)">
                        <g id="linkedin">
                            <path d="M14.3446906,0 C6.42354793,0 0,6.42354793 0,14.3446906 C0,22.2658333 6.42354793,28.6893813 14.3446906,28.6893813 C22.2658333,28.6893813 28.6893813,22.2658333 28.6893813,14.3446906 C28.6893813,6.42354793 22.2658333,0 14.3446906,0 Z M10.1762902,21.6851378 L6.68270494,21.6851378 L6.68270494,11.1746138 L10.1762902,11.1746138 L10.1762902,21.6851378 Z M8.42960702,9.73940055 L8.40684323,9.73940055 C7.23450798,9.73940055 6.47629862,8.93238036 6.47629862,7.9237693 C6.47629862,6.89239445 7.25770956,6.10770031 8.45280855,6.10770031 C9.64790765,6.10770031 10.3833532,6.89239445 10.406117,7.9237693 C10.406117,8.93238036 9.64790765,9.73940055 8.42960702,9.73940055 Z M22.7734221,21.6851378 L19.2802746,21.6851378 L19.2802746,16.0622625 C19.2802746,14.6491564 18.7744369,13.6854162 17.5103898,13.6854162 C16.5453364,13.6854162 15.9705507,14.3354976 15.7179601,14.963034 C15.6255917,15.1876076 15.6030467,15.5014852 15.6030467,15.8155818 L15.6030467,21.6851378 L12.1096803,21.6851378 C12.1096803,21.6851378 12.1554268,12.16068 12.1096803,11.1746138 L15.6030467,11.1746138 L15.6030467,12.6627967 C16.0672968,11.9466128 16.8979563,10.9279331 18.7514542,10.9279331 C21.0499404,10.9279331 22.7734221,12.4301244 22.7734221,15.658424 L22.7734221,21.6851378 Z" id="Shape"></path>
                        </g>
                    </g>
                </g>
            </g>
        </g>
    </g>
</svg>