<?xml version="1.0" encoding="UTF-8"?>
<svg width="30px" height="29px" viewBox="0 0 30 29" version="1.1" xmlns="http://www.w3.org/2000/svg" xmlns:xlink="http://www.w3.org/1999/xlink">
    <title>26FA8D62-497B-499F-8DD8-6B6AFCDFA653</title>
    <g id="SitoCWS" stroke="none" stroke-width="1" fill="none" fill-rule="evenodd">
        <g id="Menu" transform="translate(-1093.000000, -484.000000)" fill="#ffffff" fill-rule="nonzero">
            <g id="social" transform="translate(973.000000, 484.000000)">
                <g id="twitter" transform="translate(120.495401, 0.000000)">
                    <path d="M14.3446906,0 C6.42354793,0 0,6.42354793 0,14.3446906 C0,22.2658333 6.42354793,28.6893813 14.3446906,28.6893813 C22.2658333,28.6893813 28.6893813,22.2658333 28.6893813,14.3446906 C28.6893813,6.42354793 22.2658333,0 14.3446906,0 Z M20.8943149,11.1844635 C20.9006625,11.3256428 20.9037269,11.4674788 20.9037269,11.6099713 C20.9037269,15.9607009 17.592033,20.9777092 11.5357701,20.9779281 L11.535989,20.9779281 L11.5357701,20.9779281 C9.67636236,20.9779281 7.94609535,20.4329104 6.48899384,19.4989383 C6.74661866,19.529363 7.00884,19.5444659 7.27434459,19.5444659 C8.81702921,19.5444659 10.2367018,19.0182721 11.3637284,18.1350808 C9.92238641,18.1083771 8.70715017,17.1564567 8.28777109,15.8481953 C8.48848643,15.8867186 8.69489274,15.9077313 8.90655224,15.9077313 C9.20707805,15.9077313 9.49819189,15.8672381 9.77485951,15.7917236 C8.26829055,15.4901033 7.13338424,14.1586404 7.13338424,12.5642995 C7.13338424,12.5494155 7.13338424,12.5360636 7.13382198,12.522274 C7.57749704,12.7689547 8.0848669,12.9173572 8.62506918,12.9339922 C7.74100236,12.3441036 7.15986902,11.3357114 7.15986902,10.1933631 C7.15986902,9.59012264 7.32293655,9.02496772 7.60573288,8.53839166 C9.2294041,10.5306612 11.6559367,11.8408925 14.392407,11.9785697 C14.3359353,11.737361 14.306824,11.4860838 14.306824,11.2278023 C14.306824,9.41020111 15.7814361,7.93558899 17.5996939,7.93558899 C18.546799,7.93558899 19.4021922,8.33592526 20.003025,8.97593801 C20.7531357,8.82797337 21.4574999,8.55393234 22.0937916,8.17679759 C21.8475487,8.94529445 21.3257326,9.59012264 20.6458832,9.9979009 C21.311943,9.91822763 21.9467025,9.74158935 22.5365911,9.47936801 C22.0959804,10.1397368 21.5371732,10.7197758 20.8943149,11.1844635 Z" id="Shape"></path>
                </g>
            </g>
        </g>
    </g>
</svg>