<svg xmlns="http://www.w3.org/2000/svg" width="140.95" height="27.737" viewBox="0 0 140.95 27.737"><defs><style>.a{fill:#110553;}</style></defs><path class="a" d="M59.565-58.156a8.441,8.441,0,0,0-6.793,3.4v-2.972h-5.8V-36.5h5.8v-12.17A4.621,4.621,0,0,1,57.584-53.2,4.7,4.7,0,0,1,62.4-48.675v12.029h5.8V-49.807c.142-4.812-3.4-8.349-8.633-8.349m49.955.283-5.236,14.435L99.048-57.873h-6.51l8.774,21.227h6.368l8.491-21.227ZM40.743-43.3c-2.547,1.84-3.821,2.123-6.085,2.123a6.311,6.311,0,0,1-4.67-1.7L44.706-49.1a11.933,11.933,0,0,0-2.547-5.944,10.572,10.572,0,0,0-8.349-3.4,10.793,10.793,0,0,0-11.18,10.9c0,6.368,4.812,10.9,11.887,10.9,3.821,0,7.925-1.84,9.765-4.1Zm-11.18-8.208a5.21,5.21,0,0,1,4.529-2.123,5.175,5.175,0,0,1,4.529,2.972L28.573-46.41A6.58,6.58,0,0,1,29.564-51.505ZM22.2-42.023H9.044V-64.1H3.1v27.454H22.2Zm104.3,5.661c-6.368,0-11.321-4.67-11.321-10.9a11,11,0,0,1,11.321-10.9c6.368,0,11.321,4.67,11.321,10.9.283,6.227-4.812,10.9-11.321,10.9m0-16.84a5.659,5.659,0,0,0-5.661,5.944,5.834,5.834,0,0,0,5.661,5.944,5.659,5.659,0,0,0,5.661-5.944A5.577,5.577,0,0,0,126.5-53.2M81.925-36.363c-6.368,0-11.321-4.67-11.321-10.9a11,11,0,0,1,11.321-10.9c6.368,0,11.321,4.67,11.321,10.9s-4.953,10.9-11.321,10.9m0-16.84a5.659,5.659,0,0,0-5.661,5.944,5.834,5.834,0,0,0,5.661,5.944,5.659,5.659,0,0,0,5.661-5.944A5.659,5.659,0,0,0,81.925-53.2m56.89,14.01h-.991v-.425h2.547v.425h-.991v2.547h-.566Zm2.123-.566h.566l.991,1.415.991-1.415h.566v3.113h-.566v-2.123l-.991,1.415-.991-1.415v2.123h-.566Z" transform="translate(-3.1 64.1)"/></svg>