<svg xmlns="http://www.w3.org/2000/svg" width="135.962" height="39.767" viewBox="0 0 135.962 39.767"><defs><style>.a{fill:#110553;}.b{fill:#fff;}</style></defs><path class="a" d="M2.5,5.381A2.056,2.056,0,0,1,4.623,3.4H28.4A2.176,2.176,0,0,1,30.52,5.523V29.3A2.176,2.176,0,0,1,28.4,31.42H4.623A2.176,2.176,0,0,1,2.5,29.3Z" transform="translate(-2.5 -0.428)"/><path class="b" d="M5.4,6.866A.609.609,0,0,1,5.966,6.3H9.079a.609.609,0,0,1,.566.566V9.979c-.142.142-.283.425-.566.425H5.966A.609.609,0,0,1,5.4,9.838Z" transform="translate(-1.296 0.776)"/><path class="b" d="M9.566,6.3A.609.609,0,0,0,9,6.866V9.979a.609.609,0,0,0,.566.566h3.113a.609.609,0,0,0,.566-.566V6.866a.609.609,0,0,0-.566-.566Z" transform="translate(0.199 0.776)"/><path class="b" d="M12.8,6.866a.609.609,0,0,1,.566-.566h3.113a.609.609,0,0,1,.566.566V9.979a.609.609,0,0,1-.566.566H13.366a.609.609,0,0,1-.566-.566Z" transform="translate(1.776 0.776)"/><path class="b" d="M5.966,9.9a.609.609,0,0,0-.566.566v3.113a.609.609,0,0,0,.566.566H9.079a.609.609,0,0,0,.566-.566V10.466A.609.609,0,0,0,9.079,9.9Z" transform="translate(-1.296 2.27)"/><path class="b" d="M9.142,10.466A.609.609,0,0,1,9.708,9.9h3.113a.609.609,0,0,1,.566.566v3.113a.609.609,0,0,1-.566.566H9.566A.609.609,0,0,1,9,13.579V10.466Z" transform="translate(0.199 2.27)"/><path class="b" d="M16.966,9.9a.609.609,0,0,0-.566.566v3.113a.609.609,0,0,0,.566.566h3.113a.609.609,0,0,0,.566-.566V10.466a.609.609,0,0,0-.566-.566Z" transform="translate(3.271 2.27)"/><path class="b" d="M5.4,14.166a.609.609,0,0,1,.566-.566H9.079a.609.609,0,0,1,.566.566v3.113a.609.609,0,0,1-.566.566H5.966a.609.609,0,0,1-.566-.566Z" transform="translate(-1.296 3.807)"/><path class="b" d="M13.266,13.6a.609.609,0,0,0-.566.566v3.113a.609.609,0,0,0,.566.566h3.113a.609.609,0,0,0,.566-.566V14.166a.609.609,0,0,0-.566-.566Z" transform="translate(1.735 3.807)"/><path class="b" d="M16.4,14.166a.609.609,0,0,1,.566-.566h3.113a.609.609,0,0,1,.566.566v3.113a.609.609,0,0,1-.566.566H16.966a.609.609,0,0,1-.566-.566Z" transform="translate(3.271 3.807)"/><path class="b" d="M9.566,17.3A.609.609,0,0,0,9,17.866v3.113a.609.609,0,0,0,.566.566h3.113a.609.609,0,0,0,.566-.566V17.866a.609.609,0,0,0-.566-.566Z" transform="translate(0.199 5.343)"/><path class="b" d="M12.8,17.766a.609.609,0,0,1,.566-.566h3.113a.609.609,0,0,1,.566.566v3.113a.609.609,0,0,1-.566.566H13.366a.609.609,0,0,1-.566-.566Z" transform="translate(1.776 5.301)"/><path class="b" d="M16.966,17.3a.609.609,0,0,0-.566.566v3.113a.609.609,0,0,0,.566.566h3.113a.609.609,0,0,0,.566-.566V17.866a.609.609,0,0,0-.566-.566Z" transform="translate(3.271 5.343)"/><path class="a" d="M42.859,30.028H30.547V4.555a.3.3,0,0,0-.283-.283H28.283A.3.3,0,0,0,28,4.555V31.868a.3.3,0,0,0,.283.283H42.718A.3.3,0,0,0,43,31.868v-1.7C43.142,30.028,43,30.028,42.859,30.028ZM61.115,11.772H56.728v-4.1c0-2.83.991-4.245,2.83-4.245a5.933,5.933,0,0,1,2.264.566c.142.142.142.142.283,0l.142-.142.425-1.557c.142-.142,0-.283-.142-.283A8.226,8.226,0,0,0,59.558,1.3c-3.255,0-5.236,2.264-5.236,6.227v4.245l-2.406.142a.3.3,0,0,0-.283.283v1.415a.3.3,0,0,0,.283.283h2.547V31.868a.3.3,0,0,0,.283.283h1.84a.3.3,0,0,0,.283-.283V13.753h4.387a.3.3,0,0,0,.283-.283V11.914a.52.52,0,0,0-.425-.142Zm9.34-.566c-4.245,0-8.916,3.821-8.916,10.755,0,6.227,3.821,10.614,9.482,10.614a10.962,10.962,0,0,0,6.368-1.981c.142,0,.142-.142.142-.283L76.682,28.9l-.142-.142c-.142,0-.142,0-.283.142a8.018,8.018,0,0,1-5.236,1.7c-4.245,0-7.076-3.255-7.217-8.066h14.01a.3.3,0,0,0,.283-.283,6.347,6.347,0,0,0,.142-1.557C78.38,14.744,75.408,11.206,70.455,11.206Zm-6.51,9.2c.566-4.245,3.113-7.076,6.51-7.076,3.538,0,5.519,2.547,5.519,7.076Zm27.737-8.774a5.17,5.17,0,0,0-2.123-.425c-2.123,0-3.962,1.274-5.519,3.679L83.9,11.914a.3.3,0,0,0-.283-.283H82.059a.3.3,0,0,0-.283.283V31.868a.3.3,0,0,0,.283.283H83.9a.3.3,0,0,0,.283-.283V18.282c1.274-3.113,3.113-4.953,5.236-4.953a6.082,6.082,0,0,1,1.7.283H91.4l.142-.142.425-1.7C91.824,11.772,91.824,11.772,91.682,11.631Zm16.274.142H106.4a.3.3,0,0,0-.283.283l-.142,1.557a8.415,8.415,0,0,0-5.661-2.264c-5.236,0-9.057,4.529-9.057,10.755,0,6.651,3.113,10.614,8.491,10.614a9.6,9.6,0,0,0,6.368-2.83l.142,2.123a.3.3,0,0,0,.283.283H108.1a.3.3,0,0,0,.283-.283v-20.1a.52.52,0,0,0-.425-.142Zm-1.981,3.962v11.6c-2.123,2.123-3.962,3.113-5.944,3.113-3.962,0-6.227-3.255-6.227-8.491,0-4.812,2.972-8.633,6.793-8.633C102.3,13.329,103.994,14.036,105.976,15.735Zm21.794-3.962c-.142-.142-.142-.142-.283-.142h-1.84a.494.494,0,0,0-.283.142l-4.246,12.453a12.456,12.456,0,0,0-.708,2.123c-.283,1.132-.708,2.123-.991,2.972-.425-1.132-.849-2.123-1.274-3.255a11.091,11.091,0,0,1-.708-1.981l-4.812-12.453c-.142-.142-.142-.142-.283-.142h-1.981c-.142,0-.142.142-.283.142-.142.142-.142.142,0,.283l8.491,20.237-.566,1.7c-.849,2.406-2.264,5.095-4.812,5.095a5.087,5.087,0,0,1-1.557-.283h-.283l-.142.142-.425,1.557c-.142.142.142.283.142.283a5.17,5.17,0,0,0,2.123.425c3.113,0,5.378-2.406,6.934-6.793l7.783-22.5ZM48.1,7.244a.609.609,0,0,0,.566-.566V4.838a.609.609,0,0,0-.566-.566h-1.84a.609.609,0,0,0-.566.566v1.84a.609.609,0,0,0,.566.566Zm-1.84,4.529H48.1a.3.3,0,0,1,.283.283V32.009a.3.3,0,0,1-.283.283h-1.84a.3.3,0,0,1-.283-.283v-20.1C45.973,11.772,46.114,11.772,46.256,11.772Z" transform="translate(8.087 -1.3)"/></svg>