<svg xmlns="http://www.w3.org/2000/svg" width="163.31" height="34.813" viewBox="0 0 163.31 34.813"><defs><style>.a{fill:#110553;}</style></defs><path class="a" d="M152.225-85.528v-2.83h-3.679v-4.529H148.4l-3.4.991h0v3.4h-5.236v-1.84a2.767,2.767,0,0,1,.566-1.981,2.344,2.344,0,0,1,1.7-.708,6.019,6.019,0,0,1,1.557.283h.142v-2.972h0A6.561,6.561,0,0,0,141.753-96a6.442,6.442,0,0,0-2.83.708,6.166,6.166,0,0,0-1.981,1.84,5.983,5.983,0,0,0-.708,2.83V-88.5h-2.547v2.83h2.547V-73.64h3.538V-85.669h5.236v7.642c0,3.113,1.557,4.812,4.387,4.812a6.346,6.346,0,0,0,1.557-.142,6.366,6.366,0,0,1,1.132-.283h0v-2.83l-.142.142a1.081,1.081,0,0,1-.708.283,1.539,1.539,0,0,1-.708.142,1.933,1.933,0,0,1-1.557-.566,3.425,3.425,0,0,1-.425-1.981v-7.076ZM125.761-75.9a3.655,3.655,0,0,1-2.972-1.274,5.571,5.571,0,0,1-1.132-3.538,5.708,5.708,0,0,1,1.132-3.679,3.655,3.655,0,0,1,2.972-1.274,3.655,3.655,0,0,1,2.972,1.274,5.708,5.708,0,0,1,1.132,3.679,5.693,5.693,0,0,1-.991,3.679,4.662,4.662,0,0,1-3.113,1.132m.142-12.878a7.914,7.914,0,0,0-5.8,2.123,7.915,7.915,0,0,0-2.123,5.8A7.577,7.577,0,0,0,120.1-75.2a7.466,7.466,0,0,0,5.519,2.123A7.577,7.577,0,0,0,131.28-75.2,7.915,7.915,0,0,0,133.4-81a8.1,8.1,0,0,0-1.981-5.661,7.042,7.042,0,0,0-5.519-2.123m-13.586,0a6.191,6.191,0,0,0-4.1,1.274,3.827,3.827,0,0,0-1.557,3.255,7.17,7.17,0,0,0,.283,1.84A3.594,3.594,0,0,0,108.072-81a6.919,6.919,0,0,0,2.123,1.274,7.571,7.571,0,0,1,1.84.849c.425.283.708.425.849.708a1.2,1.2,0,0,1,.283.849c0,.991-.708,1.557-2.264,1.557a5.556,5.556,0,0,1-1.981-.425,8.646,8.646,0,0,1-1.981-.991l-.142-.142v3.4h0a7.006,7.006,0,0,0,1.84.566,11.1,11.1,0,0,0,1.981.283,7.024,7.024,0,0,0,4.387-1.274,3.915,3.915,0,0,0,1.557-3.4,3.951,3.951,0,0,0-.849-2.547,7.151,7.151,0,0,0-2.972-1.84,6.627,6.627,0,0,1-2.123-1.132,1.607,1.607,0,0,1-.425-1.132,1.287,1.287,0,0,1,.566-1.132,2.542,2.542,0,0,1,1.557-.425,9.74,9.74,0,0,1,1.84.283,5.231,5.231,0,0,1,1.557.708l.142.142v-3.255h0c-.425-.142-.991-.283-1.557-.425-.991-.141-1.557-.283-1.981-.283M97.175-75.9A3.655,3.655,0,0,1,94.2-77.178a5.571,5.571,0,0,1-1.132-3.538A5.708,5.708,0,0,1,94.2-84.4a3.655,3.655,0,0,1,2.972-1.274,3.655,3.655,0,0,1,2.972,1.274,5.708,5.708,0,0,1,1.132,3.679,5.693,5.693,0,0,1-.991,3.679A4.17,4.17,0,0,1,97.175-75.9m.283-12.878a7.914,7.914,0,0,0-5.8,2.123,7.915,7.915,0,0,0-2.123,5.8A7.577,7.577,0,0,0,91.656-75.2a7.466,7.466,0,0,0,5.519,2.123,7.577,7.577,0,0,0,5.661-2.123,7.914,7.914,0,0,0,2.123-5.8,8.1,8.1,0,0,0-1.981-5.661,7.466,7.466,0,0,0-5.519-2.123M84.014-85.811v-2.547H80.476v15h3.538V-81a5.084,5.084,0,0,1,.849-3.113,2.428,2.428,0,0,1,2.264-1.132,2.408,2.408,0,0,1,.991.142,5.567,5.567,0,0,0,.849.283l.142.142v-3.538h0a3.944,3.944,0,0,0-1.415-.142,3.843,3.843,0,0,0-2.406.849,4.376,4.376,0,0,0-1.274,1.7Zm-9.765-2.972A8.2,8.2,0,0,0,70-87.792a7.165,7.165,0,0,0-2.83,2.972,8.547,8.547,0,0,0-.991,4.245,7.01,7.01,0,0,0,.991,3.821,7.01,7.01,0,0,0,2.689,2.689,8.5,8.5,0,0,0,3.821.991,7.867,7.867,0,0,0,4.246-.991h0V-77.32l-.142.142a4.783,4.783,0,0,1-1.7.849,3.59,3.59,0,0,1-1.7.283,4.06,4.06,0,0,1-3.255-1.274,4.709,4.709,0,0,1-1.274-3.538,5.291,5.291,0,0,1,1.274-3.679,4.607,4.607,0,0,1,3.255-1.415,6.477,6.477,0,0,1,3.4,1.132l.142.142v-3.4h0a4.775,4.775,0,0,0-1.7-.566c-.708,0-1.415-.142-1.981-.142m-10.472.425H60.239v15h3.538v-15Zm-1.7-6.368a2.128,2.128,0,0,0-1.557.566,1.817,1.817,0,0,0-.566,1.415,1.817,1.817,0,0,0,.566,1.415,1.933,1.933,0,0,0,1.557.566,2.128,2.128,0,0,0,1.557-.566,1.817,1.817,0,0,0,.566-1.415,1.817,1.817,0,0,0-.566-1.415,2.128,2.128,0,0,0-1.557-.566M53.3-89.49v16.133h3.538V-94.3H51.89L45.521-78.735,39.436-94.3H34.2v20.944h3.4V-89.49h.142l6.51,16.133h2.547L53.3-89.49Z" transform="translate(11.085 101.236)"/><path class="a" d="M18.757-83.143H2.2V-99.7H18.757Z" transform="translate(-2.2 99.7)"/><path class="a" d="M31.657-83.143H15.1V-99.7H31.657v16.557Z" transform="translate(3.156 99.7)"/><path class="a" d="M18.757-70.243H2.2V-86.8H18.757Z" transform="translate(-2.2 105.056)"/><path class="a" d="M31.657-70.243H15.1V-86.8H31.657v16.557Z" transform="translate(3.156 105.056)"/></svg>